<?xml version="1.0" encoding="UTF-8" standalone="no"?>
<!DOCTYPE svg PUBLIC "-//W3C//DTD SVG 1.1//EN"
 "http://www.w3.org/Graphics/SVG/1.1/DTD/svg11.dtd">
<!-- Generated by graphviz version 2.46.1 (20210213.1702)
 -->
<!-- Title: Tree Pages: 1 -->
<svg width="1552pt" height="477pt"
 viewBox="0.00 0.00 1552.00 477.00" xmlns="http://www.w3.org/2000/svg" xmlns:xlink="http://www.w3.org/1999/xlink">
<g id="graph0" class="graph" transform="scale(1 1) rotate(0) translate(4 473)">
<title>Tree</title>
<polygon fill="white" stroke="transparent" points="-4,4 -4,-473 1548,-473 1548,4 -4,4"/>
<!-- 0 -->
<g id="node1" class="node">
<title>0</title>
<polygon fill="#f7d8c2" stroke="black" points="712.5,-469 600.5,-469 600.5,-401 712.5,-401 712.5,-469"/>
<text text-anchor="middle" x="656.5" y="-453.8" font-family="Times,serif" font-size="14.00">LSTAT &lt;= 9.615</text>
<text text-anchor="middle" x="656.5" y="-438.8" font-family="Times,serif" font-size="14.00">mse = 87.091</text>
<text text-anchor="middle" x="656.5" y="-423.8" font-family="Times,serif" font-size="14.00">samples = 354</text>
<text text-anchor="middle" x="656.5" y="-408.8" font-family="Times,serif" font-size="14.00">value = 22.661</text>
</g>
<!-- 1 -->
<g id="node2" class="node">
<title>1</title>
<polygon fill="#f2c09c" stroke="black" points="500,-365 401,-365 401,-297 500,-297 500,-365"/>
<text text-anchor="middle" x="450.5" y="-349.8" font-family="Times,serif" font-size="14.00">RM &lt;= 7.437</text>
<text text-anchor="middle" x="450.5" y="-334.8" font-family="Times,serif" font-size="14.00">mse = 85.499</text>
<text text-anchor="middle" x="450.5" y="-319.8" font-family="Times,serif" font-size="14.00">samples = 143</text>
<text text-anchor="middle" x="450.5" y="-304.8" font-family="Times,serif" font-size="14.00">value = 30.166</text>
</g>
<!-- 0&#45;&gt;1 -->
<g id="edge1" class="edge">
<title>0&#45;&gt;1</title>
<path fill="none" stroke="black" d="M600.48,-406.26C572.21,-392.26 537.92,-375.29 509.27,-361.1"/>
<polygon fill="black" stroke="black" points="510.7,-357.9 500.18,-356.6 507.59,-364.17 510.7,-357.9"/>
<text text-anchor="middle" x="508.18" y="-376.59" font-family="Times,serif" font-size="14.00">True</text>
</g>
<!-- 14 -->
<g id="node15" class="node">
<title>14</title>
<polygon fill="#fae8db" stroke="black" points="933,-365 828,-365 828,-297 933,-297 933,-365"/>
<text text-anchor="middle" x="880.5" y="-349.8" font-family="Times,serif" font-size="14.00">LSTAT &lt;= 15.0</text>
<text text-anchor="middle" x="880.5" y="-334.8" font-family="Times,serif" font-size="14.00">mse = 24.118</text>
<text text-anchor="middle" x="880.5" y="-319.8" font-family="Times,serif" font-size="14.00">samples = 211</text>
<text text-anchor="middle" x="880.5" y="-304.8" font-family="Times,serif" font-size="14.00">value = 17.574</text>
</g>
<!-- 0&#45;&gt;14 -->
<g id="edge14" class="edge">
<title>0&#45;&gt;14</title>
<path fill="none" stroke="black" d="M712.74,-408.39C744.96,-393.72 785.44,-375.28 818.57,-360.2"/>
<polygon fill="black" stroke="black" points="820.06,-363.37 827.71,-356.04 817.16,-357 820.06,-363.37"/>
<text text-anchor="middle" x="818.95" y="-375.75" font-family="Times,serif" font-size="14.00">False</text>
</g>
<!-- 2 -->
<g id="node3" class="node">
<title>2</title>
<polygon fill="#f4c9aa" stroke="black" points="215,-261 118,-261 118,-193 215,-193 215,-261"/>
<text text-anchor="middle" x="166.5" y="-245.8" font-family="Times,serif" font-size="14.00">DIS &lt;= 1.485</text>
<text text-anchor="middle" x="166.5" y="-230.8" font-family="Times,serif" font-size="14.00">mse = 47.445</text>
<text text-anchor="middle" x="166.5" y="-215.8" font-family="Times,serif" font-size="14.00">samples = 122</text>
<text text-anchor="middle" x="166.5" y="-200.8" font-family="Times,serif" font-size="14.00">value = 27.45</text>
</g>
<!-- 1&#45;&gt;2 -->
<g id="edge2" class="edge">
<title>1&#45;&gt;2</title>
<path fill="none" stroke="black" d="M400.71,-312.12C351.69,-294.51 276.84,-267.63 225.01,-249.01"/>
<polygon fill="black" stroke="black" points="225.88,-245.61 215.29,-245.52 223.51,-252.2 225.88,-245.61"/>
</g>
<!-- 7 -->
<g id="node8" class="node">
<title>7</title>
<polygon fill="#e88e4d" stroke="black" points="504,-261 397,-261 397,-193 504,-193 504,-261"/>
<text text-anchor="middle" x="450.5" y="-245.8" font-family="Times,serif" font-size="14.00">CRIM &lt;= 0.577</text>
<text text-anchor="middle" x="450.5" y="-230.8" font-family="Times,serif" font-size="14.00">mse = 14.66</text>
<text text-anchor="middle" x="450.5" y="-215.8" font-family="Times,serif" font-size="14.00">samples = 21</text>
<text text-anchor="middle" x="450.5" y="-200.8" font-family="Times,serif" font-size="14.00">value = 45.948</text>
</g>
<!-- 1&#45;&gt;7 -->
<g id="edge7" class="edge">
<title>1&#45;&gt;7</title>
<path fill="none" stroke="black" d="M450.5,-296.88C450.5,-288.78 450.5,-279.98 450.5,-271.47"/>
<polygon fill="black" stroke="black" points="454,-271.3 450.5,-261.3 447,-271.3 454,-271.3"/>
</g>
<!-- 3 -->
<g id="node4" class="node">
<title>3</title>
<polygon fill="#e58139" stroke="black" points="98.5,-149.5 12.5,-149.5 12.5,-96.5 98.5,-96.5 98.5,-149.5"/>
<text text-anchor="middle" x="55.5" y="-134.3" font-family="Times,serif" font-size="14.00">mse = 0.0</text>
<text text-anchor="middle" x="55.5" y="-119.3" font-family="Times,serif" font-size="14.00">samples = 5</text>
<text text-anchor="middle" x="55.5" y="-104.3" font-family="Times,serif" font-size="14.00">value = 50.0</text>
</g>
<!-- 2&#45;&gt;3 -->
<g id="edge3" class="edge">
<title>2&#45;&gt;3</title>
<path fill="none" stroke="black" d="M130.46,-192.88C117.78,-181.23 103.54,-168.14 90.9,-156.53"/>
<polygon fill="black" stroke="black" points="93,-153.71 83.27,-149.52 88.27,-158.86 93,-153.71"/>
</g>
<!-- 4 -->
<g id="node5" class="node">
<title>4</title>
<polygon fill="#f4ccaf" stroke="black" points="216,-157 117,-157 117,-89 216,-89 216,-157"/>
<text text-anchor="middle" x="166.5" y="-141.8" font-family="Times,serif" font-size="14.00">RM &lt;= 6.797</text>
<text text-anchor="middle" x="166.5" y="-126.8" font-family="Times,serif" font-size="14.00">mse = 26.813</text>
<text text-anchor="middle" x="166.5" y="-111.8" font-family="Times,serif" font-size="14.00">samples = 117</text>
<text text-anchor="middle" x="166.5" y="-96.8" font-family="Times,serif" font-size="14.00">value = 26.486</text>
</g>
<!-- 2&#45;&gt;4 -->
<g id="edge4" class="edge">
<title>2&#45;&gt;4</title>
<path fill="none" stroke="black" d="M166.5,-192.88C166.5,-184.78 166.5,-175.98 166.5,-167.47"/>
<polygon fill="black" stroke="black" points="170,-167.3 166.5,-157.3 163,-167.3 170,-167.3"/>
</g>
<!-- 5 -->
<g id="node6" class="node">
<title>5</title>
<polygon fill="#f6d3ba" stroke="black" points="99,-53 0,-53 0,0 99,0 99,-53"/>
<text text-anchor="middle" x="49.5" y="-37.8" font-family="Times,serif" font-size="14.00">mse = 11.8</text>
<text text-anchor="middle" x="49.5" y="-22.8" font-family="Times,serif" font-size="14.00">samples = 85</text>
<text text-anchor="middle" x="49.5" y="-7.8" font-family="Times,serif" font-size="14.00">value = 24.154</text>
</g>
<!-- 4&#45;&gt;5 -->
<g id="edge5" class="edge">
<title>4&#45;&gt;5</title>
<path fill="none" stroke="black" d="M125.58,-88.95C113.8,-79.43 100.97,-69.07 89.26,-59.62"/>
<polygon fill="black" stroke="black" points="91.34,-56.8 81.36,-53.24 86.94,-62.24 91.34,-56.8"/>
</g>
<!-- 6 -->
<g id="node7" class="node">
<title>6</title>
<polygon fill="#f0b890" stroke="black" points="216,-53 117,-53 117,0 216,0 216,-53"/>
<text text-anchor="middle" x="166.5" y="-37.8" font-family="Times,serif" font-size="14.00">mse = 13.868</text>
<text text-anchor="middle" x="166.5" y="-22.8" font-family="Times,serif" font-size="14.00">samples = 32</text>
<text text-anchor="middle" x="166.5" y="-7.8" font-family="Times,serif" font-size="14.00">value = 32.681</text>
</g>
<!-- 4&#45;&gt;6 -->
<g id="edge6" class="edge">
<title>4&#45;&gt;6</title>
<path fill="none" stroke="black" d="M166.5,-88.95C166.5,-80.72 166.5,-71.85 166.5,-63.48"/>
<polygon fill="black" stroke="black" points="170,-63.24 166.5,-53.24 163,-63.24 170,-63.24"/>
</g>
<!-- 8 -->
<g id="node9" class="node">
<title>8</title>
<polygon fill="#e89051" stroke="black" points="437,-157 338,-157 338,-89 437,-89 437,-157"/>
<text text-anchor="middle" x="387.5" y="-141.8" font-family="Times,serif" font-size="14.00">TAX &lt;= 234.0</text>
<text text-anchor="middle" x="387.5" y="-126.8" font-family="Times,serif" font-size="14.00">mse = 13.91</text>
<text text-anchor="middle" x="387.5" y="-111.8" font-family="Times,serif" font-size="14.00">samples = 18</text>
<text text-anchor="middle" x="387.5" y="-96.8" font-family="Times,serif" font-size="14.00">value = 45.272</text>
</g>
<!-- 7&#45;&gt;8 -->
<g id="edge8" class="edge">
<title>7&#45;&gt;8</title>
<path fill="none" stroke="black" d="M430.05,-192.88C424.76,-184.33 419.01,-175.01 413.49,-166.07"/>
<polygon fill="black" stroke="black" points="416.3,-163.97 408.07,-157.3 410.34,-167.65 416.3,-163.97"/>
</g>
<!-- 11 -->
<g id="node12" class="node">
<title>11</title>
<polygon fill="#e58139" stroke="black" points="574,-157 455,-157 455,-89 574,-89 574,-157"/>
<text text-anchor="middle" x="514.5" y="-141.8" font-family="Times,serif" font-size="14.00">INDUS &lt;= 11.775</text>
<text text-anchor="middle" x="514.5" y="-126.8" font-family="Times,serif" font-size="14.00">mse = 0.0</text>
<text text-anchor="middle" x="514.5" y="-111.8" font-family="Times,serif" font-size="14.00">samples = 3</text>
<text text-anchor="middle" x="514.5" y="-96.8" font-family="Times,serif" font-size="14.00">value = 50.0</text>
</g>
<!-- 7&#45;&gt;11 -->
<g id="edge11" class="edge">
<title>7&#45;&gt;11</title>
<path fill="none" stroke="black" d="M471.28,-192.88C476.7,-184.24 482.61,-174.82 488.28,-165.79"/>
<polygon fill="black" stroke="black" points="491.26,-167.63 493.61,-157.3 485.33,-163.91 491.26,-167.63"/>
</g>
<!-- 9 -->
<g id="node10" class="node">
<title>9</title>
<polygon fill="#e68641" stroke="black" points="333,-53 234,-53 234,0 333,0 333,-53"/>
<text text-anchor="middle" x="283.5" y="-37.8" font-family="Times,serif" font-size="14.00">mse = 3.735</text>
<text text-anchor="middle" x="283.5" y="-22.8" font-family="Times,serif" font-size="14.00">samples = 6</text>
<text text-anchor="middle" x="283.5" y="-7.8" font-family="Times,serif" font-size="14.00">value = 48.317</text>
</g>
<!-- 8&#45;&gt;9 -->
<g id="edge9" class="edge">
<title>8&#45;&gt;9</title>
<path fill="none" stroke="black" d="M351.13,-88.95C340.86,-79.62 329.69,-69.47 319.45,-60.16"/>
<polygon fill="black" stroke="black" points="321.58,-57.37 311.82,-53.24 316.87,-62.55 321.58,-57.37"/>
</g>
<!-- 10 -->
<g id="node11" class="node">
<title>10</title>
<polygon fill="#e99558" stroke="black" points="443.5,-53 351.5,-53 351.5,0 443.5,0 443.5,-53"/>
<text text-anchor="middle" x="397.5" y="-37.8" font-family="Times,serif" font-size="14.00">mse = 12.046</text>
<text text-anchor="middle" x="397.5" y="-22.8" font-family="Times,serif" font-size="14.00">samples = 12</text>
<text text-anchor="middle" x="397.5" y="-7.8" font-family="Times,serif" font-size="14.00">value = 43.75</text>
</g>
<!-- 8&#45;&gt;10 -->
<g id="edge10" class="edge">
<title>8&#45;&gt;10</title>
<path fill="none" stroke="black" d="M391,-88.95C391.88,-80.62 392.83,-71.65 393.72,-63.2"/>
<polygon fill="black" stroke="black" points="397.2,-63.55 394.78,-53.24 390.24,-62.81 397.2,-63.55"/>
</g>
<!-- 12 -->
<g id="node13" class="node">
<title>12</title>
<polygon fill="#e58139" stroke="black" points="547.5,-53 461.5,-53 461.5,0 547.5,0 547.5,-53"/>
<text text-anchor="middle" x="504.5" y="-37.8" font-family="Times,serif" font-size="14.00">mse = 0.0</text>
<text text-anchor="middle" x="504.5" y="-22.8" font-family="Times,serif" font-size="14.00">samples = 1</text>
<text text-anchor="middle" x="504.5" y="-7.8" font-family="Times,serif" font-size="14.00">value = 50.0</text>
</g>
<!-- 11&#45;&gt;12 -->
<g id="edge12" class="edge">
<title>11&#45;&gt;12</title>
<path fill="none" stroke="black" d="M511,-88.95C510.12,-80.62 509.17,-71.65 508.28,-63.2"/>
<polygon fill="black" stroke="black" points="511.76,-62.81 507.22,-53.24 504.8,-63.55 511.76,-62.81"/>
</g>
<!-- 13 -->
<g id="node14" class="node">
<title>13</title>
<polygon fill="#e58139" stroke="black" points="651.5,-53 565.5,-53 565.5,0 651.5,0 651.5,-53"/>
<text text-anchor="middle" x="608.5" y="-37.8" font-family="Times,serif" font-size="14.00">mse = 0.0</text>
<text text-anchor="middle" x="608.5" y="-22.8" font-family="Times,serif" font-size="14.00">samples = 2</text>
<text text-anchor="middle" x="608.5" y="-7.8" font-family="Times,serif" font-size="14.00">value = 50.0</text>
</g>
<!-- 11&#45;&gt;13 -->
<g id="edge13" class="edge">
<title>11&#45;&gt;13</title>
<path fill="none" stroke="black" d="M547.38,-88.95C556.57,-79.71 566.55,-69.67 575.74,-60.44"/>
<polygon fill="black" stroke="black" points="578.33,-62.79 582.9,-53.24 573.37,-57.86 578.33,-62.79"/>
</g>
<!-- 15 -->
<g id="node16" class="node">
<title>15</title>
<polygon fill="#f8decb" stroke="black" points="929,-261 832,-261 832,-193 929,-193 929,-261"/>
<text text-anchor="middle" x="880.5" y="-245.8" font-family="Times,serif" font-size="14.00">RM &lt;= 6.776</text>
<text text-anchor="middle" x="880.5" y="-230.8" font-family="Times,serif" font-size="14.00">mse = 9.377</text>
<text text-anchor="middle" x="880.5" y="-215.8" font-family="Times,serif" font-size="14.00">samples = 100</text>
<text text-anchor="middle" x="880.5" y="-200.8" font-family="Times,serif" font-size="14.00">value = 20.74</text>
</g>
<!-- 14&#45;&gt;15 -->
<g id="edge15" class="edge">
<title>14&#45;&gt;15</title>
<path fill="none" stroke="black" d="M880.5,-296.88C880.5,-288.78 880.5,-279.98 880.5,-271.47"/>
<polygon fill="black" stroke="black" points="884,-271.3 880.5,-261.3 877,-271.3 884,-271.3"/>
</g>
<!-- 22 -->
<g id="node23" class="node">
<title>22</title>
<polygon fill="#fcf1ea" stroke="black" points="1246,-261 1145,-261 1145,-193 1246,-193 1246,-261"/>
<text text-anchor="middle" x="1195.5" y="-245.8" font-family="Times,serif" font-size="14.00">NOX &lt;= 0.603</text>
<text text-anchor="middle" x="1195.5" y="-230.8" font-family="Times,serif" font-size="14.00">mse = 20.238</text>
<text text-anchor="middle" x="1195.5" y="-215.8" font-family="Times,serif" font-size="14.00">samples = 111</text>
<text text-anchor="middle" x="1195.5" y="-200.8" font-family="Times,serif" font-size="14.00">value = 14.723</text>
</g>
<!-- 14&#45;&gt;22 -->
<g id="edge22" class="edge">
<title>14&#45;&gt;22</title>
<path fill="none" stroke="black" d="M933.22,-312.93C988.94,-294.89 1076.66,-266.48 1135.11,-247.55"/>
<polygon fill="black" stroke="black" points="1136.52,-250.78 1144.95,-244.37 1134.36,-244.12 1136.52,-250.78"/>
</g>
<!-- 16 -->
<g id="node17" class="node">
<title>16</title>
<polygon fill="#f8dfcd" stroke="black" points="869.5,-157 763.5,-157 763.5,-89 869.5,-89 869.5,-157"/>
<text text-anchor="middle" x="816.5" y="-141.8" font-family="Times,serif" font-size="14.00">INDUS &lt;= 2.85</text>
<text text-anchor="middle" x="816.5" y="-126.8" font-family="Times,serif" font-size="14.00">mse = 6.732</text>
<text text-anchor="middle" x="816.5" y="-111.8" font-family="Times,serif" font-size="14.00">samples = 94</text>
<text text-anchor="middle" x="816.5" y="-96.8" font-family="Times,serif" font-size="14.00">value = 20.45</text>
</g>
<!-- 15&#45;&gt;16 -->
<g id="edge16" class="edge">
<title>15&#45;&gt;16</title>
<path fill="none" stroke="black" d="M859.72,-192.88C854.3,-184.24 848.39,-174.82 842.72,-165.79"/>
<polygon fill="black" stroke="black" points="845.67,-163.91 837.39,-157.3 839.74,-167.63 845.67,-163.91"/>
</g>
<!-- 19 -->
<g id="node20" class="node">
<title>19</title>
<polygon fill="#f5d0b5" stroke="black" points="1001,-157 888,-157 888,-89 1001,-89 1001,-157"/>
<text text-anchor="middle" x="944.5" y="-141.8" font-family="Times,serif" font-size="14.00">CRIM &lt;= 12.128</text>
<text text-anchor="middle" x="944.5" y="-126.8" font-family="Times,serif" font-size="14.00">mse = 28.865</text>
<text text-anchor="middle" x="944.5" y="-111.8" font-family="Times,serif" font-size="14.00">samples = 6</text>
<text text-anchor="middle" x="944.5" y="-96.8" font-family="Times,serif" font-size="14.00">value = 25.283</text>
</g>
<!-- 15&#45;&gt;19 -->
<g id="edge19" class="edge">
<title>15&#45;&gt;19</title>
<path fill="none" stroke="black" d="M901.28,-192.88C906.7,-184.24 912.61,-174.82 918.28,-165.79"/>
<polygon fill="black" stroke="black" points="921.26,-167.63 923.61,-157.3 915.33,-163.91 921.26,-167.63"/>
</g>
<!-- 17 -->
<g id="node18" class="node">
<title>17</title>
<polygon fill="#f3c7a7" stroke="black" points="755.5,-53 669.5,-53 669.5,0 755.5,0 755.5,-53"/>
<text text-anchor="middle" x="712.5" y="-37.8" font-family="Times,serif" font-size="14.00">mse = 2.56</text>
<text text-anchor="middle" x="712.5" y="-22.8" font-family="Times,serif" font-size="14.00">samples = 2</text>
<text text-anchor="middle" x="712.5" y="-7.8" font-family="Times,serif" font-size="14.00">value = 28.0</text>
</g>
<!-- 16&#45;&gt;17 -->
<g id="edge17" class="edge">
<title>16&#45;&gt;17</title>
<path fill="none" stroke="black" d="M780.13,-88.95C769.86,-79.62 758.69,-69.47 748.45,-60.16"/>
<polygon fill="black" stroke="black" points="750.58,-57.37 740.82,-53.24 745.87,-62.55 750.58,-57.37"/>
</g>
<!-- 18 -->
<g id="node19" class="node">
<title>18</title>
<polygon fill="#f9e0ce" stroke="black" points="873,-53 774,-53 774,0 873,0 873,-53"/>
<text text-anchor="middle" x="823.5" y="-37.8" font-family="Times,serif" font-size="14.00">mse = 5.556</text>
<text text-anchor="middle" x="823.5" y="-22.8" font-family="Times,serif" font-size="14.00">samples = 92</text>
<text text-anchor="middle" x="823.5" y="-7.8" font-family="Times,serif" font-size="14.00">value = 20.286</text>
</g>
<!-- 16&#45;&gt;18 -->
<g id="edge18" class="edge">
<title>16&#45;&gt;18</title>
<path fill="none" stroke="black" d="M818.95,-88.95C819.56,-80.72 820.21,-71.85 820.83,-63.48"/>
<polygon fill="black" stroke="black" points="824.35,-63.47 821.59,-53.24 817.36,-62.95 824.35,-63.47"/>
</g>
<!-- 20 -->
<g id="node21" class="node">
<title>20</title>
<polygon fill="#f4c9aa" stroke="black" points="983.5,-53 891.5,-53 891.5,0 983.5,0 983.5,-53"/>
<text text-anchor="middle" x="937.5" y="-37.8" font-family="Times,serif" font-size="14.00">mse = 9.258</text>
<text text-anchor="middle" x="937.5" y="-22.8" font-family="Times,serif" font-size="14.00">samples = 5</text>
<text text-anchor="middle" x="937.5" y="-7.8" font-family="Times,serif" font-size="14.00">value = 27.34</text>
</g>
<!-- 19&#45;&gt;20 -->
<g id="edge20" class="edge">
<title>19&#45;&gt;20</title>
<path fill="none" stroke="black" d="M942.05,-88.95C941.44,-80.72 940.79,-71.85 940.17,-63.48"/>
<polygon fill="black" stroke="black" points="943.64,-62.95 939.41,-53.24 936.65,-63.47 943.64,-62.95"/>
</g>
<!-- 21 -->
<g id="node22" class="node">
<title>21</title>
<polygon fill="#fcf0e8" stroke="black" points="1087.5,-53 1001.5,-53 1001.5,0 1087.5,0 1087.5,-53"/>
<text text-anchor="middle" x="1044.5" y="-37.8" font-family="Times,serif" font-size="14.00">mse = 0.0</text>
<text text-anchor="middle" x="1044.5" y="-22.8" font-family="Times,serif" font-size="14.00">samples = 1</text>
<text text-anchor="middle" x="1044.5" y="-7.8" font-family="Times,serif" font-size="14.00">value = 15.0</text>
</g>
<!-- 19&#45;&gt;21 -->
<g id="edge21" class="edge">
<title>19&#45;&gt;21</title>
<path fill="none" stroke="black" d="M979.48,-88.95C989.35,-79.62 1000.09,-69.47 1009.93,-60.16"/>
<polygon fill="black" stroke="black" points="1012.4,-62.65 1017.27,-53.24 1007.59,-57.56 1012.4,-62.65"/>
</g>
<!-- 23 -->
<g id="node24" class="node">
<title>23</title>
<polygon fill="#fae5d7" stroke="black" points="1259,-157 1132,-157 1132,-89 1259,-89 1259,-157"/>
<text text-anchor="middle" x="1195.5" y="-141.8" font-family="Times,serif" font-size="14.00">PTRATIO &lt;= 20.95</text>
<text text-anchor="middle" x="1195.5" y="-126.8" font-family="Times,serif" font-size="14.00">mse = 13.569</text>
<text text-anchor="middle" x="1195.5" y="-111.8" font-family="Times,serif" font-size="14.00">samples = 38</text>
<text text-anchor="middle" x="1195.5" y="-96.8" font-family="Times,serif" font-size="14.00">value = 18.474</text>
</g>
<!-- 22&#45;&gt;23 -->
<g id="edge23" class="edge">
<title>22&#45;&gt;23</title>
<path fill="none" stroke="black" d="M1195.5,-192.88C1195.5,-184.78 1195.5,-175.98 1195.5,-167.47"/>
<polygon fill="black" stroke="black" points="1199,-167.3 1195.5,-157.3 1192,-167.3 1199,-167.3"/>
</g>
<!-- 26 -->
<g id="node27" class="node">
<title>26</title>
<polygon fill="#fdf8f3" stroke="black" points="1437,-157 1318,-157 1318,-89 1437,-89 1437,-157"/>
<text text-anchor="middle" x="1377.5" y="-141.8" font-family="Times,serif" font-size="14.00">LSTAT &lt;= 19.645</text>
<text text-anchor="middle" x="1377.5" y="-126.8" font-family="Times,serif" font-size="14.00">mse = 12.571</text>
<text text-anchor="middle" x="1377.5" y="-111.8" font-family="Times,serif" font-size="14.00">samples = 73</text>
<text text-anchor="middle" x="1377.5" y="-96.8" font-family="Times,serif" font-size="14.00">value = 12.77</text>
</g>
<!-- 22&#45;&gt;26 -->
<g id="edge26" class="edge">
<title>22&#45;&gt;26</title>
<path fill="none" stroke="black" d="M1246.2,-197.59C1265.8,-186.6 1288.53,-173.86 1309.51,-162.1"/>
<polygon fill="black" stroke="black" points="1311.37,-165.07 1318.38,-157.13 1307.95,-158.97 1311.37,-165.07"/>
</g>
<!-- 24 -->
<g id="node25" class="node">
<title>24</title>
<polygon fill="#f9e3d3" stroke="black" points="1205,-53 1106,-53 1106,0 1205,0 1205,-53"/>
<text text-anchor="middle" x="1155.5" y="-37.8" font-family="Times,serif" font-size="14.00">mse = 12.086</text>
<text text-anchor="middle" x="1155.5" y="-22.8" font-family="Times,serif" font-size="14.00">samples = 32</text>
<text text-anchor="middle" x="1155.5" y="-7.8" font-family="Times,serif" font-size="14.00">value = 19.256</text>
</g>
<!-- 23&#45;&gt;24 -->
<g id="edge24" class="edge">
<title>23&#45;&gt;24</title>
<path fill="none" stroke="black" d="M1181.51,-88.95C1177.91,-80.44 1174.02,-71.26 1170.38,-62.65"/>
<polygon fill="black" stroke="black" points="1173.52,-61.08 1166.39,-53.24 1167.07,-63.81 1173.52,-61.08"/>
</g>
<!-- 25 -->
<g id="node26" class="node">
<title>25</title>
<polygon fill="#fcf3ec" stroke="black" points="1309.5,-53 1223.5,-53 1223.5,0 1309.5,0 1309.5,-53"/>
<text text-anchor="middle" x="1266.5" y="-37.8" font-family="Times,serif" font-size="14.00">mse = 0.797</text>
<text text-anchor="middle" x="1266.5" y="-22.8" font-family="Times,serif" font-size="14.00">samples = 6</text>
<text text-anchor="middle" x="1266.5" y="-7.8" font-family="Times,serif" font-size="14.00">value = 14.3</text>
</g>
<!-- 23&#45;&gt;25 -->
<g id="edge25" class="edge">
<title>23&#45;&gt;25</title>
<path fill="none" stroke="black" d="M1220.33,-88.95C1227.07,-79.98 1234.37,-70.27 1241.13,-61.26"/>
<polygon fill="black" stroke="black" points="1243.95,-63.33 1247.16,-53.24 1238.36,-59.13 1243.95,-63.33"/>
</g>
<!-- 27 -->
<g id="node28" class="node">
<title>27</title>
<polygon fill="#fcf0e7" stroke="black" points="1427,-53 1328,-53 1328,0 1427,0 1427,-53"/>
<text text-anchor="middle" x="1377.5" y="-37.8" font-family="Times,serif" font-size="14.00">mse = 4.717</text>
<text text-anchor="middle" x="1377.5" y="-22.8" font-family="Times,serif" font-size="14.00">samples = 36</text>
<text text-anchor="middle" x="1377.5" y="-7.8" font-family="Times,serif" font-size="14.00">value = 15.158</text>
</g>
<!-- 26&#45;&gt;27 -->
<g id="edge27" class="edge">
<title>26&#45;&gt;27</title>
<path fill="none" stroke="black" d="M1377.5,-88.95C1377.5,-80.72 1377.5,-71.85 1377.5,-63.48"/>
<polygon fill="black" stroke="black" points="1381,-63.24 1377.5,-53.24 1374,-63.24 1381,-63.24"/>
</g>
<!-- 28 -->
<g id="node29" class="node">
<title>28</title>
<polygon fill="#ffffff" stroke="black" points="1544,-53 1445,-53 1445,0 1544,0 1544,-53"/>
<text text-anchor="middle" x="1494.5" y="-37.8" font-family="Times,serif" font-size="14.00">mse = 9.262</text>
<text text-anchor="middle" x="1494.5" y="-22.8" font-family="Times,serif" font-size="14.00">samples = 37</text>
<text text-anchor="middle" x="1494.5" y="-7.8" font-family="Times,serif" font-size="14.00">value = 10.446</text>
</g>
<!-- 26&#45;&gt;28 -->
<g id="edge28" class="edge">
<title>26&#45;&gt;28</title>
<path fill="none" stroke="black" d="M1418.42,-88.95C1430.2,-79.43 1443.03,-69.07 1454.74,-59.62"/>
<polygon fill="black" stroke="black" points="1457.06,-62.24 1462.64,-53.24 1452.66,-56.8 1457.06,-62.24"/>
</g>
</g>
</svg>
