<?xml version="1.0" encoding="UTF-8" standalone="no"?>
<!DOCTYPE svg PUBLIC "-//W3C//DTD SVG 1.1//EN"
 "http://www.w3.org/Graphics/SVG/1.1/DTD/svg11.dtd">
<!-- Generated by graphviz version 2.46.1 (20210213.1702)
 -->
<!-- Title: Tree Pages: 1 -->
<svg width="1354pt" height="477pt"
 viewBox="0.00 0.00 1354.00 477.00" xmlns="http://www.w3.org/2000/svg" xmlns:xlink="http://www.w3.org/1999/xlink">
<g id="graph0" class="graph" transform="scale(1 1) rotate(0) translate(4 473)">
<title>Tree</title>
<polygon fill="white" stroke="transparent" points="-4,4 -4,-473 1350,-473 1350,4 -4,4"/>
<!-- 0 -->
<g id="node1" class="node">
<title>0</title>
<polygon fill="#f7d7c0" stroke="black" points="733,-469 636,-469 636,-401 733,-401 733,-469"/>
<text text-anchor="middle" x="684.5" y="-453.8" font-family="Times,serif" font-size="14.00">RM &lt;= 6.941</text>
<text text-anchor="middle" x="684.5" y="-438.8" font-family="Times,serif" font-size="14.00">mse = 90.782</text>
<text text-anchor="middle" x="684.5" y="-423.8" font-family="Times,serif" font-size="14.00">samples = 354</text>
<text text-anchor="middle" x="684.5" y="-408.8" font-family="Times,serif" font-size="14.00">value = 22.44</text>
</g>
<!-- 1 -->
<g id="node2" class="node">
<title>1</title>
<polygon fill="#f9e0ce" stroke="black" points="512,-365 407,-365 407,-297 512,-297 512,-365"/>
<text text-anchor="middle" x="459.5" y="-349.8" font-family="Times,serif" font-size="14.00">LSTAT &lt;= 14.4</text>
<text text-anchor="middle" x="459.5" y="-334.8" font-family="Times,serif" font-size="14.00">mse = 39.055</text>
<text text-anchor="middle" x="459.5" y="-319.8" font-family="Times,serif" font-size="14.00">samples = 299</text>
<text text-anchor="middle" x="459.5" y="-304.8" font-family="Times,serif" font-size="14.00">value = 19.597</text>
</g>
<!-- 0&#45;&gt;1 -->
<g id="edge1" class="edge">
<title>0&#45;&gt;1</title>
<path fill="none" stroke="black" d="M635.96,-411.99C602.51,-396.83 557.78,-376.55 521.72,-360.21"/>
<polygon fill="black" stroke="black" points="522.83,-356.87 512.28,-355.93 519.94,-363.24 522.83,-356.87"/>
<text text-anchor="middle" x="521.08" y="-375.63" font-family="Times,serif" font-size="14.00">True</text>
</g>
<!-- 14 -->
<g id="node15" class="node">
<title>14</title>
<polygon fill="#eda774" stroke="black" points="958,-365 859,-365 859,-297 958,-297 958,-365"/>
<text text-anchor="middle" x="908.5" y="-349.8" font-family="Times,serif" font-size="14.00">RM &lt;= 7.435</text>
<text text-anchor="middle" x="908.5" y="-334.8" font-family="Times,serif" font-size="14.00">mse = 89.149</text>
<text text-anchor="middle" x="908.5" y="-319.8" font-family="Times,serif" font-size="14.00">samples = 55</text>
<text text-anchor="middle" x="908.5" y="-304.8" font-family="Times,serif" font-size="14.00">value = 37.896</text>
</g>
<!-- 0&#45;&gt;14 -->
<g id="edge14" class="edge">
<title>0&#45;&gt;14</title>
<path fill="none" stroke="black" d="M733.1,-411.87C767.24,-396.32 813.09,-375.44 849.35,-358.93"/>
<polygon fill="black" stroke="black" points="851.18,-361.95 858.83,-354.62 848.28,-355.58 851.18,-361.95"/>
<text text-anchor="middle" x="850.07" y="-374.33" font-family="Times,serif" font-size="14.00">False</text>
</g>
<!-- 2 -->
<g id="node3" class="node">
<title>2</title>
<polygon fill="#f6d5bd" stroke="black" points="216,-261 117,-261 117,-193 216,-193 216,-261"/>
<text text-anchor="middle" x="166.5" y="-245.8" font-family="Times,serif" font-size="14.00">DIS &lt;= 1.385</text>
<text text-anchor="middle" x="166.5" y="-230.8" font-family="Times,serif" font-size="14.00">mse = 22.998</text>
<text text-anchor="middle" x="166.5" y="-215.8" font-family="Times,serif" font-size="14.00">samples = 174</text>
<text text-anchor="middle" x="166.5" y="-200.8" font-family="Times,serif" font-size="14.00">value = 23.117</text>
</g>
<!-- 1&#45;&gt;2 -->
<g id="edge2" class="edge">
<title>1&#45;&gt;2</title>
<path fill="none" stroke="black" d="M406.78,-311.65C355.9,-293.94 279,-267.16 225.97,-248.7"/>
<polygon fill="black" stroke="black" points="226.95,-245.34 216.35,-245.36 224.65,-251.95 226.95,-245.34"/>
</g>
<!-- 7 -->
<g id="node8" class="node">
<title>7</title>
<polygon fill="#fcefe6" stroke="black" points="510,-261 409,-261 409,-193 510,-193 510,-261"/>
<text text-anchor="middle" x="459.5" y="-245.8" font-family="Times,serif" font-size="14.00">NOX &lt;= 0.641</text>
<text text-anchor="middle" x="459.5" y="-230.8" font-family="Times,serif" font-size="14.00">mse = 20.159</text>
<text text-anchor="middle" x="459.5" y="-215.8" font-family="Times,serif" font-size="14.00">samples = 125</text>
<text text-anchor="middle" x="459.5" y="-200.8" font-family="Times,serif" font-size="14.00">value = 14.698</text>
</g>
<!-- 1&#45;&gt;7 -->
<g id="edge7" class="edge">
<title>1&#45;&gt;7</title>
<path fill="none" stroke="black" d="M459.5,-296.88C459.5,-288.78 459.5,-279.98 459.5,-271.47"/>
<polygon fill="black" stroke="black" points="463,-271.3 459.5,-261.3 456,-271.3 463,-271.3"/>
</g>
<!-- 3 -->
<g id="node4" class="node">
<title>3</title>
<polygon fill="#e58139" stroke="black" points="98.5,-149.5 12.5,-149.5 12.5,-96.5 98.5,-96.5 98.5,-149.5"/>
<text text-anchor="middle" x="55.5" y="-134.3" font-family="Times,serif" font-size="14.00">mse = 0.0</text>
<text text-anchor="middle" x="55.5" y="-119.3" font-family="Times,serif" font-size="14.00">samples = 2</text>
<text text-anchor="middle" x="55.5" y="-104.3" font-family="Times,serif" font-size="14.00">value = 50.0</text>
</g>
<!-- 2&#45;&gt;3 -->
<g id="edge3" class="edge">
<title>2&#45;&gt;3</title>
<path fill="none" stroke="black" d="M130.46,-192.88C117.78,-181.23 103.54,-168.14 90.9,-156.53"/>
<polygon fill="black" stroke="black" points="93,-153.71 83.27,-149.52 88.27,-158.86 93,-153.71"/>
</g>
<!-- 4 -->
<g id="node5" class="node">
<title>4</title>
<polygon fill="#f7d6bf" stroke="black" points="216,-157 117,-157 117,-89 216,-89 216,-157"/>
<text text-anchor="middle" x="166.5" y="-141.8" font-family="Times,serif" font-size="14.00">RM &lt;= 6.536</text>
<text text-anchor="middle" x="166.5" y="-126.8" font-family="Times,serif" font-size="14.00">mse = 14.764</text>
<text text-anchor="middle" x="166.5" y="-111.8" font-family="Times,serif" font-size="14.00">samples = 172</text>
<text text-anchor="middle" x="166.5" y="-96.8" font-family="Times,serif" font-size="14.00">value = 22.804</text>
</g>
<!-- 2&#45;&gt;4 -->
<g id="edge4" class="edge">
<title>2&#45;&gt;4</title>
<path fill="none" stroke="black" d="M166.5,-192.88C166.5,-184.78 166.5,-175.98 166.5,-167.47"/>
<polygon fill="black" stroke="black" points="170,-167.3 166.5,-157.3 163,-167.3 170,-167.3"/>
</g>
<!-- 5 -->
<g id="node6" class="node">
<title>5</title>
<polygon fill="#f7dac5" stroke="black" points="99,-53 0,-53 0,0 99,0 99,-53"/>
<text text-anchor="middle" x="49.5" y="-37.8" font-family="Times,serif" font-size="14.00">mse = 6.692</text>
<text text-anchor="middle" x="49.5" y="-22.8" font-family="Times,serif" font-size="14.00">samples = 134</text>
<text text-anchor="middle" x="49.5" y="-7.8" font-family="Times,serif" font-size="14.00">value = 21.414</text>
</g>
<!-- 4&#45;&gt;5 -->
<g id="edge5" class="edge">
<title>4&#45;&gt;5</title>
<path fill="none" stroke="black" d="M125.58,-88.95C113.8,-79.43 100.97,-69.07 89.26,-59.62"/>
<polygon fill="black" stroke="black" points="91.34,-56.8 81.36,-53.24 86.94,-62.24 91.34,-56.8"/>
</g>
<!-- 6 -->
<g id="node7" class="node">
<title>6</title>
<polygon fill="#f3c7a7" stroke="black" points="216,-53 117,-53 117,0 216,0 216,-53"/>
<text text-anchor="middle" x="166.5" y="-37.8" font-family="Times,serif" font-size="14.00">mse = 12.396</text>
<text text-anchor="middle" x="166.5" y="-22.8" font-family="Times,serif" font-size="14.00">samples = 38</text>
<text text-anchor="middle" x="166.5" y="-7.8" font-family="Times,serif" font-size="14.00">value = 27.705</text>
</g>
<!-- 4&#45;&gt;6 -->
<g id="edge6" class="edge">
<title>4&#45;&gt;6</title>
<path fill="none" stroke="black" d="M166.5,-88.95C166.5,-80.72 166.5,-71.85 166.5,-63.48"/>
<polygon fill="black" stroke="black" points="170,-63.24 166.5,-53.24 163,-63.24 170,-63.24"/>
</g>
<!-- 8 -->
<g id="node9" class="node">
<title>8</title>
<polygon fill="#fae6d8" stroke="black" points="457,-157 330,-157 330,-89 457,-89 457,-157"/>
<text text-anchor="middle" x="393.5" y="-141.8" font-family="Times,serif" font-size="14.00">PTRATIO &lt;= 19.45</text>
<text text-anchor="middle" x="393.5" y="-126.8" font-family="Times,serif" font-size="14.00">mse = 13.61</text>
<text text-anchor="middle" x="393.5" y="-111.8" font-family="Times,serif" font-size="14.00">samples = 61</text>
<text text-anchor="middle" x="393.5" y="-96.8" font-family="Times,serif" font-size="14.00">value = 17.579</text>
</g>
<!-- 7&#45;&gt;8 -->
<g id="edge8" class="edge">
<title>7&#45;&gt;8</title>
<path fill="none" stroke="black" d="M438.07,-192.88C432.48,-184.24 426.38,-174.82 420.54,-165.79"/>
<polygon fill="black" stroke="black" points="423.42,-163.79 415.05,-157.3 417.54,-167.6 423.42,-163.79"/>
</g>
<!-- 11 -->
<g id="node12" class="node">
<title>11</title>
<polygon fill="#fef8f4" stroke="black" points="575.5,-157 475.5,-157 475.5,-89 575.5,-89 575.5,-157"/>
<text text-anchor="middle" x="525.5" y="-141.8" font-family="Times,serif" font-size="14.00">CRIM &lt;= 9.87</text>
<text text-anchor="middle" x="525.5" y="-126.8" font-family="Times,serif" font-size="14.00">mse = 10.948</text>
<text text-anchor="middle" x="525.5" y="-111.8" font-family="Times,serif" font-size="14.00">samples = 64</text>
<text text-anchor="middle" x="525.5" y="-96.8" font-family="Times,serif" font-size="14.00">value = 11.952</text>
</g>
<!-- 7&#45;&gt;11 -->
<g id="edge11" class="edge">
<title>7&#45;&gt;11</title>
<path fill="none" stroke="black" d="M480.93,-192.88C486.52,-184.24 492.62,-174.82 498.46,-165.79"/>
<polygon fill="black" stroke="black" points="501.46,-167.6 503.95,-157.3 495.58,-163.79 501.46,-167.6"/>
</g>
<!-- 9 -->
<g id="node10" class="node">
<title>9</title>
<polygon fill="#f9e0ce" stroke="black" points="333,-53 234,-53 234,0 333,0 333,-53"/>
<text text-anchor="middle" x="283.5" y="-37.8" font-family="Times,serif" font-size="14.00">mse = 8.171</text>
<text text-anchor="middle" x="283.5" y="-22.8" font-family="Times,serif" font-size="14.00">samples = 26</text>
<text text-anchor="middle" x="283.5" y="-7.8" font-family="Times,serif" font-size="14.00">value = 19.681</text>
</g>
<!-- 8&#45;&gt;9 -->
<g id="edge9" class="edge">
<title>8&#45;&gt;9</title>
<path fill="none" stroke="black" d="M355.03,-88.95C344.06,-79.53 332.12,-69.27 321.2,-59.89"/>
<polygon fill="black" stroke="black" points="323.32,-57.1 313.46,-53.24 318.76,-62.41 323.32,-57.1"/>
</g>
<!-- 10 -->
<g id="node11" class="node">
<title>10</title>
<polygon fill="#fbebe0" stroke="black" points="450,-53 351,-53 351,0 450,0 450,-53"/>
<text text-anchor="middle" x="400.5" y="-37.8" font-family="Times,serif" font-size="14.00">mse = 11.929</text>
<text text-anchor="middle" x="400.5" y="-22.8" font-family="Times,serif" font-size="14.00">samples = 35</text>
<text text-anchor="middle" x="400.5" y="-7.8" font-family="Times,serif" font-size="14.00">value = 16.017</text>
</g>
<!-- 8&#45;&gt;10 -->
<g id="edge10" class="edge">
<title>8&#45;&gt;10</title>
<path fill="none" stroke="black" d="M395.95,-88.95C396.56,-80.72 397.21,-71.85 397.83,-63.48"/>
<polygon fill="black" stroke="black" points="401.35,-63.47 398.59,-53.24 394.36,-62.95 401.35,-63.47"/>
</g>
<!-- 12 -->
<g id="node13" class="node">
<title>12</title>
<polygon fill="#fcf1ea" stroke="black" points="567,-53 468,-53 468,0 567,0 567,-53"/>
<text text-anchor="middle" x="517.5" y="-37.8" font-family="Times,serif" font-size="14.00">mse = 4.77</text>
<text text-anchor="middle" x="517.5" y="-22.8" font-family="Times,serif" font-size="14.00">samples = 33</text>
<text text-anchor="middle" x="517.5" y="-7.8" font-family="Times,serif" font-size="14.00">value = 14.058</text>
</g>
<!-- 11&#45;&gt;12 -->
<g id="edge12" class="edge">
<title>11&#45;&gt;12</title>
<path fill="none" stroke="black" d="M522.7,-88.95C522,-80.62 521.24,-71.65 520.52,-63.2"/>
<polygon fill="black" stroke="black" points="524.01,-62.91 519.68,-53.24 517.03,-63.5 524.01,-62.91"/>
</g>
<!-- 13 -->
<g id="node14" class="node">
<title>13</title>
<polygon fill="#ffffff" stroke="black" points="675.5,-53 585.5,-53 585.5,0 675.5,0 675.5,-53"/>
<text text-anchor="middle" x="630.5" y="-37.8" font-family="Times,serif" font-size="14.00">mse = 7.778</text>
<text text-anchor="middle" x="630.5" y="-22.8" font-family="Times,serif" font-size="14.00">samples = 31</text>
<text text-anchor="middle" x="630.5" y="-7.8" font-family="Times,serif" font-size="14.00">value = 9.71</text>
</g>
<!-- 11&#45;&gt;13 -->
<g id="edge13" class="edge">
<title>11&#45;&gt;13</title>
<path fill="none" stroke="black" d="M562.22,-88.95C572.59,-79.62 583.86,-69.47 594.21,-60.16"/>
<polygon fill="black" stroke="black" points="596.81,-62.53 601.9,-53.24 592.13,-57.32 596.81,-62.53"/>
</g>
<!-- 15 -->
<g id="node16" class="node">
<title>15</title>
<polygon fill="#f0b890" stroke="black" points="959,-261 858,-261 858,-193 959,-193 959,-261"/>
<text text-anchor="middle" x="908.5" y="-245.8" font-family="Times,serif" font-size="14.00">NOX &lt;= 0.659</text>
<text text-anchor="middle" x="908.5" y="-230.8" font-family="Times,serif" font-size="14.00">mse = 54.279</text>
<text text-anchor="middle" x="908.5" y="-215.8" font-family="Times,serif" font-size="14.00">samples = 31</text>
<text text-anchor="middle" x="908.5" y="-200.8" font-family="Times,serif" font-size="14.00">value = 32.29</text>
</g>
<!-- 14&#45;&gt;15 -->
<g id="edge15" class="edge">
<title>14&#45;&gt;15</title>
<path fill="none" stroke="black" d="M908.5,-296.88C908.5,-288.78 908.5,-279.98 908.5,-271.47"/>
<polygon fill="black" stroke="black" points="912,-271.3 908.5,-261.3 905,-271.3 912,-271.3"/>
</g>
<!-- 22 -->
<g id="node23" class="node">
<title>22</title>
<polygon fill="#e89051" stroke="black" points="1243,-261 1116,-261 1116,-193 1243,-193 1243,-261"/>
<text text-anchor="middle" x="1179.5" y="-245.8" font-family="Times,serif" font-size="14.00">PTRATIO &lt;= 19.65</text>
<text text-anchor="middle" x="1179.5" y="-230.8" font-family="Times,serif" font-size="14.00">mse = 41.162</text>
<text text-anchor="middle" x="1179.5" y="-215.8" font-family="Times,serif" font-size="14.00">samples = 24</text>
<text text-anchor="middle" x="1179.5" y="-200.8" font-family="Times,serif" font-size="14.00">value = 45.137</text>
</g>
<!-- 14&#45;&gt;22 -->
<g id="edge22" class="edge">
<title>14&#45;&gt;22</title>
<path fill="none" stroke="black" d="M958.21,-311.29C999.66,-295.69 1059.32,-273.23 1106.25,-255.57"/>
<polygon fill="black" stroke="black" points="1107.63,-258.79 1115.76,-251.99 1105.17,-252.24 1107.63,-258.79"/>
</g>
<!-- 16 -->
<g id="node17" class="node">
<title>16</title>
<polygon fill="#efb287" stroke="black" points="901,-157 802,-157 802,-89 901,-89 901,-157"/>
<text text-anchor="middle" x="851.5" y="-141.8" font-family="Times,serif" font-size="14.00">DIS &lt;= 1.904</text>
<text text-anchor="middle" x="851.5" y="-126.8" font-family="Times,serif" font-size="14.00">mse = 21.131</text>
<text text-anchor="middle" x="851.5" y="-111.8" font-family="Times,serif" font-size="14.00">samples = 28</text>
<text text-anchor="middle" x="851.5" y="-96.8" font-family="Times,serif" font-size="14.00">value = 34.207</text>
</g>
<!-- 15&#45;&gt;16 -->
<g id="edge16" class="edge">
<title>15&#45;&gt;16</title>
<path fill="none" stroke="black" d="M889.99,-192.88C885.22,-184.33 880.01,-175.01 875.01,-166.07"/>
<polygon fill="black" stroke="black" points="878.04,-164.32 870.11,-157.3 871.93,-167.74 878.04,-164.32"/>
</g>
<!-- 19 -->
<g id="node20" class="node">
<title>19</title>
<polygon fill="#fcf0e8" stroke="black" points="1012,-157 919,-157 919,-89 1012,-89 1012,-157"/>
<text text-anchor="middle" x="965.5" y="-141.8" font-family="Times,serif" font-size="14.00">RM &lt;= 7.141</text>
<text text-anchor="middle" x="965.5" y="-126.8" font-family="Times,serif" font-size="14.00">mse = 9.307</text>
<text text-anchor="middle" x="965.5" y="-111.8" font-family="Times,serif" font-size="14.00">samples = 3</text>
<text text-anchor="middle" x="965.5" y="-96.8" font-family="Times,serif" font-size="14.00">value = 14.4</text>
</g>
<!-- 15&#45;&gt;19 -->
<g id="edge19" class="edge">
<title>15&#45;&gt;19</title>
<path fill="none" stroke="black" d="M927.01,-192.88C931.78,-184.33 936.99,-175.01 941.99,-166.07"/>
<polygon fill="black" stroke="black" points="945.07,-167.74 946.89,-157.3 938.96,-164.32 945.07,-167.74"/>
</g>
<!-- 17 -->
<g id="node18" class="node">
<title>17</title>
<polygon fill="#e88f4e" stroke="black" points="785.5,-53 693.5,-53 693.5,0 785.5,0 785.5,-53"/>
<text text-anchor="middle" x="739.5" y="-37.8" font-family="Times,serif" font-size="14.00">mse = 18.923</text>
<text text-anchor="middle" x="739.5" y="-22.8" font-family="Times,serif" font-size="14.00">samples = 2</text>
<text text-anchor="middle" x="739.5" y="-7.8" font-family="Times,serif" font-size="14.00">value = 45.65</text>
</g>
<!-- 16&#45;&gt;17 -->
<g id="edge17" class="edge">
<title>16&#45;&gt;17</title>
<path fill="none" stroke="black" d="M812.33,-88.95C801.16,-79.53 789.01,-69.27 777.89,-59.89"/>
<polygon fill="black" stroke="black" points="779.9,-57.01 770,-53.24 775.39,-62.36 779.9,-57.01"/>
</g>
<!-- 18 -->
<g id="node19" class="node">
<title>18</title>
<polygon fill="#f0b58b" stroke="black" points="903,-53 804,-53 804,0 903,0 903,-53"/>
<text text-anchor="middle" x="853.5" y="-37.8" font-family="Times,serif" font-size="14.00">mse = 10.454</text>
<text text-anchor="middle" x="853.5" y="-22.8" font-family="Times,serif" font-size="14.00">samples = 26</text>
<text text-anchor="middle" x="853.5" y="-7.8" font-family="Times,serif" font-size="14.00">value = 33.327</text>
</g>
<!-- 16&#45;&gt;18 -->
<g id="edge18" class="edge">
<title>16&#45;&gt;18</title>
<path fill="none" stroke="black" d="M852.2,-88.95C852.37,-80.72 852.56,-71.85 852.74,-63.48"/>
<polygon fill="black" stroke="black" points="856.24,-63.31 852.96,-53.24 849.24,-63.16 856.24,-63.31"/>
</g>
<!-- 20 -->
<g id="node21" class="node">
<title>20</title>
<polygon fill="#fffdfc" stroke="black" points="1007.5,-53 921.5,-53 921.5,0 1007.5,0 1007.5,-53"/>
<text text-anchor="middle" x="964.5" y="-37.8" font-family="Times,serif" font-size="14.00">mse = 0.0</text>
<text text-anchor="middle" x="964.5" y="-22.8" font-family="Times,serif" font-size="14.00">samples = 1</text>
<text text-anchor="middle" x="964.5" y="-7.8" font-family="Times,serif" font-size="14.00">value = 10.4</text>
</g>
<!-- 19&#45;&gt;20 -->
<g id="edge20" class="edge">
<title>19&#45;&gt;20</title>
<path fill="none" stroke="black" d="M965.15,-88.95C965.06,-80.72 964.97,-71.85 964.88,-63.48"/>
<polygon fill="black" stroke="black" points="968.38,-63.2 964.77,-53.24 961.38,-63.27 968.38,-63.2"/>
</g>
<!-- 21 -->
<g id="node22" class="node">
<title>21</title>
<polygon fill="#fbeade" stroke="black" points="1111.5,-53 1025.5,-53 1025.5,0 1111.5,0 1111.5,-53"/>
<text text-anchor="middle" x="1068.5" y="-37.8" font-family="Times,serif" font-size="14.00">mse = 1.96</text>
<text text-anchor="middle" x="1068.5" y="-22.8" font-family="Times,serif" font-size="14.00">samples = 2</text>
<text text-anchor="middle" x="1068.5" y="-7.8" font-family="Times,serif" font-size="14.00">value = 16.4</text>
</g>
<!-- 19&#45;&gt;21 -->
<g id="edge21" class="edge">
<title>19&#45;&gt;21</title>
<path fill="none" stroke="black" d="M1001.52,-88.95C1011.69,-79.62 1022.75,-69.47 1032.9,-60.16"/>
<polygon fill="black" stroke="black" points="1035.45,-62.58 1040.45,-53.24 1030.71,-57.42 1035.45,-62.58"/>
</g>
<!-- 23 -->
<g id="node24" class="node">
<title>23</title>
<polygon fill="#e78d4c" stroke="black" points="1239.5,-157 1119.5,-157 1119.5,-89 1239.5,-89 1239.5,-157"/>
<text text-anchor="middle" x="1179.5" y="-141.8" font-family="Times,serif" font-size="14.00">PTRATIO &lt;= 17.9</text>
<text text-anchor="middle" x="1179.5" y="-126.8" font-family="Times,serif" font-size="14.00">mse = 18.454</text>
<text text-anchor="middle" x="1179.5" y="-111.8" font-family="Times,serif" font-size="14.00">samples = 23</text>
<text text-anchor="middle" x="1179.5" y="-96.8" font-family="Times,serif" font-size="14.00">value = 46.148</text>
</g>
<!-- 22&#45;&gt;23 -->
<g id="edge23" class="edge">
<title>22&#45;&gt;23</title>
<path fill="none" stroke="black" d="M1179.5,-192.88C1179.5,-184.78 1179.5,-175.98 1179.5,-167.47"/>
<polygon fill="black" stroke="black" points="1183,-167.3 1179.5,-157.3 1176,-167.3 1183,-167.3"/>
</g>
<!-- 26 -->
<g id="node27" class="node">
<title>26</title>
<polygon fill="#f7d9c3" stroke="black" points="1343.5,-149.5 1257.5,-149.5 1257.5,-96.5 1343.5,-96.5 1343.5,-149.5"/>
<text text-anchor="middle" x="1300.5" y="-134.3" font-family="Times,serif" font-size="14.00">mse = &#45;0.0</text>
<text text-anchor="middle" x="1300.5" y="-119.3" font-family="Times,serif" font-size="14.00">samples = 1</text>
<text text-anchor="middle" x="1300.5" y="-104.3" font-family="Times,serif" font-size="14.00">value = 21.9</text>
</g>
<!-- 22&#45;&gt;26 -->
<g id="edge26" class="edge">
<title>22&#45;&gt;26</title>
<path fill="none" stroke="black" d="M1218.79,-192.88C1232.74,-181.12 1248.43,-167.89 1262.3,-156.2"/>
<polygon fill="black" stroke="black" points="1264.84,-158.64 1270.23,-149.52 1260.32,-153.29 1264.84,-158.64"/>
</g>
<!-- 24 -->
<g id="node25" class="node">
<title>24</title>
<polygon fill="#e78946" stroke="black" points="1229,-53 1130,-53 1130,0 1229,0 1229,-53"/>
<text text-anchor="middle" x="1179.5" y="-37.8" font-family="Times,serif" font-size="14.00">mse = 10.623</text>
<text text-anchor="middle" x="1179.5" y="-22.8" font-family="Times,serif" font-size="14.00">samples = 19</text>
<text text-anchor="middle" x="1179.5" y="-7.8" font-family="Times,serif" font-size="14.00">value = 47.416</text>
</g>
<!-- 23&#45;&gt;24 -->
<g id="edge24" class="edge">
<title>23&#45;&gt;24</title>
<path fill="none" stroke="black" d="M1179.5,-88.95C1179.5,-80.72 1179.5,-71.85 1179.5,-63.48"/>
<polygon fill="black" stroke="black" points="1183,-63.24 1179.5,-53.24 1176,-63.24 1183,-63.24"/>
</g>
<!-- 25 -->
<g id="node26" class="node">
<title>25</title>
<polygon fill="#eba06a" stroke="black" points="1346,-53 1247,-53 1247,0 1346,0 1346,-53"/>
<text text-anchor="middle" x="1296.5" y="-37.8" font-family="Times,serif" font-size="14.00">mse = 11.737</text>
<text text-anchor="middle" x="1296.5" y="-22.8" font-family="Times,serif" font-size="14.00">samples = 4</text>
<text text-anchor="middle" x="1296.5" y="-7.8" font-family="Times,serif" font-size="14.00">value = 40.125</text>
</g>
<!-- 23&#45;&gt;25 -->
<g id="edge25" class="edge">
<title>23&#45;&gt;25</title>
<path fill="none" stroke="black" d="M1220.42,-88.95C1232.2,-79.43 1245.03,-69.07 1256.74,-59.62"/>
<polygon fill="black" stroke="black" points="1259.06,-62.24 1264.64,-53.24 1254.66,-56.8 1259.06,-62.24"/>
</g>
</g>
</svg>
