<?xml version="1.0" encoding="UTF-8" standalone="no"?>
<!DOCTYPE svg PUBLIC "-//W3C//DTD SVG 1.1//EN"
 "http://www.w3.org/Graphics/SVG/1.1/DTD/svg11.dtd">
<!-- Generated by graphviz version 2.46.1 (20210213.1702)
 -->
<!-- Title: Tree Pages: 1 -->
<svg width="1564pt" height="477pt"
 viewBox="0.00 0.00 1563.50 477.00" xmlns="http://www.w3.org/2000/svg" xmlns:xlink="http://www.w3.org/1999/xlink">
<g id="graph0" class="graph" transform="scale(1 1) rotate(0) translate(4 473)">
<title>Tree</title>
<polygon fill="white" stroke="transparent" points="-4,4 -4,-473 1559.5,-473 1559.5,4 -4,4"/>
<!-- 0 -->
<g id="node1" class="node">
<title>0</title>
<polygon fill="#f7d7c0" stroke="black" points="724,-469 625,-469 625,-401 724,-401 724,-469"/>
<text text-anchor="middle" x="674.5" y="-453.8" font-family="Times,serif" font-size="14.00">RM &lt;= 6.941</text>
<text text-anchor="middle" x="674.5" y="-438.8" font-family="Times,serif" font-size="14.00">mse = 85.315</text>
<text text-anchor="middle" x="674.5" y="-423.8" font-family="Times,serif" font-size="14.00">samples = 354</text>
<text text-anchor="middle" x="674.5" y="-408.8" font-family="Times,serif" font-size="14.00">value = 22.716</text>
</g>
<!-- 1 -->
<g id="node2" class="node">
<title>1</title>
<polygon fill="#f8dfcd" stroke="black" points="505,-365 400,-365 400,-297 505,-297 505,-365"/>
<text text-anchor="middle" x="452.5" y="-349.8" font-family="Times,serif" font-size="14.00">LSTAT &lt;= 14.4</text>
<text text-anchor="middle" x="452.5" y="-334.8" font-family="Times,serif" font-size="14.00">mse = 41.779</text>
<text text-anchor="middle" x="452.5" y="-319.8" font-family="Times,serif" font-size="14.00">samples = 298</text>
<text text-anchor="middle" x="452.5" y="-304.8" font-family="Times,serif" font-size="14.00">value = 20.01</text>
</g>
<!-- 0&#45;&gt;1 -->
<g id="edge1" class="edge">
<title>0&#45;&gt;1</title>
<path fill="none" stroke="black" d="M624.96,-411.24C592.34,-396.25 549.4,-376.52 514.52,-360.5"/>
<polygon fill="black" stroke="black" points="515.93,-357.29 505.38,-356.3 513,-363.65 515.93,-357.29"/>
<text text-anchor="middle" x="514.06" y="-376.04" font-family="Times,serif" font-size="14.00">True</text>
</g>
<!-- 14 -->
<g id="node15" class="node">
<title>14</title>
<polygon fill="#eda979" stroke="black" points="954,-365 855,-365 855,-297 954,-297 954,-365"/>
<text text-anchor="middle" x="904.5" y="-349.8" font-family="Times,serif" font-size="14.00">RM &lt;= 7.445</text>
<text text-anchor="middle" x="904.5" y="-334.8" font-family="Times,serif" font-size="14.00">mse = 70.721</text>
<text text-anchor="middle" x="904.5" y="-319.8" font-family="Times,serif" font-size="14.00">samples = 56</text>
<text text-anchor="middle" x="904.5" y="-304.8" font-family="Times,serif" font-size="14.00">value = 37.114</text>
</g>
<!-- 0&#45;&gt;14 -->
<g id="edge14" class="edge">
<title>0&#45;&gt;14</title>
<path fill="none" stroke="black" d="M724.12,-411.99C759.79,-396.17 808.03,-374.78 845.65,-358.1"/>
<polygon fill="black" stroke="black" points="847.24,-361.22 854.97,-353.97 844.41,-354.82 847.24,-361.22"/>
<text text-anchor="middle" x="845.97" y="-373.59" font-family="Times,serif" font-size="14.00">False</text>
</g>
<!-- 2 -->
<g id="node3" class="node">
<title>2</title>
<polygon fill="#f6d4bc" stroke="black" points="216,-261 117,-261 117,-193 216,-193 216,-261"/>
<text text-anchor="middle" x="166.5" y="-245.8" font-family="Times,serif" font-size="14.00">DIS &lt;= 1.483</text>
<text text-anchor="middle" x="166.5" y="-230.8" font-family="Times,serif" font-size="14.00">mse = 27.747</text>
<text text-anchor="middle" x="166.5" y="-215.8" font-family="Times,serif" font-size="14.00">samples = 177</text>
<text text-anchor="middle" x="166.5" y="-200.8" font-family="Times,serif" font-size="14.00">value = 23.425</text>
</g>
<!-- 1&#45;&gt;2 -->
<g id="edge2" class="edge">
<title>1&#45;&gt;2</title>
<path fill="none" stroke="black" d="M399.71,-311.17C350.43,-293.6 276.99,-267.41 225.73,-249.13"/>
<polygon fill="black" stroke="black" points="226.71,-245.76 216.11,-245.69 224.35,-252.35 226.71,-245.76"/>
</g>
<!-- 7 -->
<g id="node8" class="node">
<title>7</title>
<polygon fill="#fcefe6" stroke="black" points="505,-261 400,-261 400,-193 505,-193 505,-261"/>
<text text-anchor="middle" x="452.5" y="-245.8" font-family="Times,serif" font-size="14.00">LSTAT &lt;= 19.9</text>
<text text-anchor="middle" x="452.5" y="-230.8" font-family="Times,serif" font-size="14.00">mse = 20.304</text>
<text text-anchor="middle" x="452.5" y="-215.8" font-family="Times,serif" font-size="14.00">samples = 121</text>
<text text-anchor="middle" x="452.5" y="-200.8" font-family="Times,serif" font-size="14.00">value = 15.016</text>
</g>
<!-- 1&#45;&gt;7 -->
<g id="edge7" class="edge">
<title>1&#45;&gt;7</title>
<path fill="none" stroke="black" d="M452.5,-296.88C452.5,-288.78 452.5,-279.98 452.5,-271.47"/>
<polygon fill="black" stroke="black" points="456,-271.3 452.5,-261.3 449,-271.3 456,-271.3"/>
</g>
<!-- 3 -->
<g id="node4" class="node">
<title>3</title>
<polygon fill="#e58139" stroke="black" points="98.5,-149.5 12.5,-149.5 12.5,-96.5 98.5,-96.5 98.5,-149.5"/>
<text text-anchor="middle" x="55.5" y="-134.3" font-family="Times,serif" font-size="14.00">mse = 0.0</text>
<text text-anchor="middle" x="55.5" y="-119.3" font-family="Times,serif" font-size="14.00">samples = 3</text>
<text text-anchor="middle" x="55.5" y="-104.3" font-family="Times,serif" font-size="14.00">value = 50.0</text>
</g>
<!-- 2&#45;&gt;3 -->
<g id="edge3" class="edge">
<title>2&#45;&gt;3</title>
<path fill="none" stroke="black" d="M130.46,-192.88C117.78,-181.23 103.54,-168.14 90.9,-156.53"/>
<polygon fill="black" stroke="black" points="93,-153.71 83.27,-149.52 88.27,-158.86 93,-153.71"/>
</g>
<!-- 4 -->
<g id="node5" class="node">
<title>4</title>
<polygon fill="#f7d6be" stroke="black" points="216,-157 117,-157 117,-89 216,-89 216,-157"/>
<text text-anchor="middle" x="166.5" y="-141.8" font-family="Times,serif" font-size="14.00">RM &lt;= 6.546</text>
<text text-anchor="middle" x="166.5" y="-126.8" font-family="Times,serif" font-size="14.00">mse = 15.839</text>
<text text-anchor="middle" x="166.5" y="-111.8" font-family="Times,serif" font-size="14.00">samples = 174</text>
<text text-anchor="middle" x="166.5" y="-96.8" font-family="Times,serif" font-size="14.00">value = 22.967</text>
</g>
<!-- 2&#45;&gt;4 -->
<g id="edge4" class="edge">
<title>2&#45;&gt;4</title>
<path fill="none" stroke="black" d="M166.5,-192.88C166.5,-184.78 166.5,-175.98 166.5,-167.47"/>
<polygon fill="black" stroke="black" points="170,-167.3 166.5,-157.3 163,-167.3 170,-167.3"/>
</g>
<!-- 5 -->
<g id="node6" class="node">
<title>5</title>
<polygon fill="#f7dac5" stroke="black" points="99,-53 0,-53 0,0 99,0 99,-53"/>
<text text-anchor="middle" x="49.5" y="-37.8" font-family="Times,serif" font-size="14.00">mse = 8.555</text>
<text text-anchor="middle" x="49.5" y="-22.8" font-family="Times,serif" font-size="14.00">samples = 133</text>
<text text-anchor="middle" x="49.5" y="-7.8" font-family="Times,serif" font-size="14.00">value = 21.576</text>
</g>
<!-- 4&#45;&gt;5 -->
<g id="edge5" class="edge">
<title>4&#45;&gt;5</title>
<path fill="none" stroke="black" d="M125.58,-88.95C113.8,-79.43 100.97,-69.07 89.26,-59.62"/>
<polygon fill="black" stroke="black" points="91.34,-56.8 81.36,-53.24 86.94,-62.24 91.34,-56.8"/>
</g>
<!-- 6 -->
<g id="node7" class="node">
<title>6</title>
<polygon fill="#f4c8a8" stroke="black" points="216,-53 117,-53 117,0 216,0 216,-53"/>
<text text-anchor="middle" x="166.5" y="-37.8" font-family="Times,serif" font-size="14.00">mse = 12.841</text>
<text text-anchor="middle" x="166.5" y="-22.8" font-family="Times,serif" font-size="14.00">samples = 41</text>
<text text-anchor="middle" x="166.5" y="-7.8" font-family="Times,serif" font-size="14.00">value = 27.478</text>
</g>
<!-- 4&#45;&gt;6 -->
<g id="edge6" class="edge">
<title>4&#45;&gt;6</title>
<path fill="none" stroke="black" d="M166.5,-88.95C166.5,-80.72 166.5,-71.85 166.5,-63.48"/>
<polygon fill="black" stroke="black" points="170,-63.24 166.5,-53.24 163,-63.24 170,-63.24"/>
</g>
<!-- 8 -->
<g id="node9" class="node">
<title>8</title>
<polygon fill="#fae8db" stroke="black" points="445,-157 338,-157 338,-89 445,-89 445,-157"/>
<text text-anchor="middle" x="391.5" y="-141.8" font-family="Times,serif" font-size="14.00">CRIM &lt;= 0.291</text>
<text text-anchor="middle" x="391.5" y="-126.8" font-family="Times,serif" font-size="14.00">mse = 12.566</text>
<text text-anchor="middle" x="391.5" y="-111.8" font-family="Times,serif" font-size="14.00">samples = 73</text>
<text text-anchor="middle" x="391.5" y="-96.8" font-family="Times,serif" font-size="14.00">value = 17.118</text>
</g>
<!-- 7&#45;&gt;8 -->
<g id="edge8" class="edge">
<title>7&#45;&gt;8</title>
<path fill="none" stroke="black" d="M432.7,-192.88C427.58,-184.33 422.01,-175.01 416.66,-166.07"/>
<polygon fill="black" stroke="black" points="419.55,-164.09 411.41,-157.3 413.54,-167.68 419.55,-164.09"/>
</g>
<!-- 11 -->
<g id="node12" class="node">
<title>11</title>
<polygon fill="#fef9f5" stroke="black" points="564,-157 463,-157 463,-89 564,-89 564,-157"/>
<text text-anchor="middle" x="513.5" y="-141.8" font-family="Times,serif" font-size="14.00">NOX &lt;= 0.603</text>
<text text-anchor="middle" x="513.5" y="-126.8" font-family="Times,serif" font-size="14.00">mse = 15.132</text>
<text text-anchor="middle" x="513.5" y="-111.8" font-family="Times,serif" font-size="14.00">samples = 48</text>
<text text-anchor="middle" x="513.5" y="-96.8" font-family="Times,serif" font-size="14.00">value = 11.819</text>
</g>
<!-- 7&#45;&gt;11 -->
<g id="edge11" class="edge">
<title>7&#45;&gt;11</title>
<path fill="none" stroke="black" d="M472.3,-192.88C477.42,-184.33 482.99,-175.01 488.34,-166.07"/>
<polygon fill="black" stroke="black" points="491.46,-167.68 493.59,-157.3 485.45,-164.09 491.46,-167.68"/>
</g>
<!-- 9 -->
<g id="node10" class="node">
<title>9</title>
<polygon fill="#f9e0ce" stroke="black" points="333,-53 234,-53 234,0 333,0 333,-53"/>
<text text-anchor="middle" x="283.5" y="-37.8" font-family="Times,serif" font-size="14.00">mse = 6.601</text>
<text text-anchor="middle" x="283.5" y="-22.8" font-family="Times,serif" font-size="14.00">samples = 23</text>
<text text-anchor="middle" x="283.5" y="-7.8" font-family="Times,serif" font-size="14.00">value = 19.852</text>
</g>
<!-- 8&#45;&gt;9 -->
<g id="edge9" class="edge">
<title>8&#45;&gt;9</title>
<path fill="none" stroke="black" d="M353.73,-88.95C342.96,-79.53 331.24,-69.27 320.52,-59.89"/>
<polygon fill="black" stroke="black" points="322.74,-57.19 312.91,-53.24 318.13,-62.46 322.74,-57.19"/>
</g>
<!-- 10 -->
<g id="node11" class="node">
<title>10</title>
<polygon fill="#fbece1" stroke="black" points="443.5,-53 351.5,-53 351.5,0 443.5,0 443.5,-53"/>
<text text-anchor="middle" x="397.5" y="-37.8" font-family="Times,serif" font-size="14.00">mse = 10.289</text>
<text text-anchor="middle" x="397.5" y="-22.8" font-family="Times,serif" font-size="14.00">samples = 50</text>
<text text-anchor="middle" x="397.5" y="-7.8" font-family="Times,serif" font-size="14.00">value = 15.86</text>
</g>
<!-- 8&#45;&gt;10 -->
<g id="edge10" class="edge">
<title>8&#45;&gt;10</title>
<path fill="none" stroke="black" d="M393.6,-88.95C394.12,-80.72 394.68,-71.85 395.22,-63.48"/>
<polygon fill="black" stroke="black" points="398.73,-63.44 395.87,-53.24 391.74,-62.99 398.73,-63.44"/>
</g>
<!-- 12 -->
<g id="node13" class="node">
<title>12</title>
<polygon fill="#fbece0" stroke="black" points="553.5,-53 461.5,-53 461.5,0 553.5,0 553.5,-53"/>
<text text-anchor="middle" x="507.5" y="-37.8" font-family="Times,serif" font-size="14.00">mse = 5.547</text>
<text text-anchor="middle" x="507.5" y="-22.8" font-family="Times,serif" font-size="14.00">samples = 15</text>
<text text-anchor="middle" x="507.5" y="-7.8" font-family="Times,serif" font-size="14.00">value = 16.08</text>
</g>
<!-- 11&#45;&gt;12 -->
<g id="edge12" class="edge">
<title>11&#45;&gt;12</title>
<path fill="none" stroke="black" d="M511.4,-88.95C510.88,-80.72 510.32,-71.85 509.78,-63.48"/>
<polygon fill="black" stroke="black" points="513.26,-62.99 509.13,-53.24 506.27,-63.44 513.26,-62.99"/>
</g>
<!-- 13 -->
<g id="node14" class="node">
<title>13</title>
<polygon fill="#ffffff" stroke="black" points="663.5,-53 571.5,-53 571.5,0 663.5,0 663.5,-53"/>
<text text-anchor="middle" x="617.5" y="-37.8" font-family="Times,serif" font-size="14.00">mse = 7.483</text>
<text text-anchor="middle" x="617.5" y="-22.8" font-family="Times,serif" font-size="14.00">samples = 33</text>
<text text-anchor="middle" x="617.5" y="-7.8" font-family="Times,serif" font-size="14.00">value = 9.882</text>
</g>
<!-- 11&#45;&gt;13 -->
<g id="edge13" class="edge">
<title>11&#45;&gt;13</title>
<path fill="none" stroke="black" d="M549.87,-88.95C560.14,-79.62 571.31,-69.47 581.55,-60.16"/>
<polygon fill="black" stroke="black" points="584.13,-62.55 589.18,-53.24 579.42,-57.37 584.13,-62.55"/>
</g>
<!-- 15 -->
<g id="node16" class="node">
<title>15</title>
<polygon fill="#f0b88f" stroke="black" points="964.5,-261 844.5,-261 844.5,-193 964.5,-193 964.5,-261"/>
<text text-anchor="middle" x="904.5" y="-245.8" font-family="Times,serif" font-size="14.00">PTRATIO &lt;= 19.7</text>
<text text-anchor="middle" x="904.5" y="-230.8" font-family="Times,serif" font-size="14.00">mse = 27.313</text>
<text text-anchor="middle" x="904.5" y="-215.8" font-family="Times,serif" font-size="14.00">samples = 36</text>
<text text-anchor="middle" x="904.5" y="-200.8" font-family="Times,serif" font-size="14.00">value = 32.572</text>
</g>
<!-- 14&#45;&gt;15 -->
<g id="edge15" class="edge">
<title>14&#45;&gt;15</title>
<path fill="none" stroke="black" d="M904.5,-296.88C904.5,-288.78 904.5,-279.98 904.5,-271.47"/>
<polygon fill="black" stroke="black" points="908,-271.3 904.5,-261.3 901,-271.3 908,-271.3"/>
</g>
<!-- 22 -->
<g id="node23" class="node">
<title>22</title>
<polygon fill="#e89050" stroke="black" points="1298.5,-261 1178.5,-261 1178.5,-193 1298.5,-193 1298.5,-261"/>
<text text-anchor="middle" x="1238.5" y="-245.8" font-family="Times,serif" font-size="14.00">PTRATIO &lt;= 18.2</text>
<text text-anchor="middle" x="1238.5" y="-230.8" font-family="Times,serif" font-size="14.00">mse = 44.879</text>
<text text-anchor="middle" x="1238.5" y="-215.8" font-family="Times,serif" font-size="14.00">samples = 20</text>
<text text-anchor="middle" x="1238.5" y="-200.8" font-family="Times,serif" font-size="14.00">value = 45.29</text>
</g>
<!-- 14&#45;&gt;22 -->
<g id="edge22" class="edge">
<title>14&#45;&gt;22</title>
<path fill="none" stroke="black" d="M954.14,-314.84C1011.01,-297.47 1104.59,-268.89 1168.76,-249.3"/>
<polygon fill="black" stroke="black" points="1169.86,-252.62 1178.4,-246.35 1167.81,-245.93 1169.86,-252.62"/>
</g>
<!-- 16 -->
<g id="node17" class="node">
<title>16</title>
<polygon fill="#efb388" stroke="black" points="897,-157 792,-157 792,-89 897,-89 897,-157"/>
<text text-anchor="middle" x="844.5" y="-141.8" font-family="Times,serif" font-size="14.00">LSTAT &lt;= 9.65</text>
<text text-anchor="middle" x="844.5" y="-126.8" font-family="Times,serif" font-size="14.00">mse = 7.81</text>
<text text-anchor="middle" x="844.5" y="-111.8" font-family="Times,serif" font-size="14.00">samples = 32</text>
<text text-anchor="middle" x="844.5" y="-96.8" font-family="Times,serif" font-size="14.00">value = 34.091</text>
</g>
<!-- 15&#45;&gt;16 -->
<g id="edge16" class="edge">
<title>15&#45;&gt;16</title>
<path fill="none" stroke="black" d="M885.02,-192.88C879.99,-184.33 874.51,-175.01 869.25,-166.07"/>
<polygon fill="black" stroke="black" points="872.17,-164.14 864.09,-157.3 866.14,-167.69 872.17,-164.14"/>
</g>
<!-- 19 -->
<g id="node20" class="node">
<title>19</title>
<polygon fill="#f8decb" stroke="black" points="1015.5,-157 915.5,-157 915.5,-89 1015.5,-89 1015.5,-157"/>
<text text-anchor="middle" x="965.5" y="-141.8" font-family="Times,serif" font-size="14.00">CRIM &lt;= 6.99</text>
<text text-anchor="middle" x="965.5" y="-126.8" font-family="Times,serif" font-size="14.00">mse = 17.332</text>
<text text-anchor="middle" x="965.5" y="-111.8" font-family="Times,serif" font-size="14.00">samples = 4</text>
<text text-anchor="middle" x="965.5" y="-96.8" font-family="Times,serif" font-size="14.00">value = 20.425</text>
</g>
<!-- 15&#45;&gt;19 -->
<g id="edge19" class="edge">
<title>15&#45;&gt;19</title>
<path fill="none" stroke="black" d="M924.3,-192.88C929.42,-184.33 934.99,-175.01 940.34,-166.07"/>
<polygon fill="black" stroke="black" points="943.46,-167.68 945.59,-157.3 937.45,-164.09 943.46,-167.68"/>
</g>
<!-- 17 -->
<g id="node18" class="node">
<title>17</title>
<polygon fill="#efb185" stroke="black" points="781,-53 682,-53 682,0 781,0 781,-53"/>
<text text-anchor="middle" x="731.5" y="-37.8" font-family="Times,serif" font-size="14.00">mse = 5.78</text>
<text text-anchor="middle" x="731.5" y="-22.8" font-family="Times,serif" font-size="14.00">samples = 29</text>
<text text-anchor="middle" x="731.5" y="-7.8" font-family="Times,serif" font-size="14.00">value = 34.569</text>
</g>
<!-- 16&#45;&gt;17 -->
<g id="edge17" class="edge">
<title>16&#45;&gt;17</title>
<path fill="none" stroke="black" d="M804.98,-88.95C793.71,-79.53 781.45,-69.27 770.23,-59.89"/>
<polygon fill="black" stroke="black" points="772.19,-56.97 762.28,-53.24 767.7,-62.34 772.19,-56.97"/>
</g>
<!-- 18 -->
<g id="node19" class="node">
<title>18</title>
<polygon fill="#f2c19e" stroke="black" points="898,-53 799,-53 799,0 898,0 898,-53"/>
<text text-anchor="middle" x="848.5" y="-37.8" font-family="Times,serif" font-size="14.00">mse = 3.842</text>
<text text-anchor="middle" x="848.5" y="-22.8" font-family="Times,serif" font-size="14.00">samples = 3</text>
<text text-anchor="middle" x="848.5" y="-7.8" font-family="Times,serif" font-size="14.00">value = 29.467</text>
</g>
<!-- 16&#45;&gt;18 -->
<g id="edge18" class="edge">
<title>16&#45;&gt;18</title>
<path fill="none" stroke="black" d="M845.9,-88.95C846.25,-80.72 846.62,-71.85 846.98,-63.48"/>
<polygon fill="black" stroke="black" points="850.48,-63.38 847.41,-53.24 843.49,-63.08 850.48,-63.38"/>
</g>
<!-- 20 -->
<g id="node21" class="node">
<title>20</title>
<polygon fill="#f6d1b7" stroke="black" points="1008.5,-53 916.5,-53 916.5,0 1008.5,0 1008.5,-53"/>
<text text-anchor="middle" x="962.5" y="-37.8" font-family="Times,serif" font-size="14.00">mse = 0.303</text>
<text text-anchor="middle" x="962.5" y="-22.8" font-family="Times,serif" font-size="14.00">samples = 2</text>
<text text-anchor="middle" x="962.5" y="-7.8" font-family="Times,serif" font-size="14.00">value = 24.45</text>
</g>
<!-- 19&#45;&gt;20 -->
<g id="edge20" class="edge">
<title>19&#45;&gt;20</title>
<path fill="none" stroke="black" d="M964.45,-88.95C964.19,-80.72 963.91,-71.85 963.64,-63.48"/>
<polygon fill="black" stroke="black" points="967.13,-63.12 963.32,-53.24 960.14,-63.34 967.13,-63.12"/>
</g>
<!-- 21 -->
<g id="node22" class="node">
<title>21</title>
<polygon fill="#fbebdf" stroke="black" points="1112.5,-53 1026.5,-53 1026.5,0 1112.5,0 1112.5,-53"/>
<text text-anchor="middle" x="1069.5" y="-37.8" font-family="Times,serif" font-size="14.00">mse = 1.96</text>
<text text-anchor="middle" x="1069.5" y="-22.8" font-family="Times,serif" font-size="14.00">samples = 2</text>
<text text-anchor="middle" x="1069.5" y="-7.8" font-family="Times,serif" font-size="14.00">value = 16.4</text>
</g>
<!-- 19&#45;&gt;21 -->
<g id="edge21" class="edge">
<title>19&#45;&gt;21</title>
<path fill="none" stroke="black" d="M1001.87,-88.95C1012.14,-79.62 1023.31,-69.47 1033.55,-60.16"/>
<polygon fill="black" stroke="black" points="1036.13,-62.55 1041.18,-53.24 1031.42,-57.37 1036.13,-62.55"/>
</g>
<!-- 23 -->
<g id="node24" class="node">
<title>23</title>
<polygon fill="#e78a47" stroke="black" points="1285,-157 1192,-157 1192,-89 1285,-89 1285,-157"/>
<text text-anchor="middle" x="1238.5" y="-141.8" font-family="Times,serif" font-size="14.00">RM &lt;= 7.783</text>
<text text-anchor="middle" x="1238.5" y="-126.8" font-family="Times,serif" font-size="14.00">mse = 10.356</text>
<text text-anchor="middle" x="1238.5" y="-111.8" font-family="Times,serif" font-size="14.00">samples = 18</text>
<text text-anchor="middle" x="1238.5" y="-96.8" font-family="Times,serif" font-size="14.00">value = 47.15</text>
</g>
<!-- 22&#45;&gt;23 -->
<g id="edge23" class="edge">
<title>22&#45;&gt;23</title>
<path fill="none" stroke="black" d="M1238.5,-192.88C1238.5,-184.78 1238.5,-175.98 1238.5,-167.47"/>
<polygon fill="black" stroke="black" points="1242,-167.3 1238.5,-157.3 1235,-167.3 1242,-167.3"/>
</g>
<!-- 26 -->
<g id="node27" class="node">
<title>26</title>
<polygon fill="#f3c4a3" stroke="black" points="1454.5,-157 1362.5,-157 1362.5,-89 1454.5,-89 1454.5,-157"/>
<text text-anchor="middle" x="1408.5" y="-141.8" font-family="Times,serif" font-size="14.00">B &lt;= 372.66</text>
<text text-anchor="middle" x="1408.5" y="-126.8" font-family="Times,serif" font-size="14.00">mse = 44.223</text>
<text text-anchor="middle" x="1408.5" y="-111.8" font-family="Times,serif" font-size="14.00">samples = 2</text>
<text text-anchor="middle" x="1408.5" y="-96.8" font-family="Times,serif" font-size="14.00">value = 28.55</text>
</g>
<!-- 22&#45;&gt;26 -->
<g id="edge26" class="edge">
<title>22&#45;&gt;26</title>
<path fill="none" stroke="black" d="M1293.69,-192.88C1312.95,-181.33 1334.54,-168.38 1353.75,-156.85"/>
<polygon fill="black" stroke="black" points="1355.62,-159.81 1362.4,-151.66 1352.02,-153.8 1355.62,-159.81"/>
</g>
<!-- 24 -->
<g id="node25" class="node">
<title>24</title>
<polygon fill="#e99559" stroke="black" points="1230,-53 1131,-53 1131,0 1230,0 1230,-53"/>
<text text-anchor="middle" x="1180.5" y="-37.8" font-family="Times,serif" font-size="14.00">mse = 5.292</text>
<text text-anchor="middle" x="1180.5" y="-22.8" font-family="Times,serif" font-size="14.00">samples = 6</text>
<text text-anchor="middle" x="1180.5" y="-7.8" font-family="Times,serif" font-size="14.00">value = 43.567</text>
</g>
<!-- 23&#45;&gt;24 -->
<g id="edge24" class="edge">
<title>23&#45;&gt;24</title>
<path fill="none" stroke="black" d="M1218.21,-88.95C1212.82,-80.17 1206.99,-70.66 1201.56,-61.82"/>
<polygon fill="black" stroke="black" points="1204.51,-59.93 1196.3,-53.24 1198.54,-63.59 1204.51,-59.93"/>
</g>
<!-- 25 -->
<g id="node26" class="node">
<title>25</title>
<polygon fill="#e6843e" stroke="black" points="1347,-53 1248,-53 1248,0 1347,0 1347,-53"/>
<text text-anchor="middle" x="1297.5" y="-37.8" font-family="Times,serif" font-size="14.00">mse = 3.257</text>
<text text-anchor="middle" x="1297.5" y="-22.8" font-family="Times,serif" font-size="14.00">samples = 12</text>
<text text-anchor="middle" x="1297.5" y="-7.8" font-family="Times,serif" font-size="14.00">value = 48.942</text>
</g>
<!-- 23&#45;&gt;25 -->
<g id="edge25" class="edge">
<title>23&#45;&gt;25</title>
<path fill="none" stroke="black" d="M1259.14,-88.95C1264.62,-80.17 1270.55,-70.66 1276.08,-61.82"/>
<polygon fill="black" stroke="black" points="1279.1,-63.57 1281.43,-53.24 1273.17,-59.87 1279.1,-63.57"/>
</g>
<!-- 27 -->
<g id="node28" class="node">
<title>27</title>
<polygon fill="#f7d9c4" stroke="black" points="1451.5,-53 1365.5,-53 1365.5,0 1451.5,0 1451.5,-53"/>
<text text-anchor="middle" x="1408.5" y="-37.8" font-family="Times,serif" font-size="14.00">mse = 0.0</text>
<text text-anchor="middle" x="1408.5" y="-22.8" font-family="Times,serif" font-size="14.00">samples = 1</text>
<text text-anchor="middle" x="1408.5" y="-7.8" font-family="Times,serif" font-size="14.00">value = 21.9</text>
</g>
<!-- 26&#45;&gt;27 -->
<g id="edge27" class="edge">
<title>26&#45;&gt;27</title>
<path fill="none" stroke="black" d="M1408.5,-88.95C1408.5,-80.72 1408.5,-71.85 1408.5,-63.48"/>
<polygon fill="black" stroke="black" points="1412,-63.24 1408.5,-53.24 1405,-63.24 1412,-63.24"/>
</g>
<!-- 28 -->
<g id="node29" class="node">
<title>28</title>
<polygon fill="#efaf82" stroke="black" points="1555.5,-53 1469.5,-53 1469.5,0 1555.5,0 1555.5,-53"/>
<text text-anchor="middle" x="1512.5" y="-37.8" font-family="Times,serif" font-size="14.00">mse = 0.0</text>
<text text-anchor="middle" x="1512.5" y="-22.8" font-family="Times,serif" font-size="14.00">samples = 1</text>
<text text-anchor="middle" x="1512.5" y="-7.8" font-family="Times,serif" font-size="14.00">value = 35.2</text>
</g>
<!-- 26&#45;&gt;28 -->
<g id="edge28" class="edge">
<title>26&#45;&gt;28</title>
<path fill="none" stroke="black" d="M1444.87,-88.95C1455.14,-79.62 1466.31,-69.47 1476.55,-60.16"/>
<polygon fill="black" stroke="black" points="1479.13,-62.55 1484.18,-53.24 1474.42,-57.37 1479.13,-62.55"/>
</g>
</g>
</svg>
