<?xml version="1.0" encoding="UTF-8" standalone="no"?>
<!DOCTYPE svg PUBLIC "-//W3C//DTD SVG 1.1//EN"
 "http://www.w3.org/Graphics/SVG/1.1/DTD/svg11.dtd">
<!-- Generated by graphviz version 2.46.1 (20210213.1702)
 -->
<!-- Title: Tree Pages: 1 -->
<svg width="1771pt" height="477pt"
 viewBox="0.00 0.00 1771.00 477.00" xmlns="http://www.w3.org/2000/svg" xmlns:xlink="http://www.w3.org/1999/xlink">
<g id="graph0" class="graph" transform="scale(1 1) rotate(0) translate(4 473)">
<title>Tree</title>
<polygon fill="white" stroke="transparent" points="-4,4 -4,-473 1767,-473 1767,4 -4,4"/>
<!-- 0 -->
<g id="node1" class="node">
<title>0</title>
<polygon fill="#f7d9c3" stroke="black" points="937.5,-469 838.5,-469 838.5,-401 937.5,-401 937.5,-469"/>
<text text-anchor="middle" x="888" y="-453.8" font-family="Times,serif" font-size="14.00">RM &lt;= 6.797</text>
<text text-anchor="middle" x="888" y="-438.8" font-family="Times,serif" font-size="14.00">mse = 86.965</text>
<text text-anchor="middle" x="888" y="-423.8" font-family="Times,serif" font-size="14.00">samples = 354</text>
<text text-anchor="middle" x="888" y="-408.8" font-family="Times,serif" font-size="14.00">value = 23.072</text>
</g>
<!-- 1 -->
<g id="node2" class="node">
<title>1</title>
<polygon fill="#f9e3d3" stroke="black" points="711.5,-365 606.5,-365 606.5,-297 711.5,-297 711.5,-365"/>
<text text-anchor="middle" x="659" y="-349.8" font-family="Times,serif" font-size="14.00">LSTAT &lt;= 14.4</text>
<text text-anchor="middle" x="659" y="-334.8" font-family="Times,serif" font-size="14.00">mse = 40.633</text>
<text text-anchor="middle" x="659" y="-319.8" font-family="Times,serif" font-size="14.00">samples = 282</text>
<text text-anchor="middle" x="659" y="-304.8" font-family="Times,serif" font-size="14.00">value = 19.898</text>
</g>
<!-- 0&#45;&gt;1 -->
<g id="edge1" class="edge">
<title>0&#45;&gt;1</title>
<path fill="none" stroke="black" d="M838.31,-411.87C803.87,-396.53 757.77,-375.99 720.93,-359.59"/>
<polygon fill="black" stroke="black" points="722.34,-356.38 711.78,-355.51 719.49,-362.77 722.34,-356.38"/>
<text text-anchor="middle" x="720.74" y="-375.15" font-family="Times,serif" font-size="14.00">True</text>
</g>
<!-- 16 -->
<g id="node17" class="node">
<title>16</title>
<polygon fill="#efb083" stroke="black" points="1168.5,-365 1069.5,-365 1069.5,-297 1168.5,-297 1168.5,-365"/>
<text text-anchor="middle" x="1119" y="-349.8" font-family="Times,serif" font-size="14.00">RM &lt;= 7.437</text>
<text text-anchor="middle" x="1119" y="-334.8" font-family="Times,serif" font-size="14.00">mse = 74.379</text>
<text text-anchor="middle" x="1119" y="-319.8" font-family="Times,serif" font-size="14.00">samples = 72</text>
<text text-anchor="middle" x="1119" y="-304.8" font-family="Times,serif" font-size="14.00">value = 35.506</text>
</g>
<!-- 0&#45;&gt;16 -->
<g id="edge16" class="edge">
<title>0&#45;&gt;16</title>
<path fill="none" stroke="black" d="M937.56,-412.12C973.36,-396.31 1021.89,-374.88 1059.75,-358.16"/>
<polygon fill="black" stroke="black" points="1061.39,-361.26 1069.13,-354.02 1058.57,-354.86 1061.39,-361.26"/>
<text text-anchor="middle" x="1060.1" y="-373.63" font-family="Times,serif" font-size="14.00">False</text>
</g>
<!-- 2 -->
<g id="node3" class="node">
<title>2</title>
<polygon fill="#f7d9c3" stroke="black" points="372.5,-261 273.5,-261 273.5,-193 372.5,-193 372.5,-261"/>
<text text-anchor="middle" x="323" y="-245.8" font-family="Times,serif" font-size="14.00">DIS &lt;= 1.385</text>
<text text-anchor="middle" x="323" y="-230.8" font-family="Times,serif" font-size="14.00">mse = 29.745</text>
<text text-anchor="middle" x="323" y="-215.8" font-family="Times,serif" font-size="14.00">samples = 171</text>
<text text-anchor="middle" x="323" y="-200.8" font-family="Times,serif" font-size="14.00">value = 23.046</text>
</g>
<!-- 1&#45;&gt;2 -->
<g id="edge2" class="edge">
<title>1&#45;&gt;2</title>
<path fill="none" stroke="black" d="M606.13,-313.95C545.35,-295.5 445.82,-265.28 382.41,-246.03"/>
<polygon fill="black" stroke="black" points="383.14,-242.6 372.55,-243.04 381.1,-249.3 383.14,-242.6"/>
</g>
<!-- 9 -->
<g id="node10" class="node">
<title>9</title>
<polygon fill="#fcf3eb" stroke="black" points="708.5,-261 609.5,-261 609.5,-193 708.5,-193 708.5,-261"/>
<text text-anchor="middle" x="659" y="-245.8" font-family="Times,serif" font-size="14.00">DIS &lt;= 2.004</text>
<text text-anchor="middle" x="659" y="-230.8" font-family="Times,serif" font-size="14.00">mse = 18.614</text>
<text text-anchor="middle" x="659" y="-215.8" font-family="Times,serif" font-size="14.00">samples = 111</text>
<text text-anchor="middle" x="659" y="-200.8" font-family="Times,serif" font-size="14.00">value = 15.048</text>
</g>
<!-- 1&#45;&gt;9 -->
<g id="edge9" class="edge">
<title>1&#45;&gt;9</title>
<path fill="none" stroke="black" d="M659,-296.88C659,-288.78 659,-279.98 659,-271.47"/>
<polygon fill="black" stroke="black" points="662.5,-271.3 659,-261.3 655.5,-271.3 662.5,-271.3"/>
</g>
<!-- 3 -->
<g id="node4" class="node">
<title>3</title>
<polygon fill="#e88f50" stroke="black" points="203,-157 91,-157 91,-89 203,-89 203,-157"/>
<text text-anchor="middle" x="147" y="-141.8" font-family="Times,serif" font-size="14.00">LSTAT &lt;= 10.83</text>
<text text-anchor="middle" x="147" y="-126.8" font-family="Times,serif" font-size="14.00">mse = 78.146</text>
<text text-anchor="middle" x="147" y="-111.8" font-family="Times,serif" font-size="14.00">samples = 5</text>
<text text-anchor="middle" x="147" y="-96.8" font-family="Times,serif" font-size="14.00">value = 45.58</text>
</g>
<!-- 2&#45;&gt;3 -->
<g id="edge3" class="edge">
<title>2&#45;&gt;3</title>
<path fill="none" stroke="black" d="M273.04,-197.04C254.09,-186.06 232.23,-173.4 212.1,-161.73"/>
<polygon fill="black" stroke="black" points="213.69,-158.61 203.28,-156.62 210.18,-164.66 213.69,-158.61"/>
</g>
<!-- 6 -->
<g id="node7" class="node">
<title>6</title>
<polygon fill="#f8dbc6" stroke="black" points="372.5,-157 273.5,-157 273.5,-89 372.5,-89 372.5,-157"/>
<text text-anchor="middle" x="323" y="-141.8" font-family="Times,serif" font-size="14.00">RM &lt;= 6.142</text>
<text text-anchor="middle" x="323" y="-126.8" font-family="Times,serif" font-size="14.00">mse = 12.532</text>
<text text-anchor="middle" x="323" y="-111.8" font-family="Times,serif" font-size="14.00">samples = 166</text>
<text text-anchor="middle" x="323" y="-96.8" font-family="Times,serif" font-size="14.00">value = 22.367</text>
</g>
<!-- 2&#45;&gt;6 -->
<g id="edge6" class="edge">
<title>2&#45;&gt;6</title>
<path fill="none" stroke="black" d="M323,-192.88C323,-184.78 323,-175.98 323,-167.47"/>
<polygon fill="black" stroke="black" points="326.5,-167.3 323,-157.3 319.5,-167.3 326.5,-167.3"/>
</g>
<!-- 4 -->
<g id="node5" class="node">
<title>4</title>
<polygon fill="#e58139" stroke="black" points="86,-53 0,-53 0,0 86,0 86,-53"/>
<text text-anchor="middle" x="43" y="-37.8" font-family="Times,serif" font-size="14.00">mse = 0.0</text>
<text text-anchor="middle" x="43" y="-22.8" font-family="Times,serif" font-size="14.00">samples = 4</text>
<text text-anchor="middle" x="43" y="-7.8" font-family="Times,serif" font-size="14.00">value = 50.0</text>
</g>
<!-- 3&#45;&gt;4 -->
<g id="edge4" class="edge">
<title>3&#45;&gt;4</title>
<path fill="none" stroke="black" d="M110.63,-88.95C100.36,-79.62 89.19,-69.47 78.95,-60.16"/>
<polygon fill="black" stroke="black" points="81.08,-57.37 71.32,-53.24 76.37,-62.55 81.08,-57.37"/>
</g>
<!-- 5 -->
<g id="node6" class="node">
<title>5</title>
<polygon fill="#f4c9aa" stroke="black" points="190,-53 104,-53 104,0 190,0 190,-53"/>
<text text-anchor="middle" x="147" y="-37.8" font-family="Times,serif" font-size="14.00">mse = &#45;0.0</text>
<text text-anchor="middle" x="147" y="-22.8" font-family="Times,serif" font-size="14.00">samples = 1</text>
<text text-anchor="middle" x="147" y="-7.8" font-family="Times,serif" font-size="14.00">value = 27.9</text>
</g>
<!-- 3&#45;&gt;5 -->
<g id="edge5" class="edge">
<title>3&#45;&gt;5</title>
<path fill="none" stroke="black" d="M147,-88.95C147,-80.72 147,-71.85 147,-63.48"/>
<polygon fill="black" stroke="black" points="150.5,-63.24 147,-53.24 143.5,-63.24 150.5,-63.24"/>
</g>
<!-- 7 -->
<g id="node8" class="node">
<title>7</title>
<polygon fill="#f9e1d0" stroke="black" points="307.5,-53 208.5,-53 208.5,0 307.5,0 307.5,-53"/>
<text text-anchor="middle" x="258" y="-37.8" font-family="Times,serif" font-size="14.00">mse = 6.744</text>
<text text-anchor="middle" x="258" y="-22.8" font-family="Times,serif" font-size="14.00">samples = 82</text>
<text text-anchor="middle" x="258" y="-7.8" font-family="Times,serif" font-size="14.00">value = 20.487</text>
</g>
<!-- 6&#45;&gt;7 -->
<g id="edge7" class="edge">
<title>6&#45;&gt;7</title>
<path fill="none" stroke="black" d="M300.27,-88.95C294.16,-80.07 287.55,-70.46 281.41,-61.54"/>
<polygon fill="black" stroke="black" points="284.25,-59.49 275.7,-53.24 278.49,-63.46 284.25,-59.49"/>
</g>
<!-- 8 -->
<g id="node9" class="node">
<title>8</title>
<polygon fill="#f6d5bd" stroke="black" points="424.5,-53 325.5,-53 325.5,0 424.5,0 424.5,-53"/>
<text text-anchor="middle" x="375" y="-37.8" font-family="Times,serif" font-size="14.00">mse = 11.357</text>
<text text-anchor="middle" x="375" y="-22.8" font-family="Times,serif" font-size="14.00">samples = 84</text>
<text text-anchor="middle" x="375" y="-7.8" font-family="Times,serif" font-size="14.00">value = 24.204</text>
</g>
<!-- 6&#45;&gt;8 -->
<g id="edge8" class="edge">
<title>6&#45;&gt;8</title>
<path fill="none" stroke="black" d="M341.19,-88.95C345.97,-80.26 351.14,-70.86 355.97,-62.09"/>
<polygon fill="black" stroke="black" points="359.08,-63.69 360.84,-53.24 352.95,-60.31 359.08,-63.69"/>
</g>
<!-- 10 -->
<g id="node11" class="node">
<title>10</title>
<polygon fill="#fefbf9" stroke="black" points="650.5,-157 551.5,-157 551.5,-89 650.5,-89 650.5,-157"/>
<text text-anchor="middle" x="601" y="-141.8" font-family="Times,serif" font-size="14.00">TAX &lt;= 551.5</text>
<text text-anchor="middle" x="601" y="-126.8" font-family="Times,serif" font-size="14.00">mse = 14.262</text>
<text text-anchor="middle" x="601" y="-111.8" font-family="Times,serif" font-size="14.00">samples = 55</text>
<text text-anchor="middle" x="601" y="-96.8" font-family="Times,serif" font-size="14.00">value = 12.449</text>
</g>
<!-- 9&#45;&gt;10 -->
<g id="edge10" class="edge">
<title>9&#45;&gt;10</title>
<path fill="none" stroke="black" d="M640.17,-192.88C635.31,-184.33 630.01,-175.01 624.92,-166.07"/>
<polygon fill="black" stroke="black" points="627.92,-164.26 619.93,-157.3 621.84,-167.72 627.92,-164.26"/>
</g>
<!-- 13 -->
<g id="node14" class="node">
<title>13</title>
<polygon fill="#fbeade" stroke="black" points="763,-157 673,-157 673,-89 763,-89 763,-157"/>
<text text-anchor="middle" x="718" y="-141.8" font-family="Times,serif" font-size="14.00">B &lt;= 378.23</text>
<text text-anchor="middle" x="718" y="-126.8" font-family="Times,serif" font-size="14.00">mse = 9.741</text>
<text text-anchor="middle" x="718" y="-111.8" font-family="Times,serif" font-size="14.00">samples = 56</text>
<text text-anchor="middle" x="718" y="-96.8" font-family="Times,serif" font-size="14.00">value = 17.6</text>
</g>
<!-- 9&#45;&gt;13 -->
<g id="edge13" class="edge">
<title>9&#45;&gt;13</title>
<path fill="none" stroke="black" d="M678.16,-192.88C683.1,-184.33 688.49,-175.01 693.66,-166.07"/>
<polygon fill="black" stroke="black" points="696.76,-167.71 698.74,-157.3 690.7,-164.2 696.76,-167.71"/>
</g>
<!-- 11 -->
<g id="node12" class="node">
<title>11</title>
<polygon fill="#fceee5" stroke="black" points="533,-53 443,-53 443,0 533,0 533,-53"/>
<text text-anchor="middle" x="488" y="-37.8" font-family="Times,serif" font-size="14.00">mse = 4.915</text>
<text text-anchor="middle" x="488" y="-22.8" font-family="Times,serif" font-size="14.00">samples = 13</text>
<text text-anchor="middle" x="488" y="-7.8" font-family="Times,serif" font-size="14.00">value = 16.4</text>
</g>
<!-- 10&#45;&gt;11 -->
<g id="edge11" class="edge">
<title>10&#45;&gt;11</title>
<path fill="none" stroke="black" d="M561.48,-88.95C550.21,-79.53 537.95,-69.27 526.73,-59.89"/>
<polygon fill="black" stroke="black" points="528.69,-56.97 518.78,-53.24 524.2,-62.34 528.69,-56.97"/>
</g>
<!-- 12 -->
<g id="node13" class="node">
<title>12</title>
<polygon fill="#ffffff" stroke="black" points="650.5,-53 551.5,-53 551.5,0 650.5,0 650.5,-53"/>
<text text-anchor="middle" x="601" y="-37.8" font-family="Times,serif" font-size="14.00">mse = 10.829</text>
<text text-anchor="middle" x="601" y="-22.8" font-family="Times,serif" font-size="14.00">samples = 42</text>
<text text-anchor="middle" x="601" y="-7.8" font-family="Times,serif" font-size="14.00">value = 11.226</text>
</g>
<!-- 10&#45;&gt;12 -->
<g id="edge12" class="edge">
<title>10&#45;&gt;12</title>
<path fill="none" stroke="black" d="M601,-88.95C601,-80.72 601,-71.85 601,-63.48"/>
<polygon fill="black" stroke="black" points="604.5,-63.24 601,-53.24 597.5,-63.24 604.5,-63.24"/>
</g>
<!-- 14 -->
<g id="node15" class="node">
<title>14</title>
<polygon fill="#fcf2ea" stroke="black" points="767.5,-53 668.5,-53 668.5,0 767.5,0 767.5,-53"/>
<text text-anchor="middle" x="718" y="-37.8" font-family="Times,serif" font-size="14.00">mse = 4.925</text>
<text text-anchor="middle" x="718" y="-22.8" font-family="Times,serif" font-size="14.00">samples = 21</text>
<text text-anchor="middle" x="718" y="-7.8" font-family="Times,serif" font-size="14.00">value = 15.362</text>
</g>
<!-- 13&#45;&gt;14 -->
<g id="edge14" class="edge">
<title>13&#45;&gt;14</title>
<path fill="none" stroke="black" d="M718,-88.95C718,-80.72 718,-71.85 718,-63.48"/>
<polygon fill="black" stroke="black" points="721.5,-63.24 718,-53.24 714.5,-63.24 721.5,-63.24"/>
</g>
<!-- 15 -->
<g id="node16" class="node">
<title>15</title>
<polygon fill="#fae6d8" stroke="black" points="884.5,-53 785.5,-53 785.5,0 884.5,0 884.5,-53"/>
<text text-anchor="middle" x="835" y="-37.8" font-family="Times,serif" font-size="14.00">mse = 7.821</text>
<text text-anchor="middle" x="835" y="-22.8" font-family="Times,serif" font-size="14.00">samples = 35</text>
<text text-anchor="middle" x="835" y="-7.8" font-family="Times,serif" font-size="14.00">value = 18.943</text>
</g>
<!-- 13&#45;&gt;15 -->
<g id="edge15" class="edge">
<title>13&#45;&gt;15</title>
<path fill="none" stroke="black" d="M758.92,-88.95C770.7,-79.43 783.53,-69.07 795.24,-59.62"/>
<polygon fill="black" stroke="black" points="797.56,-62.24 803.14,-53.24 793.16,-56.8 797.56,-62.24"/>
</g>
<!-- 17 -->
<g id="node18" class="node">
<title>17</title>
<polygon fill="#f1bd97" stroke="black" points="1172.5,-261 1065.5,-261 1065.5,-193 1172.5,-193 1172.5,-261"/>
<text text-anchor="middle" x="1119" y="-245.8" font-family="Times,serif" font-size="14.00">CRIM &lt;= 7.393</text>
<text text-anchor="middle" x="1119" y="-230.8" font-family="Times,serif" font-size="14.00">mse = 37.653</text>
<text text-anchor="middle" x="1119" y="-215.8" font-family="Times,serif" font-size="14.00">samples = 50</text>
<text text-anchor="middle" x="1119" y="-200.8" font-family="Times,serif" font-size="14.00">value = 31.588</text>
</g>
<!-- 16&#45;&gt;17 -->
<g id="edge17" class="edge">
<title>16&#45;&gt;17</title>
<path fill="none" stroke="black" d="M1119,-296.88C1119,-288.78 1119,-279.98 1119,-271.47"/>
<polygon fill="black" stroke="black" points="1122.5,-271.3 1119,-261.3 1115.5,-271.3 1122.5,-271.3"/>
</g>
<!-- 24 -->
<g id="node25" class="node">
<title>24</title>
<polygon fill="#e99356" stroke="black" points="1503,-261 1383,-261 1383,-193 1503,-193 1503,-261"/>
<text text-anchor="middle" x="1443" y="-245.8" font-family="Times,serif" font-size="14.00">PTRATIO &lt;= 18.3</text>
<text text-anchor="middle" x="1443" y="-230.8" font-family="Times,serif" font-size="14.00">mse = 43.692</text>
<text text-anchor="middle" x="1443" y="-215.8" font-family="Times,serif" font-size="14.00">samples = 22</text>
<text text-anchor="middle" x="1443" y="-200.8" font-family="Times,serif" font-size="14.00">value = 44.409</text>
</g>
<!-- 16&#45;&gt;24 -->
<g id="edge24" class="edge">
<title>16&#45;&gt;24</title>
<path fill="none" stroke="black" d="M1168.56,-314.4C1223.25,-297.18 1311.67,-269.35 1373.32,-249.94"/>
<polygon fill="black" stroke="black" points="1374.48,-253.24 1382.97,-246.9 1372.38,-246.56 1374.48,-253.24"/>
</g>
<!-- 18 -->
<g id="node19" class="node">
<title>18</title>
<polygon fill="#f1ba92" stroke="black" points="1110.5,-157 1011.5,-157 1011.5,-89 1110.5,-89 1110.5,-157"/>
<text text-anchor="middle" x="1061" y="-141.8" font-family="Times,serif" font-size="14.00">DIS &lt;= 1.886</text>
<text text-anchor="middle" x="1061" y="-126.8" font-family="Times,serif" font-size="14.00">mse = 22.613</text>
<text text-anchor="middle" x="1061" y="-111.8" font-family="Times,serif" font-size="14.00">samples = 47</text>
<text text-anchor="middle" x="1061" y="-96.8" font-family="Times,serif" font-size="14.00">value = 32.606</text>
</g>
<!-- 17&#45;&gt;18 -->
<g id="edge18" class="edge">
<title>17&#45;&gt;18</title>
<path fill="none" stroke="black" d="M1100.17,-192.88C1095.31,-184.33 1090.01,-175.01 1084.92,-166.07"/>
<polygon fill="black" stroke="black" points="1087.92,-164.26 1079.93,-157.3 1081.84,-167.72 1087.92,-164.26"/>
</g>
<!-- 21 -->
<g id="node22" class="node">
<title>21</title>
<polygon fill="#fcf1e8" stroke="black" points="1227.5,-157 1128.5,-157 1128.5,-89 1227.5,-89 1227.5,-157"/>
<text text-anchor="middle" x="1178" y="-141.8" font-family="Times,serif" font-size="14.00">AGE &lt;= 98.6</text>
<text text-anchor="middle" x="1178" y="-126.8" font-family="Times,serif" font-size="14.00">mse = 2.482</text>
<text text-anchor="middle" x="1178" y="-111.8" font-family="Times,serif" font-size="14.00">samples = 3</text>
<text text-anchor="middle" x="1178" y="-96.8" font-family="Times,serif" font-size="14.00">value = 15.633</text>
</g>
<!-- 17&#45;&gt;21 -->
<g id="edge21" class="edge">
<title>17&#45;&gt;21</title>
<path fill="none" stroke="black" d="M1138.16,-192.88C1143.1,-184.33 1148.49,-175.01 1153.66,-166.07"/>
<polygon fill="black" stroke="black" points="1156.76,-167.71 1158.74,-157.3 1150.7,-164.2 1156.76,-167.71"/>
</g>
<!-- 19 -->
<g id="node20" class="node">
<title>19</title>
<polygon fill="#e88f4f" stroke="black" points="995,-53 903,-53 903,0 995,0 995,-53"/>
<text text-anchor="middle" x="949" y="-37.8" font-family="Times,serif" font-size="14.00">mse = 18.923</text>
<text text-anchor="middle" x="949" y="-22.8" font-family="Times,serif" font-size="14.00">samples = 2</text>
<text text-anchor="middle" x="949" y="-7.8" font-family="Times,serif" font-size="14.00">value = 45.65</text>
</g>
<!-- 18&#45;&gt;19 -->
<g id="edge19" class="edge">
<title>18&#45;&gt;19</title>
<path fill="none" stroke="black" d="M1021.83,-88.95C1010.66,-79.53 998.51,-69.27 987.39,-59.89"/>
<polygon fill="black" stroke="black" points="989.4,-57.01 979.5,-53.24 984.89,-62.36 989.4,-57.01"/>
</g>
<!-- 20 -->
<g id="node21" class="node">
<title>20</title>
<polygon fill="#f1bb95" stroke="black" points="1112.5,-53 1013.5,-53 1013.5,0 1112.5,0 1112.5,-53"/>
<text text-anchor="middle" x="1063" y="-37.8" font-family="Times,serif" font-size="14.00">mse = 14.88</text>
<text text-anchor="middle" x="1063" y="-22.8" font-family="Times,serif" font-size="14.00">samples = 45</text>
<text text-anchor="middle" x="1063" y="-7.8" font-family="Times,serif" font-size="14.00">value = 32.027</text>
</g>
<!-- 18&#45;&gt;20 -->
<g id="edge20" class="edge">
<title>18&#45;&gt;20</title>
<path fill="none" stroke="black" d="M1061.7,-88.95C1061.87,-80.72 1062.06,-71.85 1062.24,-63.48"/>
<polygon fill="black" stroke="black" points="1065.74,-63.31 1062.46,-53.24 1058.74,-63.16 1065.74,-63.31"/>
</g>
<!-- 22 -->
<g id="node23" class="node">
<title>22</title>
<polygon fill="#fdf4ee" stroke="black" points="1223,-53 1131,-53 1131,0 1223,0 1223,-53"/>
<text text-anchor="middle" x="1177" y="-37.8" font-family="Times,serif" font-size="14.00">mse = 0.202</text>
<text text-anchor="middle" x="1177" y="-22.8" font-family="Times,serif" font-size="14.00">samples = 2</text>
<text text-anchor="middle" x="1177" y="-7.8" font-family="Times,serif" font-size="14.00">value = 14.55</text>
</g>
<!-- 21&#45;&gt;22 -->
<g id="edge22" class="edge">
<title>21&#45;&gt;22</title>
<path fill="none" stroke="black" d="M1177.65,-88.95C1177.56,-80.72 1177.47,-71.85 1177.38,-63.48"/>
<polygon fill="black" stroke="black" points="1180.88,-63.2 1177.27,-53.24 1173.88,-63.27 1180.88,-63.2"/>
</g>
<!-- 23 -->
<g id="node24" class="node">
<title>23</title>
<polygon fill="#fbeadd" stroke="black" points="1327,-53 1241,-53 1241,0 1327,0 1327,-53"/>
<text text-anchor="middle" x="1284" y="-37.8" font-family="Times,serif" font-size="14.00">mse = 0.0</text>
<text text-anchor="middle" x="1284" y="-22.8" font-family="Times,serif" font-size="14.00">samples = 1</text>
<text text-anchor="middle" x="1284" y="-7.8" font-family="Times,serif" font-size="14.00">value = 17.8</text>
</g>
<!-- 21&#45;&gt;23 -->
<g id="edge23" class="edge">
<title>21&#45;&gt;23</title>
<path fill="none" stroke="black" d="M1215.07,-88.95C1225.54,-79.62 1236.92,-69.47 1247.36,-60.16"/>
<polygon fill="black" stroke="black" points="1250,-62.5 1255.13,-53.24 1245.34,-57.28 1250,-62.5"/>
</g>
<!-- 25 -->
<g id="node26" class="node">
<title>25</title>
<polygon fill="#e88e4d" stroke="black" points="1492.5,-157 1393.5,-157 1393.5,-89 1492.5,-89 1492.5,-157"/>
<text text-anchor="middle" x="1443" y="-141.8" font-family="Times,serif" font-size="14.00">B &lt;= 395.54</text>
<text text-anchor="middle" x="1443" y="-126.8" font-family="Times,serif" font-size="14.00">mse = 15.972</text>
<text text-anchor="middle" x="1443" y="-111.8" font-family="Times,serif" font-size="14.00">samples = 20</text>
<text text-anchor="middle" x="1443" y="-96.8" font-family="Times,serif" font-size="14.00">value = 45.995</text>
</g>
<!-- 24&#45;&gt;25 -->
<g id="edge25" class="edge">
<title>24&#45;&gt;25</title>
<path fill="none" stroke="black" d="M1443,-192.88C1443,-184.78 1443,-175.98 1443,-167.47"/>
<polygon fill="black" stroke="black" points="1446.5,-167.3 1443,-157.3 1439.5,-167.3 1446.5,-167.3"/>
</g>
<!-- 28 -->
<g id="node29" class="node">
<title>28</title>
<polygon fill="#f3c7a7" stroke="black" points="1672,-157 1560,-157 1560,-89 1672,-89 1672,-157"/>
<text text-anchor="middle" x="1616" y="-141.8" font-family="Times,serif" font-size="14.00">LSTAT &lt;= 5.935</text>
<text text-anchor="middle" x="1616" y="-126.8" font-family="Times,serif" font-size="14.00">mse = 44.223</text>
<text text-anchor="middle" x="1616" y="-111.8" font-family="Times,serif" font-size="14.00">samples = 2</text>
<text text-anchor="middle" x="1616" y="-96.8" font-family="Times,serif" font-size="14.00">value = 28.55</text>
</g>
<!-- 24&#45;&gt;28 -->
<g id="edge28" class="edge">
<title>24&#45;&gt;28</title>
<path fill="none" stroke="black" d="M1499.17,-192.88C1515.72,-183.12 1533.97,-172.37 1551.02,-162.31"/>
<polygon fill="black" stroke="black" points="1552.98,-165.22 1559.82,-157.12 1549.43,-159.19 1552.98,-165.22"/>
</g>
<!-- 26 -->
<g id="node27" class="node">
<title>26</title>
<polygon fill="#e78c4a" stroke="black" points="1444.5,-53 1345.5,-53 1345.5,0 1444.5,0 1444.5,-53"/>
<text text-anchor="middle" x="1395" y="-37.8" font-family="Times,serif" font-size="14.00">mse = 12.097</text>
<text text-anchor="middle" x="1395" y="-22.8" font-family="Times,serif" font-size="14.00">samples = 18</text>
<text text-anchor="middle" x="1395" y="-7.8" font-family="Times,serif" font-size="14.00">value = 46.744</text>
</g>
<!-- 25&#45;&gt;26 -->
<g id="edge26" class="edge">
<title>25&#45;&gt;26</title>
<path fill="none" stroke="black" d="M1426.21,-88.95C1421.84,-80.35 1417.12,-71.06 1412.71,-62.37"/>
<polygon fill="black" stroke="black" points="1415.72,-60.57 1408.07,-53.24 1409.48,-63.74 1415.72,-60.57"/>
</g>
<!-- 27 -->
<g id="node28" class="node">
<title>27</title>
<polygon fill="#eca470" stroke="black" points="1555,-53 1463,-53 1463,0 1555,0 1555,-53"/>
<text text-anchor="middle" x="1509" y="-37.8" font-family="Times,serif" font-size="14.00">mse = 0.302</text>
<text text-anchor="middle" x="1509" y="-22.8" font-family="Times,serif" font-size="14.00">samples = 2</text>
<text text-anchor="middle" x="1509" y="-7.8" font-family="Times,serif" font-size="14.00">value = 39.25</text>
</g>
<!-- 25&#45;&gt;27 -->
<g id="edge27" class="edge">
<title>25&#45;&gt;27</title>
<path fill="none" stroke="black" d="M1466.08,-88.95C1472.28,-80.07 1478.99,-70.46 1485.23,-61.54"/>
<polygon fill="black" stroke="black" points="1488.17,-63.44 1491.03,-53.24 1482.43,-59.43 1488.17,-63.44"/>
</g>
<!-- 29 -->
<g id="node30" class="node">
<title>29</title>
<polygon fill="#f8dcc8" stroke="black" points="1659,-53 1573,-53 1573,0 1659,0 1659,-53"/>
<text text-anchor="middle" x="1616" y="-37.8" font-family="Times,serif" font-size="14.00">mse = 0.0</text>
<text text-anchor="middle" x="1616" y="-22.8" font-family="Times,serif" font-size="14.00">samples = 1</text>
<text text-anchor="middle" x="1616" y="-7.8" font-family="Times,serif" font-size="14.00">value = 21.9</text>
</g>
<!-- 28&#45;&gt;29 -->
<g id="edge29" class="edge">
<title>28&#45;&gt;29</title>
<path fill="none" stroke="black" d="M1616,-88.95C1616,-80.72 1616,-71.85 1616,-63.48"/>
<polygon fill="black" stroke="black" points="1619.5,-63.24 1616,-53.24 1612.5,-63.24 1619.5,-63.24"/>
</g>
<!-- 30 -->
<g id="node31" class="node">
<title>30</title>
<polygon fill="#efb185" stroke="black" points="1763,-53 1677,-53 1677,0 1763,0 1763,-53"/>
<text text-anchor="middle" x="1720" y="-37.8" font-family="Times,serif" font-size="14.00">mse = 0.0</text>
<text text-anchor="middle" x="1720" y="-22.8" font-family="Times,serif" font-size="14.00">samples = 1</text>
<text text-anchor="middle" x="1720" y="-7.8" font-family="Times,serif" font-size="14.00">value = 35.2</text>
</g>
<!-- 28&#45;&gt;30 -->
<g id="edge30" class="edge">
<title>28&#45;&gt;30</title>
<path fill="none" stroke="black" d="M1652.37,-88.95C1662.64,-79.62 1673.81,-69.47 1684.05,-60.16"/>
<polygon fill="black" stroke="black" points="1686.63,-62.55 1691.68,-53.24 1681.92,-57.37 1686.63,-62.55"/>
</g>
</g>
</svg>
