<?xml version="1.0" encoding="UTF-8" standalone="no"?>
<!DOCTYPE svg PUBLIC "-//W3C//DTD SVG 1.1//EN"
 "http://www.w3.org/Graphics/SVG/1.1/DTD/svg11.dtd">
<!-- Generated by graphviz version 2.46.1 (20210213.1702)
 -->
<!-- Title: Tree Pages: 1 -->
<svg width="1551pt" height="477pt"
 viewBox="0.00 0.00 1551.00 477.00" xmlns="http://www.w3.org/2000/svg" xmlns:xlink="http://www.w3.org/1999/xlink">
<g id="graph0" class="graph" transform="scale(1 1) rotate(0) translate(4 473)">
<title>Tree</title>
<polygon fill="white" stroke="transparent" points="-4,4 -4,-473 1547,-473 1547,4 -4,4"/>
<!-- 0 -->
<g id="node1" class="node">
<title>0</title>
<polygon fill="#f6d2b8" stroke="black" points="720.5,-469 621.5,-469 621.5,-401 720.5,-401 720.5,-469"/>
<text text-anchor="middle" x="671" y="-453.8" font-family="Times,serif" font-size="14.00">RM &lt;= 6.754</text>
<text text-anchor="middle" x="671" y="-438.8" font-family="Times,serif" font-size="14.00">mse = 77.843</text>
<text text-anchor="middle" x="671" y="-423.8" font-family="Times,serif" font-size="14.00">samples = 354</text>
<text text-anchor="middle" x="671" y="-408.8" font-family="Times,serif" font-size="14.00">value = 22.185</text>
</g>
<!-- 1 -->
<g id="node2" class="node">
<title>1</title>
<polygon fill="#f7dac5" stroke="black" points="500.5,-365 395.5,-365 395.5,-297 500.5,-297 500.5,-365"/>
<text text-anchor="middle" x="448" y="-349.8" font-family="Times,serif" font-size="14.00">LSTAT &lt;= 15.0</text>
<text text-anchor="middle" x="448" y="-334.8" font-family="Times,serif" font-size="14.00">mse = 35.409</text>
<text text-anchor="middle" x="448" y="-319.8" font-family="Times,serif" font-size="14.00">samples = 289</text>
<text text-anchor="middle" x="448" y="-304.8" font-family="Times,serif" font-size="14.00">value = 19.331</text>
</g>
<!-- 0&#45;&gt;1 -->
<g id="edge1" class="edge">
<title>0&#45;&gt;1</title>
<path fill="none" stroke="black" d="M621.23,-411.24C588.36,-396.2 545.02,-376.38 509.92,-360.32"/>
<polygon fill="black" stroke="black" points="511.27,-357.09 500.72,-356.12 508.36,-363.46 511.27,-357.09"/>
<text text-anchor="middle" x="509.45" y="-375.84" font-family="Times,serif" font-size="14.00">True</text>
</g>
<!-- 14 -->
<g id="node15" class="node">
<title>14</title>
<polygon fill="#eead7e" stroke="black" points="948.5,-365 849.5,-365 849.5,-297 948.5,-297 948.5,-365"/>
<text text-anchor="middle" x="899" y="-349.8" font-family="Times,serif" font-size="14.00">RM &lt;= 7.437</text>
<text text-anchor="middle" x="899" y="-334.8" font-family="Times,serif" font-size="14.00">mse = 69.383</text>
<text text-anchor="middle" x="899" y="-319.8" font-family="Times,serif" font-size="14.00">samples = 65</text>
<text text-anchor="middle" x="899" y="-304.8" font-family="Times,serif" font-size="14.00">value = 34.871</text>
</g>
<!-- 0&#45;&gt;14 -->
<g id="edge14" class="edge">
<title>0&#45;&gt;14</title>
<path fill="none" stroke="black" d="M720.75,-411.74C755.9,-396.02 803.15,-374.88 840.17,-358.32"/>
<polygon fill="black" stroke="black" points="841.65,-361.49 849.35,-354.21 838.79,-355.1 841.65,-361.49"/>
<text text-anchor="middle" x="840.43" y="-373.87" font-family="Times,serif" font-size="14.00">False</text>
</g>
<!-- 2 -->
<g id="node3" class="node">
<title>2</title>
<polygon fill="#f6d1b7" stroke="black" points="208.5,-261 111.5,-261 111.5,-193 208.5,-193 208.5,-261"/>
<text text-anchor="middle" x="160" y="-245.8" font-family="Times,serif" font-size="14.00">DIS &lt;= 1.227</text>
<text text-anchor="middle" x="160" y="-230.8" font-family="Times,serif" font-size="14.00">mse = 21.474</text>
<text text-anchor="middle" x="160" y="-215.8" font-family="Times,serif" font-size="14.00">samples = 181</text>
<text text-anchor="middle" x="160" y="-200.8" font-family="Times,serif" font-size="14.00">value = 22.35</text>
</g>
<!-- 1&#45;&gt;2 -->
<g id="edge2" class="edge">
<title>1&#45;&gt;2</title>
<path fill="none" stroke="black" d="M395.18,-311.29C345.14,-293.57 270.15,-267.01 218.36,-248.67"/>
<polygon fill="black" stroke="black" points="219.25,-245.27 208.65,-245.23 216.91,-251.87 219.25,-245.27"/>
</g>
<!-- 7 -->
<g id="node8" class="node">
<title>7</title>
<polygon fill="#fae9dc" stroke="black" points="497.5,-261 398.5,-261 398.5,-193 497.5,-193 497.5,-261"/>
<text text-anchor="middle" x="448" y="-245.8" font-family="Times,serif" font-size="14.00">DIS &lt;= 2.004</text>
<text text-anchor="middle" x="448" y="-230.8" font-family="Times,serif" font-size="14.00">mse = 17.893</text>
<text text-anchor="middle" x="448" y="-215.8" font-family="Times,serif" font-size="14.00">samples = 108</text>
<text text-anchor="middle" x="448" y="-200.8" font-family="Times,serif" font-size="14.00">value = 14.272</text>
</g>
<!-- 1&#45;&gt;7 -->
<g id="edge7" class="edge">
<title>1&#45;&gt;7</title>
<path fill="none" stroke="black" d="M448,-296.88C448,-288.78 448,-279.98 448,-271.47"/>
<polygon fill="black" stroke="black" points="451.5,-271.3 448,-261.3 444.5,-271.3 451.5,-271.3"/>
</g>
<!-- 3 -->
<g id="node4" class="node">
<title>3</title>
<polygon fill="#e58139" stroke="black" points="89,-149.5 3,-149.5 3,-96.5 89,-96.5 89,-149.5"/>
<text text-anchor="middle" x="46" y="-134.3" font-family="Times,serif" font-size="14.00">mse = 0.0</text>
<text text-anchor="middle" x="46" y="-119.3" font-family="Times,serif" font-size="14.00">samples = 2</text>
<text text-anchor="middle" x="46" y="-104.3" font-family="Times,serif" font-size="14.00">value = 50.0</text>
</g>
<!-- 2&#45;&gt;3 -->
<g id="edge3" class="edge">
<title>2&#45;&gt;3</title>
<path fill="none" stroke="black" d="M122.99,-192.88C109.84,-181.12 95.06,-167.89 81.99,-156.2"/>
<polygon fill="black" stroke="black" points="84.31,-153.58 74.52,-149.52 79.64,-158.8 84.31,-153.58"/>
</g>
<!-- 4 -->
<g id="node5" class="node">
<title>4</title>
<polygon fill="#f6d2b8" stroke="black" points="212.5,-157 107.5,-157 107.5,-89 212.5,-89 212.5,-157"/>
<text text-anchor="middle" x="160" y="-141.8" font-family="Times,serif" font-size="14.00">LSTAT &lt;= 7.65</text>
<text text-anchor="middle" x="160" y="-126.8" font-family="Times,serif" font-size="14.00">mse = 13.077</text>
<text text-anchor="middle" x="160" y="-111.8" font-family="Times,serif" font-size="14.00">samples = 179</text>
<text text-anchor="middle" x="160" y="-96.8" font-family="Times,serif" font-size="14.00">value = 22.041</text>
</g>
<!-- 2&#45;&gt;4 -->
<g id="edge4" class="edge">
<title>2&#45;&gt;4</title>
<path fill="none" stroke="black" d="M160,-192.88C160,-184.78 160,-175.98 160,-167.47"/>
<polygon fill="black" stroke="black" points="163.5,-167.3 160,-157.3 156.5,-167.3 163.5,-167.3"/>
</g>
<!-- 5 -->
<g id="node6" class="node">
<title>5</title>
<polygon fill="#f4c9aa" stroke="black" points="92,-53 0,-53 0,0 92,0 92,-53"/>
<text text-anchor="middle" x="46" y="-37.8" font-family="Times,serif" font-size="14.00">mse = 7.484</text>
<text text-anchor="middle" x="46" y="-22.8" font-family="Times,serif" font-size="14.00">samples = 49</text>
<text text-anchor="middle" x="46" y="-7.8" font-family="Times,serif" font-size="14.00">value = 25.29</text>
</g>
<!-- 4&#45;&gt;5 -->
<g id="edge5" class="edge">
<title>4&#45;&gt;5</title>
<path fill="none" stroke="black" d="M120.13,-88.95C108.76,-79.53 96.39,-69.27 85.07,-59.89"/>
<polygon fill="black" stroke="black" points="86.98,-56.92 77.05,-53.24 82.51,-62.31 86.98,-56.92"/>
</g>
<!-- 6 -->
<g id="node7" class="node">
<title>6</title>
<polygon fill="#f6d6be" stroke="black" points="209.5,-53 110.5,-53 110.5,0 209.5,0 209.5,-53"/>
<text text-anchor="middle" x="160" y="-37.8" font-family="Times,serif" font-size="14.00">mse = 9.708</text>
<text text-anchor="middle" x="160" y="-22.8" font-family="Times,serif" font-size="14.00">samples = 130</text>
<text text-anchor="middle" x="160" y="-7.8" font-family="Times,serif" font-size="14.00">value = 20.817</text>
</g>
<!-- 4&#45;&gt;6 -->
<g id="edge6" class="edge">
<title>4&#45;&gt;6</title>
<path fill="none" stroke="black" d="M160,-88.95C160,-80.72 160,-71.85 160,-63.48"/>
<polygon fill="black" stroke="black" points="163.5,-63.24 160,-53.24 156.5,-63.24 163.5,-63.24"/>
</g>
<!-- 8 -->
<g id="node9" class="node">
<title>8</title>
<polygon fill="#fcf0e7" stroke="black" points="440.5,-157 327.5,-157 327.5,-89 440.5,-89 440.5,-157"/>
<text text-anchor="middle" x="384" y="-141.8" font-family="Times,serif" font-size="14.00">CRIM &lt;= 22.759</text>
<text text-anchor="middle" x="384" y="-126.8" font-family="Times,serif" font-size="14.00">mse = 11.679</text>
<text text-anchor="middle" x="384" y="-111.8" font-family="Times,serif" font-size="14.00">samples = 56</text>
<text text-anchor="middle" x="384" y="-96.8" font-family="Times,serif" font-size="14.00">value = 11.841</text>
</g>
<!-- 7&#45;&gt;8 -->
<g id="edge8" class="edge">
<title>7&#45;&gt;8</title>
<path fill="none" stroke="black" d="M427.22,-192.88C421.8,-184.24 415.89,-174.82 410.22,-165.79"/>
<polygon fill="black" stroke="black" points="413.17,-163.91 404.89,-157.3 407.24,-167.63 413.17,-163.91"/>
</g>
<!-- 11 -->
<g id="node12" class="node">
<title>11</title>
<polygon fill="#f9e1d0" stroke="black" points="565.5,-157 458.5,-157 458.5,-89 565.5,-89 565.5,-157"/>
<text text-anchor="middle" x="512" y="-141.8" font-family="Times,serif" font-size="14.00">CRIM &lt;= 0.699</text>
<text text-anchor="middle" x="512" y="-126.8" font-family="Times,serif" font-size="14.00">mse = 11.365</text>
<text text-anchor="middle" x="512" y="-111.8" font-family="Times,serif" font-size="14.00">samples = 52</text>
<text text-anchor="middle" x="512" y="-96.8" font-family="Times,serif" font-size="14.00">value = 16.89</text>
</g>
<!-- 7&#45;&gt;11 -->
<g id="edge11" class="edge">
<title>7&#45;&gt;11</title>
<path fill="none" stroke="black" d="M468.78,-192.88C474.2,-184.24 480.11,-174.82 485.78,-165.79"/>
<polygon fill="black" stroke="black" points="488.76,-167.63 491.11,-157.3 482.83,-163.91 488.76,-167.63"/>
</g>
<!-- 9 -->
<g id="node10" class="node">
<title>9</title>
<polygon fill="#fbeee4" stroke="black" points="326.5,-53 227.5,-53 227.5,0 326.5,0 326.5,-53"/>
<text text-anchor="middle" x="277" y="-37.8" font-family="Times,serif" font-size="14.00">mse = 9.086</text>
<text text-anchor="middle" x="277" y="-22.8" font-family="Times,serif" font-size="14.00">samples = 50</text>
<text text-anchor="middle" x="277" y="-7.8" font-family="Times,serif" font-size="14.00">value = 12.474</text>
</g>
<!-- 8&#45;&gt;9 -->
<g id="edge9" class="edge">
<title>8&#45;&gt;9</title>
<path fill="none" stroke="black" d="M346.58,-88.95C335.91,-79.53 324.3,-69.27 313.68,-59.89"/>
<polygon fill="black" stroke="black" points="315.95,-57.23 306.14,-53.24 311.32,-62.48 315.95,-57.23"/>
</g>
<!-- 10 -->
<g id="node11" class="node">
<title>10</title>
<polygon fill="#ffffff" stroke="black" points="437,-53 345,-53 345,0 437,0 437,-53"/>
<text text-anchor="middle" x="391" y="-37.8" font-family="Times,serif" font-size="14.00">mse = 2.129</text>
<text text-anchor="middle" x="391" y="-22.8" font-family="Times,serif" font-size="14.00">samples = 6</text>
<text text-anchor="middle" x="391" y="-7.8" font-family="Times,serif" font-size="14.00">value = 6.567</text>
</g>
<!-- 8&#45;&gt;10 -->
<g id="edge10" class="edge">
<title>8&#45;&gt;10</title>
<path fill="none" stroke="black" d="M386.45,-88.95C387.06,-80.72 387.71,-71.85 388.33,-63.48"/>
<polygon fill="black" stroke="black" points="391.85,-63.47 389.09,-53.24 384.86,-62.95 391.85,-63.47"/>
</g>
<!-- 12 -->
<g id="node13" class="node">
<title>12</title>
<polygon fill="#f7d9c3" stroke="black" points="554.5,-53 455.5,-53 455.5,0 554.5,0 554.5,-53"/>
<text text-anchor="middle" x="505" y="-37.8" font-family="Times,serif" font-size="14.00">mse = 5.671</text>
<text text-anchor="middle" x="505" y="-22.8" font-family="Times,serif" font-size="14.00">samples = 21</text>
<text text-anchor="middle" x="505" y="-7.8" font-family="Times,serif" font-size="14.00">value = 19.652</text>
</g>
<!-- 11&#45;&gt;12 -->
<g id="edge12" class="edge">
<title>11&#45;&gt;12</title>
<path fill="none" stroke="black" d="M509.55,-88.95C508.94,-80.72 508.29,-71.85 507.67,-63.48"/>
<polygon fill="black" stroke="black" points="511.14,-62.95 506.91,-53.24 504.15,-63.47 511.14,-62.95"/>
</g>
<!-- 13 -->
<g id="node14" class="node">
<title>13</title>
<polygon fill="#fae6d8" stroke="black" points="671.5,-53 572.5,-53 572.5,0 671.5,0 671.5,-53"/>
<text text-anchor="middle" x="622" y="-37.8" font-family="Times,serif" font-size="14.00">mse = 6.554</text>
<text text-anchor="middle" x="622" y="-22.8" font-family="Times,serif" font-size="14.00">samples = 31</text>
<text text-anchor="middle" x="622" y="-7.8" font-family="Times,serif" font-size="14.00">value = 15.019</text>
</g>
<!-- 11&#45;&gt;13 -->
<g id="edge13" class="edge">
<title>11&#45;&gt;13</title>
<path fill="none" stroke="black" d="M550.47,-88.95C561.44,-79.53 573.38,-69.27 584.3,-59.89"/>
<polygon fill="black" stroke="black" points="586.74,-62.41 592.04,-53.24 582.18,-57.1 586.74,-62.41"/>
</g>
<!-- 15 -->
<g id="node16" class="node">
<title>15</title>
<polygon fill="#f0b78e" stroke="black" points="955,-261 843,-261 843,-193 955,-193 955,-261"/>
<text text-anchor="middle" x="899" y="-245.8" font-family="Times,serif" font-size="14.00">LSTAT &lt;= 12.55</text>
<text text-anchor="middle" x="899" y="-230.8" font-family="Times,serif" font-size="14.00">mse = 34.276</text>
<text text-anchor="middle" x="899" y="-215.8" font-family="Times,serif" font-size="14.00">samples = 47</text>
<text text-anchor="middle" x="899" y="-200.8" font-family="Times,serif" font-size="14.00">value = 31.417</text>
</g>
<!-- 14&#45;&gt;15 -->
<g id="edge15" class="edge">
<title>14&#45;&gt;15</title>
<path fill="none" stroke="black" d="M899,-296.88C899,-288.78 899,-279.98 899,-271.47"/>
<polygon fill="black" stroke="black" points="902.5,-271.3 899,-261.3 895.5,-271.3 902.5,-271.3"/>
</g>
<!-- 22 -->
<g id="node23" class="node">
<title>22</title>
<polygon fill="#e99355" stroke="black" points="1267,-261 1161,-261 1161,-193 1267,-193 1267,-261"/>
<text text-anchor="middle" x="1214" y="-245.8" font-family="Times,serif" font-size="14.00">INDUS &lt;= 6.58</text>
<text text-anchor="middle" x="1214" y="-230.8" font-family="Times,serif" font-size="14.00">mse = 48.58</text>
<text text-anchor="middle" x="1214" y="-215.8" font-family="Times,serif" font-size="14.00">samples = 18</text>
<text text-anchor="middle" x="1214" y="-200.8" font-family="Times,serif" font-size="14.00">value = 43.889</text>
</g>
<!-- 14&#45;&gt;22 -->
<g id="edge22" class="edge">
<title>14&#45;&gt;22</title>
<path fill="none" stroke="black" d="M948.57,-313.95C1003.3,-296.23 1091.54,-267.65 1151.11,-248.37"/>
<polygon fill="black" stroke="black" points="1152.34,-251.64 1160.78,-245.23 1150.19,-244.98 1152.34,-251.64"/>
</g>
<!-- 16 -->
<g id="node17" class="node">
<title>16</title>
<polygon fill="#f0b58a" stroke="black" points="891.5,-157 792.5,-157 792.5,-89 891.5,-89 891.5,-157"/>
<text text-anchor="middle" x="842" y="-141.8" font-family="Times,serif" font-size="14.00">DIS &lt;= 1.978</text>
<text text-anchor="middle" x="842" y="-126.8" font-family="Times,serif" font-size="14.00">mse = 22.584</text>
<text text-anchor="middle" x="842" y="-111.8" font-family="Times,serif" font-size="14.00">samples = 45</text>
<text text-anchor="middle" x="842" y="-96.8" font-family="Times,serif" font-size="14.00">value = 32.167</text>
</g>
<!-- 15&#45;&gt;16 -->
<g id="edge16" class="edge">
<title>15&#45;&gt;16</title>
<path fill="none" stroke="black" d="M880.49,-192.88C875.72,-184.33 870.51,-175.01 865.51,-166.07"/>
<polygon fill="black" stroke="black" points="868.54,-164.32 860.61,-157.3 862.43,-167.74 868.54,-164.32"/>
</g>
<!-- 19 -->
<g id="node20" class="node">
<title>19</title>
<polygon fill="#fae8db" stroke="black" points="1004,-157 910,-157 910,-89 1004,-89 1004,-157"/>
<text text-anchor="middle" x="957" y="-141.8" font-family="Times,serif" font-size="14.00">B &lt;= 239.115</text>
<text text-anchor="middle" x="957" y="-126.8" font-family="Times,serif" font-size="14.00">mse = 0.203</text>
<text text-anchor="middle" x="957" y="-111.8" font-family="Times,serif" font-size="14.00">samples = 2</text>
<text text-anchor="middle" x="957" y="-96.8" font-family="Times,serif" font-size="14.00">value = 14.55</text>
</g>
<!-- 15&#45;&gt;19 -->
<g id="edge19" class="edge">
<title>15&#45;&gt;19</title>
<path fill="none" stroke="black" d="M917.83,-192.88C922.69,-184.33 927.99,-175.01 933.08,-166.07"/>
<polygon fill="black" stroke="black" points="936.16,-167.72 938.07,-157.3 930.08,-164.26 936.16,-167.72"/>
</g>
<!-- 17 -->
<g id="node18" class="node">
<title>17</title>
<polygon fill="#e88e4d" stroke="black" points="782,-53 690,-53 690,0 782,0 782,-53"/>
<text text-anchor="middle" x="736" y="-37.8" font-family="Times,serif" font-size="14.00">mse = 18.923</text>
<text text-anchor="middle" x="736" y="-22.8" font-family="Times,serif" font-size="14.00">samples = 2</text>
<text text-anchor="middle" x="736" y="-7.8" font-family="Times,serif" font-size="14.00">value = 45.65</text>
</g>
<!-- 16&#45;&gt;17 -->
<g id="edge17" class="edge">
<title>16&#45;&gt;17</title>
<path fill="none" stroke="black" d="M804.93,-88.95C794.46,-79.62 783.08,-69.47 772.64,-60.16"/>
<polygon fill="black" stroke="black" points="774.66,-57.28 764.87,-53.24 770,-62.5 774.66,-57.28"/>
</g>
<!-- 18 -->
<g id="node19" class="node">
<title>18</title>
<polygon fill="#f0b78d" stroke="black" points="892,-53 800,-53 800,0 892,0 892,-53"/>
<text text-anchor="middle" x="846" y="-37.8" font-family="Times,serif" font-size="14.00">mse = 13.905</text>
<text text-anchor="middle" x="846" y="-22.8" font-family="Times,serif" font-size="14.00">samples = 43</text>
<text text-anchor="middle" x="846" y="-7.8" font-family="Times,serif" font-size="14.00">value = 31.54</text>
</g>
<!-- 16&#45;&gt;18 -->
<g id="edge18" class="edge">
<title>16&#45;&gt;18</title>
<path fill="none" stroke="black" d="M843.4,-88.95C843.75,-80.72 844.12,-71.85 844.48,-63.48"/>
<polygon fill="black" stroke="black" points="847.98,-63.38 844.91,-53.24 840.99,-63.08 847.98,-63.38"/>
</g>
<!-- 20 -->
<g id="node21" class="node">
<title>20</title>
<polygon fill="#fae9dd" stroke="black" points="996,-53 910,-53 910,0 996,0 996,-53"/>
<text text-anchor="middle" x="953" y="-37.8" font-family="Times,serif" font-size="14.00">mse = 0.0</text>
<text text-anchor="middle" x="953" y="-22.8" font-family="Times,serif" font-size="14.00">samples = 1</text>
<text text-anchor="middle" x="953" y="-7.8" font-family="Times,serif" font-size="14.00">value = 14.1</text>
</g>
<!-- 19&#45;&gt;20 -->
<g id="edge20" class="edge">
<title>19&#45;&gt;20</title>
<path fill="none" stroke="black" d="M955.6,-88.95C955.25,-80.72 954.88,-71.85 954.52,-63.48"/>
<polygon fill="black" stroke="black" points="958.01,-63.08 954.09,-53.24 951.02,-63.38 958.01,-63.08"/>
</g>
<!-- 21 -->
<g id="node22" class="node">
<title>21</title>
<polygon fill="#fae7d9" stroke="black" points="1100,-53 1014,-53 1014,0 1100,0 1100,-53"/>
<text text-anchor="middle" x="1057" y="-37.8" font-family="Times,serif" font-size="14.00">mse = &#45;0.0</text>
<text text-anchor="middle" x="1057" y="-22.8" font-family="Times,serif" font-size="14.00">samples = 1</text>
<text text-anchor="middle" x="1057" y="-7.8" font-family="Times,serif" font-size="14.00">value = 15.0</text>
</g>
<!-- 19&#45;&gt;21 -->
<g id="edge21" class="edge">
<title>19&#45;&gt;21</title>
<path fill="none" stroke="black" d="M991.98,-88.95C1001.85,-79.62 1012.59,-69.47 1022.43,-60.16"/>
<polygon fill="black" stroke="black" points="1024.9,-62.65 1029.77,-53.24 1020.09,-57.56 1024.9,-62.65"/>
</g>
<!-- 23 -->
<g id="node24" class="node">
<title>23</title>
<polygon fill="#e88d4c" stroke="black" points="1274,-157 1154,-157 1154,-89 1274,-89 1274,-157"/>
<text text-anchor="middle" x="1214" y="-141.8" font-family="Times,serif" font-size="14.00">PTRATIO &lt;= 15.3</text>
<text text-anchor="middle" x="1214" y="-126.8" font-family="Times,serif" font-size="14.00">mse = 16.038</text>
<text text-anchor="middle" x="1214" y="-111.8" font-family="Times,serif" font-size="14.00">samples = 16</text>
<text text-anchor="middle" x="1214" y="-96.8" font-family="Times,serif" font-size="14.00">value = 45.806</text>
</g>
<!-- 22&#45;&gt;23 -->
<g id="edge23" class="edge">
<title>22&#45;&gt;23</title>
<path fill="none" stroke="black" d="M1214,-192.88C1214,-184.78 1214,-175.98 1214,-167.47"/>
<polygon fill="black" stroke="black" points="1217.5,-167.3 1214,-157.3 1210.5,-167.3 1217.5,-167.3"/>
</g>
<!-- 26 -->
<g id="node27" class="node">
<title>26</title>
<polygon fill="#f2bf9b" stroke="black" points="1452.5,-157 1339.5,-157 1339.5,-89 1452.5,-89 1452.5,-157"/>
<text text-anchor="middle" x="1396" y="-141.8" font-family="Times,serif" font-size="14.00">INDUS &lt;= 12.53</text>
<text text-anchor="middle" x="1396" y="-126.8" font-family="Times,serif" font-size="14.00">mse = 44.223</text>
<text text-anchor="middle" x="1396" y="-111.8" font-family="Times,serif" font-size="14.00">samples = 2</text>
<text text-anchor="middle" x="1396" y="-96.8" font-family="Times,serif" font-size="14.00">value = 28.55</text>
</g>
<!-- 22&#45;&gt;26 -->
<g id="edge26" class="edge">
<title>22&#45;&gt;26</title>
<path fill="none" stroke="black" d="M1267.13,-196.22C1286.96,-185.11 1309.71,-172.36 1330.52,-160.7"/>
<polygon fill="black" stroke="black" points="1332.3,-163.71 1339.31,-155.77 1328.88,-157.61 1332.3,-163.71"/>
</g>
<!-- 24 -->
<g id="node25" class="node">
<title>24</title>
<polygon fill="#e68742" stroke="black" points="1217.5,-53 1118.5,-53 1118.5,0 1217.5,0 1217.5,-53"/>
<text text-anchor="middle" x="1168" y="-37.8" font-family="Times,serif" font-size="14.00">mse = 7.644</text>
<text text-anchor="middle" x="1168" y="-22.8" font-family="Times,serif" font-size="14.00">samples = 8</text>
<text text-anchor="middle" x="1168" y="-7.8" font-family="Times,serif" font-size="14.00">value = 47.988</text>
</g>
<!-- 23&#45;&gt;24 -->
<g id="edge24" class="edge">
<title>23&#45;&gt;24</title>
<path fill="none" stroke="black" d="M1197.91,-88.95C1193.73,-80.35 1189.2,-71.06 1184.97,-62.37"/>
<polygon fill="black" stroke="black" points="1188.05,-60.7 1180.53,-53.24 1181.76,-63.76 1188.05,-60.7"/>
</g>
<!-- 25 -->
<g id="node26" class="node">
<title>25</title>
<polygon fill="#e99356" stroke="black" points="1334.5,-53 1235.5,-53 1235.5,0 1334.5,0 1334.5,-53"/>
<text text-anchor="middle" x="1285" y="-37.8" font-family="Times,serif" font-size="14.00">mse = 14.917</text>
<text text-anchor="middle" x="1285" y="-22.8" font-family="Times,serif" font-size="14.00">samples = 8</text>
<text text-anchor="middle" x="1285" y="-7.8" font-family="Times,serif" font-size="14.00">value = 43.625</text>
</g>
<!-- 23&#45;&gt;25 -->
<g id="edge25" class="edge">
<title>23&#45;&gt;25</title>
<path fill="none" stroke="black" d="M1238.83,-88.95C1245.57,-79.98 1252.87,-70.27 1259.63,-61.26"/>
<polygon fill="black" stroke="black" points="1262.45,-63.33 1265.66,-53.24 1256.86,-59.13 1262.45,-63.33"/>
</g>
<!-- 27 -->
<g id="node28" class="node">
<title>27</title>
<polygon fill="#eeac7c" stroke="black" points="1439,-53 1353,-53 1353,0 1439,0 1439,-53"/>
<text text-anchor="middle" x="1396" y="-37.8" font-family="Times,serif" font-size="14.00">mse = 0.0</text>
<text text-anchor="middle" x="1396" y="-22.8" font-family="Times,serif" font-size="14.00">samples = 1</text>
<text text-anchor="middle" x="1396" y="-7.8" font-family="Times,serif" font-size="14.00">value = 35.2</text>
</g>
<!-- 26&#45;&gt;27 -->
<g id="edge27" class="edge">
<title>26&#45;&gt;27</title>
<path fill="none" stroke="black" d="M1396,-88.95C1396,-80.72 1396,-71.85 1396,-63.48"/>
<polygon fill="black" stroke="black" points="1399.5,-63.24 1396,-53.24 1392.5,-63.24 1399.5,-63.24"/>
</g>
<!-- 28 -->
<g id="node29" class="node">
<title>28</title>
<polygon fill="#f6d3b9" stroke="black" points="1543,-53 1457,-53 1457,0 1543,0 1543,-53"/>
<text text-anchor="middle" x="1500" y="-37.8" font-family="Times,serif" font-size="14.00">mse = &#45;0.0</text>
<text text-anchor="middle" x="1500" y="-22.8" font-family="Times,serif" font-size="14.00">samples = 1</text>
<text text-anchor="middle" x="1500" y="-7.8" font-family="Times,serif" font-size="14.00">value = 21.9</text>
</g>
<!-- 26&#45;&gt;28 -->
<g id="edge28" class="edge">
<title>26&#45;&gt;28</title>
<path fill="none" stroke="black" d="M1432.37,-88.95C1442.64,-79.62 1453.81,-69.47 1464.05,-60.16"/>
<polygon fill="black" stroke="black" points="1466.63,-62.55 1471.68,-53.24 1461.92,-57.37 1466.63,-62.55"/>
</g>
</g>
</svg>
