<?xml version="1.0" encoding="UTF-8" standalone="no"?>
<!DOCTYPE svg PUBLIC "-//W3C//DTD SVG 1.1//EN"
 "http://www.w3.org/Graphics/SVG/1.1/DTD/svg11.dtd">
<!-- Generated by graphviz version 2.46.1 (20210213.1702)
 -->
<!-- Title: Tree Pages: 1 -->
<svg width="1558pt" height="477pt"
 viewBox="0.00 0.00 1557.50 477.00" xmlns="http://www.w3.org/2000/svg" xmlns:xlink="http://www.w3.org/1999/xlink">
<g id="graph0" class="graph" transform="scale(1 1) rotate(0) translate(4 473)">
<title>Tree</title>
<polygon fill="white" stroke="transparent" points="-4,4 -4,-473 1553.5,-473 1553.5,4 -4,4"/>
<!-- 0 -->
<g id="node1" class="node">
<title>0</title>
<polygon fill="#f7d7c1" stroke="black" points="873.5,-469 761.5,-469 761.5,-401 873.5,-401 873.5,-469"/>
<text text-anchor="middle" x="817.5" y="-453.8" font-family="Times,serif" font-size="14.00">LSTAT &lt;= 7.865</text>
<text text-anchor="middle" x="817.5" y="-438.8" font-family="Times,serif" font-size="14.00">mse = 87.089</text>
<text text-anchor="middle" x="817.5" y="-423.8" font-family="Times,serif" font-size="14.00">samples = 354</text>
<text text-anchor="middle" x="817.5" y="-408.8" font-family="Times,serif" font-size="14.00">value = 22.494</text>
</g>
<!-- 1 -->
<g id="node2" class="node">
<title>1</title>
<polygon fill="#f1ba92" stroke="black" points="700,-365 601,-365 601,-297 700,-297 700,-365"/>
<text text-anchor="middle" x="650.5" y="-349.8" font-family="Times,serif" font-size="14.00">RM &lt;= 7.437</text>
<text text-anchor="middle" x="650.5" y="-334.8" font-family="Times,serif" font-size="14.00">mse = 82.965</text>
<text text-anchor="middle" x="650.5" y="-319.8" font-family="Times,serif" font-size="14.00">samples = 109</text>
<text text-anchor="middle" x="650.5" y="-304.8" font-family="Times,serif" font-size="14.00">value = 31.953</text>
</g>
<!-- 0&#45;&gt;1 -->
<g id="edge1" class="edge">
<title>0&#45;&gt;1</title>
<path fill="none" stroke="black" d="M763.28,-400.88C745.85,-390.24 726.46,-378.4 708.75,-367.58"/>
<polygon fill="black" stroke="black" points="710.57,-364.59 700.21,-362.36 706.92,-370.56 710.57,-364.59"/>
<text text-anchor="middle" x="706.08" y="-382.96" font-family="Times,serif" font-size="14.00">True</text>
</g>
<!-- 16 -->
<g id="node17" class="node">
<title>16</title>
<polygon fill="#fae5d6" stroke="black" points="1013,-365 894,-365 894,-297 1013,-297 1013,-365"/>
<text text-anchor="middle" x="953.5" y="-349.8" font-family="Times,serif" font-size="14.00">LSTAT &lt;= 14.915</text>
<text text-anchor="middle" x="953.5" y="-334.8" font-family="Times,serif" font-size="14.00">mse = 31.409</text>
<text text-anchor="middle" x="953.5" y="-319.8" font-family="Times,serif" font-size="14.00">samples = 245</text>
<text text-anchor="middle" x="953.5" y="-304.8" font-family="Times,serif" font-size="14.00">value = 18.286</text>
</g>
<!-- 0&#45;&gt;16 -->
<g id="edge16" class="edge">
<title>0&#45;&gt;16</title>
<path fill="none" stroke="black" d="M861.66,-400.88C874.13,-391.53 887.82,-381.26 900.74,-371.57"/>
<polygon fill="black" stroke="black" points="903.2,-374.1 909.1,-365.3 899,-368.5 903.2,-374.1"/>
<text text-anchor="middle" x="905.57" y="-386.35" font-family="Times,serif" font-size="14.00">False</text>
</g>
<!-- 2 -->
<g id="node3" class="node">
<title>2</title>
<polygon fill="#f3c5a4" stroke="black" points="388.5,-261 276.5,-261 276.5,-193 388.5,-193 388.5,-261"/>
<text text-anchor="middle" x="332.5" y="-245.8" font-family="Times,serif" font-size="14.00">LSTAT &lt;= 4.915</text>
<text text-anchor="middle" x="332.5" y="-230.8" font-family="Times,serif" font-size="14.00">mse = 35.613</text>
<text text-anchor="middle" x="332.5" y="-215.8" font-family="Times,serif" font-size="14.00">samples = 86</text>
<text text-anchor="middle" x="332.5" y="-200.8" font-family="Times,serif" font-size="14.00">value = 28.441</text>
</g>
<!-- 1&#45;&gt;2 -->
<g id="edge2" class="edge">
<title>1&#45;&gt;2</title>
<path fill="none" stroke="black" d="M600.81,-314.06C546.29,-296.57 458.53,-268.42 398.32,-249.11"/>
<polygon fill="black" stroke="black" points="399.12,-245.69 388.53,-245.97 396.98,-252.36 399.12,-245.69"/>
</g>
<!-- 9 -->
<g id="node10" class="node">
<title>9</title>
<polygon fill="#e89051" stroke="black" points="710.5,-261 590.5,-261 590.5,-193 710.5,-193 710.5,-261"/>
<text text-anchor="middle" x="650.5" y="-245.8" font-family="Times,serif" font-size="14.00">PTRATIO &lt;= 17.6</text>
<text text-anchor="middle" x="650.5" y="-230.8" font-family="Times,serif" font-size="14.00">mse = 41.392</text>
<text text-anchor="middle" x="650.5" y="-215.8" font-family="Times,serif" font-size="14.00">samples = 23</text>
<text text-anchor="middle" x="650.5" y="-200.8" font-family="Times,serif" font-size="14.00">value = 45.087</text>
</g>
<!-- 1&#45;&gt;9 -->
<g id="edge9" class="edge">
<title>1&#45;&gt;9</title>
<path fill="none" stroke="black" d="M650.5,-296.88C650.5,-288.78 650.5,-279.98 650.5,-271.47"/>
<polygon fill="black" stroke="black" points="654,-271.3 650.5,-261.3 647,-271.3 654,-271.3"/>
</g>
<!-- 3 -->
<g id="node4" class="node">
<title>3</title>
<polygon fill="#f0b48a" stroke="black" points="214,-157 107,-157 107,-89 214,-89 214,-157"/>
<text text-anchor="middle" x="160.5" y="-141.8" font-family="Times,serif" font-size="14.00">CRIM &lt;= 0.833</text>
<text text-anchor="middle" x="160.5" y="-126.8" font-family="Times,serif" font-size="14.00">mse = 38.758</text>
<text text-anchor="middle" x="160.5" y="-111.8" font-family="Times,serif" font-size="14.00">samples = 25</text>
<text text-anchor="middle" x="160.5" y="-96.8" font-family="Times,serif" font-size="14.00">value = 33.652</text>
</g>
<!-- 2&#45;&gt;3 -->
<g id="edge3" class="edge">
<title>2&#45;&gt;3</title>
<path fill="none" stroke="black" d="M276.66,-192.88C259.53,-182.73 240.58,-171.49 223.04,-161.09"/>
<polygon fill="black" stroke="black" points="224.4,-157.83 214.01,-155.74 220.83,-163.85 224.4,-157.83"/>
</g>
<!-- 6 -->
<g id="node7" class="node">
<title>6</title>
<polygon fill="#f4cbae" stroke="black" points="382,-157 283,-157 283,-89 382,-89 382,-157"/>
<text text-anchor="middle" x="332.5" y="-141.8" font-family="Times,serif" font-size="14.00">RM &lt;= 7.083</text>
<text text-anchor="middle" x="332.5" y="-126.8" font-family="Times,serif" font-size="14.00">mse = 18.632</text>
<text text-anchor="middle" x="332.5" y="-111.8" font-family="Times,serif" font-size="14.00">samples = 61</text>
<text text-anchor="middle" x="332.5" y="-96.8" font-family="Times,serif" font-size="14.00">value = 26.305</text>
</g>
<!-- 2&#45;&gt;6 -->
<g id="edge6" class="edge">
<title>2&#45;&gt;6</title>
<path fill="none" stroke="black" d="M332.5,-192.88C332.5,-184.78 332.5,-175.98 332.5,-167.47"/>
<polygon fill="black" stroke="black" points="336,-167.3 332.5,-157.3 329,-167.3 336,-167.3"/>
</g>
<!-- 4 -->
<g id="node5" class="node">
<title>4</title>
<polygon fill="#f1ba93" stroke="black" points="99,-53 0,-53 0,0 99,0 99,-53"/>
<text text-anchor="middle" x="49.5" y="-37.8" font-family="Times,serif" font-size="14.00">mse = 13.726</text>
<text text-anchor="middle" x="49.5" y="-22.8" font-family="Times,serif" font-size="14.00">samples = 22</text>
<text text-anchor="middle" x="49.5" y="-7.8" font-family="Times,serif" font-size="14.00">value = 31.818</text>
</g>
<!-- 3&#45;&gt;4 -->
<g id="edge4" class="edge">
<title>3&#45;&gt;4</title>
<path fill="none" stroke="black" d="M121.68,-88.95C110.61,-79.53 98.57,-69.27 87.55,-59.89"/>
<polygon fill="black" stroke="black" points="89.61,-57.05 79.73,-53.24 85.08,-62.38 89.61,-57.05"/>
</g>
<!-- 5 -->
<g id="node6" class="node">
<title>5</title>
<polygon fill="#e78a47" stroke="black" points="203.5,-53 117.5,-53 117.5,0 203.5,0 203.5,-53"/>
<text text-anchor="middle" x="160.5" y="-37.8" font-family="Times,serif" font-size="14.00">mse = 16.82</text>
<text text-anchor="middle" x="160.5" y="-22.8" font-family="Times,serif" font-size="14.00">samples = 3</text>
<text text-anchor="middle" x="160.5" y="-7.8" font-family="Times,serif" font-size="14.00">value = 47.1</text>
</g>
<!-- 3&#45;&gt;5 -->
<g id="edge5" class="edge">
<title>3&#45;&gt;5</title>
<path fill="none" stroke="black" d="M160.5,-88.95C160.5,-80.72 160.5,-71.85 160.5,-63.48"/>
<polygon fill="black" stroke="black" points="164,-63.24 160.5,-53.24 157,-63.24 164,-63.24"/>
</g>
<!-- 7 -->
<g id="node8" class="node">
<title>7</title>
<polygon fill="#f5cfb4" stroke="black" points="321,-53 222,-53 222,0 321,0 321,-53"/>
<text text-anchor="middle" x="271.5" y="-37.8" font-family="Times,serif" font-size="14.00">mse = 11.769</text>
<text text-anchor="middle" x="271.5" y="-22.8" font-family="Times,serif" font-size="14.00">samples = 53</text>
<text text-anchor="middle" x="271.5" y="-7.8" font-family="Times,serif" font-size="14.00">value = 25.204</text>
</g>
<!-- 6&#45;&gt;7 -->
<g id="edge7" class="edge">
<title>6&#45;&gt;7</title>
<path fill="none" stroke="black" d="M311.17,-88.95C305.5,-80.17 299.36,-70.66 293.65,-61.82"/>
<polygon fill="black" stroke="black" points="296.48,-59.74 288.11,-53.24 290.6,-63.54 296.48,-59.74"/>
</g>
<!-- 8 -->
<g id="node9" class="node">
<title>8</title>
<polygon fill="#f0b58a" stroke="black" points="425.5,-53 339.5,-53 339.5,0 425.5,0 425.5,-53"/>
<text text-anchor="middle" x="382.5" y="-37.8" font-family="Times,serif" font-size="14.00">mse = 2.847</text>
<text text-anchor="middle" x="382.5" y="-22.8" font-family="Times,serif" font-size="14.00">samples = 8</text>
<text text-anchor="middle" x="382.5" y="-7.8" font-family="Times,serif" font-size="14.00">value = 33.6</text>
</g>
<!-- 6&#45;&gt;8 -->
<g id="edge8" class="edge">
<title>6&#45;&gt;8</title>
<path fill="none" stroke="black" d="M349.99,-88.95C354.59,-80.26 359.56,-70.86 364.2,-62.09"/>
<polygon fill="black" stroke="black" points="367.3,-63.71 368.88,-53.24 361.11,-60.44 367.3,-63.71"/>
</g>
<!-- 10 -->
<g id="node11" class="node">
<title>10</title>
<polygon fill="#e78946" stroke="black" points="645,-157 546,-157 546,-89 645,-89 645,-157"/>
<text text-anchor="middle" x="595.5" y="-141.8" font-family="Times,serif" font-size="14.00">RM &lt;= 7.665</text>
<text text-anchor="middle" x="595.5" y="-126.8" font-family="Times,serif" font-size="14.00">mse = 7.5</text>
<text text-anchor="middle" x="595.5" y="-111.8" font-family="Times,serif" font-size="14.00">samples = 19</text>
<text text-anchor="middle" x="595.5" y="-96.8" font-family="Times,serif" font-size="14.00">value = 47.442</text>
</g>
<!-- 9&#45;&gt;10 -->
<g id="edge10" class="edge">
<title>9&#45;&gt;10</title>
<path fill="none" stroke="black" d="M632.64,-192.88C628.08,-184.42 623.11,-175.21 618.34,-166.35"/>
<polygon fill="black" stroke="black" points="621.28,-164.44 613.46,-157.3 615.12,-167.76 621.28,-164.44"/>
</g>
<!-- 13 -->
<g id="node14" class="node">
<title>13</title>
<polygon fill="#efb489" stroke="black" points="756,-157 663,-157 663,-89 756,-89 756,-157"/>
<text text-anchor="middle" x="709.5" y="-141.8" font-family="Times,serif" font-size="14.00">RM &lt;= 8.424</text>
<text text-anchor="middle" x="709.5" y="-126.8" font-family="Times,serif" font-size="14.00">mse = 50.885</text>
<text text-anchor="middle" x="709.5" y="-111.8" font-family="Times,serif" font-size="14.00">samples = 4</text>
<text text-anchor="middle" x="709.5" y="-96.8" font-family="Times,serif" font-size="14.00">value = 33.9</text>
</g>
<!-- 9&#45;&gt;13 -->
<g id="edge13" class="edge">
<title>9&#45;&gt;13</title>
<path fill="none" stroke="black" d="M669.66,-192.88C674.6,-184.33 679.99,-175.01 685.16,-166.07"/>
<polygon fill="black" stroke="black" points="688.26,-167.71 690.24,-157.3 682.2,-164.2 688.26,-167.71"/>
</g>
<!-- 11 -->
<g id="node12" class="node">
<title>11</title>
<polygon fill="#e99558" stroke="black" points="535.5,-53 443.5,-53 443.5,0 535.5,0 535.5,-53"/>
<text text-anchor="middle" x="489.5" y="-37.8" font-family="Times,serif" font-size="14.00">mse = 1.542</text>
<text text-anchor="middle" x="489.5" y="-22.8" font-family="Times,serif" font-size="14.00">samples = 5</text>
<text text-anchor="middle" x="489.5" y="-7.8" font-family="Times,serif" font-size="14.00">value = 43.78</text>
</g>
<!-- 10&#45;&gt;11 -->
<g id="edge11" class="edge">
<title>10&#45;&gt;11</title>
<path fill="none" stroke="black" d="M558.43,-88.95C547.96,-79.62 536.58,-69.47 526.14,-60.16"/>
<polygon fill="black" stroke="black" points="528.16,-57.28 518.37,-53.24 523.5,-62.5 528.16,-57.28"/>
</g>
<!-- 12 -->
<g id="node13" class="node">
<title>12</title>
<polygon fill="#e6853f" stroke="black" points="645.5,-53 553.5,-53 553.5,0 645.5,0 645.5,-53"/>
<text text-anchor="middle" x="599.5" y="-37.8" font-family="Times,serif" font-size="14.00">mse = 3.128</text>
<text text-anchor="middle" x="599.5" y="-22.8" font-family="Times,serif" font-size="14.00">samples = 14</text>
<text text-anchor="middle" x="599.5" y="-7.8" font-family="Times,serif" font-size="14.00">value = 48.75</text>
</g>
<!-- 10&#45;&gt;12 -->
<g id="edge12" class="edge">
<title>10&#45;&gt;12</title>
<path fill="none" stroke="black" d="M596.9,-88.95C597.25,-80.72 597.62,-71.85 597.98,-63.48"/>
<polygon fill="black" stroke="black" points="601.48,-63.38 598.41,-53.24 594.49,-63.08 601.48,-63.38"/>
</g>
<!-- 14 -->
<g id="node15" class="node">
<title>14</title>
<polygon fill="#eda775" stroke="black" points="749.5,-53 663.5,-53 663.5,0 749.5,0 749.5,-53"/>
<text text-anchor="middle" x="706.5" y="-37.8" font-family="Times,serif" font-size="14.00">mse = 3.847</text>
<text text-anchor="middle" x="706.5" y="-22.8" font-family="Times,serif" font-size="14.00">samples = 3</text>
<text text-anchor="middle" x="706.5" y="-7.8" font-family="Times,serif" font-size="14.00">value = 37.9</text>
</g>
<!-- 13&#45;&gt;14 -->
<g id="edge14" class="edge">
<title>13&#45;&gt;14</title>
<path fill="none" stroke="black" d="M708.45,-88.95C708.19,-80.72 707.91,-71.85 707.64,-63.48"/>
<polygon fill="black" stroke="black" points="711.13,-63.12 707.32,-53.24 704.14,-63.34 711.13,-63.12"/>
</g>
<!-- 15 -->
<g id="node16" class="node">
<title>15</title>
<polygon fill="#f7d9c4" stroke="black" points="853.5,-53 767.5,-53 767.5,0 853.5,0 853.5,-53"/>
<text text-anchor="middle" x="810.5" y="-37.8" font-family="Times,serif" font-size="14.00">mse = &#45;0.0</text>
<text text-anchor="middle" x="810.5" y="-22.8" font-family="Times,serif" font-size="14.00">samples = 1</text>
<text text-anchor="middle" x="810.5" y="-7.8" font-family="Times,serif" font-size="14.00">value = 21.9</text>
</g>
<!-- 13&#45;&gt;15 -->
<g id="edge15" class="edge">
<title>13&#45;&gt;15</title>
<path fill="none" stroke="black" d="M744.82,-88.95C754.8,-79.62 765.64,-69.47 775.59,-60.16"/>
<polygon fill="black" stroke="black" points="778.08,-62.62 782.99,-53.24 773.3,-57.51 778.08,-62.62"/>
</g>
<!-- 17 -->
<g id="node18" class="node">
<title>17</title>
<polygon fill="#f7dac5" stroke="black" points="1002,-261 905,-261 905,-193 1002,-193 1002,-261"/>
<text text-anchor="middle" x="953.5" y="-245.8" font-family="Times,serif" font-size="14.00">DIS &lt;= 1.227</text>
<text text-anchor="middle" x="953.5" y="-230.8" font-family="Times,serif" font-size="14.00">mse = 17.868</text>
<text text-anchor="middle" x="953.5" y="-215.8" font-family="Times,serif" font-size="14.00">samples = 128</text>
<text text-anchor="middle" x="953.5" y="-200.8" font-family="Times,serif" font-size="14.00">value = 21.64</text>
</g>
<!-- 16&#45;&gt;17 -->
<g id="edge17" class="edge">
<title>16&#45;&gt;17</title>
<path fill="none" stroke="black" d="M953.5,-296.88C953.5,-288.78 953.5,-279.98 953.5,-271.47"/>
<polygon fill="black" stroke="black" points="957,-271.3 953.5,-261.3 950,-271.3 957,-271.3"/>
</g>
<!-- 22 -->
<g id="node23" class="node">
<title>22</title>
<polygon fill="#fcf0e8" stroke="black" points="1237,-261 1130,-261 1130,-193 1237,-193 1237,-261"/>
<text text-anchor="middle" x="1183.5" y="-245.8" font-family="Times,serif" font-size="14.00">CRIM &lt;= 5.511</text>
<text text-anchor="middle" x="1183.5" y="-230.8" font-family="Times,serif" font-size="14.00">mse = 20.456</text>
<text text-anchor="middle" x="1183.5" y="-215.8" font-family="Times,serif" font-size="14.00">samples = 117</text>
<text text-anchor="middle" x="1183.5" y="-200.8" font-family="Times,serif" font-size="14.00">value = 14.617</text>
</g>
<!-- 16&#45;&gt;22 -->
<g id="edge22" class="edge">
<title>16&#45;&gt;22</title>
<path fill="none" stroke="black" d="M1013.03,-303.6C1046,-288.98 1086.97,-270.81 1120.48,-255.95"/>
<polygon fill="black" stroke="black" points="1122,-259.1 1129.72,-251.85 1119.16,-252.7 1122,-259.1"/>
</g>
<!-- 18 -->
<g id="node19" class="node">
<title>18</title>
<polygon fill="#e58139" stroke="black" points="941.5,-149.5 855.5,-149.5 855.5,-96.5 941.5,-96.5 941.5,-149.5"/>
<text text-anchor="middle" x="898.5" y="-134.3" font-family="Times,serif" font-size="14.00">mse = 0.0</text>
<text text-anchor="middle" x="898.5" y="-119.3" font-family="Times,serif" font-size="14.00">samples = 1</text>
<text text-anchor="middle" x="898.5" y="-104.3" font-family="Times,serif" font-size="14.00">value = 50.0</text>
</g>
<!-- 17&#45;&gt;18 -->
<g id="edge18" class="edge">
<title>17&#45;&gt;18</title>
<path fill="none" stroke="black" d="M935.64,-192.88C929.71,-181.89 923.1,-169.62 917.11,-158.52"/>
<polygon fill="black" stroke="black" points="920.09,-156.66 912.26,-149.52 913.93,-159.98 920.09,-156.66"/>
</g>
<!-- 19 -->
<g id="node20" class="node">
<title>19</title>
<polygon fill="#f8dbc6" stroke="black" points="1059,-157 960,-157 960,-89 1059,-89 1059,-157"/>
<text text-anchor="middle" x="1009.5" y="-141.8" font-family="Times,serif" font-size="14.00">RM &lt;= 6.603</text>
<text text-anchor="middle" x="1009.5" y="-126.8" font-family="Times,serif" font-size="14.00">mse = 11.626</text>
<text text-anchor="middle" x="1009.5" y="-111.8" font-family="Times,serif" font-size="14.00">samples = 127</text>
<text text-anchor="middle" x="1009.5" y="-96.8" font-family="Times,serif" font-size="14.00">value = 21.417</text>
</g>
<!-- 17&#45;&gt;19 -->
<g id="edge19" class="edge">
<title>17&#45;&gt;19</title>
<path fill="none" stroke="black" d="M971.68,-192.88C976.38,-184.33 981.49,-175.01 986.4,-166.07"/>
<polygon fill="black" stroke="black" points="989.47,-167.75 991.22,-157.3 983.34,-164.38 989.47,-167.75"/>
</g>
<!-- 20 -->
<g id="node21" class="node">
<title>20</title>
<polygon fill="#f8dcc8" stroke="black" points="971,-53 872,-53 872,0 971,0 971,-53"/>
<text text-anchor="middle" x="921.5" y="-37.8" font-family="Times,serif" font-size="14.00">mse = 9.297</text>
<text text-anchor="middle" x="921.5" y="-22.8" font-family="Times,serif" font-size="14.00">samples = 116</text>
<text text-anchor="middle" x="921.5" y="-7.8" font-family="Times,serif" font-size="14.00">value = 20.957</text>
</g>
<!-- 19&#45;&gt;20 -->
<g id="edge20" class="edge">
<title>19&#45;&gt;20</title>
<path fill="none" stroke="black" d="M978.72,-88.95C970.2,-79.8 960.96,-69.87 952.43,-60.71"/>
<polygon fill="black" stroke="black" points="954.84,-58.17 945.47,-53.24 949.72,-62.94 954.84,-58.17"/>
</g>
<!-- 21 -->
<g id="node22" class="node">
<title>21</title>
<polygon fill="#f4ccae" stroke="black" points="1088,-53 989,-53 989,0 1088,0 1088,-53"/>
<text text-anchor="middle" x="1038.5" y="-37.8" font-family="Times,serif" font-size="14.00">mse = 10.47</text>
<text text-anchor="middle" x="1038.5" y="-22.8" font-family="Times,serif" font-size="14.00">samples = 11</text>
<text text-anchor="middle" x="1038.5" y="-7.8" font-family="Times,serif" font-size="14.00">value = 26.264</text>
</g>
<!-- 19&#45;&gt;21 -->
<g id="edge21" class="edge">
<title>19&#45;&gt;21</title>
<path fill="none" stroke="black" d="M1019.64,-88.95C1022.23,-80.53 1025.01,-71.45 1027.63,-62.92"/>
<polygon fill="black" stroke="black" points="1031.01,-63.82 1030.6,-53.24 1024.32,-61.77 1031.01,-63.82"/>
</g>
<!-- 23 -->
<g id="node24" class="node">
<title>23</title>
<polygon fill="#fae8da" stroke="black" points="1234,-157 1133,-157 1133,-89 1234,-89 1234,-157"/>
<text text-anchor="middle" x="1183.5" y="-141.8" font-family="Times,serif" font-size="14.00">NOX &lt;= 0.531</text>
<text text-anchor="middle" x="1183.5" y="-126.8" font-family="Times,serif" font-size="14.00">mse = 13.571</text>
<text text-anchor="middle" x="1183.5" y="-111.8" font-family="Times,serif" font-size="14.00">samples = 61</text>
<text text-anchor="middle" x="1183.5" y="-96.8" font-family="Times,serif" font-size="14.00">value = 17.331</text>
</g>
<!-- 22&#45;&gt;23 -->
<g id="edge23" class="edge">
<title>22&#45;&gt;23</title>
<path fill="none" stroke="black" d="M1183.5,-192.88C1183.5,-184.78 1183.5,-175.98 1183.5,-167.47"/>
<polygon fill="black" stroke="black" points="1187,-167.3 1183.5,-157.3 1180,-167.3 1187,-167.3"/>
</g>
<!-- 26 -->
<g id="node27" class="node">
<title>26</title>
<polygon fill="#fefaf6" stroke="black" points="1446,-157 1333,-157 1333,-89 1446,-89 1446,-157"/>
<text text-anchor="middle" x="1389.5" y="-141.8" font-family="Times,serif" font-size="14.00">CRIM &lt;= 11.369</text>
<text text-anchor="middle" x="1389.5" y="-126.8" font-family="Times,serif" font-size="14.00">mse = 11.192</text>
<text text-anchor="middle" x="1389.5" y="-111.8" font-family="Times,serif" font-size="14.00">samples = 56</text>
<text text-anchor="middle" x="1389.5" y="-96.8" font-family="Times,serif" font-size="14.00">value = 11.661</text>
</g>
<!-- 22&#45;&gt;26 -->
<g id="edge26" class="edge">
<title>22&#45;&gt;26</title>
<path fill="none" stroke="black" d="M1237.09,-199.47C1263.54,-186.37 1295.7,-170.45 1323.64,-156.61"/>
<polygon fill="black" stroke="black" points="1325.53,-159.58 1332.94,-152.01 1322.43,-153.31 1325.53,-159.58"/>
</g>
<!-- 24 -->
<g id="node25" class="node">
<title>24</title>
<polygon fill="#f8ddc9" stroke="black" points="1205,-53 1106,-53 1106,0 1205,0 1205,-53"/>
<text text-anchor="middle" x="1155.5" y="-37.8" font-family="Times,serif" font-size="14.00">mse = 5.769</text>
<text text-anchor="middle" x="1155.5" y="-22.8" font-family="Times,serif" font-size="14.00">samples = 16</text>
<text text-anchor="middle" x="1155.5" y="-7.8" font-family="Times,serif" font-size="14.00">value = 20.762</text>
</g>
<!-- 23&#45;&gt;24 -->
<g id="edge24" class="edge">
<title>23&#45;&gt;24</title>
<path fill="none" stroke="black" d="M1173.71,-88.95C1171.21,-80.53 1168.52,-71.45 1166,-62.92"/>
<polygon fill="black" stroke="black" points="1169.32,-61.83 1163.13,-53.24 1162.61,-63.82 1169.32,-61.83"/>
</g>
<!-- 25 -->
<g id="node26" class="node">
<title>25</title>
<polygon fill="#fbece0" stroke="black" points="1322,-53 1223,-53 1223,0 1322,0 1322,-53"/>
<text text-anchor="middle" x="1272.5" y="-37.8" font-family="Times,serif" font-size="14.00">mse = 10.671</text>
<text text-anchor="middle" x="1272.5" y="-22.8" font-family="Times,serif" font-size="14.00">samples = 45</text>
<text text-anchor="middle" x="1272.5" y="-7.8" font-family="Times,serif" font-size="14.00">value = 16.111</text>
</g>
<!-- 23&#45;&gt;25 -->
<g id="edge25" class="edge">
<title>23&#45;&gt;25</title>
<path fill="none" stroke="black" d="M1214.63,-88.95C1223.24,-79.8 1232.6,-69.87 1241.22,-60.71"/>
<polygon fill="black" stroke="black" points="1243.95,-62.92 1248.26,-53.24 1238.86,-58.12 1243.95,-62.92"/>
</g>
<!-- 27 -->
<g id="node28" class="node">
<title>27</title>
<polygon fill="#fdf4ed" stroke="black" points="1439,-53 1340,-53 1340,0 1439,0 1439,-53"/>
<text text-anchor="middle" x="1389.5" y="-37.8" font-family="Times,serif" font-size="14.00">mse = 6.786</text>
<text text-anchor="middle" x="1389.5" y="-22.8" font-family="Times,serif" font-size="14.00">samples = 27</text>
<text text-anchor="middle" x="1389.5" y="-7.8" font-family="Times,serif" font-size="14.00">value = 13.526</text>
</g>
<!-- 26&#45;&gt;27 -->
<g id="edge27" class="edge">
<title>26&#45;&gt;27</title>
<path fill="none" stroke="black" d="M1389.5,-88.95C1389.5,-80.72 1389.5,-71.85 1389.5,-63.48"/>
<polygon fill="black" stroke="black" points="1393,-63.24 1389.5,-53.24 1386,-63.24 1393,-63.24"/>
</g>
<!-- 28 -->
<g id="node29" class="node">
<title>28</title>
<polygon fill="#ffffff" stroke="black" points="1549.5,-53 1457.5,-53 1457.5,0 1549.5,0 1549.5,-53"/>
<text text-anchor="middle" x="1503.5" y="-37.8" font-family="Times,serif" font-size="14.00">mse = 9.039</text>
<text text-anchor="middle" x="1503.5" y="-22.8" font-family="Times,serif" font-size="14.00">samples = 29</text>
<text text-anchor="middle" x="1503.5" y="-7.8" font-family="Times,serif" font-size="14.00">value = 9.924</text>
</g>
<!-- 26&#45;&gt;28 -->
<g id="edge28" class="edge">
<title>26&#45;&gt;28</title>
<path fill="none" stroke="black" d="M1429.37,-88.95C1440.74,-79.53 1453.11,-69.27 1464.43,-59.89"/>
<polygon fill="black" stroke="black" points="1466.99,-62.31 1472.45,-53.24 1462.52,-56.92 1466.99,-62.31"/>
</g>
</g>
</svg>
