<?xml version="1.0" encoding="UTF-8" standalone="no"?>
<!DOCTYPE svg PUBLIC "-//W3C//DTD SVG 1.1//EN"
 "http://www.w3.org/Graphics/SVG/1.1/DTD/svg11.dtd">
<!-- Generated by graphviz version 2.46.1 (20210213.1702)
 -->
<!-- Title: Tree Pages: 1 -->
<svg width="1354pt" height="477pt"
 viewBox="0.00 0.00 1353.50 477.00" xmlns="http://www.w3.org/2000/svg" xmlns:xlink="http://www.w3.org/1999/xlink">
<g id="graph0" class="graph" transform="scale(1 1) rotate(0) translate(4 473)">
<title>Tree</title>
<polygon fill="white" stroke="transparent" points="-4,4 -4,-473 1349.5,-473 1349.5,4 -4,4"/>
<!-- 0 -->
<g id="node1" class="node">
<title>0</title>
<polygon fill="#f7d8c1" stroke="black" points="735,-469 636,-469 636,-401 735,-401 735,-469"/>
<text text-anchor="middle" x="685.5" y="-453.8" font-family="Times,serif" font-size="14.00">RM &lt;= 6.872</text>
<text text-anchor="middle" x="685.5" y="-438.8" font-family="Times,serif" font-size="14.00">mse = 79.324</text>
<text text-anchor="middle" x="685.5" y="-423.8" font-family="Times,serif" font-size="14.00">samples = 354</text>
<text text-anchor="middle" x="685.5" y="-408.8" font-family="Times,serif" font-size="14.00">value = 22.461</text>
</g>
<!-- 1 -->
<g id="node2" class="node">
<title>1</title>
<polygon fill="#f9e0cf" stroke="black" points="512,-365 407,-365 407,-297 512,-297 512,-365"/>
<text text-anchor="middle" x="459.5" y="-349.8" font-family="Times,serif" font-size="14.00">LSTAT &lt;= 14.4</text>
<text text-anchor="middle" x="459.5" y="-334.8" font-family="Times,serif" font-size="14.00">mse = 33.67</text>
<text text-anchor="middle" x="459.5" y="-319.8" font-family="Times,serif" font-size="14.00">samples = 299</text>
<text text-anchor="middle" x="459.5" y="-304.8" font-family="Times,serif" font-size="14.00">value = 19.783</text>
</g>
<!-- 0&#45;&gt;1 -->
<g id="edge1" class="edge">
<title>0&#45;&gt;1</title>
<path fill="none" stroke="black" d="M635.9,-411.62C602.27,-396.43 557.55,-376.25 521.55,-360.01"/>
<polygon fill="black" stroke="black" points="522.68,-356.68 512.13,-355.75 519.8,-363.06 522.68,-356.68"/>
<text text-anchor="middle" x="520.97" y="-375.44" font-family="Times,serif" font-size="14.00">True</text>
</g>
<!-- 14 -->
<g id="node15" class="node">
<title>14</title>
<polygon fill="#edaa79" stroke="black" points="960,-365 861,-365 861,-297 960,-297 960,-365"/>
<text text-anchor="middle" x="910.5" y="-349.8" font-family="Times,serif" font-size="14.00">RM &lt;= 7.433</text>
<text text-anchor="middle" x="910.5" y="-334.8" font-family="Times,serif" font-size="14.00">mse = 76.499</text>
<text text-anchor="middle" x="910.5" y="-319.8" font-family="Times,serif" font-size="14.00">samples = 55</text>
<text text-anchor="middle" x="910.5" y="-304.8" font-family="Times,serif" font-size="14.00">value = 37.022</text>
</g>
<!-- 0&#45;&gt;14 -->
<g id="edge14" class="edge">
<title>0&#45;&gt;14</title>
<path fill="none" stroke="black" d="M735.16,-411.49C769.49,-395.93 815.32,-375.15 851.51,-358.74"/>
<polygon fill="black" stroke="black" points="853.31,-361.77 860.97,-354.45 850.42,-355.39 853.31,-361.77"/>
<text text-anchor="middle" x="852.17" y="-374.15" font-family="Times,serif" font-size="14.00">False</text>
</g>
<!-- 2 -->
<g id="node3" class="node">
<title>2</title>
<polygon fill="#f7d7c0" stroke="black" points="216,-261 117,-261 117,-193 216,-193 216,-261"/>
<text text-anchor="middle" x="166.5" y="-245.8" font-family="Times,serif" font-size="14.00">DIS &lt;= 1.373</text>
<text text-anchor="middle" x="166.5" y="-230.8" font-family="Times,serif" font-size="14.00">mse = 20.686</text>
<text text-anchor="middle" x="166.5" y="-215.8" font-family="Times,serif" font-size="14.00">samples = 181</text>
<text text-anchor="middle" x="166.5" y="-200.8" font-family="Times,serif" font-size="14.00">value = 22.749</text>
</g>
<!-- 1&#45;&gt;2 -->
<g id="edge2" class="edge">
<title>1&#45;&gt;2</title>
<path fill="none" stroke="black" d="M406.78,-311.65C355.9,-293.94 279,-267.16 225.97,-248.7"/>
<polygon fill="black" stroke="black" points="226.95,-245.34 216.35,-245.36 224.65,-251.95 226.95,-245.34"/>
</g>
<!-- 7 -->
<g id="node8" class="node">
<title>7</title>
<polygon fill="#fcefe5" stroke="black" points="510,-261 409,-261 409,-193 510,-193 510,-261"/>
<text text-anchor="middle" x="459.5" y="-245.8" font-family="Times,serif" font-size="14.00">NOX &lt;= 0.661</text>
<text text-anchor="middle" x="459.5" y="-230.8" font-family="Times,serif" font-size="14.00">mse = 19.382</text>
<text text-anchor="middle" x="459.5" y="-215.8" font-family="Times,serif" font-size="14.00">samples = 118</text>
<text text-anchor="middle" x="459.5" y="-200.8" font-family="Times,serif" font-size="14.00">value = 15.232</text>
</g>
<!-- 1&#45;&gt;7 -->
<g id="edge7" class="edge">
<title>1&#45;&gt;7</title>
<path fill="none" stroke="black" d="M459.5,-296.88C459.5,-288.78 459.5,-279.98 459.5,-271.47"/>
<polygon fill="black" stroke="black" points="463,-271.3 459.5,-261.3 456,-271.3 463,-271.3"/>
</g>
<!-- 3 -->
<g id="node4" class="node">
<title>3</title>
<polygon fill="#e58139" stroke="black" points="98.5,-149.5 12.5,-149.5 12.5,-96.5 98.5,-96.5 98.5,-149.5"/>
<text text-anchor="middle" x="55.5" y="-134.3" font-family="Times,serif" font-size="14.00">mse = 0.0</text>
<text text-anchor="middle" x="55.5" y="-119.3" font-family="Times,serif" font-size="14.00">samples = 2</text>
<text text-anchor="middle" x="55.5" y="-104.3" font-family="Times,serif" font-size="14.00">value = 50.0</text>
</g>
<!-- 2&#45;&gt;3 -->
<g id="edge3" class="edge">
<title>2&#45;&gt;3</title>
<path fill="none" stroke="black" d="M130.46,-192.88C117.78,-181.23 103.54,-168.14 90.9,-156.53"/>
<polygon fill="black" stroke="black" points="93,-153.71 83.27,-149.52 88.27,-158.86 93,-153.71"/>
</g>
<!-- 4 -->
<g id="node5" class="node">
<title>4</title>
<polygon fill="#f7d8c1" stroke="black" points="216,-157 117,-157 117,-89 216,-89 216,-157"/>
<text text-anchor="middle" x="166.5" y="-141.8" font-family="Times,serif" font-size="14.00">RM &lt;= 6.47</text>
<text text-anchor="middle" x="166.5" y="-126.8" font-family="Times,serif" font-size="14.00">mse = 12.527</text>
<text text-anchor="middle" x="166.5" y="-111.8" font-family="Times,serif" font-size="14.00">samples = 179</text>
<text text-anchor="middle" x="166.5" y="-96.8" font-family="Times,serif" font-size="14.00">value = 22.445</text>
</g>
<!-- 2&#45;&gt;4 -->
<g id="edge4" class="edge">
<title>2&#45;&gt;4</title>
<path fill="none" stroke="black" d="M166.5,-192.88C166.5,-184.78 166.5,-175.98 166.5,-167.47"/>
<polygon fill="black" stroke="black" points="170,-167.3 166.5,-157.3 163,-167.3 170,-167.3"/>
</g>
<!-- 5 -->
<g id="node6" class="node">
<title>5</title>
<polygon fill="#f8dbc7" stroke="black" points="99,-53 0,-53 0,0 99,0 99,-53"/>
<text text-anchor="middle" x="49.5" y="-37.8" font-family="Times,serif" font-size="14.00">mse = 8.208</text>
<text text-anchor="middle" x="49.5" y="-22.8" font-family="Times,serif" font-size="14.00">samples = 139</text>
<text text-anchor="middle" x="49.5" y="-7.8" font-family="Times,serif" font-size="14.00">value = 21.383</text>
</g>
<!-- 4&#45;&gt;5 -->
<g id="edge5" class="edge">
<title>4&#45;&gt;5</title>
<path fill="none" stroke="black" d="M125.58,-88.95C113.8,-79.43 100.97,-69.07 89.26,-59.62"/>
<polygon fill="black" stroke="black" points="91.34,-56.8 81.36,-53.24 86.94,-62.24 91.34,-56.8"/>
</g>
<!-- 6 -->
<g id="node7" class="node">
<title>6</title>
<polygon fill="#f5ccaf" stroke="black" points="216,-53 117,-53 117,0 216,0 216,-53"/>
<text text-anchor="middle" x="166.5" y="-37.8" font-family="Times,serif" font-size="14.00">mse = 10.021</text>
<text text-anchor="middle" x="166.5" y="-22.8" font-family="Times,serif" font-size="14.00">samples = 40</text>
<text text-anchor="middle" x="166.5" y="-7.8" font-family="Times,serif" font-size="14.00">value = 26.132</text>
</g>
<!-- 4&#45;&gt;6 -->
<g id="edge6" class="edge">
<title>4&#45;&gt;6</title>
<path fill="none" stroke="black" d="M166.5,-88.95C166.5,-80.72 166.5,-71.85 166.5,-63.48"/>
<polygon fill="black" stroke="black" points="170,-63.24 166.5,-53.24 163,-63.24 170,-63.24"/>
</g>
<!-- 8 -->
<g id="node9" class="node">
<title>8</title>
<polygon fill="#fae7d9" stroke="black" points="457,-157 330,-157 330,-89 457,-89 457,-157"/>
<text text-anchor="middle" x="393.5" y="-141.8" font-family="Times,serif" font-size="14.00">PTRATIO &lt;= 19.45</text>
<text text-anchor="middle" x="393.5" y="-126.8" font-family="Times,serif" font-size="14.00">mse = 12.592</text>
<text text-anchor="middle" x="393.5" y="-111.8" font-family="Times,serif" font-size="14.00">samples = 63</text>
<text text-anchor="middle" x="393.5" y="-96.8" font-family="Times,serif" font-size="14.00">value = 17.773</text>
</g>
<!-- 7&#45;&gt;8 -->
<g id="edge8" class="edge">
<title>7&#45;&gt;8</title>
<path fill="none" stroke="black" d="M438.07,-192.88C432.48,-184.24 426.38,-174.82 420.54,-165.79"/>
<polygon fill="black" stroke="black" points="423.42,-163.79 415.05,-157.3 417.54,-167.6 423.42,-163.79"/>
</g>
<!-- 11 -->
<g id="node12" class="node">
<title>11</title>
<polygon fill="#fdf8f4" stroke="black" points="576,-157 475,-157 475,-89 576,-89 576,-157"/>
<text text-anchor="middle" x="525.5" y="-141.8" font-family="Times,serif" font-size="14.00">NOX &lt;= 0.706</text>
<text text-anchor="middle" x="525.5" y="-126.8" font-family="Times,serif" font-size="14.00">mse = 11.294</text>
<text text-anchor="middle" x="525.5" y="-111.8" font-family="Times,serif" font-size="14.00">samples = 55</text>
<text text-anchor="middle" x="525.5" y="-96.8" font-family="Times,serif" font-size="14.00">value = 12.322</text>
</g>
<!-- 7&#45;&gt;11 -->
<g id="edge11" class="edge">
<title>7&#45;&gt;11</title>
<path fill="none" stroke="black" d="M480.93,-192.88C486.52,-184.24 492.62,-174.82 498.46,-165.79"/>
<polygon fill="black" stroke="black" points="501.46,-167.6 503.95,-157.3 495.58,-163.79 501.46,-167.6"/>
</g>
<!-- 9 -->
<g id="node10" class="node">
<title>9</title>
<polygon fill="#f9e0cf" stroke="black" points="333,-53 234,-53 234,0 333,0 333,-53"/>
<text text-anchor="middle" x="283.5" y="-37.8" font-family="Times,serif" font-size="14.00">mse = 8.342</text>
<text text-anchor="middle" x="283.5" y="-22.8" font-family="Times,serif" font-size="14.00">samples = 26</text>
<text text-anchor="middle" x="283.5" y="-7.8" font-family="Times,serif" font-size="14.00">value = 19.696</text>
</g>
<!-- 8&#45;&gt;9 -->
<g id="edge9" class="edge">
<title>8&#45;&gt;9</title>
<path fill="none" stroke="black" d="M355.03,-88.95C344.06,-79.53 332.12,-69.27 321.2,-59.89"/>
<polygon fill="black" stroke="black" points="323.32,-57.1 313.46,-53.24 318.76,-62.41 323.32,-57.1"/>
</g>
<!-- 10 -->
<g id="node11" class="node">
<title>10</title>
<polygon fill="#fbebdf" stroke="black" points="450,-53 351,-53 351,0 450,0 450,-53"/>
<text text-anchor="middle" x="400.5" y="-37.8" font-family="Times,serif" font-size="14.00">mse = 11.153</text>
<text text-anchor="middle" x="400.5" y="-22.8" font-family="Times,serif" font-size="14.00">samples = 37</text>
<text text-anchor="middle" x="400.5" y="-7.8" font-family="Times,serif" font-size="14.00">value = 16.422</text>
</g>
<!-- 8&#45;&gt;10 -->
<g id="edge10" class="edge">
<title>8&#45;&gt;10</title>
<path fill="none" stroke="black" d="M395.95,-88.95C396.56,-80.72 397.21,-71.85 397.83,-63.48"/>
<polygon fill="black" stroke="black" points="401.35,-63.47 398.59,-53.24 394.36,-62.95 401.35,-63.47"/>
</g>
<!-- 12 -->
<g id="node13" class="node">
<title>12</title>
<polygon fill="#ffffff" stroke="black" points="567,-53 468,-53 468,0 567,0 567,-53"/>
<text text-anchor="middle" x="517.5" y="-37.8" font-family="Times,serif" font-size="14.00">mse = 7.57</text>
<text text-anchor="middle" x="517.5" y="-22.8" font-family="Times,serif" font-size="14.00">samples = 27</text>
<text text-anchor="middle" x="517.5" y="-7.8" font-family="Times,serif" font-size="14.00">value = 10.011</text>
</g>
<!-- 11&#45;&gt;12 -->
<g id="edge12" class="edge">
<title>11&#45;&gt;12</title>
<path fill="none" stroke="black" d="M522.7,-88.95C522,-80.62 521.24,-71.65 520.52,-63.2"/>
<polygon fill="black" stroke="black" points="524.01,-62.91 519.68,-53.24 517.03,-63.5 524.01,-62.91"/>
</g>
<!-- 13 -->
<g id="node14" class="node">
<title>13</title>
<polygon fill="#fcf1e9" stroke="black" points="677.5,-53 585.5,-53 585.5,0 677.5,0 677.5,-53"/>
<text text-anchor="middle" x="631.5" y="-37.8" font-family="Times,serif" font-size="14.00">mse = 4.771</text>
<text text-anchor="middle" x="631.5" y="-22.8" font-family="Times,serif" font-size="14.00">samples = 28</text>
<text text-anchor="middle" x="631.5" y="-7.8" font-family="Times,serif" font-size="14.00">value = 14.55</text>
</g>
<!-- 11&#45;&gt;13 -->
<g id="edge13" class="edge">
<title>11&#45;&gt;13</title>
<path fill="none" stroke="black" d="M562.57,-88.95C573.04,-79.62 584.42,-69.47 594.86,-60.16"/>
<polygon fill="black" stroke="black" points="597.5,-62.5 602.63,-53.24 592.84,-57.28 597.5,-62.5"/>
</g>
<!-- 15 -->
<g id="node16" class="node">
<title>15</title>
<polygon fill="#f1ba92" stroke="black" points="970,-261 851,-261 851,-193 970,-193 970,-261"/>
<text text-anchor="middle" x="910.5" y="-245.8" font-family="Times,serif" font-size="14.00">LSTAT &lt;= 15.765</text>
<text text-anchor="middle" x="910.5" y="-230.8" font-family="Times,serif" font-size="14.00">mse = 43.375</text>
<text text-anchor="middle" x="910.5" y="-215.8" font-family="Times,serif" font-size="14.00">samples = 32</text>
<text text-anchor="middle" x="910.5" y="-200.8" font-family="Times,serif" font-size="14.00">value = 32.031</text>
</g>
<!-- 14&#45;&gt;15 -->
<g id="edge15" class="edge">
<title>14&#45;&gt;15</title>
<path fill="none" stroke="black" d="M910.5,-296.88C910.5,-288.78 910.5,-279.98 910.5,-271.47"/>
<polygon fill="black" stroke="black" points="914,-271.3 910.5,-261.3 907,-271.3 914,-271.3"/>
</g>
<!-- 22 -->
<g id="node23" class="node">
<title>22</title>
<polygon fill="#e99457" stroke="black" points="1245,-261 1118,-261 1118,-193 1245,-193 1245,-261"/>
<text text-anchor="middle" x="1181.5" y="-245.8" font-family="Times,serif" font-size="14.00">PTRATIO &lt;= 19.65</text>
<text text-anchor="middle" x="1181.5" y="-230.8" font-family="Times,serif" font-size="14.00">mse = 39.722</text>
<text text-anchor="middle" x="1181.5" y="-215.8" font-family="Times,serif" font-size="14.00">samples = 23</text>
<text text-anchor="middle" x="1181.5" y="-200.8" font-family="Times,serif" font-size="14.00">value = 43.965</text>
</g>
<!-- 14&#45;&gt;22 -->
<g id="edge22" class="edge">
<title>14&#45;&gt;22</title>
<path fill="none" stroke="black" d="M960.21,-311.29C1001.66,-295.69 1061.32,-273.23 1108.25,-255.57"/>
<polygon fill="black" stroke="black" points="1109.63,-258.79 1117.76,-251.99 1107.17,-252.24 1109.63,-258.79"/>
</g>
<!-- 16 -->
<g id="node17" class="node">
<title>16</title>
<polygon fill="#f0b68c" stroke="black" points="903,-157 804,-157 804,-89 903,-89 903,-157"/>
<text text-anchor="middle" x="853.5" y="-141.8" font-family="Times,serif" font-size="14.00">DIS &lt;= 1.886</text>
<text text-anchor="middle" x="853.5" y="-126.8" font-family="Times,serif" font-size="14.00">mse = 22.49</text>
<text text-anchor="middle" x="853.5" y="-111.8" font-family="Times,serif" font-size="14.00">samples = 30</text>
<text text-anchor="middle" x="853.5" y="-96.8" font-family="Times,serif" font-size="14.00">value = 33.227</text>
</g>
<!-- 15&#45;&gt;16 -->
<g id="edge16" class="edge">
<title>15&#45;&gt;16</title>
<path fill="none" stroke="black" d="M891.99,-192.88C887.22,-184.33 882.01,-175.01 877.01,-166.07"/>
<polygon fill="black" stroke="black" points="880.04,-164.32 872.11,-157.3 873.93,-167.74 880.04,-164.32"/>
</g>
<!-- 19 -->
<g id="node20" class="node">
<title>19</title>
<polygon fill="#fcf2eb" stroke="black" points="1013.5,-157 921.5,-157 921.5,-89 1013.5,-89 1013.5,-157"/>
<text text-anchor="middle" x="967.5" y="-141.8" font-family="Times,serif" font-size="14.00">AGE &lt;= 95.6</text>
<text text-anchor="middle" x="967.5" y="-126.8" font-family="Times,serif" font-size="14.00">mse = 13.69</text>
<text text-anchor="middle" x="967.5" y="-111.8" font-family="Times,serif" font-size="14.00">samples = 2</text>
<text text-anchor="middle" x="967.5" y="-96.8" font-family="Times,serif" font-size="14.00">value = 14.1</text>
</g>
<!-- 15&#45;&gt;19 -->
<g id="edge19" class="edge">
<title>15&#45;&gt;19</title>
<path fill="none" stroke="black" d="M929.01,-192.88C933.78,-184.33 938.99,-175.01 943.99,-166.07"/>
<polygon fill="black" stroke="black" points="947.07,-167.74 948.89,-157.3 940.96,-164.32 947.07,-167.74"/>
</g>
<!-- 17 -->
<g id="node18" class="node">
<title>17</title>
<polygon fill="#e88f4f" stroke="black" points="787.5,-53 695.5,-53 695.5,0 787.5,0 787.5,-53"/>
<text text-anchor="middle" x="741.5" y="-37.8" font-family="Times,serif" font-size="14.00">mse = 18.923</text>
<text text-anchor="middle" x="741.5" y="-22.8" font-family="Times,serif" font-size="14.00">samples = 2</text>
<text text-anchor="middle" x="741.5" y="-7.8" font-family="Times,serif" font-size="14.00">value = 45.65</text>
</g>
<!-- 16&#45;&gt;17 -->
<g id="edge17" class="edge">
<title>16&#45;&gt;17</title>
<path fill="none" stroke="black" d="M814.33,-88.95C803.16,-79.53 791.01,-69.27 779.89,-59.89"/>
<polygon fill="black" stroke="black" points="781.9,-57.01 772,-53.24 777.39,-62.36 781.9,-57.01"/>
</g>
<!-- 18 -->
<g id="node19" class="node">
<title>18</title>
<polygon fill="#f0b990" stroke="black" points="905,-53 806,-53 806,0 905,0 905,-53"/>
<text text-anchor="middle" x="855.5" y="-37.8" font-family="Times,serif" font-size="14.00">mse = 10.933</text>
<text text-anchor="middle" x="855.5" y="-22.8" font-family="Times,serif" font-size="14.00">samples = 28</text>
<text text-anchor="middle" x="855.5" y="-7.8" font-family="Times,serif" font-size="14.00">value = 32.339</text>
</g>
<!-- 16&#45;&gt;18 -->
<g id="edge18" class="edge">
<title>16&#45;&gt;18</title>
<path fill="none" stroke="black" d="M854.2,-88.95C854.37,-80.72 854.56,-71.85 854.74,-63.48"/>
<polygon fill="black" stroke="black" points="858.24,-63.31 854.96,-53.24 851.24,-63.16 858.24,-63.31"/>
</g>
<!-- 20 -->
<g id="node21" class="node">
<title>20</title>
<polygon fill="#fffefd" stroke="black" points="1009.5,-53 923.5,-53 923.5,0 1009.5,0 1009.5,-53"/>
<text text-anchor="middle" x="966.5" y="-37.8" font-family="Times,serif" font-size="14.00">mse = 0.0</text>
<text text-anchor="middle" x="966.5" y="-22.8" font-family="Times,serif" font-size="14.00">samples = 1</text>
<text text-anchor="middle" x="966.5" y="-7.8" font-family="Times,serif" font-size="14.00">value = 10.4</text>
</g>
<!-- 19&#45;&gt;20 -->
<g id="edge20" class="edge">
<title>19&#45;&gt;20</title>
<path fill="none" stroke="black" d="M967.15,-88.95C967.06,-80.72 966.97,-71.85 966.88,-63.48"/>
<polygon fill="black" stroke="black" points="970.38,-63.2 966.77,-53.24 963.38,-63.27 970.38,-63.2"/>
</g>
<!-- 21 -->
<g id="node22" class="node">
<title>21</title>
<polygon fill="#fae6d8" stroke="black" points="1113.5,-53 1027.5,-53 1027.5,0 1113.5,0 1113.5,-53"/>
<text text-anchor="middle" x="1070.5" y="-37.8" font-family="Times,serif" font-size="14.00">mse = &#45;0.0</text>
<text text-anchor="middle" x="1070.5" y="-22.8" font-family="Times,serif" font-size="14.00">samples = 1</text>
<text text-anchor="middle" x="1070.5" y="-7.8" font-family="Times,serif" font-size="14.00">value = 17.8</text>
</g>
<!-- 19&#45;&gt;21 -->
<g id="edge21" class="edge">
<title>19&#45;&gt;21</title>
<path fill="none" stroke="black" d="M1003.52,-88.95C1013.69,-79.62 1024.75,-69.47 1034.9,-60.16"/>
<polygon fill="black" stroke="black" points="1037.45,-62.58 1042.45,-53.24 1032.71,-57.42 1037.45,-62.58"/>
</g>
<!-- 23 -->
<g id="node24" class="node">
<title>23</title>
<polygon fill="#e89152" stroke="black" points="1241.5,-157 1121.5,-157 1121.5,-89 1241.5,-89 1241.5,-157"/>
<text text-anchor="middle" x="1181.5" y="-141.8" font-family="Times,serif" font-size="14.00">PTRATIO &lt;= 17.6</text>
<text text-anchor="middle" x="1181.5" y="-126.8" font-family="Times,serif" font-size="14.00">mse = 18.391</text>
<text text-anchor="middle" x="1181.5" y="-111.8" font-family="Times,serif" font-size="14.00">samples = 22</text>
<text text-anchor="middle" x="1181.5" y="-96.8" font-family="Times,serif" font-size="14.00">value = 44.968</text>
</g>
<!-- 22&#45;&gt;23 -->
<g id="edge23" class="edge">
<title>22&#45;&gt;23</title>
<path fill="none" stroke="black" d="M1181.5,-192.88C1181.5,-184.78 1181.5,-175.98 1181.5,-167.47"/>
<polygon fill="black" stroke="black" points="1185,-167.3 1181.5,-157.3 1178,-167.3 1185,-167.3"/>
</g>
<!-- 26 -->
<g id="node27" class="node">
<title>26</title>
<polygon fill="#f7dac4" stroke="black" points="1345.5,-149.5 1259.5,-149.5 1259.5,-96.5 1345.5,-96.5 1345.5,-149.5"/>
<text text-anchor="middle" x="1302.5" y="-134.3" font-family="Times,serif" font-size="14.00">mse = 0.0</text>
<text text-anchor="middle" x="1302.5" y="-119.3" font-family="Times,serif" font-size="14.00">samples = 1</text>
<text text-anchor="middle" x="1302.5" y="-104.3" font-family="Times,serif" font-size="14.00">value = 21.9</text>
</g>
<!-- 22&#45;&gt;26 -->
<g id="edge26" class="edge">
<title>22&#45;&gt;26</title>
<path fill="none" stroke="black" d="M1220.79,-192.88C1234.74,-181.12 1250.43,-167.89 1264.3,-156.2"/>
<polygon fill="black" stroke="black" points="1266.84,-158.64 1272.23,-149.52 1262.32,-153.29 1266.84,-158.64"/>
</g>
<!-- 24 -->
<g id="node25" class="node">
<title>24</title>
<polygon fill="#e78c4b" stroke="black" points="1231,-53 1132,-53 1132,0 1231,0 1231,-53"/>
<text text-anchor="middle" x="1181.5" y="-37.8" font-family="Times,serif" font-size="14.00">mse = 11.865</text>
<text text-anchor="middle" x="1181.5" y="-22.8" font-family="Times,serif" font-size="14.00">samples = 17</text>
<text text-anchor="middle" x="1181.5" y="-7.8" font-family="Times,serif" font-size="14.00">value = 46.412</text>
</g>
<!-- 23&#45;&gt;24 -->
<g id="edge24" class="edge">
<title>23&#45;&gt;24</title>
<path fill="none" stroke="black" d="M1181.5,-88.95C1181.5,-80.72 1181.5,-71.85 1181.5,-63.48"/>
<polygon fill="black" stroke="black" points="1185,-63.24 1181.5,-53.24 1178,-63.24 1185,-63.24"/>
</g>
<!-- 25 -->
<g id="node26" class="node">
<title>25</title>
<polygon fill="#eba06a" stroke="black" points="1341.5,-53 1249.5,-53 1249.5,0 1341.5,0 1341.5,-53"/>
<text text-anchor="middle" x="1295.5" y="-37.8" font-family="Times,serif" font-size="14.00">mse = 9.406</text>
<text text-anchor="middle" x="1295.5" y="-22.8" font-family="Times,serif" font-size="14.00">samples = 5</text>
<text text-anchor="middle" x="1295.5" y="-7.8" font-family="Times,serif" font-size="14.00">value = 40.06</text>
</g>
<!-- 23&#45;&gt;25 -->
<g id="edge25" class="edge">
<title>23&#45;&gt;25</title>
<path fill="none" stroke="black" d="M1221.37,-88.95C1232.74,-79.53 1245.11,-69.27 1256.43,-59.89"/>
<polygon fill="black" stroke="black" points="1258.99,-62.31 1264.45,-53.24 1254.52,-56.92 1258.99,-62.31"/>
</g>
</g>
</svg>
