<?xml version="1.0" encoding="UTF-8" standalone="no"?>
<!DOCTYPE svg PUBLIC "-//W3C//DTD SVG 1.1//EN"
 "http://www.w3.org/Graphics/SVG/1.1/DTD/svg11.dtd">
<!-- Generated by graphviz version 2.46.1 (20210213.1702)
 -->
<!-- Title: Tree Pages: 1 -->
<svg width="1551pt" height="477pt"
 viewBox="0.00 0.00 1550.50 477.00" xmlns="http://www.w3.org/2000/svg" xmlns:xlink="http://www.w3.org/1999/xlink">
<g id="graph0" class="graph" transform="scale(1 1) rotate(0) translate(4 473)">
<title>Tree</title>
<polygon fill="white" stroke="transparent" points="-4,4 -4,-473 1546.5,-473 1546.5,4 -4,4"/>
<!-- 0 -->
<g id="node1" class="node">
<title>0</title>
<polygon fill="#f6d5bd" stroke="black" points="935.5,-469 836.5,-469 836.5,-401 935.5,-401 935.5,-469"/>
<text text-anchor="middle" x="886" y="-453.8" font-family="Times,serif" font-size="14.00">RM &lt;= 6.797</text>
<text text-anchor="middle" x="886" y="-438.8" font-family="Times,serif" font-size="14.00">mse = 82.789</text>
<text text-anchor="middle" x="886" y="-423.8" font-family="Times,serif" font-size="14.00">samples = 354</text>
<text text-anchor="middle" x="886" y="-408.8" font-family="Times,serif" font-size="14.00">value = 22.494</text>
</g>
<!-- 1 -->
<g id="node2" class="node">
<title>1</title>
<polygon fill="#f8decb" stroke="black" points="719.5,-365 614.5,-365 614.5,-297 719.5,-297 719.5,-365"/>
<text text-anchor="middle" x="667" y="-349.8" font-family="Times,serif" font-size="14.00">LSTAT &lt;= 15.0</text>
<text text-anchor="middle" x="667" y="-334.8" font-family="Times,serif" font-size="14.00">mse = 36.561</text>
<text text-anchor="middle" x="667" y="-319.8" font-family="Times,serif" font-size="14.00">samples = 288</text>
<text text-anchor="middle" x="667" y="-304.8" font-family="Times,serif" font-size="14.00">value = 19.481</text>
</g>
<!-- 0&#45;&gt;1 -->
<g id="edge1" class="edge">
<title>0&#45;&gt;1</title>
<path fill="none" stroke="black" d="M836.31,-410.85C804.47,-396.03 762.9,-376.67 728.92,-360.84"/>
<polygon fill="black" stroke="black" points="730.09,-357.53 719.55,-356.48 727.14,-363.87 730.09,-357.53"/>
<text text-anchor="middle" x="728.11" y="-376.26" font-family="Times,serif" font-size="14.00">True</text>
</g>
<!-- 16 -->
<g id="node17" class="node">
<title>16</title>
<polygon fill="#eead7e" stroke="black" points="1156.5,-365 1057.5,-365 1057.5,-297 1156.5,-297 1156.5,-365"/>
<text text-anchor="middle" x="1107" y="-349.8" font-family="Times,serif" font-size="14.00">RM &lt;= 7.435</text>
<text text-anchor="middle" x="1107" y="-334.8" font-family="Times,serif" font-size="14.00">mse = 71.925</text>
<text text-anchor="middle" x="1107" y="-319.8" font-family="Times,serif" font-size="14.00">samples = 66</text>
<text text-anchor="middle" x="1107" y="-304.8" font-family="Times,serif" font-size="14.00">value = 35.645</text>
</g>
<!-- 0&#45;&gt;16 -->
<g id="edge16" class="edge">
<title>0&#45;&gt;16</title>
<path fill="none" stroke="black" d="M935.6,-411.11C968.89,-395.74 1012.91,-375.42 1048.01,-359.23"/>
<polygon fill="black" stroke="black" points="1049.57,-362.36 1057.19,-354.99 1046.64,-356 1049.57,-362.36"/>
<text text-anchor="middle" x="1048.54" y="-374.75" font-family="Times,serif" font-size="14.00">False</text>
</g>
<!-- 2 -->
<g id="node3" class="node">
<title>2</title>
<polygon fill="#f6d4bb" stroke="black" points="373.5,-261 274.5,-261 274.5,-193 373.5,-193 373.5,-261"/>
<text text-anchor="middle" x="324" y="-245.8" font-family="Times,serif" font-size="14.00">DIS &lt;= 1.385</text>
<text text-anchor="middle" x="324" y="-230.8" font-family="Times,serif" font-size="14.00">mse = 21.144</text>
<text text-anchor="middle" x="324" y="-215.8" font-family="Times,serif" font-size="14.00">samples = 176</text>
<text text-anchor="middle" x="324" y="-200.8" font-family="Times,serif" font-size="14.00">value = 22.841</text>
</g>
<!-- 1&#45;&gt;2 -->
<g id="edge2" class="edge">
<title>1&#45;&gt;2</title>
<path fill="none" stroke="black" d="M614.16,-314.29C551.78,-295.74 448.31,-264.97 383.26,-245.62"/>
<polygon fill="black" stroke="black" points="384.14,-242.23 373.56,-242.74 382.15,-248.94 384.14,-242.23"/>
</g>
<!-- 9 -->
<g id="node10" class="node">
<title>9</title>
<polygon fill="#fceee5" stroke="black" points="720.5,-261 613.5,-261 613.5,-193 720.5,-193 720.5,-261"/>
<text text-anchor="middle" x="667" y="-245.8" font-family="Times,serif" font-size="14.00">CRIM &lt;= 5.769</text>
<text text-anchor="middle" x="667" y="-230.8" font-family="Times,serif" font-size="14.00">mse = 15.144</text>
<text text-anchor="middle" x="667" y="-215.8" font-family="Times,serif" font-size="14.00">samples = 112</text>
<text text-anchor="middle" x="667" y="-200.8" font-family="Times,serif" font-size="14.00">value = 14.199</text>
</g>
<!-- 1&#45;&gt;9 -->
<g id="edge9" class="edge">
<title>1&#45;&gt;9</title>
<path fill="none" stroke="black" d="M667,-296.88C667,-288.78 667,-279.98 667,-271.47"/>
<polygon fill="black" stroke="black" points="670.5,-271.3 667,-261.3 663.5,-271.3 670.5,-271.3"/>
</g>
<!-- 3 -->
<g id="node4" class="node">
<title>3</title>
<polygon fill="#ea975c" stroke="black" points="197.5,-157 96.5,-157 96.5,-89 197.5,-89 197.5,-157"/>
<text text-anchor="middle" x="147" y="-141.8" font-family="Times,serif" font-size="14.00">NOX &lt;= 0.645</text>
<text text-anchor="middle" x="147" y="-126.8" font-family="Times,serif" font-size="14.00">mse = 108.536</text>
<text text-anchor="middle" x="147" y="-111.8" font-family="Times,serif" font-size="14.00">samples = 3</text>
<text text-anchor="middle" x="147" y="-96.8" font-family="Times,serif" font-size="14.00">value = 42.633</text>
</g>
<!-- 2&#45;&gt;3 -->
<g id="edge3" class="edge">
<title>2&#45;&gt;3</title>
<path fill="none" stroke="black" d="M274.22,-197.32C253.2,-185.2 228.53,-170.98 206.55,-158.32"/>
<polygon fill="black" stroke="black" points="208.04,-155.14 197.63,-153.18 204.55,-161.2 208.04,-155.14"/>
</g>
<!-- 6 -->
<g id="node7" class="node">
<title>6</title>
<polygon fill="#f6d5bd" stroke="black" points="380,-157 268,-157 268,-89 380,-89 380,-157"/>
<text text-anchor="middle" x="324" y="-141.8" font-family="Times,serif" font-size="14.00">LSTAT &lt;= 7.765</text>
<text text-anchor="middle" x="324" y="-126.8" font-family="Times,serif" font-size="14.00">mse = 12.718</text>
<text text-anchor="middle" x="324" y="-111.8" font-family="Times,serif" font-size="14.00">samples = 173</text>
<text text-anchor="middle" x="324" y="-96.8" font-family="Times,serif" font-size="14.00">value = 22.498</text>
</g>
<!-- 2&#45;&gt;6 -->
<g id="edge6" class="edge">
<title>2&#45;&gt;6</title>
<path fill="none" stroke="black" d="M324,-192.88C324,-184.78 324,-175.98 324,-167.47"/>
<polygon fill="black" stroke="black" points="327.5,-167.3 324,-157.3 320.5,-167.3 327.5,-167.3"/>
</g>
<!-- 4 -->
<g id="node5" class="node">
<title>4</title>
<polygon fill="#e58139" stroke="black" points="86,-53 0,-53 0,0 86,0 86,-53"/>
<text text-anchor="middle" x="43" y="-37.8" font-family="Times,serif" font-size="14.00">mse = 0.0</text>
<text text-anchor="middle" x="43" y="-22.8" font-family="Times,serif" font-size="14.00">samples = 2</text>
<text text-anchor="middle" x="43" y="-7.8" font-family="Times,serif" font-size="14.00">value = 50.0</text>
</g>
<!-- 3&#45;&gt;4 -->
<g id="edge4" class="edge">
<title>3&#45;&gt;4</title>
<path fill="none" stroke="black" d="M110.63,-88.95C100.36,-79.62 89.19,-69.47 78.95,-60.16"/>
<polygon fill="black" stroke="black" points="81.08,-57.37 71.32,-53.24 76.37,-62.55 81.08,-57.37"/>
</g>
<!-- 5 -->
<g id="node6" class="node">
<title>5</title>
<polygon fill="#f3c4a3" stroke="black" points="190,-53 104,-53 104,0 190,0 190,-53"/>
<text text-anchor="middle" x="147" y="-37.8" font-family="Times,serif" font-size="14.00">mse = &#45;0.0</text>
<text text-anchor="middle" x="147" y="-22.8" font-family="Times,serif" font-size="14.00">samples = 1</text>
<text text-anchor="middle" x="147" y="-7.8" font-family="Times,serif" font-size="14.00">value = 27.9</text>
</g>
<!-- 3&#45;&gt;5 -->
<g id="edge5" class="edge">
<title>3&#45;&gt;5</title>
<path fill="none" stroke="black" d="M147,-88.95C147,-80.72 147,-71.85 147,-63.48"/>
<polygon fill="black" stroke="black" points="150.5,-63.24 147,-53.24 143.5,-63.24 150.5,-63.24"/>
</g>
<!-- 7 -->
<g id="node8" class="node">
<title>7</title>
<polygon fill="#f4ccaf" stroke="black" points="307.5,-53 208.5,-53 208.5,0 307.5,0 307.5,-53"/>
<text text-anchor="middle" x="258" y="-37.8" font-family="Times,serif" font-size="14.00">mse = 9.367</text>
<text text-anchor="middle" x="258" y="-22.8" font-family="Times,serif" font-size="14.00">samples = 52</text>
<text text-anchor="middle" x="258" y="-7.8" font-family="Times,serif" font-size="14.00">value = 25.365</text>
</g>
<!-- 6&#45;&gt;7 -->
<g id="edge7" class="edge">
<title>6&#45;&gt;7</title>
<path fill="none" stroke="black" d="M300.92,-88.95C294.72,-80.07 288.01,-70.46 281.77,-61.54"/>
<polygon fill="black" stroke="black" points="284.57,-59.43 275.97,-53.24 278.83,-63.44 284.57,-59.43"/>
</g>
<!-- 8 -->
<g id="node9" class="node">
<title>8</title>
<polygon fill="#f7d9c3" stroke="black" points="424.5,-53 325.5,-53 325.5,0 424.5,0 424.5,-53"/>
<text text-anchor="middle" x="375" y="-37.8" font-family="Times,serif" font-size="14.00">mse = 9.106</text>
<text text-anchor="middle" x="375" y="-22.8" font-family="Times,serif" font-size="14.00">samples = 121</text>
<text text-anchor="middle" x="375" y="-7.8" font-family="Times,serif" font-size="14.00">value = 21.266</text>
</g>
<!-- 6&#45;&gt;8 -->
<g id="edge8" class="edge">
<title>6&#45;&gt;8</title>
<path fill="none" stroke="black" d="M341.84,-88.95C346.53,-80.26 351.6,-70.86 356.33,-62.09"/>
<polygon fill="black" stroke="black" points="359.44,-63.7 361.11,-53.24 353.28,-60.37 359.44,-63.7"/>
</g>
<!-- 10 -->
<g id="node11" class="node">
<title>10</title>
<polygon fill="#fae7d9" stroke="black" points="653.5,-157 554.5,-157 554.5,-89 653.5,-89 653.5,-157"/>
<text text-anchor="middle" x="604" y="-141.8" font-family="Times,serif" font-size="14.00">TAX &lt;= 305.5</text>
<text text-anchor="middle" x="604" y="-126.8" font-family="Times,serif" font-size="14.00">mse = 8.426</text>
<text text-anchor="middle" x="604" y="-111.8" font-family="Times,serif" font-size="14.00">samples = 55</text>
<text text-anchor="middle" x="604" y="-96.8" font-family="Times,serif" font-size="14.00">value = 16.549</text>
</g>
<!-- 9&#45;&gt;10 -->
<g id="edge10" class="edge">
<title>9&#45;&gt;10</title>
<path fill="none" stroke="black" d="M646.55,-192.88C641.26,-184.33 635.51,-175.01 629.99,-166.07"/>
<polygon fill="black" stroke="black" points="632.8,-163.97 624.57,-157.3 626.84,-167.65 632.8,-163.97"/>
</g>
<!-- 13 -->
<g id="node14" class="node">
<title>13</title>
<polygon fill="#fdf5ef" stroke="black" points="790.5,-157 671.5,-157 671.5,-89 790.5,-89 790.5,-157"/>
<text text-anchor="middle" x="731" y="-141.8" font-family="Times,serif" font-size="14.00">LSTAT &lt;= 26.425</text>
<text text-anchor="middle" x="731" y="-126.8" font-family="Times,serif" font-size="14.00">mse = 11.155</text>
<text text-anchor="middle" x="731" y="-111.8" font-family="Times,serif" font-size="14.00">samples = 57</text>
<text text-anchor="middle" x="731" y="-96.8" font-family="Times,serif" font-size="14.00">value = 11.932</text>
</g>
<!-- 9&#45;&gt;13 -->
<g id="edge13" class="edge">
<title>9&#45;&gt;13</title>
<path fill="none" stroke="black" d="M687.78,-192.88C693.2,-184.24 699.11,-174.82 704.78,-165.79"/>
<polygon fill="black" stroke="black" points="707.76,-167.63 710.11,-157.3 701.83,-163.91 707.76,-167.63"/>
</g>
<!-- 11 -->
<g id="node12" class="node">
<title>11</title>
<polygon fill="#f9e0ce" stroke="black" points="541.5,-53 442.5,-53 442.5,0 541.5,0 541.5,-53"/>
<text text-anchor="middle" x="492" y="-37.8" font-family="Times,serif" font-size="14.00">mse = 6.21</text>
<text text-anchor="middle" x="492" y="-22.8" font-family="Times,serif" font-size="14.00">samples = 13</text>
<text text-anchor="middle" x="492" y="-7.8" font-family="Times,serif" font-size="14.00">value = 18.962</text>
</g>
<!-- 10&#45;&gt;11 -->
<g id="edge11" class="edge">
<title>10&#45;&gt;11</title>
<path fill="none" stroke="black" d="M564.83,-88.95C553.66,-79.53 541.51,-69.27 530.39,-59.89"/>
<polygon fill="black" stroke="black" points="532.4,-57.01 522.5,-53.24 527.89,-62.36 532.4,-57.01"/>
</g>
<!-- 12 -->
<g id="node13" class="node">
<title>12</title>
<polygon fill="#fbe9dd" stroke="black" points="658.5,-53 559.5,-53 559.5,0 658.5,0 658.5,-53"/>
<text text-anchor="middle" x="609" y="-37.8" font-family="Times,serif" font-size="14.00">mse = 6.754</text>
<text text-anchor="middle" x="609" y="-22.8" font-family="Times,serif" font-size="14.00">samples = 42</text>
<text text-anchor="middle" x="609" y="-7.8" font-family="Times,serif" font-size="14.00">value = 15.802</text>
</g>
<!-- 10&#45;&gt;12 -->
<g id="edge12" class="edge">
<title>10&#45;&gt;12</title>
<path fill="none" stroke="black" d="M605.75,-88.95C606.18,-80.72 606.65,-71.85 607.1,-63.48"/>
<polygon fill="black" stroke="black" points="610.6,-63.41 607.64,-53.24 603.61,-63.04 610.6,-63.41"/>
</g>
<!-- 14 -->
<g id="node15" class="node">
<title>14</title>
<polygon fill="#fcf1e9" stroke="black" points="775.5,-53 676.5,-53 676.5,0 775.5,0 775.5,-53"/>
<text text-anchor="middle" x="726" y="-37.8" font-family="Times,serif" font-size="14.00">mse = 7.348</text>
<text text-anchor="middle" x="726" y="-22.8" font-family="Times,serif" font-size="14.00">samples = 41</text>
<text text-anchor="middle" x="726" y="-7.8" font-family="Times,serif" font-size="14.00">value = 13.202</text>
</g>
<!-- 13&#45;&gt;14 -->
<g id="edge14" class="edge">
<title>13&#45;&gt;14</title>
<path fill="none" stroke="black" d="M729.25,-88.95C728.82,-80.72 728.35,-71.85 727.9,-63.48"/>
<polygon fill="black" stroke="black" points="731.39,-63.04 727.36,-53.24 724.4,-63.41 731.39,-63.04"/>
</g>
<!-- 15 -->
<g id="node16" class="node">
<title>15</title>
<polygon fill="#ffffff" stroke="black" points="886,-53 794,-53 794,0 886,0 886,-53"/>
<text text-anchor="middle" x="840" y="-37.8" font-family="Times,serif" font-size="14.00">mse = 6.167</text>
<text text-anchor="middle" x="840" y="-22.8" font-family="Times,serif" font-size="14.00">samples = 16</text>
<text text-anchor="middle" x="840" y="-7.8" font-family="Times,serif" font-size="14.00">value = 8.675</text>
</g>
<!-- 13&#45;&gt;15 -->
<g id="edge15" class="edge">
<title>13&#45;&gt;15</title>
<path fill="none" stroke="black" d="M769.12,-88.95C779.99,-79.53 791.82,-69.27 802.64,-59.89"/>
<polygon fill="black" stroke="black" points="805.05,-62.43 810.31,-53.24 800.47,-57.14 805.05,-62.43"/>
</g>
<!-- 17 -->
<g id="node18" class="node">
<title>17</title>
<polygon fill="#f1b992" stroke="black" points="1157.5,-261 1056.5,-261 1056.5,-193 1157.5,-193 1157.5,-261"/>
<text text-anchor="middle" x="1107" y="-245.8" font-family="Times,serif" font-size="14.00">NOX &lt;= 0.659</text>
<text text-anchor="middle" x="1107" y="-230.8" font-family="Times,serif" font-size="14.00">mse = 31.28</text>
<text text-anchor="middle" x="1107" y="-215.8" font-family="Times,serif" font-size="14.00">samples = 45</text>
<text text-anchor="middle" x="1107" y="-200.8" font-family="Times,serif" font-size="14.00">value = 31.529</text>
</g>
<!-- 16&#45;&gt;17 -->
<g id="edge17" class="edge">
<title>16&#45;&gt;17</title>
<path fill="none" stroke="black" d="M1107,-296.88C1107,-288.78 1107,-279.98 1107,-271.47"/>
<polygon fill="black" stroke="black" points="1110.5,-271.3 1107,-261.3 1103.5,-271.3 1110.5,-271.3"/>
</g>
<!-- 24 -->
<g id="node25" class="node">
<title>24</title>
<polygon fill="#e89254" stroke="black" points="1426.5,-261 1325.5,-261 1325.5,-193 1426.5,-193 1426.5,-261"/>
<text text-anchor="middle" x="1376" y="-245.8" font-family="Times,serif" font-size="14.00">NOX &lt;= 0.683</text>
<text text-anchor="middle" x="1376" y="-230.8" font-family="Times,serif" font-size="14.00">mse = 44.896</text>
<text text-anchor="middle" x="1376" y="-215.8" font-family="Times,serif" font-size="14.00">samples = 21</text>
<text text-anchor="middle" x="1376" y="-200.8" font-family="Times,serif" font-size="14.00">value = 44.467</text>
</g>
<!-- 16&#45;&gt;24 -->
<g id="edge24" class="edge">
<title>16&#45;&gt;24</title>
<path fill="none" stroke="black" d="M1156.65,-311.17C1201.53,-294.16 1267.71,-269.06 1315.64,-250.89"/>
<polygon fill="black" stroke="black" points="1317.16,-254.06 1325.27,-247.24 1314.68,-247.51 1317.16,-254.06"/>
</g>
<!-- 18 -->
<g id="node19" class="node">
<title>18</title>
<polygon fill="#f0b78e" stroke="black" points="1099.5,-157 1000.5,-157 1000.5,-89 1099.5,-89 1099.5,-157"/>
<text text-anchor="middle" x="1050" y="-141.8" font-family="Times,serif" font-size="14.00">DIS &lt;= 1.334</text>
<text text-anchor="middle" x="1050" y="-126.8" font-family="Times,serif" font-size="14.00">mse = 21.503</text>
<text text-anchor="middle" x="1050" y="-111.8" font-family="Times,serif" font-size="14.00">samples = 43</text>
<text text-anchor="middle" x="1050" y="-96.8" font-family="Times,serif" font-size="14.00">value = 32.233</text>
</g>
<!-- 17&#45;&gt;18 -->
<g id="edge18" class="edge">
<title>17&#45;&gt;18</title>
<path fill="none" stroke="black" d="M1088.49,-192.88C1083.72,-184.33 1078.51,-175.01 1073.51,-166.07"/>
<polygon fill="black" stroke="black" points="1076.54,-164.32 1068.61,-157.3 1070.43,-167.74 1076.54,-164.32"/>
</g>
<!-- 21 -->
<g id="node22" class="node">
<title>21</title>
<polygon fill="#fae7da" stroke="black" points="1210.5,-157 1117.5,-157 1117.5,-89 1210.5,-89 1210.5,-157"/>
<text text-anchor="middle" x="1164" y="-141.8" font-family="Times,serif" font-size="14.00">DIS &lt;= 1.884</text>
<text text-anchor="middle" x="1164" y="-126.8" font-family="Times,serif" font-size="14.00">mse = 1.96</text>
<text text-anchor="middle" x="1164" y="-111.8" font-family="Times,serif" font-size="14.00">samples = 2</text>
<text text-anchor="middle" x="1164" y="-96.8" font-family="Times,serif" font-size="14.00">value = 16.4</text>
</g>
<!-- 17&#45;&gt;21 -->
<g id="edge21" class="edge">
<title>17&#45;&gt;21</title>
<path fill="none" stroke="black" d="M1125.51,-192.88C1130.28,-184.33 1135.49,-175.01 1140.49,-166.07"/>
<polygon fill="black" stroke="black" points="1143.57,-167.74 1145.39,-157.3 1137.46,-164.32 1143.57,-167.74"/>
</g>
<!-- 19 -->
<g id="node20" class="node">
<title>19</title>
<polygon fill="#e58139" stroke="black" points="990,-53 904,-53 904,0 990,0 990,-53"/>
<text text-anchor="middle" x="947" y="-37.8" font-family="Times,serif" font-size="14.00">mse = 0.0</text>
<text text-anchor="middle" x="947" y="-22.8" font-family="Times,serif" font-size="14.00">samples = 1</text>
<text text-anchor="middle" x="947" y="-7.8" font-family="Times,serif" font-size="14.00">value = 50.0</text>
</g>
<!-- 18&#45;&gt;19 -->
<g id="edge19" class="edge">
<title>18&#45;&gt;19</title>
<path fill="none" stroke="black" d="M1013.98,-88.95C1003.81,-79.62 992.75,-69.47 982.6,-60.16"/>
<polygon fill="black" stroke="black" points="984.79,-57.42 975.05,-53.24 980.05,-62.58 984.79,-57.42"/>
</g>
<!-- 20 -->
<g id="node21" class="node">
<title>20</title>
<polygon fill="#f0b890" stroke="black" points="1100,-53 1008,-53 1008,0 1100,0 1100,-53"/>
<text text-anchor="middle" x="1054" y="-37.8" font-family="Times,serif" font-size="14.00">mse = 14.319</text>
<text text-anchor="middle" x="1054" y="-22.8" font-family="Times,serif" font-size="14.00">samples = 42</text>
<text text-anchor="middle" x="1054" y="-7.8" font-family="Times,serif" font-size="14.00">value = 31.81</text>
</g>
<!-- 18&#45;&gt;20 -->
<g id="edge20" class="edge">
<title>18&#45;&gt;20</title>
<path fill="none" stroke="black" d="M1051.4,-88.95C1051.75,-80.72 1052.12,-71.85 1052.48,-63.48"/>
<polygon fill="black" stroke="black" points="1055.98,-63.38 1052.91,-53.24 1048.99,-63.08 1055.98,-63.38"/>
</g>
<!-- 22 -->
<g id="node23" class="node">
<title>22</title>
<polygon fill="#fbece1" stroke="black" points="1204,-53 1118,-53 1118,0 1204,0 1204,-53"/>
<text text-anchor="middle" x="1161" y="-37.8" font-family="Times,serif" font-size="14.00">mse = 0.0</text>
<text text-anchor="middle" x="1161" y="-22.8" font-family="Times,serif" font-size="14.00">samples = 1</text>
<text text-anchor="middle" x="1161" y="-7.8" font-family="Times,serif" font-size="14.00">value = 15.0</text>
</g>
<!-- 21&#45;&gt;22 -->
<g id="edge22" class="edge">
<title>21&#45;&gt;22</title>
<path fill="none" stroke="black" d="M1162.95,-88.95C1162.69,-80.72 1162.41,-71.85 1162.14,-63.48"/>
<polygon fill="black" stroke="black" points="1165.63,-63.12 1161.82,-53.24 1158.64,-63.34 1165.63,-63.12"/>
</g>
<!-- 23 -->
<g id="node24" class="node">
<title>23</title>
<polygon fill="#f9e3d3" stroke="black" points="1308,-53 1222,-53 1222,0 1308,0 1308,-53"/>
<text text-anchor="middle" x="1265" y="-37.8" font-family="Times,serif" font-size="14.00">mse = 0.0</text>
<text text-anchor="middle" x="1265" y="-22.8" font-family="Times,serif" font-size="14.00">samples = 1</text>
<text text-anchor="middle" x="1265" y="-7.8" font-family="Times,serif" font-size="14.00">value = 17.8</text>
</g>
<!-- 21&#45;&gt;23 -->
<g id="edge23" class="edge">
<title>21&#45;&gt;23</title>
<path fill="none" stroke="black" d="M1199.32,-88.95C1209.3,-79.62 1220.14,-69.47 1230.09,-60.16"/>
<polygon fill="black" stroke="black" points="1232.58,-62.62 1237.49,-53.24 1227.8,-57.51 1232.58,-62.62"/>
</g>
<!-- 25 -->
<g id="node26" class="node">
<title>25</title>
<polygon fill="#e88e4e" stroke="black" points="1436,-157 1316,-157 1316,-89 1436,-89 1436,-157"/>
<text text-anchor="middle" x="1376" y="-141.8" font-family="Times,serif" font-size="14.00">PTRATIO &lt;= 17.9</text>
<text text-anchor="middle" x="1376" y="-126.8" font-family="Times,serif" font-size="14.00">mse = 20.404</text>
<text text-anchor="middle" x="1376" y="-111.8" font-family="Times,serif" font-size="14.00">samples = 20</text>
<text text-anchor="middle" x="1376" y="-96.8" font-family="Times,serif" font-size="14.00">value = 45.595</text>
</g>
<!-- 24&#45;&gt;25 -->
<g id="edge25" class="edge">
<title>24&#45;&gt;25</title>
<path fill="none" stroke="black" d="M1376,-192.88C1376,-184.78 1376,-175.98 1376,-167.47"/>
<polygon fill="black" stroke="black" points="1379.5,-167.3 1376,-157.3 1372.5,-167.3 1379.5,-167.3"/>
</g>
<!-- 28 -->
<g id="node29" class="node">
<title>28</title>
<polygon fill="#f7d7c0" stroke="black" points="1540,-149.5 1454,-149.5 1454,-96.5 1540,-96.5 1540,-149.5"/>
<text text-anchor="middle" x="1497" y="-134.3" font-family="Times,serif" font-size="14.00">mse = 0.0</text>
<text text-anchor="middle" x="1497" y="-119.3" font-family="Times,serif" font-size="14.00">samples = 1</text>
<text text-anchor="middle" x="1497" y="-104.3" font-family="Times,serif" font-size="14.00">value = 21.9</text>
</g>
<!-- 24&#45;&gt;28 -->
<g id="edge28" class="edge">
<title>24&#45;&gt;28</title>
<path fill="none" stroke="black" d="M1415.29,-192.88C1429.24,-181.12 1444.93,-167.89 1458.8,-156.2"/>
<polygon fill="black" stroke="black" points="1461.34,-158.64 1466.73,-149.52 1456.82,-153.29 1461.34,-158.64"/>
</g>
<!-- 26 -->
<g id="node27" class="node">
<title>26</title>
<polygon fill="#e78a48" stroke="black" points="1425.5,-53 1326.5,-53 1326.5,0 1425.5,0 1425.5,-53"/>
<text text-anchor="middle" x="1376" y="-37.8" font-family="Times,serif" font-size="14.00">mse = 13.221</text>
<text text-anchor="middle" x="1376" y="-22.8" font-family="Times,serif" font-size="14.00">samples = 16</text>
<text text-anchor="middle" x="1376" y="-7.8" font-family="Times,serif" font-size="14.00">value = 46.963</text>
</g>
<!-- 25&#45;&gt;26 -->
<g id="edge26" class="edge">
<title>25&#45;&gt;26</title>
<path fill="none" stroke="black" d="M1376,-88.95C1376,-80.72 1376,-71.85 1376,-63.48"/>
<polygon fill="black" stroke="black" points="1379.5,-63.24 1376,-53.24 1372.5,-63.24 1379.5,-63.24"/>
</g>
<!-- 27 -->
<g id="node28" class="node">
<title>27</title>
<polygon fill="#eb9f68" stroke="black" points="1542.5,-53 1443.5,-53 1443.5,0 1542.5,0 1542.5,-53"/>
<text text-anchor="middle" x="1493" y="-37.8" font-family="Times,serif" font-size="14.00">mse = 11.737</text>
<text text-anchor="middle" x="1493" y="-22.8" font-family="Times,serif" font-size="14.00">samples = 4</text>
<text text-anchor="middle" x="1493" y="-7.8" font-family="Times,serif" font-size="14.00">value = 40.125</text>
</g>
<!-- 25&#45;&gt;27 -->
<g id="edge27" class="edge">
<title>25&#45;&gt;27</title>
<path fill="none" stroke="black" d="M1416.92,-88.95C1428.7,-79.43 1441.53,-69.07 1453.24,-59.62"/>
<polygon fill="black" stroke="black" points="1455.56,-62.24 1461.14,-53.24 1451.16,-56.8 1455.56,-62.24"/>
</g>
</g>
</svg>
