<?xml version="1.0" encoding="UTF-8" standalone="no"?>
<!DOCTYPE svg PUBLIC "-//W3C//DTD SVG 1.1//EN"
 "http://www.w3.org/Graphics/SVG/1.1/DTD/svg11.dtd">
<!-- Generated by graphviz version 2.46.1 (20210213.1702)
 -->
<!-- Title: Tree Pages: 1 -->
<svg width="1560pt" height="477pt"
 viewBox="0.00 0.00 1559.50 477.00" xmlns="http://www.w3.org/2000/svg" xmlns:xlink="http://www.w3.org/1999/xlink">
<g id="graph0" class="graph" transform="scale(1 1) rotate(0) translate(4 473)">
<title>Tree</title>
<polygon fill="white" stroke="transparent" points="-4,4 -4,-473 1555.5,-473 1555.5,4 -4,4"/>
<!-- 0 -->
<g id="node1" class="node">
<title>0</title>
<polygon fill="#f7d6bf" stroke="black" points="937.5,-469 838.5,-469 838.5,-401 937.5,-401 937.5,-469"/>
<text text-anchor="middle" x="888" y="-453.8" font-family="Times,serif" font-size="14.00">RM &lt;= 6.838</text>
<text text-anchor="middle" x="888" y="-438.8" font-family="Times,serif" font-size="14.00">mse = 89.158</text>
<text text-anchor="middle" x="888" y="-423.8" font-family="Times,serif" font-size="14.00">samples = 354</text>
<text text-anchor="middle" x="888" y="-408.8" font-family="Times,serif" font-size="14.00">value = 23.192</text>
</g>
<!-- 1 -->
<g id="node2" class="node">
<title>1</title>
<polygon fill="#f9e0ce" stroke="black" points="714.5,-365 609.5,-365 609.5,-297 714.5,-297 714.5,-365"/>
<text text-anchor="middle" x="662" y="-349.8" font-family="Times,serif" font-size="14.00">LSTAT &lt;= 14.4</text>
<text text-anchor="middle" x="662" y="-334.8" font-family="Times,serif" font-size="14.00">mse = 39.863</text>
<text text-anchor="middle" x="662" y="-319.8" font-family="Times,serif" font-size="14.00">samples = 289</text>
<text text-anchor="middle" x="662" y="-304.8" font-family="Times,serif" font-size="14.00">value = 20.155</text>
</g>
<!-- 0&#45;&gt;1 -->
<g id="edge1" class="edge">
<title>0&#45;&gt;1</title>
<path fill="none" stroke="black" d="M838.4,-411.62C804.77,-396.43 760.05,-376.25 724.05,-360.01"/>
<polygon fill="black" stroke="black" points="725.18,-356.68 714.63,-355.75 722.3,-363.06 725.18,-356.68"/>
<text text-anchor="middle" x="723.47" y="-375.44" font-family="Times,serif" font-size="14.00">True</text>
</g>
<!-- 16 -->
<g id="node17" class="node">
<title>16</title>
<polygon fill="#eeab7c" stroke="black" points="1163.5,-365 1064.5,-365 1064.5,-297 1163.5,-297 1163.5,-365"/>
<text text-anchor="middle" x="1114" y="-349.8" font-family="Times,serif" font-size="14.00">RM &lt;= 7.437</text>
<text text-anchor="middle" x="1114" y="-334.8" font-family="Times,serif" font-size="14.00">mse = 84.943</text>
<text text-anchor="middle" x="1114" y="-319.8" font-family="Times,serif" font-size="14.00">samples = 65</text>
<text text-anchor="middle" x="1114" y="-304.8" font-family="Times,serif" font-size="14.00">value = 36.697</text>
</g>
<!-- 0&#45;&gt;16 -->
<g id="edge16" class="edge">
<title>0&#45;&gt;16</title>
<path fill="none" stroke="black" d="M937.6,-411.62C972.07,-396.06 1018.18,-375.25 1054.61,-358.8"/>
<polygon fill="black" stroke="black" points="1056.45,-361.81 1064.13,-354.51 1053.57,-355.43 1056.45,-361.81"/>
<text text-anchor="middle" x="1055.29" y="-374.19" font-family="Times,serif" font-size="14.00">False</text>
</g>
<!-- 2 -->
<g id="node3" class="node">
<title>2</title>
<polygon fill="#f6d5be" stroke="black" points="372.5,-261 273.5,-261 273.5,-193 372.5,-193 372.5,-261"/>
<text text-anchor="middle" x="323" y="-245.8" font-family="Times,serif" font-size="14.00">DIS &lt;= 1.385</text>
<text text-anchor="middle" x="323" y="-230.8" font-family="Times,serif" font-size="14.00">mse = 26.731</text>
<text text-anchor="middle" x="323" y="-215.8" font-family="Times,serif" font-size="14.00">samples = 174</text>
<text text-anchor="middle" x="323" y="-200.8" font-family="Times,serif" font-size="14.00">value = 23.446</text>
</g>
<!-- 1&#45;&gt;2 -->
<g id="edge2" class="edge">
<title>1&#45;&gt;2</title>
<path fill="none" stroke="black" d="M609.4,-314.17C547.93,-295.68 446.47,-265.15 382.26,-245.83"/>
<polygon fill="black" stroke="black" points="383.27,-242.48 372.68,-242.95 381.25,-249.18 383.27,-242.48"/>
</g>
<!-- 9 -->
<g id="node10" class="node">
<title>9</title>
<polygon fill="#fcf0e7" stroke="black" points="715.5,-261 608.5,-261 608.5,-193 715.5,-193 715.5,-261"/>
<text text-anchor="middle" x="662" y="-245.8" font-family="Times,serif" font-size="14.00">CRIM &lt;= 7.465</text>
<text text-anchor="middle" x="662" y="-230.8" font-family="Times,serif" font-size="14.00">mse = 18.552</text>
<text text-anchor="middle" x="662" y="-215.8" font-family="Times,serif" font-size="14.00">samples = 115</text>
<text text-anchor="middle" x="662" y="-200.8" font-family="Times,serif" font-size="14.00">value = 15.176</text>
</g>
<!-- 1&#45;&gt;9 -->
<g id="edge9" class="edge">
<title>1&#45;&gt;9</title>
<path fill="none" stroke="black" d="M662,-296.88C662,-288.78 662,-279.98 662,-271.47"/>
<polygon fill="black" stroke="black" points="665.5,-271.3 662,-261.3 658.5,-271.3 665.5,-271.3"/>
</g>
<!-- 3 -->
<g id="node4" class="node">
<title>3</title>
<polygon fill="#e99355" stroke="black" points="203,-157 91,-157 91,-89 203,-89 203,-157"/>
<text text-anchor="middle" x="147" y="-141.8" font-family="Times,serif" font-size="14.00">LSTAT &lt;= 10.83</text>
<text text-anchor="middle" x="147" y="-126.8" font-family="Times,serif" font-size="14.00">mse = 91.577</text>
<text text-anchor="middle" x="147" y="-111.8" font-family="Times,serif" font-size="14.00">samples = 4</text>
<text text-anchor="middle" x="147" y="-96.8" font-family="Times,serif" font-size="14.00">value = 44.475</text>
</g>
<!-- 2&#45;&gt;3 -->
<g id="edge3" class="edge">
<title>2&#45;&gt;3</title>
<path fill="none" stroke="black" d="M273.04,-197.04C254.09,-186.06 232.23,-173.4 212.1,-161.73"/>
<polygon fill="black" stroke="black" points="213.69,-158.61 203.28,-156.62 210.18,-164.66 213.69,-158.61"/>
</g>
<!-- 6 -->
<g id="node7" class="node">
<title>6</title>
<polygon fill="#f7d7c0" stroke="black" points="372.5,-157 273.5,-157 273.5,-89 372.5,-89 372.5,-157"/>
<text text-anchor="middle" x="323" y="-141.8" font-family="Times,serif" font-size="14.00">RM &lt;= 6.542</text>
<text text-anchor="middle" x="323" y="-126.8" font-family="Times,serif" font-size="14.00">mse = 14.555</text>
<text text-anchor="middle" x="323" y="-111.8" font-family="Times,serif" font-size="14.00">samples = 170</text>
<text text-anchor="middle" x="323" y="-96.8" font-family="Times,serif" font-size="14.00">value = 22.951</text>
</g>
<!-- 2&#45;&gt;6 -->
<g id="edge6" class="edge">
<title>2&#45;&gt;6</title>
<path fill="none" stroke="black" d="M323,-192.88C323,-184.78 323,-175.98 323,-167.47"/>
<polygon fill="black" stroke="black" points="326.5,-167.3 323,-157.3 319.5,-167.3 326.5,-167.3"/>
</g>
<!-- 4 -->
<g id="node5" class="node">
<title>4</title>
<polygon fill="#e58139" stroke="black" points="86,-53 0,-53 0,0 86,0 86,-53"/>
<text text-anchor="middle" x="43" y="-37.8" font-family="Times,serif" font-size="14.00">mse = 0.0</text>
<text text-anchor="middle" x="43" y="-22.8" font-family="Times,serif" font-size="14.00">samples = 3</text>
<text text-anchor="middle" x="43" y="-7.8" font-family="Times,serif" font-size="14.00">value = 50.0</text>
</g>
<!-- 3&#45;&gt;4 -->
<g id="edge4" class="edge">
<title>3&#45;&gt;4</title>
<path fill="none" stroke="black" d="M110.63,-88.95C100.36,-79.62 89.19,-69.47 78.95,-60.16"/>
<polygon fill="black" stroke="black" points="81.08,-57.37 71.32,-53.24 76.37,-62.55 81.08,-57.37"/>
</g>
<!-- 5 -->
<g id="node6" class="node">
<title>5</title>
<polygon fill="#f4c7a8" stroke="black" points="190,-53 104,-53 104,0 190,0 190,-53"/>
<text text-anchor="middle" x="147" y="-37.8" font-family="Times,serif" font-size="14.00">mse = &#45;0.0</text>
<text text-anchor="middle" x="147" y="-22.8" font-family="Times,serif" font-size="14.00">samples = 1</text>
<text text-anchor="middle" x="147" y="-7.8" font-family="Times,serif" font-size="14.00">value = 27.9</text>
</g>
<!-- 3&#45;&gt;5 -->
<g id="edge5" class="edge">
<title>3&#45;&gt;5</title>
<path fill="none" stroke="black" d="M147,-88.95C147,-80.72 147,-71.85 147,-63.48"/>
<polygon fill="black" stroke="black" points="150.5,-63.24 147,-53.24 143.5,-63.24 150.5,-63.24"/>
</g>
<!-- 7 -->
<g id="node8" class="node">
<title>7</title>
<polygon fill="#f7dac6" stroke="black" points="307.5,-53 208.5,-53 208.5,0 307.5,0 307.5,-53"/>
<text text-anchor="middle" x="258" y="-37.8" font-family="Times,serif" font-size="14.00">mse = 9.387</text>
<text text-anchor="middle" x="258" y="-22.8" font-family="Times,serif" font-size="14.00">samples = 137</text>
<text text-anchor="middle" x="258" y="-7.8" font-family="Times,serif" font-size="14.00">value = 21.895</text>
</g>
<!-- 6&#45;&gt;7 -->
<g id="edge7" class="edge">
<title>6&#45;&gt;7</title>
<path fill="none" stroke="black" d="M300.27,-88.95C294.16,-80.07 287.55,-70.46 281.41,-61.54"/>
<polygon fill="black" stroke="black" points="284.25,-59.49 275.7,-53.24 278.49,-63.46 284.25,-59.49"/>
</g>
<!-- 8 -->
<g id="node9" class="node">
<title>8</title>
<polygon fill="#f4c9aa" stroke="black" points="424.5,-53 325.5,-53 325.5,0 424.5,0 424.5,-53"/>
<text text-anchor="middle" x="375" y="-37.8" font-family="Times,serif" font-size="14.00">mse = 12.148</text>
<text text-anchor="middle" x="375" y="-22.8" font-family="Times,serif" font-size="14.00">samples = 33</text>
<text text-anchor="middle" x="375" y="-7.8" font-family="Times,serif" font-size="14.00">value = 27.336</text>
</g>
<!-- 6&#45;&gt;8 -->
<g id="edge8" class="edge">
<title>6&#45;&gt;8</title>
<path fill="none" stroke="black" d="M341.19,-88.95C345.97,-80.26 351.14,-70.86 355.97,-62.09"/>
<polygon fill="black" stroke="black" points="359.08,-63.69 360.84,-53.24 352.95,-60.31 359.08,-63.69"/>
</g>
<!-- 10 -->
<g id="node11" class="node">
<title>10</title>
<polygon fill="#fae9dc" stroke="black" points="652.5,-157 553.5,-157 553.5,-89 652.5,-89 652.5,-157"/>
<text text-anchor="middle" x="603" y="-141.8" font-family="Times,serif" font-size="14.00">B &lt;= 378.085</text>
<text text-anchor="middle" x="603" y="-126.8" font-family="Times,serif" font-size="14.00">mse = 10.33</text>
<text text-anchor="middle" x="603" y="-111.8" font-family="Times,serif" font-size="14.00">samples = 71</text>
<text text-anchor="middle" x="603" y="-96.8" font-family="Times,serif" font-size="14.00">value = 17.442</text>
</g>
<!-- 9&#45;&gt;10 -->
<g id="edge10" class="edge">
<title>9&#45;&gt;10</title>
<path fill="none" stroke="black" d="M642.84,-192.88C637.9,-184.33 632.51,-175.01 627.34,-166.07"/>
<polygon fill="black" stroke="black" points="630.3,-164.2 622.26,-157.3 624.24,-167.71 630.3,-164.2"/>
</g>
<!-- 13 -->
<g id="node14" class="node">
<title>13</title>
<polygon fill="#fefbf9" stroke="black" points="771.5,-157 670.5,-157 670.5,-89 771.5,-89 771.5,-157"/>
<text text-anchor="middle" x="721" y="-141.8" font-family="Times,serif" font-size="14.00">NOX &lt;= 0.675</text>
<text text-anchor="middle" x="721" y="-126.8" font-family="Times,serif" font-size="14.00">mse = 10.152</text>
<text text-anchor="middle" x="721" y="-111.8" font-family="Times,serif" font-size="14.00">samples = 44</text>
<text text-anchor="middle" x="721" y="-96.8" font-family="Times,serif" font-size="14.00">value = 11.518</text>
</g>
<!-- 9&#45;&gt;13 -->
<g id="edge13" class="edge">
<title>9&#45;&gt;13</title>
<path fill="none" stroke="black" d="M681.16,-192.88C686.1,-184.33 691.49,-175.01 696.66,-166.07"/>
<polygon fill="black" stroke="black" points="699.76,-167.71 701.74,-157.3 693.7,-164.2 699.76,-167.71"/>
</g>
<!-- 11 -->
<g id="node12" class="node">
<title>11</title>
<polygon fill="#fcf0e7" stroke="black" points="535,-53 443,-53 443,0 535,0 535,-53"/>
<text text-anchor="middle" x="489" y="-37.8" font-family="Times,serif" font-size="14.00">mse = 6.063</text>
<text text-anchor="middle" x="489" y="-22.8" font-family="Times,serif" font-size="14.00">samples = 25</text>
<text text-anchor="middle" x="489" y="-7.8" font-family="Times,serif" font-size="14.00">value = 15.16</text>
</g>
<!-- 10&#45;&gt;11 -->
<g id="edge11" class="edge">
<title>10&#45;&gt;11</title>
<path fill="none" stroke="black" d="M563.13,-88.95C551.76,-79.53 539.39,-69.27 528.07,-59.89"/>
<polygon fill="black" stroke="black" points="529.98,-56.92 520.05,-53.24 525.51,-62.31 529.98,-56.92"/>
</g>
<!-- 12 -->
<g id="node13" class="node">
<title>12</title>
<polygon fill="#fae5d6" stroke="black" points="652.5,-53 553.5,-53 553.5,0 652.5,0 652.5,-53"/>
<text text-anchor="middle" x="603" y="-37.8" font-family="Times,serif" font-size="14.00">mse = 8.279</text>
<text text-anchor="middle" x="603" y="-22.8" font-family="Times,serif" font-size="14.00">samples = 46</text>
<text text-anchor="middle" x="603" y="-7.8" font-family="Times,serif" font-size="14.00">value = 18.683</text>
</g>
<!-- 10&#45;&gt;12 -->
<g id="edge12" class="edge">
<title>10&#45;&gt;12</title>
<path fill="none" stroke="black" d="M603,-88.95C603,-80.72 603,-71.85 603,-63.48"/>
<polygon fill="black" stroke="black" points="606.5,-63.24 603,-53.24 599.5,-63.24 606.5,-63.24"/>
</g>
<!-- 14 -->
<g id="node15" class="node">
<title>14</title>
<polygon fill="#fdf4ee" stroke="black" points="769.5,-53 670.5,-53 670.5,0 769.5,0 769.5,-53"/>
<text text-anchor="middle" x="720" y="-37.8" font-family="Times,serif" font-size="14.00">mse = 6.985</text>
<text text-anchor="middle" x="720" y="-22.8" font-family="Times,serif" font-size="14.00">samples = 13</text>
<text text-anchor="middle" x="720" y="-7.8" font-family="Times,serif" font-size="14.00">value = 13.869</text>
</g>
<!-- 13&#45;&gt;14 -->
<g id="edge14" class="edge">
<title>13&#45;&gt;14</title>
<path fill="none" stroke="black" d="M720.65,-88.95C720.56,-80.72 720.47,-71.85 720.38,-63.48"/>
<polygon fill="black" stroke="black" points="723.88,-63.2 720.27,-53.24 716.88,-63.27 723.88,-63.2"/>
</g>
<!-- 15 -->
<g id="node16" class="node">
<title>15</title>
<polygon fill="#fffffe" stroke="black" points="886.5,-53 787.5,-53 787.5,0 886.5,0 886.5,-53"/>
<text text-anchor="middle" x="837" y="-37.8" font-family="Times,serif" font-size="14.00">mse = 8.19</text>
<text text-anchor="middle" x="837" y="-22.8" font-family="Times,serif" font-size="14.00">samples = 31</text>
<text text-anchor="middle" x="837" y="-7.8" font-family="Times,serif" font-size="14.00">value = 10.532</text>
</g>
<!-- 13&#45;&gt;15 -->
<g id="edge15" class="edge">
<title>13&#45;&gt;15</title>
<path fill="none" stroke="black" d="M761.57,-88.95C773.25,-79.43 785.97,-69.07 797.58,-59.62"/>
<polygon fill="black" stroke="black" points="799.87,-62.27 805.41,-53.24 795.44,-56.84 799.87,-62.27"/>
</g>
<!-- 17 -->
<g id="node18" class="node">
<title>17</title>
<polygon fill="#f1bc96" stroke="black" points="1164.5,-261 1063.5,-261 1063.5,-193 1164.5,-193 1164.5,-261"/>
<text text-anchor="middle" x="1114" y="-245.8" font-family="Times,serif" font-size="14.00">NOX &lt;= 0.659</text>
<text text-anchor="middle" x="1114" y="-230.8" font-family="Times,serif" font-size="14.00">mse = 45.973</text>
<text text-anchor="middle" x="1114" y="-215.8" font-family="Times,serif" font-size="14.00">samples = 39</text>
<text text-anchor="middle" x="1114" y="-200.8" font-family="Times,serif" font-size="14.00">value = 31.423</text>
</g>
<!-- 16&#45;&gt;17 -->
<g id="edge17" class="edge">
<title>16&#45;&gt;17</title>
<path fill="none" stroke="black" d="M1114,-296.88C1114,-288.78 1114,-279.98 1114,-271.47"/>
<polygon fill="black" stroke="black" points="1117.5,-271.3 1114,-261.3 1110.5,-271.3 1117.5,-271.3"/>
</g>
<!-- 24 -->
<g id="node25" class="node">
<title>24</title>
<polygon fill="#e99254" stroke="black" points="1448.5,-261 1321.5,-261 1321.5,-193 1448.5,-193 1448.5,-261"/>
<text text-anchor="middle" x="1385" y="-245.8" font-family="Times,serif" font-size="14.00">PTRATIO &lt;= 19.65</text>
<text text-anchor="middle" x="1385" y="-230.8" font-family="Times,serif" font-size="14.00">mse = 39.097</text>
<text text-anchor="middle" x="1385" y="-215.8" font-family="Times,serif" font-size="14.00">samples = 26</text>
<text text-anchor="middle" x="1385" y="-200.8" font-family="Times,serif" font-size="14.00">value = 44.608</text>
</g>
<!-- 16&#45;&gt;24 -->
<g id="edge24" class="edge">
<title>16&#45;&gt;24</title>
<path fill="none" stroke="black" d="M1163.71,-311.29C1205.16,-295.69 1264.82,-273.23 1311.75,-255.57"/>
<polygon fill="black" stroke="black" points="1313.13,-258.79 1321.26,-251.99 1310.67,-252.24 1313.13,-258.79"/>
</g>
<!-- 18 -->
<g id="node19" class="node">
<title>18</title>
<polygon fill="#f0b88f" stroke="black" points="1106.5,-157 1007.5,-157 1007.5,-89 1106.5,-89 1106.5,-157"/>
<text text-anchor="middle" x="1057" y="-141.8" font-family="Times,serif" font-size="14.00">DIS &lt;= 1.334</text>
<text text-anchor="middle" x="1057" y="-126.8" font-family="Times,serif" font-size="14.00">mse = 22.867</text>
<text text-anchor="middle" x="1057" y="-111.8" font-family="Times,serif" font-size="14.00">samples = 36</text>
<text text-anchor="middle" x="1057" y="-96.8" font-family="Times,serif" font-size="14.00">value = 32.842</text>
</g>
<!-- 17&#45;&gt;18 -->
<g id="edge18" class="edge">
<title>17&#45;&gt;18</title>
<path fill="none" stroke="black" d="M1095.49,-192.88C1090.72,-184.33 1085.51,-175.01 1080.51,-166.07"/>
<polygon fill="black" stroke="black" points="1083.54,-164.32 1075.61,-157.3 1077.43,-167.74 1083.54,-164.32"/>
</g>
<!-- 21 -->
<g id="node22" class="node">
<title>21</title>
<polygon fill="#fcf2eb" stroke="black" points="1217.5,-157 1124.5,-157 1124.5,-89 1217.5,-89 1217.5,-157"/>
<text text-anchor="middle" x="1171" y="-141.8" font-family="Times,serif" font-size="14.00">RM &lt;= 7.141</text>
<text text-anchor="middle" x="1171" y="-126.8" font-family="Times,serif" font-size="14.00">mse = 9.307</text>
<text text-anchor="middle" x="1171" y="-111.8" font-family="Times,serif" font-size="14.00">samples = 3</text>
<text text-anchor="middle" x="1171" y="-96.8" font-family="Times,serif" font-size="14.00">value = 14.4</text>
</g>
<!-- 17&#45;&gt;21 -->
<g id="edge21" class="edge">
<title>17&#45;&gt;21</title>
<path fill="none" stroke="black" d="M1132.51,-192.88C1137.28,-184.33 1142.49,-175.01 1147.49,-166.07"/>
<polygon fill="black" stroke="black" points="1150.57,-167.74 1152.39,-157.3 1144.46,-164.32 1150.57,-167.74"/>
</g>
<!-- 19 -->
<g id="node20" class="node">
<title>19</title>
<polygon fill="#e58139" stroke="black" points="991,-53 905,-53 905,0 991,0 991,-53"/>
<text text-anchor="middle" x="948" y="-37.8" font-family="Times,serif" font-size="14.00">mse = 0.0</text>
<text text-anchor="middle" x="948" y="-22.8" font-family="Times,serif" font-size="14.00">samples = 1</text>
<text text-anchor="middle" x="948" y="-7.8" font-family="Times,serif" font-size="14.00">value = 50.0</text>
</g>
<!-- 18&#45;&gt;19 -->
<g id="edge19" class="edge">
<title>18&#45;&gt;19</title>
<path fill="none" stroke="black" d="M1018.88,-88.95C1008.01,-79.53 996.18,-69.27 985.36,-59.89"/>
<polygon fill="black" stroke="black" points="987.53,-57.14 977.69,-53.24 982.95,-62.43 987.53,-57.14"/>
</g>
<!-- 20 -->
<g id="node21" class="node">
<title>20</title>
<polygon fill="#f1b991" stroke="black" points="1108.5,-53 1009.5,-53 1009.5,0 1108.5,0 1108.5,-53"/>
<text text-anchor="middle" x="1059" y="-37.8" font-family="Times,serif" font-size="14.00">mse = 14.869</text>
<text text-anchor="middle" x="1059" y="-22.8" font-family="Times,serif" font-size="14.00">samples = 35</text>
<text text-anchor="middle" x="1059" y="-7.8" font-family="Times,serif" font-size="14.00">value = 32.351</text>
</g>
<!-- 18&#45;&gt;20 -->
<g id="edge20" class="edge">
<title>18&#45;&gt;20</title>
<path fill="none" stroke="black" d="M1057.7,-88.95C1057.87,-80.72 1058.06,-71.85 1058.24,-63.48"/>
<polygon fill="black" stroke="black" points="1061.74,-63.31 1058.46,-53.24 1054.74,-63.16 1061.74,-63.31"/>
</g>
<!-- 22 -->
<g id="node23" class="node">
<title>22</title>
<polygon fill="#ffffff" stroke="black" points="1213,-53 1127,-53 1127,0 1213,0 1213,-53"/>
<text text-anchor="middle" x="1170" y="-37.8" font-family="Times,serif" font-size="14.00">mse = 0.0</text>
<text text-anchor="middle" x="1170" y="-22.8" font-family="Times,serif" font-size="14.00">samples = 1</text>
<text text-anchor="middle" x="1170" y="-7.8" font-family="Times,serif" font-size="14.00">value = 10.4</text>
</g>
<!-- 21&#45;&gt;22 -->
<g id="edge22" class="edge">
<title>21&#45;&gt;22</title>
<path fill="none" stroke="black" d="M1170.65,-88.95C1170.56,-80.72 1170.47,-71.85 1170.38,-63.48"/>
<polygon fill="black" stroke="black" points="1173.88,-63.2 1170.27,-53.24 1166.88,-63.27 1173.88,-63.2"/>
</g>
<!-- 23 -->
<g id="node24" class="node">
<title>23</title>
<polygon fill="#fbece1" stroke="black" points="1317,-53 1231,-53 1231,0 1317,0 1317,-53"/>
<text text-anchor="middle" x="1274" y="-37.8" font-family="Times,serif" font-size="14.00">mse = 1.96</text>
<text text-anchor="middle" x="1274" y="-22.8" font-family="Times,serif" font-size="14.00">samples = 2</text>
<text text-anchor="middle" x="1274" y="-7.8" font-family="Times,serif" font-size="14.00">value = 16.4</text>
</g>
<!-- 21&#45;&gt;23 -->
<g id="edge23" class="edge">
<title>21&#45;&gt;23</title>
<path fill="none" stroke="black" d="M1207.02,-88.95C1217.19,-79.62 1228.25,-69.47 1238.4,-60.16"/>
<polygon fill="black" stroke="black" points="1240.95,-62.58 1245.95,-53.24 1236.21,-57.42 1240.95,-62.58"/>
</g>
<!-- 25 -->
<g id="node26" class="node">
<title>25</title>
<polygon fill="#e88f4f" stroke="black" points="1445,-157 1325,-157 1325,-89 1445,-89 1445,-157"/>
<text text-anchor="middle" x="1385" y="-141.8" font-family="Times,serif" font-size="14.00">PTRATIO &lt;= 17.9</text>
<text text-anchor="middle" x="1385" y="-126.8" font-family="Times,serif" font-size="14.00">mse = 19.21</text>
<text text-anchor="middle" x="1385" y="-111.8" font-family="Times,serif" font-size="14.00">samples = 25</text>
<text text-anchor="middle" x="1385" y="-96.8" font-family="Times,serif" font-size="14.00">value = 45.516</text>
</g>
<!-- 24&#45;&gt;25 -->
<g id="edge25" class="edge">
<title>24&#45;&gt;25</title>
<path fill="none" stroke="black" d="M1385,-192.88C1385,-184.78 1385,-175.98 1385,-167.47"/>
<polygon fill="black" stroke="black" points="1388.5,-167.3 1385,-157.3 1381.5,-167.3 1388.5,-167.3"/>
</g>
<!-- 28 -->
<g id="node29" class="node">
<title>28</title>
<polygon fill="#f7dac6" stroke="black" points="1549,-149.5 1463,-149.5 1463,-96.5 1549,-96.5 1549,-149.5"/>
<text text-anchor="middle" x="1506" y="-134.3" font-family="Times,serif" font-size="14.00">mse = 0.0</text>
<text text-anchor="middle" x="1506" y="-119.3" font-family="Times,serif" font-size="14.00">samples = 1</text>
<text text-anchor="middle" x="1506" y="-104.3" font-family="Times,serif" font-size="14.00">value = 21.9</text>
</g>
<!-- 24&#45;&gt;28 -->
<g id="edge28" class="edge">
<title>24&#45;&gt;28</title>
<path fill="none" stroke="black" d="M1424.29,-192.88C1438.24,-181.12 1453.93,-167.89 1467.8,-156.2"/>
<polygon fill="black" stroke="black" points="1470.34,-158.64 1475.73,-149.52 1465.82,-153.29 1470.34,-158.64"/>
</g>
<!-- 26 -->
<g id="node27" class="node">
<title>26</title>
<polygon fill="#e78c4a" stroke="black" points="1434.5,-53 1335.5,-53 1335.5,0 1434.5,0 1434.5,-53"/>
<text text-anchor="middle" x="1385" y="-37.8" font-family="Times,serif" font-size="14.00">mse = 14.043</text>
<text text-anchor="middle" x="1385" y="-22.8" font-family="Times,serif" font-size="14.00">samples = 21</text>
<text text-anchor="middle" x="1385" y="-7.8" font-family="Times,serif" font-size="14.00">value = 46.543</text>
</g>
<!-- 25&#45;&gt;26 -->
<g id="edge26" class="edge">
<title>25&#45;&gt;26</title>
<path fill="none" stroke="black" d="M1385,-88.95C1385,-80.72 1385,-71.85 1385,-63.48"/>
<polygon fill="black" stroke="black" points="1388.5,-63.24 1385,-53.24 1381.5,-63.24 1388.5,-63.24"/>
</g>
<!-- 27 -->
<g id="node28" class="node">
<title>27</title>
<polygon fill="#eba06a" stroke="black" points="1551.5,-53 1452.5,-53 1452.5,0 1551.5,0 1551.5,-53"/>
<text text-anchor="middle" x="1502" y="-37.8" font-family="Times,serif" font-size="14.00">mse = 11.737</text>
<text text-anchor="middle" x="1502" y="-22.8" font-family="Times,serif" font-size="14.00">samples = 4</text>
<text text-anchor="middle" x="1502" y="-7.8" font-family="Times,serif" font-size="14.00">value = 40.125</text>
</g>
<!-- 25&#45;&gt;27 -->
<g id="edge27" class="edge">
<title>25&#45;&gt;27</title>
<path fill="none" stroke="black" d="M1425.92,-88.95C1437.7,-79.43 1450.53,-69.07 1462.24,-59.62"/>
<polygon fill="black" stroke="black" points="1464.56,-62.24 1470.14,-53.24 1460.16,-56.8 1464.56,-62.24"/>
</g>
</g>
</svg>
