<?xml version="1.0" encoding="UTF-8" standalone="no"?>
<!DOCTYPE svg PUBLIC "-//W3C//DTD SVG 1.1//EN"
 "http://www.w3.org/Graphics/SVG/1.1/DTD/svg11.dtd">
<!-- Generated by graphviz version 2.46.1 (20210213.1702)
 -->
<!-- Title: Tree Pages: 1 -->
<svg width="1772pt" height="477pt"
 viewBox="0.00 0.00 1772.00 477.00" xmlns="http://www.w3.org/2000/svg" xmlns:xlink="http://www.w3.org/1999/xlink">
<g id="graph0" class="graph" transform="scale(1 1) rotate(0) translate(4 473)">
<title>Tree</title>
<polygon fill="white" stroke="transparent" points="-4,4 -4,-473 1768,-473 1768,4 -4,4"/>
<!-- 0 -->
<g id="node1" class="node">
<title>0</title>
<polygon fill="#f7dac5" stroke="black" points="891.5,-469 792.5,-469 792.5,-401 891.5,-401 891.5,-469"/>
<text text-anchor="middle" x="842" y="-453.8" font-family="Times,serif" font-size="14.00">RM &lt;= 6.92</text>
<text text-anchor="middle" x="842" y="-438.8" font-family="Times,serif" font-size="14.00">mse = 74.336</text>
<text text-anchor="middle" x="842" y="-423.8" font-family="Times,serif" font-size="14.00">samples = 354</text>
<text text-anchor="middle" x="842" y="-408.8" font-family="Times,serif" font-size="14.00">value = 21.866</text>
</g>
<!-- 1 -->
<g id="node2" class="node">
<title>1</title>
<polygon fill="#f9e1d1" stroke="black" points="727.5,-365 622.5,-365 622.5,-297 727.5,-297 727.5,-365"/>
<text text-anchor="middle" x="675" y="-349.8" font-family="Times,serif" font-size="14.00">LSTAT &lt;= 15.0</text>
<text text-anchor="middle" x="675" y="-334.8" font-family="Times,serif" font-size="14.00">mse = 33.5</text>
<text text-anchor="middle" x="675" y="-319.8" font-family="Times,serif" font-size="14.00">samples = 307</text>
<text text-anchor="middle" x="675" y="-304.8" font-family="Times,serif" font-size="14.00">value = 19.546</text>
</g>
<!-- 0&#45;&gt;1 -->
<g id="edge1" class="edge">
<title>0&#45;&gt;1</title>
<path fill="none" stroke="black" d="M792.35,-403.67C774.75,-392.93 754.74,-380.7 736.29,-369.43"/>
<polygon fill="black" stroke="black" points="738.02,-366.39 727.66,-364.16 734.37,-372.36 738.02,-366.39"/>
<text text-anchor="middle" x="733.53" y="-384.76" font-family="Times,serif" font-size="14.00">True</text>
</g>
<!-- 16 -->
<g id="node17" class="node">
<title>16</title>
<polygon fill="#edaa7a" stroke="black" points="1182.5,-365 1083.5,-365 1083.5,-297 1182.5,-297 1182.5,-365"/>
<text text-anchor="middle" x="1133" y="-349.8" font-family="Times,serif" font-size="14.00">RM &lt;= 7.424</text>
<text text-anchor="middle" x="1133" y="-334.8" font-family="Times,serif" font-size="14.00">mse = 76.374</text>
<text text-anchor="middle" x="1133" y="-319.8" font-family="Times,serif" font-size="14.00">samples = 47</text>
<text text-anchor="middle" x="1133" y="-304.8" font-family="Times,serif" font-size="14.00">value = 37.017</text>
</g>
<!-- 0&#45;&gt;16 -->
<g id="edge16" class="edge">
<title>0&#45;&gt;16</title>
<path fill="none" stroke="black" d="M891.69,-416.58C941.97,-398.96 1019.72,-371.71 1073.31,-352.92"/>
<polygon fill="black" stroke="black" points="1074.74,-356.13 1083.02,-349.52 1072.43,-349.52 1074.74,-356.13"/>
<text text-anchor="middle" x="1072.19" y="-368.35" font-family="Times,serif" font-size="14.00">False</text>
</g>
<!-- 2 -->
<g id="node3" class="node">
<title>2</title>
<polygon fill="#f7d7c1" stroke="black" points="380.5,-261 281.5,-261 281.5,-193 380.5,-193 380.5,-261"/>
<text text-anchor="middle" x="331" y="-245.8" font-family="Times,serif" font-size="14.00">RM &lt;= 6.141</text>
<text text-anchor="middle" x="331" y="-230.8" font-family="Times,serif" font-size="14.00">mse = 18.981</text>
<text text-anchor="middle" x="331" y="-215.8" font-family="Times,serif" font-size="14.00">samples = 186</text>
<text text-anchor="middle" x="331" y="-200.8" font-family="Times,serif" font-size="14.00">value = 22.691</text>
</g>
<!-- 1&#45;&gt;2 -->
<g id="edge2" class="edge">
<title>1&#45;&gt;2</title>
<path fill="none" stroke="black" d="M622.38,-314.4C559.81,-295.85 455.65,-264.96 390.29,-245.58"/>
<polygon fill="black" stroke="black" points="391.13,-242.18 380.54,-242.69 389.14,-248.89 391.13,-242.18"/>
</g>
<!-- 9 -->
<g id="node10" class="node">
<title>9</title>
<polygon fill="#fcf1e9" stroke="black" points="728.5,-261 621.5,-261 621.5,-193 728.5,-193 728.5,-261"/>
<text text-anchor="middle" x="675" y="-245.8" font-family="Times,serif" font-size="14.00">CRIM &lt;= 5.769</text>
<text text-anchor="middle" x="675" y="-230.8" font-family="Times,serif" font-size="14.00">mse = 17.238</text>
<text text-anchor="middle" x="675" y="-215.8" font-family="Times,serif" font-size="14.00">samples = 121</text>
<text text-anchor="middle" x="675" y="-200.8" font-family="Times,serif" font-size="14.00">value = 14.712</text>
</g>
<!-- 1&#45;&gt;9 -->
<g id="edge9" class="edge">
<title>1&#45;&gt;9</title>
<path fill="none" stroke="black" d="M675,-296.88C675,-288.78 675,-279.98 675,-271.47"/>
<polygon fill="black" stroke="black" points="678.5,-271.3 675,-261.3 671.5,-271.3 678.5,-271.3"/>
</g>
<!-- 3 -->
<g id="node4" class="node">
<title>3</title>
<polygon fill="#f8dfcd" stroke="black" points="212.5,-157 107.5,-157 107.5,-89 212.5,-89 212.5,-157"/>
<text text-anchor="middle" x="160" y="-141.8" font-family="Times,serif" font-size="14.00">LSTAT &lt;= 7.41</text>
<text text-anchor="middle" x="160" y="-126.8" font-family="Times,serif" font-size="14.00">mse = 7.188</text>
<text text-anchor="middle" x="160" y="-111.8" font-family="Times,serif" font-size="14.00">samples = 90</text>
<text text-anchor="middle" x="160" y="-96.8" font-family="Times,serif" font-size="14.00">value = 20.269</text>
</g>
<!-- 2&#45;&gt;3 -->
<g id="edge3" class="edge">
<title>2&#45;&gt;3</title>
<path fill="none" stroke="black" d="M281.08,-196.22C262.44,-185.11 241.06,-172.35 221.5,-160.69"/>
<polygon fill="black" stroke="black" points="223.04,-157.53 212.66,-155.41 219.46,-163.54 223.04,-157.53"/>
</g>
<!-- 6 -->
<g id="node7" class="node">
<title>6</title>
<polygon fill="#f5d0b6" stroke="black" points="380.5,-157 281.5,-157 281.5,-89 380.5,-89 380.5,-157"/>
<text text-anchor="middle" x="331" y="-141.8" font-family="Times,serif" font-size="14.00">DIS &lt;= 1.468</text>
<text text-anchor="middle" x="331" y="-126.8" font-family="Times,serif" font-size="14.00">mse = 19.377</text>
<text text-anchor="middle" x="331" y="-111.8" font-family="Times,serif" font-size="14.00">samples = 96</text>
<text text-anchor="middle" x="331" y="-96.8" font-family="Times,serif" font-size="14.00">value = 24.963</text>
</g>
<!-- 2&#45;&gt;6 -->
<g id="edge6" class="edge">
<title>2&#45;&gt;6</title>
<path fill="none" stroke="black" d="M331,-192.88C331,-184.78 331,-175.98 331,-167.47"/>
<polygon fill="black" stroke="black" points="334.5,-167.3 331,-157.3 327.5,-167.3 334.5,-167.3"/>
</g>
<!-- 4 -->
<g id="node5" class="node">
<title>4</title>
<polygon fill="#f6d3bb" stroke="black" points="92,-53 0,-53 0,0 92,0 92,-53"/>
<text text-anchor="middle" x="46" y="-37.8" font-family="Times,serif" font-size="14.00">mse = 3.638</text>
<text text-anchor="middle" x="46" y="-22.8" font-family="Times,serif" font-size="14.00">samples = 5</text>
<text text-anchor="middle" x="46" y="-7.8" font-family="Times,serif" font-size="14.00">value = 23.96</text>
</g>
<!-- 3&#45;&gt;4 -->
<g id="edge4" class="edge">
<title>3&#45;&gt;4</title>
<path fill="none" stroke="black" d="M120.13,-88.95C108.76,-79.53 96.39,-69.27 85.07,-59.89"/>
<polygon fill="black" stroke="black" points="86.98,-56.92 77.05,-53.24 82.51,-62.31 86.98,-56.92"/>
</g>
<!-- 5 -->
<g id="node6" class="node">
<title>5</title>
<polygon fill="#f9e0ce" stroke="black" points="209.5,-53 110.5,-53 110.5,0 209.5,0 209.5,-53"/>
<text text-anchor="middle" x="160" y="-37.8" font-family="Times,serif" font-size="14.00">mse = 6.548</text>
<text text-anchor="middle" x="160" y="-22.8" font-family="Times,serif" font-size="14.00">samples = 85</text>
<text text-anchor="middle" x="160" y="-7.8" font-family="Times,serif" font-size="14.00">value = 20.052</text>
</g>
<!-- 3&#45;&gt;5 -->
<g id="edge5" class="edge">
<title>3&#45;&gt;5</title>
<path fill="none" stroke="black" d="M160,-88.95C160,-80.72 160,-71.85 160,-63.48"/>
<polygon fill="black" stroke="black" points="163.5,-63.24 160,-53.24 156.5,-63.24 163.5,-63.24"/>
</g>
<!-- 7 -->
<g id="node8" class="node">
<title>7</title>
<polygon fill="#e58139" stroke="black" points="314,-53 228,-53 228,0 314,0 314,-53"/>
<text text-anchor="middle" x="271" y="-37.8" font-family="Times,serif" font-size="14.00">mse = 0.0</text>
<text text-anchor="middle" x="271" y="-22.8" font-family="Times,serif" font-size="14.00">samples = 1</text>
<text text-anchor="middle" x="271" y="-7.8" font-family="Times,serif" font-size="14.00">value = 50.0</text>
</g>
<!-- 6&#45;&gt;7 -->
<g id="edge7" class="edge">
<title>6&#45;&gt;7</title>
<path fill="none" stroke="black" d="M310.01,-88.95C304.44,-80.17 298.41,-70.66 292.79,-61.82"/>
<polygon fill="black" stroke="black" points="295.66,-59.8 287.34,-53.24 289.75,-63.55 295.66,-59.8"/>
</g>
<!-- 8 -->
<g id="node9" class="node">
<title>8</title>
<polygon fill="#f6d1b7" stroke="black" points="431.5,-53 332.5,-53 332.5,0 431.5,0 431.5,-53"/>
<text text-anchor="middle" x="382" y="-37.8" font-family="Times,serif" font-size="14.00">mse = 12.913</text>
<text text-anchor="middle" x="382" y="-22.8" font-family="Times,serif" font-size="14.00">samples = 95</text>
<text text-anchor="middle" x="382" y="-7.8" font-family="Times,serif" font-size="14.00">value = 24.699</text>
</g>
<!-- 6&#45;&gt;8 -->
<g id="edge8" class="edge">
<title>6&#45;&gt;8</title>
<path fill="none" stroke="black" d="M348.84,-88.95C353.53,-80.26 358.6,-70.86 363.33,-62.09"/>
<polygon fill="black" stroke="black" points="366.44,-63.7 368.11,-53.24 360.28,-60.37 366.44,-63.7"/>
</g>
<!-- 10 -->
<g id="node11" class="node">
<title>10</title>
<polygon fill="#fbeade" stroke="black" points="662.5,-157 563.5,-157 563.5,-89 662.5,-89 662.5,-157"/>
<text text-anchor="middle" x="613" y="-141.8" font-family="Times,serif" font-size="14.00">DIS &lt;= 1.906</text>
<text text-anchor="middle" x="613" y="-126.8" font-family="Times,serif" font-size="14.00">mse = 10.715</text>
<text text-anchor="middle" x="613" y="-111.8" font-family="Times,serif" font-size="14.00">samples = 69</text>
<text text-anchor="middle" x="613" y="-96.8" font-family="Times,serif" font-size="14.00">value = 16.896</text>
</g>
<!-- 9&#45;&gt;10 -->
<g id="edge10" class="edge">
<title>9&#45;&gt;10</title>
<path fill="none" stroke="black" d="M654.87,-192.88C649.67,-184.33 644.01,-175.01 638.57,-166.07"/>
<polygon fill="black" stroke="black" points="641.43,-164.03 633.24,-157.3 635.44,-167.66 641.43,-164.03"/>
</g>
<!-- 13 -->
<g id="node14" class="node">
<title>13</title>
<polygon fill="#fefaf7" stroke="black" points="793,-157 681,-157 681,-89 793,-89 793,-157"/>
<text text-anchor="middle" x="737" y="-141.8" font-family="Times,serif" font-size="14.00">LSTAT &lt;= 19.57</text>
<text text-anchor="middle" x="737" y="-126.8" font-family="Times,serif" font-size="14.00">mse = 11.164</text>
<text text-anchor="middle" x="737" y="-111.8" font-family="Times,serif" font-size="14.00">samples = 52</text>
<text text-anchor="middle" x="737" y="-96.8" font-family="Times,serif" font-size="14.00">value = 11.813</text>
</g>
<!-- 9&#45;&gt;13 -->
<g id="edge13" class="edge">
<title>9&#45;&gt;13</title>
<path fill="none" stroke="black" d="M695.13,-192.88C700.33,-184.33 705.99,-175.01 711.43,-166.07"/>
<polygon fill="black" stroke="black" points="714.56,-167.66 716.76,-157.3 708.57,-164.03 714.56,-167.66"/>
</g>
<!-- 11 -->
<g id="node12" class="node">
<title>11</title>
<polygon fill="#fcf1ea" stroke="black" points="548.5,-53 449.5,-53 449.5,0 548.5,0 548.5,-53"/>
<text text-anchor="middle" x="499" y="-37.8" font-family="Times,serif" font-size="14.00">mse = 8.596</text>
<text text-anchor="middle" x="499" y="-22.8" font-family="Times,serif" font-size="14.00">samples = 21</text>
<text text-anchor="middle" x="499" y="-7.8" font-family="Times,serif" font-size="14.00">value = 14.514</text>
</g>
<!-- 10&#45;&gt;11 -->
<g id="edge11" class="edge">
<title>10&#45;&gt;11</title>
<path fill="none" stroke="black" d="M573.13,-88.95C561.76,-79.53 549.39,-69.27 538.07,-59.89"/>
<polygon fill="black" stroke="black" points="539.98,-56.92 530.05,-53.24 535.51,-62.31 539.98,-56.92"/>
</g>
<!-- 12 -->
<g id="node13" class="node">
<title>12</title>
<polygon fill="#fae7d9" stroke="black" points="665.5,-53 566.5,-53 566.5,0 665.5,0 665.5,-53"/>
<text text-anchor="middle" x="616" y="-37.8" font-family="Times,serif" font-size="14.00">mse = 8.076</text>
<text text-anchor="middle" x="616" y="-22.8" font-family="Times,serif" font-size="14.00">samples = 48</text>
<text text-anchor="middle" x="616" y="-7.8" font-family="Times,serif" font-size="14.00">value = 17.938</text>
</g>
<!-- 10&#45;&gt;12 -->
<g id="edge12" class="edge">
<title>10&#45;&gt;12</title>
<path fill="none" stroke="black" d="M614.05,-88.95C614.31,-80.72 614.59,-71.85 614.86,-63.48"/>
<polygon fill="black" stroke="black" points="618.36,-63.34 615.18,-53.24 611.37,-63.12 618.36,-63.34"/>
</g>
<!-- 14 -->
<g id="node15" class="node">
<title>14</title>
<polygon fill="#fcf2eb" stroke="black" points="782.5,-53 683.5,-53 683.5,0 782.5,0 782.5,-53"/>
<text text-anchor="middle" x="733" y="-37.8" font-family="Times,serif" font-size="14.00">mse = 3.924</text>
<text text-anchor="middle" x="733" y="-22.8" font-family="Times,serif" font-size="14.00">samples = 21</text>
<text text-anchor="middle" x="733" y="-7.8" font-family="Times,serif" font-size="14.00">value = 14.186</text>
</g>
<!-- 13&#45;&gt;14 -->
<g id="edge14" class="edge">
<title>13&#45;&gt;14</title>
<path fill="none" stroke="black" d="M735.6,-88.95C735.25,-80.72 734.88,-71.85 734.52,-63.48"/>
<polygon fill="black" stroke="black" points="738.01,-63.08 734.09,-53.24 731.02,-63.38 738.01,-63.08"/>
</g>
<!-- 15 -->
<g id="node16" class="node">
<title>15</title>
<polygon fill="#ffffff" stroke="black" points="899.5,-53 800.5,-53 800.5,0 899.5,0 899.5,-53"/>
<text text-anchor="middle" x="850" y="-37.8" font-family="Times,serif" font-size="14.00">mse = 9.674</text>
<text text-anchor="middle" x="850" y="-22.8" font-family="Times,serif" font-size="14.00">samples = 31</text>
<text text-anchor="middle" x="850" y="-7.8" font-family="Times,serif" font-size="14.00">value = 10.206</text>
</g>
<!-- 13&#45;&gt;15 -->
<g id="edge15" class="edge">
<title>13&#45;&gt;15</title>
<path fill="none" stroke="black" d="M776.52,-88.95C787.79,-79.53 800.05,-69.27 811.27,-59.89"/>
<polygon fill="black" stroke="black" points="813.8,-62.34 819.22,-53.24 809.31,-56.97 813.8,-62.34"/>
</g>
<!-- 17 -->
<g id="node18" class="node">
<title>17</title>
<polygon fill="#f0b88f" stroke="black" points="1186.5,-261 1079.5,-261 1079.5,-193 1186.5,-193 1186.5,-261"/>
<text text-anchor="middle" x="1133" y="-245.8" font-family="Times,serif" font-size="14.00">CRIM &lt;= 7.393</text>
<text text-anchor="middle" x="1133" y="-230.8" font-family="Times,serif" font-size="14.00">mse = 42.123</text>
<text text-anchor="middle" x="1133" y="-215.8" font-family="Times,serif" font-size="14.00">samples = 29</text>
<text text-anchor="middle" x="1133" y="-200.8" font-family="Times,serif" font-size="14.00">value = 32.617</text>
</g>
<!-- 16&#45;&gt;17 -->
<g id="edge17" class="edge">
<title>16&#45;&gt;17</title>
<path fill="none" stroke="black" d="M1133,-296.88C1133,-288.78 1133,-279.98 1133,-271.47"/>
<polygon fill="black" stroke="black" points="1136.5,-271.3 1133,-261.3 1129.5,-271.3 1136.5,-271.3"/>
</g>
<!-- 24 -->
<g id="node25" class="node">
<title>24</title>
<polygon fill="#e99456" stroke="black" points="1502,-261 1390,-261 1390,-193 1502,-193 1502,-261"/>
<text text-anchor="middle" x="1446" y="-245.8" font-family="Times,serif" font-size="14.00">LSTAT &lt;= 5.205</text>
<text text-anchor="middle" x="1446" y="-230.8" font-family="Times,serif" font-size="14.00">mse = 50.121</text>
<text text-anchor="middle" x="1446" y="-215.8" font-family="Times,serif" font-size="14.00">samples = 18</text>
<text text-anchor="middle" x="1446" y="-200.8" font-family="Times,serif" font-size="14.00">value = 44.106</text>
</g>
<!-- 16&#45;&gt;24 -->
<g id="edge24" class="edge">
<title>16&#45;&gt;24</title>
<path fill="none" stroke="black" d="M1182.6,-313.84C1235.99,-296.44 1321.19,-268.67 1380.17,-249.45"/>
<polygon fill="black" stroke="black" points="1381.34,-252.75 1389.76,-246.33 1379.17,-246.1 1381.34,-252.75"/>
</g>
<!-- 18 -->
<g id="node19" class="node">
<title>18</title>
<polygon fill="#f0b48a" stroke="black" points="1125.5,-157 1026.5,-157 1026.5,-89 1125.5,-89 1125.5,-157"/>
<text text-anchor="middle" x="1076" y="-141.8" font-family="Times,serif" font-size="14.00">DIS &lt;= 1.886</text>
<text text-anchor="middle" x="1076" y="-126.8" font-family="Times,serif" font-size="14.00">mse = 24.173</text>
<text text-anchor="middle" x="1076" y="-111.8" font-family="Times,serif" font-size="14.00">samples = 27</text>
<text text-anchor="middle" x="1076" y="-96.8" font-family="Times,serif" font-size="14.00">value = 33.819</text>
</g>
<!-- 17&#45;&gt;18 -->
<g id="edge18" class="edge">
<title>17&#45;&gt;18</title>
<path fill="none" stroke="black" d="M1114.49,-192.88C1109.72,-184.33 1104.51,-175.01 1099.51,-166.07"/>
<polygon fill="black" stroke="black" points="1102.54,-164.32 1094.61,-157.3 1096.43,-167.74 1102.54,-164.32"/>
</g>
<!-- 21 -->
<g id="node22" class="node">
<title>21</title>
<polygon fill="#fbebe0" stroke="black" points="1236,-157 1144,-157 1144,-89 1236,-89 1236,-157"/>
<text text-anchor="middle" x="1190" y="-141.8" font-family="Times,serif" font-size="14.00">AGE &lt;= 98.6</text>
<text text-anchor="middle" x="1190" y="-126.8" font-family="Times,serif" font-size="14.00">mse = 1.96</text>
<text text-anchor="middle" x="1190" y="-111.8" font-family="Times,serif" font-size="14.00">samples = 2</text>
<text text-anchor="middle" x="1190" y="-96.8" font-family="Times,serif" font-size="14.00">value = 16.4</text>
</g>
<!-- 17&#45;&gt;21 -->
<g id="edge21" class="edge">
<title>17&#45;&gt;21</title>
<path fill="none" stroke="black" d="M1151.51,-192.88C1156.28,-184.33 1161.49,-175.01 1166.49,-166.07"/>
<polygon fill="black" stroke="black" points="1169.57,-167.74 1171.39,-157.3 1163.46,-164.32 1169.57,-167.74"/>
</g>
<!-- 19 -->
<g id="node20" class="node">
<title>19</title>
<polygon fill="#e88f4f" stroke="black" points="1010,-53 918,-53 918,0 1010,0 1010,-53"/>
<text text-anchor="middle" x="964" y="-37.8" font-family="Times,serif" font-size="14.00">mse = 18.923</text>
<text text-anchor="middle" x="964" y="-22.8" font-family="Times,serif" font-size="14.00">samples = 2</text>
<text text-anchor="middle" x="964" y="-7.8" font-family="Times,serif" font-size="14.00">value = 45.65</text>
</g>
<!-- 18&#45;&gt;19 -->
<g id="edge19" class="edge">
<title>18&#45;&gt;19</title>
<path fill="none" stroke="black" d="M1036.83,-88.95C1025.66,-79.53 1013.51,-69.27 1002.39,-59.89"/>
<polygon fill="black" stroke="black" points="1004.4,-57.01 994.5,-53.24 999.89,-62.36 1004.4,-57.01"/>
</g>
<!-- 20 -->
<g id="node21" class="node">
<title>20</title>
<polygon fill="#f0b78e" stroke="black" points="1127.5,-53 1028.5,-53 1028.5,0 1127.5,0 1127.5,-53"/>
<text text-anchor="middle" x="1078" y="-37.8" font-family="Times,serif" font-size="14.00">mse = 12.499</text>
<text text-anchor="middle" x="1078" y="-22.8" font-family="Times,serif" font-size="14.00">samples = 25</text>
<text text-anchor="middle" x="1078" y="-7.8" font-family="Times,serif" font-size="14.00">value = 32.872</text>
</g>
<!-- 18&#45;&gt;20 -->
<g id="edge20" class="edge">
<title>18&#45;&gt;20</title>
<path fill="none" stroke="black" d="M1076.7,-88.95C1076.87,-80.72 1077.06,-71.85 1077.24,-63.48"/>
<polygon fill="black" stroke="black" points="1080.74,-63.31 1077.46,-53.24 1073.74,-63.16 1080.74,-63.31"/>
</g>
<!-- 22 -->
<g id="node23" class="node">
<title>22</title>
<polygon fill="#fcf0e7" stroke="black" points="1232,-53 1146,-53 1146,0 1232,0 1232,-53"/>
<text text-anchor="middle" x="1189" y="-37.8" font-family="Times,serif" font-size="14.00">mse = 0.0</text>
<text text-anchor="middle" x="1189" y="-22.8" font-family="Times,serif" font-size="14.00">samples = 1</text>
<text text-anchor="middle" x="1189" y="-7.8" font-family="Times,serif" font-size="14.00">value = 15.0</text>
</g>
<!-- 21&#45;&gt;22 -->
<g id="edge22" class="edge">
<title>21&#45;&gt;22</title>
<path fill="none" stroke="black" d="M1189.65,-88.95C1189.56,-80.72 1189.47,-71.85 1189.38,-63.48"/>
<polygon fill="black" stroke="black" points="1192.88,-63.2 1189.27,-53.24 1185.88,-63.27 1192.88,-63.2"/>
</g>
<!-- 23 -->
<g id="node24" class="node">
<title>23</title>
<polygon fill="#fae7d9" stroke="black" points="1336,-53 1250,-53 1250,0 1336,0 1336,-53"/>
<text text-anchor="middle" x="1293" y="-37.8" font-family="Times,serif" font-size="14.00">mse = 0.0</text>
<text text-anchor="middle" x="1293" y="-22.8" font-family="Times,serif" font-size="14.00">samples = 1</text>
<text text-anchor="middle" x="1293" y="-7.8" font-family="Times,serif" font-size="14.00">value = 17.8</text>
</g>
<!-- 21&#45;&gt;23 -->
<g id="edge23" class="edge">
<title>21&#45;&gt;23</title>
<path fill="none" stroke="black" d="M1226.02,-88.95C1236.19,-79.62 1247.25,-69.47 1257.4,-60.16"/>
<polygon fill="black" stroke="black" points="1259.95,-62.58 1264.95,-53.24 1255.21,-57.42 1259.95,-62.58"/>
</g>
<!-- 25 -->
<g id="node26" class="node">
<title>25</title>
<polygon fill="#e88e4d" stroke="black" points="1506,-157 1386,-157 1386,-89 1506,-89 1506,-157"/>
<text text-anchor="middle" x="1446" y="-141.8" font-family="Times,serif" font-size="14.00">PTRATIO &lt;= 14.8</text>
<text text-anchor="middle" x="1446" y="-126.8" font-family="Times,serif" font-size="14.00">mse = 16.83</text>
<text text-anchor="middle" x="1446" y="-111.8" font-family="Times,serif" font-size="14.00">samples = 16</text>
<text text-anchor="middle" x="1446" y="-96.8" font-family="Times,serif" font-size="14.00">value = 46.05</text>
</g>
<!-- 24&#45;&gt;25 -->
<g id="edge25" class="edge">
<title>24&#45;&gt;25</title>
<path fill="none" stroke="black" d="M1446,-192.88C1446,-184.78 1446,-175.98 1446,-167.47"/>
<polygon fill="black" stroke="black" points="1449.5,-167.3 1446,-157.3 1442.5,-167.3 1449.5,-167.3"/>
</g>
<!-- 28 -->
<g id="node29" class="node">
<title>28</title>
<polygon fill="#f3c5a4" stroke="black" points="1663.5,-157 1570.5,-157 1570.5,-89 1663.5,-89 1663.5,-157"/>
<text text-anchor="middle" x="1617" y="-141.8" font-family="Times,serif" font-size="14.00">DIS &lt;= 3.136</text>
<text text-anchor="middle" x="1617" y="-126.8" font-family="Times,serif" font-size="14.00">mse = 44.223</text>
<text text-anchor="middle" x="1617" y="-111.8" font-family="Times,serif" font-size="14.00">samples = 2</text>
<text text-anchor="middle" x="1617" y="-96.8" font-family="Times,serif" font-size="14.00">value = 28.55</text>
</g>
<!-- 24&#45;&gt;28 -->
<g id="edge28" class="edge">
<title>24&#45;&gt;28</title>
<path fill="none" stroke="black" d="M1501.52,-192.88C1520.8,-181.38 1542.41,-168.49 1561.68,-157"/>
<polygon fill="black" stroke="black" points="1563.55,-159.96 1570.35,-151.83 1559.97,-153.94 1563.55,-159.96"/>
</g>
<!-- 26 -->
<g id="node27" class="node">
<title>26</title>
<polygon fill="#e5823a" stroke="black" points="1446,-53 1354,-53 1354,0 1446,0 1446,-53"/>
<text text-anchor="middle" x="1400" y="-37.8" font-family="Times,serif" font-size="14.00">mse = 0.312</text>
<text text-anchor="middle" x="1400" y="-22.8" font-family="Times,serif" font-size="14.00">samples = 6</text>
<text text-anchor="middle" x="1400" y="-7.8" font-family="Times,serif" font-size="14.00">value = 49.75</text>
</g>
<!-- 25&#45;&gt;26 -->
<g id="edge26" class="edge">
<title>25&#45;&gt;26</title>
<path fill="none" stroke="black" d="M1429.91,-88.95C1425.73,-80.35 1421.2,-71.06 1416.97,-62.37"/>
<polygon fill="black" stroke="black" points="1420.05,-60.7 1412.53,-53.24 1413.76,-63.76 1420.05,-60.7"/>
</g>
<!-- 27 -->
<g id="node28" class="node">
<title>27</title>
<polygon fill="#e99558" stroke="black" points="1556,-53 1464,-53 1464,0 1556,0 1556,-53"/>
<text text-anchor="middle" x="1510" y="-37.8" font-family="Times,serif" font-size="14.00">mse = 13.598</text>
<text text-anchor="middle" x="1510" y="-22.8" font-family="Times,serif" font-size="14.00">samples = 10</text>
<text text-anchor="middle" x="1510" y="-7.8" font-family="Times,serif" font-size="14.00">value = 43.83</text>
</g>
<!-- 25&#45;&gt;27 -->
<g id="edge27" class="edge">
<title>25&#45;&gt;27</title>
<path fill="none" stroke="black" d="M1468.38,-88.95C1474.39,-80.07 1480.9,-70.46 1486.95,-61.54"/>
<polygon fill="black" stroke="black" points="1489.86,-63.48 1492.57,-53.24 1484.06,-59.55 1489.86,-63.48"/>
</g>
<!-- 29 -->
<g id="node30" class="node">
<title>29</title>
<polygon fill="#f7dac5" stroke="black" points="1660,-53 1574,-53 1574,0 1660,0 1660,-53"/>
<text text-anchor="middle" x="1617" y="-37.8" font-family="Times,serif" font-size="14.00">mse = 0.0</text>
<text text-anchor="middle" x="1617" y="-22.8" font-family="Times,serif" font-size="14.00">samples = 1</text>
<text text-anchor="middle" x="1617" y="-7.8" font-family="Times,serif" font-size="14.00">value = 21.9</text>
</g>
<!-- 28&#45;&gt;29 -->
<g id="edge29" class="edge">
<title>28&#45;&gt;29</title>
<path fill="none" stroke="black" d="M1617,-88.95C1617,-80.72 1617,-71.85 1617,-63.48"/>
<polygon fill="black" stroke="black" points="1620.5,-63.24 1617,-53.24 1613.5,-63.24 1620.5,-63.24"/>
</g>
<!-- 30 -->
<g id="node31" class="node">
<title>30</title>
<polygon fill="#efb083" stroke="black" points="1764,-53 1678,-53 1678,0 1764,0 1764,-53"/>
<text text-anchor="middle" x="1721" y="-37.8" font-family="Times,serif" font-size="14.00">mse = 0.0</text>
<text text-anchor="middle" x="1721" y="-22.8" font-family="Times,serif" font-size="14.00">samples = 1</text>
<text text-anchor="middle" x="1721" y="-7.8" font-family="Times,serif" font-size="14.00">value = 35.2</text>
</g>
<!-- 28&#45;&gt;30 -->
<g id="edge30" class="edge">
<title>28&#45;&gt;30</title>
<path fill="none" stroke="black" d="M1653.37,-88.95C1663.64,-79.62 1674.81,-69.47 1685.05,-60.16"/>
<polygon fill="black" stroke="black" points="1687.63,-62.55 1692.68,-53.24 1682.92,-57.37 1687.63,-62.55"/>
</g>
</g>
</svg>
