<?xml version="1.0" encoding="UTF-8" standalone="no"?>
<!DOCTYPE svg PUBLIC "-//W3C//DTD SVG 1.1//EN"
 "http://www.w3.org/Graphics/SVG/1.1/DTD/svg11.dtd">
<!-- Generated by graphviz version 2.46.1 (20210213.1702)
 -->
<!-- Title: Tree Pages: 1 -->
<svg width="1330pt" height="477pt"
 viewBox="0.00 0.00 1329.50 477.00" xmlns="http://www.w3.org/2000/svg" xmlns:xlink="http://www.w3.org/1999/xlink">
<g id="graph0" class="graph" transform="scale(1 1) rotate(0) translate(4 473)">
<title>Tree</title>
<polygon fill="white" stroke="transparent" points="-4,4 -4,-473 1325.5,-473 1325.5,4 -4,4"/>
<!-- 0 -->
<g id="node1" class="node">
<title>0</title>
<polygon fill="#f7d7c1" stroke="black" points="593.5,-469 481.5,-469 481.5,-401 593.5,-401 593.5,-469"/>
<text text-anchor="middle" x="537.5" y="-453.8" font-family="Times,serif" font-size="14.00">LSTAT &lt;= 9.725</text>
<text text-anchor="middle" x="537.5" y="-438.8" font-family="Times,serif" font-size="14.00">mse = 85.916</text>
<text text-anchor="middle" x="537.5" y="-423.8" font-family="Times,serif" font-size="14.00">samples = 354</text>
<text text-anchor="middle" x="537.5" y="-408.8" font-family="Times,serif" font-size="14.00">value = 22.491</text>
</g>
<!-- 1 -->
<g id="node2" class="node">
<title>1</title>
<polygon fill="#f2bf9a" stroke="black" points="436,-365 337,-365 337,-297 436,-297 436,-365"/>
<text text-anchor="middle" x="386.5" y="-349.8" font-family="Times,serif" font-size="14.00">RM &lt;= 7.437</text>
<text text-anchor="middle" x="386.5" y="-334.8" font-family="Times,serif" font-size="14.00">mse = 78.61</text>
<text text-anchor="middle" x="386.5" y="-319.8" font-family="Times,serif" font-size="14.00">samples = 140</text>
<text text-anchor="middle" x="386.5" y="-304.8" font-family="Times,serif" font-size="14.00">value = 30.387</text>
</g>
<!-- 0&#45;&gt;1 -->
<g id="edge1" class="edge">
<title>0&#45;&gt;1</title>
<path fill="none" stroke="black" d="M488.47,-400.88C474.29,-391.3 458.68,-380.76 444.03,-370.86"/>
<polygon fill="black" stroke="black" points="445.78,-367.82 435.54,-365.12 441.87,-373.62 445.78,-367.82"/>
<text text-anchor="middle" x="440.29" y="-385.97" font-family="Times,serif" font-size="14.00">True</text>
</g>
<!-- 12 -->
<g id="node13" class="node">
<title>12</title>
<polygon fill="#fae8da" stroke="black" points="720,-365 615,-365 615,-297 720,-297 720,-365"/>
<text text-anchor="middle" x="667.5" y="-349.8" font-family="Times,serif" font-size="14.00">LSTAT &lt;= 15.0</text>
<text text-anchor="middle" x="667.5" y="-334.8" font-family="Times,serif" font-size="14.00">mse = 23.226</text>
<text text-anchor="middle" x="667.5" y="-319.8" font-family="Times,serif" font-size="14.00">samples = 214</text>
<text text-anchor="middle" x="667.5" y="-304.8" font-family="Times,serif" font-size="14.00">value = 17.326</text>
</g>
<!-- 0&#45;&gt;12 -->
<g id="edge12" class="edge">
<title>0&#45;&gt;12</title>
<path fill="none" stroke="black" d="M579.71,-400.88C591.63,-391.53 604.72,-381.26 617.07,-371.57"/>
<polygon fill="black" stroke="black" points="619.35,-374.23 625.06,-365.3 615.03,-368.72 619.35,-374.23"/>
<text text-anchor="middle" x="622.06" y="-386.42" font-family="Times,serif" font-size="14.00">False</text>
</g>
<!-- 2 -->
<g id="node3" class="node">
<title>2</title>
<polygon fill="#f3c6a6" stroke="black" points="216,-261 117,-261 117,-193 216,-193 216,-261"/>
<text text-anchor="middle" x="166.5" y="-245.8" font-family="Times,serif" font-size="14.00">DIS &lt;= 1.485</text>
<text text-anchor="middle" x="166.5" y="-230.8" font-family="Times,serif" font-size="14.00">mse = 42.393</text>
<text text-anchor="middle" x="166.5" y="-215.8" font-family="Times,serif" font-size="14.00">samples = 119</text>
<text text-anchor="middle" x="166.5" y="-200.8" font-family="Times,serif" font-size="14.00">value = 27.883</text>
</g>
<!-- 1&#45;&gt;2 -->
<g id="edge2" class="edge">
<title>1&#45;&gt;2</title>
<path fill="none" stroke="black" d="M336.85,-306.98C303.81,-291.66 260.25,-271.47 225.45,-255.33"/>
<polygon fill="black" stroke="black" points="226.89,-252.14 216.35,-251.11 223.95,-258.49 226.89,-252.14"/>
</g>
<!-- 7 -->
<g id="node8" class="node">
<title>7</title>
<polygon fill="#e99254" stroke="black" points="436,-261 337,-261 337,-193 436,-193 436,-261"/>
<text text-anchor="middle" x="386.5" y="-245.8" font-family="Times,serif" font-size="14.00">RAD &lt;= 16.0</text>
<text text-anchor="middle" x="386.5" y="-230.8" font-family="Times,serif" font-size="14.00">mse = 46.977</text>
<text text-anchor="middle" x="386.5" y="-215.8" font-family="Times,serif" font-size="14.00">samples = 21</text>
<text text-anchor="middle" x="386.5" y="-200.8" font-family="Times,serif" font-size="14.00">value = 44.576</text>
</g>
<!-- 1&#45;&gt;7 -->
<g id="edge7" class="edge">
<title>1&#45;&gt;7</title>
<path fill="none" stroke="black" d="M386.5,-296.88C386.5,-288.78 386.5,-279.98 386.5,-271.47"/>
<polygon fill="black" stroke="black" points="390,-271.3 386.5,-261.3 383,-271.3 390,-271.3"/>
</g>
<!-- 3 -->
<g id="node4" class="node">
<title>3</title>
<polygon fill="#e58139" stroke="black" points="98.5,-149.5 12.5,-149.5 12.5,-96.5 98.5,-96.5 98.5,-149.5"/>
<text text-anchor="middle" x="55.5" y="-134.3" font-family="Times,serif" font-size="14.00">mse = 0.0</text>
<text text-anchor="middle" x="55.5" y="-119.3" font-family="Times,serif" font-size="14.00">samples = 4</text>
<text text-anchor="middle" x="55.5" y="-104.3" font-family="Times,serif" font-size="14.00">value = 50.0</text>
</g>
<!-- 2&#45;&gt;3 -->
<g id="edge3" class="edge">
<title>2&#45;&gt;3</title>
<path fill="none" stroke="black" d="M130.46,-192.88C117.78,-181.23 103.54,-168.14 90.9,-156.53"/>
<polygon fill="black" stroke="black" points="93,-153.71 83.27,-149.52 88.27,-158.86 93,-153.71"/>
</g>
<!-- 4 -->
<g id="node5" class="node">
<title>4</title>
<polygon fill="#f4c9aa" stroke="black" points="216,-157 117,-157 117,-89 216,-89 216,-157"/>
<text text-anchor="middle" x="166.5" y="-141.8" font-family="Times,serif" font-size="14.00">RM &lt;= 6.722</text>
<text text-anchor="middle" x="166.5" y="-126.8" font-family="Times,serif" font-size="14.00">mse = 26.262</text>
<text text-anchor="middle" x="166.5" y="-111.8" font-family="Times,serif" font-size="14.00">samples = 115</text>
<text text-anchor="middle" x="166.5" y="-96.8" font-family="Times,serif" font-size="14.00">value = 27.114</text>
</g>
<!-- 2&#45;&gt;4 -->
<g id="edge4" class="edge">
<title>2&#45;&gt;4</title>
<path fill="none" stroke="black" d="M166.5,-192.88C166.5,-184.78 166.5,-175.98 166.5,-167.47"/>
<polygon fill="black" stroke="black" points="170,-167.3 166.5,-157.3 163,-167.3 170,-167.3"/>
</g>
<!-- 5 -->
<g id="node6" class="node">
<title>5</title>
<polygon fill="#f6d2b8" stroke="black" points="99,-53 0,-53 0,0 99,0 99,-53"/>
<text text-anchor="middle" x="49.5" y="-37.8" font-family="Times,serif" font-size="14.00">mse = 9.863</text>
<text text-anchor="middle" x="49.5" y="-22.8" font-family="Times,serif" font-size="14.00">samples = 72</text>
<text text-anchor="middle" x="49.5" y="-7.8" font-family="Times,serif" font-size="14.00">value = 24.246</text>
</g>
<!-- 4&#45;&gt;5 -->
<g id="edge5" class="edge">
<title>4&#45;&gt;5</title>
<path fill="none" stroke="black" d="M125.58,-88.95C113.8,-79.43 100.97,-69.07 89.26,-59.62"/>
<polygon fill="black" stroke="black" points="91.34,-56.8 81.36,-53.24 86.94,-62.24 91.34,-56.8"/>
</g>
<!-- 6 -->
<g id="node7" class="node">
<title>6</title>
<polygon fill="#f1ba92" stroke="black" points="216,-53 117,-53 117,0 216,0 216,-53"/>
<text text-anchor="middle" x="166.5" y="-37.8" font-family="Times,serif" font-size="14.00">mse = 16.885</text>
<text text-anchor="middle" x="166.5" y="-22.8" font-family="Times,serif" font-size="14.00">samples = 43</text>
<text text-anchor="middle" x="166.5" y="-7.8" font-family="Times,serif" font-size="14.00">value = 31.916</text>
</g>
<!-- 4&#45;&gt;6 -->
<g id="edge6" class="edge">
<title>4&#45;&gt;6</title>
<path fill="none" stroke="black" d="M166.5,-88.95C166.5,-80.72 166.5,-71.85 166.5,-63.48"/>
<polygon fill="black" stroke="black" points="170,-63.24 166.5,-53.24 163,-63.24 170,-63.24"/>
</g>
<!-- 8 -->
<g id="node9" class="node">
<title>8</title>
<polygon fill="#e88e4e" stroke="black" points="386.5,-157 266.5,-157 266.5,-89 386.5,-89 386.5,-157"/>
<text text-anchor="middle" x="326.5" y="-141.8" font-family="Times,serif" font-size="14.00">PTRATIO &lt;= 15.3</text>
<text text-anchor="middle" x="326.5" y="-126.8" font-family="Times,serif" font-size="14.00">mse = 22.33</text>
<text text-anchor="middle" x="326.5" y="-111.8" font-family="Times,serif" font-size="14.00">samples = 20</text>
<text text-anchor="middle" x="326.5" y="-96.8" font-family="Times,serif" font-size="14.00">value = 45.71</text>
</g>
<!-- 7&#45;&gt;8 -->
<g id="edge8" class="edge">
<title>7&#45;&gt;8</title>
<path fill="none" stroke="black" d="M367.02,-192.88C361.99,-184.33 356.51,-175.01 351.25,-166.07"/>
<polygon fill="black" stroke="black" points="354.17,-164.14 346.09,-157.3 348.14,-167.69 354.17,-164.14"/>
</g>
<!-- 11 -->
<g id="node12" class="node">
<title>11</title>
<polygon fill="#f7d9c4" stroke="black" points="490.5,-149.5 404.5,-149.5 404.5,-96.5 490.5,-96.5 490.5,-149.5"/>
<text text-anchor="middle" x="447.5" y="-134.3" font-family="Times,serif" font-size="14.00">mse = 0.0</text>
<text text-anchor="middle" x="447.5" y="-119.3" font-family="Times,serif" font-size="14.00">samples = 1</text>
<text text-anchor="middle" x="447.5" y="-104.3" font-family="Times,serif" font-size="14.00">value = 21.9</text>
</g>
<!-- 7&#45;&gt;11 -->
<g id="edge11" class="edge">
<title>7&#45;&gt;11</title>
<path fill="none" stroke="black" d="M406.3,-192.88C412.95,-181.78 420.37,-169.37 427.06,-158.18"/>
<polygon fill="black" stroke="black" points="430.11,-159.9 432.24,-149.52 424.1,-156.31 430.11,-159.9"/>
</g>
<!-- 9 -->
<g id="node10" class="node">
<title>9</title>
<polygon fill="#e6843e" stroke="black" points="326.5,-53 234.5,-53 234.5,0 326.5,0 326.5,-53"/>
<text text-anchor="middle" x="280.5" y="-37.8" font-family="Times,serif" font-size="14.00">mse = 3.748</text>
<text text-anchor="middle" x="280.5" y="-22.8" font-family="Times,serif" font-size="14.00">samples = 10</text>
<text text-anchor="middle" x="280.5" y="-7.8" font-family="Times,serif" font-size="14.00">value = 49.08</text>
</g>
<!-- 8&#45;&gt;9 -->
<g id="edge9" class="edge">
<title>8&#45;&gt;9</title>
<path fill="none" stroke="black" d="M310.41,-88.95C306.23,-80.35 301.7,-71.06 297.47,-62.37"/>
<polygon fill="black" stroke="black" points="300.55,-60.7 293.03,-53.24 294.26,-63.76 300.55,-60.7"/>
</g>
<!-- 10 -->
<g id="node11" class="node">
<title>10</title>
<polygon fill="#ea995f" stroke="black" points="436.5,-53 344.5,-53 344.5,0 436.5,0 436.5,-53"/>
<text text-anchor="middle" x="390.5" y="-37.8" font-family="Times,serif" font-size="14.00">mse = 18.198</text>
<text text-anchor="middle" x="390.5" y="-22.8" font-family="Times,serif" font-size="14.00">samples = 10</text>
<text text-anchor="middle" x="390.5" y="-7.8" font-family="Times,serif" font-size="14.00">value = 42.34</text>
</g>
<!-- 8&#45;&gt;10 -->
<g id="edge10" class="edge">
<title>8&#45;&gt;10</title>
<path fill="none" stroke="black" d="M348.88,-88.95C354.89,-80.07 361.4,-70.46 367.45,-61.54"/>
<polygon fill="black" stroke="black" points="370.36,-63.48 373.07,-53.24 364.56,-59.55 370.36,-63.48"/>
</g>
<!-- 13 -->
<g id="node14" class="node">
<title>13</title>
<polygon fill="#f8ddc9" stroke="black" points="717,-261 618,-261 618,-193 717,-193 717,-261"/>
<text text-anchor="middle" x="667.5" y="-245.8" font-family="Times,serif" font-size="14.00">RM &lt;= 6.797</text>
<text text-anchor="middle" x="667.5" y="-230.8" font-family="Times,serif" font-size="14.00">mse = 9.826</text>
<text text-anchor="middle" x="667.5" y="-215.8" font-family="Times,serif" font-size="14.00">samples = 93</text>
<text text-anchor="middle" x="667.5" y="-200.8" font-family="Times,serif" font-size="14.00">value = 20.799</text>
</g>
<!-- 12&#45;&gt;13 -->
<g id="edge13" class="edge">
<title>12&#45;&gt;13</title>
<path fill="none" stroke="black" d="M667.5,-296.88C667.5,-288.78 667.5,-279.98 667.5,-271.47"/>
<polygon fill="black" stroke="black" points="671,-271.3 667.5,-261.3 664,-271.3 671,-271.3"/>
</g>
<!-- 20 -->
<g id="node21" class="node">
<title>20</title>
<polygon fill="#fcf0e7" stroke="black" points="1031,-261 930,-261 930,-193 1031,-193 1031,-261"/>
<text text-anchor="middle" x="980.5" y="-245.8" font-family="Times,serif" font-size="14.00">NOX &lt;= 0.657</text>
<text text-anchor="middle" x="980.5" y="-230.8" font-family="Times,serif" font-size="14.00">mse = 17.127</text>
<text text-anchor="middle" x="980.5" y="-215.8" font-family="Times,serif" font-size="14.00">samples = 121</text>
<text text-anchor="middle" x="980.5" y="-200.8" font-family="Times,serif" font-size="14.00">value = 14.656</text>
</g>
<!-- 12&#45;&gt;20 -->
<g id="edge20" class="edge">
<title>12&#45;&gt;20</title>
<path fill="none" stroke="black" d="M720.24,-312.81C775.5,-294.81 862.16,-266.56 920.12,-247.68"/>
<polygon fill="black" stroke="black" points="921.45,-250.92 929.88,-244.5 919.29,-244.27 921.45,-250.92"/>
</g>
<!-- 14 -->
<g id="node15" class="node">
<title>14</title>
<polygon fill="#f8decb" stroke="black" points="663,-157 550,-157 550,-89 663,-89 663,-157"/>
<text text-anchor="middle" x="606.5" y="-141.8" font-family="Times,serif" font-size="14.00">CRIM &lt;= 25.998</text>
<text text-anchor="middle" x="606.5" y="-126.8" font-family="Times,serif" font-size="14.00">mse = 6.421</text>
<text text-anchor="middle" x="606.5" y="-111.8" font-family="Times,serif" font-size="14.00">samples = 89</text>
<text text-anchor="middle" x="606.5" y="-96.8" font-family="Times,serif" font-size="14.00">value = 20.397</text>
</g>
<!-- 13&#45;&gt;14 -->
<g id="edge14" class="edge">
<title>13&#45;&gt;14</title>
<path fill="none" stroke="black" d="M647.7,-192.88C642.58,-184.33 637.01,-175.01 631.66,-166.07"/>
<polygon fill="black" stroke="black" points="634.55,-164.09 626.41,-157.3 628.54,-167.68 634.55,-164.09"/>
</g>
<!-- 17 -->
<g id="node18" class="node">
<title>17</title>
<polygon fill="#f2c19d" stroke="black" points="775.5,-157 681.5,-157 681.5,-89 775.5,-89 775.5,-157"/>
<text text-anchor="middle" x="728.5" y="-141.8" font-family="Times,serif" font-size="14.00">CHAS &lt;= 0.5</text>
<text text-anchor="middle" x="728.5" y="-126.8" font-family="Times,serif" font-size="14.00">mse = 1.882</text>
<text text-anchor="middle" x="728.5" y="-111.8" font-family="Times,serif" font-size="14.00">samples = 4</text>
<text text-anchor="middle" x="728.5" y="-96.8" font-family="Times,serif" font-size="14.00">value = 29.75</text>
</g>
<!-- 13&#45;&gt;17 -->
<g id="edge17" class="edge">
<title>13&#45;&gt;17</title>
<path fill="none" stroke="black" d="M687.3,-192.88C692.42,-184.33 697.99,-175.01 703.34,-166.07"/>
<polygon fill="black" stroke="black" points="706.46,-167.68 708.59,-157.3 700.45,-164.09 706.46,-167.68"/>
</g>
<!-- 15 -->
<g id="node16" class="node">
<title>15</title>
<polygon fill="#f8deca" stroke="black" points="554,-53 455,-53 455,0 554,0 554,-53"/>
<text text-anchor="middle" x="504.5" y="-37.8" font-family="Times,serif" font-size="14.00">mse = 5.457</text>
<text text-anchor="middle" x="504.5" y="-22.8" font-family="Times,serif" font-size="14.00">samples = 88</text>
<text text-anchor="middle" x="504.5" y="-7.8" font-family="Times,serif" font-size="14.00">value = 20.505</text>
</g>
<!-- 14&#45;&gt;15 -->
<g id="edge15" class="edge">
<title>14&#45;&gt;15</title>
<path fill="none" stroke="black" d="M570.83,-88.95C560.75,-79.62 549.8,-69.47 539.76,-60.16"/>
<polygon fill="black" stroke="black" points="541.99,-57.47 532.28,-53.24 537.24,-62.6 541.99,-57.47"/>
</g>
<!-- 16 -->
<g id="node17" class="node">
<title>16</title>
<polygon fill="#fefcfa" stroke="black" points="658.5,-53 572.5,-53 572.5,0 658.5,0 658.5,-53"/>
<text text-anchor="middle" x="615.5" y="-37.8" font-family="Times,serif" font-size="14.00">mse = 0.0</text>
<text text-anchor="middle" x="615.5" y="-22.8" font-family="Times,serif" font-size="14.00">samples = 1</text>
<text text-anchor="middle" x="615.5" y="-7.8" font-family="Times,serif" font-size="14.00">value = 10.9</text>
</g>
<!-- 14&#45;&gt;16 -->
<g id="edge16" class="edge">
<title>14&#45;&gt;16</title>
<path fill="none" stroke="black" d="M609.65,-88.95C610.44,-80.62 611.3,-71.65 612.1,-63.2"/>
<polygon fill="black" stroke="black" points="615.58,-63.52 613.05,-53.24 608.62,-62.86 615.58,-63.52"/>
</g>
<!-- 18 -->
<g id="node19" class="node">
<title>18</title>
<polygon fill="#f2be99" stroke="black" points="762.5,-53 676.5,-53 676.5,0 762.5,0 762.5,-53"/>
<text text-anchor="middle" x="719.5" y="-37.8" font-family="Times,serif" font-size="14.00">mse = 0.26</text>
<text text-anchor="middle" x="719.5" y="-22.8" font-family="Times,serif" font-size="14.00">samples = 3</text>
<text text-anchor="middle" x="719.5" y="-7.8" font-family="Times,serif" font-size="14.00">value = 30.5</text>
</g>
<!-- 17&#45;&gt;18 -->
<g id="edge18" class="edge">
<title>17&#45;&gt;18</title>
<path fill="none" stroke="black" d="M725.35,-88.95C724.56,-80.62 723.7,-71.65 722.9,-63.2"/>
<polygon fill="black" stroke="black" points="726.38,-62.86 721.95,-53.24 719.42,-63.52 726.38,-62.86"/>
</g>
<!-- 19 -->
<g id="node20" class="node">
<title>19</title>
<polygon fill="#f4c8a8" stroke="black" points="866.5,-53 780.5,-53 780.5,0 866.5,0 866.5,-53"/>
<text text-anchor="middle" x="823.5" y="-37.8" font-family="Times,serif" font-size="14.00">mse = 0.0</text>
<text text-anchor="middle" x="823.5" y="-22.8" font-family="Times,serif" font-size="14.00">samples = 1</text>
<text text-anchor="middle" x="823.5" y="-7.8" font-family="Times,serif" font-size="14.00">value = 27.5</text>
</g>
<!-- 17&#45;&gt;19 -->
<g id="edge19" class="edge">
<title>17&#45;&gt;19</title>
<path fill="none" stroke="black" d="M761.73,-88.95C771.01,-79.71 781.11,-69.67 790.39,-60.44"/>
<polygon fill="black" stroke="black" points="793.01,-62.77 797.63,-53.24 788.07,-57.81 793.01,-62.77"/>
</g>
<!-- 21 -->
<g id="node22" class="node">
<title>21</title>
<polygon fill="#fae8db" stroke="black" points="1044,-157 917,-157 917,-89 1044,-89 1044,-157"/>
<text text-anchor="middle" x="980.5" y="-141.8" font-family="Times,serif" font-size="14.00">PTRATIO &lt;= 19.65</text>
<text text-anchor="middle" x="980.5" y="-126.8" font-family="Times,serif" font-size="14.00">mse = 11.444</text>
<text text-anchor="middle" x="980.5" y="-111.8" font-family="Times,serif" font-size="14.00">samples = 60</text>
<text text-anchor="middle" x="980.5" y="-96.8" font-family="Times,serif" font-size="14.00">value = 17.195</text>
</g>
<!-- 20&#45;&gt;21 -->
<g id="edge21" class="edge">
<title>20&#45;&gt;21</title>
<path fill="none" stroke="black" d="M980.5,-192.88C980.5,-184.78 980.5,-175.98 980.5,-167.47"/>
<polygon fill="black" stroke="black" points="984,-167.3 980.5,-157.3 977,-167.3 984,-167.3"/>
</g>
<!-- 24 -->
<g id="node25" class="node">
<title>24</title>
<polygon fill="#fef8f4" stroke="black" points="1222,-157 1109,-157 1109,-89 1222,-89 1222,-157"/>
<text text-anchor="middle" x="1165.5" y="-141.8" font-family="Times,serif" font-size="14.00">CRIM &lt;= 11.369</text>
<text text-anchor="middle" x="1165.5" y="-126.8" font-family="Times,serif" font-size="14.00">mse = 10.141</text>
<text text-anchor="middle" x="1165.5" y="-111.8" font-family="Times,serif" font-size="14.00">samples = 61</text>
<text text-anchor="middle" x="1165.5" y="-96.8" font-family="Times,serif" font-size="14.00">value = 12.159</text>
</g>
<!-- 20&#45;&gt;24 -->
<g id="edge24" class="edge">
<title>20&#45;&gt;24</title>
<path fill="none" stroke="black" d="M1031.05,-198.13C1052.3,-186.41 1077.3,-172.63 1099.94,-160.15"/>
<polygon fill="black" stroke="black" points="1101.75,-163.15 1108.82,-155.25 1098.37,-157.02 1101.75,-163.15"/>
</g>
<!-- 22 -->
<g id="node23" class="node">
<title>22</title>
<polygon fill="#f9e0cf" stroke="black" points="984,-53 885,-53 885,0 984,0 984,-53"/>
<text text-anchor="middle" x="934.5" y="-37.8" font-family="Times,serif" font-size="14.00">mse = 7.578</text>
<text text-anchor="middle" x="934.5" y="-22.8" font-family="Times,serif" font-size="14.00">samples = 24</text>
<text text-anchor="middle" x="934.5" y="-7.8" font-family="Times,serif" font-size="14.00">value = 19.592</text>
</g>
<!-- 21&#45;&gt;22 -->
<g id="edge22" class="edge">
<title>21&#45;&gt;22</title>
<path fill="none" stroke="black" d="M964.41,-88.95C960.23,-80.35 955.7,-71.06 951.47,-62.37"/>
<polygon fill="black" stroke="black" points="954.55,-60.7 947.03,-53.24 948.26,-63.76 954.55,-60.7"/>
</g>
<!-- 23 -->
<g id="node24" class="node">
<title>23</title>
<polygon fill="#fbede3" stroke="black" points="1101,-53 1002,-53 1002,0 1101,0 1101,-53"/>
<text text-anchor="middle" x="1051.5" y="-37.8" font-family="Times,serif" font-size="14.00">mse = 7.64</text>
<text text-anchor="middle" x="1051.5" y="-22.8" font-family="Times,serif" font-size="14.00">samples = 36</text>
<text text-anchor="middle" x="1051.5" y="-7.8" font-family="Times,serif" font-size="14.00">value = 15.597</text>
</g>
<!-- 21&#45;&gt;23 -->
<g id="edge23" class="edge">
<title>21&#45;&gt;23</title>
<path fill="none" stroke="black" d="M1005.33,-88.95C1012.07,-79.98 1019.37,-70.27 1026.13,-61.26"/>
<polygon fill="black" stroke="black" points="1028.95,-63.33 1032.16,-53.24 1023.36,-59.13 1028.95,-63.33"/>
</g>
<!-- 25 -->
<g id="node26" class="node">
<title>25</title>
<polygon fill="#fcf2eb" stroke="black" points="1211.5,-53 1119.5,-53 1119.5,0 1211.5,0 1211.5,-53"/>
<text text-anchor="middle" x="1165.5" y="-37.8" font-family="Times,serif" font-size="14.00">mse = 6.884</text>
<text text-anchor="middle" x="1165.5" y="-22.8" font-family="Times,serif" font-size="14.00">samples = 35</text>
<text text-anchor="middle" x="1165.5" y="-7.8" font-family="Times,serif" font-size="14.00">value = 13.88</text>
</g>
<!-- 24&#45;&gt;25 -->
<g id="edge25" class="edge">
<title>24&#45;&gt;25</title>
<path fill="none" stroke="black" d="M1165.5,-88.95C1165.5,-80.72 1165.5,-71.85 1165.5,-63.48"/>
<polygon fill="black" stroke="black" points="1169,-63.24 1165.5,-53.24 1162,-63.24 1169,-63.24"/>
</g>
<!-- 26 -->
<g id="node27" class="node">
<title>26</title>
<polygon fill="#ffffff" stroke="black" points="1321.5,-53 1229.5,-53 1229.5,0 1321.5,0 1321.5,-53"/>
<text text-anchor="middle" x="1275.5" y="-37.8" font-family="Times,serif" font-size="14.00">mse = 5.17</text>
<text text-anchor="middle" x="1275.5" y="-22.8" font-family="Times,serif" font-size="14.00">samples = 26</text>
<text text-anchor="middle" x="1275.5" y="-7.8" font-family="Times,serif" font-size="14.00">value = 9.842</text>
</g>
<!-- 24&#45;&gt;26 -->
<g id="edge26" class="edge">
<title>24&#45;&gt;26</title>
<path fill="none" stroke="black" d="M1203.97,-88.95C1214.94,-79.53 1226.88,-69.27 1237.8,-59.89"/>
<polygon fill="black" stroke="black" points="1240.24,-62.41 1245.54,-53.24 1235.68,-57.1 1240.24,-62.41"/>
</g>
</g>
</svg>
