<?xml version="1.0" encoding="UTF-8" standalone="no"?>
<!DOCTYPE svg PUBLIC "-//W3C//DTD SVG 1.1//EN"
 "http://www.w3.org/Graphics/SVG/1.1/DTD/svg11.dtd">
<!-- Generated by graphviz version 2.46.1 (20210213.1702)
 -->
<!-- Title: Tree Pages: 1 -->
<svg width="1586pt" height="477pt"
 viewBox="0.00 0.00 1585.50 477.00" xmlns="http://www.w3.org/2000/svg" xmlns:xlink="http://www.w3.org/1999/xlink">
<g id="graph0" class="graph" transform="scale(1 1) rotate(0) translate(4 473)">
<title>Tree</title>
<polygon fill="white" stroke="transparent" points="-4,4 -4,-473 1581.5,-473 1581.5,4 -4,4"/>
<!-- 0 -->
<g id="node1" class="node">
<title>0</title>
<polygon fill="#f7d7c0" stroke="black" points="728.5,-469 616.5,-469 616.5,-401 728.5,-401 728.5,-469"/>
<text text-anchor="middle" x="672.5" y="-453.8" font-family="Times,serif" font-size="14.00">LSTAT &lt;= 9.725</text>
<text text-anchor="middle" x="672.5" y="-438.8" font-family="Times,serif" font-size="14.00">mse = 83.201</text>
<text text-anchor="middle" x="672.5" y="-423.8" font-family="Times,serif" font-size="14.00">samples = 354</text>
<text text-anchor="middle" x="672.5" y="-408.8" font-family="Times,serif" font-size="14.00">value = 22.449</text>
</g>
<!-- 1 -->
<g id="node2" class="node">
<title>1</title>
<polygon fill="#f2c19d" stroke="black" points="501,-365 404,-365 404,-297 501,-297 501,-365"/>
<text text-anchor="middle" x="452.5" y="-349.8" font-family="Times,serif" font-size="14.00">RM &lt;= 6.941</text>
<text text-anchor="middle" x="452.5" y="-334.8" font-family="Times,serif" font-size="14.00">mse = 79.73</text>
<text text-anchor="middle" x="452.5" y="-319.8" font-family="Times,serif" font-size="14.00">samples = 148</text>
<text text-anchor="middle" x="452.5" y="-304.8" font-family="Times,serif" font-size="14.00">value = 29.43</text>
</g>
<!-- 0&#45;&gt;1 -->
<g id="edge1" class="edge">
<title>0&#45;&gt;1</title>
<path fill="none" stroke="black" d="M616.42,-408C583.97,-392.96 543.22,-374.06 510.46,-358.87"/>
<polygon fill="black" stroke="black" points="511.55,-355.52 501.01,-354.49 508.61,-361.87 511.55,-355.52"/>
<text text-anchor="middle" x="509.61" y="-374.26" font-family="Times,serif" font-size="14.00">True</text>
</g>
<!-- 14 -->
<g id="node15" class="node">
<title>14</title>
<polygon fill="#fae6d8" stroke="black" points="955.5,-365 843.5,-365 843.5,-297 955.5,-297 955.5,-365"/>
<text text-anchor="middle" x="899.5" y="-349.8" font-family="Times,serif" font-size="14.00">LSTAT &lt;= 19.83</text>
<text text-anchor="middle" x="899.5" y="-334.8" font-family="Times,serif" font-size="14.00">mse = 25.534</text>
<text text-anchor="middle" x="899.5" y="-319.8" font-family="Times,serif" font-size="14.00">samples = 206</text>
<text text-anchor="middle" x="899.5" y="-304.8" font-family="Times,serif" font-size="14.00">value = 17.434</text>
</g>
<!-- 0&#45;&gt;14 -->
<g id="edge14" class="edge">
<title>0&#45;&gt;14</title>
<path fill="none" stroke="black" d="M728.61,-408.79C760.53,-394.44 800.68,-376.41 834.03,-361.42"/>
<polygon fill="black" stroke="black" points="835.56,-364.57 843.25,-357.28 832.69,-358.18 835.56,-364.57"/>
<text text-anchor="middle" x="834.37" y="-376.95" font-family="Times,serif" font-size="14.00">False</text>
</g>
<!-- 2 -->
<g id="node3" class="node">
<title>2</title>
<polygon fill="#f5cdb1" stroke="black" points="213,-261 120,-261 120,-193 213,-193 213,-261"/>
<text text-anchor="middle" x="166.5" y="-245.8" font-family="Times,serif" font-size="14.00">DIS &lt;= 1.557</text>
<text text-anchor="middle" x="166.5" y="-230.8" font-family="Times,serif" font-size="14.00">mse = 40.029</text>
<text text-anchor="middle" x="166.5" y="-215.8" font-family="Times,serif" font-size="14.00">samples = 99</text>
<text text-anchor="middle" x="166.5" y="-200.8" font-family="Times,serif" font-size="14.00">value = 25.41</text>
</g>
<!-- 1&#45;&gt;2 -->
<g id="edge2" class="edge">
<title>1&#45;&gt;2</title>
<path fill="none" stroke="black" d="M403.98,-312.7C353.87,-294.83 275.75,-266.96 222.91,-248.12"/>
<polygon fill="black" stroke="black" points="223.95,-244.77 213.35,-244.71 221.6,-251.37 223.95,-244.77"/>
</g>
<!-- 7 -->
<g id="node8" class="node">
<title>7</title>
<polygon fill="#eda876" stroke="black" points="502,-261 403,-261 403,-193 502,-193 502,-261"/>
<text text-anchor="middle" x="452.5" y="-245.8" font-family="Times,serif" font-size="14.00">RM &lt;= 7.437</text>
<text text-anchor="middle" x="452.5" y="-230.8" font-family="Times,serif" font-size="14.00">mse = 61.342</text>
<text text-anchor="middle" x="452.5" y="-215.8" font-family="Times,serif" font-size="14.00">samples = 49</text>
<text text-anchor="middle" x="452.5" y="-200.8" font-family="Times,serif" font-size="14.00">value = 37.551</text>
</g>
<!-- 1&#45;&gt;7 -->
<g id="edge7" class="edge">
<title>1&#45;&gt;7</title>
<path fill="none" stroke="black" d="M452.5,-296.88C452.5,-288.78 452.5,-279.98 452.5,-271.47"/>
<polygon fill="black" stroke="black" points="456,-271.3 452.5,-261.3 449,-271.3 456,-271.3"/>
</g>
<!-- 3 -->
<g id="node4" class="node">
<title>3</title>
<polygon fill="#e58139" stroke="black" points="98.5,-149.5 12.5,-149.5 12.5,-96.5 98.5,-96.5 98.5,-149.5"/>
<text text-anchor="middle" x="55.5" y="-134.3" font-family="Times,serif" font-size="14.00">mse = 0.0</text>
<text text-anchor="middle" x="55.5" y="-119.3" font-family="Times,serif" font-size="14.00">samples = 4</text>
<text text-anchor="middle" x="55.5" y="-104.3" font-family="Times,serif" font-size="14.00">value = 50.0</text>
</g>
<!-- 2&#45;&gt;3 -->
<g id="edge3" class="edge">
<title>2&#45;&gt;3</title>
<path fill="none" stroke="black" d="M130.46,-192.88C117.78,-181.23 103.54,-168.14 90.9,-156.53"/>
<polygon fill="black" stroke="black" points="93,-153.71 83.27,-149.52 88.27,-158.86 93,-153.71"/>
</g>
<!-- 4 -->
<g id="node5" class="node">
<title>4</title>
<polygon fill="#f5d1b6" stroke="black" points="216,-157 117,-157 117,-89 216,-89 216,-157"/>
<text text-anchor="middle" x="166.5" y="-141.8" font-family="Times,serif" font-size="14.00">RM &lt;= 6.543</text>
<text text-anchor="middle" x="166.5" y="-126.8" font-family="Times,serif" font-size="14.00">mse = 15.183</text>
<text text-anchor="middle" x="166.5" y="-111.8" font-family="Times,serif" font-size="14.00">samples = 95</text>
<text text-anchor="middle" x="166.5" y="-96.8" font-family="Times,serif" font-size="14.00">value = 24.375</text>
</g>
<!-- 2&#45;&gt;4 -->
<g id="edge4" class="edge">
<title>2&#45;&gt;4</title>
<path fill="none" stroke="black" d="M166.5,-192.88C166.5,-184.78 166.5,-175.98 166.5,-167.47"/>
<polygon fill="black" stroke="black" points="170,-167.3 166.5,-157.3 163,-167.3 170,-167.3"/>
</g>
<!-- 5 -->
<g id="node6" class="node">
<title>5</title>
<polygon fill="#f7d7c0" stroke="black" points="99,-53 0,-53 0,0 99,0 99,-53"/>
<text text-anchor="middle" x="49.5" y="-37.8" font-family="Times,serif" font-size="14.00">mse = 7.134</text>
<text text-anchor="middle" x="49.5" y="-22.8" font-family="Times,serif" font-size="14.00">samples = 60</text>
<text text-anchor="middle" x="49.5" y="-7.8" font-family="Times,serif" font-size="14.00">value = 22.368</text>
</g>
<!-- 4&#45;&gt;5 -->
<g id="edge5" class="edge">
<title>4&#45;&gt;5</title>
<path fill="none" stroke="black" d="M125.58,-88.95C113.8,-79.43 100.97,-69.07 89.26,-59.62"/>
<polygon fill="black" stroke="black" points="91.34,-56.8 81.36,-53.24 86.94,-62.24 91.34,-56.8"/>
</g>
<!-- 6 -->
<g id="node7" class="node">
<title>6</title>
<polygon fill="#f3c6a5" stroke="black" points="216,-53 117,-53 117,0 216,0 216,-53"/>
<text text-anchor="middle" x="166.5" y="-37.8" font-family="Times,serif" font-size="14.00">mse = 10.249</text>
<text text-anchor="middle" x="166.5" y="-22.8" font-family="Times,serif" font-size="14.00">samples = 35</text>
<text text-anchor="middle" x="166.5" y="-7.8" font-family="Times,serif" font-size="14.00">value = 27.814</text>
</g>
<!-- 4&#45;&gt;6 -->
<g id="edge6" class="edge">
<title>4&#45;&gt;6</title>
<path fill="none" stroke="black" d="M166.5,-88.95C166.5,-80.72 166.5,-71.85 166.5,-63.48"/>
<polygon fill="black" stroke="black" points="170,-63.24 166.5,-53.24 163,-63.24 170,-63.24"/>
</g>
<!-- 8 -->
<g id="node9" class="node">
<title>8</title>
<polygon fill="#f0b489" stroke="black" points="444,-157 345,-157 345,-89 444,-89 444,-157"/>
<text text-anchor="middle" x="394.5" y="-141.8" font-family="Times,serif" font-size="14.00">DIS &lt;= 1.886</text>
<text text-anchor="middle" x="394.5" y="-126.8" font-family="Times,serif" font-size="14.00">mse = 24.577</text>
<text text-anchor="middle" x="394.5" y="-111.8" font-family="Times,serif" font-size="14.00">samples = 32</text>
<text text-anchor="middle" x="394.5" y="-96.8" font-family="Times,serif" font-size="14.00">value = 33.581</text>
</g>
<!-- 7&#45;&gt;8 -->
<g id="edge8" class="edge">
<title>7&#45;&gt;8</title>
<path fill="none" stroke="black" d="M433.67,-192.88C428.81,-184.33 423.51,-175.01 418.42,-166.07"/>
<polygon fill="black" stroke="black" points="421.42,-164.26 413.43,-157.3 415.34,-167.72 421.42,-164.26"/>
</g>
<!-- 11 -->
<g id="node12" class="node">
<title>11</title>
<polygon fill="#e89051" stroke="black" points="561,-157 462,-157 462,-89 561,-89 561,-157"/>
<text text-anchor="middle" x="511.5" y="-141.8" font-family="Times,serif" font-size="14.00">RAD &lt;= 16.0</text>
<text text-anchor="middle" x="511.5" y="-126.8" font-family="Times,serif" font-size="14.00">mse = 45.043</text>
<text text-anchor="middle" x="511.5" y="-111.8" font-family="Times,serif" font-size="14.00">samples = 17</text>
<text text-anchor="middle" x="511.5" y="-96.8" font-family="Times,serif" font-size="14.00">value = 45.024</text>
</g>
<!-- 7&#45;&gt;11 -->
<g id="edge11" class="edge">
<title>7&#45;&gt;11</title>
<path fill="none" stroke="black" d="M471.66,-192.88C476.6,-184.33 481.99,-175.01 487.16,-166.07"/>
<polygon fill="black" stroke="black" points="490.26,-167.71 492.24,-157.3 484.2,-164.2 490.26,-167.71"/>
</g>
<!-- 9 -->
<g id="node10" class="node">
<title>9</title>
<polygon fill="#e88f4e" stroke="black" points="326.5,-53 234.5,-53 234.5,0 326.5,0 326.5,-53"/>
<text text-anchor="middle" x="280.5" y="-37.8" font-family="Times,serif" font-size="14.00">mse = 18.923</text>
<text text-anchor="middle" x="280.5" y="-22.8" font-family="Times,serif" font-size="14.00">samples = 2</text>
<text text-anchor="middle" x="280.5" y="-7.8" font-family="Times,serif" font-size="14.00">value = 45.65</text>
</g>
<!-- 8&#45;&gt;9 -->
<g id="edge9" class="edge">
<title>8&#45;&gt;9</title>
<path fill="none" stroke="black" d="M354.63,-88.95C343.26,-79.53 330.89,-69.27 319.57,-59.89"/>
<polygon fill="black" stroke="black" points="321.48,-56.92 311.55,-53.24 317.01,-62.31 321.48,-56.92"/>
</g>
<!-- 10 -->
<g id="node11" class="node">
<title>10</title>
<polygon fill="#f0b78d" stroke="black" points="444,-53 345,-53 345,0 444,0 444,-53"/>
<text text-anchor="middle" x="394.5" y="-37.8" font-family="Times,serif" font-size="14.00">mse = 14.596</text>
<text text-anchor="middle" x="394.5" y="-22.8" font-family="Times,serif" font-size="14.00">samples = 30</text>
<text text-anchor="middle" x="394.5" y="-7.8" font-family="Times,serif" font-size="14.00">value = 32.777</text>
</g>
<!-- 8&#45;&gt;10 -->
<g id="edge10" class="edge">
<title>8&#45;&gt;10</title>
<path fill="none" stroke="black" d="M394.5,-88.95C394.5,-80.72 394.5,-71.85 394.5,-63.48"/>
<polygon fill="black" stroke="black" points="398,-63.24 394.5,-53.24 391,-63.24 398,-63.24"/>
</g>
<!-- 12 -->
<g id="node13" class="node">
<title>12</title>
<polygon fill="#e78c4a" stroke="black" points="561,-53 462,-53 462,0 561,0 561,-53"/>
<text text-anchor="middle" x="511.5" y="-37.8" font-family="Times,serif" font-size="14.00">mse = 12.351</text>
<text text-anchor="middle" x="511.5" y="-22.8" font-family="Times,serif" font-size="14.00">samples = 16</text>
<text text-anchor="middle" x="511.5" y="-7.8" font-family="Times,serif" font-size="14.00">value = 46.469</text>
</g>
<!-- 11&#45;&gt;12 -->
<g id="edge12" class="edge">
<title>11&#45;&gt;12</title>
<path fill="none" stroke="black" d="M511.5,-88.95C511.5,-80.72 511.5,-71.85 511.5,-63.48"/>
<polygon fill="black" stroke="black" points="515,-63.24 511.5,-53.24 508,-63.24 515,-63.24"/>
</g>
<!-- 13 -->
<g id="node14" class="node">
<title>13</title>
<polygon fill="#f7d8c2" stroke="black" points="665.5,-53 579.5,-53 579.5,0 665.5,0 665.5,-53"/>
<text text-anchor="middle" x="622.5" y="-37.8" font-family="Times,serif" font-size="14.00">mse = 0.0</text>
<text text-anchor="middle" x="622.5" y="-22.8" font-family="Times,serif" font-size="14.00">samples = 1</text>
<text text-anchor="middle" x="622.5" y="-7.8" font-family="Times,serif" font-size="14.00">value = 21.9</text>
</g>
<!-- 11&#45;&gt;13 -->
<g id="edge13" class="edge">
<title>11&#45;&gt;13</title>
<path fill="none" stroke="black" d="M550.32,-88.95C561.39,-79.53 573.43,-69.27 584.45,-59.89"/>
<polygon fill="black" stroke="black" points="586.92,-62.38 592.27,-53.24 582.39,-57.05 586.92,-62.38"/>
</g>
<!-- 15 -->
<g id="node16" class="node">
<title>15</title>
<polygon fill="#f9e1cf" stroke="black" points="952,-261 847,-261 847,-193 952,-193 952,-261"/>
<text text-anchor="middle" x="899.5" y="-245.8" font-family="Times,serif" font-size="14.00">LSTAT &lt;= 15.0</text>
<text text-anchor="middle" x="899.5" y="-230.8" font-family="Times,serif" font-size="14.00">mse = 15.402</text>
<text text-anchor="middle" x="899.5" y="-215.8" font-family="Times,serif" font-size="14.00">samples = 157</text>
<text text-anchor="middle" x="899.5" y="-200.8" font-family="Times,serif" font-size="14.00">value = 19.19</text>
</g>
<!-- 14&#45;&gt;15 -->
<g id="edge15" class="edge">
<title>14&#45;&gt;15</title>
<path fill="none" stroke="black" d="M899.5,-296.88C899.5,-288.78 899.5,-279.98 899.5,-271.47"/>
<polygon fill="black" stroke="black" points="903,-271.3 899.5,-261.3 896,-271.3 903,-271.3"/>
</g>
<!-- 22 -->
<g id="node23" class="node">
<title>22</title>
<polygon fill="#fdf8f3" stroke="black" points="1293,-261 1192,-261 1192,-193 1293,-193 1293,-261"/>
<text text-anchor="middle" x="1242.5" y="-245.8" font-family="Times,serif" font-size="14.00">NOX &lt;= 0.603</text>
<text text-anchor="middle" x="1242.5" y="-230.8" font-family="Times,serif" font-size="14.00">mse = 16.44</text>
<text text-anchor="middle" x="1242.5" y="-215.8" font-family="Times,serif" font-size="14.00">samples = 49</text>
<text text-anchor="middle" x="1242.5" y="-200.8" font-family="Times,serif" font-size="14.00">value = 11.806</text>
</g>
<!-- 14&#45;&gt;22 -->
<g id="edge22" class="edge">
<title>14&#45;&gt;22</title>
<path fill="none" stroke="black" d="M955.76,-313.27C1017.99,-294.76 1117.92,-265.05 1181.87,-246.03"/>
<polygon fill="black" stroke="black" points="1183.22,-249.28 1191.81,-243.07 1181.23,-242.57 1183.22,-249.28"/>
</g>
<!-- 16 -->
<g id="node17" class="node">
<title>16</title>
<polygon fill="#f8dcc8" stroke="black" points="889,-157 790,-157 790,-89 889,-89 889,-157"/>
<text text-anchor="middle" x="839.5" y="-141.8" font-family="Times,serif" font-size="14.00">RM &lt;= 6.938</text>
<text text-anchor="middle" x="839.5" y="-126.8" font-family="Times,serif" font-size="14.00">mse = 10.787</text>
<text text-anchor="middle" x="839.5" y="-111.8" font-family="Times,serif" font-size="14.00">samples = 96</text>
<text text-anchor="middle" x="839.5" y="-96.8" font-family="Times,serif" font-size="14.00">value = 20.724</text>
</g>
<!-- 15&#45;&gt;16 -->
<g id="edge16" class="edge">
<title>15&#45;&gt;16</title>
<path fill="none" stroke="black" d="M880.02,-192.88C874.99,-184.33 869.51,-175.01 864.25,-166.07"/>
<polygon fill="black" stroke="black" points="867.17,-164.14 859.09,-157.3 861.14,-167.69 867.17,-164.14"/>
</g>
<!-- 19 -->
<g id="node20" class="node">
<title>19</title>
<polygon fill="#fae8db" stroke="black" points="1014,-157 907,-157 907,-89 1014,-89 1014,-157"/>
<text text-anchor="middle" x="960.5" y="-141.8" font-family="Times,serif" font-size="14.00">CRIM &lt;= 0.654</text>
<text text-anchor="middle" x="960.5" y="-126.8" font-family="Times,serif" font-size="14.00">mse = 13.14</text>
<text text-anchor="middle" x="960.5" y="-111.8" font-family="Times,serif" font-size="14.00">samples = 61</text>
<text text-anchor="middle" x="960.5" y="-96.8" font-family="Times,serif" font-size="14.00">value = 16.777</text>
</g>
<!-- 15&#45;&gt;19 -->
<g id="edge19" class="edge">
<title>15&#45;&gt;19</title>
<path fill="none" stroke="black" d="M919.3,-192.88C924.42,-184.33 929.99,-175.01 935.34,-166.07"/>
<polygon fill="black" stroke="black" points="938.46,-167.68 940.59,-157.3 932.45,-164.09 938.46,-167.68"/>
</g>
<!-- 17 -->
<g id="node18" class="node">
<title>17</title>
<polygon fill="#f8ddc9" stroke="black" points="783,-53 684,-53 684,0 783,0 783,-53"/>
<text text-anchor="middle" x="733.5" y="-37.8" font-family="Times,serif" font-size="14.00">mse = 7.944</text>
<text text-anchor="middle" x="733.5" y="-22.8" font-family="Times,serif" font-size="14.00">samples = 93</text>
<text text-anchor="middle" x="733.5" y="-7.8" font-family="Times,serif" font-size="14.00">value = 20.409</text>
</g>
<!-- 16&#45;&gt;17 -->
<g id="edge17" class="edge">
<title>16&#45;&gt;17</title>
<path fill="none" stroke="black" d="M802.43,-88.95C791.96,-79.62 780.58,-69.47 770.14,-60.16"/>
<polygon fill="black" stroke="black" points="772.16,-57.28 762.37,-53.24 767.5,-62.5 772.16,-57.28"/>
</g>
<!-- 18 -->
<g id="node19" class="node">
<title>18</title>
<polygon fill="#f2be98" stroke="black" points="887.5,-53 801.5,-53 801.5,0 887.5,0 887.5,-53"/>
<text text-anchor="middle" x="844.5" y="-37.8" font-family="Times,serif" font-size="14.00">mse = 0.26</text>
<text text-anchor="middle" x="844.5" y="-22.8" font-family="Times,serif" font-size="14.00">samples = 3</text>
<text text-anchor="middle" x="844.5" y="-7.8" font-family="Times,serif" font-size="14.00">value = 30.5</text>
</g>
<!-- 16&#45;&gt;18 -->
<g id="edge18" class="edge">
<title>16&#45;&gt;18</title>
<path fill="none" stroke="black" d="M841.25,-88.95C841.68,-80.72 842.15,-71.85 842.6,-63.48"/>
<polygon fill="black" stroke="black" points="846.1,-63.41 843.14,-53.24 839.11,-63.04 846.1,-63.41"/>
</g>
<!-- 20 -->
<g id="node21" class="node">
<title>20</title>
<polygon fill="#f9e1d0" stroke="black" points="1005,-53 906,-53 906,0 1005,0 1005,-53"/>
<text text-anchor="middle" x="955.5" y="-37.8" font-family="Times,serif" font-size="14.00">mse = 7.257</text>
<text text-anchor="middle" x="955.5" y="-22.8" font-family="Times,serif" font-size="14.00">samples = 23</text>
<text text-anchor="middle" x="955.5" y="-7.8" font-family="Times,serif" font-size="14.00">value = 19.104</text>
</g>
<!-- 19&#45;&gt;20 -->
<g id="edge20" class="edge">
<title>19&#45;&gt;20</title>
<path fill="none" stroke="black" d="M958.75,-88.95C958.32,-80.72 957.85,-71.85 957.4,-63.48"/>
<polygon fill="black" stroke="black" points="960.89,-63.04 956.86,-53.24 953.9,-63.41 960.89,-63.04"/>
</g>
<!-- 21 -->
<g id="node22" class="node">
<title>21</title>
<polygon fill="#fbede2" stroke="black" points="1122,-53 1023,-53 1023,0 1122,0 1122,-53"/>
<text text-anchor="middle" x="1072.5" y="-37.8" font-family="Times,serif" font-size="14.00">mse = 11.438</text>
<text text-anchor="middle" x="1072.5" y="-22.8" font-family="Times,serif" font-size="14.00">samples = 38</text>
<text text-anchor="middle" x="1072.5" y="-7.8" font-family="Times,serif" font-size="14.00">value = 15.368</text>
</g>
<!-- 19&#45;&gt;21 -->
<g id="edge21" class="edge">
<title>19&#45;&gt;21</title>
<path fill="none" stroke="black" d="M999.67,-88.95C1010.84,-79.53 1022.99,-69.27 1034.11,-59.89"/>
<polygon fill="black" stroke="black" points="1036.61,-62.36 1042,-53.24 1032.1,-57.01 1036.61,-62.36"/>
</g>
<!-- 23 -->
<g id="node24" class="node">
<title>23</title>
<polygon fill="#fae7d9" stroke="black" points="1293,-157 1192,-157 1192,-89 1293,-89 1293,-157"/>
<text text-anchor="middle" x="1242.5" y="-141.8" font-family="Times,serif" font-size="14.00">NOX &lt;= 0.506</text>
<text text-anchor="middle" x="1242.5" y="-126.8" font-family="Times,serif" font-size="14.00">mse = 9.703</text>
<text text-anchor="middle" x="1242.5" y="-111.8" font-family="Times,serif" font-size="14.00">samples = 11</text>
<text text-anchor="middle" x="1242.5" y="-96.8" font-family="Times,serif" font-size="14.00">value = 17.218</text>
</g>
<!-- 22&#45;&gt;23 -->
<g id="edge23" class="edge">
<title>22&#45;&gt;23</title>
<path fill="none" stroke="black" d="M1242.5,-192.88C1242.5,-184.78 1242.5,-175.98 1242.5,-167.47"/>
<polygon fill="black" stroke="black" points="1246,-167.3 1242.5,-157.3 1239,-167.3 1246,-167.3"/>
</g>
<!-- 26 -->
<g id="node27" class="node">
<title>26</title>
<polygon fill="#fefdfb" stroke="black" points="1467,-157 1368,-157 1368,-89 1467,-89 1467,-157"/>
<text text-anchor="middle" x="1417.5" y="-141.8" font-family="Times,serif" font-size="14.00">TAX &lt;= 551.5</text>
<text text-anchor="middle" x="1417.5" y="-126.8" font-family="Times,serif" font-size="14.00">mse = 7.457</text>
<text text-anchor="middle" x="1417.5" y="-111.8" font-family="Times,serif" font-size="14.00">samples = 38</text>
<text text-anchor="middle" x="1417.5" y="-96.8" font-family="Times,serif" font-size="14.00">value = 10.239</text>
</g>
<!-- 22&#45;&gt;26 -->
<g id="edge26" class="edge">
<title>22&#45;&gt;26</title>
<path fill="none" stroke="black" d="M1293.12,-196.5C1313.79,-184.45 1337.82,-170.44 1359.22,-157.97"/>
<polygon fill="black" stroke="black" points="1361.03,-160.97 1367.9,-152.91 1357.5,-154.92 1361.03,-160.97"/>
</g>
<!-- 24 -->
<g id="node25" class="node">
<title>24</title>
<polygon fill="#f7d8c2" stroke="black" points="1232.5,-53 1140.5,-53 1140.5,0 1232.5,0 1232.5,-53"/>
<text text-anchor="middle" x="1186.5" y="-37.8" font-family="Times,serif" font-size="14.00">mse = 3.422</text>
<text text-anchor="middle" x="1186.5" y="-22.8" font-family="Times,serif" font-size="14.00">samples = 2</text>
<text text-anchor="middle" x="1186.5" y="-7.8" font-family="Times,serif" font-size="14.00">value = 21.85</text>
</g>
<!-- 23&#45;&gt;24 -->
<g id="edge24" class="edge">
<title>23&#45;&gt;24</title>
<path fill="none" stroke="black" d="M1222.91,-88.95C1217.76,-80.26 1212.2,-70.86 1207,-62.09"/>
<polygon fill="black" stroke="black" points="1209.86,-60.06 1201.75,-53.24 1203.84,-63.62 1209.86,-60.06"/>
</g>
<!-- 25 -->
<g id="node26" class="node">
<title>25</title>
<polygon fill="#fbeade" stroke="black" points="1350,-53 1251,-53 1251,0 1350,0 1350,-53"/>
<text text-anchor="middle" x="1300.5" y="-37.8" font-family="Times,serif" font-size="14.00">mse = 5.272</text>
<text text-anchor="middle" x="1300.5" y="-22.8" font-family="Times,serif" font-size="14.00">samples = 9</text>
<text text-anchor="middle" x="1300.5" y="-7.8" font-family="Times,serif" font-size="14.00">value = 16.189</text>
</g>
<!-- 23&#45;&gt;25 -->
<g id="edge25" class="edge">
<title>23&#45;&gt;25</title>
<path fill="none" stroke="black" d="M1262.79,-88.95C1268.18,-80.17 1274.01,-70.66 1279.44,-61.82"/>
<polygon fill="black" stroke="black" points="1282.46,-63.59 1284.7,-53.24 1276.49,-59.93 1282.46,-63.59"/>
</g>
<!-- 27 -->
<g id="node28" class="node">
<title>27</title>
<polygon fill="#fcf2ea" stroke="black" points="1467,-53 1368,-53 1368,0 1467,0 1467,-53"/>
<text text-anchor="middle" x="1417.5" y="-37.8" font-family="Times,serif" font-size="14.00">mse = 1.091</text>
<text text-anchor="middle" x="1417.5" y="-22.8" font-family="Times,serif" font-size="14.00">samples = 7</text>
<text text-anchor="middle" x="1417.5" y="-7.8" font-family="Times,serif" font-size="14.00">value = 13.757</text>
</g>
<!-- 26&#45;&gt;27 -->
<g id="edge27" class="edge">
<title>26&#45;&gt;27</title>
<path fill="none" stroke="black" d="M1417.5,-88.95C1417.5,-80.72 1417.5,-71.85 1417.5,-63.48"/>
<polygon fill="black" stroke="black" points="1421,-63.24 1417.5,-53.24 1414,-63.24 1421,-63.24"/>
</g>
<!-- 28 -->
<g id="node29" class="node">
<title>28</title>
<polygon fill="#ffffff" stroke="black" points="1577.5,-53 1485.5,-53 1485.5,0 1577.5,0 1577.5,-53"/>
<text text-anchor="middle" x="1531.5" y="-37.8" font-family="Times,serif" font-size="14.00">mse = 5.469</text>
<text text-anchor="middle" x="1531.5" y="-22.8" font-family="Times,serif" font-size="14.00">samples = 31</text>
<text text-anchor="middle" x="1531.5" y="-7.8" font-family="Times,serif" font-size="14.00">value = 9.445</text>
</g>
<!-- 26&#45;&gt;28 -->
<g id="edge28" class="edge">
<title>26&#45;&gt;28</title>
<path fill="none" stroke="black" d="M1457.37,-88.95C1468.74,-79.53 1481.11,-69.27 1492.43,-59.89"/>
<polygon fill="black" stroke="black" points="1494.99,-62.31 1500.45,-53.24 1490.52,-56.92 1494.99,-62.31"/>
</g>
</g>
</svg>
