<?xml version="1.0" encoding="UTF-8" standalone="no"?>
<!DOCTYPE svg PUBLIC "-//W3C//DTD SVG 1.1//EN"
 "http://www.w3.org/Graphics/SVG/1.1/DTD/svg11.dtd">
<!-- Generated by graphviz version 2.46.1 (20210213.1702)
 -->
<!-- Title: Tree Pages: 1 -->
<svg width="1544pt" height="477pt"
 viewBox="0.00 0.00 1543.50 477.00" xmlns="http://www.w3.org/2000/svg" xmlns:xlink="http://www.w3.org/1999/xlink">
<g id="graph0" class="graph" transform="scale(1 1) rotate(0) translate(4 473)">
<title>Tree</title>
<polygon fill="white" stroke="transparent" points="-4,4 -4,-473 1539.5,-473 1539.5,4 -4,4"/>
<!-- 0 -->
<g id="node1" class="node">
<title>0</title>
<polygon fill="#f6d4bb" stroke="black" points="731,-469 632,-469 632,-401 731,-401 731,-469"/>
<text text-anchor="middle" x="681.5" y="-453.8" font-family="Times,serif" font-size="14.00">RM &lt;= 6.978</text>
<text text-anchor="middle" x="681.5" y="-438.8" font-family="Times,serif" font-size="14.00">mse = 93.457</text>
<text text-anchor="middle" x="681.5" y="-423.8" font-family="Times,serif" font-size="14.00">samples = 354</text>
<text text-anchor="middle" x="681.5" y="-408.8" font-family="Times,serif" font-size="14.00">value = 22.763</text>
</g>
<!-- 1 -->
<g id="node2" class="node">
<title>1</title>
<polygon fill="#f8dcc7" stroke="black" points="512,-365 407,-365 407,-297 512,-297 512,-365"/>
<text text-anchor="middle" x="459.5" y="-349.8" font-family="Times,serif" font-size="14.00">LSTAT &lt;= 14.4</text>
<text text-anchor="middle" x="459.5" y="-334.8" font-family="Times,serif" font-size="14.00">mse = 46.975</text>
<text text-anchor="middle" x="459.5" y="-319.8" font-family="Times,serif" font-size="14.00">samples = 306</text>
<text text-anchor="middle" x="459.5" y="-304.8" font-family="Times,serif" font-size="14.00">value = 20.171</text>
</g>
<!-- 0&#45;&gt;1 -->
<g id="edge1" class="edge">
<title>0&#45;&gt;1</title>
<path fill="none" stroke="black" d="M631.96,-411.24C599.34,-396.25 556.4,-376.52 521.52,-360.5"/>
<polygon fill="black" stroke="black" points="522.93,-357.29 512.38,-356.3 520,-363.65 522.93,-357.29"/>
<text text-anchor="middle" x="521.06" y="-376.04" font-family="Times,serif" font-size="14.00">True</text>
</g>
<!-- 14 -->
<g id="node15" class="node">
<title>14</title>
<polygon fill="#eca26c" stroke="black" points="949,-365 856,-365 856,-297 949,-297 949,-365"/>
<text text-anchor="middle" x="902.5" y="-349.8" font-family="Times,serif" font-size="14.00">RM &lt;= 7.445</text>
<text text-anchor="middle" x="902.5" y="-334.8" font-family="Times,serif" font-size="14.00">mse = 73.815</text>
<text text-anchor="middle" x="902.5" y="-319.8" font-family="Times,serif" font-size="14.00">samples = 48</text>
<text text-anchor="middle" x="902.5" y="-304.8" font-family="Times,serif" font-size="14.00">value = 39.29</text>
</g>
<!-- 0&#45;&gt;14 -->
<g id="edge14" class="edge">
<title>0&#45;&gt;14</title>
<path fill="none" stroke="black" d="M731.1,-411.11C765.33,-395.31 810.89,-374.28 846.44,-357.87"/>
<polygon fill="black" stroke="black" points="848.1,-360.96 855.71,-353.59 845.17,-354.61 848.1,-360.96"/>
<text text-anchor="middle" x="847.07" y="-373.35" font-family="Times,serif" font-size="14.00">False</text>
</g>
<!-- 2 -->
<g id="node3" class="node">
<title>2</title>
<polygon fill="#f5d0b6" stroke="black" points="216,-261 117,-261 117,-193 216,-193 216,-261"/>
<text text-anchor="middle" x="166.5" y="-245.8" font-family="Times,serif" font-size="14.00">DIS &lt;= 1.385</text>
<text text-anchor="middle" x="166.5" y="-230.8" font-family="Times,serif" font-size="14.00">mse = 31.568</text>
<text text-anchor="middle" x="166.5" y="-215.8" font-family="Times,serif" font-size="14.00">samples = 185</text>
<text text-anchor="middle" x="166.5" y="-200.8" font-family="Times,serif" font-size="14.00">value = 23.883</text>
</g>
<!-- 1&#45;&gt;2 -->
<g id="edge2" class="edge">
<title>1&#45;&gt;2</title>
<path fill="none" stroke="black" d="M406.78,-311.65C355.9,-293.94 279,-267.16 225.97,-248.7"/>
<polygon fill="black" stroke="black" points="226.95,-245.34 216.35,-245.36 224.65,-251.95 226.95,-245.34"/>
</g>
<!-- 7 -->
<g id="node8" class="node">
<title>7</title>
<polygon fill="#fbede3" stroke="black" points="513,-261 406,-261 406,-193 513,-193 513,-261"/>
<text text-anchor="middle" x="459.5" y="-245.8" font-family="Times,serif" font-size="14.00">CRIM &lt;= 7.904</text>
<text text-anchor="middle" x="459.5" y="-230.8" font-family="Times,serif" font-size="14.00">mse = 17.261</text>
<text text-anchor="middle" x="459.5" y="-215.8" font-family="Times,serif" font-size="14.00">samples = 121</text>
<text text-anchor="middle" x="459.5" y="-200.8" font-family="Times,serif" font-size="14.00">value = 14.496</text>
</g>
<!-- 1&#45;&gt;7 -->
<g id="edge7" class="edge">
<title>1&#45;&gt;7</title>
<path fill="none" stroke="black" d="M459.5,-296.88C459.5,-288.78 459.5,-279.98 459.5,-271.47"/>
<polygon fill="black" stroke="black" points="463,-271.3 459.5,-261.3 456,-271.3 463,-271.3"/>
</g>
<!-- 3 -->
<g id="node4" class="node">
<title>3</title>
<polygon fill="#e58139" stroke="black" points="98.5,-149.5 12.5,-149.5 12.5,-96.5 98.5,-96.5 98.5,-149.5"/>
<text text-anchor="middle" x="55.5" y="-134.3" font-family="Times,serif" font-size="14.00">mse = 0.0</text>
<text text-anchor="middle" x="55.5" y="-119.3" font-family="Times,serif" font-size="14.00">samples = 4</text>
<text text-anchor="middle" x="55.5" y="-104.3" font-family="Times,serif" font-size="14.00">value = 50.0</text>
</g>
<!-- 2&#45;&gt;3 -->
<g id="edge3" class="edge">
<title>2&#45;&gt;3</title>
<path fill="none" stroke="black" d="M130.46,-192.88C117.78,-181.23 103.54,-168.14 90.9,-156.53"/>
<polygon fill="black" stroke="black" points="93,-153.71 83.27,-149.52 88.27,-158.86 93,-153.71"/>
</g>
<!-- 4 -->
<g id="node5" class="node">
<title>4</title>
<polygon fill="#f6d2b9" stroke="black" points="216,-157 117,-157 117,-89 216,-89 216,-157"/>
<text text-anchor="middle" x="166.5" y="-141.8" font-family="Times,serif" font-size="14.00">RM &lt;= 6.543</text>
<text text-anchor="middle" x="166.5" y="-126.8" font-family="Times,serif" font-size="14.00">mse = 16.858</text>
<text text-anchor="middle" x="166.5" y="-111.8" font-family="Times,serif" font-size="14.00">samples = 181</text>
<text text-anchor="middle" x="166.5" y="-96.8" font-family="Times,serif" font-size="14.00">value = 23.306</text>
</g>
<!-- 2&#45;&gt;4 -->
<g id="edge4" class="edge">
<title>2&#45;&gt;4</title>
<path fill="none" stroke="black" d="M166.5,-192.88C166.5,-184.78 166.5,-175.98 166.5,-167.47"/>
<polygon fill="black" stroke="black" points="170,-167.3 166.5,-157.3 163,-167.3 170,-167.3"/>
</g>
<!-- 5 -->
<g id="node6" class="node">
<title>5</title>
<polygon fill="#f7d6bf" stroke="black" points="99,-53 0,-53 0,0 99,0 99,-53"/>
<text text-anchor="middle" x="49.5" y="-37.8" font-family="Times,serif" font-size="14.00">mse = 8.738</text>
<text text-anchor="middle" x="49.5" y="-22.8" font-family="Times,serif" font-size="14.00">samples = 138</text>
<text text-anchor="middle" x="49.5" y="-7.8" font-family="Times,serif" font-size="14.00">value = 21.917</text>
</g>
<!-- 4&#45;&gt;5 -->
<g id="edge5" class="edge">
<title>4&#45;&gt;5</title>
<path fill="none" stroke="black" d="M125.58,-88.95C113.8,-79.43 100.97,-69.07 89.26,-59.62"/>
<polygon fill="black" stroke="black" points="91.34,-56.8 81.36,-53.24 86.94,-62.24 91.34,-56.8"/>
</g>
<!-- 6 -->
<g id="node7" class="node">
<title>6</title>
<polygon fill="#f3c5a3" stroke="black" points="216,-53 117,-53 117,0 216,0 216,-53"/>
<text text-anchor="middle" x="166.5" y="-37.8" font-family="Times,serif" font-size="14.00">mse = 16.86</text>
<text text-anchor="middle" x="166.5" y="-22.8" font-family="Times,serif" font-size="14.00">samples = 43</text>
<text text-anchor="middle" x="166.5" y="-7.8" font-family="Times,serif" font-size="14.00">value = 27.763</text>
</g>
<!-- 4&#45;&gt;6 -->
<g id="edge6" class="edge">
<title>4&#45;&gt;6</title>
<path fill="none" stroke="black" d="M166.5,-88.95C166.5,-80.72 166.5,-71.85 166.5,-63.48"/>
<polygon fill="black" stroke="black" points="170,-63.24 166.5,-53.24 163,-63.24 170,-63.24"/>
</g>
<!-- 8 -->
<g id="node9" class="node">
<title>8</title>
<polygon fill="#fae6d8" stroke="black" points="447,-157 348,-157 348,-89 447,-89 447,-157"/>
<text text-anchor="middle" x="397.5" y="-141.8" font-family="Times,serif" font-size="14.00">B &lt;= 378.23</text>
<text text-anchor="middle" x="397.5" y="-126.8" font-family="Times,serif" font-size="14.00">mse = 9.125</text>
<text text-anchor="middle" x="397.5" y="-111.8" font-family="Times,serif" font-size="14.00">samples = 72</text>
<text text-anchor="middle" x="397.5" y="-96.8" font-family="Times,serif" font-size="14.00">value = 16.742</text>
</g>
<!-- 7&#45;&gt;8 -->
<g id="edge8" class="edge">
<title>7&#45;&gt;8</title>
<path fill="none" stroke="black" d="M439.37,-192.88C434.17,-184.33 428.51,-175.01 423.07,-166.07"/>
<polygon fill="black" stroke="black" points="425.93,-164.03 417.74,-157.3 419.94,-167.66 425.93,-164.03"/>
</g>
<!-- 11 -->
<g id="node12" class="node">
<title>11</title>
<polygon fill="#fdf7f2" stroke="black" points="578,-157 465,-157 465,-89 578,-89 578,-157"/>
<text text-anchor="middle" x="521.5" y="-141.8" font-family="Times,serif" font-size="14.00">CRIM &lt;= 15.718</text>
<text text-anchor="middle" x="521.5" y="-126.8" font-family="Times,serif" font-size="14.00">mse = 10.916</text>
<text text-anchor="middle" x="521.5" y="-111.8" font-family="Times,serif" font-size="14.00">samples = 49</text>
<text text-anchor="middle" x="521.5" y="-96.8" font-family="Times,serif" font-size="14.00">value = 11.196</text>
</g>
<!-- 7&#45;&gt;11 -->
<g id="edge11" class="edge">
<title>7&#45;&gt;11</title>
<path fill="none" stroke="black" d="M479.63,-192.88C484.83,-184.33 490.49,-175.01 495.93,-166.07"/>
<polygon fill="black" stroke="black" points="499.06,-167.66 501.26,-157.3 493.07,-164.03 499.06,-167.66"/>
</g>
<!-- 9 -->
<g id="node10" class="node">
<title>9</title>
<polygon fill="#fbece1" stroke="black" points="333,-53 234,-53 234,0 333,0 333,-53"/>
<text text-anchor="middle" x="283.5" y="-37.8" font-family="Times,serif" font-size="14.00">mse = 5.568</text>
<text text-anchor="middle" x="283.5" y="-22.8" font-family="Times,serif" font-size="14.00">samples = 30</text>
<text text-anchor="middle" x="283.5" y="-7.8" font-family="Times,serif" font-size="14.00">value = 14.813</text>
</g>
<!-- 8&#45;&gt;9 -->
<g id="edge9" class="edge">
<title>8&#45;&gt;9</title>
<path fill="none" stroke="black" d="M357.63,-88.95C346.26,-79.53 333.89,-69.27 322.57,-59.89"/>
<polygon fill="black" stroke="black" points="324.48,-56.92 314.55,-53.24 320.01,-62.31 324.48,-56.92"/>
</g>
<!-- 10 -->
<g id="node11" class="node">
<title>10</title>
<polygon fill="#f9e2d1" stroke="black" points="450,-53 351,-53 351,0 450,0 450,-53"/>
<text text-anchor="middle" x="400.5" y="-37.8" font-family="Times,serif" font-size="14.00">mse = 7.112</text>
<text text-anchor="middle" x="400.5" y="-22.8" font-family="Times,serif" font-size="14.00">samples = 42</text>
<text text-anchor="middle" x="400.5" y="-7.8" font-family="Times,serif" font-size="14.00">value = 18.119</text>
</g>
<!-- 8&#45;&gt;10 -->
<g id="edge10" class="edge">
<title>8&#45;&gt;10</title>
<path fill="none" stroke="black" d="M398.55,-88.95C398.81,-80.72 399.09,-71.85 399.36,-63.48"/>
<polygon fill="black" stroke="black" points="402.86,-63.34 399.68,-53.24 395.87,-63.12 402.86,-63.34"/>
</g>
<!-- 12 -->
<g id="node13" class="node">
<title>12</title>
<polygon fill="#fcf2eb" stroke="black" points="567,-53 468,-53 468,0 567,0 567,-53"/>
<text text-anchor="middle" x="517.5" y="-37.8" font-family="Times,serif" font-size="14.00">mse = 8.327</text>
<text text-anchor="middle" x="517.5" y="-22.8" font-family="Times,serif" font-size="14.00">samples = 31</text>
<text text-anchor="middle" x="517.5" y="-7.8" font-family="Times,serif" font-size="14.00">value = 12.732</text>
</g>
<!-- 11&#45;&gt;12 -->
<g id="edge12" class="edge">
<title>11&#45;&gt;12</title>
<path fill="none" stroke="black" d="M520.1,-88.95C519.75,-80.72 519.38,-71.85 519.02,-63.48"/>
<polygon fill="black" stroke="black" points="522.51,-63.08 518.59,-53.24 515.52,-63.38 522.51,-63.08"/>
</g>
<!-- 13 -->
<g id="node14" class="node">
<title>13</title>
<polygon fill="#ffffff" stroke="black" points="675.5,-53 585.5,-53 585.5,0 675.5,0 675.5,-53"/>
<text text-anchor="middle" x="630.5" y="-37.8" font-family="Times,serif" font-size="14.00">mse = 4.308</text>
<text text-anchor="middle" x="630.5" y="-22.8" font-family="Times,serif" font-size="14.00">samples = 18</text>
<text text-anchor="middle" x="630.5" y="-7.8" font-family="Times,serif" font-size="14.00">value = 8.55</text>
</g>
<!-- 11&#45;&gt;13 -->
<g id="edge13" class="edge">
<title>11&#45;&gt;13</title>
<path fill="none" stroke="black" d="M559.62,-88.95C570.49,-79.53 582.32,-69.27 593.14,-59.89"/>
<polygon fill="black" stroke="black" points="595.55,-62.43 600.81,-53.24 590.97,-57.14 595.55,-62.43"/>
</g>
<!-- 15 -->
<g id="node16" class="node">
<title>15</title>
<polygon fill="#f0b58a" stroke="black" points="953,-261 852,-261 852,-193 953,-193 953,-261"/>
<text text-anchor="middle" x="902.5" y="-245.8" font-family="Times,serif" font-size="14.00">NOX &lt;= 0.659</text>
<text text-anchor="middle" x="902.5" y="-230.8" font-family="Times,serif" font-size="14.00">mse = 38.256</text>
<text text-anchor="middle" x="902.5" y="-215.8" font-family="Times,serif" font-size="14.00">samples = 26</text>
<text text-anchor="middle" x="902.5" y="-200.8" font-family="Times,serif" font-size="14.00">value = 33.054</text>
</g>
<!-- 14&#45;&gt;15 -->
<g id="edge15" class="edge">
<title>14&#45;&gt;15</title>
<path fill="none" stroke="black" d="M902.5,-296.88C902.5,-288.78 902.5,-279.98 902.5,-271.47"/>
<polygon fill="black" stroke="black" points="906,-271.3 902.5,-261.3 899,-271.3 906,-271.3"/>
</g>
<!-- 22 -->
<g id="node23" class="node">
<title>22</title>
<polygon fill="#e78b49" stroke="black" points="1265,-261 1158,-261 1158,-193 1265,-193 1265,-261"/>
<text text-anchor="middle" x="1211.5" y="-245.8" font-family="Times,serif" font-size="14.00">CRIM &lt;= 0.577</text>
<text text-anchor="middle" x="1211.5" y="-230.8" font-family="Times,serif" font-size="14.00">mse = 15.575</text>
<text text-anchor="middle" x="1211.5" y="-215.8" font-family="Times,serif" font-size="14.00">samples = 22</text>
<text text-anchor="middle" x="1211.5" y="-200.8" font-family="Times,serif" font-size="14.00">value = 46.659</text>
</g>
<!-- 14&#45;&gt;22 -->
<g id="edge22" class="edge">
<title>14&#45;&gt;22</title>
<path fill="none" stroke="black" d="M949.09,-314.62C1002.12,-297.12 1089.01,-268.43 1148.15,-248.91"/>
<polygon fill="black" stroke="black" points="1149.36,-252.2 1157.76,-245.74 1147.17,-245.55 1149.36,-252.2"/>
</g>
<!-- 16 -->
<g id="node17" class="node">
<title>16</title>
<polygon fill="#efb083" stroke="black" points="895,-157 796,-157 796,-89 895,-89 895,-157"/>
<text text-anchor="middle" x="845.5" y="-141.8" font-family="Times,serif" font-size="14.00">DIS &lt;= 1.549</text>
<text text-anchor="middle" x="845.5" y="-126.8" font-family="Times,serif" font-size="14.00">mse = 16.242</text>
<text text-anchor="middle" x="845.5" y="-111.8" font-family="Times,serif" font-size="14.00">samples = 24</text>
<text text-anchor="middle" x="845.5" y="-96.8" font-family="Times,serif" font-size="14.00">value = 34.442</text>
</g>
<!-- 15&#45;&gt;16 -->
<g id="edge16" class="edge">
<title>15&#45;&gt;16</title>
<path fill="none" stroke="black" d="M883.99,-192.88C879.22,-184.33 874.01,-175.01 869.01,-166.07"/>
<polygon fill="black" stroke="black" points="872.04,-164.32 864.11,-157.3 865.93,-167.74 872.04,-164.32"/>
</g>
<!-- 19 -->
<g id="node20" class="node">
<title>19</title>
<polygon fill="#fae7da" stroke="black" points="1006,-157 913,-157 913,-89 1006,-89 1006,-157"/>
<text text-anchor="middle" x="959.5" y="-141.8" font-family="Times,serif" font-size="14.00">DIS &lt;= 1.884</text>
<text text-anchor="middle" x="959.5" y="-126.8" font-family="Times,serif" font-size="14.00">mse = 1.96</text>
<text text-anchor="middle" x="959.5" y="-111.8" font-family="Times,serif" font-size="14.00">samples = 2</text>
<text text-anchor="middle" x="959.5" y="-96.8" font-family="Times,serif" font-size="14.00">value = 16.4</text>
</g>
<!-- 15&#45;&gt;19 -->
<g id="edge19" class="edge">
<title>15&#45;&gt;19</title>
<path fill="none" stroke="black" d="M921.01,-192.88C925.78,-184.33 930.99,-175.01 935.99,-166.07"/>
<polygon fill="black" stroke="black" points="939.07,-167.74 940.89,-157.3 932.96,-164.32 939.07,-167.74"/>
</g>
<!-- 17 -->
<g id="node18" class="node">
<title>17</title>
<polygon fill="#e58139" stroke="black" points="779.5,-53 693.5,-53 693.5,0 779.5,0 779.5,-53"/>
<text text-anchor="middle" x="736.5" y="-37.8" font-family="Times,serif" font-size="14.00">mse = 0.0</text>
<text text-anchor="middle" x="736.5" y="-22.8" font-family="Times,serif" font-size="14.00">samples = 1</text>
<text text-anchor="middle" x="736.5" y="-7.8" font-family="Times,serif" font-size="14.00">value = 50.0</text>
</g>
<!-- 16&#45;&gt;17 -->
<g id="edge17" class="edge">
<title>16&#45;&gt;17</title>
<path fill="none" stroke="black" d="M807.38,-88.95C796.51,-79.53 784.68,-69.27 773.86,-59.89"/>
<polygon fill="black" stroke="black" points="776.03,-57.14 766.19,-53.24 771.45,-62.43 776.03,-57.14"/>
</g>
<!-- 18 -->
<g id="node19" class="node">
<title>18</title>
<polygon fill="#efb287" stroke="black" points="897,-53 798,-53 798,0 897,0 897,-53"/>
<text text-anchor="middle" x="847.5" y="-37.8" font-family="Times,serif" font-size="14.00">mse = 5.966</text>
<text text-anchor="middle" x="847.5" y="-22.8" font-family="Times,serif" font-size="14.00">samples = 23</text>
<text text-anchor="middle" x="847.5" y="-7.8" font-family="Times,serif" font-size="14.00">value = 33.765</text>
</g>
<!-- 16&#45;&gt;18 -->
<g id="edge18" class="edge">
<title>16&#45;&gt;18</title>
<path fill="none" stroke="black" d="M846.2,-88.95C846.37,-80.72 846.56,-71.85 846.74,-63.48"/>
<polygon fill="black" stroke="black" points="850.24,-63.31 846.96,-53.24 843.24,-63.16 850.24,-63.31"/>
</g>
<!-- 20 -->
<g id="node21" class="node">
<title>20</title>
<polygon fill="#fbebe0" stroke="black" points="1001.5,-53 915.5,-53 915.5,0 1001.5,0 1001.5,-53"/>
<text text-anchor="middle" x="958.5" y="-37.8" font-family="Times,serif" font-size="14.00">mse = 0.0</text>
<text text-anchor="middle" x="958.5" y="-22.8" font-family="Times,serif" font-size="14.00">samples = 1</text>
<text text-anchor="middle" x="958.5" y="-7.8" font-family="Times,serif" font-size="14.00">value = 15.0</text>
</g>
<!-- 19&#45;&gt;20 -->
<g id="edge20" class="edge">
<title>19&#45;&gt;20</title>
<path fill="none" stroke="black" d="M959.15,-88.95C959.06,-80.72 958.97,-71.85 958.88,-63.48"/>
<polygon fill="black" stroke="black" points="962.38,-63.2 958.77,-53.24 955.38,-63.27 962.38,-63.2"/>
</g>
<!-- 21 -->
<g id="node22" class="node">
<title>21</title>
<polygon fill="#f9e3d3" stroke="black" points="1105.5,-53 1019.5,-53 1019.5,0 1105.5,0 1105.5,-53"/>
<text text-anchor="middle" x="1062.5" y="-37.8" font-family="Times,serif" font-size="14.00">mse = 0.0</text>
<text text-anchor="middle" x="1062.5" y="-22.8" font-family="Times,serif" font-size="14.00">samples = 1</text>
<text text-anchor="middle" x="1062.5" y="-7.8" font-family="Times,serif" font-size="14.00">value = 17.8</text>
</g>
<!-- 19&#45;&gt;21 -->
<g id="edge21" class="edge">
<title>19&#45;&gt;21</title>
<path fill="none" stroke="black" d="M995.52,-88.95C1005.69,-79.62 1016.75,-69.47 1026.9,-60.16"/>
<polygon fill="black" stroke="black" points="1029.45,-62.58 1034.45,-53.24 1024.71,-57.42 1029.45,-62.58"/>
</g>
<!-- 23 -->
<g id="node24" class="node">
<title>23</title>
<polygon fill="#e88f4f" stroke="black" points="1265,-157 1158,-157 1158,-89 1265,-89 1265,-157"/>
<text text-anchor="middle" x="1211.5" y="-141.8" font-family="Times,serif" font-size="14.00">CRIM &lt;= 0.021</text>
<text text-anchor="middle" x="1211.5" y="-126.8" font-family="Times,serif" font-size="14.00">mse = 15.661</text>
<text text-anchor="middle" x="1211.5" y="-111.8" font-family="Times,serif" font-size="14.00">samples = 16</text>
<text text-anchor="middle" x="1211.5" y="-96.8" font-family="Times,serif" font-size="14.00">value = 45.406</text>
</g>
<!-- 22&#45;&gt;23 -->
<g id="edge23" class="edge">
<title>22&#45;&gt;23</title>
<path fill="none" stroke="black" d="M1211.5,-192.88C1211.5,-184.78 1211.5,-175.98 1211.5,-167.47"/>
<polygon fill="black" stroke="black" points="1215,-167.3 1211.5,-157.3 1208,-167.3 1215,-167.3"/>
</g>
<!-- 26 -->
<g id="node27" class="node">
<title>26</title>
<polygon fill="#e58139" stroke="black" points="1448,-157 1329,-157 1329,-89 1448,-89 1448,-157"/>
<text text-anchor="middle" x="1388.5" y="-141.8" font-family="Times,serif" font-size="14.00">INDUS &lt;= 11.775</text>
<text text-anchor="middle" x="1388.5" y="-126.8" font-family="Times,serif" font-size="14.00">mse = 0.0</text>
<text text-anchor="middle" x="1388.5" y="-111.8" font-family="Times,serif" font-size="14.00">samples = 6</text>
<text text-anchor="middle" x="1388.5" y="-96.8" font-family="Times,serif" font-size="14.00">value = 50.0</text>
</g>
<!-- 22&#45;&gt;26 -->
<g id="edge26" class="edge">
<title>22&#45;&gt;26</title>
<path fill="none" stroke="black" d="M1265.09,-195.12C1283.09,-184.74 1303.4,-173.04 1322.26,-162.17"/>
<polygon fill="black" stroke="black" points="1324.18,-165.11 1331.1,-157.08 1320.68,-159.04 1324.18,-165.11"/>
</g>
<!-- 24 -->
<g id="node25" class="node">
<title>24</title>
<polygon fill="#e58139" stroke="black" points="1209.5,-53 1123.5,-53 1123.5,0 1209.5,0 1209.5,-53"/>
<text text-anchor="middle" x="1166.5" y="-37.8" font-family="Times,serif" font-size="14.00">mse = 0.0</text>
<text text-anchor="middle" x="1166.5" y="-22.8" font-family="Times,serif" font-size="14.00">samples = 3</text>
<text text-anchor="middle" x="1166.5" y="-7.8" font-family="Times,serif" font-size="14.00">value = 50.0</text>
</g>
<!-- 23&#45;&gt;24 -->
<g id="edge24" class="edge">
<title>23&#45;&gt;24</title>
<path fill="none" stroke="black" d="M1195.76,-88.95C1191.67,-80.35 1187.24,-71.06 1183.1,-62.37"/>
<polygon fill="black" stroke="black" points="1186.21,-60.76 1178.76,-53.24 1179.89,-63.77 1186.21,-60.76"/>
</g>
<!-- 25 -->
<g id="node26" class="node">
<title>25</title>
<polygon fill="#e99254" stroke="black" points="1327,-53 1228,-53 1228,0 1327,0 1327,-53"/>
<text text-anchor="middle" x="1277.5" y="-37.8" font-family="Times,serif" font-size="14.00">mse = 13.281</text>
<text text-anchor="middle" x="1277.5" y="-22.8" font-family="Times,serif" font-size="14.00">samples = 13</text>
<text text-anchor="middle" x="1277.5" y="-7.8" font-family="Times,serif" font-size="14.00">value = 44.346</text>
</g>
<!-- 23&#45;&gt;25 -->
<g id="edge25" class="edge">
<title>23&#45;&gt;25</title>
<path fill="none" stroke="black" d="M1234.58,-88.95C1240.78,-80.07 1247.49,-70.46 1253.73,-61.54"/>
<polygon fill="black" stroke="black" points="1256.67,-63.44 1259.53,-53.24 1250.93,-59.43 1256.67,-63.44"/>
</g>
<!-- 27 -->
<g id="node28" class="node">
<title>27</title>
<polygon fill="#e58139" stroke="black" points="1431.5,-53 1345.5,-53 1345.5,0 1431.5,0 1431.5,-53"/>
<text text-anchor="middle" x="1388.5" y="-37.8" font-family="Times,serif" font-size="14.00">mse = 0.0</text>
<text text-anchor="middle" x="1388.5" y="-22.8" font-family="Times,serif" font-size="14.00">samples = 2</text>
<text text-anchor="middle" x="1388.5" y="-7.8" font-family="Times,serif" font-size="14.00">value = 50.0</text>
</g>
<!-- 26&#45;&gt;27 -->
<g id="edge27" class="edge">
<title>26&#45;&gt;27</title>
<path fill="none" stroke="black" d="M1388.5,-88.95C1388.5,-80.72 1388.5,-71.85 1388.5,-63.48"/>
<polygon fill="black" stroke="black" points="1392,-63.24 1388.5,-53.24 1385,-63.24 1392,-63.24"/>
</g>
<!-- 28 -->
<g id="node29" class="node">
<title>28</title>
<polygon fill="#e58139" stroke="black" points="1535.5,-53 1449.5,-53 1449.5,0 1535.5,0 1535.5,-53"/>
<text text-anchor="middle" x="1492.5" y="-37.8" font-family="Times,serif" font-size="14.00">mse = 0.0</text>
<text text-anchor="middle" x="1492.5" y="-22.8" font-family="Times,serif" font-size="14.00">samples = 4</text>
<text text-anchor="middle" x="1492.5" y="-7.8" font-family="Times,serif" font-size="14.00">value = 50.0</text>
</g>
<!-- 26&#45;&gt;28 -->
<g id="edge28" class="edge">
<title>26&#45;&gt;28</title>
<path fill="none" stroke="black" d="M1424.87,-88.95C1435.14,-79.62 1446.31,-69.47 1456.55,-60.16"/>
<polygon fill="black" stroke="black" points="1459.13,-62.55 1464.18,-53.24 1454.42,-57.37 1459.13,-62.55"/>
</g>
</g>
</svg>
