<?xml version="1.0" encoding="UTF-8" standalone="no"?>
<!DOCTYPE svg PUBLIC "-//W3C//DTD SVG 1.1//EN"
 "http://www.w3.org/Graphics/SVG/1.1/DTD/svg11.dtd">
<!-- Generated by graphviz version 2.46.1 (20210213.1702)
 -->
<!-- Title: Tree Pages: 1 -->
<svg width="1147pt" height="477pt"
 viewBox="0.00 0.00 1147.00 477.00" xmlns="http://www.w3.org/2000/svg" xmlns:xlink="http://www.w3.org/1999/xlink">
<g id="graph0" class="graph" transform="scale(1 1) rotate(0) translate(4 473)">
<title>Tree</title>
<polygon fill="white" stroke="transparent" points="-4,4 -4,-473 1143,-473 1143,4 -4,4"/>
<!-- 0 -->
<g id="node1" class="node">
<title>0</title>
<polygon fill="#f6d5bd" stroke="black" points="508,-469 396,-469 396,-401 508,-401 508,-469"/>
<text text-anchor="middle" x="452" y="-453.8" font-family="Times,serif" font-size="14.00">LSTAT &lt;= 7.685</text>
<text text-anchor="middle" x="452" y="-438.8" font-family="Times,serif" font-size="14.00">mse = 82.616</text>
<text text-anchor="middle" x="452" y="-423.8" font-family="Times,serif" font-size="14.00">samples = 354</text>
<text text-anchor="middle" x="452" y="-408.8" font-family="Times,serif" font-size="14.00">value = 22.561</text>
</g>
<!-- 1 -->
<g id="node2" class="node">
<title>1</title>
<polygon fill="#f0b88f" stroke="black" points="389.5,-365 290.5,-365 290.5,-297 389.5,-297 389.5,-365"/>
<text text-anchor="middle" x="340" y="-349.8" font-family="Times,serif" font-size="14.00">RM &lt;= 7.437</text>
<text text-anchor="middle" x="340" y="-334.8" font-family="Times,serif" font-size="14.00">mse = 74.919</text>
<text text-anchor="middle" x="340" y="-319.8" font-family="Times,serif" font-size="14.00">samples = 101</text>
<text text-anchor="middle" x="340" y="-304.8" font-family="Times,serif" font-size="14.00">value = 32.093</text>
</g>
<!-- 0&#45;&gt;1 -->
<g id="edge1" class="edge">
<title>0&#45;&gt;1</title>
<path fill="none" stroke="black" d="M415.64,-400.88C405.56,-391.71 394.52,-381.65 384.06,-372.12"/>
<polygon fill="black" stroke="black" points="386.31,-369.44 376.56,-365.3 381.6,-374.62 386.31,-369.44"/>
<text text-anchor="middle" x="377.73" y="-386.57" font-family="Times,serif" font-size="14.00">True</text>
</g>
<!-- 12 -->
<g id="node13" class="node">
<title>12</title>
<polygon fill="#f9e1cf" stroke="black" points="622.5,-365 517.5,-365 517.5,-297 622.5,-297 622.5,-365"/>
<text text-anchor="middle" x="570" y="-349.8" font-family="Times,serif" font-size="14.00">LSTAT &lt;= 15.0</text>
<text text-anchor="middle" x="570" y="-334.8" font-family="Times,serif" font-size="14.00">mse = 34.936</text>
<text text-anchor="middle" x="570" y="-319.8" font-family="Times,serif" font-size="14.00">samples = 253</text>
<text text-anchor="middle" x="570" y="-304.8" font-family="Times,serif" font-size="14.00">value = 18.756</text>
</g>
<!-- 0&#45;&gt;12 -->
<g id="edge12" class="edge">
<title>0&#45;&gt;12</title>
<path fill="none" stroke="black" d="M490.31,-400.88C501.03,-391.62 512.79,-381.45 523.9,-371.85"/>
<polygon fill="black" stroke="black" points="526.2,-374.49 531.48,-365.3 521.62,-369.19 526.2,-374.49"/>
<text text-anchor="middle" x="529.66" y="-386.53" font-family="Times,serif" font-size="14.00">False</text>
</g>
<!-- 2 -->
<g id="node3" class="node">
<title>2</title>
<polygon fill="#f2c19e" stroke="black" points="209.5,-261 110.5,-261 110.5,-193 209.5,-193 209.5,-261"/>
<text text-anchor="middle" x="160" y="-245.8" font-family="Times,serif" font-size="14.00">DIS &lt;= 1.485</text>
<text text-anchor="middle" x="160" y="-230.8" font-family="Times,serif" font-size="14.00">mse = 31.631</text>
<text text-anchor="middle" x="160" y="-215.8" font-family="Times,serif" font-size="14.00">samples = 83</text>
<text text-anchor="middle" x="160" y="-200.8" font-family="Times,serif" font-size="14.00">value = 29.094</text>
</g>
<!-- 1&#45;&gt;2 -->
<g id="edge2" class="edge">
<title>1&#45;&gt;2</title>
<path fill="none" stroke="black" d="M290.34,-301.86C268.01,-289.2 241.5,-274.18 218.24,-261"/>
<polygon fill="black" stroke="black" points="219.93,-257.94 209.5,-256.05 216.47,-264.03 219.93,-257.94"/>
</g>
<!-- 7 -->
<g id="node8" class="node">
<title>7</title>
<polygon fill="#e88d4d" stroke="black" points="393.5,-261 286.5,-261 286.5,-193 393.5,-193 393.5,-261"/>
<text text-anchor="middle" x="340" y="-245.8" font-family="Times,serif" font-size="14.00">CRIM &lt;= 2.654</text>
<text text-anchor="middle" x="340" y="-230.8" font-family="Times,serif" font-size="14.00">mse = 41.801</text>
<text text-anchor="middle" x="340" y="-215.8" font-family="Times,serif" font-size="14.00">samples = 18</text>
<text text-anchor="middle" x="340" y="-200.8" font-family="Times,serif" font-size="14.00">value = 45.922</text>
</g>
<!-- 1&#45;&gt;7 -->
<g id="edge7" class="edge">
<title>1&#45;&gt;7</title>
<path fill="none" stroke="black" d="M340,-296.88C340,-288.78 340,-279.98 340,-271.47"/>
<polygon fill="black" stroke="black" points="343.5,-271.3 340,-261.3 336.5,-271.3 343.5,-271.3"/>
</g>
<!-- 3 -->
<g id="node4" class="node">
<title>3</title>
<polygon fill="#e58139" stroke="black" points="92,-149.5 6,-149.5 6,-96.5 92,-96.5 92,-149.5"/>
<text text-anchor="middle" x="49" y="-134.3" font-family="Times,serif" font-size="14.00">mse = 0.0</text>
<text text-anchor="middle" x="49" y="-119.3" font-family="Times,serif" font-size="14.00">samples = 2</text>
<text text-anchor="middle" x="49" y="-104.3" font-family="Times,serif" font-size="14.00">value = 50.0</text>
</g>
<!-- 2&#45;&gt;3 -->
<g id="edge3" class="edge">
<title>2&#45;&gt;3</title>
<path fill="none" stroke="black" d="M123.96,-192.88C111.28,-181.23 97.04,-168.14 84.4,-156.53"/>
<polygon fill="black" stroke="black" points="86.5,-153.71 76.77,-149.52 81.77,-158.86 86.5,-153.71"/>
</g>
<!-- 4 -->
<g id="node5" class="node">
<title>4</title>
<polygon fill="#f3c3a0" stroke="black" points="209.5,-157 110.5,-157 110.5,-89 209.5,-89 209.5,-157"/>
<text text-anchor="middle" x="160" y="-141.8" font-family="Times,serif" font-size="14.00">RM &lt;= 6.728</text>
<text text-anchor="middle" x="160" y="-126.8" font-family="Times,serif" font-size="14.00">mse = 21.354</text>
<text text-anchor="middle" x="160" y="-111.8" font-family="Times,serif" font-size="14.00">samples = 81</text>
<text text-anchor="middle" x="160" y="-96.8" font-family="Times,serif" font-size="14.00">value = 28.578</text>
</g>
<!-- 2&#45;&gt;4 -->
<g id="edge4" class="edge">
<title>2&#45;&gt;4</title>
<path fill="none" stroke="black" d="M160,-192.88C160,-184.78 160,-175.98 160,-167.47"/>
<polygon fill="black" stroke="black" points="163.5,-167.3 160,-157.3 156.5,-167.3 163.5,-167.3"/>
</g>
<!-- 5 -->
<g id="node6" class="node">
<title>5</title>
<polygon fill="#f5ccb0" stroke="black" points="92,-53 0,-53 0,0 92,0 92,-53"/>
<text text-anchor="middle" x="46" y="-37.8" font-family="Times,serif" font-size="14.00">mse = 7.161</text>
<text text-anchor="middle" x="46" y="-22.8" font-family="Times,serif" font-size="14.00">samples = 40</text>
<text text-anchor="middle" x="46" y="-7.8" font-family="Times,serif" font-size="14.00">value = 25.35</text>
</g>
<!-- 4&#45;&gt;5 -->
<g id="edge5" class="edge">
<title>4&#45;&gt;5</title>
<path fill="none" stroke="black" d="M120.13,-88.95C108.76,-79.53 96.39,-69.27 85.07,-59.89"/>
<polygon fill="black" stroke="black" points="86.98,-56.92 77.05,-53.24 82.51,-62.31 86.98,-56.92"/>
</g>
<!-- 6 -->
<g id="node7" class="node">
<title>6</title>
<polygon fill="#f1b991" stroke="black" points="209.5,-53 110.5,-53 110.5,0 209.5,0 209.5,-53"/>
<text text-anchor="middle" x="160" y="-37.8" font-family="Times,serif" font-size="14.00">mse = 15.12</text>
<text text-anchor="middle" x="160" y="-22.8" font-family="Times,serif" font-size="14.00">samples = 41</text>
<text text-anchor="middle" x="160" y="-7.8" font-family="Times,serif" font-size="14.00">value = 31.727</text>
</g>
<!-- 4&#45;&gt;6 -->
<g id="edge6" class="edge">
<title>4&#45;&gt;6</title>
<path fill="none" stroke="black" d="M160,-88.95C160,-80.72 160,-71.85 160,-63.48"/>
<polygon fill="black" stroke="black" points="163.5,-63.24 160,-53.24 156.5,-63.24 163.5,-63.24"/>
</g>
<!-- 8 -->
<g id="node9" class="node">
<title>8</title>
<polygon fill="#e78946" stroke="black" points="348,-157 228,-157 228,-89 348,-89 348,-157"/>
<text text-anchor="middle" x="288" y="-141.8" font-family="Times,serif" font-size="14.00">PTRATIO &lt;= 14.8</text>
<text text-anchor="middle" x="288" y="-126.8" font-family="Times,serif" font-size="14.00">mse = 8.318</text>
<text text-anchor="middle" x="288" y="-111.8" font-family="Times,serif" font-size="14.00">samples = 17</text>
<text text-anchor="middle" x="288" y="-96.8" font-family="Times,serif" font-size="14.00">value = 47.335</text>
</g>
<!-- 7&#45;&gt;8 -->
<g id="edge8" class="edge">
<title>7&#45;&gt;8</title>
<path fill="none" stroke="black" d="M323.12,-192.88C318.8,-184.42 314.11,-175.21 309.59,-166.35"/>
<polygon fill="black" stroke="black" points="312.64,-164.62 304.98,-157.3 306.4,-167.8 312.64,-164.62"/>
</g>
<!-- 11 -->
<g id="node12" class="node">
<title>11</title>
<polygon fill="#f7d7c0" stroke="black" points="452,-149.5 366,-149.5 366,-96.5 452,-96.5 452,-149.5"/>
<text text-anchor="middle" x="409" y="-134.3" font-family="Times,serif" font-size="14.00">mse = 0.0</text>
<text text-anchor="middle" x="409" y="-119.3" font-family="Times,serif" font-size="14.00">samples = 1</text>
<text text-anchor="middle" x="409" y="-104.3" font-family="Times,serif" font-size="14.00">value = 21.9</text>
</g>
<!-- 7&#45;&gt;11 -->
<g id="edge11" class="edge">
<title>7&#45;&gt;11</title>
<path fill="none" stroke="black" d="M362.4,-192.88C369.99,-181.67 378.47,-169.13 386.1,-157.85"/>
<polygon fill="black" stroke="black" points="389.03,-159.76 391.74,-149.52 383.23,-155.84 389.03,-159.76"/>
</g>
<!-- 9 -->
<g id="node10" class="node">
<title>9</title>
<polygon fill="#e6843e" stroke="black" points="326.5,-53 227.5,-53 227.5,0 326.5,0 326.5,-53"/>
<text text-anchor="middle" x="277" y="-37.8" font-family="Times,serif" font-size="14.00">mse = 4.535</text>
<text text-anchor="middle" x="277" y="-22.8" font-family="Times,serif" font-size="14.00">samples = 8</text>
<text text-anchor="middle" x="277" y="-7.8" font-family="Times,serif" font-size="14.00">value = 49.038</text>
</g>
<!-- 8&#45;&gt;9 -->
<g id="edge9" class="edge">
<title>8&#45;&gt;9</title>
<path fill="none" stroke="black" d="M284.15,-88.95C283.18,-80.62 282.14,-71.65 281.16,-63.2"/>
<polygon fill="black" stroke="black" points="284.63,-62.76 280,-53.24 277.68,-63.57 284.63,-62.76"/>
</g>
<!-- 10 -->
<g id="node11" class="node">
<title>10</title>
<polygon fill="#e88e4d" stroke="black" points="443.5,-53 344.5,-53 344.5,0 443.5,0 443.5,-53"/>
<text text-anchor="middle" x="394" y="-37.8" font-family="Times,serif" font-size="14.00">mse = 6.815</text>
<text text-anchor="middle" x="394" y="-22.8" font-family="Times,serif" font-size="14.00">samples = 9</text>
<text text-anchor="middle" x="394" y="-7.8" font-family="Times,serif" font-size="14.00">value = 45.822</text>
</g>
<!-- 8&#45;&gt;10 -->
<g id="edge10" class="edge">
<title>8&#45;&gt;10</title>
<path fill="none" stroke="black" d="M325.07,-88.95C335.54,-79.62 346.92,-69.47 357.36,-60.16"/>
<polygon fill="black" stroke="black" points="360,-62.5 365.13,-53.24 355.34,-57.28 360,-62.5"/>
</g>
<!-- 13 -->
<g id="node14" class="node">
<title>13</title>
<polygon fill="#f7d7c0" stroke="black" points="619.5,-261 520.5,-261 520.5,-193 619.5,-193 619.5,-261"/>
<text text-anchor="middle" x="570" y="-245.8" font-family="Times,serif" font-size="14.00">DIS &lt;= 1.227</text>
<text text-anchor="middle" x="570" y="-230.8" font-family="Times,serif" font-size="14.00">mse = 22.26</text>
<text text-anchor="middle" x="570" y="-215.8" font-family="Times,serif" font-size="14.00">samples = 142</text>
<text text-anchor="middle" x="570" y="-200.8" font-family="Times,serif" font-size="14.00">value = 21.992</text>
</g>
<!-- 12&#45;&gt;13 -->
<g id="edge13" class="edge">
<title>12&#45;&gt;13</title>
<path fill="none" stroke="black" d="M570,-296.88C570,-288.78 570,-279.98 570,-271.47"/>
<polygon fill="black" stroke="black" points="573.5,-271.3 570,-261.3 566.5,-271.3 573.5,-271.3"/>
</g>
<!-- 18 -->
<g id="node19" class="node">
<title>18</title>
<polygon fill="#fbede3" stroke="black" points="797.5,-261 696.5,-261 696.5,-193 797.5,-193 797.5,-261"/>
<text text-anchor="middle" x="747" y="-245.8" font-family="Times,serif" font-size="14.00">NOX &lt;= 0.603</text>
<text text-anchor="middle" x="747" y="-230.8" font-family="Times,serif" font-size="14.00">mse = 20.609</text>
<text text-anchor="middle" x="747" y="-215.8" font-family="Times,serif" font-size="14.00">samples = 111</text>
<text text-anchor="middle" x="747" y="-200.8" font-family="Times,serif" font-size="14.00">value = 14.615</text>
</g>
<!-- 12&#45;&gt;18 -->
<g id="edge18" class="edge">
<title>12&#45;&gt;18</title>
<path fill="none" stroke="black" d="M622.63,-299.67C643.05,-287.91 666.53,-274.37 687.56,-262.26"/>
<polygon fill="black" stroke="black" points="689.48,-265.18 696.4,-257.16 685.99,-259.12 689.48,-265.18"/>
</g>
<!-- 14 -->
<g id="node15" class="node">
<title>14</title>
<polygon fill="#e58139" stroke="black" points="558,-149.5 472,-149.5 472,-96.5 558,-96.5 558,-149.5"/>
<text text-anchor="middle" x="515" y="-134.3" font-family="Times,serif" font-size="14.00">mse = 0.0</text>
<text text-anchor="middle" x="515" y="-119.3" font-family="Times,serif" font-size="14.00">samples = 1</text>
<text text-anchor="middle" x="515" y="-104.3" font-family="Times,serif" font-size="14.00">value = 50.0</text>
</g>
<!-- 13&#45;&gt;14 -->
<g id="edge14" class="edge">
<title>13&#45;&gt;14</title>
<path fill="none" stroke="black" d="M552.14,-192.88C546.21,-181.89 539.6,-169.62 533.61,-158.52"/>
<polygon fill="black" stroke="black" points="536.59,-156.66 528.76,-149.52 530.43,-159.98 536.59,-156.66"/>
</g>
<!-- 15 -->
<g id="node16" class="node">
<title>15</title>
<polygon fill="#f7d7c1" stroke="black" points="675.5,-157 576.5,-157 576.5,-89 675.5,-89 675.5,-157"/>
<text text-anchor="middle" x="626" y="-141.8" font-family="Times,serif" font-size="14.00">RM &lt;= 6.605</text>
<text text-anchor="middle" x="626" y="-126.8" font-family="Times,serif" font-size="14.00">mse = 16.815</text>
<text text-anchor="middle" x="626" y="-111.8" font-family="Times,serif" font-size="14.00">samples = 141</text>
<text text-anchor="middle" x="626" y="-96.8" font-family="Times,serif" font-size="14.00">value = 21.794</text>
</g>
<!-- 13&#45;&gt;15 -->
<g id="edge15" class="edge">
<title>13&#45;&gt;15</title>
<path fill="none" stroke="black" d="M588.18,-192.88C592.88,-184.33 597.99,-175.01 602.9,-166.07"/>
<polygon fill="black" stroke="black" points="605.97,-167.75 607.72,-157.3 599.84,-164.38 605.97,-167.75"/>
</g>
<!-- 16 -->
<g id="node17" class="node">
<title>16</title>
<polygon fill="#f7dac5" stroke="black" points="560.5,-53 461.5,-53 461.5,0 560.5,0 560.5,-53"/>
<text text-anchor="middle" x="511" y="-37.8" font-family="Times,serif" font-size="14.00">mse = 9.279</text>
<text text-anchor="middle" x="511" y="-22.8" font-family="Times,serif" font-size="14.00">samples = 124</text>
<text text-anchor="middle" x="511" y="-7.8" font-family="Times,serif" font-size="14.00">value = 20.975</text>
</g>
<!-- 15&#45;&gt;16 -->
<g id="edge16" class="edge">
<title>15&#45;&gt;16</title>
<path fill="none" stroke="black" d="M585.78,-88.95C574.2,-79.43 561.59,-69.07 550.08,-59.62"/>
<polygon fill="black" stroke="black" points="552.27,-56.88 542.32,-53.24 547.82,-62.29 552.27,-56.88"/>
</g>
<!-- 17 -->
<g id="node18" class="node">
<title>17</title>
<polygon fill="#f3c5a4" stroke="black" points="677.5,-53 578.5,-53 578.5,0 677.5,0 677.5,-53"/>
<text text-anchor="middle" x="628" y="-37.8" font-family="Times,serif" font-size="14.00">mse = 31.235</text>
<text text-anchor="middle" x="628" y="-22.8" font-family="Times,serif" font-size="14.00">samples = 17</text>
<text text-anchor="middle" x="628" y="-7.8" font-family="Times,serif" font-size="14.00">value = 27.765</text>
</g>
<!-- 15&#45;&gt;17 -->
<g id="edge17" class="edge">
<title>15&#45;&gt;17</title>
<path fill="none" stroke="black" d="M626.7,-88.95C626.87,-80.72 627.06,-71.85 627.24,-63.48"/>
<polygon fill="black" stroke="black" points="630.74,-63.31 627.46,-53.24 623.74,-63.16 630.74,-63.31"/>
</g>
<!-- 19 -->
<g id="node20" class="node">
<title>19</title>
<polygon fill="#f9e2d2" stroke="black" points="800.5,-157 693.5,-157 693.5,-89 800.5,-89 800.5,-157"/>
<text text-anchor="middle" x="747" y="-141.8" font-family="Times,serif" font-size="14.00">CRIM &lt;= 0.638</text>
<text text-anchor="middle" x="747" y="-126.8" font-family="Times,serif" font-size="14.00">mse = 12.862</text>
<text text-anchor="middle" x="747" y="-111.8" font-family="Times,serif" font-size="14.00">samples = 42</text>
<text text-anchor="middle" x="747" y="-96.8" font-family="Times,serif" font-size="14.00">value = 18.302</text>
</g>
<!-- 18&#45;&gt;19 -->
<g id="edge19" class="edge">
<title>18&#45;&gt;19</title>
<path fill="none" stroke="black" d="M747,-192.88C747,-184.78 747,-175.98 747,-167.47"/>
<polygon fill="black" stroke="black" points="750.5,-167.3 747,-157.3 743.5,-167.3 750.5,-167.3"/>
</g>
<!-- 22 -->
<g id="node23" class="node">
<title>22</title>
<polygon fill="#fdf4ee" stroke="black" points="1035.5,-157 922.5,-157 922.5,-89 1035.5,-89 1035.5,-157"/>
<text text-anchor="middle" x="979" y="-141.8" font-family="Times,serif" font-size="14.00">CRIM &lt;= 11.369</text>
<text text-anchor="middle" x="979" y="-126.8" font-family="Times,serif" font-size="14.00">mse = 12.012</text>
<text text-anchor="middle" x="979" y="-111.8" font-family="Times,serif" font-size="14.00">samples = 69</text>
<text text-anchor="middle" x="979" y="-96.8" font-family="Times,serif" font-size="14.00">value = 12.371</text>
</g>
<!-- 18&#45;&gt;22 -->
<g id="edge22" class="edge">
<title>18&#45;&gt;22</title>
<path fill="none" stroke="black" d="M797.63,-203.74C831.41,-188.89 876.17,-169.21 912.77,-153.12"/>
<polygon fill="black" stroke="black" points="914.63,-156.12 922.37,-148.9 911.81,-149.72 914.63,-156.12"/>
</g>
<!-- 20 -->
<g id="node21" class="node">
<title>20</title>
<polygon fill="#f8ddca" stroke="black" points="794.5,-53 695.5,-53 695.5,0 794.5,0 794.5,-53"/>
<text text-anchor="middle" x="745" y="-37.8" font-family="Times,serif" font-size="14.00">mse = 5.879</text>
<text text-anchor="middle" x="745" y="-22.8" font-family="Times,serif" font-size="14.00">samples = 24</text>
<text text-anchor="middle" x="745" y="-7.8" font-family="Times,serif" font-size="14.00">value = 19.971</text>
</g>
<!-- 19&#45;&gt;20 -->
<g id="edge20" class="edge">
<title>19&#45;&gt;20</title>
<path fill="none" stroke="black" d="M746.3,-88.95C746.13,-80.72 745.94,-71.85 745.76,-63.48"/>
<polygon fill="black" stroke="black" points="749.26,-63.16 745.54,-53.24 742.26,-63.31 749.26,-63.16"/>
</g>
<!-- 21 -->
<g id="node22" class="node">
<title>21</title>
<polygon fill="#fae9dc" stroke="black" points="911.5,-53 812.5,-53 812.5,0 911.5,0 911.5,-53"/>
<text text-anchor="middle" x="862" y="-37.8" font-family="Times,serif" font-size="14.00">mse = 13.513</text>
<text text-anchor="middle" x="862" y="-22.8" font-family="Times,serif" font-size="14.00">samples = 18</text>
<text text-anchor="middle" x="862" y="-7.8" font-family="Times,serif" font-size="14.00">value = 16.078</text>
</g>
<!-- 19&#45;&gt;21 -->
<g id="edge21" class="edge">
<title>19&#45;&gt;21</title>
<path fill="none" stroke="black" d="M787.22,-88.95C798.8,-79.43 811.41,-69.07 822.92,-59.62"/>
<polygon fill="black" stroke="black" points="825.18,-62.29 830.68,-53.24 820.73,-56.88 825.18,-62.29"/>
</g>
<!-- 23 -->
<g id="node24" class="node">
<title>23</title>
<polygon fill="#fcefe6" stroke="black" points="1028.5,-53 929.5,-53 929.5,0 1028.5,0 1028.5,-53"/>
<text text-anchor="middle" x="979" y="-37.8" font-family="Times,serif" font-size="14.00">mse = 6.064</text>
<text text-anchor="middle" x="979" y="-22.8" font-family="Times,serif" font-size="14.00">samples = 46</text>
<text text-anchor="middle" x="979" y="-7.8" font-family="Times,serif" font-size="14.00">value = 14.126</text>
</g>
<!-- 22&#45;&gt;23 -->
<g id="edge23" class="edge">
<title>22&#45;&gt;23</title>
<path fill="none" stroke="black" d="M979,-88.95C979,-80.72 979,-71.85 979,-63.48"/>
<polygon fill="black" stroke="black" points="982.5,-63.24 979,-53.24 975.5,-63.24 982.5,-63.24"/>
</g>
<!-- 24 -->
<g id="node25" class="node">
<title>24</title>
<polygon fill="#ffffff" stroke="black" points="1139,-53 1047,-53 1047,0 1139,0 1139,-53"/>
<text text-anchor="middle" x="1093" y="-37.8" font-family="Times,serif" font-size="14.00">mse = 5.428</text>
<text text-anchor="middle" x="1093" y="-22.8" font-family="Times,serif" font-size="14.00">samples = 23</text>
<text text-anchor="middle" x="1093" y="-7.8" font-family="Times,serif" font-size="14.00">value = 8.861</text>
</g>
<!-- 22&#45;&gt;24 -->
<g id="edge24" class="edge">
<title>22&#45;&gt;24</title>
<path fill="none" stroke="black" d="M1018.87,-88.95C1030.24,-79.53 1042.61,-69.27 1053.93,-59.89"/>
<polygon fill="black" stroke="black" points="1056.49,-62.31 1061.95,-53.24 1052.02,-56.92 1056.49,-62.31"/>
</g>
</g>
</svg>
