<?xml version="1.0" encoding="UTF-8" standalone="no"?>
<!DOCTYPE svg PUBLIC "-//W3C//DTD SVG 1.1//EN"
 "http://www.w3.org/Graphics/SVG/1.1/DTD/svg11.dtd">
<!-- Generated by graphviz version 2.46.1 (20210213.1702)
 -->
<!-- Title: Tree Pages: 1 -->
<svg width="1579pt" height="477pt"
 viewBox="0.00 0.00 1579.00 477.00" xmlns="http://www.w3.org/2000/svg" xmlns:xlink="http://www.w3.org/1999/xlink">
<g id="graph0" class="graph" transform="scale(1 1) rotate(0) translate(4 473)">
<title>Tree</title>
<polygon fill="white" stroke="transparent" points="-4,4 -4,-473 1575,-473 1575,4 -4,4"/>
<!-- 0 -->
<g id="node1" class="node">
<title>0</title>
<polygon fill="#f7d9c3" stroke="black" points="892,-469 787,-469 787,-401 892,-401 892,-469"/>
<text text-anchor="middle" x="839.5" y="-453.8" font-family="Times,serif" font-size="14.00">LSTAT &lt;= 7.58</text>
<text text-anchor="middle" x="839.5" y="-438.8" font-family="Times,serif" font-size="14.00">mse = 85.201</text>
<text text-anchor="middle" x="839.5" y="-423.8" font-family="Times,serif" font-size="14.00">samples = 354</text>
<text text-anchor="middle" x="839.5" y="-408.8" font-family="Times,serif" font-size="14.00">value = 22.544</text>
</g>
<!-- 1 -->
<g id="node2" class="node">
<title>1</title>
<polygon fill="#f0b990" stroke="black" points="718,-365 619,-365 619,-297 718,-297 718,-365"/>
<text text-anchor="middle" x="668.5" y="-349.8" font-family="Times,serif" font-size="14.00">RM &lt;= 7.433</text>
<text text-anchor="middle" x="668.5" y="-334.8" font-family="Times,serif" font-size="14.00">mse = 80.475</text>
<text text-anchor="middle" x="668.5" y="-319.8" font-family="Times,serif" font-size="14.00">samples = 100</text>
<text text-anchor="middle" x="668.5" y="-304.8" font-family="Times,serif" font-size="14.00">value = 32.589</text>
</g>
<!-- 0&#45;&gt;1 -->
<g id="edge1" class="edge">
<title>0&#45;&gt;1</title>
<path fill="none" stroke="black" d="M786.8,-402.56C767.82,-391.24 746.3,-378.41 726.87,-366.82"/>
<polygon fill="black" stroke="black" points="728.49,-363.71 718.11,-361.59 724.9,-369.72 728.49,-363.71"/>
<text text-anchor="middle" x="724.23" y="-382.13" font-family="Times,serif" font-size="14.00">True</text>
</g>
<!-- 16 -->
<g id="node17" class="node">
<title>16</title>
<polygon fill="#fae5d7" stroke="black" points="1031,-365 926,-365 926,-297 1031,-297 1031,-365"/>
<text text-anchor="middle" x="978.5" y="-349.8" font-family="Times,serif" font-size="14.00">LSTAT &lt;= 14.4</text>
<text text-anchor="middle" x="978.5" y="-334.8" font-family="Times,serif" font-size="14.00">mse = 31.695</text>
<text text-anchor="middle" x="978.5" y="-319.8" font-family="Times,serif" font-size="14.00">samples = 254</text>
<text text-anchor="middle" x="978.5" y="-304.8" font-family="Times,serif" font-size="14.00">value = 18.589</text>
</g>
<!-- 0&#45;&gt;16 -->
<g id="edge16" class="edge">
<title>0&#45;&gt;16</title>
<path fill="none" stroke="black" d="M884.63,-400.88C897.5,-391.44 911.64,-381.06 924.96,-371.29"/>
<polygon fill="black" stroke="black" points="927.13,-374.04 933.12,-365.3 922.99,-368.39 927.13,-374.04"/>
<text text-anchor="middle" x="929.33" y="-386.31" font-family="Times,serif" font-size="14.00">False</text>
</g>
<!-- 2 -->
<g id="node3" class="node">
<title>2</title>
<polygon fill="#f3c4a2" stroke="black" points="390.5,-261 278.5,-261 278.5,-193 390.5,-193 390.5,-261"/>
<text text-anchor="middle" x="334.5" y="-245.8" font-family="Times,serif" font-size="14.00">LSTAT &lt;= 5.495</text>
<text text-anchor="middle" x="334.5" y="-230.8" font-family="Times,serif" font-size="14.00">mse = 34.788</text>
<text text-anchor="middle" x="334.5" y="-215.8" font-family="Times,serif" font-size="14.00">samples = 80</text>
<text text-anchor="middle" x="334.5" y="-200.8" font-family="Times,serif" font-size="14.00">value = 29.111</text>
</g>
<!-- 1&#45;&gt;2 -->
<g id="edge2" class="edge">
<title>1&#45;&gt;2</title>
<path fill="none" stroke="black" d="M618.86,-314.84C560.78,-297.1 464.41,-267.67 400.18,-248.06"/>
<polygon fill="black" stroke="black" points="401.14,-244.69 390.56,-245.12 399.1,-251.39 401.14,-244.69"/>
</g>
<!-- 9 -->
<g id="node10" class="node">
<title>9</title>
<polygon fill="#e78c4b" stroke="black" points="728.5,-261 608.5,-261 608.5,-193 728.5,-193 728.5,-261"/>
<text text-anchor="middle" x="668.5" y="-245.8" font-family="Times,serif" font-size="14.00">PTRATIO &lt;= 15.3</text>
<text text-anchor="middle" x="668.5" y="-230.8" font-family="Times,serif" font-size="14.00">mse = 21.33</text>
<text text-anchor="middle" x="668.5" y="-215.8" font-family="Times,serif" font-size="14.00">samples = 20</text>
<text text-anchor="middle" x="668.5" y="-200.8" font-family="Times,serif" font-size="14.00">value = 46.5</text>
</g>
<!-- 1&#45;&gt;9 -->
<g id="edge9" class="edge">
<title>1&#45;&gt;9</title>
<path fill="none" stroke="black" d="M668.5,-296.88C668.5,-288.78 668.5,-279.98 668.5,-271.47"/>
<polygon fill="black" stroke="black" points="672,-271.3 668.5,-261.3 665,-271.3 672,-271.3"/>
</g>
<!-- 3 -->
<g id="node4" class="node">
<title>3</title>
<polygon fill="#f1b991" stroke="black" points="214,-157 107,-157 107,-89 214,-89 214,-157"/>
<text text-anchor="middle" x="160.5" y="-141.8" font-family="Times,serif" font-size="14.00">CRIM &lt;= 0.868</text>
<text text-anchor="middle" x="160.5" y="-126.8" font-family="Times,serif" font-size="14.00">mse = 32.775</text>
<text text-anchor="middle" x="160.5" y="-111.8" font-family="Times,serif" font-size="14.00">samples = 40</text>
<text text-anchor="middle" x="160.5" y="-96.8" font-family="Times,serif" font-size="14.00">value = 32.565</text>
</g>
<!-- 2&#45;&gt;3 -->
<g id="edge3" class="edge">
<title>2&#45;&gt;3</title>
<path fill="none" stroke="black" d="M278.49,-193.17C260.73,-182.76 240.99,-171.18 222.82,-160.53"/>
<polygon fill="black" stroke="black" points="224.43,-157.42 214.04,-155.38 220.89,-163.46 224.43,-157.42"/>
</g>
<!-- 6 -->
<g id="node7" class="node">
<title>6</title>
<polygon fill="#f5cfb3" stroke="black" points="384,-157 285,-157 285,-89 384,-89 384,-157"/>
<text text-anchor="middle" x="334.5" y="-141.8" font-family="Times,serif" font-size="14.00">RM &lt;= 7.121</text>
<text text-anchor="middle" x="334.5" y="-126.8" font-family="Times,serif" font-size="14.00">mse = 12.943</text>
<text text-anchor="middle" x="334.5" y="-111.8" font-family="Times,serif" font-size="14.00">samples = 40</text>
<text text-anchor="middle" x="334.5" y="-96.8" font-family="Times,serif" font-size="14.00">value = 25.658</text>
</g>
<!-- 2&#45;&gt;6 -->
<g id="edge6" class="edge">
<title>2&#45;&gt;6</title>
<path fill="none" stroke="black" d="M334.5,-192.88C334.5,-184.78 334.5,-175.98 334.5,-167.47"/>
<polygon fill="black" stroke="black" points="338,-167.3 334.5,-157.3 331,-167.3 338,-167.3"/>
</g>
<!-- 4 -->
<g id="node5" class="node">
<title>4</title>
<polygon fill="#f1bd97" stroke="black" points="99,-53 0,-53 0,0 99,0 99,-53"/>
<text text-anchor="middle" x="49.5" y="-37.8" font-family="Times,serif" font-size="14.00">mse = 15.55</text>
<text text-anchor="middle" x="49.5" y="-22.8" font-family="Times,serif" font-size="14.00">samples = 37</text>
<text text-anchor="middle" x="49.5" y="-7.8" font-family="Times,serif" font-size="14.00">value = 31.386</text>
</g>
<!-- 3&#45;&gt;4 -->
<g id="edge4" class="edge">
<title>3&#45;&gt;4</title>
<path fill="none" stroke="black" d="M121.68,-88.95C110.61,-79.53 98.57,-69.27 87.55,-59.89"/>
<polygon fill="black" stroke="black" points="89.61,-57.05 79.73,-53.24 85.08,-62.38 89.61,-57.05"/>
</g>
<!-- 5 -->
<g id="node6" class="node">
<title>5</title>
<polygon fill="#e78a48" stroke="black" points="203.5,-53 117.5,-53 117.5,0 203.5,0 203.5,-53"/>
<text text-anchor="middle" x="160.5" y="-37.8" font-family="Times,serif" font-size="14.00">mse = 16.82</text>
<text text-anchor="middle" x="160.5" y="-22.8" font-family="Times,serif" font-size="14.00">samples = 3</text>
<text text-anchor="middle" x="160.5" y="-7.8" font-family="Times,serif" font-size="14.00">value = 47.1</text>
</g>
<!-- 3&#45;&gt;5 -->
<g id="edge5" class="edge">
<title>3&#45;&gt;5</title>
<path fill="none" stroke="black" d="M160.5,-88.95C160.5,-80.72 160.5,-71.85 160.5,-63.48"/>
<polygon fill="black" stroke="black" points="164,-63.24 160.5,-53.24 157,-63.24 164,-63.24"/>
</g>
<!-- 7 -->
<g id="node8" class="node">
<title>7</title>
<polygon fill="#f5d1b7" stroke="black" points="321,-53 222,-53 222,0 321,0 321,-53"/>
<text text-anchor="middle" x="271.5" y="-37.8" font-family="Times,serif" font-size="14.00">mse = 8.136</text>
<text text-anchor="middle" x="271.5" y="-22.8" font-family="Times,serif" font-size="14.00">samples = 37</text>
<text text-anchor="middle" x="271.5" y="-7.8" font-family="Times,serif" font-size="14.00">value = 25.011</text>
</g>
<!-- 6&#45;&gt;7 -->
<g id="edge7" class="edge">
<title>6&#45;&gt;7</title>
<path fill="none" stroke="black" d="M312.47,-88.95C306.61,-80.17 300.28,-70.66 294.38,-61.82"/>
<polygon fill="black" stroke="black" points="297.12,-59.62 288.66,-53.24 291.29,-63.5 297.12,-59.62"/>
</g>
<!-- 8 -->
<g id="node9" class="node">
<title>8</title>
<polygon fill="#f0b58b" stroke="black" points="438,-53 339,-53 339,0 438,0 438,-53"/>
<text text-anchor="middle" x="388.5" y="-37.8" font-family="Times,serif" font-size="14.00">mse = 3.469</text>
<text text-anchor="middle" x="388.5" y="-22.8" font-family="Times,serif" font-size="14.00">samples = 3</text>
<text text-anchor="middle" x="388.5" y="-7.8" font-family="Times,serif" font-size="14.00">value = 33.633</text>
</g>
<!-- 6&#45;&gt;8 -->
<g id="edge8" class="edge">
<title>6&#45;&gt;8</title>
<path fill="none" stroke="black" d="M353.39,-88.95C358.35,-80.26 363.72,-70.86 368.73,-62.09"/>
<polygon fill="black" stroke="black" points="371.87,-63.66 373.79,-53.24 365.79,-60.18 371.87,-63.66"/>
</g>
<!-- 10 -->
<g id="node11" class="node">
<title>10</title>
<polygon fill="#e6843d" stroke="black" points="655,-157 562,-157 562,-89 655,-89 655,-157"/>
<text text-anchor="middle" x="608.5" y="-141.8" font-family="Times,serif" font-size="14.00">RM &lt;= 7.661</text>
<text text-anchor="middle" x="608.5" y="-126.8" font-family="Times,serif" font-size="14.00">mse = 4.249</text>
<text text-anchor="middle" x="608.5" y="-111.8" font-family="Times,serif" font-size="14.00">samples = 10</text>
<text text-anchor="middle" x="608.5" y="-96.8" font-family="Times,serif" font-size="14.00">value = 49.19</text>
</g>
<!-- 9&#45;&gt;10 -->
<g id="edge10" class="edge">
<title>9&#45;&gt;10</title>
<path fill="none" stroke="black" d="M649.02,-192.88C643.99,-184.33 638.51,-175.01 633.25,-166.07"/>
<polygon fill="black" stroke="black" points="636.17,-164.14 628.09,-157.3 630.14,-167.69 636.17,-164.14"/>
</g>
<!-- 13 -->
<g id="node14" class="node">
<title>13</title>
<polygon fill="#e99558" stroke="black" points="785.5,-157 673.5,-157 673.5,-89 785.5,-89 785.5,-157"/>
<text text-anchor="middle" x="729.5" y="-141.8" font-family="Times,serif" font-size="14.00">LSTAT &lt;= 5.605</text>
<text text-anchor="middle" x="729.5" y="-126.8" font-family="Times,serif" font-size="14.00">mse = 23.939</text>
<text text-anchor="middle" x="729.5" y="-111.8" font-family="Times,serif" font-size="14.00">samples = 10</text>
<text text-anchor="middle" x="729.5" y="-96.8" font-family="Times,serif" font-size="14.00">value = 43.81</text>
</g>
<!-- 9&#45;&gt;13 -->
<g id="edge13" class="edge">
<title>9&#45;&gt;13</title>
<path fill="none" stroke="black" d="M688.3,-192.88C693.42,-184.33 698.99,-175.01 704.34,-166.07"/>
<polygon fill="black" stroke="black" points="707.46,-167.68 709.59,-157.3 701.45,-164.09 707.46,-167.68"/>
</g>
<!-- 11 -->
<g id="node12" class="node">
<title>11</title>
<polygon fill="#e78c4a" stroke="black" points="548.5,-53 456.5,-53 456.5,0 548.5,0 548.5,-53"/>
<text text-anchor="middle" x="502.5" y="-37.8" font-family="Times,serif" font-size="14.00">mse = 11.903</text>
<text text-anchor="middle" x="502.5" y="-22.8" font-family="Times,serif" font-size="14.00">samples = 2</text>
<text text-anchor="middle" x="502.5" y="-7.8" font-family="Times,serif" font-size="14.00">value = 46.55</text>
</g>
<!-- 10&#45;&gt;11 -->
<g id="edge11" class="edge">
<title>10&#45;&gt;11</title>
<path fill="none" stroke="black" d="M571.43,-88.95C560.96,-79.62 549.58,-69.47 539.14,-60.16"/>
<polygon fill="black" stroke="black" points="541.16,-57.28 531.37,-53.24 536.5,-62.5 541.16,-57.28"/>
</g>
<!-- 12 -->
<g id="node13" class="node">
<title>12</title>
<polygon fill="#e5813a" stroke="black" points="658.5,-53 566.5,-53 566.5,0 658.5,0 658.5,-53"/>
<text text-anchor="middle" x="612.5" y="-37.8" font-family="Times,serif" font-size="14.00">mse = 0.157</text>
<text text-anchor="middle" x="612.5" y="-22.8" font-family="Times,serif" font-size="14.00">samples = 8</text>
<text text-anchor="middle" x="612.5" y="-7.8" font-family="Times,serif" font-size="14.00">value = 49.85</text>
</g>
<!-- 10&#45;&gt;12 -->
<g id="edge12" class="edge">
<title>10&#45;&gt;12</title>
<path fill="none" stroke="black" d="M609.9,-88.95C610.25,-80.72 610.62,-71.85 610.98,-63.48"/>
<polygon fill="black" stroke="black" points="614.48,-63.38 611.41,-53.24 607.49,-63.08 614.48,-63.38"/>
</g>
<!-- 14 -->
<g id="node15" class="node">
<title>14</title>
<polygon fill="#e89050" stroke="black" points="776,-53 677,-53 677,0 776,0 776,-53"/>
<text text-anchor="middle" x="726.5" y="-37.8" font-family="Times,serif" font-size="14.00">mse = 16.159</text>
<text text-anchor="middle" x="726.5" y="-22.8" font-family="Times,serif" font-size="14.00">samples = 8</text>
<text text-anchor="middle" x="726.5" y="-7.8" font-family="Times,serif" font-size="14.00">value = 45.388</text>
</g>
<!-- 13&#45;&gt;14 -->
<g id="edge14" class="edge">
<title>13&#45;&gt;14</title>
<path fill="none" stroke="black" d="M728.45,-88.95C728.19,-80.72 727.91,-71.85 727.64,-63.48"/>
<polygon fill="black" stroke="black" points="731.13,-63.12 727.32,-53.24 724.14,-63.34 731.13,-63.12"/>
</g>
<!-- 15 -->
<g id="node16" class="node">
<title>15</title>
<polygon fill="#eda978" stroke="black" points="880.5,-53 794.5,-53 794.5,0 880.5,0 880.5,-53"/>
<text text-anchor="middle" x="837.5" y="-37.8" font-family="Times,serif" font-size="14.00">mse = 5.29</text>
<text text-anchor="middle" x="837.5" y="-22.8" font-family="Times,serif" font-size="14.00">samples = 2</text>
<text text-anchor="middle" x="837.5" y="-7.8" font-family="Times,serif" font-size="14.00">value = 37.5</text>
</g>
<!-- 13&#45;&gt;15 -->
<g id="edge15" class="edge">
<title>13&#45;&gt;15</title>
<path fill="none" stroke="black" d="M767.27,-88.95C778.04,-79.53 789.76,-69.27 800.48,-59.89"/>
<polygon fill="black" stroke="black" points="802.87,-62.46 808.09,-53.24 798.26,-57.19 802.87,-62.46"/>
</g>
<!-- 17 -->
<g id="node18" class="node">
<title>17</title>
<polygon fill="#f8dbc6" stroke="black" points="1028,-261 929,-261 929,-193 1028,-193 1028,-261"/>
<text text-anchor="middle" x="978.5" y="-245.8" font-family="Times,serif" font-size="14.00">DIS &lt;= 1.227</text>
<text text-anchor="middle" x="978.5" y="-230.8" font-family="Times,serif" font-size="14.00">mse = 20.779</text>
<text text-anchor="middle" x="978.5" y="-215.8" font-family="Times,serif" font-size="14.00">samples = 133</text>
<text text-anchor="middle" x="978.5" y="-200.8" font-family="Times,serif" font-size="14.00">value = 21.937</text>
</g>
<!-- 16&#45;&gt;17 -->
<g id="edge17" class="edge">
<title>16&#45;&gt;17</title>
<path fill="none" stroke="black" d="M978.5,-296.88C978.5,-288.78 978.5,-279.98 978.5,-271.47"/>
<polygon fill="black" stroke="black" points="982,-271.3 978.5,-261.3 975,-271.3 982,-271.3"/>
</g>
<!-- 22 -->
<g id="node23" class="node">
<title>22</title>
<polygon fill="#fcf1e9" stroke="black" points="1257,-261 1150,-261 1150,-193 1257,-193 1257,-261"/>
<text text-anchor="middle" x="1203.5" y="-245.8" font-family="Times,serif" font-size="14.00">CRIM &lt;= 6.992</text>
<text text-anchor="middle" x="1203.5" y="-230.8" font-family="Times,serif" font-size="14.00">mse = 17.831</text>
<text text-anchor="middle" x="1203.5" y="-215.8" font-family="Times,serif" font-size="14.00">samples = 121</text>
<text text-anchor="middle" x="1203.5" y="-200.8" font-family="Times,serif" font-size="14.00">value = 14.909</text>
</g>
<!-- 16&#45;&gt;22 -->
<g id="edge22" class="edge">
<title>16&#45;&gt;22</title>
<path fill="none" stroke="black" d="M1031.25,-306.09C1063.9,-291.28 1106.01,-272.2 1140.42,-256.6"/>
<polygon fill="black" stroke="black" points="1142.24,-259.61 1149.91,-252.3 1139.35,-253.24 1142.24,-259.61"/>
</g>
<!-- 18 -->
<g id="node19" class="node">
<title>18</title>
<polygon fill="#e58139" stroke="black" points="966.5,-149.5 880.5,-149.5 880.5,-96.5 966.5,-96.5 966.5,-149.5"/>
<text text-anchor="middle" x="923.5" y="-134.3" font-family="Times,serif" font-size="14.00">mse = 0.0</text>
<text text-anchor="middle" x="923.5" y="-119.3" font-family="Times,serif" font-size="14.00">samples = 1</text>
<text text-anchor="middle" x="923.5" y="-104.3" font-family="Times,serif" font-size="14.00">value = 50.0</text>
</g>
<!-- 17&#45;&gt;18 -->
<g id="edge18" class="edge">
<title>17&#45;&gt;18</title>
<path fill="none" stroke="black" d="M960.64,-192.88C954.71,-181.89 948.1,-169.62 942.11,-158.52"/>
<polygon fill="black" stroke="black" points="945.09,-156.66 937.26,-149.52 938.93,-159.98 945.09,-156.66"/>
</g>
<!-- 19 -->
<g id="node20" class="node">
<title>19</title>
<polygon fill="#f8dbc7" stroke="black" points="1084,-157 985,-157 985,-89 1084,-89 1084,-157"/>
<text text-anchor="middle" x="1034.5" y="-141.8" font-family="Times,serif" font-size="14.00">RM &lt;= 6.72</text>
<text text-anchor="middle" x="1034.5" y="-126.8" font-family="Times,serif" font-size="14.00">mse = 14.925</text>
<text text-anchor="middle" x="1034.5" y="-111.8" font-family="Times,serif" font-size="14.00">samples = 132</text>
<text text-anchor="middle" x="1034.5" y="-96.8" font-family="Times,serif" font-size="14.00">value = 21.724</text>
</g>
<!-- 17&#45;&gt;19 -->
<g id="edge19" class="edge">
<title>17&#45;&gt;19</title>
<path fill="none" stroke="black" d="M996.68,-192.88C1001.38,-184.33 1006.49,-175.01 1011.4,-166.07"/>
<polygon fill="black" stroke="black" points="1014.47,-167.75 1016.22,-157.3 1008.34,-164.38 1014.47,-167.75"/>
</g>
<!-- 20 -->
<g id="node21" class="node">
<title>20</title>
<polygon fill="#f8ddca" stroke="black" points="998,-53 899,-53 899,0 998,0 998,-53"/>
<text text-anchor="middle" x="948.5" y="-37.8" font-family="Times,serif" font-size="14.00">mse = 9.872</text>
<text text-anchor="middle" x="948.5" y="-22.8" font-family="Times,serif" font-size="14.00">samples = 122</text>
<text text-anchor="middle" x="948.5" y="-7.8" font-family="Times,serif" font-size="14.00">value = 21.096</text>
</g>
<!-- 19&#45;&gt;20 -->
<g id="edge20" class="edge">
<title>19&#45;&gt;20</title>
<path fill="none" stroke="black" d="M1004.42,-88.95C996.1,-79.8 987.06,-69.87 978.73,-60.71"/>
<polygon fill="black" stroke="black" points="981.24,-58.28 971.92,-53.24 976.06,-62.99 981.24,-58.28"/>
</g>
<!-- 21 -->
<g id="node22" class="node">
<title>21</title>
<polygon fill="#f3c3a1" stroke="black" points="1108.5,-53 1016.5,-53 1016.5,0 1108.5,0 1108.5,-53"/>
<text text-anchor="middle" x="1062.5" y="-37.8" font-family="Times,serif" font-size="14.00">mse = 12.999</text>
<text text-anchor="middle" x="1062.5" y="-22.8" font-family="Times,serif" font-size="14.00">samples = 10</text>
<text text-anchor="middle" x="1062.5" y="-7.8" font-family="Times,serif" font-size="14.00">value = 29.39</text>
</g>
<!-- 19&#45;&gt;21 -->
<g id="edge21" class="edge">
<title>19&#45;&gt;21</title>
<path fill="none" stroke="black" d="M1044.29,-88.95C1046.79,-80.53 1049.48,-71.45 1052,-62.92"/>
<polygon fill="black" stroke="black" points="1055.39,-63.82 1054.87,-53.24 1048.68,-61.83 1055.39,-63.82"/>
</g>
<!-- 23 -->
<g id="node24" class="node">
<title>23</title>
<polygon fill="#fbeadf" stroke="black" points="1253,-157 1154,-157 1154,-89 1253,-89 1253,-157"/>
<text text-anchor="middle" x="1203.5" y="-141.8" font-family="Times,serif" font-size="14.00">DIS &lt;= 1.986</text>
<text text-anchor="middle" x="1203.5" y="-126.8" font-family="Times,serif" font-size="14.00">mse = 12.223</text>
<text text-anchor="middle" x="1203.5" y="-111.8" font-family="Times,serif" font-size="14.00">samples = 71</text>
<text text-anchor="middle" x="1203.5" y="-96.8" font-family="Times,serif" font-size="14.00">value = 17.004</text>
</g>
<!-- 22&#45;&gt;23 -->
<g id="edge23" class="edge">
<title>22&#45;&gt;23</title>
<path fill="none" stroke="black" d="M1203.5,-192.88C1203.5,-184.78 1203.5,-175.98 1203.5,-167.47"/>
<polygon fill="black" stroke="black" points="1207,-167.3 1203.5,-157.3 1200,-167.3 1207,-167.3"/>
</g>
<!-- 26 -->
<g id="node27" class="node">
<title>26</title>
<polygon fill="#fefbf8" stroke="black" points="1454,-157 1355,-157 1355,-89 1454,-89 1454,-157"/>
<text text-anchor="middle" x="1404.5" y="-141.8" font-family="Times,serif" font-size="14.00">DIS &lt;= 1.973</text>
<text text-anchor="middle" x="1404.5" y="-126.8" font-family="Times,serif" font-size="14.00">mse = 10.711</text>
<text text-anchor="middle" x="1404.5" y="-111.8" font-family="Times,serif" font-size="14.00">samples = 50</text>
<text text-anchor="middle" x="1404.5" y="-96.8" font-family="Times,serif" font-size="14.00">value = 11.934</text>
</g>
<!-- 22&#45;&gt;26 -->
<g id="edge26" class="edge">
<title>22&#45;&gt;26</title>
<path fill="none" stroke="black" d="M1257.1,-198.8C1284.37,-184.96 1317.58,-168.11 1345.57,-153.91"/>
<polygon fill="black" stroke="black" points="1347.51,-156.85 1354.84,-149.2 1344.34,-150.6 1347.51,-156.85"/>
</g>
<!-- 24 -->
<g id="node25" class="node">
<title>24</title>
<polygon fill="#fcf2ea" stroke="black" points="1226,-53 1127,-53 1127,0 1226,0 1226,-53"/>
<text text-anchor="middle" x="1176.5" y="-37.8" font-family="Times,serif" font-size="14.00">mse = 7.949</text>
<text text-anchor="middle" x="1176.5" y="-22.8" font-family="Times,serif" font-size="14.00">samples = 23</text>
<text text-anchor="middle" x="1176.5" y="-7.8" font-family="Times,serif" font-size="14.00">value = 14.739</text>
</g>
<!-- 23&#45;&gt;24 -->
<g id="edge24" class="edge">
<title>23&#45;&gt;24</title>
<path fill="none" stroke="black" d="M1194.06,-88.95C1191.65,-80.53 1189.06,-71.45 1186.62,-62.92"/>
<polygon fill="black" stroke="black" points="1189.97,-61.89 1183.85,-53.24 1183.24,-63.81 1189.97,-61.89"/>
</g>
<!-- 25 -->
<g id="node26" class="node">
<title>25</title>
<polygon fill="#fae7d9" stroke="black" points="1336.5,-53 1244.5,-53 1244.5,0 1336.5,0 1336.5,-53"/>
<text text-anchor="middle" x="1290.5" y="-37.8" font-family="Times,serif" font-size="14.00">mse = 10.634</text>
<text text-anchor="middle" x="1290.5" y="-22.8" font-family="Times,serif" font-size="14.00">samples = 48</text>
<text text-anchor="middle" x="1290.5" y="-7.8" font-family="Times,serif" font-size="14.00">value = 18.09</text>
</g>
<!-- 23&#45;&gt;25 -->
<g id="edge25" class="edge">
<title>23&#45;&gt;25</title>
<path fill="none" stroke="black" d="M1233.93,-88.95C1242.35,-79.8 1251.49,-69.87 1259.92,-60.71"/>
<polygon fill="black" stroke="black" points="1262.61,-62.96 1266.81,-53.24 1257.46,-58.22 1262.61,-62.96"/>
</g>
<!-- 27 -->
<g id="node28" class="node">
<title>27</title>
<polygon fill="#ffffff" stroke="black" points="1454,-53 1355,-53 1355,0 1454,0 1454,-53"/>
<text text-anchor="middle" x="1404.5" y="-37.8" font-family="Times,serif" font-size="14.00">mse = 7.407</text>
<text text-anchor="middle" x="1404.5" y="-22.8" font-family="Times,serif" font-size="14.00">samples = 34</text>
<text text-anchor="middle" x="1404.5" y="-7.8" font-family="Times,serif" font-size="14.00">value = 10.588</text>
</g>
<!-- 26&#45;&gt;27 -->
<g id="edge27" class="edge">
<title>26&#45;&gt;27</title>
<path fill="none" stroke="black" d="M1404.5,-88.95C1404.5,-80.72 1404.5,-71.85 1404.5,-63.48"/>
<polygon fill="black" stroke="black" points="1408,-63.24 1404.5,-53.24 1401,-63.24 1408,-63.24"/>
</g>
<!-- 28 -->
<g id="node29" class="node">
<title>28</title>
<polygon fill="#fcf2ea" stroke="black" points="1571,-53 1472,-53 1472,0 1571,0 1571,-53"/>
<text text-anchor="middle" x="1521.5" y="-37.8" font-family="Times,serif" font-size="14.00">mse = 5.707</text>
<text text-anchor="middle" x="1521.5" y="-22.8" font-family="Times,serif" font-size="14.00">samples = 16</text>
<text text-anchor="middle" x="1521.5" y="-7.8" font-family="Times,serif" font-size="14.00">value = 14.794</text>
</g>
<!-- 26&#45;&gt;28 -->
<g id="edge28" class="edge">
<title>26&#45;&gt;28</title>
<path fill="none" stroke="black" d="M1445.42,-88.95C1457.2,-79.43 1470.03,-69.07 1481.74,-59.62"/>
<polygon fill="black" stroke="black" points="1484.06,-62.24 1489.64,-53.24 1479.66,-56.8 1484.06,-62.24"/>
</g>
</g>
</svg>
