<?xml version="1.0" encoding="UTF-8" standalone="no"?>
<!DOCTYPE svg PUBLIC "-//W3C//DTD SVG 1.1//EN"
 "http://www.w3.org/Graphics/SVG/1.1/DTD/svg11.dtd">
<!-- Generated by graphviz version 2.46.1 (20210213.1702)
 -->
<!-- Title: Tree Pages: 1 -->
<svg width="1592pt" height="477pt"
 viewBox="0.00 0.00 1591.50 477.00" xmlns="http://www.w3.org/2000/svg" xmlns:xlink="http://www.w3.org/1999/xlink">
<g id="graph0" class="graph" transform="scale(1 1) rotate(0) translate(4 473)">
<title>Tree</title>
<polygon fill="white" stroke="transparent" points="-4,4 -4,-473 1587.5,-473 1587.5,4 -4,4"/>
<!-- 0 -->
<g id="node1" class="node">
<title>0</title>
<polygon fill="#f7d8c2" stroke="black" points="732.5,-469 620.5,-469 620.5,-401 732.5,-401 732.5,-469"/>
<text text-anchor="middle" x="676.5" y="-453.8" font-family="Times,serif" font-size="14.00">LSTAT &lt;= 9.725</text>
<text text-anchor="middle" x="676.5" y="-438.8" font-family="Times,serif" font-size="14.00">mse = 77.299</text>
<text text-anchor="middle" x="676.5" y="-423.8" font-family="Times,serif" font-size="14.00">samples = 354</text>
<text text-anchor="middle" x="676.5" y="-408.8" font-family="Times,serif" font-size="14.00">value = 22.136</text>
</g>
<!-- 1 -->
<g id="node2" class="node">
<title>1</title>
<polygon fill="#f3c3a0" stroke="black" points="503,-365 404,-365 404,-297 503,-297 503,-365"/>
<text text-anchor="middle" x="453.5" y="-349.8" font-family="Times,serif" font-size="14.00">RM &lt;= 6.941</text>
<text text-anchor="middle" x="453.5" y="-334.8" font-family="Times,serif" font-size="14.00">mse = 69.318</text>
<text text-anchor="middle" x="453.5" y="-319.8" font-family="Times,serif" font-size="14.00">samples = 147</text>
<text text-anchor="middle" x="453.5" y="-304.8" font-family="Times,serif" font-size="14.00">value = 29.088</text>
</g>
<!-- 0&#45;&gt;1 -->
<g id="edge1" class="edge">
<title>0&#45;&gt;1</title>
<path fill="none" stroke="black" d="M620.23,-408.26C587.32,-393.21 545.83,-374.23 512.47,-358.97"/>
<polygon fill="black" stroke="black" points="513.84,-355.75 503.29,-354.78 510.93,-362.12 513.84,-355.75"/>
<text text-anchor="middle" x="512.02" y="-374.5" font-family="Times,serif" font-size="14.00">True</text>
</g>
<!-- 14 -->
<g id="node15" class="node">
<title>14</title>
<polygon fill="#fae8db" stroke="black" points="963,-365 844,-365 844,-297 963,-297 963,-365"/>
<text text-anchor="middle" x="903.5" y="-349.8" font-family="Times,serif" font-size="14.00">LSTAT &lt;= 20.195</text>
<text text-anchor="middle" x="903.5" y="-334.8" font-family="Times,serif" font-size="14.00">mse = 24.279</text>
<text text-anchor="middle" x="903.5" y="-319.8" font-family="Times,serif" font-size="14.00">samples = 207</text>
<text text-anchor="middle" x="903.5" y="-304.8" font-family="Times,serif" font-size="14.00">value = 17.2</text>
</g>
<!-- 0&#45;&gt;14 -->
<g id="edge14" class="edge">
<title>0&#45;&gt;14</title>
<path fill="none" stroke="black" d="M732.61,-408.79C763.32,-394.99 801.64,-377.77 834.2,-363.14"/>
<polygon fill="black" stroke="black" points="835.98,-366.18 843.67,-358.89 833.11,-359.79 835.98,-366.18"/>
<text text-anchor="middle" x="834.79" y="-378.56" font-family="Times,serif" font-size="14.00">False</text>
</g>
<!-- 2 -->
<g id="node3" class="node">
<title>2</title>
<polygon fill="#f5ceb2" stroke="black" points="216,-261 117,-261 117,-193 216,-193 216,-261"/>
<text text-anchor="middle" x="166.5" y="-245.8" font-family="Times,serif" font-size="14.00">DIS &lt;= 1.473</text>
<text text-anchor="middle" x="166.5" y="-230.8" font-family="Times,serif" font-size="14.00">mse = 27.478</text>
<text text-anchor="middle" x="166.5" y="-215.8" font-family="Times,serif" font-size="14.00">samples = 104</text>
<text text-anchor="middle" x="166.5" y="-200.8" font-family="Times,serif" font-size="14.00">value = 25.463</text>
</g>
<!-- 1&#45;&gt;2 -->
<g id="edge2" class="edge">
<title>1&#45;&gt;2</title>
<path fill="none" stroke="black" d="M403.84,-312.35C354.3,-294.74 278.19,-267.69 225.57,-249"/>
<polygon fill="black" stroke="black" points="226.63,-245.66 216.04,-245.61 224.29,-252.25 226.63,-245.66"/>
</g>
<!-- 7 -->
<g id="node8" class="node">
<title>7</title>
<polygon fill="#eda775" stroke="black" points="503,-261 404,-261 404,-193 503,-193 503,-261"/>
<text text-anchor="middle" x="453.5" y="-245.8" font-family="Times,serif" font-size="14.00">RM &lt;= 7.437</text>
<text text-anchor="middle" x="453.5" y="-230.8" font-family="Times,serif" font-size="14.00">mse = 61.904</text>
<text text-anchor="middle" x="453.5" y="-215.8" font-family="Times,serif" font-size="14.00">samples = 43</text>
<text text-anchor="middle" x="453.5" y="-200.8" font-family="Times,serif" font-size="14.00">value = 37.853</text>
</g>
<!-- 1&#45;&gt;7 -->
<g id="edge7" class="edge">
<title>1&#45;&gt;7</title>
<path fill="none" stroke="black" d="M453.5,-296.88C453.5,-288.78 453.5,-279.98 453.5,-271.47"/>
<polygon fill="black" stroke="black" points="457,-271.3 453.5,-261.3 450,-271.3 457,-271.3"/>
</g>
<!-- 3 -->
<g id="node4" class="node">
<title>3</title>
<polygon fill="#e58139" stroke="black" points="98.5,-149.5 12.5,-149.5 12.5,-96.5 98.5,-96.5 98.5,-149.5"/>
<text text-anchor="middle" x="55.5" y="-134.3" font-family="Times,serif" font-size="14.00">mse = 0.0</text>
<text text-anchor="middle" x="55.5" y="-119.3" font-family="Times,serif" font-size="14.00">samples = 2</text>
<text text-anchor="middle" x="55.5" y="-104.3" font-family="Times,serif" font-size="14.00">value = 50.0</text>
</g>
<!-- 2&#45;&gt;3 -->
<g id="edge3" class="edge">
<title>2&#45;&gt;3</title>
<path fill="none" stroke="black" d="M130.46,-192.88C117.78,-181.23 103.54,-168.14 90.9,-156.53"/>
<polygon fill="black" stroke="black" points="93,-153.71 83.27,-149.52 88.27,-158.86 93,-153.71"/>
</g>
<!-- 4 -->
<g id="node5" class="node">
<title>4</title>
<polygon fill="#f5d0b4" stroke="black" points="216,-157 117,-157 117,-89 216,-89 216,-157"/>
<text text-anchor="middle" x="166.5" y="-141.8" font-family="Times,serif" font-size="14.00">RM &lt;= 6.542</text>
<text text-anchor="middle" x="166.5" y="-126.8" font-family="Times,serif" font-size="14.00">mse = 15.98</text>
<text text-anchor="middle" x="166.5" y="-111.8" font-family="Times,serif" font-size="14.00">samples = 102</text>
<text text-anchor="middle" x="166.5" y="-96.8" font-family="Times,serif" font-size="14.00">value = 24.982</text>
</g>
<!-- 2&#45;&gt;4 -->
<g id="edge4" class="edge">
<title>2&#45;&gt;4</title>
<path fill="none" stroke="black" d="M166.5,-192.88C166.5,-184.78 166.5,-175.98 166.5,-167.47"/>
<polygon fill="black" stroke="black" points="170,-167.3 166.5,-157.3 163,-167.3 170,-167.3"/>
</g>
<!-- 5 -->
<g id="node6" class="node">
<title>5</title>
<polygon fill="#f6d5be" stroke="black" points="99,-53 0,-53 0,0 99,0 99,-53"/>
<text text-anchor="middle" x="49.5" y="-37.8" font-family="Times,serif" font-size="14.00">mse = 9.594</text>
<text text-anchor="middle" x="49.5" y="-22.8" font-family="Times,serif" font-size="14.00">samples = 63</text>
<text text-anchor="middle" x="49.5" y="-7.8" font-family="Times,serif" font-size="14.00">value = 23.143</text>
</g>
<!-- 4&#45;&gt;5 -->
<g id="edge5" class="edge">
<title>4&#45;&gt;5</title>
<path fill="none" stroke="black" d="M125.58,-88.95C113.8,-79.43 100.97,-69.07 89.26,-59.62"/>
<polygon fill="black" stroke="black" points="91.34,-56.8 81.36,-53.24 86.94,-62.24 91.34,-56.8"/>
</g>
<!-- 6 -->
<g id="node7" class="node">
<title>6</title>
<polygon fill="#f3c6a6" stroke="black" points="216,-53 117,-53 117,0 216,0 216,-53"/>
<text text-anchor="middle" x="166.5" y="-37.8" font-family="Times,serif" font-size="14.00">mse = 12.0</text>
<text text-anchor="middle" x="166.5" y="-22.8" font-family="Times,serif" font-size="14.00">samples = 39</text>
<text text-anchor="middle" x="166.5" y="-7.8" font-family="Times,serif" font-size="14.00">value = 27.954</text>
</g>
<!-- 4&#45;&gt;6 -->
<g id="edge6" class="edge">
<title>4&#45;&gt;6</title>
<path fill="none" stroke="black" d="M166.5,-88.95C166.5,-80.72 166.5,-71.85 166.5,-63.48"/>
<polygon fill="black" stroke="black" points="170,-63.24 166.5,-53.24 163,-63.24 170,-63.24"/>
</g>
<!-- 8 -->
<g id="node9" class="node">
<title>8</title>
<polygon fill="#f0b48a" stroke="black" points="444,-157 345,-157 345,-89 444,-89 444,-157"/>
<text text-anchor="middle" x="394.5" y="-141.8" font-family="Times,serif" font-size="14.00">DIS &lt;= 1.886</text>
<text text-anchor="middle" x="394.5" y="-126.8" font-family="Times,serif" font-size="14.00">mse = 26.119</text>
<text text-anchor="middle" x="394.5" y="-111.8" font-family="Times,serif" font-size="14.00">samples = 26</text>
<text text-anchor="middle" x="394.5" y="-96.8" font-family="Times,serif" font-size="14.00">value = 33.662</text>
</g>
<!-- 7&#45;&gt;8 -->
<g id="edge8" class="edge">
<title>7&#45;&gt;8</title>
<path fill="none" stroke="black" d="M434.34,-192.88C429.4,-184.33 424.01,-175.01 418.84,-166.07"/>
<polygon fill="black" stroke="black" points="421.8,-164.2 413.76,-157.3 415.74,-167.71 421.8,-164.2"/>
</g>
<!-- 11 -->
<g id="node12" class="node">
<title>11</title>
<polygon fill="#e99355" stroke="black" points="563,-157 462,-157 462,-89 563,-89 563,-157"/>
<text text-anchor="middle" x="512.5" y="-141.8" font-family="Times,serif" font-size="14.00">NOX &lt;= 0.683</text>
<text text-anchor="middle" x="512.5" y="-126.8" font-family="Times,serif" font-size="14.00">mse = 48.655</text>
<text text-anchor="middle" x="512.5" y="-111.8" font-family="Times,serif" font-size="14.00">samples = 17</text>
<text text-anchor="middle" x="512.5" y="-96.8" font-family="Times,serif" font-size="14.00">value = 44.265</text>
</g>
<!-- 7&#45;&gt;11 -->
<g id="edge11" class="edge">
<title>7&#45;&gt;11</title>
<path fill="none" stroke="black" d="M472.66,-192.88C477.6,-184.33 482.99,-175.01 488.16,-166.07"/>
<polygon fill="black" stroke="black" points="491.26,-167.71 493.24,-157.3 485.2,-164.2 491.26,-167.71"/>
</g>
<!-- 9 -->
<g id="node10" class="node">
<title>9</title>
<polygon fill="#e88f4e" stroke="black" points="326.5,-53 234.5,-53 234.5,0 326.5,0 326.5,-53"/>
<text text-anchor="middle" x="280.5" y="-37.8" font-family="Times,serif" font-size="14.00">mse = 18.923</text>
<text text-anchor="middle" x="280.5" y="-22.8" font-family="Times,serif" font-size="14.00">samples = 2</text>
<text text-anchor="middle" x="280.5" y="-7.8" font-family="Times,serif" font-size="14.00">value = 45.65</text>
</g>
<!-- 8&#45;&gt;9 -->
<g id="edge9" class="edge">
<title>8&#45;&gt;9</title>
<path fill="none" stroke="black" d="M354.63,-88.95C343.26,-79.53 330.89,-69.27 319.57,-59.89"/>
<polygon fill="black" stroke="black" points="321.48,-56.92 311.55,-53.24 317.01,-62.31 321.48,-56.92"/>
</g>
<!-- 10 -->
<g id="node11" class="node">
<title>10</title>
<polygon fill="#f0b78f" stroke="black" points="444,-53 345,-53 345,0 444,0 444,-53"/>
<text text-anchor="middle" x="394.5" y="-37.8" font-family="Times,serif" font-size="14.00">mse = 13.744</text>
<text text-anchor="middle" x="394.5" y="-22.8" font-family="Times,serif" font-size="14.00">samples = 24</text>
<text text-anchor="middle" x="394.5" y="-7.8" font-family="Times,serif" font-size="14.00">value = 32.662</text>
</g>
<!-- 8&#45;&gt;10 -->
<g id="edge10" class="edge">
<title>8&#45;&gt;10</title>
<path fill="none" stroke="black" d="M394.5,-88.95C394.5,-80.72 394.5,-71.85 394.5,-63.48"/>
<polygon fill="black" stroke="black" points="398,-63.24 394.5,-53.24 391,-63.24 398,-63.24"/>
</g>
<!-- 12 -->
<g id="node13" class="node">
<title>12</title>
<polygon fill="#e88f4e" stroke="black" points="561,-53 462,-53 462,0 561,0 561,-53"/>
<text text-anchor="middle" x="511.5" y="-37.8" font-family="Times,serif" font-size="14.00">mse = 18.481</text>
<text text-anchor="middle" x="511.5" y="-22.8" font-family="Times,serif" font-size="14.00">samples = 16</text>
<text text-anchor="middle" x="511.5" y="-7.8" font-family="Times,serif" font-size="14.00">value = 45.662</text>
</g>
<!-- 11&#45;&gt;12 -->
<g id="edge12" class="edge">
<title>11&#45;&gt;12</title>
<path fill="none" stroke="black" d="M512.15,-88.95C512.06,-80.72 511.97,-71.85 511.88,-63.48"/>
<polygon fill="black" stroke="black" points="515.38,-63.2 511.77,-53.24 508.38,-63.27 515.38,-63.2"/>
</g>
<!-- 13 -->
<g id="node14" class="node">
<title>13</title>
<polygon fill="#f7d9c4" stroke="black" points="665.5,-53 579.5,-53 579.5,0 665.5,0 665.5,-53"/>
<text text-anchor="middle" x="622.5" y="-37.8" font-family="Times,serif" font-size="14.00">mse = &#45;0.0</text>
<text text-anchor="middle" x="622.5" y="-22.8" font-family="Times,serif" font-size="14.00">samples = 1</text>
<text text-anchor="middle" x="622.5" y="-7.8" font-family="Times,serif" font-size="14.00">value = 21.9</text>
</g>
<!-- 11&#45;&gt;13 -->
<g id="edge13" class="edge">
<title>11&#45;&gt;13</title>
<path fill="none" stroke="black" d="M550.97,-88.95C561.94,-79.53 573.88,-69.27 584.8,-59.89"/>
<polygon fill="black" stroke="black" points="587.24,-62.41 592.54,-53.24 582.68,-57.1 587.24,-62.41"/>
</g>
<!-- 15 -->
<g id="node16" class="node">
<title>15</title>
<polygon fill="#f9e2d2" stroke="black" points="954,-261 853,-261 853,-193 954,-193 954,-261"/>
<text text-anchor="middle" x="903.5" y="-245.8" font-family="Times,serif" font-size="14.00">NOX &lt;= 0.663</text>
<text text-anchor="middle" x="903.5" y="-230.8" font-family="Times,serif" font-size="14.00">mse = 14.471</text>
<text text-anchor="middle" x="903.5" y="-215.8" font-family="Times,serif" font-size="14.00">samples = 153</text>
<text text-anchor="middle" x="903.5" y="-200.8" font-family="Times,serif" font-size="14.00">value = 19.036</text>
</g>
<!-- 14&#45;&gt;15 -->
<g id="edge15" class="edge">
<title>14&#45;&gt;15</title>
<path fill="none" stroke="black" d="M903.5,-296.88C903.5,-288.78 903.5,-279.98 903.5,-271.47"/>
<polygon fill="black" stroke="black" points="907,-271.3 903.5,-261.3 900,-271.3 907,-271.3"/>
</g>
<!-- 22 -->
<g id="node23" class="node">
<title>22</title>
<polygon fill="#fef8f5" stroke="black" points="1299,-261 1198,-261 1198,-193 1299,-193 1299,-261"/>
<text text-anchor="middle" x="1248.5" y="-245.8" font-family="Times,serif" font-size="14.00">NOX &lt;= 0.603</text>
<text text-anchor="middle" x="1248.5" y="-230.8" font-family="Times,serif" font-size="14.00">mse = 15.44</text>
<text text-anchor="middle" x="1248.5" y="-215.8" font-family="Times,serif" font-size="14.00">samples = 54</text>
<text text-anchor="middle" x="1248.5" y="-200.8" font-family="Times,serif" font-size="14.00">value = 11.996</text>
</g>
<!-- 14&#45;&gt;22 -->
<g id="edge22" class="edge">
<title>14&#45;&gt;22</title>
<path fill="none" stroke="black" d="M963.2,-312.35C1026.17,-293.73 1124.87,-264.55 1188.1,-245.86"/>
<polygon fill="black" stroke="black" points="1189.34,-249.14 1197.94,-242.95 1187.35,-242.43 1189.34,-249.14"/>
</g>
<!-- 16 -->
<g id="node17" class="node">
<title>16</title>
<polygon fill="#f8dfcc" stroke="black" points="893,-157 794,-157 794,-89 893,-89 893,-157"/>
<text text-anchor="middle" x="843.5" y="-141.8" font-family="Times,serif" font-size="14.00">RM &lt;= 6.784</text>
<text text-anchor="middle" x="843.5" y="-126.8" font-family="Times,serif" font-size="14.00">mse = 10.556</text>
<text text-anchor="middle" x="843.5" y="-111.8" font-family="Times,serif" font-size="14.00">samples = 114</text>
<text text-anchor="middle" x="843.5" y="-96.8" font-family="Times,serif" font-size="14.00">value = 20.121</text>
</g>
<!-- 15&#45;&gt;16 -->
<g id="edge16" class="edge">
<title>15&#45;&gt;16</title>
<path fill="none" stroke="black" d="M884.02,-192.88C878.99,-184.33 873.51,-175.01 868.25,-166.07"/>
<polygon fill="black" stroke="black" points="871.17,-164.14 863.09,-157.3 865.14,-167.69 871.17,-164.14"/>
</g>
<!-- 19 -->
<g id="node20" class="node">
<title>19</title>
<polygon fill="#fbece1" stroke="black" points="1018,-157 911,-157 911,-89 1018,-89 1018,-157"/>
<text text-anchor="middle" x="964.5" y="-141.8" font-family="Times,serif" font-size="14.00">CRIM &lt;= 6.882</text>
<text text-anchor="middle" x="964.5" y="-126.8" font-family="Times,serif" font-size="14.00">mse = 12.413</text>
<text text-anchor="middle" x="964.5" y="-111.8" font-family="Times,serif" font-size="14.00">samples = 39</text>
<text text-anchor="middle" x="964.5" y="-96.8" font-family="Times,serif" font-size="14.00">value = 15.864</text>
</g>
<!-- 15&#45;&gt;19 -->
<g id="edge19" class="edge">
<title>15&#45;&gt;19</title>
<path fill="none" stroke="black" d="M923.3,-192.88C928.42,-184.33 933.99,-175.01 939.34,-166.07"/>
<polygon fill="black" stroke="black" points="942.46,-167.68 944.59,-157.3 936.45,-164.09 942.46,-167.68"/>
</g>
<!-- 17 -->
<g id="node18" class="node">
<title>17</title>
<polygon fill="#f9e0ce" stroke="black" points="783,-53 684,-53 684,0 783,0 783,-53"/>
<text text-anchor="middle" x="733.5" y="-37.8" font-family="Times,serif" font-size="14.00">mse = 8.241</text>
<text text-anchor="middle" x="733.5" y="-22.8" font-family="Times,serif" font-size="14.00">samples = 110</text>
<text text-anchor="middle" x="733.5" y="-7.8" font-family="Times,serif" font-size="14.00">value = 19.842</text>
</g>
<!-- 16&#45;&gt;17 -->
<g id="edge17" class="edge">
<title>16&#45;&gt;17</title>
<path fill="none" stroke="black" d="M805.03,-88.95C794.06,-79.53 782.12,-69.27 771.2,-59.89"/>
<polygon fill="black" stroke="black" points="773.32,-57.1 763.46,-53.24 768.76,-62.41 773.32,-57.1"/>
</g>
<!-- 18 -->
<g id="node19" class="node">
<title>18</title>
<polygon fill="#f3c7a7" stroke="black" points="893.5,-53 801.5,-53 801.5,0 893.5,0 893.5,-53"/>
<text text-anchor="middle" x="847.5" y="-37.8" font-family="Times,serif" font-size="14.00">mse = 13.095</text>
<text text-anchor="middle" x="847.5" y="-22.8" font-family="Times,serif" font-size="14.00">samples = 4</text>
<text text-anchor="middle" x="847.5" y="-7.8" font-family="Times,serif" font-size="14.00">value = 27.8</text>
</g>
<!-- 16&#45;&gt;18 -->
<g id="edge18" class="edge">
<title>16&#45;&gt;18</title>
<path fill="none" stroke="black" d="M844.9,-88.95C845.25,-80.72 845.62,-71.85 845.98,-63.48"/>
<polygon fill="black" stroke="black" points="849.48,-63.38 846.41,-53.24 842.49,-63.08 849.48,-63.38"/>
</g>
<!-- 20 -->
<g id="node21" class="node">
<title>20</title>
<polygon fill="#fae6d8" stroke="black" points="1011,-53 912,-53 912,0 1011,0 1011,-53"/>
<text text-anchor="middle" x="961.5" y="-37.8" font-family="Times,serif" font-size="14.00">mse = 8.245</text>
<text text-anchor="middle" x="961.5" y="-22.8" font-family="Times,serif" font-size="14.00">samples = 22</text>
<text text-anchor="middle" x="961.5" y="-7.8" font-family="Times,serif" font-size="14.00">value = 17.855</text>
</g>
<!-- 19&#45;&gt;20 -->
<g id="edge20" class="edge">
<title>19&#45;&gt;20</title>
<path fill="none" stroke="black" d="M963.45,-88.95C963.19,-80.72 962.91,-71.85 962.64,-63.48"/>
<polygon fill="black" stroke="black" points="966.13,-63.12 962.32,-53.24 959.14,-63.34 966.13,-63.12"/>
</g>
<!-- 21 -->
<g id="node22" class="node">
<title>21</title>
<polygon fill="#fdf4ee" stroke="black" points="1128,-53 1029,-53 1029,0 1128,0 1128,-53"/>
<text text-anchor="middle" x="1078.5" y="-37.8" font-family="Times,serif" font-size="14.00">mse = 6.045</text>
<text text-anchor="middle" x="1078.5" y="-22.8" font-family="Times,serif" font-size="14.00">samples = 17</text>
<text text-anchor="middle" x="1078.5" y="-7.8" font-family="Times,serif" font-size="14.00">value = 13.288</text>
</g>
<!-- 19&#45;&gt;21 -->
<g id="edge21" class="edge">
<title>19&#45;&gt;21</title>
<path fill="none" stroke="black" d="M1004.37,-88.95C1015.74,-79.53 1028.11,-69.27 1039.43,-59.89"/>
<polygon fill="black" stroke="black" points="1041.99,-62.31 1047.45,-53.24 1037.52,-56.92 1041.99,-62.31"/>
</g>
<!-- 23 -->
<g id="node24" class="node">
<title>23</title>
<polygon fill="#fae9dc" stroke="black" points="1299,-157 1198,-157 1198,-89 1299,-89 1299,-157"/>
<text text-anchor="middle" x="1248.5" y="-141.8" font-family="Times,serif" font-size="14.00">NOX &lt;= 0.516</text>
<text text-anchor="middle" x="1248.5" y="-126.8" font-family="Times,serif" font-size="14.00">mse = 11.641</text>
<text text-anchor="middle" x="1248.5" y="-111.8" font-family="Times,serif" font-size="14.00">samples = 11</text>
<text text-anchor="middle" x="1248.5" y="-96.8" font-family="Times,serif" font-size="14.00">value = 17.018</text>
</g>
<!-- 22&#45;&gt;23 -->
<g id="edge23" class="edge">
<title>22&#45;&gt;23</title>
<path fill="none" stroke="black" d="M1248.5,-192.88C1248.5,-184.78 1248.5,-175.98 1248.5,-167.47"/>
<polygon fill="black" stroke="black" points="1252,-167.3 1248.5,-157.3 1245,-167.3 1252,-167.3"/>
</g>
<!-- 26 -->
<g id="node27" class="node">
<title>26</title>
<polygon fill="#fefcfb" stroke="black" points="1473,-157 1374,-157 1374,-89 1473,-89 1473,-157"/>
<text text-anchor="middle" x="1423.5" y="-141.8" font-family="Times,serif" font-size="14.00">TAX &lt;= 551.5</text>
<text text-anchor="middle" x="1423.5" y="-126.8" font-family="Times,serif" font-size="14.00">mse = 8.309</text>
<text text-anchor="middle" x="1423.5" y="-111.8" font-family="Times,serif" font-size="14.00">samples = 43</text>
<text text-anchor="middle" x="1423.5" y="-96.8" font-family="Times,serif" font-size="14.00">value = 10.712</text>
</g>
<!-- 22&#45;&gt;26 -->
<g id="edge26" class="edge">
<title>22&#45;&gt;26</title>
<path fill="none" stroke="black" d="M1299.12,-196.5C1319.79,-184.45 1343.82,-170.44 1365.22,-157.97"/>
<polygon fill="black" stroke="black" points="1367.03,-160.97 1373.9,-152.91 1363.5,-154.92 1367.03,-160.97"/>
</g>
<!-- 24 -->
<g id="node25" class="node">
<title>24</title>
<polygon fill="#f8dfcd" stroke="black" points="1238.5,-53 1146.5,-53 1146.5,0 1238.5,0 1238.5,-53"/>
<text text-anchor="middle" x="1192.5" y="-37.8" font-family="Times,serif" font-size="14.00">mse = 11.983</text>
<text text-anchor="middle" x="1192.5" y="-22.8" font-family="Times,serif" font-size="14.00">samples = 4</text>
<text text-anchor="middle" x="1192.5" y="-7.8" font-family="Times,serif" font-size="14.00">value = 19.95</text>
</g>
<!-- 23&#45;&gt;24 -->
<g id="edge24" class="edge">
<title>23&#45;&gt;24</title>
<path fill="none" stroke="black" d="M1228.91,-88.95C1223.76,-80.26 1218.2,-70.86 1213,-62.09"/>
<polygon fill="black" stroke="black" points="1215.86,-60.06 1207.75,-53.24 1209.84,-63.62 1215.86,-60.06"/>
</g>
<!-- 25 -->
<g id="node26" class="node">
<title>25</title>
<polygon fill="#fbeee4" stroke="black" points="1356,-53 1257,-53 1257,0 1356,0 1356,-53"/>
<text text-anchor="middle" x="1306.5" y="-37.8" font-family="Times,serif" font-size="14.00">mse = 3.728</text>
<text text-anchor="middle" x="1306.5" y="-22.8" font-family="Times,serif" font-size="14.00">samples = 7</text>
<text text-anchor="middle" x="1306.5" y="-7.8" font-family="Times,serif" font-size="14.00">value = 15.343</text>
</g>
<!-- 23&#45;&gt;25 -->
<g id="edge25" class="edge">
<title>23&#45;&gt;25</title>
<path fill="none" stroke="black" d="M1268.79,-88.95C1274.18,-80.17 1280.01,-70.66 1285.44,-61.82"/>
<polygon fill="black" stroke="black" points="1288.46,-63.59 1290.7,-53.24 1282.49,-59.93 1288.46,-63.59"/>
</g>
<!-- 27 -->
<g id="node28" class="node">
<title>27</title>
<polygon fill="#fcf1e9" stroke="black" points="1473,-53 1374,-53 1374,0 1473,0 1473,-53"/>
<text text-anchor="middle" x="1423.5" y="-37.8" font-family="Times,serif" font-size="14.00">mse = 2.936</text>
<text text-anchor="middle" x="1423.5" y="-22.8" font-family="Times,serif" font-size="14.00">samples = 8</text>
<text text-anchor="middle" x="1423.5" y="-7.8" font-family="Times,serif" font-size="14.00">value = 14.388</text>
</g>
<!-- 26&#45;&gt;27 -->
<g id="edge27" class="edge">
<title>26&#45;&gt;27</title>
<path fill="none" stroke="black" d="M1423.5,-88.95C1423.5,-80.72 1423.5,-71.85 1423.5,-63.48"/>
<polygon fill="black" stroke="black" points="1427,-63.24 1423.5,-53.24 1420,-63.24 1427,-63.24"/>
</g>
<!-- 28 -->
<g id="node29" class="node">
<title>28</title>
<polygon fill="#ffffff" stroke="black" points="1583.5,-53 1491.5,-53 1491.5,0 1583.5,0 1583.5,-53"/>
<text text-anchor="middle" x="1537.5" y="-37.8" font-family="Times,serif" font-size="14.00">mse = 5.743</text>
<text text-anchor="middle" x="1537.5" y="-22.8" font-family="Times,serif" font-size="14.00">samples = 35</text>
<text text-anchor="middle" x="1537.5" y="-7.8" font-family="Times,serif" font-size="14.00">value = 9.871</text>
</g>
<!-- 26&#45;&gt;28 -->
<g id="edge28" class="edge">
<title>26&#45;&gt;28</title>
<path fill="none" stroke="black" d="M1463.37,-88.95C1474.74,-79.53 1487.11,-69.27 1498.43,-59.89"/>
<polygon fill="black" stroke="black" points="1500.99,-62.31 1506.45,-53.24 1496.52,-56.92 1500.99,-62.31"/>
</g>
</g>
</svg>
