<?xml version="1.0" encoding="UTF-8" standalone="no"?>
<!DOCTYPE svg PUBLIC "-//W3C//DTD SVG 1.1//EN"
 "http://www.w3.org/Graphics/SVG/1.1/DTD/svg11.dtd">
<!-- Generated by graphviz version 2.46.1 (20210213.1702)
 -->
<!-- Title: Tree Pages: 1 -->
<svg width="1369pt" height="477pt"
 viewBox="0.00 0.00 1369.00 477.00" xmlns="http://www.w3.org/2000/svg" xmlns:xlink="http://www.w3.org/1999/xlink">
<g id="graph0" class="graph" transform="scale(1 1) rotate(0) translate(4 473)">
<title>Tree</title>
<polygon fill="white" stroke="transparent" points="-4,4 -4,-473 1365,-473 1365,4 -4,4"/>
<!-- 0 -->
<g id="node1" class="node">
<title>0</title>
<polygon fill="#f7d8c2" stroke="black" points="623,-469 518,-469 518,-401 623,-401 623,-469"/>
<text text-anchor="middle" x="570.5" y="-453.8" font-family="Times,serif" font-size="14.00">LSTAT &lt;= 7.65</text>
<text text-anchor="middle" x="570.5" y="-438.8" font-family="Times,serif" font-size="14.00">mse = 79.731</text>
<text text-anchor="middle" x="570.5" y="-423.8" font-family="Times,serif" font-size="14.00">samples = 354</text>
<text text-anchor="middle" x="570.5" y="-408.8" font-family="Times,serif" font-size="14.00">value = 22.582</text>
</g>
<!-- 1 -->
<g id="node2" class="node">
<title>1</title>
<polygon fill="#f1bc96" stroke="black" points="509,-365 412,-365 412,-297 509,-297 509,-365"/>
<text text-anchor="middle" x="460.5" y="-349.8" font-family="Times,serif" font-size="14.00">RM &lt;= 7.47</text>
<text text-anchor="middle" x="460.5" y="-334.8" font-family="Times,serif" font-size="14.00">mse = 73.815</text>
<text text-anchor="middle" x="460.5" y="-319.8" font-family="Times,serif" font-size="14.00">samples = 110</text>
<text text-anchor="middle" x="460.5" y="-304.8" font-family="Times,serif" font-size="14.00">value = 31.35</text>
</g>
<!-- 0&#45;&gt;1 -->
<g id="edge1" class="edge">
<title>0&#45;&gt;1</title>
<path fill="none" stroke="black" d="M534.79,-400.88C524.89,-391.71 514.04,-381.65 503.77,-372.12"/>
<polygon fill="black" stroke="black" points="506.12,-369.53 496.41,-365.3 501.36,-374.67 506.12,-369.53"/>
<text text-anchor="middle" x="497.35" y="-386.58" font-family="Times,serif" font-size="14.00">True</text>
</g>
<!-- 14 -->
<g id="node15" class="node">
<title>14</title>
<polygon fill="#fae4d5" stroke="black" points="820,-365 701,-365 701,-297 820,-297 820,-365"/>
<text text-anchor="middle" x="760.5" y="-349.8" font-family="Times,serif" font-size="14.00">LSTAT &lt;= 16.295</text>
<text text-anchor="middle" x="760.5" y="-334.8" font-family="Times,serif" font-size="14.00">mse = 32.121</text>
<text text-anchor="middle" x="760.5" y="-319.8" font-family="Times,serif" font-size="14.00">samples = 244</text>
<text text-anchor="middle" x="760.5" y="-304.8" font-family="Times,serif" font-size="14.00">value = 18.63</text>
</g>
<!-- 0&#45;&gt;14 -->
<g id="edge14" class="edge">
<title>0&#45;&gt;14</title>
<path fill="none" stroke="black" d="M623.17,-405.72C644.41,-394.32 669.18,-381.02 691.8,-368.88"/>
<polygon fill="black" stroke="black" points="693.53,-371.93 700.68,-364.11 690.22,-365.76 693.53,-371.93"/>
<text text-anchor="middle" x="693.47" y="-384.35" font-family="Times,serif" font-size="14.00">False</text>
</g>
<!-- 2 -->
<g id="node3" class="node">
<title>2</title>
<polygon fill="#f3c5a4" stroke="black" points="329,-261 230,-261 230,-193 329,-193 329,-261"/>
<text text-anchor="middle" x="279.5" y="-245.8" font-family="Times,serif" font-size="14.00">RAD &lt;= 16.0</text>
<text text-anchor="middle" x="279.5" y="-230.8" font-family="Times,serif" font-size="14.00">mse = 37.463</text>
<text text-anchor="middle" x="279.5" y="-215.8" font-family="Times,serif" font-size="14.00">samples = 91</text>
<text text-anchor="middle" x="279.5" y="-200.8" font-family="Times,serif" font-size="14.00">value = 28.491</text>
</g>
<!-- 1&#45;&gt;2 -->
<g id="edge2" class="edge">
<title>1&#45;&gt;2</title>
<path fill="none" stroke="black" d="M412,-302.67C389.25,-289.85 361.95,-274.46 338.06,-261"/>
<polygon fill="black" stroke="black" points="339.51,-257.8 329.08,-255.94 336.08,-263.9 339.51,-257.8"/>
</g>
<!-- 7 -->
<g id="node8" class="node">
<title>7</title>
<polygon fill="#e89152" stroke="black" points="524,-261 397,-261 397,-193 524,-193 524,-261"/>
<text text-anchor="middle" x="460.5" y="-245.8" font-family="Times,serif" font-size="14.00">PTRATIO &lt;= 16.15</text>
<text text-anchor="middle" x="460.5" y="-230.8" font-family="Times,serif" font-size="14.00">mse = 21.305</text>
<text text-anchor="middle" x="460.5" y="-215.8" font-family="Times,serif" font-size="14.00">samples = 19</text>
<text text-anchor="middle" x="460.5" y="-200.8" font-family="Times,serif" font-size="14.00">value = 45.042</text>
</g>
<!-- 1&#45;&gt;7 -->
<g id="edge7" class="edge">
<title>1&#45;&gt;7</title>
<path fill="none" stroke="black" d="M460.5,-296.88C460.5,-288.78 460.5,-279.98 460.5,-271.47"/>
<polygon fill="black" stroke="black" points="464,-271.3 460.5,-261.3 457,-271.3 464,-271.3"/>
</g>
<!-- 3 -->
<g id="node4" class="node">
<title>3</title>
<polygon fill="#f4c8a8" stroke="black" points="216,-157 117,-157 117,-89 216,-89 216,-157"/>
<text text-anchor="middle" x="166.5" y="-141.8" font-family="Times,serif" font-size="14.00">RM &lt;= 6.712</text>
<text text-anchor="middle" x="166.5" y="-126.8" font-family="Times,serif" font-size="14.00">mse = 22.431</text>
<text text-anchor="middle" x="166.5" y="-111.8" font-family="Times,serif" font-size="14.00">samples = 88</text>
<text text-anchor="middle" x="166.5" y="-96.8" font-family="Times,serif" font-size="14.00">value = 27.758</text>
</g>
<!-- 2&#45;&gt;3 -->
<g id="edge3" class="edge">
<title>2&#45;&gt;3</title>
<path fill="none" stroke="black" d="M242.81,-192.88C232.65,-183.71 221.5,-173.65 210.95,-164.12"/>
<polygon fill="black" stroke="black" points="213.16,-161.4 203.39,-157.3 208.47,-166.6 213.16,-161.4"/>
</g>
<!-- 6 -->
<g id="node7" class="node">
<title>6</title>
<polygon fill="#e58139" stroke="black" points="322.5,-149.5 236.5,-149.5 236.5,-96.5 322.5,-96.5 322.5,-149.5"/>
<text text-anchor="middle" x="279.5" y="-134.3" font-family="Times,serif" font-size="14.00">mse = &#45;0.0</text>
<text text-anchor="middle" x="279.5" y="-119.3" font-family="Times,serif" font-size="14.00">samples = 3</text>
<text text-anchor="middle" x="279.5" y="-104.3" font-family="Times,serif" font-size="14.00">value = 50.0</text>
</g>
<!-- 2&#45;&gt;6 -->
<g id="edge6" class="edge">
<title>2&#45;&gt;6</title>
<path fill="none" stroke="black" d="M279.5,-192.88C279.5,-182.33 279.5,-170.6 279.5,-159.85"/>
<polygon fill="black" stroke="black" points="283,-159.52 279.5,-149.52 276,-159.52 283,-159.52"/>
</g>
<!-- 4 -->
<g id="node5" class="node">
<title>4</title>
<polygon fill="#f5d1b6" stroke="black" points="99,-53 0,-53 0,0 99,0 99,-53"/>
<text text-anchor="middle" x="49.5" y="-37.8" font-family="Times,serif" font-size="14.00">mse = 7.059</text>
<text text-anchor="middle" x="49.5" y="-22.8" font-family="Times,serif" font-size="14.00">samples = 50</text>
<text text-anchor="middle" x="49.5" y="-7.8" font-family="Times,serif" font-size="14.00">value = 24.832</text>
</g>
<!-- 3&#45;&gt;4 -->
<g id="edge4" class="edge">
<title>3&#45;&gt;4</title>
<path fill="none" stroke="black" d="M125.58,-88.95C113.8,-79.43 100.97,-69.07 89.26,-59.62"/>
<polygon fill="black" stroke="black" points="91.34,-56.8 81.36,-53.24 86.94,-62.24 91.34,-56.8"/>
</g>
<!-- 5 -->
<g id="node6" class="node">
<title>5</title>
<polygon fill="#f1bb95" stroke="black" points="216,-53 117,-53 117,0 216,0 216,-53"/>
<text text-anchor="middle" x="166.5" y="-37.8" font-family="Times,serif" font-size="14.00">mse = 16.57</text>
<text text-anchor="middle" x="166.5" y="-22.8" font-family="Times,serif" font-size="14.00">samples = 38</text>
<text text-anchor="middle" x="166.5" y="-7.8" font-family="Times,serif" font-size="14.00">value = 31.608</text>
</g>
<!-- 3&#45;&gt;5 -->
<g id="edge5" class="edge">
<title>3&#45;&gt;5</title>
<path fill="none" stroke="black" d="M166.5,-88.95C166.5,-80.72 166.5,-71.85 166.5,-63.48"/>
<polygon fill="black" stroke="black" points="170,-63.24 166.5,-53.24 163,-63.24 170,-63.24"/>
</g>
<!-- 8 -->
<g id="node9" class="node">
<title>8</title>
<polygon fill="#e68641" stroke="black" points="435,-157 342,-157 342,-89 435,-89 435,-157"/>
<text text-anchor="middle" x="388.5" y="-141.8" font-family="Times,serif" font-size="14.00">RM &lt;= 7.724</text>
<text text-anchor="middle" x="388.5" y="-126.8" font-family="Times,serif" font-size="14.00">mse = 5.523</text>
<text text-anchor="middle" x="388.5" y="-111.8" font-family="Times,serif" font-size="14.00">samples = 8</text>
<text text-anchor="middle" x="388.5" y="-96.8" font-family="Times,serif" font-size="14.00">value = 48.3</text>
</g>
<!-- 7&#45;&gt;8 -->
<g id="edge8" class="edge">
<title>7&#45;&gt;8</title>
<path fill="none" stroke="black" d="M437.12,-192.88C430.96,-184.15 424.24,-174.62 417.8,-165.51"/>
<polygon fill="black" stroke="black" points="420.63,-163.45 412.01,-157.3 414.91,-167.49 420.63,-163.45"/>
</g>
<!-- 11 -->
<g id="node12" class="node">
<title>11</title>
<polygon fill="#ea985e" stroke="black" points="565.5,-157 453.5,-157 453.5,-89 565.5,-89 565.5,-157"/>
<text text-anchor="middle" x="509.5" y="-141.8" font-family="Times,serif" font-size="14.00">LSTAT &lt;= 5.515</text>
<text text-anchor="middle" x="509.5" y="-126.8" font-family="Times,serif" font-size="14.00">mse = 19.449</text>
<text text-anchor="middle" x="509.5" y="-111.8" font-family="Times,serif" font-size="14.00">samples = 11</text>
<text text-anchor="middle" x="509.5" y="-96.8" font-family="Times,serif" font-size="14.00">value = 42.673</text>
</g>
<!-- 7&#45;&gt;11 -->
<g id="edge11" class="edge">
<title>7&#45;&gt;11</title>
<path fill="none" stroke="black" d="M476.41,-192.88C480.47,-184.42 484.9,-175.21 489.15,-166.35"/>
<polygon fill="black" stroke="black" points="492.33,-167.83 493.5,-157.3 486.02,-164.8 492.33,-167.83"/>
</g>
<!-- 9 -->
<g id="node10" class="node">
<title>9</title>
<polygon fill="#e99254" stroke="black" points="326.5,-53 234.5,-53 234.5,0 326.5,0 326.5,-53"/>
<text text-anchor="middle" x="280.5" y="-37.8" font-family="Times,serif" font-size="14.00">mse = 2.103</text>
<text text-anchor="middle" x="280.5" y="-22.8" font-family="Times,serif" font-size="14.00">samples = 2</text>
<text text-anchor="middle" x="280.5" y="-7.8" font-family="Times,serif" font-size="14.00">value = 44.55</text>
</g>
<!-- 8&#45;&gt;9 -->
<g id="edge9" class="edge">
<title>8&#45;&gt;9</title>
<path fill="none" stroke="black" d="M350.73,-88.95C339.96,-79.53 328.24,-69.27 317.52,-59.89"/>
<polygon fill="black" stroke="black" points="319.74,-57.19 309.91,-53.24 315.13,-62.46 319.74,-57.19"/>
</g>
<!-- 10 -->
<g id="node11" class="node">
<title>10</title>
<polygon fill="#e5823b" stroke="black" points="436.5,-53 344.5,-53 344.5,0 436.5,0 436.5,-53"/>
<text text-anchor="middle" x="390.5" y="-37.8" font-family="Times,serif" font-size="14.00">mse = 0.413</text>
<text text-anchor="middle" x="390.5" y="-22.8" font-family="Times,serif" font-size="14.00">samples = 6</text>
<text text-anchor="middle" x="390.5" y="-7.8" font-family="Times,serif" font-size="14.00">value = 49.55</text>
</g>
<!-- 8&#45;&gt;10 -->
<g id="edge10" class="edge">
<title>8&#45;&gt;10</title>
<path fill="none" stroke="black" d="M389.2,-88.95C389.37,-80.72 389.56,-71.85 389.74,-63.48"/>
<polygon fill="black" stroke="black" points="393.24,-63.31 389.96,-53.24 386.24,-63.16 393.24,-63.31"/>
</g>
<!-- 12 -->
<g id="node13" class="node">
<title>12</title>
<polygon fill="#e99558" stroke="black" points="554,-53 455,-53 455,0 554,0 554,-53"/>
<text text-anchor="middle" x="504.5" y="-37.8" font-family="Times,serif" font-size="14.00">mse = 15.328</text>
<text text-anchor="middle" x="504.5" y="-22.8" font-family="Times,serif" font-size="14.00">samples = 9</text>
<text text-anchor="middle" x="504.5" y="-7.8" font-family="Times,serif" font-size="14.00">value = 43.822</text>
</g>
<!-- 11&#45;&gt;12 -->
<g id="edge12" class="edge">
<title>11&#45;&gt;12</title>
<path fill="none" stroke="black" d="M507.75,-88.95C507.32,-80.72 506.85,-71.85 506.4,-63.48"/>
<polygon fill="black" stroke="black" points="509.89,-63.04 505.86,-53.24 502.9,-63.41 509.89,-63.04"/>
</g>
<!-- 13 -->
<g id="node14" class="node">
<title>13</title>
<polygon fill="#eda977" stroke="black" points="658.5,-53 572.5,-53 572.5,0 658.5,0 658.5,-53"/>
<text text-anchor="middle" x="615.5" y="-37.8" font-family="Times,serif" font-size="14.00">mse = 5.29</text>
<text text-anchor="middle" x="615.5" y="-22.8" font-family="Times,serif" font-size="14.00">samples = 2</text>
<text text-anchor="middle" x="615.5" y="-7.8" font-family="Times,serif" font-size="14.00">value = 37.5</text>
</g>
<!-- 11&#45;&gt;13 -->
<g id="edge13" class="edge">
<title>11&#45;&gt;13</title>
<path fill="none" stroke="black" d="M546.57,-88.95C557.04,-79.62 568.42,-69.47 578.86,-60.16"/>
<polygon fill="black" stroke="black" points="581.5,-62.5 586.63,-53.24 576.84,-57.28 581.5,-62.5"/>
</g>
<!-- 15 -->
<g id="node16" class="node">
<title>15</title>
<polygon fill="#f8dcc8" stroke="black" points="810,-261 711,-261 711,-193 810,-193 810,-261"/>
<text text-anchor="middle" x="760.5" y="-245.8" font-family="Times,serif" font-size="14.00">DIS &lt;= 1.223</text>
<text text-anchor="middle" x="760.5" y="-230.8" font-family="Times,serif" font-size="14.00">mse = 20.022</text>
<text text-anchor="middle" x="760.5" y="-215.8" font-family="Times,serif" font-size="14.00">samples = 152</text>
<text text-anchor="middle" x="760.5" y="-200.8" font-family="Times,serif" font-size="14.00">value = 21.332</text>
</g>
<!-- 14&#45;&gt;15 -->
<g id="edge15" class="edge">
<title>14&#45;&gt;15</title>
<path fill="none" stroke="black" d="M760.5,-296.88C760.5,-288.78 760.5,-279.98 760.5,-271.47"/>
<polygon fill="black" stroke="black" points="764,-271.3 760.5,-261.3 757,-271.3 764,-271.3"/>
</g>
<!-- 20 -->
<g id="node21" class="node">
<title>20</title>
<polygon fill="#fcf3ec" stroke="black" points="1040,-261 933,-261 933,-193 1040,-193 1040,-261"/>
<text text-anchor="middle" x="986.5" y="-245.8" font-family="Times,serif" font-size="14.00">CRIM &lt;= 6.669</text>
<text text-anchor="middle" x="986.5" y="-230.8" font-family="Times,serif" font-size="14.00">mse = 20.129</text>
<text text-anchor="middle" x="986.5" y="-215.8" font-family="Times,serif" font-size="14.00">samples = 92</text>
<text text-anchor="middle" x="986.5" y="-200.8" font-family="Times,serif" font-size="14.00">value = 14.166</text>
</g>
<!-- 14&#45;&gt;20 -->
<g id="edge20" class="edge">
<title>14&#45;&gt;20</title>
<path fill="none" stroke="black" d="M820.17,-303.07C851.95,-288.72 891.04,-271.09 923.33,-256.51"/>
<polygon fill="black" stroke="black" points="925,-259.59 932.68,-252.29 922.13,-253.21 925,-259.59"/>
</g>
<!-- 16 -->
<g id="node17" class="node">
<title>16</title>
<polygon fill="#e58139" stroke="black" points="748.5,-149.5 662.5,-149.5 662.5,-96.5 748.5,-96.5 748.5,-149.5"/>
<text text-anchor="middle" x="705.5" y="-134.3" font-family="Times,serif" font-size="14.00">mse = 0.0</text>
<text text-anchor="middle" x="705.5" y="-119.3" font-family="Times,serif" font-size="14.00">samples = 1</text>
<text text-anchor="middle" x="705.5" y="-104.3" font-family="Times,serif" font-size="14.00">value = 50.0</text>
</g>
<!-- 15&#45;&gt;16 -->
<g id="edge16" class="edge">
<title>15&#45;&gt;16</title>
<path fill="none" stroke="black" d="M742.64,-192.88C736.71,-181.89 730.1,-169.62 724.11,-158.52"/>
<polygon fill="black" stroke="black" points="727.09,-156.66 719.26,-149.52 720.93,-159.98 727.09,-156.66"/>
</g>
<!-- 17 -->
<g id="node18" class="node">
<title>17</title>
<polygon fill="#f8ddc9" stroke="black" points="866,-157 767,-157 767,-89 866,-89 866,-157"/>
<text text-anchor="middle" x="816.5" y="-141.8" font-family="Times,serif" font-size="14.00">RM &lt;= 6.605</text>
<text text-anchor="middle" x="816.5" y="-126.8" font-family="Times,serif" font-size="14.00">mse = 14.675</text>
<text text-anchor="middle" x="816.5" y="-111.8" font-family="Times,serif" font-size="14.00">samples = 151</text>
<text text-anchor="middle" x="816.5" y="-96.8" font-family="Times,serif" font-size="14.00">value = 21.142</text>
</g>
<!-- 15&#45;&gt;17 -->
<g id="edge17" class="edge">
<title>15&#45;&gt;17</title>
<path fill="none" stroke="black" d="M778.68,-192.88C783.38,-184.33 788.49,-175.01 793.4,-166.07"/>
<polygon fill="black" stroke="black" points="796.47,-167.75 798.22,-157.3 790.34,-164.38 796.47,-167.75"/>
</g>
<!-- 18 -->
<g id="node19" class="node">
<title>18</title>
<polygon fill="#f8dfcd" stroke="black" points="776,-53 677,-53 677,0 776,0 776,-53"/>
<text text-anchor="middle" x="726.5" y="-37.8" font-family="Times,serif" font-size="14.00">mse = 8.088</text>
<text text-anchor="middle" x="726.5" y="-22.8" font-family="Times,serif" font-size="14.00">samples = 133</text>
<text text-anchor="middle" x="726.5" y="-7.8" font-family="Times,serif" font-size="14.00">value = 20.321</text>
</g>
<!-- 17&#45;&gt;18 -->
<g id="edge18" class="edge">
<title>17&#45;&gt;18</title>
<path fill="none" stroke="black" d="M785.02,-88.95C776.31,-79.8 766.85,-69.87 758.13,-60.71"/>
<polygon fill="black" stroke="black" points="760.44,-58.06 751.01,-53.24 755.37,-62.89 760.44,-58.06"/>
</g>
<!-- 19 -->
<g id="node20" class="node">
<title>19</title>
<polygon fill="#f4c9ab" stroke="black" points="893,-53 794,-53 794,0 893,0 893,-53"/>
<text text-anchor="middle" x="843.5" y="-37.8" font-family="Times,serif" font-size="14.00">mse = 21.599</text>
<text text-anchor="middle" x="843.5" y="-22.8" font-family="Times,serif" font-size="14.00">samples = 18</text>
<text text-anchor="middle" x="843.5" y="-7.8" font-family="Times,serif" font-size="14.00">value = 27.206</text>
</g>
<!-- 17&#45;&gt;19 -->
<g id="edge19" class="edge">
<title>17&#45;&gt;19</title>
<path fill="none" stroke="black" d="M825.94,-88.95C828.35,-80.53 830.94,-71.45 833.38,-62.92"/>
<polygon fill="black" stroke="black" points="836.76,-63.81 836.15,-53.24 830.03,-61.89 836.76,-63.81"/>
</g>
<!-- 21 -->
<g id="node22" class="node">
<title>21</title>
<polygon fill="#fbebdf" stroke="black" points="1037,-157 936,-157 936,-89 1037,-89 1037,-157"/>
<text text-anchor="middle" x="986.5" y="-141.8" font-family="Times,serif" font-size="14.00">NOX &lt;= 0.531</text>
<text text-anchor="middle" x="986.5" y="-126.8" font-family="Times,serif" font-size="14.00">mse = 13.653</text>
<text text-anchor="middle" x="986.5" y="-111.8" font-family="Times,serif" font-size="14.00">samples = 47</text>
<text text-anchor="middle" x="986.5" y="-96.8" font-family="Times,serif" font-size="14.00">value = 16.632</text>
</g>
<!-- 20&#45;&gt;21 -->
<g id="edge21" class="edge">
<title>20&#45;&gt;21</title>
<path fill="none" stroke="black" d="M986.5,-192.88C986.5,-184.78 986.5,-175.98 986.5,-167.47"/>
<polygon fill="black" stroke="black" points="990,-167.3 986.5,-157.3 983,-167.3 990,-167.3"/>
</g>
<!-- 24 -->
<g id="node25" class="node">
<title>24</title>
<polygon fill="#fefbf8" stroke="black" points="1250.5,-157 1138.5,-157 1138.5,-89 1250.5,-89 1250.5,-157"/>
<text text-anchor="middle" x="1194.5" y="-141.8" font-family="Times,serif" font-size="14.00">LSTAT &lt;= 19.85</text>
<text text-anchor="middle" x="1194.5" y="-126.8" font-family="Times,serif" font-size="14.00">mse = 13.911</text>
<text text-anchor="middle" x="1194.5" y="-111.8" font-family="Times,serif" font-size="14.00">samples = 45</text>
<text text-anchor="middle" x="1194.5" y="-96.8" font-family="Times,serif" font-size="14.00">value = 11.591</text>
</g>
<!-- 20&#45;&gt;24 -->
<g id="edge24" class="edge">
<title>20&#45;&gt;24</title>
<path fill="none" stroke="black" d="M1040.07,-199.73C1067.22,-186.42 1100.42,-170.13 1129.08,-156.08"/>
<polygon fill="black" stroke="black" points="1130.77,-159.15 1138.21,-151.6 1127.69,-152.87 1130.77,-159.15"/>
</g>
<!-- 22 -->
<g id="node23" class="node">
<title>22</title>
<polygon fill="#f8deca" stroke="black" points="1010,-53 911,-53 911,0 1010,0 1010,-53"/>
<text text-anchor="middle" x="960.5" y="-37.8" font-family="Times,serif" font-size="14.00">mse = 14.352</text>
<text text-anchor="middle" x="960.5" y="-22.8" font-family="Times,serif" font-size="14.00">samples = 8</text>
<text text-anchor="middle" x="960.5" y="-7.8" font-family="Times,serif" font-size="14.00">value = 20.825</text>
</g>
<!-- 21&#45;&gt;22 -->
<g id="edge22" class="edge">
<title>21&#45;&gt;22</title>
<path fill="none" stroke="black" d="M977.41,-88.95C975.09,-80.53 972.59,-71.45 970.25,-62.92"/>
<polygon fill="black" stroke="black" points="973.61,-61.95 967.58,-53.24 966.86,-63.81 973.61,-61.95"/>
</g>
<!-- 23 -->
<g id="node24" class="node">
<title>23</title>
<polygon fill="#fbeee4" stroke="black" points="1127,-53 1028,-53 1028,0 1127,0 1127,-53"/>
<text text-anchor="middle" x="1077.5" y="-37.8" font-family="Times,serif" font-size="14.00">mse = 9.163</text>
<text text-anchor="middle" x="1077.5" y="-22.8" font-family="Times,serif" font-size="14.00">samples = 39</text>
<text text-anchor="middle" x="1077.5" y="-7.8" font-family="Times,serif" font-size="14.00">value = 15.772</text>
</g>
<!-- 21&#45;&gt;23 -->
<g id="edge23" class="edge">
<title>21&#45;&gt;23</title>
<path fill="none" stroke="black" d="M1018.33,-88.95C1027.14,-79.8 1036.7,-69.87 1045.52,-60.71"/>
<polygon fill="black" stroke="black" points="1048.3,-62.87 1052.72,-53.24 1043.26,-58.01 1048.3,-62.87"/>
</g>
<!-- 25 -->
<g id="node26" class="node">
<title>25</title>
<polygon fill="#fcf0e8" stroke="black" points="1244,-53 1145,-53 1145,0 1244,0 1244,-53"/>
<text text-anchor="middle" x="1194.5" y="-37.8" font-family="Times,serif" font-size="14.00">mse = 16.439</text>
<text text-anchor="middle" x="1194.5" y="-22.8" font-family="Times,serif" font-size="14.00">samples = 13</text>
<text text-anchor="middle" x="1194.5" y="-7.8" font-family="Times,serif" font-size="14.00">value = 14.846</text>
</g>
<!-- 24&#45;&gt;25 -->
<g id="edge25" class="edge">
<title>24&#45;&gt;25</title>
<path fill="none" stroke="black" d="M1194.5,-88.95C1194.5,-80.72 1194.5,-71.85 1194.5,-63.48"/>
<polygon fill="black" stroke="black" points="1198,-63.24 1194.5,-53.24 1191,-63.24 1198,-63.24"/>
</g>
<!-- 26 -->
<g id="node27" class="node">
<title>26</title>
<polygon fill="#ffffff" stroke="black" points="1361,-53 1262,-53 1262,0 1361,0 1361,-53"/>
<text text-anchor="middle" x="1311.5" y="-37.8" font-family="Times,serif" font-size="14.00">mse = 6.832</text>
<text text-anchor="middle" x="1311.5" y="-22.8" font-family="Times,serif" font-size="14.00">samples = 32</text>
<text text-anchor="middle" x="1311.5" y="-7.8" font-family="Times,serif" font-size="14.00">value = 10.269</text>
</g>
<!-- 24&#45;&gt;26 -->
<g id="edge26" class="edge">
<title>24&#45;&gt;26</title>
<path fill="none" stroke="black" d="M1235.42,-88.95C1247.2,-79.43 1260.03,-69.07 1271.74,-59.62"/>
<polygon fill="black" stroke="black" points="1274.06,-62.24 1279.64,-53.24 1269.66,-56.8 1274.06,-62.24"/>
</g>
</g>
</svg>
