<?xml version="1.0" encoding="UTF-8" standalone="no"?>
<!DOCTYPE svg PUBLIC "-//W3C//DTD SVG 1.1//EN"
 "http://www.w3.org/Graphics/SVG/1.1/DTD/svg11.dtd">
<!-- Generated by graphviz version 2.46.1 (20210213.1702)
 -->
<!-- Title: Tree Pages: 1 -->
<svg width="1351pt" height="477pt"
 viewBox="0.00 0.00 1350.50 477.00" xmlns="http://www.w3.org/2000/svg" xmlns:xlink="http://www.w3.org/1999/xlink">
<g id="graph0" class="graph" transform="scale(1 1) rotate(0) translate(4 473)">
<title>Tree</title>
<polygon fill="white" stroke="transparent" points="-4,4 -4,-473 1346.5,-473 1346.5,4 -4,4"/>
<!-- 0 -->
<g id="node1" class="node">
<title>0</title>
<polygon fill="#f7d8c2" stroke="black" points="681,-469 582,-469 582,-401 681,-401 681,-469"/>
<text text-anchor="middle" x="631.5" y="-453.8" font-family="Times,serif" font-size="14.00">RM &lt;= 6.838</text>
<text text-anchor="middle" x="631.5" y="-438.8" font-family="Times,serif" font-size="14.00">mse = 82.673</text>
<text text-anchor="middle" x="631.5" y="-423.8" font-family="Times,serif" font-size="14.00">samples = 354</text>
<text text-anchor="middle" x="631.5" y="-408.8" font-family="Times,serif" font-size="14.00">value = 22.534</text>
</g>
<!-- 1 -->
<g id="node2" class="node">
<title>1</title>
<polygon fill="#f9e1d1" stroke="black" points="519,-365 400,-365 400,-297 519,-297 519,-365"/>
<text text-anchor="middle" x="459.5" y="-349.8" font-family="Times,serif" font-size="14.00">LSTAT &lt;= 14.445</text>
<text text-anchor="middle" x="459.5" y="-334.8" font-family="Times,serif" font-size="14.00">mse = 39.597</text>
<text text-anchor="middle" x="459.5" y="-319.8" font-family="Times,serif" font-size="14.00">samples = 292</text>
<text text-anchor="middle" x="459.5" y="-304.8" font-family="Times,serif" font-size="14.00">value = 19.699</text>
</g>
<!-- 0&#45;&gt;1 -->
<g id="edge1" class="edge">
<title>0&#45;&gt;1</title>
<path fill="none" stroke="black" d="M581.75,-404.5C563.68,-393.78 543,-381.52 523.85,-370.16"/>
<polygon fill="black" stroke="black" points="525.56,-367.11 515.18,-365.02 521.99,-373.13 525.56,-367.11"/>
<text text-anchor="middle" x="521.36" y="-385.54" font-family="Times,serif" font-size="14.00">True</text>
</g>
<!-- 14 -->
<g id="node15" class="node">
<title>14</title>
<polygon fill="#eeae80" stroke="black" points="873,-365 774,-365 774,-297 873,-297 873,-365"/>
<text text-anchor="middle" x="823.5" y="-349.8" font-family="Times,serif" font-size="14.00">RM &lt;= 7.437</text>
<text text-anchor="middle" x="823.5" y="-334.8" font-family="Times,serif" font-size="14.00">mse = 69.39</text>
<text text-anchor="middle" x="823.5" y="-319.8" font-family="Times,serif" font-size="14.00">samples = 62</text>
<text text-anchor="middle" x="823.5" y="-304.8" font-family="Times,serif" font-size="14.00">value = 35.887</text>
</g>
<!-- 0&#45;&gt;14 -->
<g id="edge14" class="edge">
<title>0&#45;&gt;14</title>
<path fill="none" stroke="black" d="M681.44,-407.47C707,-393.89 738.26,-377.28 764.95,-363.11"/>
<polygon fill="black" stroke="black" points="766.62,-366.18 773.81,-358.4 763.33,-360 766.62,-366.18"/>
<text text-anchor="middle" x="766.49" y="-378.61" font-family="Times,serif" font-size="14.00">False</text>
</g>
<!-- 2 -->
<g id="node3" class="node">
<title>2</title>
<polygon fill="#f7d6bf" stroke="black" points="216,-261 117,-261 117,-193 216,-193 216,-261"/>
<text text-anchor="middle" x="166.5" y="-245.8" font-family="Times,serif" font-size="14.00">DIS &lt;= 1.373</text>
<text text-anchor="middle" x="166.5" y="-230.8" font-family="Times,serif" font-size="14.00">mse = 26.569</text>
<text text-anchor="middle" x="166.5" y="-215.8" font-family="Times,serif" font-size="14.00">samples = 170</text>
<text text-anchor="middle" x="166.5" y="-200.8" font-family="Times,serif" font-size="14.00">value = 23.174</text>
</g>
<!-- 1&#45;&gt;2 -->
<g id="edge2" class="edge">
<title>1&#45;&gt;2</title>
<path fill="none" stroke="black" d="M399.85,-309.24C349.08,-291.56 276.53,-266.3 225.84,-248.66"/>
<polygon fill="black" stroke="black" points="226.92,-245.33 216.32,-245.35 224.62,-251.94 226.92,-245.33"/>
</g>
<!-- 7 -->
<g id="node8" class="node">
<title>7</title>
<polygon fill="#fcf1e9" stroke="black" points="513,-261 406,-261 406,-193 513,-193 513,-261"/>
<text text-anchor="middle" x="459.5" y="-245.8" font-family="Times,serif" font-size="14.00">CRIM &lt;= 6.992</text>
<text text-anchor="middle" x="459.5" y="-230.8" font-family="Times,serif" font-size="14.00">mse = 17.474</text>
<text text-anchor="middle" x="459.5" y="-215.8" font-family="Times,serif" font-size="14.00">samples = 122</text>
<text text-anchor="middle" x="459.5" y="-200.8" font-family="Times,serif" font-size="14.00">value = 14.857</text>
</g>
<!-- 1&#45;&gt;7 -->
<g id="edge7" class="edge">
<title>1&#45;&gt;7</title>
<path fill="none" stroke="black" d="M459.5,-296.88C459.5,-288.78 459.5,-279.98 459.5,-271.47"/>
<polygon fill="black" stroke="black" points="463,-271.3 459.5,-261.3 456,-271.3 463,-271.3"/>
</g>
<!-- 3 -->
<g id="node4" class="node">
<title>3</title>
<polygon fill="#e58139" stroke="black" points="98.5,-149.5 12.5,-149.5 12.5,-96.5 98.5,-96.5 98.5,-149.5"/>
<text text-anchor="middle" x="55.5" y="-134.3" font-family="Times,serif" font-size="14.00">mse = 0.0</text>
<text text-anchor="middle" x="55.5" y="-119.3" font-family="Times,serif" font-size="14.00">samples = 3</text>
<text text-anchor="middle" x="55.5" y="-104.3" font-family="Times,serif" font-size="14.00">value = 50.0</text>
</g>
<!-- 2&#45;&gt;3 -->
<g id="edge3" class="edge">
<title>2&#45;&gt;3</title>
<path fill="none" stroke="black" d="M130.46,-192.88C117.78,-181.23 103.54,-168.14 90.9,-156.53"/>
<polygon fill="black" stroke="black" points="93,-153.71 83.27,-149.52 88.27,-158.86 93,-153.71"/>
</g>
<!-- 4 -->
<g id="node5" class="node">
<title>4</title>
<polygon fill="#f7d8c2" stroke="black" points="216,-157 117,-157 117,-89 216,-89 216,-157"/>
<text text-anchor="middle" x="166.5" y="-141.8" font-family="Times,serif" font-size="14.00">RM &lt;= 6.543</text>
<text text-anchor="middle" x="166.5" y="-126.8" font-family="Times,serif" font-size="14.00">mse = 13.887</text>
<text text-anchor="middle" x="166.5" y="-111.8" font-family="Times,serif" font-size="14.00">samples = 167</text>
<text text-anchor="middle" x="166.5" y="-96.8" font-family="Times,serif" font-size="14.00">value = 22.692</text>
</g>
<!-- 2&#45;&gt;4 -->
<g id="edge4" class="edge">
<title>2&#45;&gt;4</title>
<path fill="none" stroke="black" d="M166.5,-192.88C166.5,-184.78 166.5,-175.98 166.5,-167.47"/>
<polygon fill="black" stroke="black" points="170,-167.3 166.5,-157.3 163,-167.3 170,-167.3"/>
</g>
<!-- 5 -->
<g id="node6" class="node">
<title>5</title>
<polygon fill="#f8dcc8" stroke="black" points="99,-53 0,-53 0,0 99,0 99,-53"/>
<text text-anchor="middle" x="49.5" y="-37.8" font-family="Times,serif" font-size="14.00">mse = 6.442</text>
<text text-anchor="middle" x="49.5" y="-22.8" font-family="Times,serif" font-size="14.00">samples = 133</text>
<text text-anchor="middle" x="49.5" y="-7.8" font-family="Times,serif" font-size="14.00">value = 21.445</text>
</g>
<!-- 4&#45;&gt;5 -->
<g id="edge5" class="edge">
<title>4&#45;&gt;5</title>
<path fill="none" stroke="black" d="M125.58,-88.95C113.8,-79.43 100.97,-69.07 89.26,-59.62"/>
<polygon fill="black" stroke="black" points="91.34,-56.8 81.36,-53.24 86.94,-62.24 91.34,-56.8"/>
</g>
<!-- 6 -->
<g id="node7" class="node">
<title>6</title>
<polygon fill="#f4c8a9" stroke="black" points="216,-53 117,-53 117,0 216,0 216,-53"/>
<text text-anchor="middle" x="166.5" y="-37.8" font-family="Times,serif" font-size="14.00">mse = 13.127</text>
<text text-anchor="middle" x="166.5" y="-22.8" font-family="Times,serif" font-size="14.00">samples = 34</text>
<text text-anchor="middle" x="166.5" y="-7.8" font-family="Times,serif" font-size="14.00">value = 27.571</text>
</g>
<!-- 4&#45;&gt;6 -->
<g id="edge6" class="edge">
<title>4&#45;&gt;6</title>
<path fill="none" stroke="black" d="M166.5,-88.95C166.5,-80.72 166.5,-71.85 166.5,-63.48"/>
<polygon fill="black" stroke="black" points="170,-63.24 166.5,-53.24 163,-63.24 170,-63.24"/>
</g>
<!-- 8 -->
<g id="node9" class="node">
<title>8</title>
<polygon fill="#fbeadd" stroke="black" points="452,-157 345,-157 345,-89 452,-89 452,-157"/>
<text text-anchor="middle" x="398.5" y="-141.8" font-family="Times,serif" font-size="14.00">CRIM &lt;= 0.181</text>
<text text-anchor="middle" x="398.5" y="-126.8" font-family="Times,serif" font-size="14.00">mse = 11.631</text>
<text text-anchor="middle" x="398.5" y="-111.8" font-family="Times,serif" font-size="14.00">samples = 69</text>
<text text-anchor="middle" x="398.5" y="-96.8" font-family="Times,serif" font-size="14.00">value = 17.132</text>
</g>
<!-- 7&#45;&gt;8 -->
<g id="edge8" class="edge">
<title>7&#45;&gt;8</title>
<path fill="none" stroke="black" d="M439.7,-192.88C434.58,-184.33 429.01,-175.01 423.66,-166.07"/>
<polygon fill="black" stroke="black" points="426.55,-164.09 418.41,-157.3 420.54,-167.68 426.55,-164.09"/>
</g>
<!-- 11 -->
<g id="node12" class="node">
<title>11</title>
<polygon fill="#fefaf8" stroke="black" points="571,-157 470,-157 470,-89 571,-89 571,-157"/>
<text text-anchor="middle" x="520.5" y="-141.8" font-family="Times,serif" font-size="14.00">NOX &lt;= 0.669</text>
<text text-anchor="middle" x="520.5" y="-126.8" font-family="Times,serif" font-size="14.00">mse = 9.566</text>
<text text-anchor="middle" x="520.5" y="-111.8" font-family="Times,serif" font-size="14.00">samples = 53</text>
<text text-anchor="middle" x="520.5" y="-96.8" font-family="Times,serif" font-size="14.00">value = 11.894</text>
</g>
<!-- 7&#45;&gt;11 -->
<g id="edge11" class="edge">
<title>7&#45;&gt;11</title>
<path fill="none" stroke="black" d="M479.3,-192.88C484.42,-184.33 489.99,-175.01 495.34,-166.07"/>
<polygon fill="black" stroke="black" points="498.46,-167.68 500.59,-157.3 492.45,-164.09 498.46,-167.68"/>
</g>
<!-- 9 -->
<g id="node10" class="node">
<title>9</title>
<polygon fill="#f9e0cf" stroke="black" points="333,-53 234,-53 234,0 333,0 333,-53"/>
<text text-anchor="middle" x="283.5" y="-37.8" font-family="Times,serif" font-size="14.00">mse = 10.274</text>
<text text-anchor="middle" x="283.5" y="-22.8" font-family="Times,serif" font-size="14.00">samples = 18</text>
<text text-anchor="middle" x="283.5" y="-7.8" font-family="Times,serif" font-size="14.00">value = 20.044</text>
</g>
<!-- 8&#45;&gt;9 -->
<g id="edge9" class="edge">
<title>8&#45;&gt;9</title>
<path fill="none" stroke="black" d="M358.28,-88.95C346.7,-79.43 334.09,-69.07 322.58,-59.62"/>
<polygon fill="black" stroke="black" points="324.77,-56.88 314.82,-53.24 320.32,-62.29 324.77,-56.88"/>
</g>
<!-- 10 -->
<g id="node11" class="node">
<title>10</title>
<polygon fill="#fbede2" stroke="black" points="450,-53 351,-53 351,0 450,0 450,-53"/>
<text text-anchor="middle" x="400.5" y="-37.8" font-family="Times,serif" font-size="14.00">mse = 8.059</text>
<text text-anchor="middle" x="400.5" y="-22.8" font-family="Times,serif" font-size="14.00">samples = 51</text>
<text text-anchor="middle" x="400.5" y="-7.8" font-family="Times,serif" font-size="14.00">value = 16.104</text>
</g>
<!-- 8&#45;&gt;10 -->
<g id="edge10" class="edge">
<title>8&#45;&gt;10</title>
<path fill="none" stroke="black" d="M399.2,-88.95C399.37,-80.72 399.56,-71.85 399.74,-63.48"/>
<polygon fill="black" stroke="black" points="403.24,-63.31 399.96,-53.24 396.24,-63.16 403.24,-63.31"/>
</g>
<!-- 12 -->
<g id="node13" class="node">
<title>12</title>
<polygon fill="#fcf1e9" stroke="black" points="567,-53 468,-53 468,0 567,0 567,-53"/>
<text text-anchor="middle" x="517.5" y="-37.8" font-family="Times,serif" font-size="14.00">mse = 4.593</text>
<text text-anchor="middle" x="517.5" y="-22.8" font-family="Times,serif" font-size="14.00">samples = 13</text>
<text text-anchor="middle" x="517.5" y="-7.8" font-family="Times,serif" font-size="14.00">value = 14.777</text>
</g>
<!-- 11&#45;&gt;12 -->
<g id="edge12" class="edge">
<title>11&#45;&gt;12</title>
<path fill="none" stroke="black" d="M519.45,-88.95C519.19,-80.72 518.91,-71.85 518.64,-63.48"/>
<polygon fill="black" stroke="black" points="522.13,-63.12 518.32,-53.24 515.14,-63.34 522.13,-63.12"/>
</g>
<!-- 13 -->
<g id="node14" class="node">
<title>13</title>
<polygon fill="#fffdfc" stroke="black" points="684,-53 585,-53 585,0 684,0 684,-53"/>
<text text-anchor="middle" x="634.5" y="-37.8" font-family="Times,serif" font-size="14.00">mse = 7.604</text>
<text text-anchor="middle" x="634.5" y="-22.8" font-family="Times,serif" font-size="14.00">samples = 40</text>
<text text-anchor="middle" x="634.5" y="-7.8" font-family="Times,serif" font-size="14.00">value = 10.958</text>
</g>
<!-- 11&#45;&gt;13 -->
<g id="edge13" class="edge">
<title>11&#45;&gt;13</title>
<path fill="none" stroke="black" d="M560.37,-88.95C571.74,-79.53 584.11,-69.27 595.43,-59.89"/>
<polygon fill="black" stroke="black" points="597.99,-62.31 603.45,-53.24 593.52,-56.92 597.99,-62.31"/>
</g>
<!-- 15 -->
<g id="node16" class="node">
<title>15</title>
<polygon fill="#f1bb94" stroke="black" points="874,-261 773,-261 773,-193 874,-193 874,-261"/>
<text text-anchor="middle" x="823.5" y="-245.8" font-family="Times,serif" font-size="14.00">NOX &lt;= 0.659</text>
<text text-anchor="middle" x="823.5" y="-230.8" font-family="Times,serif" font-size="14.00">mse = 34.077</text>
<text text-anchor="middle" x="823.5" y="-215.8" font-family="Times,serif" font-size="14.00">samples = 43</text>
<text text-anchor="middle" x="823.5" y="-200.8" font-family="Times,serif" font-size="14.00">value = 31.714</text>
</g>
<!-- 14&#45;&gt;15 -->
<g id="edge15" class="edge">
<title>14&#45;&gt;15</title>
<path fill="none" stroke="black" d="M823.5,-296.88C823.5,-288.78 823.5,-279.98 823.5,-271.47"/>
<polygon fill="black" stroke="black" points="827,-271.3 823.5,-261.3 820,-271.3 827,-271.3"/>
</g>
<!-- 20 -->
<g id="node21" class="node">
<title>20</title>
<polygon fill="#e89050" stroke="black" points="1087,-261 988,-261 988,-193 1087,-193 1087,-261"/>
<text text-anchor="middle" x="1037.5" y="-245.8" font-family="Times,serif" font-size="14.00">DIS &lt;= 3.055</text>
<text text-anchor="middle" x="1037.5" y="-230.8" font-family="Times,serif" font-size="14.00">mse = 20.697</text>
<text text-anchor="middle" x="1037.5" y="-215.8" font-family="Times,serif" font-size="14.00">samples = 19</text>
<text text-anchor="middle" x="1037.5" y="-200.8" font-family="Times,serif" font-size="14.00">value = 45.332</text>
</g>
<!-- 14&#45;&gt;20 -->
<g id="edge20" class="edge">
<title>14&#45;&gt;20</title>
<path fill="none" stroke="black" d="M873.13,-306.34C904.62,-291.33 945.52,-271.84 978.64,-256.05"/>
<polygon fill="black" stroke="black" points="980.24,-259.17 987.77,-251.71 977.23,-252.85 980.24,-259.17"/>
</g>
<!-- 16 -->
<g id="node17" class="node">
<title>16</title>
<polygon fill="#f1ba92" stroke="black" points="818,-157 719,-157 719,-89 818,-89 818,-157"/>
<text text-anchor="middle" x="768.5" y="-141.8" font-family="Times,serif" font-size="14.00">DIS &lt;= 1.334</text>
<text text-anchor="middle" x="768.5" y="-126.8" font-family="Times,serif" font-size="14.00">mse = 23.815</text>
<text text-anchor="middle" x="768.5" y="-111.8" font-family="Times,serif" font-size="14.00">samples = 42</text>
<text text-anchor="middle" x="768.5" y="-96.8" font-family="Times,serif" font-size="14.00">value = 32.221</text>
</g>
<!-- 15&#45;&gt;16 -->
<g id="edge16" class="edge">
<title>15&#45;&gt;16</title>
<path fill="none" stroke="black" d="M805.64,-192.88C801.08,-184.42 796.11,-175.21 791.34,-166.35"/>
<polygon fill="black" stroke="black" points="794.28,-164.44 786.46,-157.3 788.12,-167.76 794.28,-164.44"/>
</g>
<!-- 19 -->
<g id="node20" class="node">
<title>19</title>
<polygon fill="#ffffff" stroke="black" points="922.5,-149.5 836.5,-149.5 836.5,-96.5 922.5,-96.5 922.5,-149.5"/>
<text text-anchor="middle" x="879.5" y="-134.3" font-family="Times,serif" font-size="14.00">mse = 0.0</text>
<text text-anchor="middle" x="879.5" y="-119.3" font-family="Times,serif" font-size="14.00">samples = 1</text>
<text text-anchor="middle" x="879.5" y="-104.3" font-family="Times,serif" font-size="14.00">value = 10.4</text>
</g>
<!-- 15&#45;&gt;19 -->
<g id="edge19" class="edge">
<title>15&#45;&gt;19</title>
<path fill="none" stroke="black" d="M841.68,-192.88C847.72,-181.89 854.46,-169.62 860.55,-158.52"/>
<polygon fill="black" stroke="black" points="863.74,-159.97 865.49,-149.52 857.61,-156.6 863.74,-159.97"/>
</g>
<!-- 17 -->
<g id="node18" class="node">
<title>17</title>
<polygon fill="#e58139" stroke="black" points="788.5,-53 702.5,-53 702.5,0 788.5,0 788.5,-53"/>
<text text-anchor="middle" x="745.5" y="-37.8" font-family="Times,serif" font-size="14.00">mse = 0.0</text>
<text text-anchor="middle" x="745.5" y="-22.8" font-family="Times,serif" font-size="14.00">samples = 1</text>
<text text-anchor="middle" x="745.5" y="-7.8" font-family="Times,serif" font-size="14.00">value = 50.0</text>
</g>
<!-- 16&#45;&gt;17 -->
<g id="edge17" class="edge">
<title>16&#45;&gt;17</title>
<path fill="none" stroke="black" d="M760.46,-88.95C758.43,-80.62 756.25,-71.65 754.19,-63.2"/>
<polygon fill="black" stroke="black" points="757.53,-62.13 751.76,-53.24 750.73,-63.78 757.53,-62.13"/>
</g>
<!-- 18 -->
<g id="node19" class="node">
<title>18</title>
<polygon fill="#f1bb94" stroke="black" points="906,-53 807,-53 807,0 906,0 906,-53"/>
<text text-anchor="middle" x="856.5" y="-37.8" font-family="Times,serif" font-size="14.00">mse = 16.498</text>
<text text-anchor="middle" x="856.5" y="-22.8" font-family="Times,serif" font-size="14.00">samples = 41</text>
<text text-anchor="middle" x="856.5" y="-7.8" font-family="Times,serif" font-size="14.00">value = 31.788</text>
</g>
<!-- 16&#45;&gt;18 -->
<g id="edge18" class="edge">
<title>16&#45;&gt;18</title>
<path fill="none" stroke="black" d="M799.28,-88.95C807.8,-79.8 817.04,-69.87 825.57,-60.71"/>
<polygon fill="black" stroke="black" points="828.28,-62.94 832.53,-53.24 823.16,-58.17 828.28,-62.94"/>
</g>
<!-- 21 -->
<g id="node22" class="node">
<title>21</title>
<polygon fill="#e5823a" stroke="black" points="1088,-157 987,-157 987,-89 1088,-89 1088,-157"/>
<text text-anchor="middle" x="1037.5" y="-141.8" font-family="Times,serif" font-size="14.00">NOX &lt;= 0.626</text>
<text text-anchor="middle" x="1037.5" y="-126.8" font-family="Times,serif" font-size="14.00">mse = 0.2</text>
<text text-anchor="middle" x="1037.5" y="-111.8" font-family="Times,serif" font-size="14.00">samples = 6</text>
<text text-anchor="middle" x="1037.5" y="-96.8" font-family="Times,serif" font-size="14.00">value = 49.8</text>
</g>
<!-- 20&#45;&gt;21 -->
<g id="edge21" class="edge">
<title>20&#45;&gt;21</title>
<path fill="none" stroke="black" d="M1037.5,-192.88C1037.5,-184.78 1037.5,-175.98 1037.5,-167.47"/>
<polygon fill="black" stroke="black" points="1041,-167.3 1037.5,-157.3 1034,-167.3 1041,-167.3"/>
</g>
<!-- 24 -->
<g id="node25" class="node">
<title>24</title>
<polygon fill="#e9965b" stroke="black" points="1235,-157 1130,-157 1130,-89 1235,-89 1235,-157"/>
<text text-anchor="middle" x="1182.5" y="-141.8" font-family="Times,serif" font-size="14.00">LSTAT &lt;= 4.08</text>
<text text-anchor="middle" x="1182.5" y="-126.8" font-family="Times,serif" font-size="14.00">mse = 16.688</text>
<text text-anchor="middle" x="1182.5" y="-111.8" font-family="Times,serif" font-size="14.00">samples = 13</text>
<text text-anchor="middle" x="1182.5" y="-96.8" font-family="Times,serif" font-size="14.00">value = 43.269</text>
</g>
<!-- 20&#45;&gt;24 -->
<g id="edge24" class="edge">
<title>20&#45;&gt;24</title>
<path fill="none" stroke="black" d="M1084.58,-192.88C1098,-183.44 1112.75,-173.06 1126.64,-163.29"/>
<polygon fill="black" stroke="black" points="1129,-165.92 1135.16,-157.3 1124.97,-160.19 1129,-165.92"/>
</g>
<!-- 22 -->
<g id="node23" class="node">
<title>22</title>
<polygon fill="#e58139" stroke="black" points="1010.5,-53 924.5,-53 924.5,0 1010.5,0 1010.5,-53"/>
<text text-anchor="middle" x="967.5" y="-37.8" font-family="Times,serif" font-size="14.00">mse = 0.0</text>
<text text-anchor="middle" x="967.5" y="-22.8" font-family="Times,serif" font-size="14.00">samples = 5</text>
<text text-anchor="middle" x="967.5" y="-7.8" font-family="Times,serif" font-size="14.00">value = 50.0</text>
</g>
<!-- 21&#45;&gt;22 -->
<g id="edge22" class="edge">
<title>21&#45;&gt;22</title>
<path fill="none" stroke="black" d="M1013.02,-88.95C1006.44,-80.07 999.33,-70.46 992.71,-61.54"/>
<polygon fill="black" stroke="black" points="995.33,-59.19 986.56,-53.24 989.7,-63.36 995.33,-59.19"/>
</g>
<!-- 23 -->
<g id="node24" class="node">
<title>23</title>
<polygon fill="#e6853f" stroke="black" points="1114.5,-53 1028.5,-53 1028.5,0 1114.5,0 1114.5,-53"/>
<text text-anchor="middle" x="1071.5" y="-37.8" font-family="Times,serif" font-size="14.00">mse = &#45;0.0</text>
<text text-anchor="middle" x="1071.5" y="-22.8" font-family="Times,serif" font-size="14.00">samples = 1</text>
<text text-anchor="middle" x="1071.5" y="-7.8" font-family="Times,serif" font-size="14.00">value = 48.8</text>
</g>
<!-- 21&#45;&gt;23 -->
<g id="edge23" class="edge">
<title>21&#45;&gt;23</title>
<path fill="none" stroke="black" d="M1049.39,-88.95C1052.45,-80.44 1055.76,-71.26 1058.85,-62.65"/>
<polygon fill="black" stroke="black" points="1062.15,-63.83 1062.24,-53.24 1055.56,-61.46 1062.15,-63.83"/>
</g>
<!-- 25 -->
<g id="node26" class="node">
<title>25</title>
<polygon fill="#e99355" stroke="black" points="1232,-53 1133,-53 1133,0 1232,0 1232,-53"/>
<text text-anchor="middle" x="1182.5" y="-37.8" font-family="Times,serif" font-size="14.00">mse = 10.585</text>
<text text-anchor="middle" x="1182.5" y="-22.8" font-family="Times,serif" font-size="14.00">samples = 11</text>
<text text-anchor="middle" x="1182.5" y="-7.8" font-family="Times,serif" font-size="14.00">value = 44.418</text>
</g>
<!-- 24&#45;&gt;25 -->
<g id="edge25" class="edge">
<title>24&#45;&gt;25</title>
<path fill="none" stroke="black" d="M1182.5,-88.95C1182.5,-80.72 1182.5,-71.85 1182.5,-63.48"/>
<polygon fill="black" stroke="black" points="1186,-63.24 1182.5,-53.24 1179,-63.24 1186,-63.24"/>
</g>
<!-- 26 -->
<g id="node27" class="node">
<title>26</title>
<polygon fill="#eeab7a" stroke="black" points="1342.5,-53 1250.5,-53 1250.5,0 1342.5,0 1342.5,-53"/>
<text text-anchor="middle" x="1296.5" y="-37.8" font-family="Times,serif" font-size="14.00">mse = 3.063</text>
<text text-anchor="middle" x="1296.5" y="-22.8" font-family="Times,serif" font-size="14.00">samples = 2</text>
<text text-anchor="middle" x="1296.5" y="-7.8" font-family="Times,serif" font-size="14.00">value = 36.95</text>
</g>
<!-- 24&#45;&gt;26 -->
<g id="edge26" class="edge">
<title>24&#45;&gt;26</title>
<path fill="none" stroke="black" d="M1222.37,-88.95C1233.74,-79.53 1246.11,-69.27 1257.43,-59.89"/>
<polygon fill="black" stroke="black" points="1259.99,-62.31 1265.45,-53.24 1255.52,-56.92 1259.99,-62.31"/>
</g>
</g>
</svg>
