<?xml version="1.0" encoding="UTF-8" standalone="no"?>
<!DOCTYPE svg PUBLIC "-//W3C//DTD SVG 1.1//EN"
 "http://www.w3.org/Graphics/SVG/1.1/DTD/svg11.dtd">
<!-- Generated by graphviz version 2.46.1 (20210213.1702)
 -->
<!-- Title: Tree Pages: 1 -->
<svg width="1585pt" height="477pt"
 viewBox="0.00 0.00 1584.50 477.00" xmlns="http://www.w3.org/2000/svg" xmlns:xlink="http://www.w3.org/1999/xlink">
<g id="graph0" class="graph" transform="scale(1 1) rotate(0) translate(4 473)">
<title>Tree</title>
<polygon fill="white" stroke="transparent" points="-4,4 -4,-473 1580.5,-473 1580.5,4 -4,4"/>
<!-- 0 -->
<g id="node1" class="node">
<title>0</title>
<polygon fill="#f7d9c4" stroke="black" points="723,-469 611,-469 611,-401 723,-401 723,-469"/>
<text text-anchor="middle" x="667" y="-453.8" font-family="Times,serif" font-size="14.00">LSTAT &lt;= 9.605</text>
<text text-anchor="middle" x="667" y="-438.8" font-family="Times,serif" font-size="14.00">mse = 88.074</text>
<text text-anchor="middle" x="667" y="-423.8" font-family="Times,serif" font-size="14.00">samples = 354</text>
<text text-anchor="middle" x="667" y="-408.8" font-family="Times,serif" font-size="14.00">value = 22.624</text>
</g>
<!-- 1 -->
<g id="node2" class="node">
<title>1</title>
<polygon fill="#f2c09b" stroke="black" points="494.5,-365 397.5,-365 397.5,-297 494.5,-297 494.5,-365"/>
<text text-anchor="middle" x="446" y="-349.8" font-family="Times,serif" font-size="14.00">RM &lt;= 6.941</text>
<text text-anchor="middle" x="446" y="-334.8" font-family="Times,serif" font-size="14.00">mse = 84.533</text>
<text text-anchor="middle" x="446" y="-319.8" font-family="Times,serif" font-size="14.00">samples = 138</text>
<text text-anchor="middle" x="446" y="-304.8" font-family="Times,serif" font-size="14.00">value = 30.59</text>
</g>
<!-- 0&#45;&gt;1 -->
<g id="edge1" class="edge">
<title>0&#45;&gt;1</title>
<path fill="none" stroke="black" d="M610.95,-408.13C578.22,-393.02 536.99,-374 503.94,-358.74"/>
<polygon fill="black" stroke="black" points="505.4,-355.56 494.85,-354.55 502.47,-361.92 505.4,-355.56"/>
<text text-anchor="middle" x="503.5" y="-374.31" font-family="Times,serif" font-size="14.00">True</text>
</g>
<!-- 14 -->
<g id="node15" class="node">
<title>14</title>
<polygon fill="#fbeadd" stroke="black" points="956,-365 844,-365 844,-297 956,-297 956,-365"/>
<text text-anchor="middle" x="900" y="-349.8" font-family="Times,serif" font-size="14.00">LSTAT &lt;= 15.62</text>
<text text-anchor="middle" x="900" y="-334.8" font-family="Times,serif" font-size="14.00">mse = 23.89</text>
<text text-anchor="middle" x="900" y="-319.8" font-family="Times,serif" font-size="14.00">samples = 216</text>
<text text-anchor="middle" x="900" y="-304.8" font-family="Times,serif" font-size="14.00">value = 17.534</text>
</g>
<!-- 0&#45;&gt;14 -->
<g id="edge14" class="edge">
<title>0&#45;&gt;14</title>
<path fill="none" stroke="black" d="M723.11,-409.44C756.73,-394.72 799.63,-375.94 834.76,-360.56"/>
<polygon fill="black" stroke="black" points="836.22,-363.74 843.98,-356.52 833.41,-357.33 836.22,-363.74"/>
<text text-anchor="middle" x="834.87" y="-376.11" font-family="Times,serif" font-size="14.00">False</text>
</g>
<!-- 2 -->
<g id="node3" class="node">
<title>2</title>
<polygon fill="#f5cfb3" stroke="black" points="209.5,-261 110.5,-261 110.5,-193 209.5,-193 209.5,-261"/>
<text text-anchor="middle" x="160" y="-245.8" font-family="Times,serif" font-size="14.00">DIS &lt;= 1.561</text>
<text text-anchor="middle" x="160" y="-230.8" font-family="Times,serif" font-size="14.00">mse = 44.031</text>
<text text-anchor="middle" x="160" y="-215.8" font-family="Times,serif" font-size="14.00">samples = 87</text>
<text text-anchor="middle" x="160" y="-200.8" font-family="Times,serif" font-size="14.00">value = 25.876</text>
</g>
<!-- 1&#45;&gt;2 -->
<g id="edge2" class="edge">
<title>1&#45;&gt;2</title>
<path fill="none" stroke="black" d="M397.48,-312.7C348.27,-295.15 272.04,-267.96 219.28,-249.14"/>
<polygon fill="black" stroke="black" points="220.31,-245.79 209.72,-245.73 217.96,-252.39 220.31,-245.79"/>
</g>
<!-- 7 -->
<g id="node8" class="node">
<title>7</title>
<polygon fill="#eda673" stroke="black" points="495.5,-261 396.5,-261 396.5,-193 495.5,-193 495.5,-261"/>
<text text-anchor="middle" x="446" y="-245.8" font-family="Times,serif" font-size="14.00">RM &lt;= 7.437</text>
<text text-anchor="middle" x="446" y="-230.8" font-family="Times,serif" font-size="14.00">mse = 51.052</text>
<text text-anchor="middle" x="446" y="-215.8" font-family="Times,serif" font-size="14.00">samples = 51</text>
<text text-anchor="middle" x="446" y="-200.8" font-family="Times,serif" font-size="14.00">value = 38.631</text>
</g>
<!-- 1&#45;&gt;7 -->
<g id="edge7" class="edge">
<title>1&#45;&gt;7</title>
<path fill="none" stroke="black" d="M446,-296.88C446,-288.78 446,-279.98 446,-271.47"/>
<polygon fill="black" stroke="black" points="449.5,-271.3 446,-261.3 442.5,-271.3 449.5,-271.3"/>
</g>
<!-- 3 -->
<g id="node4" class="node">
<title>3</title>
<polygon fill="#e58139" stroke="black" points="92,-149.5 6,-149.5 6,-96.5 92,-96.5 92,-149.5"/>
<text text-anchor="middle" x="49" y="-134.3" font-family="Times,serif" font-size="14.00">mse = 0.0</text>
<text text-anchor="middle" x="49" y="-119.3" font-family="Times,serif" font-size="14.00">samples = 4</text>
<text text-anchor="middle" x="49" y="-104.3" font-family="Times,serif" font-size="14.00">value = 50.0</text>
</g>
<!-- 2&#45;&gt;3 -->
<g id="edge3" class="edge">
<title>2&#45;&gt;3</title>
<path fill="none" stroke="black" d="M123.96,-192.88C111.28,-181.23 97.04,-168.14 84.4,-156.53"/>
<polygon fill="black" stroke="black" points="86.5,-153.71 76.77,-149.52 81.77,-158.86 86.5,-153.71"/>
</g>
<!-- 4 -->
<g id="node5" class="node">
<title>4</title>
<polygon fill="#f6d3b9" stroke="black" points="209.5,-157 110.5,-157 110.5,-89 209.5,-89 209.5,-157"/>
<text text-anchor="middle" x="160" y="-141.8" font-family="Times,serif" font-size="14.00">RM &lt;= 6.592</text>
<text text-anchor="middle" x="160" y="-126.8" font-family="Times,serif" font-size="14.00">mse = 16.754</text>
<text text-anchor="middle" x="160" y="-111.8" font-family="Times,serif" font-size="14.00">samples = 83</text>
<text text-anchor="middle" x="160" y="-96.8" font-family="Times,serif" font-size="14.00">value = 24.713</text>
</g>
<!-- 2&#45;&gt;4 -->
<g id="edge4" class="edge">
<title>2&#45;&gt;4</title>
<path fill="none" stroke="black" d="M160,-192.88C160,-184.78 160,-175.98 160,-167.47"/>
<polygon fill="black" stroke="black" points="163.5,-167.3 160,-157.3 156.5,-167.3 163.5,-167.3"/>
</g>
<!-- 5 -->
<g id="node6" class="node">
<title>5</title>
<polygon fill="#f7d8c1" stroke="black" points="92,-53 0,-53 0,0 92,0 92,-53"/>
<text text-anchor="middle" x="46" y="-37.8" font-family="Times,serif" font-size="14.00">mse = 10.955</text>
<text text-anchor="middle" x="46" y="-22.8" font-family="Times,serif" font-size="14.00">samples = 58</text>
<text text-anchor="middle" x="46" y="-7.8" font-family="Times,serif" font-size="14.00">value = 23.14</text>
</g>
<!-- 4&#45;&gt;5 -->
<g id="edge5" class="edge">
<title>4&#45;&gt;5</title>
<path fill="none" stroke="black" d="M120.13,-88.95C108.76,-79.53 96.39,-69.27 85.07,-59.89"/>
<polygon fill="black" stroke="black" points="86.98,-56.92 77.05,-53.24 82.51,-62.31 86.98,-56.92"/>
</g>
<!-- 6 -->
<g id="node7" class="node">
<title>6</title>
<polygon fill="#f3c7a7" stroke="black" points="209.5,-53 110.5,-53 110.5,0 209.5,0 209.5,-53"/>
<text text-anchor="middle" x="160" y="-37.8" font-family="Times,serif" font-size="14.00">mse = 11.134</text>
<text text-anchor="middle" x="160" y="-22.8" font-family="Times,serif" font-size="14.00">samples = 25</text>
<text text-anchor="middle" x="160" y="-7.8" font-family="Times,serif" font-size="14.00">value = 28.364</text>
</g>
<!-- 4&#45;&gt;6 -->
<g id="edge6" class="edge">
<title>4&#45;&gt;6</title>
<path fill="none" stroke="black" d="M160,-88.95C160,-80.72 160,-71.85 160,-63.48"/>
<polygon fill="black" stroke="black" points="163.5,-63.24 160,-53.24 156.5,-63.24 163.5,-63.24"/>
</g>
<!-- 8 -->
<g id="node9" class="node">
<title>8</title>
<polygon fill="#f0b58a" stroke="black" points="437.5,-157 338.5,-157 338.5,-89 437.5,-89 437.5,-157"/>
<text text-anchor="middle" x="388" y="-141.8" font-family="Times,serif" font-size="14.00">RAD &lt;= 2.5</text>
<text text-anchor="middle" x="388" y="-126.8" font-family="Times,serif" font-size="14.00">mse = 10.816</text>
<text text-anchor="middle" x="388" y="-111.8" font-family="Times,serif" font-size="14.00">samples = 28</text>
<text text-anchor="middle" x="388" y="-96.8" font-family="Times,serif" font-size="14.00">value = 34.011</text>
</g>
<!-- 7&#45;&gt;8 -->
<g id="edge8" class="edge">
<title>7&#45;&gt;8</title>
<path fill="none" stroke="black" d="M427.17,-192.88C422.31,-184.33 417.01,-175.01 411.92,-166.07"/>
<polygon fill="black" stroke="black" points="414.92,-164.26 406.93,-157.3 408.84,-167.72 414.92,-164.26"/>
</g>
<!-- 11 -->
<g id="node12" class="node">
<title>11</title>
<polygon fill="#e99456" stroke="black" points="554.5,-157 455.5,-157 455.5,-89 554.5,-89 554.5,-157"/>
<text text-anchor="middle" x="505" y="-141.8" font-family="Times,serif" font-size="14.00">TAX &lt;= 534.5</text>
<text text-anchor="middle" x="505" y="-126.8" font-family="Times,serif" font-size="14.00">mse = 42.402</text>
<text text-anchor="middle" x="505" y="-111.8" font-family="Times,serif" font-size="14.00">samples = 23</text>
<text text-anchor="middle" x="505" y="-96.8" font-family="Times,serif" font-size="14.00">value = 44.257</text>
</g>
<!-- 7&#45;&gt;11 -->
<g id="edge11" class="edge">
<title>7&#45;&gt;11</title>
<path fill="none" stroke="black" d="M465.16,-192.88C470.1,-184.33 475.49,-175.01 480.66,-166.07"/>
<polygon fill="black" stroke="black" points="483.76,-167.71 485.74,-157.3 477.7,-164.2 483.76,-167.71"/>
</g>
<!-- 9 -->
<g id="node10" class="node">
<title>9</title>
<polygon fill="#f2bf9a" stroke="black" points="320,-53 228,-53 228,0 320,0 320,-53"/>
<text text-anchor="middle" x="274" y="-37.8" font-family="Times,serif" font-size="14.00">mse = 13.796</text>
<text text-anchor="middle" x="274" y="-22.8" font-family="Times,serif" font-size="14.00">samples = 6</text>
<text text-anchor="middle" x="274" y="-7.8" font-family="Times,serif" font-size="14.00">value = 30.85</text>
</g>
<!-- 8&#45;&gt;9 -->
<g id="edge9" class="edge">
<title>8&#45;&gt;9</title>
<path fill="none" stroke="black" d="M348.13,-88.95C336.76,-79.53 324.39,-69.27 313.07,-59.89"/>
<polygon fill="black" stroke="black" points="314.98,-56.92 305.05,-53.24 310.51,-62.31 314.98,-56.92"/>
</g>
<!-- 10 -->
<g id="node11" class="node">
<title>10</title>
<polygon fill="#efb286" stroke="black" points="437.5,-53 338.5,-53 338.5,0 437.5,0 437.5,-53"/>
<text text-anchor="middle" x="388" y="-37.8" font-family="Times,serif" font-size="14.00">mse = 6.536</text>
<text text-anchor="middle" x="388" y="-22.8" font-family="Times,serif" font-size="14.00">samples = 22</text>
<text text-anchor="middle" x="388" y="-7.8" font-family="Times,serif" font-size="14.00">value = 34.873</text>
</g>
<!-- 8&#45;&gt;10 -->
<g id="edge10" class="edge">
<title>8&#45;&gt;10</title>
<path fill="none" stroke="black" d="M388,-88.95C388,-80.72 388,-71.85 388,-63.48"/>
<polygon fill="black" stroke="black" points="391.5,-63.24 388,-53.24 384.5,-63.24 391.5,-63.24"/>
</g>
<!-- 12 -->
<g id="node13" class="node">
<title>12</title>
<polygon fill="#e89051" stroke="black" points="554.5,-53 455.5,-53 455.5,0 554.5,0 554.5,-53"/>
<text text-anchor="middle" x="505" y="-37.8" font-family="Times,serif" font-size="14.00">mse = 20.577</text>
<text text-anchor="middle" x="505" y="-22.8" font-family="Times,serif" font-size="14.00">samples = 22</text>
<text text-anchor="middle" x="505" y="-7.8" font-family="Times,serif" font-size="14.00">value = 45.273</text>
</g>
<!-- 11&#45;&gt;12 -->
<g id="edge12" class="edge">
<title>11&#45;&gt;12</title>
<path fill="none" stroke="black" d="M505,-88.95C505,-80.72 505,-71.85 505,-63.48"/>
<polygon fill="black" stroke="black" points="508.5,-63.24 505,-53.24 501.5,-63.24 508.5,-63.24"/>
</g>
<!-- 13 -->
<g id="node14" class="node">
<title>13</title>
<polygon fill="#f8dcc7" stroke="black" points="659,-53 573,-53 573,0 659,0 659,-53"/>
<text text-anchor="middle" x="616" y="-37.8" font-family="Times,serif" font-size="14.00">mse = 0.0</text>
<text text-anchor="middle" x="616" y="-22.8" font-family="Times,serif" font-size="14.00">samples = 1</text>
<text text-anchor="middle" x="616" y="-7.8" font-family="Times,serif" font-size="14.00">value = 21.9</text>
</g>
<!-- 11&#45;&gt;13 -->
<g id="edge13" class="edge">
<title>11&#45;&gt;13</title>
<path fill="none" stroke="black" d="M543.82,-88.95C554.89,-79.53 566.93,-69.27 577.95,-59.89"/>
<polygon fill="black" stroke="black" points="580.42,-62.38 585.77,-53.24 575.89,-57.05 580.42,-62.38"/>
</g>
<!-- 15 -->
<g id="node16" class="node">
<title>15</title>
<polygon fill="#f8dfcd" stroke="black" points="949.5,-261 850.5,-261 850.5,-193 949.5,-193 949.5,-261"/>
<text text-anchor="middle" x="900" y="-245.8" font-family="Times,serif" font-size="14.00">RM &lt;= 6.618</text>
<text text-anchor="middle" x="900" y="-230.8" font-family="Times,serif" font-size="14.00">mse = 11.031</text>
<text text-anchor="middle" x="900" y="-215.8" font-family="Times,serif" font-size="14.00">samples = 103</text>
<text text-anchor="middle" x="900" y="-200.8" font-family="Times,serif" font-size="14.00">value = 20.711</text>
</g>
<!-- 14&#45;&gt;15 -->
<g id="edge15" class="edge">
<title>14&#45;&gt;15</title>
<path fill="none" stroke="black" d="M900,-296.88C900,-288.78 900,-279.98 900,-271.47"/>
<polygon fill="black" stroke="black" points="903.5,-271.3 900,-261.3 896.5,-271.3 903.5,-271.3"/>
</g>
<!-- 22 -->
<g id="node23" class="node">
<title>22</title>
<polygon fill="#fdf3ec" stroke="black" points="1274.5,-261 1173.5,-261 1173.5,-193 1274.5,-193 1274.5,-261"/>
<text text-anchor="middle" x="1224" y="-245.8" font-family="Times,serif" font-size="14.00">NOX &lt;= 0.603</text>
<text text-anchor="middle" x="1224" y="-230.8" font-family="Times,serif" font-size="14.00">mse = 18.031</text>
<text text-anchor="middle" x="1224" y="-215.8" font-family="Times,serif" font-size="14.00">samples = 113</text>
<text text-anchor="middle" x="1224" y="-200.8" font-family="Times,serif" font-size="14.00">value = 14.639</text>
</g>
<!-- 14&#45;&gt;22 -->
<g id="edge22" class="edge">
<title>14&#45;&gt;22</title>
<path fill="none" stroke="black" d="M956.07,-312.35C1014.06,-294.09 1104.3,-265.68 1163.77,-246.96"/>
<polygon fill="black" stroke="black" points="1164.92,-250.27 1173.41,-243.93 1162.82,-243.59 1164.92,-250.27"/>
</g>
<!-- 16 -->
<g id="node17" class="node">
<title>16</title>
<polygon fill="#f9e1cf" stroke="black" points="889.5,-157 784.5,-157 784.5,-89 889.5,-89 889.5,-157"/>
<text text-anchor="middle" x="837" y="-141.8" font-family="Times,serif" font-size="14.00">LSTAT &lt;= 14.4</text>
<text text-anchor="middle" x="837" y="-126.8" font-family="Times,serif" font-size="14.00">mse = 7.901</text>
<text text-anchor="middle" x="837" y="-111.8" font-family="Times,serif" font-size="14.00">samples = 95</text>
<text text-anchor="middle" x="837" y="-96.8" font-family="Times,serif" font-size="14.00">value = 20.323</text>
</g>
<!-- 15&#45;&gt;16 -->
<g id="edge16" class="edge">
<title>15&#45;&gt;16</title>
<path fill="none" stroke="black" d="M879.55,-192.88C874.26,-184.33 868.51,-175.01 862.99,-166.07"/>
<polygon fill="black" stroke="black" points="865.8,-163.97 857.57,-157.3 859.84,-167.65 865.8,-163.97"/>
</g>
<!-- 19 -->
<g id="node20" class="node">
<title>19</title>
<polygon fill="#f5d1b6" stroke="black" points="1020,-157 908,-157 908,-89 1020,-89 1020,-157"/>
<text text-anchor="middle" x="964" y="-141.8" font-family="Times,serif" font-size="14.00">LSTAT &lt;= 11.82</text>
<text text-anchor="middle" x="964" y="-126.8" font-family="Times,serif" font-size="14.00">mse = 25.241</text>
<text text-anchor="middle" x="964" y="-111.8" font-family="Times,serif" font-size="14.00">samples = 8</text>
<text text-anchor="middle" x="964" y="-96.8" font-family="Times,serif" font-size="14.00">value = 25.312</text>
</g>
<!-- 15&#45;&gt;19 -->
<g id="edge19" class="edge">
<title>15&#45;&gt;19</title>
<path fill="none" stroke="black" d="M920.78,-192.88C926.2,-184.24 932.11,-174.82 937.78,-165.79"/>
<polygon fill="black" stroke="black" points="940.76,-167.63 943.11,-157.3 934.83,-163.91 940.76,-167.63"/>
</g>
<!-- 17 -->
<g id="node18" class="node">
<title>17</title>
<polygon fill="#f8dfcd" stroke="black" points="776.5,-53 677.5,-53 677.5,0 776.5,0 776.5,-53"/>
<text text-anchor="middle" x="727" y="-37.8" font-family="Times,serif" font-size="14.00">mse = 6.535</text>
<text text-anchor="middle" x="727" y="-22.8" font-family="Times,serif" font-size="14.00">samples = 77</text>
<text text-anchor="middle" x="727" y="-7.8" font-family="Times,serif" font-size="14.00">value = 20.871</text>
</g>
<!-- 16&#45;&gt;17 -->
<g id="edge17" class="edge">
<title>16&#45;&gt;17</title>
<path fill="none" stroke="black" d="M798.53,-88.95C787.56,-79.53 775.62,-69.27 764.7,-59.89"/>
<polygon fill="black" stroke="black" points="766.82,-57.1 756.96,-53.24 762.26,-62.41 766.82,-57.1"/>
</g>
<!-- 18 -->
<g id="node19" class="node">
<title>18</title>
<polygon fill="#fae8db" stroke="black" points="893.5,-53 794.5,-53 794.5,0 893.5,0 893.5,-53"/>
<text text-anchor="middle" x="844" y="-37.8" font-family="Times,serif" font-size="14.00">mse = 6.958</text>
<text text-anchor="middle" x="844" y="-22.8" font-family="Times,serif" font-size="14.00">samples = 18</text>
<text text-anchor="middle" x="844" y="-7.8" font-family="Times,serif" font-size="14.00">value = 17.978</text>
</g>
<!-- 16&#45;&gt;18 -->
<g id="edge18" class="edge">
<title>16&#45;&gt;18</title>
<path fill="none" stroke="black" d="M839.45,-88.95C840.06,-80.72 840.71,-71.85 841.33,-63.48"/>
<polygon fill="black" stroke="black" points="844.85,-63.47 842.09,-53.24 837.86,-62.95 844.85,-63.47"/>
</g>
<!-- 20 -->
<g id="node21" class="node">
<title>20</title>
<polygon fill="#f4c9aa" stroke="black" points="1004,-53 912,-53 912,0 1004,0 1004,-53"/>
<text text-anchor="middle" x="958" y="-37.8" font-family="Times,serif" font-size="14.00">mse = 6.889</text>
<text text-anchor="middle" x="958" y="-22.8" font-family="Times,serif" font-size="14.00">samples = 6</text>
<text text-anchor="middle" x="958" y="-7.8" font-family="Times,serif" font-size="14.00">value = 27.75</text>
</g>
<!-- 19&#45;&gt;20 -->
<g id="edge20" class="edge">
<title>19&#45;&gt;20</title>
<path fill="none" stroke="black" d="M961.9,-88.95C961.38,-80.72 960.82,-71.85 960.28,-63.48"/>
<polygon fill="black" stroke="black" points="963.76,-62.99 959.63,-53.24 956.77,-63.44 963.76,-62.99"/>
</g>
<!-- 21 -->
<g id="node22" class="node">
<title>21</title>
<polygon fill="#fae8db" stroke="black" points="1108,-53 1022,-53 1022,0 1108,0 1108,-53"/>
<text text-anchor="middle" x="1065" y="-37.8" font-family="Times,serif" font-size="14.00">mse = 9.0</text>
<text text-anchor="middle" x="1065" y="-22.8" font-family="Times,serif" font-size="14.00">samples = 2</text>
<text text-anchor="middle" x="1065" y="-7.8" font-family="Times,serif" font-size="14.00">value = 18.0</text>
</g>
<!-- 19&#45;&gt;21 -->
<g id="edge21" class="edge">
<title>19&#45;&gt;21</title>
<path fill="none" stroke="black" d="M999.32,-88.95C1009.3,-79.62 1020.14,-69.47 1030.09,-60.16"/>
<polygon fill="black" stroke="black" points="1032.58,-62.62 1037.49,-53.24 1027.8,-57.51 1032.58,-62.62"/>
</g>
<!-- 23 -->
<g id="node24" class="node">
<title>23</title>
<polygon fill="#fae9dc" stroke="black" points="1287.5,-157 1160.5,-157 1160.5,-89 1287.5,-89 1287.5,-157"/>
<text text-anchor="middle" x="1224" y="-141.8" font-family="Times,serif" font-size="14.00">PTRATIO &lt;= 20.95</text>
<text text-anchor="middle" x="1224" y="-126.8" font-family="Times,serif" font-size="14.00">mse = 13.652</text>
<text text-anchor="middle" x="1224" y="-111.8" font-family="Times,serif" font-size="14.00">samples = 43</text>
<text text-anchor="middle" x="1224" y="-96.8" font-family="Times,serif" font-size="14.00">value = 17.772</text>
</g>
<!-- 22&#45;&gt;23 -->
<g id="edge23" class="edge">
<title>22&#45;&gt;23</title>
<path fill="none" stroke="black" d="M1224,-192.88C1224,-184.78 1224,-175.98 1224,-167.47"/>
<polygon fill="black" stroke="black" points="1227.5,-167.3 1224,-157.3 1220.5,-167.3 1227.5,-167.3"/>
</g>
<!-- 26 -->
<g id="node27" class="node">
<title>26</title>
<polygon fill="#fef9f6" stroke="black" points="1466,-157 1354,-157 1354,-89 1466,-89 1466,-157"/>
<text text-anchor="middle" x="1410" y="-141.8" font-family="Times,serif" font-size="14.00">LSTAT &lt;= 18.93</text>
<text text-anchor="middle" x="1410" y="-126.8" font-family="Times,serif" font-size="14.00">mse = 10.987</text>
<text text-anchor="middle" x="1410" y="-111.8" font-family="Times,serif" font-size="14.00">samples = 70</text>
<text text-anchor="middle" x="1410" y="-96.8" font-family="Times,serif" font-size="14.00">value = 12.714</text>
</g>
<!-- 22&#45;&gt;26 -->
<g id="edge26" class="edge">
<title>22&#45;&gt;26</title>
<path fill="none" stroke="black" d="M1274.83,-198.13C1296.38,-186.31 1321.77,-172.38 1344.69,-159.81"/>
<polygon fill="black" stroke="black" points="1346.59,-162.77 1353.67,-154.89 1343.22,-156.63 1346.59,-162.77"/>
</g>
<!-- 24 -->
<g id="node25" class="node">
<title>24</title>
<polygon fill="#fae6d7" stroke="black" points="1225.5,-53 1126.5,-53 1126.5,0 1225.5,0 1225.5,-53"/>
<text text-anchor="middle" x="1176" y="-37.8" font-family="Times,serif" font-size="14.00">mse = 12.557</text>
<text text-anchor="middle" x="1176" y="-22.8" font-family="Times,serif" font-size="14.00">samples = 34</text>
<text text-anchor="middle" x="1176" y="-7.8" font-family="Times,serif" font-size="14.00">value = 18.741</text>
</g>
<!-- 23&#45;&gt;24 -->
<g id="edge24" class="edge">
<title>23&#45;&gt;24</title>
<path fill="none" stroke="black" d="M1207.21,-88.95C1202.84,-80.35 1198.12,-71.06 1193.71,-62.37"/>
<polygon fill="black" stroke="black" points="1196.72,-60.57 1189.07,-53.24 1190.48,-63.74 1196.72,-60.57"/>
</g>
<!-- 25 -->
<g id="node26" class="node">
<title>25</title>
<polygon fill="#fdf5ef" stroke="black" points="1342.5,-53 1243.5,-53 1243.5,0 1342.5,0 1342.5,-53"/>
<text text-anchor="middle" x="1293" y="-37.8" font-family="Times,serif" font-size="14.00">mse = 0.837</text>
<text text-anchor="middle" x="1293" y="-22.8" font-family="Times,serif" font-size="14.00">samples = 9</text>
<text text-anchor="middle" x="1293" y="-7.8" font-family="Times,serif" font-size="14.00">value = 14.111</text>
</g>
<!-- 23&#45;&gt;25 -->
<g id="edge25" class="edge">
<title>23&#45;&gt;25</title>
<path fill="none" stroke="black" d="M1248.13,-88.95C1254.61,-80.07 1261.63,-70.46 1268.15,-61.54"/>
<polygon fill="black" stroke="black" points="1271.14,-63.38 1274.21,-53.24 1265.48,-59.25 1271.14,-63.38"/>
</g>
<!-- 27 -->
<g id="node28" class="node">
<title>27</title>
<polygon fill="#fcf1e9" stroke="black" points="1459.5,-53 1360.5,-53 1360.5,0 1459.5,0 1459.5,-53"/>
<text text-anchor="middle" x="1410" y="-37.8" font-family="Times,serif" font-size="14.00">mse = 5.494</text>
<text text-anchor="middle" x="1410" y="-22.8" font-family="Times,serif" font-size="14.00">samples = 29</text>
<text text-anchor="middle" x="1410" y="-7.8" font-family="Times,serif" font-size="14.00">value = 15.259</text>
</g>
<!-- 26&#45;&gt;27 -->
<g id="edge27" class="edge">
<title>26&#45;&gt;27</title>
<path fill="none" stroke="black" d="M1410,-88.95C1410,-80.72 1410,-71.85 1410,-63.48"/>
<polygon fill="black" stroke="black" points="1413.5,-63.24 1410,-53.24 1406.5,-63.24 1413.5,-63.24"/>
</g>
<!-- 28 -->
<g id="node29" class="node">
<title>28</title>
<polygon fill="#ffffff" stroke="black" points="1576.5,-53 1477.5,-53 1477.5,0 1576.5,0 1576.5,-53"/>
<text text-anchor="middle" x="1527" y="-37.8" font-family="Times,serif" font-size="14.00">mse = 7.055</text>
<text text-anchor="middle" x="1527" y="-22.8" font-family="Times,serif" font-size="14.00">samples = 41</text>
<text text-anchor="middle" x="1527" y="-7.8" font-family="Times,serif" font-size="14.00">value = 10.915</text>
</g>
<!-- 26&#45;&gt;28 -->
<g id="edge28" class="edge">
<title>26&#45;&gt;28</title>
<path fill="none" stroke="black" d="M1450.92,-88.95C1462.7,-79.43 1475.53,-69.07 1487.24,-59.62"/>
<polygon fill="black" stroke="black" points="1489.56,-62.24 1495.14,-53.24 1485.16,-56.8 1489.56,-62.24"/>
</g>
</g>
</svg>
