<?xml version="1.0" encoding="UTF-8" standalone="no"?>
<!DOCTYPE svg PUBLIC "-//W3C//DTD SVG 1.1//EN"
 "http://www.w3.org/Graphics/SVG/1.1/DTD/svg11.dtd">
<!-- Generated by graphviz version 2.46.1 (20210213.1702)
 -->
<!-- Title: Tree Pages: 1 -->
<svg width="1585pt" height="477pt"
 viewBox="0.00 0.00 1584.50 477.00" xmlns="http://www.w3.org/2000/svg" xmlns:xlink="http://www.w3.org/1999/xlink">
<g id="graph0" class="graph" transform="scale(1 1) rotate(0) translate(4 473)">
<title>Tree</title>
<polygon fill="white" stroke="transparent" points="-4,4 -4,-473 1580.5,-473 1580.5,4 -4,4"/>
<!-- 0 -->
<g id="node1" class="node">
<title>0</title>
<polygon fill="#f7d8c2" stroke="black" points="724.5,-469 612.5,-469 612.5,-401 724.5,-401 724.5,-469"/>
<text text-anchor="middle" x="668.5" y="-453.8" font-family="Times,serif" font-size="14.00">LSTAT &lt;= 9.715</text>
<text text-anchor="middle" x="668.5" y="-438.8" font-family="Times,serif" font-size="14.00">mse = 76.888</text>
<text text-anchor="middle" x="668.5" y="-423.8" font-family="Times,serif" font-size="14.00">samples = 354</text>
<text text-anchor="middle" x="668.5" y="-408.8" font-family="Times,serif" font-size="14.00">value = 22.285</text>
</g>
<!-- 1 -->
<g id="node2" class="node">
<title>1</title>
<polygon fill="#f3c3a0" stroke="black" points="497,-365 398,-365 398,-297 497,-297 497,-365"/>
<text text-anchor="middle" x="447.5" y="-349.8" font-family="Times,serif" font-size="14.00">RM &lt;= 7.127</text>
<text text-anchor="middle" x="447.5" y="-334.8" font-family="Times,serif" font-size="14.00">mse = 71.338</text>
<text text-anchor="middle" x="447.5" y="-319.8" font-family="Times,serif" font-size="14.00">samples = 149</text>
<text text-anchor="middle" x="447.5" y="-304.8" font-family="Times,serif" font-size="14.00">value = 29.092</text>
</g>
<!-- 0&#45;&gt;1 -->
<g id="edge1" class="edge">
<title>0&#45;&gt;1</title>
<path fill="none" stroke="black" d="M612.45,-408.13C580.09,-393.2 539.43,-374.43 506.58,-359.27"/>
<polygon fill="black" stroke="black" points="507.64,-355.9 497.09,-354.89 504.7,-362.26 507.64,-355.9"/>
<text text-anchor="middle" x="505.73" y="-374.65" font-family="Times,serif" font-size="14.00">True</text>
</g>
<!-- 14 -->
<g id="node15" class="node">
<title>14</title>
<polygon fill="#fae8da" stroke="black" points="954.5,-365 842.5,-365 842.5,-297 954.5,-297 954.5,-365"/>
<text text-anchor="middle" x="898.5" y="-349.8" font-family="Times,serif" font-size="14.00">LSTAT &lt;= 19.83</text>
<text text-anchor="middle" x="898.5" y="-334.8" font-family="Times,serif" font-size="14.00">mse = 22.773</text>
<text text-anchor="middle" x="898.5" y="-319.8" font-family="Times,serif" font-size="14.00">samples = 205</text>
<text text-anchor="middle" x="898.5" y="-304.8" font-family="Times,serif" font-size="14.00">value = 17.338</text>
</g>
<!-- 0&#45;&gt;14 -->
<g id="edge14" class="edge">
<title>0&#45;&gt;14</title>
<path fill="none" stroke="black" d="M724.76,-409.05C757.46,-394.55 798.83,-376.2 832.99,-361.05"/>
<polygon fill="black" stroke="black" points="834.7,-364.12 842.42,-356.87 831.86,-357.73 834.7,-364.12"/>
<text text-anchor="middle" x="833.43" y="-376.5" font-family="Times,serif" font-size="14.00">False</text>
</g>
<!-- 2 -->
<g id="node3" class="node">
<title>2</title>
<polygon fill="#f5cdb0" stroke="black" points="216,-261 117,-261 117,-193 216,-193 216,-261"/>
<text text-anchor="middle" x="166.5" y="-245.8" font-family="Times,serif" font-size="14.00">DIS &lt;= 1.545</text>
<text text-anchor="middle" x="166.5" y="-230.8" font-family="Times,serif" font-size="14.00">mse = 29.23</text>
<text text-anchor="middle" x="166.5" y="-215.8" font-family="Times,serif" font-size="14.00">samples = 116</text>
<text text-anchor="middle" x="166.5" y="-200.8" font-family="Times,serif" font-size="14.00">value = 25.858</text>
</g>
<!-- 1&#45;&gt;2 -->
<g id="edge2" class="edge">
<title>1&#45;&gt;2</title>
<path fill="none" stroke="black" d="M397.91,-312C349.8,-294.54 276.78,-268.03 225.66,-249.48"/>
<polygon fill="black" stroke="black" points="226.66,-246.11 216.07,-245.99 224.27,-252.69 226.66,-246.11"/>
</g>
<!-- 7 -->
<g id="node8" class="node">
<title>7</title>
<polygon fill="#eb9f68" stroke="black" points="497,-261 398,-261 398,-193 497,-193 497,-261"/>
<text text-anchor="middle" x="447.5" y="-245.8" font-family="Times,serif" font-size="14.00">RM &lt;= 7.435</text>
<text text-anchor="middle" x="447.5" y="-230.8" font-family="Times,serif" font-size="14.00">mse = 53.339</text>
<text text-anchor="middle" x="447.5" y="-215.8" font-family="Times,serif" font-size="14.00">samples = 33</text>
<text text-anchor="middle" x="447.5" y="-200.8" font-family="Times,serif" font-size="14.00">value = 40.461</text>
</g>
<!-- 1&#45;&gt;7 -->
<g id="edge7" class="edge">
<title>1&#45;&gt;7</title>
<path fill="none" stroke="black" d="M447.5,-296.88C447.5,-288.78 447.5,-279.98 447.5,-271.47"/>
<polygon fill="black" stroke="black" points="451,-271.3 447.5,-261.3 444,-271.3 451,-271.3"/>
</g>
<!-- 3 -->
<g id="node4" class="node">
<title>3</title>
<polygon fill="#e58139" stroke="black" points="98.5,-149.5 12.5,-149.5 12.5,-96.5 98.5,-96.5 98.5,-149.5"/>
<text text-anchor="middle" x="55.5" y="-134.3" font-family="Times,serif" font-size="14.00">mse = 0.0</text>
<text text-anchor="middle" x="55.5" y="-119.3" font-family="Times,serif" font-size="14.00">samples = 2</text>
<text text-anchor="middle" x="55.5" y="-104.3" font-family="Times,serif" font-size="14.00">value = 50.0</text>
</g>
<!-- 2&#45;&gt;3 -->
<g id="edge3" class="edge">
<title>2&#45;&gt;3</title>
<path fill="none" stroke="black" d="M130.46,-192.88C117.78,-181.23 103.54,-168.14 90.9,-156.53"/>
<polygon fill="black" stroke="black" points="93,-153.71 83.27,-149.52 88.27,-158.86 93,-153.71"/>
</g>
<!-- 4 -->
<g id="node5" class="node">
<title>4</title>
<polygon fill="#f5ceb2" stroke="black" points="216,-157 117,-157 117,-89 216,-89 216,-157"/>
<text text-anchor="middle" x="166.5" y="-141.8" font-family="Times,serif" font-size="14.00">RM &lt;= 6.599</text>
<text text-anchor="middle" x="166.5" y="-126.8" font-family="Times,serif" font-size="14.00">mse = 19.338</text>
<text text-anchor="middle" x="166.5" y="-111.8" font-family="Times,serif" font-size="14.00">samples = 114</text>
<text text-anchor="middle" x="166.5" y="-96.8" font-family="Times,serif" font-size="14.00">value = 25.434</text>
</g>
<!-- 2&#45;&gt;4 -->
<g id="edge4" class="edge">
<title>2&#45;&gt;4</title>
<path fill="none" stroke="black" d="M166.5,-192.88C166.5,-184.78 166.5,-175.98 166.5,-167.47"/>
<polygon fill="black" stroke="black" points="170,-167.3 166.5,-157.3 163,-167.3 170,-167.3"/>
</g>
<!-- 5 -->
<g id="node6" class="node">
<title>5</title>
<polygon fill="#f6d5bd" stroke="black" points="99,-53 0,-53 0,0 99,0 99,-53"/>
<text text-anchor="middle" x="49.5" y="-37.8" font-family="Times,serif" font-size="14.00">mse = 9.184</text>
<text text-anchor="middle" x="49.5" y="-22.8" font-family="Times,serif" font-size="14.00">samples = 71</text>
<text text-anchor="middle" x="49.5" y="-7.8" font-family="Times,serif" font-size="14.00">value = 23.204</text>
</g>
<!-- 4&#45;&gt;5 -->
<g id="edge5" class="edge">
<title>4&#45;&gt;5</title>
<path fill="none" stroke="black" d="M125.58,-88.95C113.8,-79.43 100.97,-69.07 89.26,-59.62"/>
<polygon fill="black" stroke="black" points="91.34,-56.8 81.36,-53.24 86.94,-62.24 91.34,-56.8"/>
</g>
<!-- 6 -->
<g id="node7" class="node">
<title>6</title>
<polygon fill="#f3c3a0" stroke="black" points="216,-53 117,-53 117,0 216,0 216,-53"/>
<text text-anchor="middle" x="166.5" y="-37.8" font-family="Times,serif" font-size="14.00">mse = 14.335</text>
<text text-anchor="middle" x="166.5" y="-22.8" font-family="Times,serif" font-size="14.00">samples = 43</text>
<text text-anchor="middle" x="166.5" y="-7.8" font-family="Times,serif" font-size="14.00">value = 29.116</text>
</g>
<!-- 4&#45;&gt;6 -->
<g id="edge6" class="edge">
<title>4&#45;&gt;6</title>
<path fill="none" stroke="black" d="M166.5,-88.95C166.5,-80.72 166.5,-71.85 166.5,-63.48"/>
<polygon fill="black" stroke="black" points="170,-63.24 166.5,-53.24 163,-63.24 170,-63.24"/>
</g>
<!-- 8 -->
<g id="node9" class="node">
<title>8</title>
<polygon fill="#efb286" stroke="black" points="433,-157 334,-157 334,-89 433,-89 433,-157"/>
<text text-anchor="middle" x="383.5" y="-141.8" font-family="Times,serif" font-size="14.00">TAX &lt;= 270.0</text>
<text text-anchor="middle" x="383.5" y="-126.8" font-family="Times,serif" font-size="14.00">mse = 4.287</text>
<text text-anchor="middle" x="383.5" y="-111.8" font-family="Times,serif" font-size="14.00">samples = 13</text>
<text text-anchor="middle" x="383.5" y="-96.8" font-family="Times,serif" font-size="14.00">value = 34.362</text>
</g>
<!-- 7&#45;&gt;8 -->
<g id="edge8" class="edge">
<title>7&#45;&gt;8</title>
<path fill="none" stroke="black" d="M426.72,-192.88C421.3,-184.24 415.39,-174.82 409.72,-165.79"/>
<polygon fill="black" stroke="black" points="412.67,-163.91 404.39,-157.3 406.74,-167.63 412.67,-163.91"/>
</g>
<!-- 11 -->
<g id="node12" class="node">
<title>11</title>
<polygon fill="#e99355" stroke="black" points="571.5,-157 451.5,-157 451.5,-89 571.5,-89 571.5,-157"/>
<text text-anchor="middle" x="511.5" y="-141.8" font-family="Times,serif" font-size="14.00">PTRATIO &lt;= 18.3</text>
<text text-anchor="middle" x="511.5" y="-126.8" font-family="Times,serif" font-size="14.00">mse = 45.328</text>
<text text-anchor="middle" x="511.5" y="-111.8" font-family="Times,serif" font-size="14.00">samples = 20</text>
<text text-anchor="middle" x="511.5" y="-96.8" font-family="Times,serif" font-size="14.00">value = 44.425</text>
</g>
<!-- 7&#45;&gt;11 -->
<g id="edge11" class="edge">
<title>7&#45;&gt;11</title>
<path fill="none" stroke="black" d="M468.28,-192.88C473.7,-184.24 479.61,-174.82 485.28,-165.79"/>
<polygon fill="black" stroke="black" points="488.26,-167.63 490.61,-157.3 482.33,-163.91 488.26,-167.63"/>
</g>
<!-- 9 -->
<g id="node10" class="node">
<title>9</title>
<polygon fill="#eeae7f" stroke="black" points="326.5,-53 234.5,-53 234.5,0 326.5,0 326.5,-53"/>
<text text-anchor="middle" x="280.5" y="-37.8" font-family="Times,serif" font-size="14.00">mse = 1.663</text>
<text text-anchor="middle" x="280.5" y="-22.8" font-family="Times,serif" font-size="14.00">samples = 8</text>
<text text-anchor="middle" x="280.5" y="-7.8" font-family="Times,serif" font-size="14.00">value = 35.75</text>
</g>
<!-- 8&#45;&gt;9 -->
<g id="edge9" class="edge">
<title>8&#45;&gt;9</title>
<path fill="none" stroke="black" d="M347.48,-88.95C337.31,-79.62 326.25,-69.47 316.1,-60.16"/>
<polygon fill="black" stroke="black" points="318.29,-57.42 308.55,-53.24 313.55,-62.58 318.29,-57.42"/>
</g>
<!-- 10 -->
<g id="node11" class="node">
<title>10</title>
<polygon fill="#f1b991" stroke="black" points="436.5,-53 344.5,-53 344.5,0 436.5,0 436.5,-53"/>
<text text-anchor="middle" x="390.5" y="-37.8" font-family="Times,serif" font-size="14.00">mse = 0.466</text>
<text text-anchor="middle" x="390.5" y="-22.8" font-family="Times,serif" font-size="14.00">samples = 5</text>
<text text-anchor="middle" x="390.5" y="-7.8" font-family="Times,serif" font-size="14.00">value = 32.14</text>
</g>
<!-- 8&#45;&gt;10 -->
<g id="edge10" class="edge">
<title>8&#45;&gt;10</title>
<path fill="none" stroke="black" d="M385.95,-88.95C386.56,-80.72 387.21,-71.85 387.83,-63.48"/>
<polygon fill="black" stroke="black" points="391.35,-63.47 388.59,-53.24 384.36,-62.95 391.35,-63.47"/>
</g>
<!-- 12 -->
<g id="node13" class="node">
<title>12</title>
<polygon fill="#e78d4c" stroke="black" points="554,-53 455,-53 455,0 554,0 554,-53"/>
<text text-anchor="middle" x="504.5" y="-37.8" font-family="Times,serif" font-size="14.00">mse = 14.338</text>
<text text-anchor="middle" x="504.5" y="-22.8" font-family="Times,serif" font-size="14.00">samples = 18</text>
<text text-anchor="middle" x="504.5" y="-7.8" font-family="Times,serif" font-size="14.00">value = 46.189</text>
</g>
<!-- 11&#45;&gt;12 -->
<g id="edge12" class="edge">
<title>11&#45;&gt;12</title>
<path fill="none" stroke="black" d="M509.05,-88.95C508.44,-80.72 507.79,-71.85 507.17,-63.48"/>
<polygon fill="black" stroke="black" points="510.64,-62.95 506.41,-53.24 503.65,-63.47 510.64,-62.95"/>
</g>
<!-- 13 -->
<g id="node14" class="node">
<title>13</title>
<polygon fill="#f3c4a3" stroke="black" points="664.5,-53 572.5,-53 572.5,0 664.5,0 664.5,-53"/>
<text text-anchor="middle" x="618.5" y="-37.8" font-family="Times,serif" font-size="14.00">mse = 44.223</text>
<text text-anchor="middle" x="618.5" y="-22.8" font-family="Times,serif" font-size="14.00">samples = 2</text>
<text text-anchor="middle" x="618.5" y="-7.8" font-family="Times,serif" font-size="14.00">value = 28.55</text>
</g>
<!-- 11&#45;&gt;13 -->
<g id="edge13" class="edge">
<title>11&#45;&gt;13</title>
<path fill="none" stroke="black" d="M548.92,-88.95C559.59,-79.53 571.2,-69.27 581.82,-59.89"/>
<polygon fill="black" stroke="black" points="584.18,-62.48 589.36,-53.24 579.55,-57.23 584.18,-62.48"/>
</g>
<!-- 15 -->
<g id="node16" class="node">
<title>15</title>
<polygon fill="#f9e2d2" stroke="black" points="958,-261 839,-261 839,-193 958,-193 958,-261"/>
<text text-anchor="middle" x="898.5" y="-245.8" font-family="Times,serif" font-size="14.00">LSTAT &lt;= 14.405</text>
<text text-anchor="middle" x="898.5" y="-230.8" font-family="Times,serif" font-size="14.00">mse = 14.415</text>
<text text-anchor="middle" x="898.5" y="-215.8" font-family="Times,serif" font-size="14.00">samples = 153</text>
<text text-anchor="middle" x="898.5" y="-200.8" font-family="Times,serif" font-size="14.00">value = 19.056</text>
</g>
<!-- 14&#45;&gt;15 -->
<g id="edge15" class="edge">
<title>14&#45;&gt;15</title>
<path fill="none" stroke="black" d="M898.5,-296.88C898.5,-288.78 898.5,-279.98 898.5,-271.47"/>
<polygon fill="black" stroke="black" points="902,-271.3 898.5,-261.3 895,-271.3 902,-271.3"/>
</g>
<!-- 22 -->
<g id="node23" class="node">
<title>22</title>
<polygon fill="#fdf8f3" stroke="black" points="1293,-261 1194,-261 1194,-193 1293,-193 1293,-261"/>
<text text-anchor="middle" x="1243.5" y="-245.8" font-family="Times,serif" font-size="14.00">TAX &lt;= 551.5</text>
<text text-anchor="middle" x="1243.5" y="-230.8" font-family="Times,serif" font-size="14.00">mse = 13.121</text>
<text text-anchor="middle" x="1243.5" y="-215.8" font-family="Times,serif" font-size="14.00">samples = 52</text>
<text text-anchor="middle" x="1243.5" y="-200.8" font-family="Times,serif" font-size="14.00">value = 12.283</text>
</g>
<!-- 14&#45;&gt;22 -->
<g id="edge22" class="edge">
<title>14&#45;&gt;22</title>
<path fill="none" stroke="black" d="M954.7,-313.38C1017.81,-294.73 1119.8,-264.57 1184.16,-245.54"/>
<polygon fill="black" stroke="black" points="1185.17,-248.9 1193.77,-242.7 1183.19,-242.18 1185.17,-248.9"/>
</g>
<!-- 16 -->
<g id="node17" class="node">
<title>16</title>
<polygon fill="#f8ddc9" stroke="black" points="888,-157 789,-157 789,-89 888,-89 888,-157"/>
<text text-anchor="middle" x="838.5" y="-141.8" font-family="Times,serif" font-size="14.00">RM &lt;= 7.32</text>
<text text-anchor="middle" x="838.5" y="-126.8" font-family="Times,serif" font-size="14.00">mse = 7.221</text>
<text text-anchor="middle" x="838.5" y="-111.8" font-family="Times,serif" font-size="14.00">samples = 82</text>
<text text-anchor="middle" x="838.5" y="-96.8" font-family="Times,serif" font-size="14.00">value = 20.862</text>
</g>
<!-- 15&#45;&gt;16 -->
<g id="edge16" class="edge">
<title>15&#45;&gt;16</title>
<path fill="none" stroke="black" d="M879.02,-192.88C873.99,-184.33 868.51,-175.01 863.25,-166.07"/>
<polygon fill="black" stroke="black" points="866.17,-164.14 858.09,-157.3 860.14,-167.69 866.17,-164.14"/>
</g>
<!-- 19 -->
<g id="node20" class="node">
<title>19</title>
<polygon fill="#fae9dc" stroke="black" points="1013,-157 906,-157 906,-89 1013,-89 1013,-157"/>
<text text-anchor="middle" x="959.5" y="-141.8" font-family="Times,serif" font-size="14.00">CRIM &lt;= 0.615</text>
<text text-anchor="middle" x="959.5" y="-126.8" font-family="Times,serif" font-size="14.00">mse = 14.605</text>
<text text-anchor="middle" x="959.5" y="-111.8" font-family="Times,serif" font-size="14.00">samples = 71</text>
<text text-anchor="middle" x="959.5" y="-96.8" font-family="Times,serif" font-size="14.00">value = 16.97</text>
</g>
<!-- 15&#45;&gt;19 -->
<g id="edge19" class="edge">
<title>15&#45;&gt;19</title>
<path fill="none" stroke="black" d="M918.3,-192.88C923.42,-184.33 928.99,-175.01 934.34,-166.07"/>
<polygon fill="black" stroke="black" points="937.46,-167.68 939.59,-157.3 931.45,-164.09 937.46,-167.68"/>
</g>
<!-- 17 -->
<g id="node18" class="node">
<title>17</title>
<polygon fill="#f8ddca" stroke="black" points="782,-53 683,-53 683,0 782,0 782,-53"/>
<text text-anchor="middle" x="732.5" y="-37.8" font-family="Times,serif" font-size="14.00">mse = 6.026</text>
<text text-anchor="middle" x="732.5" y="-22.8" font-family="Times,serif" font-size="14.00">samples = 81</text>
<text text-anchor="middle" x="732.5" y="-7.8" font-family="Times,serif" font-size="14.00">value = 20.737</text>
</g>
<!-- 16&#45;&gt;17 -->
<g id="edge17" class="edge">
<title>16&#45;&gt;17</title>
<path fill="none" stroke="black" d="M801.43,-88.95C790.96,-79.62 779.58,-69.47 769.14,-60.16"/>
<polygon fill="black" stroke="black" points="771.16,-57.28 761.37,-53.24 766.5,-62.5 771.16,-57.28"/>
</g>
<!-- 18 -->
<g id="node19" class="node">
<title>18</title>
<polygon fill="#f1bd97" stroke="black" points="886.5,-53 800.5,-53 800.5,0 886.5,0 886.5,-53"/>
<text text-anchor="middle" x="843.5" y="-37.8" font-family="Times,serif" font-size="14.00">mse = 0.0</text>
<text text-anchor="middle" x="843.5" y="-22.8" font-family="Times,serif" font-size="14.00">samples = 1</text>
<text text-anchor="middle" x="843.5" y="-7.8" font-family="Times,serif" font-size="14.00">value = 31.0</text>
</g>
<!-- 16&#45;&gt;18 -->
<g id="edge18" class="edge">
<title>16&#45;&gt;18</title>
<path fill="none" stroke="black" d="M840.25,-88.95C840.68,-80.72 841.15,-71.85 841.6,-63.48"/>
<polygon fill="black" stroke="black" points="845.1,-63.41 842.14,-53.24 838.11,-63.04 845.1,-63.41"/>
</g>
<!-- 20 -->
<g id="node21" class="node">
<title>20</title>
<polygon fill="#f9e1cf" stroke="black" points="1004,-53 905,-53 905,0 1004,0 1004,-53"/>
<text text-anchor="middle" x="954.5" y="-37.8" font-family="Times,serif" font-size="14.00">mse = 8.32</text>
<text text-anchor="middle" x="954.5" y="-22.8" font-family="Times,serif" font-size="14.00">samples = 27</text>
<text text-anchor="middle" x="954.5" y="-7.8" font-family="Times,serif" font-size="14.00">value = 19.619</text>
</g>
<!-- 19&#45;&gt;20 -->
<g id="edge20" class="edge">
<title>19&#45;&gt;20</title>
<path fill="none" stroke="black" d="M957.75,-88.95C957.32,-80.72 956.85,-71.85 956.4,-63.48"/>
<polygon fill="black" stroke="black" points="959.89,-63.04 955.86,-53.24 952.9,-63.41 959.89,-63.04"/>
</g>
<!-- 21 -->
<g id="node22" class="node">
<title>21</title>
<polygon fill="#fbeee4" stroke="black" points="1121,-53 1022,-53 1022,0 1121,0 1121,-53"/>
<text text-anchor="middle" x="1071.5" y="-37.8" font-family="Times,serif" font-size="14.00">mse = 11.519</text>
<text text-anchor="middle" x="1071.5" y="-22.8" font-family="Times,serif" font-size="14.00">samples = 44</text>
<text text-anchor="middle" x="1071.5" y="-7.8" font-family="Times,serif" font-size="14.00">value = 15.345</text>
</g>
<!-- 19&#45;&gt;21 -->
<g id="edge21" class="edge">
<title>19&#45;&gt;21</title>
<path fill="none" stroke="black" d="M998.67,-88.95C1009.84,-79.53 1021.99,-69.27 1033.11,-59.89"/>
<polygon fill="black" stroke="black" points="1035.61,-62.36 1041,-53.24 1031.1,-57.01 1035.61,-62.36"/>
</g>
<!-- 23 -->
<g id="node24" class="node">
<title>23</title>
<polygon fill="#fbeee4" stroke="black" points="1293,-157 1194,-157 1194,-89 1293,-89 1293,-157"/>
<text text-anchor="middle" x="1243.5" y="-141.8" font-family="Times,serif" font-size="14.00">CHAS &lt;= 0.5</text>
<text text-anchor="middle" x="1243.5" y="-126.8" font-family="Times,serif" font-size="14.00">mse = 5.484</text>
<text text-anchor="middle" x="1243.5" y="-111.8" font-family="Times,serif" font-size="14.00">samples = 19</text>
<text text-anchor="middle" x="1243.5" y="-96.8" font-family="Times,serif" font-size="14.00">value = 15.353</text>
</g>
<!-- 22&#45;&gt;23 -->
<g id="edge23" class="edge">
<title>22&#45;&gt;23</title>
<path fill="none" stroke="black" d="M1243.5,-192.88C1243.5,-184.78 1243.5,-175.98 1243.5,-167.47"/>
<polygon fill="black" stroke="black" points="1247,-167.3 1243.5,-157.3 1240,-167.3 1247,-167.3"/>
</g>
<!-- 26 -->
<g id="node27" class="node">
<title>26</title>
<polygon fill="#fffdfc" stroke="black" points="1467,-157 1366,-157 1366,-89 1467,-89 1467,-157"/>
<text text-anchor="middle" x="1416.5" y="-141.8" font-family="Times,serif" font-size="14.00">NOX &lt;= 0.603</text>
<text text-anchor="middle" x="1416.5" y="-126.8" font-family="Times,serif" font-size="14.00">mse = 8.968</text>
<text text-anchor="middle" x="1416.5" y="-111.8" font-family="Times,serif" font-size="14.00">samples = 33</text>
<text text-anchor="middle" x="1416.5" y="-96.8" font-family="Times,serif" font-size="14.00">value = 10.515</text>
</g>
<!-- 22&#45;&gt;26 -->
<g id="edge26" class="edge">
<title>22&#45;&gt;26</title>
<path fill="none" stroke="black" d="M1293.07,-196.77C1312.99,-185.03 1336.13,-171.39 1356.95,-159.11"/>
<polygon fill="black" stroke="black" points="1358.88,-162.04 1365.72,-153.94 1355.32,-156.01 1358.88,-162.04"/>
</g>
<!-- 24 -->
<g id="node25" class="node">
<title>24</title>
<polygon fill="#fcf0e7" stroke="black" points="1238,-53 1139,-53 1139,0 1238,0 1238,-53"/>
<text text-anchor="middle" x="1188.5" y="-37.8" font-family="Times,serif" font-size="14.00">mse = 3.686</text>
<text text-anchor="middle" x="1188.5" y="-22.8" font-family="Times,serif" font-size="14.00">samples = 17</text>
<text text-anchor="middle" x="1188.5" y="-7.8" font-family="Times,serif" font-size="14.00">value = 14.847</text>
</g>
<!-- 23&#45;&gt;24 -->
<g id="edge24" class="edge">
<title>23&#45;&gt;24</title>
<path fill="none" stroke="black" d="M1224.26,-88.95C1219.21,-80.26 1213.74,-70.86 1208.63,-62.09"/>
<polygon fill="black" stroke="black" points="1211.53,-60.12 1203.48,-53.24 1205.48,-63.64 1211.53,-60.12"/>
</g>
<!-- 25 -->
<g id="node26" class="node">
<title>25</title>
<polygon fill="#f9e0cf" stroke="black" points="1348.5,-53 1256.5,-53 1256.5,0 1348.5,0 1348.5,-53"/>
<text text-anchor="middle" x="1302.5" y="-37.8" font-family="Times,serif" font-size="14.00">mse = 0.122</text>
<text text-anchor="middle" x="1302.5" y="-22.8" font-family="Times,serif" font-size="14.00">samples = 2</text>
<text text-anchor="middle" x="1302.5" y="-7.8" font-family="Times,serif" font-size="14.00">value = 19.65</text>
</g>
<!-- 23&#45;&gt;25 -->
<g id="edge25" class="edge">
<title>23&#45;&gt;25</title>
<path fill="none" stroke="black" d="M1264.14,-88.95C1269.62,-80.17 1275.55,-70.66 1281.08,-61.82"/>
<polygon fill="black" stroke="black" points="1284.1,-63.57 1286.43,-53.24 1278.17,-59.87 1284.1,-63.57"/>
</g>
<!-- 27 -->
<g id="node28" class="node">
<title>27</title>
<polygon fill="#fbece0" stroke="black" points="1466,-53 1367,-53 1367,0 1466,0 1466,-53"/>
<text text-anchor="middle" x="1416.5" y="-37.8" font-family="Times,serif" font-size="14.00">mse = 4.096</text>
<text text-anchor="middle" x="1416.5" y="-22.8" font-family="Times,serif" font-size="14.00">samples = 3</text>
<text text-anchor="middle" x="1416.5" y="-7.8" font-family="Times,serif" font-size="14.00">value = 16.133</text>
</g>
<!-- 26&#45;&gt;27 -->
<g id="edge27" class="edge">
<title>26&#45;&gt;27</title>
<path fill="none" stroke="black" d="M1416.5,-88.95C1416.5,-80.72 1416.5,-71.85 1416.5,-63.48"/>
<polygon fill="black" stroke="black" points="1420,-63.24 1416.5,-53.24 1413,-63.24 1420,-63.24"/>
</g>
<!-- 28 -->
<g id="node29" class="node">
<title>28</title>
<polygon fill="#ffffff" stroke="black" points="1576.5,-53 1484.5,-53 1484.5,0 1576.5,0 1576.5,-53"/>
<text text-anchor="middle" x="1530.5" y="-37.8" font-family="Times,serif" font-size="14.00">mse = 5.983</text>
<text text-anchor="middle" x="1530.5" y="-22.8" font-family="Times,serif" font-size="14.00">samples = 30</text>
<text text-anchor="middle" x="1530.5" y="-7.8" font-family="Times,serif" font-size="14.00">value = 9.953</text>
</g>
<!-- 26&#45;&gt;28 -->
<g id="edge28" class="edge">
<title>26&#45;&gt;28</title>
<path fill="none" stroke="black" d="M1456.37,-88.95C1467.74,-79.53 1480.11,-69.27 1491.43,-59.89"/>
<polygon fill="black" stroke="black" points="1493.99,-62.31 1499.45,-53.24 1489.52,-56.92 1493.99,-62.31"/>
</g>
</g>
</svg>
