<?xml version="1.0" encoding="UTF-8" standalone="no"?>
<!DOCTYPE svg PUBLIC "-//W3C//DTD SVG 1.1//EN"
 "http://www.w3.org/Graphics/SVG/1.1/DTD/svg11.dtd">
<!-- Generated by graphviz version 2.46.1 (20210213.1702)
 -->
<!-- Title: Tree Pages: 1 -->
<svg width="1764pt" height="477pt"
 viewBox="0.00 0.00 1764.00 477.00" xmlns="http://www.w3.org/2000/svg" xmlns:xlink="http://www.w3.org/1999/xlink">
<g id="graph0" class="graph" transform="scale(1 1) rotate(0) translate(4 473)">
<title>Tree</title>
<polygon fill="white" stroke="transparent" points="-4,4 -4,-473 1760,-473 1760,4 -4,4"/>
<!-- 0 -->
<g id="node1" class="node">
<title>0</title>
<polygon fill="#f8dbc7" stroke="black" points="935.5,-469 836.5,-469 836.5,-401 935.5,-401 935.5,-469"/>
<text text-anchor="middle" x="886" y="-453.8" font-family="Times,serif" font-size="14.00">RM &lt;= 6.92</text>
<text text-anchor="middle" x="886" y="-438.8" font-family="Times,serif" font-size="14.00">mse = 81.384</text>
<text text-anchor="middle" x="886" y="-423.8" font-family="Times,serif" font-size="14.00">samples = 354</text>
<text text-anchor="middle" x="886" y="-408.8" font-family="Times,serif" font-size="14.00">value = 22.309</text>
</g>
<!-- 1 -->
<g id="node2" class="node">
<title>1</title>
<polygon fill="#f9e4d4" stroke="black" points="717.5,-365 612.5,-365 612.5,-297 717.5,-297 717.5,-365"/>
<text text-anchor="middle" x="665" y="-349.8" font-family="Times,serif" font-size="14.00">LSTAT &lt;= 14.3</text>
<text text-anchor="middle" x="665" y="-334.8" font-family="Times,serif" font-size="14.00">mse = 36.4</text>
<text text-anchor="middle" x="665" y="-319.8" font-family="Times,serif" font-size="14.00">samples = 303</text>
<text text-anchor="middle" x="665" y="-304.8" font-family="Times,serif" font-size="14.00">value = 19.75</text>
</g>
<!-- 0&#45;&gt;1 -->
<g id="edge1" class="edge">
<title>0&#45;&gt;1</title>
<path fill="none" stroke="black" d="M836.4,-411.11C803.93,-396.12 761.24,-376.42 726.59,-360.43"/>
<polygon fill="black" stroke="black" points="728.06,-357.25 717.51,-356.24 725.12,-363.6 728.06,-357.25"/>
<text text-anchor="middle" x="726.15" y="-375.99" font-family="Times,serif" font-size="14.00">True</text>
</g>
<!-- 16 -->
<g id="node17" class="node">
<title>16</title>
<polygon fill="#edaa79" stroke="black" points="1163,-365 1051,-365 1051,-297 1163,-297 1163,-365"/>
<text text-anchor="middle" x="1107" y="-349.8" font-family="Times,serif" font-size="14.00">LSTAT &lt;= 5.205</text>
<text text-anchor="middle" x="1107" y="-334.8" font-family="Times,serif" font-size="14.00">mse = 78.622</text>
<text text-anchor="middle" x="1107" y="-319.8" font-family="Times,serif" font-size="14.00">samples = 51</text>
<text text-anchor="middle" x="1107" y="-304.8" font-family="Times,serif" font-size="14.00">value = 37.512</text>
</g>
<!-- 0&#45;&gt;16 -->
<g id="edge16" class="edge">
<title>0&#45;&gt;16</title>
<path fill="none" stroke="black" d="M935.6,-411.11C966.89,-396.67 1007.66,-377.85 1041.58,-362.19"/>
<polygon fill="black" stroke="black" points="1043.34,-365.24 1050.95,-357.87 1040.41,-358.88 1043.34,-365.24"/>
<text text-anchor="middle" x="1042.31" y="-377.63" font-family="Times,serif" font-size="14.00">False</text>
</g>
<!-- 2 -->
<g id="node3" class="node">
<title>2</title>
<polygon fill="#f7d9c3" stroke="black" points="367.5,-261 268.5,-261 268.5,-193 367.5,-193 367.5,-261"/>
<text text-anchor="middle" x="318" y="-245.8" font-family="Times,serif" font-size="14.00">DIS &lt;= 1.434</text>
<text text-anchor="middle" x="318" y="-230.8" font-family="Times,serif" font-size="14.00">mse = 21.664</text>
<text text-anchor="middle" x="318" y="-215.8" font-family="Times,serif" font-size="14.00">samples = 176</text>
<text text-anchor="middle" x="318" y="-200.8" font-family="Times,serif" font-size="14.00">value = 23.152</text>
</g>
<!-- 1&#45;&gt;2 -->
<g id="edge2" class="edge">
<title>1&#45;&gt;2</title>
<path fill="none" stroke="black" d="M612.3,-314.51C549.09,-295.93 443.42,-264.87 377.38,-245.46"/>
<polygon fill="black" stroke="black" points="378.12,-242.02 367.54,-242.56 376.14,-248.74 378.12,-242.02"/>
</g>
<!-- 9 -->
<g id="node10" class="node">
<title>9</title>
<polygon fill="#fdf3ec" stroke="black" points="718.5,-261 611.5,-261 611.5,-193 718.5,-193 718.5,-261"/>
<text text-anchor="middle" x="665" y="-245.8" font-family="Times,serif" font-size="14.00">CRIM &lt;= 7.538</text>
<text text-anchor="middle" x="665" y="-230.8" font-family="Times,serif" font-size="14.00">mse = 18.552</text>
<text text-anchor="middle" x="665" y="-215.8" font-family="Times,serif" font-size="14.00">samples = 127</text>
<text text-anchor="middle" x="665" y="-200.8" font-family="Times,serif" font-size="14.00">value = 15.035</text>
</g>
<!-- 1&#45;&gt;9 -->
<g id="edge9" class="edge">
<title>1&#45;&gt;9</title>
<path fill="none" stroke="black" d="M665,-296.88C665,-288.78 665,-279.98 665,-271.47"/>
<polygon fill="black" stroke="black" points="668.5,-271.3 665,-261.3 661.5,-271.3 668.5,-271.3"/>
</g>
<!-- 3 -->
<g id="node4" class="node">
<title>3</title>
<polygon fill="#ea995f" stroke="black" points="196.5,-157 97.5,-157 97.5,-89 196.5,-89 196.5,-157"/>
<text text-anchor="middle" x="147" y="-141.8" font-family="Times,serif" font-size="14.00">RM &lt;= 5.912</text>
<text text-anchor="middle" x="147" y="-126.8" font-family="Times,serif" font-size="14.00">mse = 108.536</text>
<text text-anchor="middle" x="147" y="-111.8" font-family="Times,serif" font-size="14.00">samples = 3</text>
<text text-anchor="middle" x="147" y="-96.8" font-family="Times,serif" font-size="14.00">value = 42.633</text>
</g>
<!-- 2&#45;&gt;3 -->
<g id="edge3" class="edge">
<title>2&#45;&gt;3</title>
<path fill="none" stroke="black" d="M268.08,-196.22C248.41,-184.49 225.69,-170.94 205.28,-158.76"/>
<polygon fill="black" stroke="black" points="207.07,-155.75 196.69,-153.64 203.48,-161.77 207.07,-155.75"/>
</g>
<!-- 6 -->
<g id="node7" class="node">
<title>6</title>
<polygon fill="#f7dac4" stroke="black" points="367.5,-157 268.5,-157 268.5,-89 367.5,-89 367.5,-157"/>
<text text-anchor="middle" x="318" y="-141.8" font-family="Times,serif" font-size="14.00">RM &lt;= 6.543</text>
<text text-anchor="middle" x="318" y="-126.8" font-family="Times,serif" font-size="14.00">mse = 13.462</text>
<text text-anchor="middle" x="318" y="-111.8" font-family="Times,serif" font-size="14.00">samples = 173</text>
<text text-anchor="middle" x="318" y="-96.8" font-family="Times,serif" font-size="14.00">value = 22.814</text>
</g>
<!-- 2&#45;&gt;6 -->
<g id="edge6" class="edge">
<title>2&#45;&gt;6</title>
<path fill="none" stroke="black" d="M318,-192.88C318,-184.78 318,-175.98 318,-167.47"/>
<polygon fill="black" stroke="black" points="321.5,-167.3 318,-157.3 314.5,-167.3 321.5,-167.3"/>
</g>
<!-- 4 -->
<g id="node5" class="node">
<title>4</title>
<polygon fill="#f4c9aa" stroke="black" points="86,-53 0,-53 0,0 86,0 86,-53"/>
<text text-anchor="middle" x="43" y="-37.8" font-family="Times,serif" font-size="14.00">mse = 0.0</text>
<text text-anchor="middle" x="43" y="-22.8" font-family="Times,serif" font-size="14.00">samples = 1</text>
<text text-anchor="middle" x="43" y="-7.8" font-family="Times,serif" font-size="14.00">value = 27.9</text>
</g>
<!-- 3&#45;&gt;4 -->
<g id="edge4" class="edge">
<title>3&#45;&gt;4</title>
<path fill="none" stroke="black" d="M110.63,-88.95C100.36,-79.62 89.19,-69.47 78.95,-60.16"/>
<polygon fill="black" stroke="black" points="81.08,-57.37 71.32,-53.24 76.37,-62.55 81.08,-57.37"/>
</g>
<!-- 5 -->
<g id="node6" class="node">
<title>5</title>
<polygon fill="#e58139" stroke="black" points="190,-53 104,-53 104,0 190,0 190,-53"/>
<text text-anchor="middle" x="147" y="-37.8" font-family="Times,serif" font-size="14.00">mse = 0.0</text>
<text text-anchor="middle" x="147" y="-22.8" font-family="Times,serif" font-size="14.00">samples = 2</text>
<text text-anchor="middle" x="147" y="-7.8" font-family="Times,serif" font-size="14.00">value = 50.0</text>
</g>
<!-- 3&#45;&gt;5 -->
<g id="edge5" class="edge">
<title>3&#45;&gt;5</title>
<path fill="none" stroke="black" d="M147,-88.95C147,-80.72 147,-71.85 147,-63.48"/>
<polygon fill="black" stroke="black" points="150.5,-63.24 147,-53.24 143.5,-63.24 150.5,-63.24"/>
</g>
<!-- 7 -->
<g id="node8" class="node">
<title>7</title>
<polygon fill="#f8ddc9" stroke="black" points="305.5,-53 208.5,-53 208.5,0 305.5,0 305.5,-53"/>
<text text-anchor="middle" x="257" y="-37.8" font-family="Times,serif" font-size="14.00">mse = 9.211</text>
<text text-anchor="middle" x="257" y="-22.8" font-family="Times,serif" font-size="14.00">samples = 141</text>
<text text-anchor="middle" x="257" y="-7.8" font-family="Times,serif" font-size="14.00">value = 21.87</text>
</g>
<!-- 6&#45;&gt;7 -->
<g id="edge7" class="edge">
<title>6&#45;&gt;7</title>
<path fill="none" stroke="black" d="M296.67,-88.95C291,-80.17 284.86,-70.66 279.15,-61.82"/>
<polygon fill="black" stroke="black" points="281.98,-59.74 273.61,-53.24 276.1,-63.54 281.98,-59.74"/>
</g>
<!-- 8 -->
<g id="node9" class="node">
<title>8</title>
<polygon fill="#f5ccaf" stroke="black" points="422.5,-53 323.5,-53 323.5,0 422.5,0 422.5,-53"/>
<text text-anchor="middle" x="373" y="-37.8" font-family="Times,serif" font-size="14.00">mse = 10.956</text>
<text text-anchor="middle" x="373" y="-22.8" font-family="Times,serif" font-size="14.00">samples = 32</text>
<text text-anchor="middle" x="373" y="-7.8" font-family="Times,serif" font-size="14.00">value = 26.975</text>
</g>
<!-- 6&#45;&gt;8 -->
<g id="edge8" class="edge">
<title>6&#45;&gt;8</title>
<path fill="none" stroke="black" d="M337.24,-88.95C342.29,-80.26 347.76,-70.86 352.87,-62.09"/>
<polygon fill="black" stroke="black" points="356.02,-63.64 358.02,-53.24 349.97,-60.12 356.02,-63.64"/>
</g>
<!-- 10 -->
<g id="node11" class="node">
<title>10</title>
<polygon fill="#fbece1" stroke="black" points="656.5,-157 557.5,-157 557.5,-89 656.5,-89 656.5,-157"/>
<text text-anchor="middle" x="607" y="-141.8" font-family="Times,serif" font-size="14.00">AGE &lt;= 73.3</text>
<text text-anchor="middle" x="607" y="-126.8" font-family="Times,serif" font-size="14.00">mse = 10.143</text>
<text text-anchor="middle" x="607" y="-111.8" font-family="Times,serif" font-size="14.00">samples = 77</text>
<text text-anchor="middle" x="607" y="-96.8" font-family="Times,serif" font-size="14.00">value = 17.184</text>
</g>
<!-- 9&#45;&gt;10 -->
<g id="edge10" class="edge">
<title>9&#45;&gt;10</title>
<path fill="none" stroke="black" d="M646.17,-192.88C641.31,-184.33 636.01,-175.01 630.92,-166.07"/>
<polygon fill="black" stroke="black" points="633.92,-164.26 625.93,-157.3 627.84,-167.72 633.92,-164.26"/>
</g>
<!-- 13 -->
<g id="node14" class="node">
<title>13</title>
<polygon fill="#fffefd" stroke="black" points="773.5,-157 674.5,-157 674.5,-89 773.5,-89 773.5,-157"/>
<text text-anchor="middle" x="724" y="-141.8" font-family="Times,serif" font-size="14.00">RM &lt;= 6.843</text>
<text text-anchor="middle" x="724" y="-126.8" font-family="Times,serif" font-size="14.00">mse = 13.438</text>
<text text-anchor="middle" x="724" y="-111.8" font-family="Times,serif" font-size="14.00">samples = 50</text>
<text text-anchor="middle" x="724" y="-96.8" font-family="Times,serif" font-size="14.00">value = 11.726</text>
</g>
<!-- 9&#45;&gt;13 -->
<g id="edge13" class="edge">
<title>9&#45;&gt;13</title>
<path fill="none" stroke="black" d="M684.16,-192.88C689.1,-184.33 694.49,-175.01 699.66,-166.07"/>
<polygon fill="black" stroke="black" points="702.76,-167.71 704.74,-157.3 696.7,-164.2 702.76,-167.71"/>
</g>
<!-- 11 -->
<g id="node12" class="node">
<title>11</title>
<polygon fill="#f8dfcd" stroke="black" points="539.5,-53 440.5,-53 440.5,0 539.5,0 539.5,-53"/>
<text text-anchor="middle" x="490" y="-37.8" font-family="Times,serif" font-size="14.00">mse = 3.455</text>
<text text-anchor="middle" x="490" y="-22.8" font-family="Times,serif" font-size="14.00">samples = 13</text>
<text text-anchor="middle" x="490" y="-7.8" font-family="Times,serif" font-size="14.00">value = 21.138</text>
</g>
<!-- 10&#45;&gt;11 -->
<g id="edge11" class="edge">
<title>10&#45;&gt;11</title>
<path fill="none" stroke="black" d="M566.08,-88.95C554.3,-79.43 541.47,-69.07 529.76,-59.62"/>
<polygon fill="black" stroke="black" points="531.84,-56.8 521.86,-53.24 527.44,-62.24 531.84,-56.8"/>
</g>
<!-- 12 -->
<g id="node13" class="node">
<title>12</title>
<polygon fill="#fcefe5" stroke="black" points="656.5,-53 557.5,-53 557.5,0 656.5,0 656.5,-53"/>
<text text-anchor="middle" x="607" y="-37.8" font-family="Times,serif" font-size="14.00">mse = 7.68</text>
<text text-anchor="middle" x="607" y="-22.8" font-family="Times,serif" font-size="14.00">samples = 64</text>
<text text-anchor="middle" x="607" y="-7.8" font-family="Times,serif" font-size="14.00">value = 16.381</text>
</g>
<!-- 10&#45;&gt;12 -->
<g id="edge12" class="edge">
<title>10&#45;&gt;12</title>
<path fill="none" stroke="black" d="M607,-88.95C607,-80.72 607,-71.85 607,-63.48"/>
<polygon fill="black" stroke="black" points="610.5,-63.24 607,-53.24 603.5,-63.24 610.5,-63.24"/>
</g>
<!-- 14 -->
<g id="node15" class="node">
<title>14</title>
<polygon fill="#ffffff" stroke="black" points="773.5,-53 674.5,-53 674.5,0 773.5,0 773.5,-53"/>
<text text-anchor="middle" x="724" y="-37.8" font-family="Times,serif" font-size="14.00">mse = 8.531</text>
<text text-anchor="middle" x="724" y="-22.8" font-family="Times,serif" font-size="14.00">samples = 49</text>
<text text-anchor="middle" x="724" y="-7.8" font-family="Times,serif" font-size="14.00">value = 11.404</text>
</g>
<!-- 13&#45;&gt;14 -->
<g id="edge14" class="edge">
<title>13&#45;&gt;14</title>
<path fill="none" stroke="black" d="M724,-88.95C724,-80.72 724,-71.85 724,-63.48"/>
<polygon fill="black" stroke="black" points="727.5,-63.24 724,-53.24 720.5,-63.24 727.5,-63.24"/>
</g>
<!-- 15 -->
<g id="node16" class="node">
<title>15</title>
<polygon fill="#f4caac" stroke="black" points="878,-53 792,-53 792,0 878,0 878,-53"/>
<text text-anchor="middle" x="835" y="-37.8" font-family="Times,serif" font-size="14.00">mse = 0.0</text>
<text text-anchor="middle" x="835" y="-22.8" font-family="Times,serif" font-size="14.00">samples = 1</text>
<text text-anchor="middle" x="835" y="-7.8" font-family="Times,serif" font-size="14.00">value = 27.5</text>
</g>
<!-- 13&#45;&gt;15 -->
<g id="edge15" class="edge">
<title>13&#45;&gt;15</title>
<path fill="none" stroke="black" d="M762.82,-88.95C773.89,-79.53 785.93,-69.27 796.95,-59.89"/>
<polygon fill="black" stroke="black" points="799.42,-62.38 804.77,-53.24 794.89,-57.05 799.42,-62.38"/>
</g>
<!-- 17 -->
<g id="node18" class="node">
<title>17</title>
<polygon fill="#e9965a" stroke="black" points="1156.5,-261 1057.5,-261 1057.5,-193 1156.5,-193 1156.5,-261"/>
<text text-anchor="middle" x="1107" y="-245.8" font-family="Times,serif" font-size="14.00">RM &lt;= 7.378</text>
<text text-anchor="middle" x="1107" y="-230.8" font-family="Times,serif" font-size="14.00">mse = 39.311</text>
<text text-anchor="middle" x="1107" y="-215.8" font-family="Times,serif" font-size="14.00">samples = 26</text>
<text text-anchor="middle" x="1107" y="-200.8" font-family="Times,serif" font-size="14.00">value = 43.562</text>
</g>
<!-- 16&#45;&gt;17 -->
<g id="edge17" class="edge">
<title>16&#45;&gt;17</title>
<path fill="none" stroke="black" d="M1107,-296.88C1107,-288.78 1107,-279.98 1107,-271.47"/>
<polygon fill="black" stroke="black" points="1110.5,-271.3 1107,-261.3 1103.5,-271.3 1110.5,-271.3"/>
</g>
<!-- 24 -->
<g id="node25" class="node">
<title>24</title>
<polygon fill="#f2be99" stroke="black" points="1488.5,-261 1387.5,-261 1387.5,-193 1488.5,-193 1488.5,-261"/>
<text text-anchor="middle" x="1438" y="-245.8" font-family="Times,serif" font-size="14.00">NOX &lt;= 0.659</text>
<text text-anchor="middle" x="1438" y="-230.8" font-family="Times,serif" font-size="14.00">mse = 41.856</text>
<text text-anchor="middle" x="1438" y="-215.8" font-family="Times,serif" font-size="14.00">samples = 25</text>
<text text-anchor="middle" x="1438" y="-200.8" font-family="Times,serif" font-size="14.00">value = 31.22</text>
</g>
<!-- 16&#45;&gt;24 -->
<g id="edge24" class="edge">
<title>16&#45;&gt;24</title>
<path fill="none" stroke="black" d="M1163.15,-312.7C1222.64,-294.36 1316.25,-265.52 1377.39,-246.68"/>
<polygon fill="black" stroke="black" points="1378.76,-249.92 1387.28,-243.63 1376.7,-243.23 1378.76,-249.92"/>
</g>
<!-- 18 -->
<g id="node19" class="node">
<title>18</title>
<polygon fill="#eeaa7a" stroke="black" points="1096,-157 1004,-157 1004,-89 1096,-89 1096,-157"/>
<text text-anchor="middle" x="1050" y="-141.8" font-family="Times,serif" font-size="14.00">DIS &lt;= 1.54</text>
<text text-anchor="middle" x="1050" y="-126.8" font-family="Times,serif" font-size="14.00">mse = 23.766</text>
<text text-anchor="middle" x="1050" y="-111.8" font-family="Times,serif" font-size="14.00">samples = 10</text>
<text text-anchor="middle" x="1050" y="-96.8" font-family="Times,serif" font-size="14.00">value = 37.34</text>
</g>
<!-- 17&#45;&gt;18 -->
<g id="edge18" class="edge">
<title>17&#45;&gt;18</title>
<path fill="none" stroke="black" d="M1088.49,-192.88C1083.72,-184.33 1078.51,-175.01 1073.51,-166.07"/>
<polygon fill="black" stroke="black" points="1076.54,-164.32 1068.61,-157.3 1070.43,-167.74 1076.54,-164.32"/>
</g>
<!-- 21 -->
<g id="node22" class="node">
<title>21</title>
<polygon fill="#e78946" stroke="black" points="1213.5,-157 1114.5,-157 1114.5,-89 1213.5,-89 1213.5,-157"/>
<text text-anchor="middle" x="1164" y="-141.8" font-family="Times,serif" font-size="14.00">AGE &lt;= 16.35</text>
<text text-anchor="middle" x="1164" y="-126.8" font-family="Times,serif" font-size="14.00">mse = 9.714</text>
<text text-anchor="middle" x="1164" y="-111.8" font-family="Times,serif" font-size="14.00">samples = 16</text>
<text text-anchor="middle" x="1164" y="-96.8" font-family="Times,serif" font-size="14.00">value = 47.45</text>
</g>
<!-- 17&#45;&gt;21 -->
<g id="edge21" class="edge">
<title>17&#45;&gt;21</title>
<path fill="none" stroke="black" d="M1125.51,-192.88C1130.28,-184.33 1135.49,-175.01 1140.49,-166.07"/>
<polygon fill="black" stroke="black" points="1143.57,-167.74 1145.39,-157.3 1137.46,-164.32 1143.57,-167.74"/>
</g>
<!-- 19 -->
<g id="node20" class="node">
<title>19</title>
<polygon fill="#e58139" stroke="black" points="982,-53 896,-53 896,0 982,0 982,-53"/>
<text text-anchor="middle" x="939" y="-37.8" font-family="Times,serif" font-size="14.00">mse = 0.0</text>
<text text-anchor="middle" x="939" y="-22.8" font-family="Times,serif" font-size="14.00">samples = 1</text>
<text text-anchor="middle" x="939" y="-7.8" font-family="Times,serif" font-size="14.00">value = 50.0</text>
</g>
<!-- 18&#45;&gt;19 -->
<g id="edge19" class="edge">
<title>18&#45;&gt;19</title>
<path fill="none" stroke="black" d="M1011.18,-88.95C1000.11,-79.53 988.07,-69.27 977.05,-59.89"/>
<polygon fill="black" stroke="black" points="979.11,-57.05 969.23,-53.24 974.58,-62.38 979.11,-57.05"/>
</g>
<!-- 20 -->
<g id="node21" class="node">
<title>20</title>
<polygon fill="#eeaf81" stroke="black" points="1099.5,-53 1000.5,-53 1000.5,0 1099.5,0 1099.5,-53"/>
<text text-anchor="middle" x="1050" y="-37.8" font-family="Times,serif" font-size="14.00">mse = 6.62</text>
<text text-anchor="middle" x="1050" y="-22.8" font-family="Times,serif" font-size="14.00">samples = 9</text>
<text text-anchor="middle" x="1050" y="-7.8" font-family="Times,serif" font-size="14.00">value = 35.933</text>
</g>
<!-- 18&#45;&gt;20 -->
<g id="edge20" class="edge">
<title>18&#45;&gt;20</title>
<path fill="none" stroke="black" d="M1050,-88.95C1050,-80.72 1050,-71.85 1050,-63.48"/>
<polygon fill="black" stroke="black" points="1053.5,-63.24 1050,-53.24 1046.5,-63.24 1053.5,-63.24"/>
</g>
<!-- 22 -->
<g id="node23" class="node">
<title>22</title>
<polygon fill="#ea995f" stroke="black" points="1210,-53 1118,-53 1118,0 1210,0 1210,-53"/>
<text text-anchor="middle" x="1164" y="-37.8" font-family="Times,serif" font-size="14.00">mse = 0.062</text>
<text text-anchor="middle" x="1164" y="-22.8" font-family="Times,serif" font-size="14.00">samples = 2</text>
<text text-anchor="middle" x="1164" y="-7.8" font-family="Times,serif" font-size="14.00">value = 42.55</text>
</g>
<!-- 21&#45;&gt;22 -->
<g id="edge22" class="edge">
<title>21&#45;&gt;22</title>
<path fill="none" stroke="black" d="M1164,-88.95C1164,-80.72 1164,-71.85 1164,-63.48"/>
<polygon fill="black" stroke="black" points="1167.5,-63.24 1164,-53.24 1160.5,-63.24 1167.5,-63.24"/>
</g>
<!-- 23 -->
<g id="node24" class="node">
<title>23</title>
<polygon fill="#e68742" stroke="black" points="1320,-53 1228,-53 1228,0 1320,0 1320,-53"/>
<text text-anchor="middle" x="1274" y="-37.8" font-family="Times,serif" font-size="14.00">mse = 7.173</text>
<text text-anchor="middle" x="1274" y="-22.8" font-family="Times,serif" font-size="14.00">samples = 14</text>
<text text-anchor="middle" x="1274" y="-7.8" font-family="Times,serif" font-size="14.00">value = 48.15</text>
</g>
<!-- 21&#45;&gt;23 -->
<g id="edge23" class="edge">
<title>21&#45;&gt;23</title>
<path fill="none" stroke="black" d="M1202.47,-88.95C1213.44,-79.53 1225.38,-69.27 1236.3,-59.89"/>
<polygon fill="black" stroke="black" points="1238.74,-62.41 1244.04,-53.24 1234.18,-57.1 1238.74,-62.41"/>
</g>
<!-- 25 -->
<g id="node26" class="node">
<title>25</title>
<polygon fill="#f0b990" stroke="black" points="1487.5,-157 1388.5,-157 1388.5,-89 1487.5,-89 1487.5,-157"/>
<text text-anchor="middle" x="1438" y="-141.8" font-family="Times,serif" font-size="14.00">RM &lt;= 7.083</text>
<text text-anchor="middle" x="1438" y="-126.8" font-family="Times,serif" font-size="14.00">mse = 20.334</text>
<text text-anchor="middle" x="1438" y="-111.8" font-family="Times,serif" font-size="14.00">samples = 22</text>
<text text-anchor="middle" x="1438" y="-96.8" font-family="Times,serif" font-size="14.00">value = 32.991</text>
</g>
<!-- 24&#45;&gt;25 -->
<g id="edge25" class="edge">
<title>24&#45;&gt;25</title>
<path fill="none" stroke="black" d="M1438,-192.88C1438,-184.78 1438,-175.98 1438,-167.47"/>
<polygon fill="black" stroke="black" points="1441.5,-167.3 1438,-157.3 1434.5,-167.3 1441.5,-167.3"/>
</g>
<!-- 28 -->
<g id="node29" class="node">
<title>28</title>
<polygon fill="#fae9dc" stroke="black" points="1658.5,-157 1559.5,-157 1559.5,-89 1658.5,-89 1658.5,-157"/>
<text text-anchor="middle" x="1609" y="-141.8" font-family="Times,serif" font-size="14.00">AGE &lt;= 90.4</text>
<text text-anchor="middle" x="1609" y="-126.8" font-family="Times,serif" font-size="14.00">mse = 8.029</text>
<text text-anchor="middle" x="1609" y="-111.8" font-family="Times,serif" font-size="14.00">samples = 3</text>
<text text-anchor="middle" x="1609" y="-96.8" font-family="Times,serif" font-size="14.00">value = 18.233</text>
</g>
<!-- 24&#45;&gt;28 -->
<g id="edge28" class="edge">
<title>24&#45;&gt;28</title>
<path fill="none" stroke="black" d="M1488.84,-195.67C1508.22,-184.11 1530.47,-170.85 1550.5,-158.89"/>
<polygon fill="black" stroke="black" points="1552.44,-161.81 1559.24,-153.68 1548.86,-155.8 1552.44,-161.81"/>
</g>
<!-- 26 -->
<g id="node27" class="node">
<title>26</title>
<polygon fill="#f5ceb1" stroke="black" points="1430,-53 1338,-53 1338,0 1430,0 1430,-53"/>
<text text-anchor="middle" x="1384" y="-37.8" font-family="Times,serif" font-size="14.00">mse = 6.186</text>
<text text-anchor="middle" x="1384" y="-22.8" font-family="Times,serif" font-size="14.00">samples = 5</text>
<text text-anchor="middle" x="1384" y="-7.8" font-family="Times,serif" font-size="14.00">value = 26.54</text>
</g>
<!-- 25&#45;&gt;26 -->
<g id="edge26" class="edge">
<title>25&#45;&gt;26</title>
<path fill="none" stroke="black" d="M1419.11,-88.95C1414.15,-80.26 1408.78,-70.86 1403.77,-62.09"/>
<polygon fill="black" stroke="black" points="1406.71,-60.18 1398.71,-53.24 1400.63,-63.66 1406.71,-60.18"/>
</g>
<!-- 27 -->
<g id="node28" class="node">
<title>27</title>
<polygon fill="#efb287" stroke="black" points="1547.5,-53 1448.5,-53 1448.5,0 1547.5,0 1547.5,-53"/>
<text text-anchor="middle" x="1498" y="-37.8" font-family="Times,serif" font-size="14.00">mse = 8.656</text>
<text text-anchor="middle" x="1498" y="-22.8" font-family="Times,serif" font-size="14.00">samples = 17</text>
<text text-anchor="middle" x="1498" y="-7.8" font-family="Times,serif" font-size="14.00">value = 34.888</text>
</g>
<!-- 25&#45;&gt;27 -->
<g id="edge27" class="edge">
<title>25&#45;&gt;27</title>
<path fill="none" stroke="black" d="M1458.99,-88.95C1464.56,-80.17 1470.59,-70.66 1476.21,-61.82"/>
<polygon fill="black" stroke="black" points="1479.25,-63.55 1481.66,-53.24 1473.34,-59.8 1479.25,-63.55"/>
</g>
<!-- 29 -->
<g id="node30" class="node">
<title>29</title>
<polygon fill="#f8ddc9" stroke="black" points="1652,-53 1566,-53 1566,0 1652,0 1652,-53"/>
<text text-anchor="middle" x="1609" y="-37.8" font-family="Times,serif" font-size="14.00">mse = 0.0</text>
<text text-anchor="middle" x="1609" y="-22.8" font-family="Times,serif" font-size="14.00">samples = 1</text>
<text text-anchor="middle" x="1609" y="-7.8" font-family="Times,serif" font-size="14.00">value = 21.9</text>
</g>
<!-- 28&#45;&gt;29 -->
<g id="edge29" class="edge">
<title>28&#45;&gt;29</title>
<path fill="none" stroke="black" d="M1609,-88.95C1609,-80.72 1609,-71.85 1609,-63.48"/>
<polygon fill="black" stroke="black" points="1612.5,-63.24 1609,-53.24 1605.5,-63.24 1612.5,-63.24"/>
</g>
<!-- 30 -->
<g id="node31" class="node">
<title>30</title>
<polygon fill="#fcefe5" stroke="black" points="1756,-53 1670,-53 1670,0 1756,0 1756,-53"/>
<text text-anchor="middle" x="1713" y="-37.8" font-family="Times,serif" font-size="14.00">mse = 1.96</text>
<text text-anchor="middle" x="1713" y="-22.8" font-family="Times,serif" font-size="14.00">samples = 2</text>
<text text-anchor="middle" x="1713" y="-7.8" font-family="Times,serif" font-size="14.00">value = 16.4</text>
</g>
<!-- 28&#45;&gt;30 -->
<g id="edge30" class="edge">
<title>28&#45;&gt;30</title>
<path fill="none" stroke="black" d="M1645.37,-88.95C1655.64,-79.62 1666.81,-69.47 1677.05,-60.16"/>
<polygon fill="black" stroke="black" points="1679.63,-62.55 1684.68,-53.24 1674.92,-57.37 1679.63,-62.55"/>
</g>
</g>
</svg>
