<?xml version="1.0" encoding="UTF-8" standalone="no"?>
<!DOCTYPE svg PUBLIC "-//W3C//DTD SVG 1.1//EN"
 "http://www.w3.org/Graphics/SVG/1.1/DTD/svg11.dtd">
<!-- Generated by graphviz version 2.46.1 (20210213.1702)
 -->
<!-- Title: Tree Pages: 1 -->
<svg width="1337pt" height="477pt"
 viewBox="0.00 0.00 1337.00 477.00" xmlns="http://www.w3.org/2000/svg" xmlns:xlink="http://www.w3.org/1999/xlink">
<g id="graph0" class="graph" transform="scale(1 1) rotate(0) translate(4 473)">
<title>Tree</title>
<polygon fill="white" stroke="transparent" points="-4,4 -4,-473 1333,-473 1333,4 -4,4"/>
<!-- 0 -->
<g id="node1" class="node">
<title>0</title>
<polygon fill="#f7d8c2" stroke="black" points="687,-469 575,-469 575,-401 687,-401 687,-469"/>
<text text-anchor="middle" x="631" y="-453.8" font-family="Times,serif" font-size="14.00">LSTAT &lt;= 7.535</text>
<text text-anchor="middle" x="631" y="-438.8" font-family="Times,serif" font-size="14.00">mse = 81.753</text>
<text text-anchor="middle" x="631" y="-423.8" font-family="Times,serif" font-size="14.00">samples = 354</text>
<text text-anchor="middle" x="631" y="-408.8" font-family="Times,serif" font-size="14.00">value = 22.114</text>
</g>
<!-- 1 -->
<g id="node2" class="node">
<title>1</title>
<polygon fill="#f1b991" stroke="black" points="617.5,-365 524.5,-365 524.5,-297 617.5,-297 617.5,-365"/>
<text text-anchor="middle" x="571" y="-349.8" font-family="Times,serif" font-size="14.00">RM &lt;= 7.445</text>
<text text-anchor="middle" x="571" y="-334.8" font-family="Times,serif" font-size="14.00">mse = 73.774</text>
<text text-anchor="middle" x="571" y="-319.8" font-family="Times,serif" font-size="14.00">samples = 97</text>
<text text-anchor="middle" x="571" y="-304.8" font-family="Times,serif" font-size="14.00">value = 31.98</text>
</g>
<!-- 0&#45;&gt;1 -->
<g id="edge1" class="edge">
<title>0&#45;&gt;1</title>
<path fill="none" stroke="black" d="M611.52,-400.88C606.49,-392.33 601.01,-383.01 595.75,-374.07"/>
<polygon fill="black" stroke="black" points="598.67,-372.14 590.59,-365.3 592.64,-375.69 598.67,-372.14"/>
<text text-anchor="middle" x="584.31" y="-385.8" font-family="Times,serif" font-size="14.00">True</text>
</g>
<!-- 14 -->
<g id="node15" class="node">
<title>14</title>
<polygon fill="#f9e4d4" stroke="black" points="790.5,-365 685.5,-365 685.5,-297 790.5,-297 790.5,-365"/>
<text text-anchor="middle" x="738" y="-349.8" font-family="Times,serif" font-size="14.00">LSTAT &lt;= 15.0</text>
<text text-anchor="middle" x="738" y="-334.8" font-family="Times,serif" font-size="14.00">mse = 34.16</text>
<text text-anchor="middle" x="738" y="-319.8" font-family="Times,serif" font-size="14.00">samples = 257</text>
<text text-anchor="middle" x="738" y="-304.8" font-family="Times,serif" font-size="14.00">value = 18.391</text>
</g>
<!-- 0&#45;&gt;14 -->
<g id="edge14" class="edge">
<title>0&#45;&gt;14</title>
<path fill="none" stroke="black" d="M665.74,-400.88C675.27,-391.8 685.71,-381.85 695.62,-372.4"/>
<polygon fill="black" stroke="black" points="698.25,-374.73 703.07,-365.3 693.42,-369.67 698.25,-374.73"/>
<text text-anchor="middle" x="702.47" y="-386.59" font-family="Times,serif" font-size="14.00">False</text>
</g>
<!-- 2 -->
<g id="node3" class="node">
<title>2</title>
<polygon fill="#f3c3a1" stroke="black" points="418.5,-261 319.5,-261 319.5,-193 418.5,-193 418.5,-261"/>
<text text-anchor="middle" x="369" y="-245.8" font-family="Times,serif" font-size="14.00">RM &lt;= 6.797</text>
<text text-anchor="middle" x="369" y="-230.8" font-family="Times,serif" font-size="14.00">mse = 32.774</text>
<text text-anchor="middle" x="369" y="-215.8" font-family="Times,serif" font-size="14.00">samples = 79</text>
<text text-anchor="middle" x="369" y="-200.8" font-family="Times,serif" font-size="14.00">value = 28.819</text>
</g>
<!-- 1&#45;&gt;2 -->
<g id="edge2" class="edge">
<title>1&#45;&gt;2</title>
<path fill="none" stroke="black" d="M524.4,-306.47C495.68,-291.97 458.6,-273.24 427.86,-257.72"/>
<polygon fill="black" stroke="black" points="429.04,-254.4 418.54,-253.01 425.88,-260.65 429.04,-254.4"/>
</g>
<!-- 9 -->
<g id="node10" class="node">
<title>9</title>
<polygon fill="#e88e4d" stroke="black" points="624.5,-261 517.5,-261 517.5,-193 624.5,-193 624.5,-261"/>
<text text-anchor="middle" x="571" y="-245.8" font-family="Times,serif" font-size="14.00">CRIM &lt;= 0.577</text>
<text text-anchor="middle" x="571" y="-230.8" font-family="Times,serif" font-size="14.00">mse = 17.331</text>
<text text-anchor="middle" x="571" y="-215.8" font-family="Times,serif" font-size="14.00">samples = 18</text>
<text text-anchor="middle" x="571" y="-200.8" font-family="Times,serif" font-size="14.00">value = 45.856</text>
</g>
<!-- 1&#45;&gt;9 -->
<g id="edge9" class="edge">
<title>1&#45;&gt;9</title>
<path fill="none" stroke="black" d="M571,-296.88C571,-288.78 571,-279.98 571,-271.47"/>
<polygon fill="black" stroke="black" points="574.5,-271.3 571,-261.3 567.5,-271.3 574.5,-271.3"/>
</g>
<!-- 3 -->
<g id="node4" class="node">
<title>3</title>
<polygon fill="#f4ccae" stroke="black" points="203.5,-157 104.5,-157 104.5,-89 203.5,-89 203.5,-157"/>
<text text-anchor="middle" x="154" y="-141.8" font-family="Times,serif" font-size="14.00">DIS &lt;= 1.473</text>
<text text-anchor="middle" x="154" y="-126.8" font-family="Times,serif" font-size="14.00">mse = 21.943</text>
<text text-anchor="middle" x="154" y="-111.8" font-family="Times,serif" font-size="14.00">samples = 48</text>
<text text-anchor="middle" x="154" y="-96.8" font-family="Times,serif" font-size="14.00">value = 26.052</text>
</g>
<!-- 2&#45;&gt;3 -->
<g id="edge3" class="edge">
<title>2&#45;&gt;3</title>
<path fill="none" stroke="black" d="M319.4,-202.47C287.67,-187.41 246.33,-167.8 212.92,-151.95"/>
<polygon fill="black" stroke="black" points="214.25,-148.71 203.72,-147.59 211.25,-155.04 214.25,-148.71"/>
</g>
<!-- 6 -->
<g id="node7" class="node">
<title>6</title>
<polygon fill="#f0b68c" stroke="black" points="418.5,-157 319.5,-157 319.5,-89 418.5,-89 418.5,-157"/>
<text text-anchor="middle" x="369" y="-141.8" font-family="Times,serif" font-size="14.00">TAX &lt;= 534.0</text>
<text text-anchor="middle" x="369" y="-126.8" font-family="Times,serif" font-size="14.00">mse = 19.336</text>
<text text-anchor="middle" x="369" y="-111.8" font-family="Times,serif" font-size="14.00">samples = 31</text>
<text text-anchor="middle" x="369" y="-96.8" font-family="Times,serif" font-size="14.00">value = 33.103</text>
</g>
<!-- 2&#45;&gt;6 -->
<g id="edge6" class="edge">
<title>2&#45;&gt;6</title>
<path fill="none" stroke="black" d="M369,-192.88C369,-184.78 369,-175.98 369,-167.47"/>
<polygon fill="black" stroke="black" points="372.5,-167.3 369,-157.3 365.5,-167.3 372.5,-167.3"/>
</g>
<!-- 4 -->
<g id="node5" class="node">
<title>4</title>
<polygon fill="#e58139" stroke="black" points="86,-53 0,-53 0,0 86,0 86,-53"/>
<text text-anchor="middle" x="43" y="-37.8" font-family="Times,serif" font-size="14.00">mse = 0.0</text>
<text text-anchor="middle" x="43" y="-22.8" font-family="Times,serif" font-size="14.00">samples = 1</text>
<text text-anchor="middle" x="43" y="-7.8" font-family="Times,serif" font-size="14.00">value = 50.0</text>
</g>
<!-- 3&#45;&gt;4 -->
<g id="edge4" class="edge">
<title>3&#45;&gt;4</title>
<path fill="none" stroke="black" d="M115.18,-88.95C104.11,-79.53 92.07,-69.27 81.05,-59.89"/>
<polygon fill="black" stroke="black" points="83.11,-57.05 73.23,-53.24 78.58,-62.38 83.11,-57.05"/>
</g>
<!-- 5 -->
<g id="node6" class="node">
<title>5</title>
<polygon fill="#f5cdb1" stroke="black" points="203.5,-53 104.5,-53 104.5,0 203.5,0 203.5,-53"/>
<text text-anchor="middle" x="154" y="-37.8" font-family="Times,serif" font-size="14.00">mse = 9.948</text>
<text text-anchor="middle" x="154" y="-22.8" font-family="Times,serif" font-size="14.00">samples = 47</text>
<text text-anchor="middle" x="154" y="-7.8" font-family="Times,serif" font-size="14.00">value = 25.543</text>
</g>
<!-- 3&#45;&gt;5 -->
<g id="edge5" class="edge">
<title>3&#45;&gt;5</title>
<path fill="none" stroke="black" d="M154,-88.95C154,-80.72 154,-71.85 154,-63.48"/>
<polygon fill="black" stroke="black" points="157.5,-63.24 154,-53.24 150.5,-63.24 157.5,-63.24"/>
</g>
<!-- 7 -->
<g id="node8" class="node">
<title>7</title>
<polygon fill="#f0b78f" stroke="black" points="314,-53 222,-53 222,0 314,0 314,-53"/>
<text text-anchor="middle" x="268" y="-37.8" font-family="Times,serif" font-size="14.00">mse = 10.146</text>
<text text-anchor="middle" x="268" y="-22.8" font-family="Times,serif" font-size="14.00">samples = 30</text>
<text text-anchor="middle" x="268" y="-7.8" font-family="Times,serif" font-size="14.00">value = 32.54</text>
</g>
<!-- 6&#45;&gt;7 -->
<g id="edge7" class="edge">
<title>6&#45;&gt;7</title>
<path fill="none" stroke="black" d="M333.68,-88.95C323.7,-79.62 312.86,-69.47 302.91,-60.16"/>
<polygon fill="black" stroke="black" points="305.2,-57.51 295.51,-53.24 300.42,-62.62 305.2,-57.51"/>
</g>
<!-- 8 -->
<g id="node9" class="node">
<title>8</title>
<polygon fill="#e58139" stroke="black" points="418,-53 332,-53 332,0 418,0 418,-53"/>
<text text-anchor="middle" x="375" y="-37.8" font-family="Times,serif" font-size="14.00">mse = 0.0</text>
<text text-anchor="middle" x="375" y="-22.8" font-family="Times,serif" font-size="14.00">samples = 1</text>
<text text-anchor="middle" x="375" y="-7.8" font-family="Times,serif" font-size="14.00">value = 50.0</text>
</g>
<!-- 6&#45;&gt;8 -->
<g id="edge8" class="edge">
<title>6&#45;&gt;8</title>
<path fill="none" stroke="black" d="M371.1,-88.95C371.62,-80.72 372.18,-71.85 372.72,-63.48"/>
<polygon fill="black" stroke="black" points="376.23,-63.44 373.37,-53.24 369.24,-62.99 376.23,-63.44"/>
</g>
<!-- 10 -->
<g id="node11" class="node">
<title>10</title>
<polygon fill="#e89253" stroke="black" points="535.5,-157 436.5,-157 436.5,-89 535.5,-89 535.5,-157"/>
<text text-anchor="middle" x="486" y="-141.8" font-family="Times,serif" font-size="14.00">TAX &lt;= 259.5</text>
<text text-anchor="middle" x="486" y="-126.8" font-family="Times,serif" font-size="14.00">mse = 15.973</text>
<text text-anchor="middle" x="486" y="-111.8" font-family="Times,serif" font-size="14.00">samples = 14</text>
<text text-anchor="middle" x="486" y="-96.8" font-family="Times,serif" font-size="14.00">value = 44.671</text>
</g>
<!-- 9&#45;&gt;10 -->
<g id="edge10" class="edge">
<title>9&#45;&gt;10</title>
<path fill="none" stroke="black" d="M543.4,-192.88C536.05,-184.07 528.03,-174.43 520.36,-165.24"/>
<polygon fill="black" stroke="black" points="522.84,-162.74 513.75,-157.3 517.46,-167.22 522.84,-162.74"/>
</g>
<!-- 13 -->
<g id="node14" class="node">
<title>13</title>
<polygon fill="#e58139" stroke="black" points="640,-149.5 554,-149.5 554,-96.5 640,-96.5 640,-149.5"/>
<text text-anchor="middle" x="597" y="-134.3" font-family="Times,serif" font-size="14.00">mse = 0.0</text>
<text text-anchor="middle" x="597" y="-119.3" font-family="Times,serif" font-size="14.00">samples = 4</text>
<text text-anchor="middle" x="597" y="-104.3" font-family="Times,serif" font-size="14.00">value = 50.0</text>
</g>
<!-- 9&#45;&gt;13 -->
<g id="edge13" class="edge">
<title>9&#45;&gt;13</title>
<path fill="none" stroke="black" d="M579.44,-192.88C582.16,-182.22 585.18,-170.35 587.95,-159.52"/>
<polygon fill="black" stroke="black" points="591.42,-160.07 590.49,-149.52 584.63,-158.35 591.42,-160.07"/>
</g>
<!-- 11 -->
<g id="node12" class="node">
<title>11</title>
<polygon fill="#e58139" stroke="black" points="522,-53 436,-53 436,0 522,0 522,-53"/>
<text text-anchor="middle" x="479" y="-37.8" font-family="Times,serif" font-size="14.00">mse = 0.0</text>
<text text-anchor="middle" x="479" y="-22.8" font-family="Times,serif" font-size="14.00">samples = 2</text>
<text text-anchor="middle" x="479" y="-7.8" font-family="Times,serif" font-size="14.00">value = 50.0</text>
</g>
<!-- 10&#45;&gt;11 -->
<g id="edge11" class="edge">
<title>10&#45;&gt;11</title>
<path fill="none" stroke="black" d="M483.55,-88.95C482.94,-80.72 482.29,-71.85 481.67,-63.48"/>
<polygon fill="black" stroke="black" points="485.14,-62.95 480.91,-53.24 478.15,-63.47 485.14,-62.95"/>
</g>
<!-- 12 -->
<g id="node13" class="node">
<title>12</title>
<polygon fill="#e99457" stroke="black" points="639.5,-53 540.5,-53 540.5,0 639.5,0 639.5,-53"/>
<text text-anchor="middle" x="590" y="-37.8" font-family="Times,serif" font-size="14.00">mse = 13.115</text>
<text text-anchor="middle" x="590" y="-22.8" font-family="Times,serif" font-size="14.00">samples = 12</text>
<text text-anchor="middle" x="590" y="-7.8" font-family="Times,serif" font-size="14.00">value = 43.783</text>
</g>
<!-- 10&#45;&gt;12 -->
<g id="edge12" class="edge">
<title>10&#45;&gt;12</title>
<path fill="none" stroke="black" d="M522.37,-88.95C532.64,-79.62 543.81,-69.47 554.05,-60.16"/>
<polygon fill="black" stroke="black" points="556.63,-62.55 561.68,-53.24 551.92,-57.37 556.63,-62.55"/>
</g>
<!-- 15 -->
<g id="node16" class="node">
<title>15</title>
<polygon fill="#f7d9c3" stroke="black" points="787.5,-261 688.5,-261 688.5,-193 787.5,-193 787.5,-261"/>
<text text-anchor="middle" x="738" y="-245.8" font-family="Times,serif" font-size="14.00">DIS &lt;= 1.243</text>
<text text-anchor="middle" x="738" y="-230.8" font-family="Times,serif" font-size="14.00">mse = 21.811</text>
<text text-anchor="middle" x="738" y="-215.8" font-family="Times,serif" font-size="14.00">samples = 138</text>
<text text-anchor="middle" x="738" y="-200.8" font-family="Times,serif" font-size="14.00">value = 21.799</text>
</g>
<!-- 14&#45;&gt;15 -->
<g id="edge15" class="edge">
<title>14&#45;&gt;15</title>
<path fill="none" stroke="black" d="M738,-296.88C738,-288.78 738,-279.98 738,-271.47"/>
<polygon fill="black" stroke="black" points="741.5,-271.3 738,-261.3 734.5,-271.3 741.5,-271.3"/>
</g>
<!-- 20 -->
<g id="node21" class="node">
<title>20</title>
<polygon fill="#fcf0e7" stroke="black" points="996.5,-261 889.5,-261 889.5,-193 996.5,-193 996.5,-261"/>
<text text-anchor="middle" x="943" y="-245.8" font-family="Times,serif" font-size="14.00">CRIM &lt;= 9.085</text>
<text text-anchor="middle" x="943" y="-230.8" font-family="Times,serif" font-size="14.00">mse = 19.395</text>
<text text-anchor="middle" x="943" y="-215.8" font-family="Times,serif" font-size="14.00">samples = 119</text>
<text text-anchor="middle" x="943" y="-200.8" font-family="Times,serif" font-size="14.00">value = 14.439</text>
</g>
<!-- 14&#45;&gt;20 -->
<g id="edge20" class="edge">
<title>14&#45;&gt;20</title>
<path fill="none" stroke="black" d="M790.53,-303.86C817.82,-290.28 851.38,-273.59 880.06,-259.32"/>
<polygon fill="black" stroke="black" points="881.79,-262.37 889.18,-254.78 878.67,-256.1 881.79,-262.37"/>
</g>
<!-- 16 -->
<g id="node17" class="node">
<title>16</title>
<polygon fill="#e58139" stroke="black" points="753,-149.5 667,-149.5 667,-96.5 753,-96.5 753,-149.5"/>
<text text-anchor="middle" x="710" y="-134.3" font-family="Times,serif" font-size="14.00">mse = 0.0</text>
<text text-anchor="middle" x="710" y="-119.3" font-family="Times,serif" font-size="14.00">samples = 1</text>
<text text-anchor="middle" x="710" y="-104.3" font-family="Times,serif" font-size="14.00">value = 50.0</text>
</g>
<!-- 15&#45;&gt;16 -->
<g id="edge16" class="edge">
<title>15&#45;&gt;16</title>
<path fill="none" stroke="black" d="M728.91,-192.88C725.95,-182.11 722.66,-170.11 719.66,-159.18"/>
<polygon fill="black" stroke="black" points="723.03,-158.24 717.01,-149.52 716.28,-160.09 723.03,-158.24"/>
</g>
<!-- 17 -->
<g id="node18" class="node">
<title>17</title>
<polygon fill="#f7dac4" stroke="black" points="870.5,-157 771.5,-157 771.5,-89 870.5,-89 870.5,-157"/>
<text text-anchor="middle" x="821" y="-141.8" font-family="Times,serif" font-size="14.00">RM &lt;= 6.605</text>
<text text-anchor="middle" x="821" y="-126.8" font-family="Times,serif" font-size="14.00">mse = 16.123</text>
<text text-anchor="middle" x="821" y="-111.8" font-family="Times,serif" font-size="14.00">samples = 137</text>
<text text-anchor="middle" x="821" y="-96.8" font-family="Times,serif" font-size="14.00">value = 21.593</text>
</g>
<!-- 15&#45;&gt;17 -->
<g id="edge17" class="edge">
<title>15&#45;&gt;17</title>
<path fill="none" stroke="black" d="M764.95,-192.88C772.12,-184.07 779.96,-174.43 787.45,-165.24"/>
<polygon fill="black" stroke="black" points="790.31,-167.26 793.9,-157.3 784.88,-162.85 790.31,-167.26"/>
</g>
<!-- 18 -->
<g id="node19" class="node">
<title>18</title>
<polygon fill="#f8dcc8" stroke="black" points="756.5,-53 657.5,-53 657.5,0 756.5,0 756.5,-53"/>
<text text-anchor="middle" x="707" y="-37.8" font-family="Times,serif" font-size="14.00">mse = 9.419</text>
<text text-anchor="middle" x="707" y="-22.8" font-family="Times,serif" font-size="14.00">samples = 121</text>
<text text-anchor="middle" x="707" y="-7.8" font-family="Times,serif" font-size="14.00">value = 20.807</text>
</g>
<!-- 17&#45;&gt;18 -->
<g id="edge18" class="edge">
<title>17&#45;&gt;18</title>
<path fill="none" stroke="black" d="M781.13,-88.95C769.76,-79.53 757.39,-69.27 746.07,-59.89"/>
<polygon fill="black" stroke="black" points="747.98,-56.92 738.05,-53.24 743.51,-62.31 747.98,-56.92"/>
</g>
<!-- 19 -->
<g id="node20" class="node">
<title>19</title>
<polygon fill="#f3c7a7" stroke="black" points="873.5,-53 774.5,-53 774.5,0 873.5,0 873.5,-53"/>
<text text-anchor="middle" x="824" y="-37.8" font-family="Times,serif" font-size="14.00">mse = 26.807</text>
<text text-anchor="middle" x="824" y="-22.8" font-family="Times,serif" font-size="14.00">samples = 16</text>
<text text-anchor="middle" x="824" y="-7.8" font-family="Times,serif" font-size="14.00">value = 27.538</text>
</g>
<!-- 17&#45;&gt;19 -->
<g id="edge19" class="edge">
<title>17&#45;&gt;19</title>
<path fill="none" stroke="black" d="M822.05,-88.95C822.31,-80.72 822.59,-71.85 822.86,-63.48"/>
<polygon fill="black" stroke="black" points="826.36,-63.34 823.18,-53.24 819.37,-63.12 826.36,-63.34"/>
</g>
<!-- 21 -->
<g id="node22" class="node">
<title>21</title>
<polygon fill="#fae9dc" stroke="black" points="996.5,-157 889.5,-157 889.5,-89 996.5,-89 996.5,-157"/>
<text text-anchor="middle" x="943" y="-141.8" font-family="Times,serif" font-size="14.00">CRIM &lt;= 0.654</text>
<text text-anchor="middle" x="943" y="-126.8" font-family="Times,serif" font-size="14.00">mse = 10.846</text>
<text text-anchor="middle" x="943" y="-111.8" font-family="Times,serif" font-size="14.00">samples = 71</text>
<text text-anchor="middle" x="943" y="-96.8" font-family="Times,serif" font-size="14.00">value = 16.796</text>
</g>
<!-- 20&#45;&gt;21 -->
<g id="edge21" class="edge">
<title>20&#45;&gt;21</title>
<path fill="none" stroke="black" d="M943,-192.88C943,-184.78 943,-175.98 943,-167.47"/>
<polygon fill="black" stroke="black" points="946.5,-167.3 943,-157.3 939.5,-167.3 946.5,-167.3"/>
</g>
<!-- 24 -->
<g id="node25" class="node">
<title>24</title>
<polygon fill="#fefbf8" stroke="black" points="1219.5,-157 1118.5,-157 1118.5,-89 1219.5,-89 1219.5,-157"/>
<text text-anchor="middle" x="1169" y="-141.8" font-family="Times,serif" font-size="14.00">NOX &lt;= 0.675</text>
<text text-anchor="middle" x="1169" y="-126.8" font-family="Times,serif" font-size="14.00">mse = 11.666</text>
<text text-anchor="middle" x="1169" y="-111.8" font-family="Times,serif" font-size="14.00">samples = 48</text>
<text text-anchor="middle" x="1169" y="-96.8" font-family="Times,serif" font-size="14.00">value = 10.952</text>
</g>
<!-- 20&#45;&gt;24 -->
<g id="edge24" class="edge">
<title>20&#45;&gt;24</title>
<path fill="none" stroke="black" d="M996.56,-201.83C1030.35,-186.58 1074.05,-166.85 1109.01,-151.08"/>
<polygon fill="black" stroke="black" points="1110.48,-154.25 1118.15,-146.95 1107.6,-147.87 1110.48,-154.25"/>
</g>
<!-- 22 -->
<g id="node23" class="node">
<title>22</title>
<polygon fill="#f9e3d3" stroke="black" points="990.5,-53 891.5,-53 891.5,0 990.5,0 990.5,-53"/>
<text text-anchor="middle" x="941" y="-37.8" font-family="Times,serif" font-size="14.00">mse = 11.755</text>
<text text-anchor="middle" x="941" y="-22.8" font-family="Times,serif" font-size="14.00">samples = 32</text>
<text text-anchor="middle" x="941" y="-7.8" font-family="Times,serif" font-size="14.00">value = 18.631</text>
</g>
<!-- 21&#45;&gt;22 -->
<g id="edge22" class="edge">
<title>21&#45;&gt;22</title>
<path fill="none" stroke="black" d="M942.3,-88.95C942.13,-80.72 941.94,-71.85 941.76,-63.48"/>
<polygon fill="black" stroke="black" points="945.26,-63.16 941.54,-53.24 938.26,-63.31 945.26,-63.16"/>
</g>
<!-- 23 -->
<g id="node24" class="node">
<title>23</title>
<polygon fill="#fbede3" stroke="black" points="1101,-53 1009,-53 1009,0 1101,0 1101,-53"/>
<text text-anchor="middle" x="1055" y="-37.8" font-family="Times,serif" font-size="14.00">mse = 5.067</text>
<text text-anchor="middle" x="1055" y="-22.8" font-family="Times,serif" font-size="14.00">samples = 39</text>
<text text-anchor="middle" x="1055" y="-7.8" font-family="Times,serif" font-size="14.00">value = 15.29</text>
</g>
<!-- 21&#45;&gt;23 -->
<g id="edge23" class="edge">
<title>21&#45;&gt;23</title>
<path fill="none" stroke="black" d="M982.17,-88.95C993.34,-79.53 1005.49,-69.27 1016.61,-59.89"/>
<polygon fill="black" stroke="black" points="1019.11,-62.36 1024.5,-53.24 1014.6,-57.01 1019.11,-62.36"/>
</g>
<!-- 25 -->
<g id="node26" class="node">
<title>25</title>
<polygon fill="#fcf2eb" stroke="black" points="1218.5,-53 1119.5,-53 1119.5,0 1218.5,0 1218.5,-53"/>
<text text-anchor="middle" x="1169" y="-37.8" font-family="Times,serif" font-size="14.00">mse = 7.24</text>
<text text-anchor="middle" x="1169" y="-22.8" font-family="Times,serif" font-size="14.00">samples = 16</text>
<text text-anchor="middle" x="1169" y="-7.8" font-family="Times,serif" font-size="14.00">value = 13.631</text>
</g>
<!-- 24&#45;&gt;25 -->
<g id="edge25" class="edge">
<title>24&#45;&gt;25</title>
<path fill="none" stroke="black" d="M1169,-88.95C1169,-80.72 1169,-71.85 1169,-63.48"/>
<polygon fill="black" stroke="black" points="1172.5,-63.24 1169,-53.24 1165.5,-63.24 1172.5,-63.24"/>
</g>
<!-- 26 -->
<g id="node27" class="node">
<title>26</title>
<polygon fill="#ffffff" stroke="black" points="1329,-53 1237,-53 1237,0 1329,0 1329,-53"/>
<text text-anchor="middle" x="1283" y="-37.8" font-family="Times,serif" font-size="14.00">mse = 8.495</text>
<text text-anchor="middle" x="1283" y="-22.8" font-family="Times,serif" font-size="14.00">samples = 32</text>
<text text-anchor="middle" x="1283" y="-7.8" font-family="Times,serif" font-size="14.00">value = 9.613</text>
</g>
<!-- 24&#45;&gt;26 -->
<g id="edge26" class="edge">
<title>24&#45;&gt;26</title>
<path fill="none" stroke="black" d="M1208.87,-88.95C1220.24,-79.53 1232.61,-69.27 1243.93,-59.89"/>
<polygon fill="black" stroke="black" points="1246.49,-62.31 1251.95,-53.24 1242.02,-56.92 1246.49,-62.31"/>
</g>
</g>
</svg>
