<?xml version="1.0" encoding="UTF-8" standalone="no"?>
<!DOCTYPE svg PUBLIC "-//W3C//DTD SVG 1.1//EN"
 "http://www.w3.org/Graphics/SVG/1.1/DTD/svg11.dtd">
<!-- Generated by graphviz version 2.46.1 (20210213.1702)
 -->
<!-- Title: Tree Pages: 1 -->
<svg width="1571pt" height="477pt"
 viewBox="0.00 0.00 1570.50 477.00" xmlns="http://www.w3.org/2000/svg" xmlns:xlink="http://www.w3.org/1999/xlink">
<g id="graph0" class="graph" transform="scale(1 1) rotate(0) translate(4 473)">
<title>Tree</title>
<polygon fill="white" stroke="transparent" points="-4,4 -4,-473 1566.5,-473 1566.5,4 -4,4"/>
<!-- 0 -->
<g id="node1" class="node">
<title>0</title>
<polygon fill="#f7d8c2" stroke="black" points="736,-469 637,-469 637,-401 736,-401 736,-469"/>
<text text-anchor="middle" x="686.5" y="-453.8" font-family="Times,serif" font-size="14.00">RM &lt;= 6.838</text>
<text text-anchor="middle" x="686.5" y="-438.8" font-family="Times,serif" font-size="14.00">mse = 86.176</text>
<text text-anchor="middle" x="686.5" y="-423.8" font-family="Times,serif" font-size="14.00">samples = 354</text>
<text text-anchor="middle" x="686.5" y="-408.8" font-family="Times,serif" font-size="14.00">value = 22.463</text>
</g>
<!-- 1 -->
<g id="node2" class="node">
<title>1</title>
<polygon fill="#f9e2d1" stroke="black" points="512,-365 407,-365 407,-297 512,-297 512,-365"/>
<text text-anchor="middle" x="459.5" y="-349.8" font-family="Times,serif" font-size="14.00">LSTAT &lt;= 14.4</text>
<text text-anchor="middle" x="459.5" y="-334.8" font-family="Times,serif" font-size="14.00">mse = 39.748</text>
<text text-anchor="middle" x="459.5" y="-319.8" font-family="Times,serif" font-size="14.00">samples = 292</text>
<text text-anchor="middle" x="459.5" y="-304.8" font-family="Times,serif" font-size="14.00">value = 19.401</text>
</g>
<!-- 0&#45;&gt;1 -->
<g id="edge1" class="edge">
<title>0&#45;&gt;1</title>
<path fill="none" stroke="black" d="M636.96,-411.74C603.07,-396.51 557.89,-376.21 521.59,-359.9"/>
<polygon fill="black" stroke="black" points="522.65,-356.54 512.09,-355.63 519.78,-362.92 522.65,-356.54"/>
<text text-anchor="middle" x="520.97" y="-375.3" font-family="Times,serif" font-size="14.00">True</text>
</g>
<!-- 14 -->
<g id="node15" class="node">
<title>14</title>
<polygon fill="#eeab7a" stroke="black" points="967,-365 868,-365 868,-297 967,-297 967,-365"/>
<text text-anchor="middle" x="917.5" y="-349.8" font-family="Times,serif" font-size="14.00">RM &lt;= 7.445</text>
<text text-anchor="middle" x="917.5" y="-334.8" font-family="Times,serif" font-size="14.00">mse = 52.822</text>
<text text-anchor="middle" x="917.5" y="-319.8" font-family="Times,serif" font-size="14.00">samples = 62</text>
<text text-anchor="middle" x="917.5" y="-304.8" font-family="Times,serif" font-size="14.00">value = 36.881</text>
</g>
<!-- 0&#45;&gt;14 -->
<g id="edge14" class="edge">
<title>0&#45;&gt;14</title>
<path fill="none" stroke="black" d="M736.06,-412.12C771.86,-396.31 820.39,-374.88 858.25,-358.16"/>
<polygon fill="black" stroke="black" points="859.89,-361.26 867.63,-354.02 857.07,-354.86 859.89,-361.26"/>
<text text-anchor="middle" x="858.6" y="-373.63" font-family="Times,serif" font-size="14.00">False</text>
</g>
<!-- 2 -->
<g id="node3" class="node">
<title>2</title>
<polygon fill="#f7d7c0" stroke="black" points="216,-261 117,-261 117,-193 216,-193 216,-261"/>
<text text-anchor="middle" x="166.5" y="-245.8" font-family="Times,serif" font-size="14.00">DIS &lt;= 1.373</text>
<text text-anchor="middle" x="166.5" y="-230.8" font-family="Times,serif" font-size="14.00">mse = 26.778</text>
<text text-anchor="middle" x="166.5" y="-215.8" font-family="Times,serif" font-size="14.00">samples = 165</text>
<text text-anchor="middle" x="166.5" y="-200.8" font-family="Times,serif" font-size="14.00">value = 22.945</text>
</g>
<!-- 1&#45;&gt;2 -->
<g id="edge2" class="edge">
<title>1&#45;&gt;2</title>
<path fill="none" stroke="black" d="M406.78,-311.65C355.9,-293.94 279,-267.16 225.97,-248.7"/>
<polygon fill="black" stroke="black" points="226.95,-245.34 216.35,-245.36 224.65,-251.95 226.95,-245.34"/>
</g>
<!-- 7 -->
<g id="node8" class="node">
<title>7</title>
<polygon fill="#fcf1e8" stroke="black" points="509,-261 410,-261 410,-193 509,-193 509,-261"/>
<text text-anchor="middle" x="459.5" y="-245.8" font-family="Times,serif" font-size="14.00">DIS &lt;= 2.064</text>
<text text-anchor="middle" x="459.5" y="-230.8" font-family="Times,serif" font-size="14.00">mse = 19.093</text>
<text text-anchor="middle" x="459.5" y="-215.8" font-family="Times,serif" font-size="14.00">samples = 127</text>
<text text-anchor="middle" x="459.5" y="-200.8" font-family="Times,serif" font-size="14.00">value = 14.798</text>
</g>
<!-- 1&#45;&gt;7 -->
<g id="edge7" class="edge">
<title>1&#45;&gt;7</title>
<path fill="none" stroke="black" d="M459.5,-296.88C459.5,-288.78 459.5,-279.98 459.5,-271.47"/>
<polygon fill="black" stroke="black" points="463,-271.3 459.5,-261.3 456,-271.3 463,-271.3"/>
</g>
<!-- 3 -->
<g id="node4" class="node">
<title>3</title>
<polygon fill="#e58139" stroke="black" points="98.5,-149.5 12.5,-149.5 12.5,-96.5 98.5,-96.5 98.5,-149.5"/>
<text text-anchor="middle" x="55.5" y="-134.3" font-family="Times,serif" font-size="14.00">mse = 0.0</text>
<text text-anchor="middle" x="55.5" y="-119.3" font-family="Times,serif" font-size="14.00">samples = 3</text>
<text text-anchor="middle" x="55.5" y="-104.3" font-family="Times,serif" font-size="14.00">value = 50.0</text>
</g>
<!-- 2&#45;&gt;3 -->
<g id="edge3" class="edge">
<title>2&#45;&gt;3</title>
<path fill="none" stroke="black" d="M130.46,-192.88C117.78,-181.23 103.54,-168.14 90.9,-156.53"/>
<polygon fill="black" stroke="black" points="93,-153.71 83.27,-149.52 88.27,-158.86 93,-153.71"/>
</g>
<!-- 4 -->
<g id="node5" class="node">
<title>4</title>
<polygon fill="#f7d8c2" stroke="black" points="216,-157 117,-157 117,-89 216,-89 216,-157"/>
<text text-anchor="middle" x="166.5" y="-141.8" font-family="Times,serif" font-size="14.00">RM &lt;= 6.543</text>
<text text-anchor="middle" x="166.5" y="-126.8" font-family="Times,serif" font-size="14.00">mse = 13.467</text>
<text text-anchor="middle" x="166.5" y="-111.8" font-family="Times,serif" font-size="14.00">samples = 162</text>
<text text-anchor="middle" x="166.5" y="-96.8" font-family="Times,serif" font-size="14.00">value = 22.444</text>
</g>
<!-- 2&#45;&gt;4 -->
<g id="edge4" class="edge">
<title>2&#45;&gt;4</title>
<path fill="none" stroke="black" d="M166.5,-192.88C166.5,-184.78 166.5,-175.98 166.5,-167.47"/>
<polygon fill="black" stroke="black" points="170,-167.3 166.5,-157.3 163,-167.3 170,-167.3"/>
</g>
<!-- 5 -->
<g id="node6" class="node">
<title>5</title>
<polygon fill="#f8dbc7" stroke="black" points="99,-53 0,-53 0,0 99,0 99,-53"/>
<text text-anchor="middle" x="49.5" y="-37.8" font-family="Times,serif" font-size="14.00">mse = 9.168</text>
<text text-anchor="middle" x="49.5" y="-22.8" font-family="Times,serif" font-size="14.00">samples = 136</text>
<text text-anchor="middle" x="49.5" y="-7.8" font-family="Times,serif" font-size="14.00">value = 21.568</text>
</g>
<!-- 4&#45;&gt;5 -->
<g id="edge5" class="edge">
<title>4&#45;&gt;5</title>
<path fill="none" stroke="black" d="M125.58,-88.95C113.8,-79.43 100.97,-69.07 89.26,-59.62"/>
<polygon fill="black" stroke="black" points="91.34,-56.8 81.36,-53.24 86.94,-62.24 91.34,-56.8"/>
</g>
<!-- 6 -->
<g id="node7" class="node">
<title>6</title>
<polygon fill="#f4caab" stroke="black" points="216,-53 117,-53 117,0 216,0 216,-53"/>
<text text-anchor="middle" x="166.5" y="-37.8" font-family="Times,serif" font-size="14.00">mse = 10.936</text>
<text text-anchor="middle" x="166.5" y="-22.8" font-family="Times,serif" font-size="14.00">samples = 26</text>
<text text-anchor="middle" x="166.5" y="-7.8" font-family="Times,serif" font-size="14.00">value = 27.027</text>
</g>
<!-- 4&#45;&gt;6 -->
<g id="edge6" class="edge">
<title>4&#45;&gt;6</title>
<path fill="none" stroke="black" d="M166.5,-88.95C166.5,-80.72 166.5,-71.85 166.5,-63.48"/>
<polygon fill="black" stroke="black" points="170,-63.24 166.5,-53.24 163,-63.24 170,-63.24"/>
</g>
<!-- 8 -->
<g id="node9" class="node">
<title>8</title>
<polygon fill="#fef9f5" stroke="black" points="452,-157 345,-157 345,-89 452,-89 452,-157"/>
<text text-anchor="middle" x="398.5" y="-141.8" font-family="Times,serif" font-size="14.00">CRIM &lt;= 8.754</text>
<text text-anchor="middle" x="398.5" y="-126.8" font-family="Times,serif" font-size="14.00">mse = 12.956</text>
<text text-anchor="middle" x="398.5" y="-111.8" font-family="Times,serif" font-size="14.00">samples = 65</text>
<text text-anchor="middle" x="398.5" y="-96.8" font-family="Times,serif" font-size="14.00">value = 12.211</text>
</g>
<!-- 7&#45;&gt;8 -->
<g id="edge8" class="edge">
<title>7&#45;&gt;8</title>
<path fill="none" stroke="black" d="M439.7,-192.88C434.58,-184.33 429.01,-175.01 423.66,-166.07"/>
<polygon fill="black" stroke="black" points="426.55,-164.09 418.41,-157.3 420.54,-167.68 426.55,-164.09"/>
</g>
<!-- 11 -->
<g id="node12" class="node">
<title>11</title>
<polygon fill="#fae8db" stroke="black" points="570.5,-157 470.5,-157 470.5,-89 570.5,-89 570.5,-157"/>
<text text-anchor="middle" x="520.5" y="-141.8" font-family="Times,serif" font-size="14.00">CRIM &lt;= 0.61</text>
<text text-anchor="middle" x="520.5" y="-126.8" font-family="Times,serif" font-size="14.00">mse = 11.155</text>
<text text-anchor="middle" x="520.5" y="-111.8" font-family="Times,serif" font-size="14.00">samples = 62</text>
<text text-anchor="middle" x="520.5" y="-96.8" font-family="Times,serif" font-size="14.00">value = 17.51</text>
</g>
<!-- 7&#45;&gt;11 -->
<g id="edge11" class="edge">
<title>7&#45;&gt;11</title>
<path fill="none" stroke="black" d="M479.3,-192.88C484.42,-184.33 489.99,-175.01 495.34,-166.07"/>
<polygon fill="black" stroke="black" points="498.46,-167.68 500.59,-157.3 492.45,-164.09 498.46,-167.68"/>
</g>
<!-- 9 -->
<g id="node10" class="node">
<title>9</title>
<polygon fill="#fcf2eb" stroke="black" points="333,-53 234,-53 234,0 333,0 333,-53"/>
<text text-anchor="middle" x="283.5" y="-37.8" font-family="Times,serif" font-size="14.00">mse = 7.181</text>
<text text-anchor="middle" x="283.5" y="-22.8" font-family="Times,serif" font-size="14.00">samples = 31</text>
<text text-anchor="middle" x="283.5" y="-7.8" font-family="Times,serif" font-size="14.00">value = 14.355</text>
</g>
<!-- 8&#45;&gt;9 -->
<g id="edge9" class="edge">
<title>8&#45;&gt;9</title>
<path fill="none" stroke="black" d="M358.28,-88.95C346.7,-79.43 334.09,-69.07 322.58,-59.62"/>
<polygon fill="black" stroke="black" points="324.77,-56.88 314.82,-53.24 320.32,-62.29 324.77,-56.88"/>
</g>
<!-- 10 -->
<g id="node11" class="node">
<title>10</title>
<polygon fill="#ffffff" stroke="black" points="450,-53 351,-53 351,0 450,0 450,-53"/>
<text text-anchor="middle" x="400.5" y="-37.8" font-family="Times,serif" font-size="14.00">mse = 10.209</text>
<text text-anchor="middle" x="400.5" y="-22.8" font-family="Times,serif" font-size="14.00">samples = 34</text>
<text text-anchor="middle" x="400.5" y="-7.8" font-family="Times,serif" font-size="14.00">value = 10.256</text>
</g>
<!-- 8&#45;&gt;10 -->
<g id="edge10" class="edge">
<title>8&#45;&gt;10</title>
<path fill="none" stroke="black" d="M399.2,-88.95C399.37,-80.72 399.56,-71.85 399.74,-63.48"/>
<polygon fill="black" stroke="black" points="403.24,-63.31 399.96,-53.24 396.24,-63.16 403.24,-63.31"/>
</g>
<!-- 12 -->
<g id="node13" class="node">
<title>12</title>
<polygon fill="#f9e1cf" stroke="black" points="567,-53 468,-53 468,0 567,0 567,-53"/>
<text text-anchor="middle" x="517.5" y="-37.8" font-family="Times,serif" font-size="14.00">mse = 6.362</text>
<text text-anchor="middle" x="517.5" y="-22.8" font-family="Times,serif" font-size="14.00">samples = 30</text>
<text text-anchor="middle" x="517.5" y="-7.8" font-family="Times,serif" font-size="14.00">value = 19.873</text>
</g>
<!-- 11&#45;&gt;12 -->
<g id="edge12" class="edge">
<title>11&#45;&gt;12</title>
<path fill="none" stroke="black" d="M519.45,-88.95C519.19,-80.72 518.91,-71.85 518.64,-63.48"/>
<polygon fill="black" stroke="black" points="522.13,-63.12 518.32,-53.24 515.14,-63.34 522.13,-63.12"/>
</g>
<!-- 13 -->
<g id="node14" class="node">
<title>13</title>
<polygon fill="#fcefe6" stroke="black" points="684,-53 585,-53 585,0 684,0 684,-53"/>
<text text-anchor="middle" x="634.5" y="-37.8" font-family="Times,serif" font-size="14.00">mse = 5.5</text>
<text text-anchor="middle" x="634.5" y="-22.8" font-family="Times,serif" font-size="14.00">samples = 32</text>
<text text-anchor="middle" x="634.5" y="-7.8" font-family="Times,serif" font-size="14.00">value = 15.294</text>
</g>
<!-- 11&#45;&gt;13 -->
<g id="edge13" class="edge">
<title>11&#45;&gt;13</title>
<path fill="none" stroke="black" d="M560.37,-88.95C571.74,-79.53 584.11,-69.27 595.43,-59.89"/>
<polygon fill="black" stroke="black" points="597.99,-62.31 603.45,-53.24 593.52,-56.92 597.99,-62.31"/>
</g>
<!-- 15 -->
<g id="node16" class="node">
<title>15</title>
<polygon fill="#f0b78e" stroke="black" points="971,-261 864,-261 864,-193 971,-193 971,-261"/>
<text text-anchor="middle" x="917.5" y="-245.8" font-family="Times,serif" font-size="14.00">CRIM &lt;= 1.024</text>
<text text-anchor="middle" x="917.5" y="-230.8" font-family="Times,serif" font-size="14.00">mse = 18.779</text>
<text text-anchor="middle" x="917.5" y="-215.8" font-family="Times,serif" font-size="14.00">samples = 42</text>
<text text-anchor="middle" x="917.5" y="-200.8" font-family="Times,serif" font-size="14.00">value = 32.9</text>
</g>
<!-- 14&#45;&gt;15 -->
<g id="edge15" class="edge">
<title>14&#45;&gt;15</title>
<path fill="none" stroke="black" d="M917.5,-296.88C917.5,-288.78 917.5,-279.98 917.5,-271.47"/>
<polygon fill="black" stroke="black" points="921,-271.3 917.5,-261.3 914,-271.3 921,-271.3"/>
</g>
<!-- 22 -->
<g id="node23" class="node">
<title>22</title>
<polygon fill="#e89051" stroke="black" points="1292.5,-261 1172.5,-261 1172.5,-193 1292.5,-193 1292.5,-261"/>
<text text-anchor="middle" x="1232.5" y="-245.8" font-family="Times,serif" font-size="14.00">PTRATIO &lt;= 17.9</text>
<text text-anchor="middle" x="1232.5" y="-230.8" font-family="Times,serif" font-size="14.00">mse = 21.157</text>
<text text-anchor="middle" x="1232.5" y="-215.8" font-family="Times,serif" font-size="14.00">samples = 20</text>
<text text-anchor="middle" x="1232.5" y="-200.8" font-family="Times,serif" font-size="14.00">value = 45.24</text>
</g>
<!-- 14&#45;&gt;22 -->
<g id="edge22" class="edge">
<title>14&#45;&gt;22</title>
<path fill="none" stroke="black" d="M967.07,-313.95C1019.75,-296.89 1103.48,-269.78 1162.79,-250.57"/>
<polygon fill="black" stroke="black" points="1164.03,-253.85 1172.46,-247.44 1161.87,-247.19 1164.03,-253.85"/>
</g>
<!-- 16 -->
<g id="node17" class="node">
<title>16</title>
<polygon fill="#f1b991" stroke="black" points="908,-157 809,-157 809,-89 908,-89 908,-157"/>
<text text-anchor="middle" x="858.5" y="-141.8" font-family="Times,serif" font-size="14.00">RM &lt;= 6.945</text>
<text text-anchor="middle" x="858.5" y="-126.8" font-family="Times,serif" font-size="14.00">mse = 10.237</text>
<text text-anchor="middle" x="858.5" y="-111.8" font-family="Times,serif" font-size="14.00">samples = 40</text>
<text text-anchor="middle" x="858.5" y="-96.8" font-family="Times,serif" font-size="14.00">value = 32.263</text>
</g>
<!-- 15&#45;&gt;16 -->
<g id="edge16" class="edge">
<title>15&#45;&gt;16</title>
<path fill="none" stroke="black" d="M898.34,-192.88C893.4,-184.33 888.01,-175.01 882.84,-166.07"/>
<polygon fill="black" stroke="black" points="885.8,-164.2 877.76,-157.3 879.74,-167.71 885.8,-164.2"/>
</g>
<!-- 19 -->
<g id="node20" class="node">
<title>19</title>
<polygon fill="#e88f4f" stroke="black" points="1027,-157 926,-157 926,-89 1027,-89 1027,-157"/>
<text text-anchor="middle" x="976.5" y="-141.8" font-family="Times,serif" font-size="14.00">NOX &lt;= 0.618</text>
<text text-anchor="middle" x="976.5" y="-126.8" font-family="Times,serif" font-size="14.00">mse = 18.923</text>
<text text-anchor="middle" x="976.5" y="-111.8" font-family="Times,serif" font-size="14.00">samples = 2</text>
<text text-anchor="middle" x="976.5" y="-96.8" font-family="Times,serif" font-size="14.00">value = 45.65</text>
</g>
<!-- 15&#45;&gt;19 -->
<g id="edge19" class="edge">
<title>15&#45;&gt;19</title>
<path fill="none" stroke="black" d="M936.66,-192.88C941.6,-184.33 946.99,-175.01 952.16,-166.07"/>
<polygon fill="black" stroke="black" points="955.26,-167.71 957.24,-157.3 949.2,-164.2 955.26,-167.71"/>
</g>
<!-- 17 -->
<g id="node18" class="node">
<title>17</title>
<polygon fill="#f3c3a0" stroke="black" points="794.5,-53 702.5,-53 702.5,0 794.5,0 794.5,-53"/>
<text text-anchor="middle" x="748.5" y="-37.8" font-family="Times,serif" font-size="14.00">mse = 3.033</text>
<text text-anchor="middle" x="748.5" y="-22.8" font-family="Times,serif" font-size="14.00">samples = 8</text>
<text text-anchor="middle" x="748.5" y="-7.8" font-family="Times,serif" font-size="14.00">value = 29.25</text>
</g>
<!-- 16&#45;&gt;17 -->
<g id="edge17" class="edge">
<title>16&#45;&gt;17</title>
<path fill="none" stroke="black" d="M820.03,-88.95C809.06,-79.53 797.12,-69.27 786.2,-59.89"/>
<polygon fill="black" stroke="black" points="788.32,-57.1 778.46,-53.24 783.76,-62.41 788.32,-57.1"/>
</g>
<!-- 18 -->
<g id="node19" class="node">
<title>18</title>
<polygon fill="#f0b78e" stroke="black" points="912,-53 813,-53 813,0 912,0 912,-53"/>
<text text-anchor="middle" x="862.5" y="-37.8" font-family="Times,serif" font-size="14.00">mse = 9.203</text>
<text text-anchor="middle" x="862.5" y="-22.8" font-family="Times,serif" font-size="14.00">samples = 32</text>
<text text-anchor="middle" x="862.5" y="-7.8" font-family="Times,serif" font-size="14.00">value = 33.016</text>
</g>
<!-- 16&#45;&gt;18 -->
<g id="edge18" class="edge">
<title>16&#45;&gt;18</title>
<path fill="none" stroke="black" d="M859.9,-88.95C860.25,-80.72 860.62,-71.85 860.98,-63.48"/>
<polygon fill="black" stroke="black" points="864.48,-63.38 861.41,-53.24 857.49,-63.08 864.48,-63.38"/>
</g>
<!-- 20 -->
<g id="node21" class="node">
<title>20</title>
<polygon fill="#eb9d64" stroke="black" points="1016.5,-53 930.5,-53 930.5,0 1016.5,0 1016.5,-53"/>
<text text-anchor="middle" x="973.5" y="-37.8" font-family="Times,serif" font-size="14.00">mse = 0.0</text>
<text text-anchor="middle" x="973.5" y="-22.8" font-family="Times,serif" font-size="14.00">samples = 1</text>
<text text-anchor="middle" x="973.5" y="-7.8" font-family="Times,serif" font-size="14.00">value = 41.3</text>
</g>
<!-- 19&#45;&gt;20 -->
<g id="edge20" class="edge">
<title>19&#45;&gt;20</title>
<path fill="none" stroke="black" d="M975.45,-88.95C975.19,-80.72 974.91,-71.85 974.64,-63.48"/>
<polygon fill="black" stroke="black" points="978.13,-63.12 974.32,-53.24 971.14,-63.34 978.13,-63.12"/>
</g>
<!-- 21 -->
<g id="node22" class="node">
<title>21</title>
<polygon fill="#e58139" stroke="black" points="1120.5,-53 1034.5,-53 1034.5,0 1120.5,0 1120.5,-53"/>
<text text-anchor="middle" x="1077.5" y="-37.8" font-family="Times,serif" font-size="14.00">mse = 0.0</text>
<text text-anchor="middle" x="1077.5" y="-22.8" font-family="Times,serif" font-size="14.00">samples = 1</text>
<text text-anchor="middle" x="1077.5" y="-7.8" font-family="Times,serif" font-size="14.00">value = 50.0</text>
</g>
<!-- 19&#45;&gt;21 -->
<g id="edge21" class="edge">
<title>19&#45;&gt;21</title>
<path fill="none" stroke="black" d="M1011.82,-88.95C1021.8,-79.62 1032.64,-69.47 1042.59,-60.16"/>
<polygon fill="black" stroke="black" points="1045.08,-62.62 1049.99,-53.24 1040.3,-57.51 1045.08,-62.62"/>
</g>
<!-- 23 -->
<g id="node24" class="node">
<title>23</title>
<polygon fill="#e78d4b" stroke="black" points="1282,-157 1183,-157 1183,-89 1282,-89 1282,-157"/>
<text text-anchor="middle" x="1232.5" y="-141.8" font-family="Times,serif" font-size="14.00">RM &lt;= 7.783</text>
<text text-anchor="middle" x="1232.5" y="-126.8" font-family="Times,serif" font-size="14.00">mse = 14.844</text>
<text text-anchor="middle" x="1232.5" y="-111.8" font-family="Times,serif" font-size="14.00">samples = 17</text>
<text text-anchor="middle" x="1232.5" y="-96.8" font-family="Times,serif" font-size="14.00">value = 46.359</text>
</g>
<!-- 22&#45;&gt;23 -->
<g id="edge23" class="edge">
<title>22&#45;&gt;23</title>
<path fill="none" stroke="black" d="M1232.5,-192.88C1232.5,-184.78 1232.5,-175.98 1232.5,-167.47"/>
<polygon fill="black" stroke="black" points="1236,-167.3 1232.5,-157.3 1229,-167.3 1236,-167.3"/>
</g>
<!-- 26 -->
<g id="node27" class="node">
<title>26</title>
<polygon fill="#eca470" stroke="black" points="1476,-157 1349,-157 1349,-89 1476,-89 1476,-157"/>
<text text-anchor="middle" x="1412.5" y="-141.8" font-family="Times,serif" font-size="14.00">PTRATIO &lt;= 18.85</text>
<text text-anchor="middle" x="1412.5" y="-126.8" font-family="Times,serif" font-size="14.00">mse = 9.647</text>
<text text-anchor="middle" x="1412.5" y="-111.8" font-family="Times,serif" font-size="14.00">samples = 3</text>
<text text-anchor="middle" x="1412.5" y="-96.8" font-family="Times,serif" font-size="14.00">value = 38.9</text>
</g>
<!-- 22&#45;&gt;26 -->
<g id="edge26" class="edge">
<title>22&#45;&gt;26</title>
<path fill="none" stroke="black" d="M1290.94,-192.88C1308.16,-183.12 1327.15,-172.37 1344.89,-162.31"/>
<polygon fill="black" stroke="black" points="1347.07,-165.1 1354.04,-157.12 1343.62,-159.01 1347.07,-165.1"/>
</g>
<!-- 24 -->
<g id="node25" class="node">
<title>24</title>
<polygon fill="#ea975c" stroke="black" points="1230.5,-53 1138.5,-53 1138.5,0 1230.5,0 1230.5,-53"/>
<text text-anchor="middle" x="1184.5" y="-37.8" font-family="Times,serif" font-size="14.00">mse = 3.994</text>
<text text-anchor="middle" x="1184.5" y="-22.8" font-family="Times,serif" font-size="14.00">samples = 5</text>
<text text-anchor="middle" x="1184.5" y="-7.8" font-family="Times,serif" font-size="14.00">value = 42.94</text>
</g>
<!-- 23&#45;&gt;24 -->
<g id="edge24" class="edge">
<title>23&#45;&gt;24</title>
<path fill="none" stroke="black" d="M1215.71,-88.95C1211.34,-80.35 1206.62,-71.06 1202.21,-62.37"/>
<polygon fill="black" stroke="black" points="1205.22,-60.57 1197.57,-53.24 1198.98,-63.74 1205.22,-60.57"/>
</g>
<!-- 25 -->
<g id="node26" class="node">
<title>25</title>
<polygon fill="#e68844" stroke="black" points="1348,-53 1249,-53 1249,0 1348,0 1348,-53"/>
<text text-anchor="middle" x="1298.5" y="-37.8" font-family="Times,serif" font-size="14.00">mse = 12.465</text>
<text text-anchor="middle" x="1298.5" y="-22.8" font-family="Times,serif" font-size="14.00">samples = 12</text>
<text text-anchor="middle" x="1298.5" y="-7.8" font-family="Times,serif" font-size="14.00">value = 47.783</text>
</g>
<!-- 23&#45;&gt;25 -->
<g id="edge25" class="edge">
<title>23&#45;&gt;25</title>
<path fill="none" stroke="black" d="M1255.58,-88.95C1261.78,-80.07 1268.49,-70.46 1274.73,-61.54"/>
<polygon fill="black" stroke="black" points="1277.67,-63.44 1280.53,-53.24 1271.93,-59.43 1277.67,-63.44"/>
</g>
<!-- 27 -->
<g id="node28" class="node">
<title>27</title>
<polygon fill="#eeaa7a" stroke="black" points="1458.5,-53 1366.5,-53 1366.5,0 1458.5,0 1458.5,-53"/>
<text text-anchor="middle" x="1412.5" y="-37.8" font-family="Times,serif" font-size="14.00">mse = 3.062</text>
<text text-anchor="middle" x="1412.5" y="-22.8" font-family="Times,serif" font-size="14.00">samples = 2</text>
<text text-anchor="middle" x="1412.5" y="-7.8" font-family="Times,serif" font-size="14.00">value = 36.95</text>
</g>
<!-- 26&#45;&gt;27 -->
<g id="edge27" class="edge">
<title>26&#45;&gt;27</title>
<path fill="none" stroke="black" d="M1412.5,-88.95C1412.5,-80.72 1412.5,-71.85 1412.5,-63.48"/>
<polygon fill="black" stroke="black" points="1416,-63.24 1412.5,-53.24 1409,-63.24 1416,-63.24"/>
</g>
<!-- 28 -->
<g id="node29" class="node">
<title>28</title>
<polygon fill="#ea985d" stroke="black" points="1562.5,-53 1476.5,-53 1476.5,0 1562.5,0 1562.5,-53"/>
<text text-anchor="middle" x="1519.5" y="-37.8" font-family="Times,serif" font-size="14.00">mse = &#45;0.0</text>
<text text-anchor="middle" x="1519.5" y="-22.8" font-family="Times,serif" font-size="14.00">samples = 1</text>
<text text-anchor="middle" x="1519.5" y="-7.8" font-family="Times,serif" font-size="14.00">value = 42.8</text>
</g>
<!-- 26&#45;&gt;28 -->
<g id="edge28" class="edge">
<title>26&#45;&gt;28</title>
<path fill="none" stroke="black" d="M1449.92,-88.95C1460.59,-79.53 1472.2,-69.27 1482.82,-59.89"/>
<polygon fill="black" stroke="black" points="1485.18,-62.48 1490.36,-53.24 1480.55,-57.23 1485.18,-62.48"/>
</g>
</g>
</svg>
