<?xml version="1.0" encoding="UTF-8" standalone="no"?>
<!DOCTYPE svg PUBLIC "-//W3C//DTD SVG 1.1//EN"
 "http://www.w3.org/Graphics/SVG/1.1/DTD/svg11.dtd">
<!-- Generated by graphviz version 2.46.1 (20210213.1702)
 -->
<!-- Title: Tree Pages: 1 -->
<svg width="774pt" height="581pt"
 viewBox="0.00 0.00 773.50 581.00" xmlns="http://www.w3.org/2000/svg" xmlns:xlink="http://www.w3.org/1999/xlink">
<g id="graph0" class="graph" transform="scale(1 1) rotate(0) translate(4 577)">
<title>Tree</title>
<polygon fill="white" stroke="transparent" points="-4,4 -4,-577 769.5,-577 769.5,4 -4,4"/>
<!-- 0 -->
<g id="node1" class="node">
<title>0</title>
<polygon fill="#e8fcf0" stroke="black" points="530,-573 404,-573 404,-505 530,-505 530,-573"/>
<text text-anchor="middle" x="467" y="-557.8" font-family="Times,serif" font-size="14.00">proline &lt;= 760.0</text>
<text text-anchor="middle" x="467" y="-542.8" font-family="Times,serif" font-size="14.00">gini = 0.657</text>
<text text-anchor="middle" x="467" y="-527.8" font-family="Times,serif" font-size="14.00">samples = 89</text>
<text text-anchor="middle" x="467" y="-512.8" font-family="Times,serif" font-size="14.00">value = [29, 36, 24]</text>
</g>
<!-- 1 -->
<g id="node2" class="node">
<title>1</title>
<polygon fill="#b8f6d2" stroke="black" points="408.5,-469 289.5,-469 289.5,-401 408.5,-401 408.5,-469"/>
<text text-anchor="middle" x="349" y="-453.8" font-family="Times,serif" font-size="14.00">flavanoids &lt;= 1.4</text>
<text text-anchor="middle" x="349" y="-438.8" font-family="Times,serif" font-size="14.00">gini = 0.492</text>
<text text-anchor="middle" x="349" y="-423.8" font-family="Times,serif" font-size="14.00">samples = 58</text>
<text text-anchor="middle" x="349" y="-408.8" font-family="Times,serif" font-size="14.00">value = [1, 35, 22]</text>
</g>
<!-- 0&#45;&gt;1 -->
<g id="edge1" class="edge">
<title>0&#45;&gt;1</title>
<path fill="none" stroke="black" d="M428.69,-504.88C417.97,-495.62 406.21,-485.45 395.1,-475.85"/>
<polygon fill="black" stroke="black" points="397.38,-473.19 387.52,-469.3 392.8,-478.49 397.38,-473.19"/>
<text text-anchor="middle" x="389.34" y="-490.53" font-family="Times,serif" font-size="14.00">True</text>
</g>
<!-- 12 -->
<g id="node13" class="node">
<title>12</title>
<polygon fill="#e88e4d" stroke="black" points="683,-469 447,-469 447,-401 683,-401 683,-469"/>
<text text-anchor="middle" x="565" y="-453.8" font-family="Times,serif" font-size="14.00">od280/od315_of_diluted_wines &lt;= 2.66</text>
<text text-anchor="middle" x="565" y="-438.8" font-family="Times,serif" font-size="14.00">gini = 0.179</text>
<text text-anchor="middle" x="565" y="-423.8" font-family="Times,serif" font-size="14.00">samples = 31</text>
<text text-anchor="middle" x="565" y="-408.8" font-family="Times,serif" font-size="14.00">value = [28, 1, 2]</text>
</g>
<!-- 0&#45;&gt;12 -->
<g id="edge12" class="edge">
<title>0&#45;&gt;12</title>
<path fill="none" stroke="black" d="M498.82,-504.88C507.46,-495.89 516.92,-486.04 525.92,-476.68"/>
<polygon fill="black" stroke="black" points="528.6,-478.94 533.01,-469.3 523.55,-474.09 528.6,-478.94"/>
<text text-anchor="middle" x="533.51" y="-490.59" font-family="Times,serif" font-size="14.00">False</text>
</g>
<!-- 2 -->
<g id="node3" class="node">
<title>2</title>
<polygon fill="#9355e9" stroke="black" points="254,-365 108,-365 108,-297 254,-297 254,-365"/>
<text text-anchor="middle" x="181" y="-349.8" font-family="Times,serif" font-size="14.00">color_intensity &lt;= 3.51</text>
<text text-anchor="middle" x="181" y="-334.8" font-family="Times,serif" font-size="14.00">gini = 0.219</text>
<text text-anchor="middle" x="181" y="-319.8" font-family="Times,serif" font-size="14.00">samples = 24</text>
<text text-anchor="middle" x="181" y="-304.8" font-family="Times,serif" font-size="14.00">value = [0, 3, 21]</text>
</g>
<!-- 1&#45;&gt;2 -->
<g id="edge2" class="edge">
<title>1&#45;&gt;2</title>
<path fill="none" stroke="black" d="M294.46,-400.88C278.53,-391.21 260.99,-380.56 244.56,-370.59"/>
<polygon fill="black" stroke="black" points="245.92,-367.32 235.56,-365.12 242.29,-373.31 245.92,-367.32"/>
</g>
<!-- 5 -->
<g id="node6" class="node">
<title>5</title>
<polygon fill="#45e789" stroke="black" points="405.5,-365 292.5,-365 292.5,-297 405.5,-297 405.5,-365"/>
<text text-anchor="middle" x="349" y="-349.8" font-family="Times,serif" font-size="14.00">hue &lt;= 0.64</text>
<text text-anchor="middle" x="349" y="-334.8" font-family="Times,serif" font-size="14.00">gini = 0.112</text>
<text text-anchor="middle" x="349" y="-319.8" font-family="Times,serif" font-size="14.00">samples = 34</text>
<text text-anchor="middle" x="349" y="-304.8" font-family="Times,serif" font-size="14.00">value = [1, 32, 1]</text>
</g>
<!-- 1&#45;&gt;5 -->
<g id="edge5" class="edge">
<title>1&#45;&gt;5</title>
<path fill="none" stroke="black" d="M349,-400.88C349,-392.78 349,-383.98 349,-375.47"/>
<polygon fill="black" stroke="black" points="352.5,-375.3 349,-365.3 345.5,-375.3 352.5,-375.3"/>
</g>
<!-- 3 -->
<g id="node4" class="node">
<title>3</title>
<polygon fill="#39e581" stroke="black" points="106,-253.5 0,-253.5 0,-200.5 106,-200.5 106,-253.5"/>
<text text-anchor="middle" x="53" y="-238.3" font-family="Times,serif" font-size="14.00">gini = 0.0</text>
<text text-anchor="middle" x="53" y="-223.3" font-family="Times,serif" font-size="14.00">samples = 3</text>
<text text-anchor="middle" x="53" y="-208.3" font-family="Times,serif" font-size="14.00">value = [0, 3, 0]</text>
</g>
<!-- 2&#45;&gt;3 -->
<g id="edge3" class="edge">
<title>2&#45;&gt;3</title>
<path fill="none" stroke="black" d="M139.44,-296.88C124.54,-285.01 107.77,-271.65 93,-259.88"/>
<polygon fill="black" stroke="black" points="95.03,-257.01 85.03,-253.52 90.66,-262.49 95.03,-257.01"/>
</g>
<!-- 4 -->
<g id="node5" class="node">
<title>4</title>
<polygon fill="#8139e5" stroke="black" points="237.5,-253.5 124.5,-253.5 124.5,-200.5 237.5,-200.5 237.5,-253.5"/>
<text text-anchor="middle" x="181" y="-238.3" font-family="Times,serif" font-size="14.00">gini = 0.0</text>
<text text-anchor="middle" x="181" y="-223.3" font-family="Times,serif" font-size="14.00">samples = 21</text>
<text text-anchor="middle" x="181" y="-208.3" font-family="Times,serif" font-size="14.00">value = [0, 0, 21]</text>
</g>
<!-- 2&#45;&gt;4 -->
<g id="edge4" class="edge">
<title>2&#45;&gt;4</title>
<path fill="none" stroke="black" d="M181,-296.88C181,-286.33 181,-274.6 181,-263.85"/>
<polygon fill="black" stroke="black" points="184.5,-263.52 181,-253.52 177.5,-263.52 184.5,-263.52"/>
</g>
<!-- 6 -->
<g id="node7" class="node">
<title>6</title>
<polygon fill="#8139e5" stroke="black" points="362,-253.5 256,-253.5 256,-200.5 362,-200.5 362,-253.5"/>
<text text-anchor="middle" x="309" y="-238.3" font-family="Times,serif" font-size="14.00">gini = 0.0</text>
<text text-anchor="middle" x="309" y="-223.3" font-family="Times,serif" font-size="14.00">samples = 1</text>
<text text-anchor="middle" x="309" y="-208.3" font-family="Times,serif" font-size="14.00">value = [0, 0, 1]</text>
</g>
<!-- 5&#45;&gt;6 -->
<g id="edge6" class="edge">
<title>5&#45;&gt;6</title>
<path fill="none" stroke="black" d="M336.01,-296.88C331.74,-286 326.99,-273.86 322.67,-262.85"/>
<polygon fill="black" stroke="black" points="325.92,-261.55 319.01,-253.52 319.4,-264.11 325.92,-261.55"/>
</g>
<!-- 7 -->
<g id="node8" class="node">
<title>7</title>
<polygon fill="#3fe685" stroke="black" points="493.5,-261 380.5,-261 380.5,-193 493.5,-193 493.5,-261"/>
<text text-anchor="middle" x="437" y="-245.8" font-family="Times,serif" font-size="14.00">proline &lt;= 707.5</text>
<text text-anchor="middle" x="437" y="-230.8" font-family="Times,serif" font-size="14.00">gini = 0.059</text>
<text text-anchor="middle" x="437" y="-215.8" font-family="Times,serif" font-size="14.00">samples = 33</text>
<text text-anchor="middle" x="437" y="-200.8" font-family="Times,serif" font-size="14.00">value = [1, 32, 0]</text>
</g>
<!-- 5&#45;&gt;7 -->
<g id="edge7" class="edge">
<title>5&#45;&gt;7</title>
<path fill="none" stroke="black" d="M377.57,-296.88C385.26,-287.98 393.66,-278.24 401.66,-268.96"/>
<polygon fill="black" stroke="black" points="404.39,-271.16 408.27,-261.3 399.09,-266.58 404.39,-271.16"/>
</g>
<!-- 8 -->
<g id="node9" class="node">
<title>8</title>
<polygon fill="#39e581" stroke="black" points="428.5,-149.5 315.5,-149.5 315.5,-96.5 428.5,-96.5 428.5,-149.5"/>
<text text-anchor="middle" x="372" y="-134.3" font-family="Times,serif" font-size="14.00">gini = 0.0</text>
<text text-anchor="middle" x="372" y="-119.3" font-family="Times,serif" font-size="14.00">samples = 31</text>
<text text-anchor="middle" x="372" y="-104.3" font-family="Times,serif" font-size="14.00">value = [0, 31, 0]</text>
</g>
<!-- 7&#45;&gt;8 -->
<g id="edge8" class="edge">
<title>7&#45;&gt;8</title>
<path fill="none" stroke="black" d="M415.9,-192.88C408.82,-181.78 400.91,-169.37 393.78,-158.18"/>
<polygon fill="black" stroke="black" points="396.59,-156.07 388.26,-149.52 390.69,-159.83 396.59,-156.07"/>
</g>
<!-- 9 -->
<g id="node10" class="node">
<title>9</title>
<polygon fill="#ffffff" stroke="black" points="557,-157 447,-157 447,-89 557,-89 557,-157"/>
<text text-anchor="middle" x="502" y="-141.8" font-family="Times,serif" font-size="14.00">proline &lt;= 742.5</text>
<text text-anchor="middle" x="502" y="-126.8" font-family="Times,serif" font-size="14.00">gini = 0.5</text>
<text text-anchor="middle" x="502" y="-111.8" font-family="Times,serif" font-size="14.00">samples = 2</text>
<text text-anchor="middle" x="502" y="-96.8" font-family="Times,serif" font-size="14.00">value = [1, 1, 0]</text>
</g>
<!-- 7&#45;&gt;9 -->
<g id="edge9" class="edge">
<title>7&#45;&gt;9</title>
<path fill="none" stroke="black" d="M458.1,-192.88C463.61,-184.24 469.62,-174.82 475.37,-165.79"/>
<polygon fill="black" stroke="black" points="478.36,-167.61 480.78,-157.3 472.45,-163.85 478.36,-167.61"/>
</g>
<!-- 10 -->
<g id="node11" class="node">
<title>10</title>
<polygon fill="#e58139" stroke="black" points="493,-53 387,-53 387,0 493,0 493,-53"/>
<text text-anchor="middle" x="440" y="-37.8" font-family="Times,serif" font-size="14.00">gini = 0.0</text>
<text text-anchor="middle" x="440" y="-22.8" font-family="Times,serif" font-size="14.00">samples = 1</text>
<text text-anchor="middle" x="440" y="-7.8" font-family="Times,serif" font-size="14.00">value = [1, 0, 0]</text>
</g>
<!-- 9&#45;&gt;10 -->
<g id="edge10" class="edge">
<title>9&#45;&gt;10</title>
<path fill="none" stroke="black" d="M480.32,-88.95C474.55,-80.17 468.32,-70.66 462.51,-61.82"/>
<polygon fill="black" stroke="black" points="465.3,-59.68 456.89,-53.24 459.44,-63.52 465.3,-59.68"/>
</g>
<!-- 11 -->
<g id="node12" class="node">
<title>11</title>
<polygon fill="#39e581" stroke="black" points="617,-53 511,-53 511,0 617,0 617,-53"/>
<text text-anchor="middle" x="564" y="-37.8" font-family="Times,serif" font-size="14.00">gini = 0.0</text>
<text text-anchor="middle" x="564" y="-22.8" font-family="Times,serif" font-size="14.00">samples = 1</text>
<text text-anchor="middle" x="564" y="-7.8" font-family="Times,serif" font-size="14.00">value = [0, 1, 0]</text>
</g>
<!-- 9&#45;&gt;11 -->
<g id="edge11" class="edge">
<title>9&#45;&gt;11</title>
<path fill="none" stroke="black" d="M523.68,-88.95C529.45,-80.17 535.68,-70.66 541.49,-61.82"/>
<polygon fill="black" stroke="black" points="544.56,-63.52 547.11,-53.24 538.7,-59.68 544.56,-63.52"/>
</g>
<!-- 13 -->
<g id="node14" class="node">
<title>13</title>
<polygon fill="#c09cf2" stroke="black" points="634.5,-365 495.5,-365 495.5,-297 634.5,-297 634.5,-365"/>
<text text-anchor="middle" x="565" y="-349.8" font-family="Times,serif" font-size="14.00">color_intensity &lt;= 4.1</text>
<text text-anchor="middle" x="565" y="-334.8" font-family="Times,serif" font-size="14.00">gini = 0.444</text>
<text text-anchor="middle" x="565" y="-319.8" font-family="Times,serif" font-size="14.00">samples = 3</text>
<text text-anchor="middle" x="565" y="-304.8" font-family="Times,serif" font-size="14.00">value = [0, 1, 2]</text>
</g>
<!-- 12&#45;&gt;13 -->
<g id="edge13" class="edge">
<title>12&#45;&gt;13</title>
<path fill="none" stroke="black" d="M565,-400.88C565,-392.78 565,-383.98 565,-375.47"/>
<polygon fill="black" stroke="black" points="568.5,-375.3 565,-365.3 561.5,-375.3 568.5,-375.3"/>
</g>
<!-- 16 -->
<g id="node17" class="node">
<title>16</title>
<polygon fill="#e58139" stroke="black" points="765.5,-357.5 652.5,-357.5 652.5,-304.5 765.5,-304.5 765.5,-357.5"/>
<text text-anchor="middle" x="709" y="-342.3" font-family="Times,serif" font-size="14.00">gini = 0.0</text>
<text text-anchor="middle" x="709" y="-327.3" font-family="Times,serif" font-size="14.00">samples = 28</text>
<text text-anchor="middle" x="709" y="-312.3" font-family="Times,serif" font-size="14.00">value = [28, 0, 0]</text>
</g>
<!-- 12&#45;&gt;16 -->
<g id="edge16" class="edge">
<title>12&#45;&gt;16</title>
<path fill="none" stroke="black" d="M611.75,-400.88C628.68,-388.9 647.73,-375.4 664.46,-363.55"/>
<polygon fill="black" stroke="black" points="666.83,-366.16 672.97,-357.52 662.79,-360.44 666.83,-366.16"/>
</g>
<!-- 14 -->
<g id="node15" class="node">
<title>14</title>
<polygon fill="#39e581" stroke="black" points="618,-253.5 512,-253.5 512,-200.5 618,-200.5 618,-253.5"/>
<text text-anchor="middle" x="565" y="-238.3" font-family="Times,serif" font-size="14.00">gini = 0.0</text>
<text text-anchor="middle" x="565" y="-223.3" font-family="Times,serif" font-size="14.00">samples = 1</text>
<text text-anchor="middle" x="565" y="-208.3" font-family="Times,serif" font-size="14.00">value = [0, 1, 0]</text>
</g>
<!-- 13&#45;&gt;14 -->
<g id="edge14" class="edge">
<title>13&#45;&gt;14</title>
<path fill="none" stroke="black" d="M565,-296.88C565,-286.33 565,-274.6 565,-263.85"/>
<polygon fill="black" stroke="black" points="568.5,-263.52 565,-253.52 561.5,-263.52 568.5,-263.52"/>
</g>
<!-- 15 -->
<g id="node16" class="node">
<title>15</title>
<polygon fill="#8139e5" stroke="black" points="742,-253.5 636,-253.5 636,-200.5 742,-200.5 742,-253.5"/>
<text text-anchor="middle" x="689" y="-238.3" font-family="Times,serif" font-size="14.00">gini = 0.0</text>
<text text-anchor="middle" x="689" y="-223.3" font-family="Times,serif" font-size="14.00">samples = 2</text>
<text text-anchor="middle" x="689" y="-208.3" font-family="Times,serif" font-size="14.00">value = [0, 0, 2]</text>
</g>
<!-- 13&#45;&gt;15 -->
<g id="edge15" class="edge">
<title>13&#45;&gt;15</title>
<path fill="none" stroke="black" d="M605.26,-296.88C619.7,-285.01 635.94,-271.65 650.25,-259.88"/>
<polygon fill="black" stroke="black" points="652.48,-262.58 657.98,-253.52 648.03,-257.17 652.48,-262.58"/>
</g>
</g>
</svg>
