<?xml version="1.0" encoding="UTF-8" standalone="no"?>
<!DOCTYPE svg PUBLIC "-//W3C//DTD SVG 1.1//EN"
 "http://www.w3.org/Graphics/SVG/1.1/DTD/svg11.dtd">
<!-- Generated by graphviz version 2.46.1 (20210213.1702)
 -->
<!-- Title: Tree Pages: 1 -->
<svg width="447pt" height="373pt"
 viewBox="0.00 0.00 447.00 373.00" xmlns="http://www.w3.org/2000/svg" xmlns:xlink="http://www.w3.org/1999/xlink">
<g id="graph0" class="graph" transform="scale(1 1) rotate(0) translate(4 369)">
<title>Tree</title>
<polygon fill="white" stroke="transparent" points="-4,4 -4,-369 443,-369 443,4 -4,4"/>
<!-- 0 -->
<g id="node1" class="node">
<title>0</title>
<polygon fill="#e8fcf0" stroke="black" points="225.5,-365 79.5,-365 79.5,-297 225.5,-297 225.5,-365"/>
<text text-anchor="middle" x="152.5" y="-349.8" font-family="Times,serif" font-size="14.00">color_intensity &lt;= 3.49</text>
<text text-anchor="middle" x="152.5" y="-334.8" font-family="Times,serif" font-size="14.00">gini = 0.657</text>
<text text-anchor="middle" x="152.5" y="-319.8" font-family="Times,serif" font-size="14.00">samples = 89</text>
<text text-anchor="middle" x="152.5" y="-304.8" font-family="Times,serif" font-size="14.00">value = [29, 36, 24]</text>
</g>
<!-- 1 -->
<g id="node2" class="node">
<title>1</title>
<polygon fill="#39e581" stroke="black" points="113,-253.5 0,-253.5 0,-200.5 113,-200.5 113,-253.5"/>
<text text-anchor="middle" x="56.5" y="-238.3" font-family="Times,serif" font-size="14.00">gini = 0.0</text>
<text text-anchor="middle" x="56.5" y="-223.3" font-family="Times,serif" font-size="14.00">samples = 32</text>
<text text-anchor="middle" x="56.5" y="-208.3" font-family="Times,serif" font-size="14.00">value = [0, 32, 0]</text>
</g>
<!-- 0&#45;&gt;1 -->
<g id="edge1" class="edge">
<title>0&#45;&gt;1</title>
<path fill="none" stroke="black" d="M121.33,-296.88C110.46,-285.34 98.28,-272.39 87.43,-260.86"/>
<polygon fill="black" stroke="black" points="89.92,-258.4 80.52,-253.52 84.82,-263.2 89.92,-258.4"/>
<text text-anchor="middle" x="79.76" y="-274.81" font-family="Times,serif" font-size="14.00">True</text>
</g>
<!-- 2 -->
<g id="node3" class="node">
<title>2</title>
<polygon fill="#fbece1" stroke="black" points="367.5,-261 131.5,-261 131.5,-193 367.5,-193 367.5,-261"/>
<text text-anchor="middle" x="249.5" y="-245.8" font-family="Times,serif" font-size="14.00">od280/od315_of_diluted_wines &lt;= 2.48</text>
<text text-anchor="middle" x="249.5" y="-230.8" font-family="Times,serif" font-size="14.00">gini = 0.559</text>
<text text-anchor="middle" x="249.5" y="-215.8" font-family="Times,serif" font-size="14.00">samples = 57</text>
<text text-anchor="middle" x="249.5" y="-200.8" font-family="Times,serif" font-size="14.00">value = [29, 4, 24]</text>
</g>
<!-- 0&#45;&gt;2 -->
<g id="edge2" class="edge">
<title>0&#45;&gt;2</title>
<path fill="none" stroke="black" d="M183.99,-296.88C192.55,-287.89 201.91,-278.04 210.82,-268.68"/>
<polygon fill="black" stroke="black" points="213.48,-270.96 217.83,-261.3 208.41,-266.13 213.48,-270.96"/>
<text text-anchor="middle" x="218.46" y="-282.59" font-family="Times,serif" font-size="14.00">False</text>
</g>
<!-- 3 -->
<g id="node4" class="node">
<title>3</title>
<polygon fill="#8139e5" stroke="black" points="236,-149.5 123,-149.5 123,-96.5 236,-96.5 236,-149.5"/>
<text text-anchor="middle" x="179.5" y="-134.3" font-family="Times,serif" font-size="14.00">gini = 0.0</text>
<text text-anchor="middle" x="179.5" y="-119.3" font-family="Times,serif" font-size="14.00">samples = 24</text>
<text text-anchor="middle" x="179.5" y="-104.3" font-family="Times,serif" font-size="14.00">value = [0, 0, 24]</text>
</g>
<!-- 2&#45;&gt;3 -->
<g id="edge3" class="edge">
<title>2&#45;&gt;3</title>
<path fill="none" stroke="black" d="M226.77,-192.88C219.07,-181.67 210.47,-169.13 202.73,-157.85"/>
<polygon fill="black" stroke="black" points="205.56,-155.78 197.01,-149.52 199.79,-159.75 205.56,-155.78"/>
</g>
<!-- 4 -->
<g id="node5" class="node">
<title>4</title>
<polygon fill="#e99254" stroke="black" points="382.5,-157 254.5,-157 254.5,-89 382.5,-89 382.5,-157"/>
<text text-anchor="middle" x="318.5" y="-141.8" font-family="Times,serif" font-size="14.00">magnesium &lt;= 88.0</text>
<text text-anchor="middle" x="318.5" y="-126.8" font-family="Times,serif" font-size="14.00">gini = 0.213</text>
<text text-anchor="middle" x="318.5" y="-111.8" font-family="Times,serif" font-size="14.00">samples = 33</text>
<text text-anchor="middle" x="318.5" y="-96.8" font-family="Times,serif" font-size="14.00">value = [29, 4, 0]</text>
</g>
<!-- 2&#45;&gt;4 -->
<g id="edge4" class="edge">
<title>2&#45;&gt;4</title>
<path fill="none" stroke="black" d="M271.9,-192.88C277.75,-184.24 284.12,-174.82 290.23,-165.79"/>
<polygon fill="black" stroke="black" points="293.27,-167.54 295.97,-157.3 287.47,-163.62 293.27,-167.54"/>
</g>
<!-- 5 -->
<g id="node6" class="node">
<title>5</title>
<polygon fill="#39e581" stroke="black" points="307.5,-53 201.5,-53 201.5,0 307.5,0 307.5,-53"/>
<text text-anchor="middle" x="254.5" y="-37.8" font-family="Times,serif" font-size="14.00">gini = 0.0</text>
<text text-anchor="middle" x="254.5" y="-22.8" font-family="Times,serif" font-size="14.00">samples = 4</text>
<text text-anchor="middle" x="254.5" y="-7.8" font-family="Times,serif" font-size="14.00">value = [0, 4, 0]</text>
</g>
<!-- 4&#45;&gt;5 -->
<g id="edge5" class="edge">
<title>4&#45;&gt;5</title>
<path fill="none" stroke="black" d="M296.12,-88.95C290.11,-80.07 283.6,-70.46 277.55,-61.54"/>
<polygon fill="black" stroke="black" points="280.44,-59.55 271.93,-53.24 274.64,-63.48 280.44,-59.55"/>
</g>
<!-- 6 -->
<g id="node7" class="node">
<title>6</title>
<polygon fill="#e58139" stroke="black" points="439,-53 326,-53 326,0 439,0 439,-53"/>
<text text-anchor="middle" x="382.5" y="-37.8" font-family="Times,serif" font-size="14.00">gini = 0.0</text>
<text text-anchor="middle" x="382.5" y="-22.8" font-family="Times,serif" font-size="14.00">samples = 29</text>
<text text-anchor="middle" x="382.5" y="-7.8" font-family="Times,serif" font-size="14.00">value = [29, 0, 0]</text>
</g>
<!-- 4&#45;&gt;6 -->
<g id="edge6" class="edge">
<title>4&#45;&gt;6</title>
<path fill="none" stroke="black" d="M340.88,-88.95C346.89,-80.07 353.4,-70.46 359.45,-61.54"/>
<polygon fill="black" stroke="black" points="362.36,-63.48 365.07,-53.24 356.56,-59.55 362.36,-63.48"/>
</g>
</g>
</svg>
