<?xml version="1.0" encoding="UTF-8" standalone="no"?>
<!DOCTYPE svg PUBLIC "-//W3C//DTD SVG 1.1//EN"
 "http://www.w3.org/Graphics/SVG/1.1/DTD/svg11.dtd">
<!-- Generated by graphviz version 2.46.1 (20210213.1702)
 -->
<!-- Title: Tree Pages: 1 -->
<svg width="629pt" height="685pt"
 viewBox="0.00 0.00 629.00 685.00" xmlns="http://www.w3.org/2000/svg" xmlns:xlink="http://www.w3.org/1999/xlink">
<g id="graph0" class="graph" transform="scale(1 1) rotate(0) translate(4 681)">
<title>Tree</title>
<polygon fill="white" stroke="transparent" points="-4,4 -4,-681 625,-681 625,4 -4,4"/>
<!-- 0 -->
<g id="node1" class="node">
<title>0</title>
<polygon fill="#eefdf4" stroke="black" points="461.5,-677 335.5,-677 335.5,-609 461.5,-609 461.5,-677"/>
<text text-anchor="middle" x="398.5" y="-661.8" font-family="Times,serif" font-size="14.00">proline &lt;= 903.0</text>
<text text-anchor="middle" x="398.5" y="-646.8" font-family="Times,serif" font-size="14.00">gini = 0.659</text>
<text text-anchor="middle" x="398.5" y="-631.8" font-family="Times,serif" font-size="14.00">samples = 89</text>
<text text-anchor="middle" x="398.5" y="-616.8" font-family="Times,serif" font-size="14.00">value = [30, 35, 24]</text>
</g>
<!-- 1 -->
<g id="node2" class="node">
<title>1</title>
<polygon fill="#c9f8dc" stroke="black" points="397.5,-573 251.5,-573 251.5,-505 397.5,-505 397.5,-573"/>
<text text-anchor="middle" x="324.5" y="-557.8" font-family="Times,serif" font-size="14.00">color_intensity &lt;= 4.75</text>
<text text-anchor="middle" x="324.5" y="-542.8" font-family="Times,serif" font-size="14.00">gini = 0.554</text>
<text text-anchor="middle" x="324.5" y="-527.8" font-family="Times,serif" font-size="14.00">samples = 64</text>
<text text-anchor="middle" x="324.5" y="-512.8" font-family="Times,serif" font-size="14.00">value = [5, 35, 24]</text>
</g>
<!-- 0&#45;&gt;1 -->
<g id="edge1" class="edge">
<title>0&#45;&gt;1</title>
<path fill="none" stroke="black" d="M374.47,-608.88C368.14,-600.15 361.23,-590.62 354.62,-581.51"/>
<polygon fill="black" stroke="black" points="357.36,-579.34 348.66,-573.3 351.7,-583.45 357.36,-579.34"/>
<text text-anchor="middle" x="344.73" y="-594.29" font-family="Times,serif" font-size="14.00">True</text>
</g>
<!-- 16 -->
<g id="node17" class="node">
<title>16</title>
<polygon fill="#e58139" stroke="black" points="529,-565.5 416,-565.5 416,-512.5 529,-512.5 529,-565.5"/>
<text text-anchor="middle" x="472.5" y="-550.3" font-family="Times,serif" font-size="14.00">gini = 0.0</text>
<text text-anchor="middle" x="472.5" y="-535.3" font-family="Times,serif" font-size="14.00">samples = 25</text>
<text text-anchor="middle" x="472.5" y="-520.3" font-family="Times,serif" font-size="14.00">value = [25, 0, 0]</text>
</g>
<!-- 0&#45;&gt;16 -->
<g id="edge16" class="edge">
<title>0&#45;&gt;16</title>
<path fill="none" stroke="black" d="M422.53,-608.88C430.66,-597.67 439.76,-585.13 447.94,-573.85"/>
<polygon fill="black" stroke="black" points="450.95,-575.67 453.99,-565.52 445.28,-571.56 450.95,-575.67"/>
<text text-anchor="middle" x="457.91" y="-586.51" font-family="Times,serif" font-size="14.00">False</text>
</g>
<!-- 2 -->
<g id="node3" class="node">
<title>2</title>
<polygon fill="#4ae78c" stroke="black" points="335.5,-469 99.5,-469 99.5,-401 335.5,-401 335.5,-469"/>
<text text-anchor="middle" x="217.5" y="-453.8" font-family="Times,serif" font-size="14.00">od280/od315_of_diluted_wines &lt;= 1.48</text>
<text text-anchor="middle" x="217.5" y="-438.8" font-family="Times,serif" font-size="14.00">gini = 0.152</text>
<text text-anchor="middle" x="217.5" y="-423.8" font-family="Times,serif" font-size="14.00">samples = 37</text>
<text text-anchor="middle" x="217.5" y="-408.8" font-family="Times,serif" font-size="14.00">value = [2, 34, 1]</text>
</g>
<!-- 1&#45;&gt;2 -->
<g id="edge2" class="edge">
<title>1&#45;&gt;2</title>
<path fill="none" stroke="black" d="M289.76,-504.88C280.23,-495.8 269.79,-485.85 259.88,-476.4"/>
<polygon fill="black" stroke="black" points="262.08,-473.67 252.43,-469.3 257.25,-478.73 262.08,-473.67"/>
</g>
<!-- 11 -->
<g id="node12" class="node">
<title>11</title>
<polygon fill="#965ae9" stroke="black" points="511.5,-469 353.5,-469 353.5,-401 511.5,-401 511.5,-469"/>
<text text-anchor="middle" x="432.5" y="-453.8" font-family="Times,serif" font-size="14.00">alcalinity_of_ash &lt;= 18.0</text>
<text text-anchor="middle" x="432.5" y="-438.8" font-family="Times,serif" font-size="14.00">gini = 0.261</text>
<text text-anchor="middle" x="432.5" y="-423.8" font-family="Times,serif" font-size="14.00">samples = 27</text>
<text text-anchor="middle" x="432.5" y="-408.8" font-family="Times,serif" font-size="14.00">value = [3, 1, 23]</text>
</g>
<!-- 1&#45;&gt;11 -->
<g id="edge11" class="edge">
<title>1&#45;&gt;11</title>
<path fill="none" stroke="black" d="M359.56,-504.88C369.18,-495.8 379.72,-485.85 389.72,-476.4"/>
<polygon fill="black" stroke="black" points="392.37,-478.71 397.24,-469.3 387.57,-473.62 392.37,-478.71"/>
</g>
<!-- 3 -->
<g id="node4" class="node">
<title>3</title>
<polygon fill="#8139e5" stroke="black" points="165.5,-357.5 59.5,-357.5 59.5,-304.5 165.5,-304.5 165.5,-357.5"/>
<text text-anchor="middle" x="112.5" y="-342.3" font-family="Times,serif" font-size="14.00">gini = 0.0</text>
<text text-anchor="middle" x="112.5" y="-327.3" font-family="Times,serif" font-size="14.00">samples = 1</text>
<text text-anchor="middle" x="112.5" y="-312.3" font-family="Times,serif" font-size="14.00">value = [0, 0, 1]</text>
</g>
<!-- 2&#45;&gt;3 -->
<g id="edge3" class="edge">
<title>2&#45;&gt;3</title>
<path fill="none" stroke="black" d="M183.41,-400.88C171.41,-389.23 157.94,-376.14 145.99,-364.53"/>
<polygon fill="black" stroke="black" points="148.38,-361.98 138.77,-357.52 143.5,-367 148.38,-361.98"/>
</g>
<!-- 4 -->
<g id="node5" class="node">
<title>4</title>
<polygon fill="#45e788" stroke="black" points="297,-365 184,-365 184,-297 297,-297 297,-365"/>
<text text-anchor="middle" x="240.5" y="-349.8" font-family="Times,serif" font-size="14.00">ash &lt;= 3.0</text>
<text text-anchor="middle" x="240.5" y="-334.8" font-family="Times,serif" font-size="14.00">gini = 0.105</text>
<text text-anchor="middle" x="240.5" y="-319.8" font-family="Times,serif" font-size="14.00">samples = 36</text>
<text text-anchor="middle" x="240.5" y="-304.8" font-family="Times,serif" font-size="14.00">value = [2, 34, 0]</text>
</g>
<!-- 2&#45;&gt;4 -->
<g id="edge4" class="edge">
<title>2&#45;&gt;4</title>
<path fill="none" stroke="black" d="M224.97,-400.88C226.82,-392.69 228.82,-383.79 230.76,-375.19"/>
<polygon fill="black" stroke="black" points="234.21,-375.82 232.99,-365.3 227.38,-374.28 234.21,-375.82"/>
</g>
<!-- 5 -->
<g id="node6" class="node">
<title>5</title>
<polygon fill="#3fe685" stroke="black" points="180.5,-261 62.5,-261 62.5,-193 180.5,-193 180.5,-261"/>
<text text-anchor="middle" x="121.5" y="-245.8" font-family="Times,serif" font-size="14.00">alcohol &lt;= 13.145</text>
<text text-anchor="middle" x="121.5" y="-230.8" font-family="Times,serif" font-size="14.00">gini = 0.056</text>
<text text-anchor="middle" x="121.5" y="-215.8" font-family="Times,serif" font-size="14.00">samples = 35</text>
<text text-anchor="middle" x="121.5" y="-200.8" font-family="Times,serif" font-size="14.00">value = [1, 34, 0]</text>
</g>
<!-- 4&#45;&gt;5 -->
<g id="edge5" class="edge">
<title>4&#45;&gt;5</title>
<path fill="none" stroke="black" d="M201.86,-296.88C191.06,-287.62 179.2,-277.45 167.99,-267.85"/>
<polygon fill="black" stroke="black" points="170.22,-265.15 160.35,-261.3 165.66,-270.46 170.22,-265.15"/>
</g>
<!-- 10 -->
<g id="node11" class="node">
<title>10</title>
<polygon fill="#e58139" stroke="black" points="304.5,-253.5 198.5,-253.5 198.5,-200.5 304.5,-200.5 304.5,-253.5"/>
<text text-anchor="middle" x="251.5" y="-238.3" font-family="Times,serif" font-size="14.00">gini = 0.0</text>
<text text-anchor="middle" x="251.5" y="-223.3" font-family="Times,serif" font-size="14.00">samples = 1</text>
<text text-anchor="middle" x="251.5" y="-208.3" font-family="Times,serif" font-size="14.00">value = [1, 0, 0]</text>
</g>
<!-- 4&#45;&gt;10 -->
<g id="edge10" class="edge">
<title>4&#45;&gt;10</title>
<path fill="none" stroke="black" d="M244.07,-296.88C245.22,-286.22 246.5,-274.35 247.67,-263.52"/>
<polygon fill="black" stroke="black" points="251.16,-263.84 248.75,-253.52 244.2,-263.09 251.16,-263.84"/>
</g>
<!-- 6 -->
<g id="node7" class="node">
<title>6</title>
<polygon fill="#39e581" stroke="black" points="113,-149.5 0,-149.5 0,-96.5 113,-96.5 113,-149.5"/>
<text text-anchor="middle" x="56.5" y="-134.3" font-family="Times,serif" font-size="14.00">gini = 0.0</text>
<text text-anchor="middle" x="56.5" y="-119.3" font-family="Times,serif" font-size="14.00">samples = 32</text>
<text text-anchor="middle" x="56.5" y="-104.3" font-family="Times,serif" font-size="14.00">value = [0, 32, 0]</text>
</g>
<!-- 5&#45;&gt;6 -->
<g id="edge6" class="edge">
<title>5&#45;&gt;6</title>
<path fill="none" stroke="black" d="M100.4,-192.88C93.32,-181.78 85.41,-169.37 78.28,-158.18"/>
<polygon fill="black" stroke="black" points="81.09,-156.07 72.76,-149.52 75.19,-159.83 81.09,-156.07"/>
</g>
<!-- 7 -->
<g id="node8" class="node">
<title>7</title>
<polygon fill="#9cf2c0" stroke="black" points="241.5,-157 131.5,-157 131.5,-89 241.5,-89 241.5,-157"/>
<text text-anchor="middle" x="186.5" y="-141.8" font-family="Times,serif" font-size="14.00">proline &lt;= 655.0</text>
<text text-anchor="middle" x="186.5" y="-126.8" font-family="Times,serif" font-size="14.00">gini = 0.444</text>
<text text-anchor="middle" x="186.5" y="-111.8" font-family="Times,serif" font-size="14.00">samples = 3</text>
<text text-anchor="middle" x="186.5" y="-96.8" font-family="Times,serif" font-size="14.00">value = [1, 2, 0]</text>
</g>
<!-- 5&#45;&gt;7 -->
<g id="edge7" class="edge">
<title>5&#45;&gt;7</title>
<path fill="none" stroke="black" d="M142.6,-192.88C148.11,-184.24 154.12,-174.82 159.87,-165.79"/>
<polygon fill="black" stroke="black" points="162.86,-167.61 165.28,-157.3 156.95,-163.85 162.86,-167.61"/>
</g>
<!-- 8 -->
<g id="node9" class="node">
<title>8</title>
<polygon fill="#39e581" stroke="black" points="177.5,-53 71.5,-53 71.5,0 177.5,0 177.5,-53"/>
<text text-anchor="middle" x="124.5" y="-37.8" font-family="Times,serif" font-size="14.00">gini = 0.0</text>
<text text-anchor="middle" x="124.5" y="-22.8" font-family="Times,serif" font-size="14.00">samples = 2</text>
<text text-anchor="middle" x="124.5" y="-7.8" font-family="Times,serif" font-size="14.00">value = [0, 2, 0]</text>
</g>
<!-- 7&#45;&gt;8 -->
<g id="edge8" class="edge">
<title>7&#45;&gt;8</title>
<path fill="none" stroke="black" d="M164.82,-88.95C159.05,-80.17 152.82,-70.66 147.01,-61.82"/>
<polygon fill="black" stroke="black" points="149.8,-59.68 141.39,-53.24 143.94,-63.52 149.8,-59.68"/>
</g>
<!-- 9 -->
<g id="node10" class="node">
<title>9</title>
<polygon fill="#e58139" stroke="black" points="301.5,-53 195.5,-53 195.5,0 301.5,0 301.5,-53"/>
<text text-anchor="middle" x="248.5" y="-37.8" font-family="Times,serif" font-size="14.00">gini = 0.0</text>
<text text-anchor="middle" x="248.5" y="-22.8" font-family="Times,serif" font-size="14.00">samples = 1</text>
<text text-anchor="middle" x="248.5" y="-7.8" font-family="Times,serif" font-size="14.00">value = [1, 0, 0]</text>
</g>
<!-- 7&#45;&gt;9 -->
<g id="edge9" class="edge">
<title>7&#45;&gt;9</title>
<path fill="none" stroke="black" d="M208.18,-88.95C213.95,-80.17 220.18,-70.66 225.99,-61.82"/>
<polygon fill="black" stroke="black" points="229.06,-63.52 231.61,-53.24 223.2,-59.68 229.06,-63.52"/>
</g>
<!-- 12 -->
<g id="node13" class="node">
<title>12</title>
<polygon fill="#eeab7b" stroke="black" points="490,-365 363,-365 363,-297 490,-297 490,-365"/>
<text text-anchor="middle" x="426.5" y="-349.8" font-family="Times,serif" font-size="14.00">flavanoids &lt;= 2.205</text>
<text text-anchor="middle" x="426.5" y="-334.8" font-family="Times,serif" font-size="14.00">gini = 0.375</text>
<text text-anchor="middle" x="426.5" y="-319.8" font-family="Times,serif" font-size="14.00">samples = 4</text>
<text text-anchor="middle" x="426.5" y="-304.8" font-family="Times,serif" font-size="14.00">value = [3, 1, 0]</text>
</g>
<!-- 11&#45;&gt;12 -->
<g id="edge12" class="edge">
<title>11&#45;&gt;12</title>
<path fill="none" stroke="black" d="M430.55,-400.88C430.08,-392.78 429.56,-383.98 429.06,-375.47"/>
<polygon fill="black" stroke="black" points="432.54,-375.08 428.46,-365.3 425.55,-375.49 432.54,-375.08"/>
</g>
<!-- 15 -->
<g id="node16" class="node">
<title>15</title>
<polygon fill="#8139e5" stroke="black" points="621,-357.5 508,-357.5 508,-304.5 621,-304.5 621,-357.5"/>
<text text-anchor="middle" x="564.5" y="-342.3" font-family="Times,serif" font-size="14.00">gini = 0.0</text>
<text text-anchor="middle" x="564.5" y="-327.3" font-family="Times,serif" font-size="14.00">samples = 23</text>
<text text-anchor="middle" x="564.5" y="-312.3" font-family="Times,serif" font-size="14.00">value = [0, 0, 23]</text>
</g>
<!-- 11&#45;&gt;15 -->
<g id="edge15" class="edge">
<title>11&#45;&gt;15</title>
<path fill="none" stroke="black" d="M475.36,-400.88C490.73,-389.01 508.02,-375.65 523.25,-363.88"/>
<polygon fill="black" stroke="black" points="525.7,-366.4 531.47,-357.52 521.42,-360.86 525.7,-366.4"/>
</g>
<!-- 13 -->
<g id="node14" class="node">
<title>13</title>
<polygon fill="#39e581" stroke="black" points="473.5,-253.5 367.5,-253.5 367.5,-200.5 473.5,-200.5 473.5,-253.5"/>
<text text-anchor="middle" x="420.5" y="-238.3" font-family="Times,serif" font-size="14.00">gini = 0.0</text>
<text text-anchor="middle" x="420.5" y="-223.3" font-family="Times,serif" font-size="14.00">samples = 1</text>
<text text-anchor="middle" x="420.5" y="-208.3" font-family="Times,serif" font-size="14.00">value = [0, 1, 0]</text>
</g>
<!-- 12&#45;&gt;13 -->
<g id="edge13" class="edge">
<title>12&#45;&gt;13</title>
<path fill="none" stroke="black" d="M424.55,-296.88C423.92,-286.22 423.23,-274.35 422.59,-263.52"/>
<polygon fill="black" stroke="black" points="426.08,-263.3 422,-253.52 419.09,-263.71 426.08,-263.3"/>
</g>
<!-- 14 -->
<g id="node15" class="node">
<title>14</title>
<polygon fill="#e58139" stroke="black" points="597.5,-253.5 491.5,-253.5 491.5,-200.5 597.5,-200.5 597.5,-253.5"/>
<text text-anchor="middle" x="544.5" y="-238.3" font-family="Times,serif" font-size="14.00">gini = 0.0</text>
<text text-anchor="middle" x="544.5" y="-223.3" font-family="Times,serif" font-size="14.00">samples = 3</text>
<text text-anchor="middle" x="544.5" y="-208.3" font-family="Times,serif" font-size="14.00">value = [3, 0, 0]</text>
</g>
<!-- 12&#45;&gt;14 -->
<g id="edge14" class="edge">
<title>12&#45;&gt;14</title>
<path fill="none" stroke="black" d="M464.81,-296.88C478.42,-285.12 493.72,-271.89 507.25,-260.2"/>
<polygon fill="black" stroke="black" points="509.7,-262.71 514.98,-253.52 505.12,-257.41 509.7,-262.71"/>
</g>
</g>
</svg>
