<?xml version="1.0" encoding="UTF-8" standalone="no"?>
<!DOCTYPE svg PUBLIC "-//W3C//DTD SVG 1.1//EN"
 "http://www.w3.org/Graphics/SVG/1.1/DTD/svg11.dtd">
<!-- Generated by graphviz version 2.46.1 (20210213.1702)
 -->
<!-- Title: Tree Pages: 1 -->
<svg width="772pt" height="477pt"
 viewBox="0.00 0.00 771.50 477.00" xmlns="http://www.w3.org/2000/svg" xmlns:xlink="http://www.w3.org/1999/xlink">
<g id="graph0" class="graph" transform="scale(1 1) rotate(0) translate(4 473)">
<title>Tree</title>
<polygon fill="white" stroke="transparent" points="-4,4 -4,-473 767.5,-473 767.5,4 -4,4"/>
<!-- 0 -->
<g id="node1" class="node">
<title>0</title>
<polygon fill="#e8fcf0" stroke="black" points="474.5,-469 348.5,-469 348.5,-401 474.5,-401 474.5,-469"/>
<text text-anchor="middle" x="411.5" y="-453.8" font-family="Times,serif" font-size="14.00">proline &lt;= 750.0</text>
<text text-anchor="middle" x="411.5" y="-438.8" font-family="Times,serif" font-size="14.00">gini = 0.657</text>
<text text-anchor="middle" x="411.5" y="-423.8" font-family="Times,serif" font-size="14.00">samples = 89</text>
<text text-anchor="middle" x="411.5" y="-408.8" font-family="Times,serif" font-size="14.00">value = [29, 36, 24]</text>
</g>
<!-- 1 -->
<g id="node2" class="node">
<title>1</title>
<polygon fill="#a4f3c5" stroke="black" points="402.5,-365 166.5,-365 166.5,-297 402.5,-297 402.5,-365"/>
<text text-anchor="middle" x="284.5" y="-349.8" font-family="Times,serif" font-size="14.00">od280/od315_of_diluted_wines &lt;= 2.09</text>
<text text-anchor="middle" x="284.5" y="-334.8" font-family="Times,serif" font-size="14.00">gini = 0.456</text>
<text text-anchor="middle" x="284.5" y="-319.8" font-family="Times,serif" font-size="14.00">samples = 54</text>
<text text-anchor="middle" x="284.5" y="-304.8" font-family="Times,serif" font-size="14.00">value = [0, 35, 19]</text>
</g>
<!-- 0&#45;&gt;1 -->
<g id="edge1" class="edge">
<title>0&#45;&gt;1</title>
<path fill="none" stroke="black" d="M370.27,-400.88C358.62,-391.53 345.83,-381.26 333.77,-371.57"/>
<polygon fill="black" stroke="black" points="335.95,-368.83 325.96,-365.3 331.57,-374.29 335.95,-368.83"/>
<text text-anchor="middle" x="328.67" y="-386.45" font-family="Times,serif" font-size="14.00">True</text>
</g>
<!-- 8 -->
<g id="node9" class="node">
<title>8</title>
<polygon fill="#ea9a61" stroke="black" points="656.5,-365 420.5,-365 420.5,-297 656.5,-297 656.5,-365"/>
<text text-anchor="middle" x="538.5" y="-349.8" font-family="Times,serif" font-size="14.00">od280/od315_of_diluted_wines &lt;= 2.49</text>
<text text-anchor="middle" x="538.5" y="-334.8" font-family="Times,serif" font-size="14.00">gini = 0.292</text>
<text text-anchor="middle" x="538.5" y="-319.8" font-family="Times,serif" font-size="14.00">samples = 35</text>
<text text-anchor="middle" x="538.5" y="-304.8" font-family="Times,serif" font-size="14.00">value = [29, 1, 5]</text>
</g>
<!-- 0&#45;&gt;8 -->
<g id="edge8" class="edge">
<title>0&#45;&gt;8</title>
<path fill="none" stroke="black" d="M452.73,-400.88C464.38,-391.53 477.17,-381.26 489.23,-371.57"/>
<polygon fill="black" stroke="black" points="491.43,-374.29 497.04,-365.3 487.05,-368.83 491.43,-374.29"/>
<text text-anchor="middle" x="494.33" y="-386.45" font-family="Times,serif" font-size="14.00">False</text>
</g>
<!-- 2 -->
<g id="node3" class="node">
<title>2</title>
<polygon fill="#9c63ea" stroke="black" points="242,-261 129,-261 129,-193 242,-193 242,-261"/>
<text text-anchor="middle" x="185.5" y="-245.8" font-family="Times,serif" font-size="14.00">hue &lt;= 0.97</text>
<text text-anchor="middle" x="185.5" y="-230.8" font-family="Times,serif" font-size="14.00">gini = 0.287</text>
<text text-anchor="middle" x="185.5" y="-215.8" font-family="Times,serif" font-size="14.00">samples = 23</text>
<text text-anchor="middle" x="185.5" y="-200.8" font-family="Times,serif" font-size="14.00">value = [0, 4, 19]</text>
</g>
<!-- 1&#45;&gt;2 -->
<g id="edge2" class="edge">
<title>1&#45;&gt;2</title>
<path fill="none" stroke="black" d="M252.36,-296.88C243.63,-287.89 234.07,-278.04 224.98,-268.68"/>
<polygon fill="black" stroke="black" points="227.3,-266.04 217.82,-261.3 222.27,-270.91 227.3,-266.04"/>
</g>
<!-- 7 -->
<g id="node8" class="node">
<title>7</title>
<polygon fill="#39e581" stroke="black" points="373,-253.5 260,-253.5 260,-200.5 373,-200.5 373,-253.5"/>
<text text-anchor="middle" x="316.5" y="-238.3" font-family="Times,serif" font-size="14.00">gini = 0.0</text>
<text text-anchor="middle" x="316.5" y="-223.3" font-family="Times,serif" font-size="14.00">samples = 31</text>
<text text-anchor="middle" x="316.5" y="-208.3" font-family="Times,serif" font-size="14.00">value = [0, 31, 0]</text>
</g>
<!-- 1&#45;&gt;7 -->
<g id="edge7" class="edge">
<title>1&#45;&gt;7</title>
<path fill="none" stroke="black" d="M294.89,-296.88C298.27,-286.11 302.03,-274.11 305.46,-263.18"/>
<polygon fill="black" stroke="black" points="308.84,-264.11 308.49,-253.52 302.16,-262.01 308.84,-264.11"/>
</g>
<!-- 3 -->
<g id="node4" class="node">
<title>3</title>
<polygon fill="#8843e6" stroke="black" points="180.5,-157 60.5,-157 60.5,-89 180.5,-89 180.5,-157"/>
<text text-anchor="middle" x="120.5" y="-141.8" font-family="Times,serif" font-size="14.00">flavanoids &lt;= 1.58</text>
<text text-anchor="middle" x="120.5" y="-126.8" font-family="Times,serif" font-size="14.00">gini = 0.095</text>
<text text-anchor="middle" x="120.5" y="-111.8" font-family="Times,serif" font-size="14.00">samples = 20</text>
<text text-anchor="middle" x="120.5" y="-96.8" font-family="Times,serif" font-size="14.00">value = [0, 1, 19]</text>
</g>
<!-- 2&#45;&gt;3 -->
<g id="edge3" class="edge">
<title>2&#45;&gt;3</title>
<path fill="none" stroke="black" d="M164.4,-192.88C158.89,-184.24 152.88,-174.82 147.13,-165.79"/>
<polygon fill="black" stroke="black" points="150.05,-163.85 141.72,-157.3 144.14,-167.61 150.05,-163.85"/>
</g>
<!-- 6 -->
<g id="node7" class="node">
<title>6</title>
<polygon fill="#39e581" stroke="black" points="304.5,-149.5 198.5,-149.5 198.5,-96.5 304.5,-96.5 304.5,-149.5"/>
<text text-anchor="middle" x="251.5" y="-134.3" font-family="Times,serif" font-size="14.00">gini = 0.0</text>
<text text-anchor="middle" x="251.5" y="-119.3" font-family="Times,serif" font-size="14.00">samples = 3</text>
<text text-anchor="middle" x="251.5" y="-104.3" font-family="Times,serif" font-size="14.00">value = [0, 3, 0]</text>
</g>
<!-- 2&#45;&gt;6 -->
<g id="edge6" class="edge">
<title>2&#45;&gt;6</title>
<path fill="none" stroke="black" d="M206.93,-192.88C214.12,-181.78 222.14,-169.37 229.38,-158.18"/>
<polygon fill="black" stroke="black" points="232.49,-159.82 234.99,-149.52 226.62,-156.01 232.49,-159.82"/>
</g>
<!-- 4 -->
<g id="node5" class="node">
<title>4</title>
<polygon fill="#8139e5" stroke="black" points="113,-53 0,-53 0,0 113,0 113,-53"/>
<text text-anchor="middle" x="56.5" y="-37.8" font-family="Times,serif" font-size="14.00">gini = 0.0</text>
<text text-anchor="middle" x="56.5" y="-22.8" font-family="Times,serif" font-size="14.00">samples = 19</text>
<text text-anchor="middle" x="56.5" y="-7.8" font-family="Times,serif" font-size="14.00">value = [0, 0, 19]</text>
</g>
<!-- 3&#45;&gt;4 -->
<g id="edge4" class="edge">
<title>3&#45;&gt;4</title>
<path fill="none" stroke="black" d="M98.12,-88.95C92.11,-80.07 85.6,-70.46 79.55,-61.54"/>
<polygon fill="black" stroke="black" points="82.44,-59.55 73.93,-53.24 76.64,-63.48 82.44,-59.55"/>
</g>
<!-- 5 -->
<g id="node6" class="node">
<title>5</title>
<polygon fill="#39e581" stroke="black" points="237.5,-53 131.5,-53 131.5,0 237.5,0 237.5,-53"/>
<text text-anchor="middle" x="184.5" y="-37.8" font-family="Times,serif" font-size="14.00">gini = 0.0</text>
<text text-anchor="middle" x="184.5" y="-22.8" font-family="Times,serif" font-size="14.00">samples = 1</text>
<text text-anchor="middle" x="184.5" y="-7.8" font-family="Times,serif" font-size="14.00">value = [0, 1, 0]</text>
</g>
<!-- 3&#45;&gt;5 -->
<g id="edge5" class="edge">
<title>3&#45;&gt;5</title>
<path fill="none" stroke="black" d="M142.88,-88.95C148.89,-80.07 155.4,-70.46 161.45,-61.54"/>
<polygon fill="black" stroke="black" points="164.36,-63.48 167.07,-53.24 158.56,-59.55 164.36,-63.48"/>
</g>
<!-- 9 -->
<g id="node10" class="node">
<title>9</title>
<polygon fill="#8139e5" stroke="black" points="560.5,-253.5 454.5,-253.5 454.5,-200.5 560.5,-200.5 560.5,-253.5"/>
<text text-anchor="middle" x="507.5" y="-238.3" font-family="Times,serif" font-size="14.00">gini = 0.0</text>
<text text-anchor="middle" x="507.5" y="-223.3" font-family="Times,serif" font-size="14.00">samples = 5</text>
<text text-anchor="middle" x="507.5" y="-208.3" font-family="Times,serif" font-size="14.00">value = [0, 0, 5]</text>
</g>
<!-- 8&#45;&gt;9 -->
<g id="edge9" class="edge">
<title>8&#45;&gt;9</title>
<path fill="none" stroke="black" d="M528.44,-296.88C525.16,-286.11 521.51,-274.11 518.19,-263.18"/>
<polygon fill="black" stroke="black" points="521.51,-262.07 515.26,-253.52 514.82,-264.11 521.51,-262.07"/>
</g>
<!-- 10 -->
<g id="node11" class="node">
<title>10</title>
<polygon fill="#e68540" stroke="black" points="714,-261 579,-261 579,-193 714,-193 714,-261"/>
<text text-anchor="middle" x="646.5" y="-245.8" font-family="Times,serif" font-size="14.00">magnesium &lt;= 145.0</text>
<text text-anchor="middle" x="646.5" y="-230.8" font-family="Times,serif" font-size="14.00">gini = 0.064</text>
<text text-anchor="middle" x="646.5" y="-215.8" font-family="Times,serif" font-size="14.00">samples = 30</text>
<text text-anchor="middle" x="646.5" y="-200.8" font-family="Times,serif" font-size="14.00">value = [29, 1, 0]</text>
</g>
<!-- 8&#45;&gt;10 -->
<g id="edge10" class="edge">
<title>8&#45;&gt;10</title>
<path fill="none" stroke="black" d="M573.56,-296.88C583.18,-287.8 593.72,-277.85 603.72,-268.4"/>
<polygon fill="black" stroke="black" points="606.37,-270.71 611.24,-261.3 601.57,-265.62 606.37,-270.71"/>
</g>
<!-- 11 -->
<g id="node12" class="node">
<title>11</title>
<polygon fill="#e58139" stroke="black" points="639,-149.5 526,-149.5 526,-96.5 639,-96.5 639,-149.5"/>
<text text-anchor="middle" x="582.5" y="-134.3" font-family="Times,serif" font-size="14.00">gini = 0.0</text>
<text text-anchor="middle" x="582.5" y="-119.3" font-family="Times,serif" font-size="14.00">samples = 29</text>
<text text-anchor="middle" x="582.5" y="-104.3" font-family="Times,serif" font-size="14.00">value = [29, 0, 0]</text>
</g>
<!-- 10&#45;&gt;11 -->
<g id="edge11" class="edge">
<title>10&#45;&gt;11</title>
<path fill="none" stroke="black" d="M625.72,-192.88C618.75,-181.78 610.97,-169.37 603.95,-158.18"/>
<polygon fill="black" stroke="black" points="606.79,-156.13 598.51,-149.52 600.86,-159.85 606.79,-156.13"/>
</g>
<!-- 12 -->
<g id="node13" class="node">
<title>12</title>
<polygon fill="#39e581" stroke="black" points="763.5,-149.5 657.5,-149.5 657.5,-96.5 763.5,-96.5 763.5,-149.5"/>
<text text-anchor="middle" x="710.5" y="-134.3" font-family="Times,serif" font-size="14.00">gini = 0.0</text>
<text text-anchor="middle" x="710.5" y="-119.3" font-family="Times,serif" font-size="14.00">samples = 1</text>
<text text-anchor="middle" x="710.5" y="-104.3" font-family="Times,serif" font-size="14.00">value = [0, 1, 0]</text>
</g>
<!-- 10&#45;&gt;12 -->
<g id="edge12" class="edge">
<title>10&#45;&gt;12</title>
<path fill="none" stroke="black" d="M667.28,-192.88C674.25,-181.78 682.03,-169.37 689.05,-158.18"/>
<polygon fill="black" stroke="black" points="692.14,-159.85 694.49,-149.52 686.21,-156.13 692.14,-159.85"/>
</g>
</g>
</svg>
