<?xml version="1.0" encoding="UTF-8" standalone="no"?>
<!DOCTYPE svg PUBLIC "-//W3C//DTD SVG 1.1//EN"
 "http://www.w3.org/Graphics/SVG/1.1/DTD/svg11.dtd">
<!-- Generated by graphviz version 2.46.1 (20210213.1702)
 -->
<!-- Title: Tree Pages: 1 -->
<svg width="1019pt" height="477pt"
 viewBox="0.00 0.00 1019.00 477.00" xmlns="http://www.w3.org/2000/svg" xmlns:xlink="http://www.w3.org/1999/xlink">
<g id="graph0" class="graph" transform="scale(1 1) rotate(0) translate(4 473)">
<title>Tree</title>
<polygon fill="white" stroke="transparent" points="-4,4 -4,-473 1015,-473 1015,4 -4,4"/>
<!-- 0 -->
<g id="node1" class="node">
<title>0</title>
<polygon fill="#eafcf1" stroke="black" points="561,-469 435,-469 435,-401 561,-401 561,-469"/>
<text text-anchor="middle" x="498" y="-453.8" font-family="Times,serif" font-size="14.00">proline &lt;= 760.0</text>
<text text-anchor="middle" x="498" y="-438.8" font-family="Times,serif" font-size="14.00">gini = 0.657</text>
<text text-anchor="middle" x="498" y="-423.8" font-family="Times,serif" font-size="14.00">samples = 124</text>
<text text-anchor="middle" x="498" y="-408.8" font-family="Times,serif" font-size="14.00">value = [41, 50, 33]</text>
</g>
<!-- 1 -->
<g id="node2" class="node">
<title>1</title>
<polygon fill="#b2f5ce" stroke="black" points="476,-365 240,-365 240,-297 476,-297 476,-365"/>
<text text-anchor="middle" x="358" y="-349.8" font-family="Times,serif" font-size="14.00">od280/od315_of_diluted_wines &lt;= 2.19</text>
<text text-anchor="middle" x="358" y="-334.8" font-family="Times,serif" font-size="14.00">gini = 0.483</text>
<text text-anchor="middle" x="358" y="-319.8" font-family="Times,serif" font-size="14.00">samples = 78</text>
<text text-anchor="middle" x="358" y="-304.8" font-family="Times,serif" font-size="14.00">value = [1, 48, 29]</text>
</g>
<!-- 0&#45;&gt;1 -->
<g id="edge1" class="edge">
<title>0&#45;&gt;1</title>
<path fill="none" stroke="black" d="M452.55,-400.88C439.59,-391.44 425.34,-381.06 411.93,-371.29"/>
<polygon fill="black" stroke="black" points="413.85,-368.36 403.71,-365.3 409.73,-374.02 413.85,-368.36"/>
<text text-anchor="middle" x="407.58" y="-386.3" font-family="Times,serif" font-size="14.00">True</text>
</g>
<!-- 10 -->
<g id="node11" class="node">
<title>10</title>
<polygon fill="#e99355" stroke="black" points="737,-365 501,-365 501,-297 737,-297 737,-365"/>
<text text-anchor="middle" x="619" y="-349.8" font-family="Times,serif" font-size="14.00">od280/od315_of_diluted_wines &lt;= 2.64</text>
<text text-anchor="middle" x="619" y="-334.8" font-family="Times,serif" font-size="14.00">gini = 0.234</text>
<text text-anchor="middle" x="619" y="-319.8" font-family="Times,serif" font-size="14.00">samples = 46</text>
<text text-anchor="middle" x="619" y="-304.8" font-family="Times,serif" font-size="14.00">value = [40, 2, 4]</text>
</g>
<!-- 0&#45;&gt;10 -->
<g id="edge10" class="edge">
<title>0&#45;&gt;10</title>
<path fill="none" stroke="black" d="M537.29,-400.88C548.27,-391.62 560.33,-381.45 571.73,-371.85"/>
<polygon fill="black" stroke="black" points="574.11,-374.42 579.5,-365.3 569.6,-369.07 574.11,-374.42"/>
<text text-anchor="middle" x="577.38" y="-386.51" font-family="Times,serif" font-size="14.00">False</text>
</g>
<!-- 2 -->
<g id="node3" class="node">
<title>2</title>
<polygon fill="#9b62ea" stroke="black" points="270,-261 106,-261 106,-193 270,-193 270,-261"/>
<text text-anchor="middle" x="188" y="-245.8" font-family="Times,serif" font-size="14.00">alcalinity_of_ash &lt;= 17.25</text>
<text text-anchor="middle" x="188" y="-230.8" font-family="Times,serif" font-size="14.00">gini = 0.284</text>
<text text-anchor="middle" x="188" y="-215.8" font-family="Times,serif" font-size="14.00">samples = 35</text>
<text text-anchor="middle" x="188" y="-200.8" font-family="Times,serif" font-size="14.00">value = [0, 6, 29]</text>
</g>
<!-- 1&#45;&gt;2 -->
<g id="edge2" class="edge">
<title>1&#45;&gt;2</title>
<path fill="none" stroke="black" d="M302.81,-296.88C286.54,-287.12 268.61,-276.37 251.85,-266.31"/>
<polygon fill="black" stroke="black" points="253.58,-263.27 243.21,-261.12 249.98,-269.27 253.58,-263.27"/>
</g>
<!-- 7 -->
<g id="node8" class="node">
<title>7</title>
<polygon fill="#3ee684" stroke="black" points="414.5,-261 301.5,-261 301.5,-193 414.5,-193 414.5,-261"/>
<text text-anchor="middle" x="358" y="-245.8" font-family="Times,serif" font-size="14.00">proline &lt;= 726.5</text>
<text text-anchor="middle" x="358" y="-230.8" font-family="Times,serif" font-size="14.00">gini = 0.045</text>
<text text-anchor="middle" x="358" y="-215.8" font-family="Times,serif" font-size="14.00">samples = 43</text>
<text text-anchor="middle" x="358" y="-200.8" font-family="Times,serif" font-size="14.00">value = [1, 42, 0]</text>
</g>
<!-- 1&#45;&gt;7 -->
<g id="edge7" class="edge">
<title>1&#45;&gt;7</title>
<path fill="none" stroke="black" d="M358,-296.88C358,-288.78 358,-279.98 358,-271.47"/>
<polygon fill="black" stroke="black" points="361.5,-271.3 358,-261.3 354.5,-271.3 361.5,-271.3"/>
</g>
<!-- 3 -->
<g id="node4" class="node">
<title>3</title>
<polygon fill="#39e581" stroke="black" points="106,-149.5 0,-149.5 0,-96.5 106,-96.5 106,-149.5"/>
<text text-anchor="middle" x="53" y="-134.3" font-family="Times,serif" font-size="14.00">gini = 0.0</text>
<text text-anchor="middle" x="53" y="-119.3" font-family="Times,serif" font-size="14.00">samples = 5</text>
<text text-anchor="middle" x="53" y="-104.3" font-family="Times,serif" font-size="14.00">value = [0, 5, 0]</text>
</g>
<!-- 2&#45;&gt;3 -->
<g id="edge3" class="edge">
<title>2&#45;&gt;3</title>
<path fill="none" stroke="black" d="M144.17,-192.88C128.3,-180.9 110.44,-167.4 94.76,-155.55"/>
<polygon fill="black" stroke="black" points="96.87,-152.76 86.78,-149.52 92.65,-158.34 96.87,-152.76"/>
</g>
<!-- 4 -->
<g id="node5" class="node">
<title>4</title>
<polygon fill="#8540e6" stroke="black" points="251.5,-157 124.5,-157 124.5,-89 251.5,-89 251.5,-157"/>
<text text-anchor="middle" x="188" y="-141.8" font-family="Times,serif" font-size="14.00">flavanoids &lt;= 1.475</text>
<text text-anchor="middle" x="188" y="-126.8" font-family="Times,serif" font-size="14.00">gini = 0.064</text>
<text text-anchor="middle" x="188" y="-111.8" font-family="Times,serif" font-size="14.00">samples = 30</text>
<text text-anchor="middle" x="188" y="-96.8" font-family="Times,serif" font-size="14.00">value = [0, 1, 29]</text>
</g>
<!-- 2&#45;&gt;4 -->
<g id="edge4" class="edge">
<title>2&#45;&gt;4</title>
<path fill="none" stroke="black" d="M188,-192.88C188,-184.78 188,-175.98 188,-167.47"/>
<polygon fill="black" stroke="black" points="191.5,-167.3 188,-157.3 184.5,-167.3 191.5,-167.3"/>
</g>
<!-- 5 -->
<g id="node6" class="node">
<title>5</title>
<polygon fill="#8139e5" stroke="black" points="180.5,-53 67.5,-53 67.5,0 180.5,0 180.5,-53"/>
<text text-anchor="middle" x="124" y="-37.8" font-family="Times,serif" font-size="14.00">gini = 0.0</text>
<text text-anchor="middle" x="124" y="-22.8" font-family="Times,serif" font-size="14.00">samples = 29</text>
<text text-anchor="middle" x="124" y="-7.8" font-family="Times,serif" font-size="14.00">value = [0, 0, 29]</text>
</g>
<!-- 4&#45;&gt;5 -->
<g id="edge5" class="edge">
<title>4&#45;&gt;5</title>
<path fill="none" stroke="black" d="M165.62,-88.95C159.61,-80.07 153.1,-70.46 147.05,-61.54"/>
<polygon fill="black" stroke="black" points="149.94,-59.55 141.43,-53.24 144.14,-63.48 149.94,-59.55"/>
</g>
<!-- 6 -->
<g id="node7" class="node">
<title>6</title>
<polygon fill="#39e581" stroke="black" points="305,-53 199,-53 199,0 305,0 305,-53"/>
<text text-anchor="middle" x="252" y="-37.8" font-family="Times,serif" font-size="14.00">gini = 0.0</text>
<text text-anchor="middle" x="252" y="-22.8" font-family="Times,serif" font-size="14.00">samples = 1</text>
<text text-anchor="middle" x="252" y="-7.8" font-family="Times,serif" font-size="14.00">value = [0, 1, 0]</text>
</g>
<!-- 4&#45;&gt;6 -->
<g id="edge6" class="edge">
<title>4&#45;&gt;6</title>
<path fill="none" stroke="black" d="M210.38,-88.95C216.39,-80.07 222.9,-70.46 228.95,-61.54"/>
<polygon fill="black" stroke="black" points="231.86,-63.48 234.57,-53.24 226.06,-59.55 231.86,-63.48"/>
</g>
<!-- 8 -->
<g id="node9" class="node">
<title>8</title>
<polygon fill="#39e581" stroke="black" points="382.5,-149.5 269.5,-149.5 269.5,-96.5 382.5,-96.5 382.5,-149.5"/>
<text text-anchor="middle" x="326" y="-134.3" font-family="Times,serif" font-size="14.00">gini = 0.0</text>
<text text-anchor="middle" x="326" y="-119.3" font-family="Times,serif" font-size="14.00">samples = 42</text>
<text text-anchor="middle" x="326" y="-104.3" font-family="Times,serif" font-size="14.00">value = [0, 42, 0]</text>
</g>
<!-- 7&#45;&gt;8 -->
<g id="edge8" class="edge">
<title>7&#45;&gt;8</title>
<path fill="none" stroke="black" d="M347.61,-192.88C344.23,-182.11 340.47,-170.11 337.04,-159.18"/>
<polygon fill="black" stroke="black" points="340.34,-158.01 334.01,-149.52 333.66,-160.11 340.34,-158.01"/>
</g>
<!-- 9 -->
<g id="node10" class="node">
<title>9</title>
<polygon fill="#e58139" stroke="black" points="507,-149.5 401,-149.5 401,-96.5 507,-96.5 507,-149.5"/>
<text text-anchor="middle" x="454" y="-134.3" font-family="Times,serif" font-size="14.00">gini = 0.0</text>
<text text-anchor="middle" x="454" y="-119.3" font-family="Times,serif" font-size="14.00">samples = 1</text>
<text text-anchor="middle" x="454" y="-104.3" font-family="Times,serif" font-size="14.00">value = [1, 0, 0]</text>
</g>
<!-- 7&#45;&gt;9 -->
<g id="edge9" class="edge">
<title>7&#45;&gt;9</title>
<path fill="none" stroke="black" d="M389.17,-192.88C400.04,-181.34 412.22,-168.39 423.07,-156.86"/>
<polygon fill="black" stroke="black" points="425.68,-159.2 429.98,-149.52 420.58,-154.4 425.68,-159.2"/>
</g>
<!-- 11 -->
<g id="node12" class="node">
<title>11</title>
<polygon fill="#a06aec" stroke="black" points="737,-261 501,-261 501,-193 737,-193 737,-261"/>
<text text-anchor="middle" x="619" y="-245.8" font-family="Times,serif" font-size="14.00">od280/od315_of_diluted_wines &lt;= 2.55</text>
<text text-anchor="middle" x="619" y="-230.8" font-family="Times,serif" font-size="14.00">gini = 0.32</text>
<text text-anchor="middle" x="619" y="-215.8" font-family="Times,serif" font-size="14.00">samples = 5</text>
<text text-anchor="middle" x="619" y="-200.8" font-family="Times,serif" font-size="14.00">value = [0, 1, 4]</text>
</g>
<!-- 10&#45;&gt;11 -->
<g id="edge11" class="edge">
<title>10&#45;&gt;11</title>
<path fill="none" stroke="black" d="M619,-296.88C619,-288.78 619,-279.98 619,-271.47"/>
<polygon fill="black" stroke="black" points="622.5,-271.3 619,-261.3 615.5,-271.3 622.5,-271.3"/>
</g>
<!-- 14 -->
<g id="node15" class="node">
<title>14</title>
<polygon fill="#e6843e" stroke="black" points="897.5,-261 762.5,-261 762.5,-193 897.5,-193 897.5,-261"/>
<text text-anchor="middle" x="830" y="-245.8" font-family="Times,serif" font-size="14.00">magnesium &lt;= 133.0</text>
<text text-anchor="middle" x="830" y="-230.8" font-family="Times,serif" font-size="14.00">gini = 0.048</text>
<text text-anchor="middle" x="830" y="-215.8" font-family="Times,serif" font-size="14.00">samples = 41</text>
<text text-anchor="middle" x="830" y="-200.8" font-family="Times,serif" font-size="14.00">value = [40, 1, 0]</text>
</g>
<!-- 10&#45;&gt;14 -->
<g id="edge14" class="edge">
<title>10&#45;&gt;14</title>
<path fill="none" stroke="black" d="M687.51,-296.88C708.46,-286.75 731.64,-275.55 753.11,-265.17"/>
<polygon fill="black" stroke="black" points="754.72,-268.28 762.2,-260.78 751.67,-261.98 754.72,-268.28"/>
</g>
<!-- 12 -->
<g id="node13" class="node">
<title>12</title>
<polygon fill="#8139e5" stroke="black" points="631,-149.5 525,-149.5 525,-96.5 631,-96.5 631,-149.5"/>
<text text-anchor="middle" x="578" y="-134.3" font-family="Times,serif" font-size="14.00">gini = 0.0</text>
<text text-anchor="middle" x="578" y="-119.3" font-family="Times,serif" font-size="14.00">samples = 4</text>
<text text-anchor="middle" x="578" y="-104.3" font-family="Times,serif" font-size="14.00">value = [0, 0, 4]</text>
</g>
<!-- 11&#45;&gt;12 -->
<g id="edge12" class="edge">
<title>11&#45;&gt;12</title>
<path fill="none" stroke="black" d="M605.69,-192.88C601.31,-182 596.43,-169.86 592.01,-158.85"/>
<polygon fill="black" stroke="black" points="595.24,-157.49 588.26,-149.52 588.74,-160.1 595.24,-157.49"/>
</g>
<!-- 13 -->
<g id="node14" class="node">
<title>13</title>
<polygon fill="#39e581" stroke="black" points="755,-149.5 649,-149.5 649,-96.5 755,-96.5 755,-149.5"/>
<text text-anchor="middle" x="702" y="-134.3" font-family="Times,serif" font-size="14.00">gini = 0.0</text>
<text text-anchor="middle" x="702" y="-119.3" font-family="Times,serif" font-size="14.00">samples = 1</text>
<text text-anchor="middle" x="702" y="-104.3" font-family="Times,serif" font-size="14.00">value = [0, 1, 0]</text>
</g>
<!-- 11&#45;&gt;13 -->
<g id="edge13" class="edge">
<title>11&#45;&gt;13</title>
<path fill="none" stroke="black" d="M645.95,-192.88C655.17,-181.56 665.48,-168.88 674.72,-157.52"/>
<polygon fill="black" stroke="black" points="677.64,-159.49 681.23,-149.52 672.21,-155.07 677.64,-159.49"/>
</g>
<!-- 15 -->
<g id="node16" class="node">
<title>15</title>
<polygon fill="#e58139" stroke="black" points="886.5,-149.5 773.5,-149.5 773.5,-96.5 886.5,-96.5 886.5,-149.5"/>
<text text-anchor="middle" x="830" y="-134.3" font-family="Times,serif" font-size="14.00">gini = 0.0</text>
<text text-anchor="middle" x="830" y="-119.3" font-family="Times,serif" font-size="14.00">samples = 40</text>
<text text-anchor="middle" x="830" y="-104.3" font-family="Times,serif" font-size="14.00">value = [40, 0, 0]</text>
</g>
<!-- 14&#45;&gt;15 -->
<g id="edge15" class="edge">
<title>14&#45;&gt;15</title>
<path fill="none" stroke="black" d="M830,-192.88C830,-182.33 830,-170.6 830,-159.85"/>
<polygon fill="black" stroke="black" points="833.5,-159.52 830,-149.52 826.5,-159.52 833.5,-159.52"/>
</g>
<!-- 16 -->
<g id="node17" class="node">
<title>16</title>
<polygon fill="#39e581" stroke="black" points="1011,-149.5 905,-149.5 905,-96.5 1011,-96.5 1011,-149.5"/>
<text text-anchor="middle" x="958" y="-134.3" font-family="Times,serif" font-size="14.00">gini = 0.0</text>
<text text-anchor="middle" x="958" y="-119.3" font-family="Times,serif" font-size="14.00">samples = 1</text>
<text text-anchor="middle" x="958" y="-104.3" font-family="Times,serif" font-size="14.00">value = [0, 1, 0]</text>
</g>
<!-- 14&#45;&gt;16 -->
<g id="edge16" class="edge">
<title>14&#45;&gt;16</title>
<path fill="none" stroke="black" d="M871.56,-192.88C886.46,-181.01 903.23,-167.65 918,-155.88"/>
<polygon fill="black" stroke="black" points="920.34,-158.49 925.97,-149.52 915.97,-153.01 920.34,-158.49"/>
</g>
</g>
</svg>
