<?xml version="1.0" encoding="UTF-8" standalone="no"?>
<!DOCTYPE svg PUBLIC "-//W3C//DTD SVG 1.1//EN"
 "http://www.w3.org/Graphics/SVG/1.1/DTD/svg11.dtd">
<!-- Generated by graphviz version 2.46.1 (20210213.1702)
 -->
<!-- Title: Tree Pages: 1 -->
<svg width="647pt" height="373pt"
 viewBox="0.00 0.00 647.00 373.00" xmlns="http://www.w3.org/2000/svg" xmlns:xlink="http://www.w3.org/1999/xlink">
<g id="graph0" class="graph" transform="scale(1 1) rotate(0) translate(4 369)">
<title>Tree</title>
<polygon fill="white" stroke="transparent" points="-4,4 -4,-369 643,-369 643,4 -4,4"/>
<!-- 0 -->
<g id="node1" class="node">
<title>0</title>
<polygon fill="#eefdf4" stroke="black" points="386.5,-365 240.5,-365 240.5,-297 386.5,-297 386.5,-365"/>
<text text-anchor="middle" x="313.5" y="-349.8" font-family="Times,serif" font-size="14.00">color_intensity &lt;= 3.97</text>
<text text-anchor="middle" x="313.5" y="-334.8" font-family="Times,serif" font-size="14.00">gini = 0.659</text>
<text text-anchor="middle" x="313.5" y="-319.8" font-family="Times,serif" font-size="14.00">samples = 89</text>
<text text-anchor="middle" x="313.5" y="-304.8" font-family="Times,serif" font-size="14.00">value = [30, 35, 24]</text>
</g>
<!-- 1 -->
<g id="node2" class="node">
<title>1</title>
<polygon fill="#4ae78c" stroke="black" points="303,-261 190,-261 190,-193 303,-193 303,-261"/>
<text text-anchor="middle" x="246.5" y="-245.8" font-family="Times,serif" font-size="14.00">proline &lt;= 987.5</text>
<text text-anchor="middle" x="246.5" y="-230.8" font-family="Times,serif" font-size="14.00">gini = 0.149</text>
<text text-anchor="middle" x="246.5" y="-215.8" font-family="Times,serif" font-size="14.00">samples = 37</text>
<text text-anchor="middle" x="246.5" y="-200.8" font-family="Times,serif" font-size="14.00">value = [3, 34, 0]</text>
</g>
<!-- 0&#45;&gt;1 -->
<g id="edge1" class="edge">
<title>0&#45;&gt;1</title>
<path fill="none" stroke="black" d="M291.75,-296.88C286.07,-288.24 279.88,-278.82 273.95,-269.79"/>
<polygon fill="black" stroke="black" points="276.79,-267.74 268.37,-261.3 270.94,-271.58 276.79,-267.74"/>
<text text-anchor="middle" x="263.3" y="-282.08" font-family="Times,serif" font-size="14.00">True</text>
</g>
<!-- 6 -->
<g id="node7" class="node">
<title>6</title>
<polygon fill="#fcf2ea" stroke="black" points="441.5,-261 321.5,-261 321.5,-193 441.5,-193 441.5,-261"/>
<text text-anchor="middle" x="381.5" y="-245.8" font-family="Times,serif" font-size="14.00">flavanoids &lt;= 1.95</text>
<text text-anchor="middle" x="381.5" y="-230.8" font-family="Times,serif" font-size="14.00">gini = 0.517</text>
<text text-anchor="middle" x="381.5" y="-215.8" font-family="Times,serif" font-size="14.00">samples = 52</text>
<text text-anchor="middle" x="381.5" y="-200.8" font-family="Times,serif" font-size="14.00">value = [27, 1, 24]</text>
</g>
<!-- 0&#45;&gt;6 -->
<g id="edge6" class="edge">
<title>0&#45;&gt;6</title>
<path fill="none" stroke="black" d="M335.58,-296.88C341.34,-288.24 347.62,-278.82 353.64,-269.79"/>
<polygon fill="black" stroke="black" points="356.67,-271.56 359.3,-261.3 350.84,-267.68 356.67,-271.56"/>
<text text-anchor="middle" x="364.2" y="-282.11" font-family="Times,serif" font-size="14.00">False</text>
</g>
<!-- 2 -->
<g id="node3" class="node">
<title>2</title>
<polygon fill="#3fe685" stroke="black" points="177,-157 64,-157 64,-89 177,-89 177,-157"/>
<text text-anchor="middle" x="120.5" y="-141.8" font-family="Times,serif" font-size="14.00">ash &lt;= 3.07</text>
<text text-anchor="middle" x="120.5" y="-126.8" font-family="Times,serif" font-size="14.00">gini = 0.056</text>
<text text-anchor="middle" x="120.5" y="-111.8" font-family="Times,serif" font-size="14.00">samples = 35</text>
<text text-anchor="middle" x="120.5" y="-96.8" font-family="Times,serif" font-size="14.00">value = [1, 34, 0]</text>
</g>
<!-- 1&#45;&gt;2 -->
<g id="edge2" class="edge">
<title>1&#45;&gt;2</title>
<path fill="none" stroke="black" d="M205.59,-192.88C194.15,-183.62 181.59,-173.45 169.72,-163.85"/>
<polygon fill="black" stroke="black" points="171.61,-160.87 161.63,-157.3 167.2,-166.31 171.61,-160.87"/>
</g>
<!-- 5 -->
<g id="node6" class="node">
<title>5</title>
<polygon fill="#e58139" stroke="black" points="301.5,-149.5 195.5,-149.5 195.5,-96.5 301.5,-96.5 301.5,-149.5"/>
<text text-anchor="middle" x="248.5" y="-134.3" font-family="Times,serif" font-size="14.00">gini = 0.0</text>
<text text-anchor="middle" x="248.5" y="-119.3" font-family="Times,serif" font-size="14.00">samples = 2</text>
<text text-anchor="middle" x="248.5" y="-104.3" font-family="Times,serif" font-size="14.00">value = [2, 0, 0]</text>
</g>
<!-- 1&#45;&gt;5 -->
<g id="edge5" class="edge">
<title>1&#45;&gt;5</title>
<path fill="none" stroke="black" d="M247.15,-192.88C247.36,-182.22 247.59,-170.35 247.8,-159.52"/>
<polygon fill="black" stroke="black" points="251.3,-159.59 248,-149.52 244.3,-159.45 251.3,-159.59"/>
</g>
<!-- 3 -->
<g id="node4" class="node">
<title>3</title>
<polygon fill="#39e581" stroke="black" points="113,-53 0,-53 0,0 113,0 113,-53"/>
<text text-anchor="middle" x="56.5" y="-37.8" font-family="Times,serif" font-size="14.00">gini = 0.0</text>
<text text-anchor="middle" x="56.5" y="-22.8" font-family="Times,serif" font-size="14.00">samples = 34</text>
<text text-anchor="middle" x="56.5" y="-7.8" font-family="Times,serif" font-size="14.00">value = [0, 34, 0]</text>
</g>
<!-- 2&#45;&gt;3 -->
<g id="edge3" class="edge">
<title>2&#45;&gt;3</title>
<path fill="none" stroke="black" d="M98.12,-88.95C92.11,-80.07 85.6,-70.46 79.55,-61.54"/>
<polygon fill="black" stroke="black" points="82.44,-59.55 73.93,-53.24 76.64,-63.48 82.44,-59.55"/>
</g>
<!-- 4 -->
<g id="node5" class="node">
<title>4</title>
<polygon fill="#e58139" stroke="black" points="237.5,-53 131.5,-53 131.5,0 237.5,0 237.5,-53"/>
<text text-anchor="middle" x="184.5" y="-37.8" font-family="Times,serif" font-size="14.00">gini = 0.0</text>
<text text-anchor="middle" x="184.5" y="-22.8" font-family="Times,serif" font-size="14.00">samples = 1</text>
<text text-anchor="middle" x="184.5" y="-7.8" font-family="Times,serif" font-size="14.00">value = [1, 0, 0]</text>
</g>
<!-- 2&#45;&gt;4 -->
<g id="edge4" class="edge">
<title>2&#45;&gt;4</title>
<path fill="none" stroke="black" d="M142.88,-88.95C148.89,-80.07 155.4,-70.46 161.45,-61.54"/>
<polygon fill="black" stroke="black" points="164.36,-63.48 167.07,-53.24 158.56,-59.55 164.36,-63.48"/>
</g>
<!-- 7 -->
<g id="node8" class="node">
<title>7</title>
<polygon fill="#8139e5" stroke="black" points="436,-149.5 323,-149.5 323,-96.5 436,-96.5 436,-149.5"/>
<text text-anchor="middle" x="379.5" y="-134.3" font-family="Times,serif" font-size="14.00">gini = 0.0</text>
<text text-anchor="middle" x="379.5" y="-119.3" font-family="Times,serif" font-size="14.00">samples = 24</text>
<text text-anchor="middle" x="379.5" y="-104.3" font-family="Times,serif" font-size="14.00">value = [0, 0, 24]</text>
</g>
<!-- 6&#45;&gt;7 -->
<g id="edge7" class="edge">
<title>6&#45;&gt;7</title>
<path fill="none" stroke="black" d="M380.85,-192.88C380.64,-182.22 380.41,-170.35 380.2,-159.52"/>
<polygon fill="black" stroke="black" points="383.7,-159.45 380,-149.52 376.7,-159.59 383.7,-159.45"/>
</g>
<!-- 8 -->
<g id="node9" class="node">
<title>8</title>
<polygon fill="#e68640" stroke="black" points="582.5,-157 454.5,-157 454.5,-89 582.5,-89 582.5,-157"/>
<text text-anchor="middle" x="518.5" y="-141.8" font-family="Times,serif" font-size="14.00">magnesium &lt;= 89.0</text>
<text text-anchor="middle" x="518.5" y="-126.8" font-family="Times,serif" font-size="14.00">gini = 0.069</text>
<text text-anchor="middle" x="518.5" y="-111.8" font-family="Times,serif" font-size="14.00">samples = 28</text>
<text text-anchor="middle" x="518.5" y="-96.8" font-family="Times,serif" font-size="14.00">value = [27, 1, 0]</text>
</g>
<!-- 6&#45;&gt;8 -->
<g id="edge8" class="edge">
<title>6&#45;&gt;8</title>
<path fill="none" stroke="black" d="M425.98,-192.88C438.66,-183.44 452.6,-173.06 465.73,-163.29"/>
<polygon fill="black" stroke="black" points="467.84,-166.08 473.77,-157.3 463.66,-160.46 467.84,-166.08"/>
</g>
<!-- 9 -->
<g id="node10" class="node">
<title>9</title>
<polygon fill="#39e581" stroke="black" points="507.5,-53 401.5,-53 401.5,0 507.5,0 507.5,-53"/>
<text text-anchor="middle" x="454.5" y="-37.8" font-family="Times,serif" font-size="14.00">gini = 0.0</text>
<text text-anchor="middle" x="454.5" y="-22.8" font-family="Times,serif" font-size="14.00">samples = 1</text>
<text text-anchor="middle" x="454.5" y="-7.8" font-family="Times,serif" font-size="14.00">value = [0, 1, 0]</text>
</g>
<!-- 8&#45;&gt;9 -->
<g id="edge9" class="edge">
<title>8&#45;&gt;9</title>
<path fill="none" stroke="black" d="M496.12,-88.95C490.11,-80.07 483.6,-70.46 477.55,-61.54"/>
<polygon fill="black" stroke="black" points="480.44,-59.55 471.93,-53.24 474.64,-63.48 480.44,-59.55"/>
</g>
<!-- 10 -->
<g id="node11" class="node">
<title>10</title>
<polygon fill="#e58139" stroke="black" points="639,-53 526,-53 526,0 639,0 639,-53"/>
<text text-anchor="middle" x="582.5" y="-37.8" font-family="Times,serif" font-size="14.00">gini = 0.0</text>
<text text-anchor="middle" x="582.5" y="-22.8" font-family="Times,serif" font-size="14.00">samples = 27</text>
<text text-anchor="middle" x="582.5" y="-7.8" font-family="Times,serif" font-size="14.00">value = [27, 0, 0]</text>
</g>
<!-- 8&#45;&gt;10 -->
<g id="edge10" class="edge">
<title>8&#45;&gt;10</title>
<path fill="none" stroke="black" d="M540.88,-88.95C546.89,-80.07 553.4,-70.46 559.45,-61.54"/>
<polygon fill="black" stroke="black" points="562.36,-63.48 565.07,-53.24 556.56,-59.55 562.36,-63.48"/>
</g>
</g>
</svg>
