<?xml version="1.0" encoding="UTF-8" standalone="no"?>
<!DOCTYPE svg PUBLIC "-//W3C//DTD SVG 1.1//EN"
 "http://www.w3.org/Graphics/SVG/1.1/DTD/svg11.dtd">
<!-- Generated by graphviz version 2.46.1 (20210213.1702)
 -->
<!-- Title: Tree Pages: 1 -->
<svg width="651pt" height="477pt"
 viewBox="0.00 0.00 651.00 477.00" xmlns="http://www.w3.org/2000/svg" xmlns:xlink="http://www.w3.org/1999/xlink">
<g id="graph0" class="graph" transform="scale(1 1) rotate(0) translate(4 473)">
<title>Tree</title>
<polygon fill="white" stroke="transparent" points="-4,4 -4,-473 647,-473 647,4 -4,4"/>
<!-- 0 -->
<g id="node1" class="node">
<title>0</title>
<polygon fill="#e8fcf0" stroke="black" points="452.5,-469 326.5,-469 326.5,-401 452.5,-401 452.5,-469"/>
<text text-anchor="middle" x="389.5" y="-453.8" font-family="Times,serif" font-size="14.00">proline &lt;= 755.0</text>
<text text-anchor="middle" x="389.5" y="-438.8" font-family="Times,serif" font-size="14.00">gini = 0.657</text>
<text text-anchor="middle" x="389.5" y="-423.8" font-family="Times,serif" font-size="14.00">samples = 89</text>
<text text-anchor="middle" x="389.5" y="-408.8" font-family="Times,serif" font-size="14.00">value = [29, 36, 24]</text>
</g>
<!-- 1 -->
<g id="node2" class="node">
<title>1</title>
<polygon fill="#aff4cc" stroke="black" points="384,-365 257,-365 257,-297 384,-297 384,-365"/>
<text text-anchor="middle" x="320.5" y="-349.8" font-family="Times,serif" font-size="14.00">flavanoids &lt;= 1.265</text>
<text text-anchor="middle" x="320.5" y="-334.8" font-family="Times,serif" font-size="14.00">gini = 0.483</text>
<text text-anchor="middle" x="320.5" y="-319.8" font-family="Times,serif" font-size="14.00">samples = 58</text>
<text text-anchor="middle" x="320.5" y="-304.8" font-family="Times,serif" font-size="14.00">value = [1, 36, 21]</text>
</g>
<!-- 0&#45;&gt;1 -->
<g id="edge1" class="edge">
<title>0&#45;&gt;1</title>
<path fill="none" stroke="black" d="M367.1,-400.88C361.25,-392.24 354.88,-382.82 348.77,-373.79"/>
<polygon fill="black" stroke="black" points="351.53,-371.62 343.03,-365.3 345.73,-375.54 351.53,-371.62"/>
<text text-anchor="middle" x="338.29" y="-386.15" font-family="Times,serif" font-size="14.00">True</text>
</g>
<!-- 10 -->
<g id="node11" class="node">
<title>10</title>
<polygon fill="#e88e4e" stroke="black" points="515,-365 402,-365 402,-297 515,-297 515,-365"/>
<text text-anchor="middle" x="458.5" y="-349.8" font-family="Times,serif" font-size="14.00">hue &lt;= 0.78</text>
<text text-anchor="middle" x="458.5" y="-334.8" font-family="Times,serif" font-size="14.00">gini = 0.175</text>
<text text-anchor="middle" x="458.5" y="-319.8" font-family="Times,serif" font-size="14.00">samples = 31</text>
<text text-anchor="middle" x="458.5" y="-304.8" font-family="Times,serif" font-size="14.00">value = [28, 0, 3]</text>
</g>
<!-- 0&#45;&gt;10 -->
<g id="edge10" class="edge">
<title>0&#45;&gt;10</title>
<path fill="none" stroke="black" d="M411.9,-400.88C417.75,-392.24 424.12,-382.82 430.23,-373.79"/>
<polygon fill="black" stroke="black" points="433.27,-375.54 435.97,-365.3 427.47,-371.62 433.27,-375.54"/>
<text text-anchor="middle" x="440.71" y="-386.15" font-family="Times,serif" font-size="14.00">False</text>
</g>
<!-- 2 -->
<g id="node3" class="node">
<title>2</title>
<polygon fill="#9355e9" stroke="black" points="238,-261 125,-261 125,-193 238,-193 238,-261"/>
<text text-anchor="middle" x="181.5" y="-245.8" font-family="Times,serif" font-size="14.00">hue &lt;= 0.98</text>
<text text-anchor="middle" x="181.5" y="-230.8" font-family="Times,serif" font-size="14.00">gini = 0.219</text>
<text text-anchor="middle" x="181.5" y="-215.8" font-family="Times,serif" font-size="14.00">samples = 24</text>
<text text-anchor="middle" x="181.5" y="-200.8" font-family="Times,serif" font-size="14.00">value = [0, 3, 21]</text>
</g>
<!-- 1&#45;&gt;2 -->
<g id="edge2" class="edge">
<title>1&#45;&gt;2</title>
<path fill="none" stroke="black" d="M275.37,-296.88C262.5,-287.44 248.36,-277.06 235.04,-267.29"/>
<polygon fill="black" stroke="black" points="237.01,-264.39 226.88,-261.3 232.87,-270.04 237.01,-264.39"/>
</g>
<!-- 5 -->
<g id="node6" class="node">
<title>5</title>
<polygon fill="#3fe685" stroke="black" points="387,-261 256,-261 256,-193 387,-193 387,-261"/>
<text text-anchor="middle" x="321.5" y="-245.8" font-family="Times,serif" font-size="14.00">malic_acid &lt;= 3.925</text>
<text text-anchor="middle" x="321.5" y="-230.8" font-family="Times,serif" font-size="14.00">gini = 0.057</text>
<text text-anchor="middle" x="321.5" y="-215.8" font-family="Times,serif" font-size="14.00">samples = 34</text>
<text text-anchor="middle" x="321.5" y="-200.8" font-family="Times,serif" font-size="14.00">value = [1, 33, 0]</text>
</g>
<!-- 1&#45;&gt;5 -->
<g id="edge5" class="edge">
<title>1&#45;&gt;5</title>
<path fill="none" stroke="black" d="M320.82,-296.88C320.9,-288.78 320.99,-279.98 321.07,-271.47"/>
<polygon fill="black" stroke="black" points="324.58,-271.33 321.17,-261.3 317.58,-271.26 324.58,-271.33"/>
</g>
<!-- 3 -->
<g id="node4" class="node">
<title>3</title>
<polygon fill="#8139e5" stroke="black" points="113,-149.5 0,-149.5 0,-96.5 113,-96.5 113,-149.5"/>
<text text-anchor="middle" x="56.5" y="-134.3" font-family="Times,serif" font-size="14.00">gini = 0.0</text>
<text text-anchor="middle" x="56.5" y="-119.3" font-family="Times,serif" font-size="14.00">samples = 21</text>
<text text-anchor="middle" x="56.5" y="-104.3" font-family="Times,serif" font-size="14.00">value = [0, 0, 21]</text>
</g>
<!-- 2&#45;&gt;3 -->
<g id="edge3" class="edge">
<title>2&#45;&gt;3</title>
<path fill="none" stroke="black" d="M140.92,-192.88C126.36,-181.01 109.99,-167.65 95.56,-155.88"/>
<polygon fill="black" stroke="black" points="97.74,-153.13 87.77,-149.52 93.31,-158.55 97.74,-153.13"/>
</g>
<!-- 4 -->
<g id="node5" class="node">
<title>4</title>
<polygon fill="#39e581" stroke="black" points="237.5,-149.5 131.5,-149.5 131.5,-96.5 237.5,-96.5 237.5,-149.5"/>
<text text-anchor="middle" x="184.5" y="-134.3" font-family="Times,serif" font-size="14.00">gini = 0.0</text>
<text text-anchor="middle" x="184.5" y="-119.3" font-family="Times,serif" font-size="14.00">samples = 3</text>
<text text-anchor="middle" x="184.5" y="-104.3" font-family="Times,serif" font-size="14.00">value = [0, 3, 0]</text>
</g>
<!-- 2&#45;&gt;4 -->
<g id="edge4" class="edge">
<title>2&#45;&gt;4</title>
<path fill="none" stroke="black" d="M182.47,-192.88C182.79,-182.22 183.14,-170.35 183.46,-159.52"/>
<polygon fill="black" stroke="black" points="186.95,-159.62 183.75,-149.52 179.96,-159.41 186.95,-159.62"/>
</g>
<!-- 6 -->
<g id="node7" class="node">
<title>6</title>
<polygon fill="#39e581" stroke="black" points="375,-149.5 262,-149.5 262,-96.5 375,-96.5 375,-149.5"/>
<text text-anchor="middle" x="318.5" y="-134.3" font-family="Times,serif" font-size="14.00">gini = 0.0</text>
<text text-anchor="middle" x="318.5" y="-119.3" font-family="Times,serif" font-size="14.00">samples = 32</text>
<text text-anchor="middle" x="318.5" y="-104.3" font-family="Times,serif" font-size="14.00">value = [0, 32, 0]</text>
</g>
<!-- 5&#45;&gt;6 -->
<g id="edge6" class="edge">
<title>5&#45;&gt;6</title>
<path fill="none" stroke="black" d="M320.53,-192.88C320.21,-182.22 319.86,-170.35 319.54,-159.52"/>
<polygon fill="black" stroke="black" points="323.04,-159.41 319.25,-149.52 316.05,-159.62 323.04,-159.41"/>
</g>
<!-- 7 -->
<g id="node8" class="node">
<title>7</title>
<polygon fill="#ffffff" stroke="black" points="539.5,-157 393.5,-157 393.5,-89 539.5,-89 539.5,-157"/>
<text text-anchor="middle" x="466.5" y="-141.8" font-family="Times,serif" font-size="14.00">color_intensity &lt;= 3.48</text>
<text text-anchor="middle" x="466.5" y="-126.8" font-family="Times,serif" font-size="14.00">gini = 0.5</text>
<text text-anchor="middle" x="466.5" y="-111.8" font-family="Times,serif" font-size="14.00">samples = 2</text>
<text text-anchor="middle" x="466.5" y="-96.8" font-family="Times,serif" font-size="14.00">value = [1, 1, 0]</text>
</g>
<!-- 5&#45;&gt;7 -->
<g id="edge7" class="edge">
<title>5&#45;&gt;7</title>
<path fill="none" stroke="black" d="M368.58,-192.88C382,-183.44 396.75,-173.06 410.64,-163.29"/>
<polygon fill="black" stroke="black" points="413,-165.92 419.16,-157.3 408.97,-160.19 413,-165.92"/>
</g>
<!-- 8 -->
<g id="node9" class="node">
<title>8</title>
<polygon fill="#39e581" stroke="black" points="457.5,-53 351.5,-53 351.5,0 457.5,0 457.5,-53"/>
<text text-anchor="middle" x="404.5" y="-37.8" font-family="Times,serif" font-size="14.00">gini = 0.0</text>
<text text-anchor="middle" x="404.5" y="-22.8" font-family="Times,serif" font-size="14.00">samples = 1</text>
<text text-anchor="middle" x="404.5" y="-7.8" font-family="Times,serif" font-size="14.00">value = [0, 1, 0]</text>
</g>
<!-- 7&#45;&gt;8 -->
<g id="edge8" class="edge">
<title>7&#45;&gt;8</title>
<path fill="none" stroke="black" d="M444.82,-88.95C439.05,-80.17 432.82,-70.66 427.01,-61.82"/>
<polygon fill="black" stroke="black" points="429.8,-59.68 421.39,-53.24 423.94,-63.52 429.8,-59.68"/>
</g>
<!-- 9 -->
<g id="node10" class="node">
<title>9</title>
<polygon fill="#e58139" stroke="black" points="581.5,-53 475.5,-53 475.5,0 581.5,0 581.5,-53"/>
<text text-anchor="middle" x="528.5" y="-37.8" font-family="Times,serif" font-size="14.00">gini = 0.0</text>
<text text-anchor="middle" x="528.5" y="-22.8" font-family="Times,serif" font-size="14.00">samples = 1</text>
<text text-anchor="middle" x="528.5" y="-7.8" font-family="Times,serif" font-size="14.00">value = [1, 0, 0]</text>
</g>
<!-- 7&#45;&gt;9 -->
<g id="edge9" class="edge">
<title>7&#45;&gt;9</title>
<path fill="none" stroke="black" d="M488.18,-88.95C493.95,-80.17 500.18,-70.66 505.99,-61.82"/>
<polygon fill="black" stroke="black" points="509.06,-63.52 511.61,-53.24 503.2,-59.68 509.06,-63.52"/>
</g>
<!-- 11 -->
<g id="node12" class="node">
<title>11</title>
<polygon fill="#8139e5" stroke="black" points="511.5,-253.5 405.5,-253.5 405.5,-200.5 511.5,-200.5 511.5,-253.5"/>
<text text-anchor="middle" x="458.5" y="-238.3" font-family="Times,serif" font-size="14.00">gini = 0.0</text>
<text text-anchor="middle" x="458.5" y="-223.3" font-family="Times,serif" font-size="14.00">samples = 3</text>
<text text-anchor="middle" x="458.5" y="-208.3" font-family="Times,serif" font-size="14.00">value = [0, 0, 3]</text>
</g>
<!-- 10&#45;&gt;11 -->
<g id="edge11" class="edge">
<title>10&#45;&gt;11</title>
<path fill="none" stroke="black" d="M458.5,-296.88C458.5,-286.33 458.5,-274.6 458.5,-263.85"/>
<polygon fill="black" stroke="black" points="462,-263.52 458.5,-253.52 455,-263.52 462,-263.52"/>
</g>
<!-- 12 -->
<g id="node13" class="node">
<title>12</title>
<polygon fill="#e58139" stroke="black" points="643,-253.5 530,-253.5 530,-200.5 643,-200.5 643,-253.5"/>
<text text-anchor="middle" x="586.5" y="-238.3" font-family="Times,serif" font-size="14.00">gini = 0.0</text>
<text text-anchor="middle" x="586.5" y="-223.3" font-family="Times,serif" font-size="14.00">samples = 28</text>
<text text-anchor="middle" x="586.5" y="-208.3" font-family="Times,serif" font-size="14.00">value = [28, 0, 0]</text>
</g>
<!-- 10&#45;&gt;12 -->
<g id="edge12" class="edge">
<title>10&#45;&gt;12</title>
<path fill="none" stroke="black" d="M500.06,-296.88C514.96,-285.01 531.73,-271.65 546.5,-259.88"/>
<polygon fill="black" stroke="black" points="548.84,-262.49 554.47,-253.52 544.47,-257.01 548.84,-262.49"/>
</g>
</g>
</svg>
