<?xml version="1.0" encoding="UTF-8" standalone="no"?>
<!DOCTYPE svg PUBLIC "-//W3C//DTD SVG 1.1//EN"
 "http://www.w3.org/Graphics/SVG/1.1/DTD/svg11.dtd">
<!-- Generated by graphviz version 2.46.1 (20210213.1702)
 -->
<!-- Title: Tree Pages: 1 -->
<svg width="503pt" height="373pt"
 viewBox="0.00 0.00 502.50 373.00" xmlns="http://www.w3.org/2000/svg" xmlns:xlink="http://www.w3.org/1999/xlink">
<g id="graph0" class="graph" transform="scale(1 1) rotate(0) translate(4 369)">
<title>Tree</title>
<polygon fill="white" stroke="transparent" points="-4,4 -4,-369 498.5,-369 498.5,4 -4,4"/>
<!-- 0 -->
<g id="node1" class="node">
<title>0</title>
<polygon fill="#e8fcf0" stroke="black" points="250,-365 104,-365 104,-297 250,-297 250,-365"/>
<text text-anchor="middle" x="177" y="-349.8" font-family="Times,serif" font-size="14.00">color_intensity &lt;= 3.46</text>
<text text-anchor="middle" x="177" y="-334.8" font-family="Times,serif" font-size="14.00">gini = 0.657</text>
<text text-anchor="middle" x="177" y="-319.8" font-family="Times,serif" font-size="14.00">samples = 89</text>
<text text-anchor="middle" x="177" y="-304.8" font-family="Times,serif" font-size="14.00">value = [29, 36, 24]</text>
</g>
<!-- 1 -->
<g id="node2" class="node">
<title>1</title>
<polygon fill="#39e581" stroke="black" points="166.5,-253.5 53.5,-253.5 53.5,-200.5 166.5,-200.5 166.5,-253.5"/>
<text text-anchor="middle" x="110" y="-238.3" font-family="Times,serif" font-size="14.00">gini = 0.0</text>
<text text-anchor="middle" x="110" y="-223.3" font-family="Times,serif" font-size="14.00">samples = 30</text>
<text text-anchor="middle" x="110" y="-208.3" font-family="Times,serif" font-size="14.00">value = [0, 30, 0]</text>
</g>
<!-- 0&#45;&gt;1 -->
<g id="edge1" class="edge">
<title>0&#45;&gt;1</title>
<path fill="none" stroke="black" d="M155.25,-296.88C147.95,-285.78 139.8,-273.37 132.45,-262.18"/>
<polygon fill="black" stroke="black" points="135.18,-259.96 126.76,-253.52 129.33,-263.8 135.18,-259.96"/>
<text text-anchor="middle" x="121.69" y="-274.3" font-family="Times,serif" font-size="14.00">True</text>
</g>
<!-- 2 -->
<g id="node3" class="node">
<title>2</title>
<polygon fill="#fbede3" stroke="black" points="305,-261 185,-261 185,-193 305,-193 305,-261"/>
<text text-anchor="middle" x="245" y="-245.8" font-family="Times,serif" font-size="14.00">flavanoids &lt;= 1.58</text>
<text text-anchor="middle" x="245" y="-230.8" font-family="Times,serif" font-size="14.00">gini = 0.583</text>
<text text-anchor="middle" x="245" y="-215.8" font-family="Times,serif" font-size="14.00">samples = 59</text>
<text text-anchor="middle" x="245" y="-200.8" font-family="Times,serif" font-size="14.00">value = [29, 6, 24]</text>
</g>
<!-- 0&#45;&gt;2 -->
<g id="edge2" class="edge">
<title>0&#45;&gt;2</title>
<path fill="none" stroke="black" d="M199.08,-296.88C204.84,-288.24 211.12,-278.82 217.14,-269.79"/>
<polygon fill="black" stroke="black" points="220.17,-271.56 222.8,-261.3 214.34,-267.68 220.17,-271.56"/>
<text text-anchor="middle" x="227.7" y="-282.11" font-family="Times,serif" font-size="14.00">False</text>
</g>
<!-- 3 -->
<g id="node4" class="node">
<title>3</title>
<polygon fill="#8641e6" stroke="black" points="236.5,-157 123.5,-157 123.5,-89 236.5,-89 236.5,-157"/>
<text text-anchor="middle" x="180" y="-141.8" font-family="Times,serif" font-size="14.00">ash &lt;= 2.06</text>
<text text-anchor="middle" x="180" y="-126.8" font-family="Times,serif" font-size="14.00">gini = 0.077</text>
<text text-anchor="middle" x="180" y="-111.8" font-family="Times,serif" font-size="14.00">samples = 25</text>
<text text-anchor="middle" x="180" y="-96.8" font-family="Times,serif" font-size="14.00">value = [0, 1, 24]</text>
</g>
<!-- 2&#45;&gt;3 -->
<g id="edge3" class="edge">
<title>2&#45;&gt;3</title>
<path fill="none" stroke="black" d="M223.9,-192.88C218.39,-184.24 212.38,-174.82 206.63,-165.79"/>
<polygon fill="black" stroke="black" points="209.55,-163.85 201.22,-157.3 203.64,-167.61 209.55,-163.85"/>
</g>
<!-- 6 -->
<g id="node7" class="node">
<title>6</title>
<polygon fill="#e9975b" stroke="black" points="367.5,-157 254.5,-157 254.5,-89 367.5,-89 367.5,-157"/>
<text text-anchor="middle" x="311" y="-141.8" font-family="Times,serif" font-size="14.00">proline &lt;= 706.5</text>
<text text-anchor="middle" x="311" y="-126.8" font-family="Times,serif" font-size="14.00">gini = 0.251</text>
<text text-anchor="middle" x="311" y="-111.8" font-family="Times,serif" font-size="14.00">samples = 34</text>
<text text-anchor="middle" x="311" y="-96.8" font-family="Times,serif" font-size="14.00">value = [29, 5, 0]</text>
</g>
<!-- 2&#45;&gt;6 -->
<g id="edge6" class="edge">
<title>2&#45;&gt;6</title>
<path fill="none" stroke="black" d="M266.43,-192.88C272.02,-184.24 278.12,-174.82 283.96,-165.79"/>
<polygon fill="black" stroke="black" points="286.96,-167.6 289.45,-157.3 281.08,-163.79 286.96,-167.6"/>
</g>
<!-- 4 -->
<g id="node5" class="node">
<title>4</title>
<polygon fill="#39e581" stroke="black" points="106,-53 0,-53 0,0 106,0 106,-53"/>
<text text-anchor="middle" x="53" y="-37.8" font-family="Times,serif" font-size="14.00">gini = 0.0</text>
<text text-anchor="middle" x="53" y="-22.8" font-family="Times,serif" font-size="14.00">samples = 1</text>
<text text-anchor="middle" x="53" y="-7.8" font-family="Times,serif" font-size="14.00">value = [0, 1, 0]</text>
</g>
<!-- 3&#45;&gt;4 -->
<g id="edge4" class="edge">
<title>3&#45;&gt;4</title>
<path fill="none" stroke="black" d="M135.58,-88.95C122.67,-79.34 108.6,-68.87 95.8,-59.34"/>
<polygon fill="black" stroke="black" points="97.7,-56.4 87.59,-53.24 93.52,-62.01 97.7,-56.4"/>
</g>
<!-- 5 -->
<g id="node6" class="node">
<title>5</title>
<polygon fill="#8139e5" stroke="black" points="237.5,-53 124.5,-53 124.5,0 237.5,0 237.5,-53"/>
<text text-anchor="middle" x="181" y="-37.8" font-family="Times,serif" font-size="14.00">gini = 0.0</text>
<text text-anchor="middle" x="181" y="-22.8" font-family="Times,serif" font-size="14.00">samples = 24</text>
<text text-anchor="middle" x="181" y="-7.8" font-family="Times,serif" font-size="14.00">value = [0, 0, 24]</text>
</g>
<!-- 3&#45;&gt;5 -->
<g id="edge5" class="edge">
<title>3&#45;&gt;5</title>
<path fill="none" stroke="black" d="M180.35,-88.95C180.44,-80.72 180.53,-71.85 180.62,-63.48"/>
<polygon fill="black" stroke="black" points="184.12,-63.27 180.73,-53.24 177.12,-63.2 184.12,-63.27"/>
</g>
<!-- 7 -->
<g id="node8" class="node">
<title>7</title>
<polygon fill="#39e581" stroke="black" points="363,-53 257,-53 257,0 363,0 363,-53"/>
<text text-anchor="middle" x="310" y="-37.8" font-family="Times,serif" font-size="14.00">gini = 0.0</text>
<text text-anchor="middle" x="310" y="-22.8" font-family="Times,serif" font-size="14.00">samples = 5</text>
<text text-anchor="middle" x="310" y="-7.8" font-family="Times,serif" font-size="14.00">value = [0, 5, 0]</text>
</g>
<!-- 6&#45;&gt;7 -->
<g id="edge7" class="edge">
<title>6&#45;&gt;7</title>
<path fill="none" stroke="black" d="M310.65,-88.95C310.56,-80.72 310.47,-71.85 310.38,-63.48"/>
<polygon fill="black" stroke="black" points="313.88,-63.2 310.27,-53.24 306.88,-63.27 313.88,-63.2"/>
</g>
<!-- 8 -->
<g id="node9" class="node">
<title>8</title>
<polygon fill="#e58139" stroke="black" points="494.5,-53 381.5,-53 381.5,0 494.5,0 494.5,-53"/>
<text text-anchor="middle" x="438" y="-37.8" font-family="Times,serif" font-size="14.00">gini = 0.0</text>
<text text-anchor="middle" x="438" y="-22.8" font-family="Times,serif" font-size="14.00">samples = 29</text>
<text text-anchor="middle" x="438" y="-7.8" font-family="Times,serif" font-size="14.00">value = [29, 0, 0]</text>
</g>
<!-- 6&#45;&gt;8 -->
<g id="edge8" class="edge">
<title>6&#45;&gt;8</title>
<path fill="none" stroke="black" d="M355.42,-88.95C368.33,-79.34 382.4,-68.87 395.2,-59.34"/>
<polygon fill="black" stroke="black" points="397.48,-62.01 403.41,-53.24 393.3,-56.4 397.48,-62.01"/>
</g>
</g>
</svg>
