<?xml version="1.0" encoding="UTF-8" standalone="no"?>
<!DOCTYPE svg PUBLIC "-//W3C//DTD SVG 1.1//EN"
 "http://www.w3.org/Graphics/SVG/1.1/DTD/svg11.dtd">
<!-- Generated by graphviz version 2.46.1 (20210213.1702)
 -->
<!-- Title: Tree Pages: 1 -->
<svg width="1005pt" height="373pt"
 viewBox="0.00 0.00 1005.00 373.00" xmlns="http://www.w3.org/2000/svg" xmlns:xlink="http://www.w3.org/1999/xlink">
<g id="graph0" class="graph" transform="scale(1 1) rotate(0) translate(4 369)">
<title>Tree</title>
<polygon fill="white" stroke="transparent" points="-4,4 -4,-369 1001,-369 1001,4 -4,4"/>
<!-- 0 -->
<g id="node1" class="node">
<title>0</title>
<polygon fill="#eefdf4" stroke="black" points="574.5,-365 448.5,-365 448.5,-297 574.5,-297 574.5,-365"/>
<text text-anchor="middle" x="511.5" y="-349.8" font-family="Times,serif" font-size="14.00">proline &lt;= 787.5</text>
<text text-anchor="middle" x="511.5" y="-334.8" font-family="Times,serif" font-size="14.00">gini = 0.659</text>
<text text-anchor="middle" x="511.5" y="-319.8" font-family="Times,serif" font-size="14.00">samples = 89</text>
<text text-anchor="middle" x="511.5" y="-304.8" font-family="Times,serif" font-size="14.00">value = [30, 35, 24]</text>
</g>
<!-- 1 -->
<g id="node2" class="node">
<title>1</title>
<polygon fill="#bdf6d5" stroke="black" points="482,-261 239,-261 239,-193 482,-193 482,-261"/>
<text text-anchor="middle" x="360.5" y="-245.8" font-family="Times,serif" font-size="14.00">od280/od315_of_diluted_wines &lt;= 2.225</text>
<text text-anchor="middle" x="360.5" y="-230.8" font-family="Times,serif" font-size="14.00">gini = 0.48</text>
<text text-anchor="middle" x="360.5" y="-215.8" font-family="Times,serif" font-size="14.00">samples = 55</text>
<text text-anchor="middle" x="360.5" y="-200.8" font-family="Times,serif" font-size="14.00">value = [0, 33, 22]</text>
</g>
<!-- 0&#45;&gt;1 -->
<g id="edge1" class="edge">
<title>0&#45;&gt;1</title>
<path fill="none" stroke="black" d="M462.47,-296.88C448.29,-287.3 432.68,-276.76 418.03,-266.86"/>
<polygon fill="black" stroke="black" points="419.78,-263.82 409.54,-261.12 415.87,-269.62 419.78,-263.82"/>
<text text-anchor="middle" x="414.29" y="-281.97" font-family="Times,serif" font-size="14.00">True</text>
</g>
<!-- 8 -->
<g id="node9" class="node">
<title>8</title>
<polygon fill="#e89152" stroke="black" points="754,-261 511,-261 511,-193 754,-193 754,-261"/>
<text text-anchor="middle" x="632.5" y="-245.8" font-family="Times,serif" font-size="14.00">od280/od315_of_diluted_wines &lt;= 2.195</text>
<text text-anchor="middle" x="632.5" y="-230.8" font-family="Times,serif" font-size="14.00">gini = 0.215</text>
<text text-anchor="middle" x="632.5" y="-215.8" font-family="Times,serif" font-size="14.00">samples = 34</text>
<text text-anchor="middle" x="632.5" y="-200.8" font-family="Times,serif" font-size="14.00">value = [30, 2, 2]</text>
</g>
<!-- 0&#45;&gt;8 -->
<g id="edge8" class="edge">
<title>0&#45;&gt;8</title>
<path fill="none" stroke="black" d="M550.79,-296.88C561.77,-287.62 573.83,-277.45 585.23,-267.85"/>
<polygon fill="black" stroke="black" points="587.61,-270.42 593,-261.3 583.1,-265.07 587.61,-270.42"/>
<text text-anchor="middle" x="590.88" y="-282.51" font-family="Times,serif" font-size="14.00">False</text>
</g>
<!-- 2 -->
<g id="node3" class="node">
<title>2</title>
<polygon fill="#9355e9" stroke="black" points="241,-157 128,-157 128,-89 241,-89 241,-157"/>
<text text-anchor="middle" x="184.5" y="-141.8" font-family="Times,serif" font-size="14.00">hue &lt;= 0.965</text>
<text text-anchor="middle" x="184.5" y="-126.8" font-family="Times,serif" font-size="14.00">gini = 0.219</text>
<text text-anchor="middle" x="184.5" y="-111.8" font-family="Times,serif" font-size="14.00">samples = 24</text>
<text text-anchor="middle" x="184.5" y="-96.8" font-family="Times,serif" font-size="14.00">value = [0, 3, 21]</text>
</g>
<!-- 1&#45;&gt;2 -->
<g id="edge2" class="edge">
<title>1&#45;&gt;2</title>
<path fill="none" stroke="black" d="M303.36,-192.88C286.35,-183.03 267.58,-172.15 250.08,-162"/>
<polygon fill="black" stroke="black" points="251.46,-158.76 241.05,-156.78 247.95,-164.82 251.46,-158.76"/>
</g>
<!-- 5 -->
<g id="node6" class="node">
<title>5</title>
<polygon fill="#40e685" stroke="black" points="441,-157 280,-157 280,-89 441,-89 441,-157"/>
<text text-anchor="middle" x="360.5" y="-141.8" font-family="Times,serif" font-size="14.00">proanthocyanins &lt;= 0.795</text>
<text text-anchor="middle" x="360.5" y="-126.8" font-family="Times,serif" font-size="14.00">gini = 0.062</text>
<text text-anchor="middle" x="360.5" y="-111.8" font-family="Times,serif" font-size="14.00">samples = 31</text>
<text text-anchor="middle" x="360.5" y="-96.8" font-family="Times,serif" font-size="14.00">value = [0, 30, 1]</text>
</g>
<!-- 1&#45;&gt;5 -->
<g id="edge5" class="edge">
<title>1&#45;&gt;5</title>
<path fill="none" stroke="black" d="M360.5,-192.88C360.5,-184.78 360.5,-175.98 360.5,-167.47"/>
<polygon fill="black" stroke="black" points="364,-167.3 360.5,-157.3 357,-167.3 364,-167.3"/>
</g>
<!-- 3 -->
<g id="node4" class="node">
<title>3</title>
<polygon fill="#8139e5" stroke="black" points="113,-53 0,-53 0,0 113,0 113,-53"/>
<text text-anchor="middle" x="56.5" y="-37.8" font-family="Times,serif" font-size="14.00">gini = 0.0</text>
<text text-anchor="middle" x="56.5" y="-22.8" font-family="Times,serif" font-size="14.00">samples = 21</text>
<text text-anchor="middle" x="56.5" y="-7.8" font-family="Times,serif" font-size="14.00">value = [0, 0, 21]</text>
</g>
<!-- 2&#45;&gt;3 -->
<g id="edge3" class="edge">
<title>2&#45;&gt;3</title>
<path fill="none" stroke="black" d="M139.73,-88.95C126.72,-79.34 112.54,-68.87 99.63,-59.34"/>
<polygon fill="black" stroke="black" points="101.48,-56.36 91.36,-53.24 97.33,-61.99 101.48,-56.36"/>
</g>
<!-- 4 -->
<g id="node5" class="node">
<title>4</title>
<polygon fill="#39e581" stroke="black" points="237.5,-53 131.5,-53 131.5,0 237.5,0 237.5,-53"/>
<text text-anchor="middle" x="184.5" y="-37.8" font-family="Times,serif" font-size="14.00">gini = 0.0</text>
<text text-anchor="middle" x="184.5" y="-22.8" font-family="Times,serif" font-size="14.00">samples = 3</text>
<text text-anchor="middle" x="184.5" y="-7.8" font-family="Times,serif" font-size="14.00">value = [0, 3, 0]</text>
</g>
<!-- 2&#45;&gt;4 -->
<g id="edge4" class="edge">
<title>2&#45;&gt;4</title>
<path fill="none" stroke="black" d="M184.5,-88.95C184.5,-80.72 184.5,-71.85 184.5,-63.48"/>
<polygon fill="black" stroke="black" points="188,-63.24 184.5,-53.24 181,-63.24 188,-63.24"/>
</g>
<!-- 6 -->
<g id="node7" class="node">
<title>6</title>
<polygon fill="#8139e5" stroke="black" points="361.5,-53 255.5,-53 255.5,0 361.5,0 361.5,-53"/>
<text text-anchor="middle" x="308.5" y="-37.8" font-family="Times,serif" font-size="14.00">gini = 0.0</text>
<text text-anchor="middle" x="308.5" y="-22.8" font-family="Times,serif" font-size="14.00">samples = 1</text>
<text text-anchor="middle" x="308.5" y="-7.8" font-family="Times,serif" font-size="14.00">value = [0, 0, 1]</text>
</g>
<!-- 5&#45;&gt;6 -->
<g id="edge6" class="edge">
<title>5&#45;&gt;6</title>
<path fill="none" stroke="black" d="M342.31,-88.95C337.53,-80.26 332.36,-70.86 327.53,-62.09"/>
<polygon fill="black" stroke="black" points="330.55,-60.31 322.66,-53.24 324.42,-63.69 330.55,-60.31"/>
</g>
<!-- 7 -->
<g id="node8" class="node">
<title>7</title>
<polygon fill="#39e581" stroke="black" points="493,-53 380,-53 380,0 493,0 493,-53"/>
<text text-anchor="middle" x="436.5" y="-37.8" font-family="Times,serif" font-size="14.00">gini = 0.0</text>
<text text-anchor="middle" x="436.5" y="-22.8" font-family="Times,serif" font-size="14.00">samples = 30</text>
<text text-anchor="middle" x="436.5" y="-7.8" font-family="Times,serif" font-size="14.00">value = [0, 30, 0]</text>
</g>
<!-- 5&#45;&gt;7 -->
<g id="edge7" class="edge">
<title>5&#45;&gt;7</title>
<path fill="none" stroke="black" d="M387.08,-88.95C394.29,-79.98 402.11,-70.27 409.35,-61.26"/>
<polygon fill="black" stroke="black" points="412.26,-63.22 415.8,-53.24 406.81,-58.84 412.26,-63.22"/>
</g>
<!-- 9 -->
<g id="node10" class="node">
<title>9</title>
<polygon fill="#c09cf2" stroke="black" points="708.5,-157 556.5,-157 556.5,-89 708.5,-89 708.5,-157"/>
<text text-anchor="middle" x="632.5" y="-141.8" font-family="Times,serif" font-size="14.00">color_intensity &lt;= 3.525</text>
<text text-anchor="middle" x="632.5" y="-126.8" font-family="Times,serif" font-size="14.00">gini = 0.444</text>
<text text-anchor="middle" x="632.5" y="-111.8" font-family="Times,serif" font-size="14.00">samples = 3</text>
<text text-anchor="middle" x="632.5" y="-96.8" font-family="Times,serif" font-size="14.00">value = [0, 1, 2]</text>
</g>
<!-- 8&#45;&gt;9 -->
<g id="edge9" class="edge">
<title>8&#45;&gt;9</title>
<path fill="none" stroke="black" d="M632.5,-192.88C632.5,-184.78 632.5,-175.98 632.5,-167.47"/>
<polygon fill="black" stroke="black" points="636,-167.3 632.5,-157.3 629,-167.3 636,-167.3"/>
</g>
<!-- 12 -->
<g id="node13" class="node">
<title>12</title>
<polygon fill="#e68540" stroke="black" points="888.5,-157 736.5,-157 736.5,-89 888.5,-89 888.5,-157"/>
<text text-anchor="middle" x="812.5" y="-141.8" font-family="Times,serif" font-size="14.00">color_intensity &lt;= 3.435</text>
<text text-anchor="middle" x="812.5" y="-126.8" font-family="Times,serif" font-size="14.00">gini = 0.062</text>
<text text-anchor="middle" x="812.5" y="-111.8" font-family="Times,serif" font-size="14.00">samples = 31</text>
<text text-anchor="middle" x="812.5" y="-96.8" font-family="Times,serif" font-size="14.00">value = [30, 1, 0]</text>
</g>
<!-- 8&#45;&gt;12 -->
<g id="edge12" class="edge">
<title>8&#45;&gt;12</title>
<path fill="none" stroke="black" d="M690.94,-192.88C708.16,-183.12 727.15,-172.37 744.89,-162.31"/>
<polygon fill="black" stroke="black" points="747.07,-165.1 754.04,-157.12 743.62,-159.01 747.07,-165.1"/>
</g>
<!-- 10 -->
<g id="node11" class="node">
<title>10</title>
<polygon fill="#39e581" stroke="black" points="617.5,-53 511.5,-53 511.5,0 617.5,0 617.5,-53"/>
<text text-anchor="middle" x="564.5" y="-37.8" font-family="Times,serif" font-size="14.00">gini = 0.0</text>
<text text-anchor="middle" x="564.5" y="-22.8" font-family="Times,serif" font-size="14.00">samples = 1</text>
<text text-anchor="middle" x="564.5" y="-7.8" font-family="Times,serif" font-size="14.00">value = [0, 1, 0]</text>
</g>
<!-- 9&#45;&gt;10 -->
<g id="edge10" class="edge">
<title>9&#45;&gt;10</title>
<path fill="none" stroke="black" d="M608.72,-88.95C602.33,-80.07 595.42,-70.46 588.99,-61.54"/>
<polygon fill="black" stroke="black" points="591.7,-59.31 583.02,-53.24 586.02,-63.4 591.7,-59.31"/>
</g>
<!-- 11 -->
<g id="node12" class="node">
<title>11</title>
<polygon fill="#8139e5" stroke="black" points="741.5,-53 635.5,-53 635.5,0 741.5,0 741.5,-53"/>
<text text-anchor="middle" x="688.5" y="-37.8" font-family="Times,serif" font-size="14.00">gini = 0.0</text>
<text text-anchor="middle" x="688.5" y="-22.8" font-family="Times,serif" font-size="14.00">samples = 2</text>
<text text-anchor="middle" x="688.5" y="-7.8" font-family="Times,serif" font-size="14.00">value = [0, 0, 2]</text>
</g>
<!-- 9&#45;&gt;11 -->
<g id="edge11" class="edge">
<title>9&#45;&gt;11</title>
<path fill="none" stroke="black" d="M652.09,-88.95C657.24,-80.26 662.8,-70.86 668,-62.09"/>
<polygon fill="black" stroke="black" points="671.16,-63.62 673.25,-53.24 665.14,-60.06 671.16,-63.62"/>
</g>
<!-- 13 -->
<g id="node14" class="node">
<title>13</title>
<polygon fill="#39e581" stroke="black" points="865.5,-53 759.5,-53 759.5,0 865.5,0 865.5,-53"/>
<text text-anchor="middle" x="812.5" y="-37.8" font-family="Times,serif" font-size="14.00">gini = 0.0</text>
<text text-anchor="middle" x="812.5" y="-22.8" font-family="Times,serif" font-size="14.00">samples = 1</text>
<text text-anchor="middle" x="812.5" y="-7.8" font-family="Times,serif" font-size="14.00">value = [0, 1, 0]</text>
</g>
<!-- 12&#45;&gt;13 -->
<g id="edge13" class="edge">
<title>12&#45;&gt;13</title>
<path fill="none" stroke="black" d="M812.5,-88.95C812.5,-80.72 812.5,-71.85 812.5,-63.48"/>
<polygon fill="black" stroke="black" points="816,-63.24 812.5,-53.24 809,-63.24 816,-63.24"/>
</g>
<!-- 14 -->
<g id="node15" class="node">
<title>14</title>
<polygon fill="#e58139" stroke="black" points="997,-53 884,-53 884,0 997,0 997,-53"/>
<text text-anchor="middle" x="940.5" y="-37.8" font-family="Times,serif" font-size="14.00">gini = 0.0</text>
<text text-anchor="middle" x="940.5" y="-22.8" font-family="Times,serif" font-size="14.00">samples = 30</text>
<text text-anchor="middle" x="940.5" y="-7.8" font-family="Times,serif" font-size="14.00">value = [30, 0, 0]</text>
</g>
<!-- 12&#45;&gt;14 -->
<g id="edge14" class="edge">
<title>12&#45;&gt;14</title>
<path fill="none" stroke="black" d="M857.27,-88.95C870.28,-79.34 884.46,-68.87 897.37,-59.34"/>
<polygon fill="black" stroke="black" points="899.67,-61.99 905.64,-53.24 895.52,-56.36 899.67,-61.99"/>
</g>
</g>
</svg>
