<?xml version="1.0" encoding="UTF-8" standalone="no"?>
<!DOCTYPE svg PUBLIC "-//W3C//DTD SVG 1.1//EN"
 "http://www.w3.org/Graphics/SVG/1.1/DTD/svg11.dtd">
<!-- Generated by graphviz version 2.46.1 (20210213.1702)
 -->
<!-- Title: Tree Pages: 1 -->
<svg width="388pt" height="373pt"
 viewBox="0.00 0.00 388.00 373.00" xmlns="http://www.w3.org/2000/svg" xmlns:xlink="http://www.w3.org/1999/xlink">
<g id="graph0" class="graph" transform="scale(1 1) rotate(0) translate(4 369)">
<title>Tree</title>
<polygon fill="white" stroke="transparent" points="-4,4 -4,-369 384,-369 384,4 -4,4"/>
<!-- 0 -->
<g id="node1" class="node">
<title>0</title>
<polygon fill="#eefdf4" stroke="black" points="198.5,-365 52.5,-365 52.5,-297 198.5,-297 198.5,-365"/>
<text text-anchor="middle" x="125.5" y="-349.8" font-family="Times,serif" font-size="14.00">color_intensity &lt;= 3.46</text>
<text text-anchor="middle" x="125.5" y="-334.8" font-family="Times,serif" font-size="14.00">gini = 0.659</text>
<text text-anchor="middle" x="125.5" y="-319.8" font-family="Times,serif" font-size="14.00">samples = 89</text>
<text text-anchor="middle" x="125.5" y="-304.8" font-family="Times,serif" font-size="14.00">value = [30, 35, 24]</text>
</g>
<!-- 1 -->
<g id="node2" class="node">
<title>1</title>
<polygon fill="#39e581" stroke="black" points="113,-253.5 0,-253.5 0,-200.5 113,-200.5 113,-253.5"/>
<text text-anchor="middle" x="56.5" y="-238.3" font-family="Times,serif" font-size="14.00">gini = 0.0</text>
<text text-anchor="middle" x="56.5" y="-223.3" font-family="Times,serif" font-size="14.00">samples = 29</text>
<text text-anchor="middle" x="56.5" y="-208.3" font-family="Times,serif" font-size="14.00">value = [0, 29, 0]</text>
</g>
<!-- 0&#45;&gt;1 -->
<g id="edge1" class="edge">
<title>0&#45;&gt;1</title>
<path fill="none" stroke="black" d="M103.1,-296.88C95.51,-285.67 87.03,-273.13 79.4,-261.85"/>
<polygon fill="black" stroke="black" points="82.27,-259.84 73.76,-253.52 76.47,-263.76 82.27,-259.84"/>
<text text-anchor="middle" x="69.03" y="-274.37" font-family="Times,serif" font-size="14.00">True</text>
</g>
<!-- 2 -->
<g id="node3" class="node">
<title>2</title>
<polygon fill="#fbeade" stroke="black" points="258,-261 131,-261 131,-193 258,-193 258,-261"/>
<text text-anchor="middle" x="194.5" y="-245.8" font-family="Times,serif" font-size="14.00">flavanoids &lt;= 1.615</text>
<text text-anchor="middle" x="194.5" y="-230.8" font-family="Times,serif" font-size="14.00">gini = 0.58</text>
<text text-anchor="middle" x="194.5" y="-215.8" font-family="Times,serif" font-size="14.00">samples = 60</text>
<text text-anchor="middle" x="194.5" y="-200.8" font-family="Times,serif" font-size="14.00">value = [30, 6, 24]</text>
</g>
<!-- 0&#45;&gt;2 -->
<g id="edge2" class="edge">
<title>0&#45;&gt;2</title>
<path fill="none" stroke="black" d="M147.9,-296.88C153.75,-288.24 160.12,-278.82 166.23,-269.79"/>
<polygon fill="black" stroke="black" points="169.27,-271.54 171.97,-261.3 163.47,-267.62 169.27,-271.54"/>
<text text-anchor="middle" x="176.71" y="-282.15" font-family="Times,serif" font-size="14.00">False</text>
</g>
<!-- 3 -->
<g id="node4" class="node">
<title>3</title>
<polygon fill="#8139e5" stroke="black" points="185,-149.5 72,-149.5 72,-96.5 185,-96.5 185,-149.5"/>
<text text-anchor="middle" x="128.5" y="-134.3" font-family="Times,serif" font-size="14.00">gini = 0.0</text>
<text text-anchor="middle" x="128.5" y="-119.3" font-family="Times,serif" font-size="14.00">samples = 24</text>
<text text-anchor="middle" x="128.5" y="-104.3" font-family="Times,serif" font-size="14.00">value = [0, 0, 24]</text>
</g>
<!-- 2&#45;&gt;3 -->
<g id="edge3" class="edge">
<title>2&#45;&gt;3</title>
<path fill="none" stroke="black" d="M173.07,-192.88C165.88,-181.78 157.86,-169.37 150.62,-158.18"/>
<polygon fill="black" stroke="black" points="153.38,-156.01 145.01,-149.52 147.51,-159.82 153.38,-156.01"/>
</g>
<!-- 4 -->
<g id="node5" class="node">
<title>4</title>
<polygon fill="#ea9a61" stroke="black" points="316,-157 203,-157 203,-89 316,-89 316,-157"/>
<text text-anchor="middle" x="259.5" y="-141.8" font-family="Times,serif" font-size="14.00">proline &lt;= 679.0</text>
<text text-anchor="middle" x="259.5" y="-126.8" font-family="Times,serif" font-size="14.00">gini = 0.278</text>
<text text-anchor="middle" x="259.5" y="-111.8" font-family="Times,serif" font-size="14.00">samples = 36</text>
<text text-anchor="middle" x="259.5" y="-96.8" font-family="Times,serif" font-size="14.00">value = [30, 6, 0]</text>
</g>
<!-- 2&#45;&gt;4 -->
<g id="edge4" class="edge">
<title>2&#45;&gt;4</title>
<path fill="none" stroke="black" d="M215.6,-192.88C221.11,-184.24 227.12,-174.82 232.87,-165.79"/>
<polygon fill="black" stroke="black" points="235.86,-167.61 238.28,-157.3 229.95,-163.85 235.86,-167.61"/>
</g>
<!-- 5 -->
<g id="node6" class="node">
<title>5</title>
<polygon fill="#39e581" stroke="black" points="248.5,-53 142.5,-53 142.5,0 248.5,0 248.5,-53"/>
<text text-anchor="middle" x="195.5" y="-37.8" font-family="Times,serif" font-size="14.00">gini = 0.0</text>
<text text-anchor="middle" x="195.5" y="-22.8" font-family="Times,serif" font-size="14.00">samples = 6</text>
<text text-anchor="middle" x="195.5" y="-7.8" font-family="Times,serif" font-size="14.00">value = [0, 6, 0]</text>
</g>
<!-- 4&#45;&gt;5 -->
<g id="edge5" class="edge">
<title>4&#45;&gt;5</title>
<path fill="none" stroke="black" d="M237.12,-88.95C231.11,-80.07 224.6,-70.46 218.55,-61.54"/>
<polygon fill="black" stroke="black" points="221.44,-59.55 212.93,-53.24 215.64,-63.48 221.44,-59.55"/>
</g>
<!-- 6 -->
<g id="node7" class="node">
<title>6</title>
<polygon fill="#e58139" stroke="black" points="380,-53 267,-53 267,0 380,0 380,-53"/>
<text text-anchor="middle" x="323.5" y="-37.8" font-family="Times,serif" font-size="14.00">gini = 0.0</text>
<text text-anchor="middle" x="323.5" y="-22.8" font-family="Times,serif" font-size="14.00">samples = 30</text>
<text text-anchor="middle" x="323.5" y="-7.8" font-family="Times,serif" font-size="14.00">value = [30, 0, 0]</text>
</g>
<!-- 4&#45;&gt;6 -->
<g id="edge6" class="edge">
<title>4&#45;&gt;6</title>
<path fill="none" stroke="black" d="M281.88,-88.95C287.89,-80.07 294.4,-70.46 300.45,-61.54"/>
<polygon fill="black" stroke="black" points="303.36,-63.48 306.07,-53.24 297.56,-59.55 303.36,-63.48"/>
</g>
</g>
</svg>
