<?xml version="1.0" encoding="UTF-8" standalone="no"?>
<!DOCTYPE svg PUBLIC "-//W3C//DTD SVG 1.1//EN"
 "http://www.w3.org/Graphics/SVG/1.1/DTD/svg11.dtd">
<!-- Generated by graphviz version 2.46.1 (20210213.1702)
 -->
<!-- Title: Tree Pages: 1 -->
<svg width="673pt" height="373pt"
 viewBox="0.00 0.00 673.00 373.00" xmlns="http://www.w3.org/2000/svg" xmlns:xlink="http://www.w3.org/1999/xlink">
<g id="graph0" class="graph" transform="scale(1 1) rotate(0) translate(4 369)">
<title>Tree</title>
<polygon fill="white" stroke="transparent" points="-4,4 -4,-369 669,-369 669,4 -4,4"/>
<!-- 0 -->
<g id="node1" class="node">
<title>0</title>
<polygon fill="#e8fcf0" stroke="black" points="322.5,-365 176.5,-365 176.5,-297 322.5,-297 322.5,-365"/>
<text text-anchor="middle" x="249.5" y="-349.8" font-family="Times,serif" font-size="14.00">color_intensity &lt;= 3.82</text>
<text text-anchor="middle" x="249.5" y="-334.8" font-family="Times,serif" font-size="14.00">gini = 0.657</text>
<text text-anchor="middle" x="249.5" y="-319.8" font-family="Times,serif" font-size="14.00">samples = 89</text>
<text text-anchor="middle" x="249.5" y="-304.8" font-family="Times,serif" font-size="14.00">value = [29, 36, 24]</text>
</g>
<!-- 1 -->
<g id="node2" class="node">
<title>1</title>
<polygon fill="#3fe685" stroke="black" points="238.5,-261 2.5,-261 2.5,-193 238.5,-193 238.5,-261"/>
<text text-anchor="middle" x="120.5" y="-245.8" font-family="Times,serif" font-size="14.00">od280/od315_of_diluted_wines &lt;= 3.73</text>
<text text-anchor="middle" x="120.5" y="-230.8" font-family="Times,serif" font-size="14.00">gini = 0.059</text>
<text text-anchor="middle" x="120.5" y="-215.8" font-family="Times,serif" font-size="14.00">samples = 33</text>
<text text-anchor="middle" x="120.5" y="-200.8" font-family="Times,serif" font-size="14.00">value = [1, 32, 0]</text>
</g>
<!-- 0&#45;&gt;1 -->
<g id="edge1" class="edge">
<title>0&#45;&gt;1</title>
<path fill="none" stroke="black" d="M207.62,-296.88C195.79,-287.53 182.8,-277.26 170.54,-267.57"/>
<polygon fill="black" stroke="black" points="172.63,-264.76 162.61,-261.3 168.29,-270.25 172.63,-264.76"/>
<text text-anchor="middle" x="165.52" y="-282.43" font-family="Times,serif" font-size="14.00">True</text>
</g>
<!-- 4 -->
<g id="node5" class="node">
<title>4</title>
<polygon fill="#fcefe6" stroke="black" points="500,-261 257,-261 257,-193 500,-193 500,-261"/>
<text text-anchor="middle" x="378.5" y="-245.8" font-family="Times,serif" font-size="14.00">od280/od315_of_diluted_wines &lt;= 2.495</text>
<text text-anchor="middle" x="378.5" y="-230.8" font-family="Times,serif" font-size="14.00">gini = 0.561</text>
<text text-anchor="middle" x="378.5" y="-215.8" font-family="Times,serif" font-size="14.00">samples = 56</text>
<text text-anchor="middle" x="378.5" y="-200.8" font-family="Times,serif" font-size="14.00">value = [28, 4, 24]</text>
</g>
<!-- 0&#45;&gt;4 -->
<g id="edge4" class="edge">
<title>0&#45;&gt;4</title>
<path fill="none" stroke="black" d="M291.38,-296.88C303.21,-287.53 316.2,-277.26 328.46,-267.57"/>
<polygon fill="black" stroke="black" points="330.71,-270.25 336.39,-261.3 326.37,-264.76 330.71,-270.25"/>
<text text-anchor="middle" x="333.48" y="-282.43" font-family="Times,serif" font-size="14.00">False</text>
</g>
<!-- 2 -->
<g id="node3" class="node">
<title>2</title>
<polygon fill="#39e581" stroke="black" points="113,-149.5 0,-149.5 0,-96.5 113,-96.5 113,-149.5"/>
<text text-anchor="middle" x="56.5" y="-134.3" font-family="Times,serif" font-size="14.00">gini = 0.0</text>
<text text-anchor="middle" x="56.5" y="-119.3" font-family="Times,serif" font-size="14.00">samples = 32</text>
<text text-anchor="middle" x="56.5" y="-104.3" font-family="Times,serif" font-size="14.00">value = [0, 32, 0]</text>
</g>
<!-- 1&#45;&gt;2 -->
<g id="edge2" class="edge">
<title>1&#45;&gt;2</title>
<path fill="none" stroke="black" d="M99.72,-192.88C92.75,-181.78 84.97,-169.37 77.95,-158.18"/>
<polygon fill="black" stroke="black" points="80.79,-156.13 72.51,-149.52 74.86,-159.85 80.79,-156.13"/>
</g>
<!-- 3 -->
<g id="node4" class="node">
<title>3</title>
<polygon fill="#e58139" stroke="black" points="237.5,-149.5 131.5,-149.5 131.5,-96.5 237.5,-96.5 237.5,-149.5"/>
<text text-anchor="middle" x="184.5" y="-134.3" font-family="Times,serif" font-size="14.00">gini = 0.0</text>
<text text-anchor="middle" x="184.5" y="-119.3" font-family="Times,serif" font-size="14.00">samples = 1</text>
<text text-anchor="middle" x="184.5" y="-104.3" font-family="Times,serif" font-size="14.00">value = [1, 0, 0]</text>
</g>
<!-- 1&#45;&gt;3 -->
<g id="edge3" class="edge">
<title>1&#45;&gt;3</title>
<path fill="none" stroke="black" d="M141.28,-192.88C148.25,-181.78 156.03,-169.37 163.05,-158.18"/>
<polygon fill="black" stroke="black" points="166.14,-159.85 168.49,-149.52 160.21,-156.13 166.14,-159.85"/>
</g>
<!-- 5 -->
<g id="node6" class="node">
<title>5</title>
<polygon fill="#9152e8" stroke="black" points="402,-157 289,-157 289,-89 402,-89 402,-157"/>
<text text-anchor="middle" x="345.5" y="-141.8" font-family="Times,serif" font-size="14.00">hue &lt;= 0.945</text>
<text text-anchor="middle" x="345.5" y="-126.8" font-family="Times,serif" font-size="14.00">gini = 0.198</text>
<text text-anchor="middle" x="345.5" y="-111.8" font-family="Times,serif" font-size="14.00">samples = 27</text>
<text text-anchor="middle" x="345.5" y="-96.8" font-family="Times,serif" font-size="14.00">value = [0, 3, 24]</text>
</g>
<!-- 4&#45;&gt;5 -->
<g id="edge5" class="edge">
<title>4&#45;&gt;5</title>
<path fill="none" stroke="black" d="M367.79,-192.88C365.11,-184.6 362.19,-175.6 359.38,-166.91"/>
<polygon fill="black" stroke="black" points="362.68,-165.74 356.27,-157.3 356.02,-167.89 362.68,-165.74"/>
</g>
<!-- 8 -->
<g id="node9" class="node">
<title>8</title>
<polygon fill="#e68640" stroke="black" points="548.5,-157 420.5,-157 420.5,-89 548.5,-89 548.5,-157"/>
<text text-anchor="middle" x="484.5" y="-141.8" font-family="Times,serif" font-size="14.00">magnesium &lt;= 88.0</text>
<text text-anchor="middle" x="484.5" y="-126.8" font-family="Times,serif" font-size="14.00">gini = 0.067</text>
<text text-anchor="middle" x="484.5" y="-111.8" font-family="Times,serif" font-size="14.00">samples = 29</text>
<text text-anchor="middle" x="484.5" y="-96.8" font-family="Times,serif" font-size="14.00">value = [28, 1, 0]</text>
</g>
<!-- 4&#45;&gt;8 -->
<g id="edge8" class="edge">
<title>4&#45;&gt;8</title>
<path fill="none" stroke="black" d="M412.92,-192.88C422.36,-183.8 432.7,-173.85 442.52,-164.4"/>
<polygon fill="black" stroke="black" points="445.12,-166.76 449.89,-157.3 440.26,-161.71 445.12,-166.76"/>
</g>
<!-- 6 -->
<g id="node7" class="node">
<title>6</title>
<polygon fill="#8139e5" stroke="black" points="278,-53 165,-53 165,0 278,0 278,-53"/>
<text text-anchor="middle" x="221.5" y="-37.8" font-family="Times,serif" font-size="14.00">gini = 0.0</text>
<text text-anchor="middle" x="221.5" y="-22.8" font-family="Times,serif" font-size="14.00">samples = 24</text>
<text text-anchor="middle" x="221.5" y="-7.8" font-family="Times,serif" font-size="14.00">value = [0, 0, 24]</text>
</g>
<!-- 5&#45;&gt;6 -->
<g id="edge6" class="edge">
<title>5&#45;&gt;6</title>
<path fill="none" stroke="black" d="M302.13,-88.95C289.53,-79.34 275.79,-68.87 263.29,-59.34"/>
<polygon fill="black" stroke="black" points="265.35,-56.51 255.27,-53.24 261.1,-62.08 265.35,-56.51"/>
</g>
<!-- 7 -->
<g id="node8" class="node">
<title>7</title>
<polygon fill="#39e581" stroke="black" points="402.5,-53 296.5,-53 296.5,0 402.5,0 402.5,-53"/>
<text text-anchor="middle" x="349.5" y="-37.8" font-family="Times,serif" font-size="14.00">gini = 0.0</text>
<text text-anchor="middle" x="349.5" y="-22.8" font-family="Times,serif" font-size="14.00">samples = 3</text>
<text text-anchor="middle" x="349.5" y="-7.8" font-family="Times,serif" font-size="14.00">value = [0, 3, 0]</text>
</g>
<!-- 5&#45;&gt;7 -->
<g id="edge7" class="edge">
<title>5&#45;&gt;7</title>
<path fill="none" stroke="black" d="M346.9,-88.95C347.25,-80.72 347.62,-71.85 347.98,-63.48"/>
<polygon fill="black" stroke="black" points="351.48,-63.38 348.41,-53.24 344.49,-63.08 351.48,-63.38"/>
</g>
<!-- 9 -->
<g id="node10" class="node">
<title>9</title>
<polygon fill="#39e581" stroke="black" points="533.5,-53 427.5,-53 427.5,0 533.5,0 533.5,-53"/>
<text text-anchor="middle" x="480.5" y="-37.8" font-family="Times,serif" font-size="14.00">gini = 0.0</text>
<text text-anchor="middle" x="480.5" y="-22.8" font-family="Times,serif" font-size="14.00">samples = 1</text>
<text text-anchor="middle" x="480.5" y="-7.8" font-family="Times,serif" font-size="14.00">value = [0, 1, 0]</text>
</g>
<!-- 8&#45;&gt;9 -->
<g id="edge9" class="edge">
<title>8&#45;&gt;9</title>
<path fill="none" stroke="black" d="M483.1,-88.95C482.75,-80.72 482.38,-71.85 482.02,-63.48"/>
<polygon fill="black" stroke="black" points="485.51,-63.08 481.59,-53.24 478.52,-63.38 485.51,-63.08"/>
</g>
<!-- 10 -->
<g id="node11" class="node">
<title>10</title>
<polygon fill="#e58139" stroke="black" points="665,-53 552,-53 552,0 665,0 665,-53"/>
<text text-anchor="middle" x="608.5" y="-37.8" font-family="Times,serif" font-size="14.00">gini = 0.0</text>
<text text-anchor="middle" x="608.5" y="-22.8" font-family="Times,serif" font-size="14.00">samples = 28</text>
<text text-anchor="middle" x="608.5" y="-7.8" font-family="Times,serif" font-size="14.00">value = [28, 0, 0]</text>
</g>
<!-- 8&#45;&gt;10 -->
<g id="edge10" class="edge">
<title>8&#45;&gt;10</title>
<path fill="none" stroke="black" d="M527.87,-88.95C540.47,-79.34 554.21,-68.87 566.71,-59.34"/>
<polygon fill="black" stroke="black" points="568.9,-62.08 574.73,-53.24 564.65,-56.51 568.9,-62.08"/>
</g>
</g>
</svg>
