<?xml version="1.0" encoding="UTF-8" standalone="no"?>
<!DOCTYPE svg PUBLIC "-//W3C//DTD SVG 1.1//EN"
 "http://www.w3.org/Graphics/SVG/1.1/DTD/svg11.dtd">
<!-- Generated by graphviz version 2.46.1 (20210213.1702)
 -->
<!-- Title: Tree Pages: 1 -->
<svg width="778pt" height="477pt"
 viewBox="0.00 0.00 777.50 477.00" xmlns="http://www.w3.org/2000/svg" xmlns:xlink="http://www.w3.org/1999/xlink">
<g id="graph0" class="graph" transform="scale(1 1) rotate(0) translate(4 473)">
<title>Tree</title>
<polygon fill="white" stroke="transparent" points="-4,4 -4,-473 773.5,-473 773.5,4 -4,4"/>
<!-- 0 -->
<g id="node1" class="node">
<title>0</title>
<polygon fill="#eefdf4" stroke="black" points="561,-469 435,-469 435,-401 561,-401 561,-469"/>
<text text-anchor="middle" x="498" y="-453.8" font-family="Times,serif" font-size="14.00">proline &lt;= 840.0</text>
<text text-anchor="middle" x="498" y="-438.8" font-family="Times,serif" font-size="14.00">gini = 0.659</text>
<text text-anchor="middle" x="498" y="-423.8" font-family="Times,serif" font-size="14.00">samples = 89</text>
<text text-anchor="middle" x="498" y="-408.8" font-family="Times,serif" font-size="14.00">value = [30, 35, 24]</text>
</g>
<!-- 1 -->
<g id="node2" class="node">
<title>1</title>
<polygon fill="#c2f7d8" stroke="black" points="441,-365 295,-365 295,-297 441,-297 441,-365"/>
<text text-anchor="middle" x="368" y="-349.8" font-family="Times,serif" font-size="14.00">color_intensity &lt;= 3.97</text>
<text text-anchor="middle" x="368" y="-334.8" font-family="Times,serif" font-size="14.00">gini = 0.515</text>
<text text-anchor="middle" x="368" y="-319.8" font-family="Times,serif" font-size="14.00">samples = 59</text>
<text text-anchor="middle" x="368" y="-304.8" font-family="Times,serif" font-size="14.00">value = [2, 34, 23]</text>
</g>
<!-- 0&#45;&gt;1 -->
<g id="edge1" class="edge">
<title>0&#45;&gt;1</title>
<path fill="none" stroke="black" d="M455.79,-400.88C443.87,-391.53 430.78,-381.26 418.43,-371.57"/>
<polygon fill="black" stroke="black" points="420.47,-368.72 410.44,-365.3 416.15,-374.23 420.47,-368.72"/>
<text text-anchor="middle" x="413.44" y="-386.42" font-family="Times,serif" font-size="14.00">True</text>
</g>
<!-- 10 -->
<g id="node11" class="node">
<title>10</title>
<polygon fill="#e78a47" stroke="black" points="639.5,-365 512.5,-365 512.5,-297 639.5,-297 639.5,-365"/>
<text text-anchor="middle" x="576" y="-349.8" font-family="Times,serif" font-size="14.00">flavanoids &lt;= 2.165</text>
<text text-anchor="middle" x="576" y="-334.8" font-family="Times,serif" font-size="14.00">gini = 0.127</text>
<text text-anchor="middle" x="576" y="-319.8" font-family="Times,serif" font-size="14.00">samples = 30</text>
<text text-anchor="middle" x="576" y="-304.8" font-family="Times,serif" font-size="14.00">value = [28, 1, 1]</text>
</g>
<!-- 0&#45;&gt;10 -->
<g id="edge10" class="edge">
<title>0&#45;&gt;10</title>
<path fill="none" stroke="black" d="M523.32,-400.88C530,-392.15 537.29,-382.62 544.25,-373.51"/>
<polygon fill="black" stroke="black" points="547.24,-375.37 550.54,-365.3 541.68,-371.12 547.24,-375.37"/>
<text text-anchor="middle" x="553.84" y="-386.38" font-family="Times,serif" font-size="14.00">False</text>
</g>
<!-- 2 -->
<g id="node3" class="node">
<title>2</title>
<polygon fill="#3fe685" stroke="black" points="241,-261 121,-261 121,-193 241,-193 241,-261"/>
<text text-anchor="middle" x="181" y="-245.8" font-family="Times,serif" font-size="14.00">flavanoids &lt;= 0.52</text>
<text text-anchor="middle" x="181" y="-230.8" font-family="Times,serif" font-size="14.00">gini = 0.059</text>
<text text-anchor="middle" x="181" y="-215.8" font-family="Times,serif" font-size="14.00">samples = 33</text>
<text text-anchor="middle" x="181" y="-200.8" font-family="Times,serif" font-size="14.00">value = [0, 32, 1]</text>
</g>
<!-- 1&#45;&gt;2 -->
<g id="edge2" class="edge">
<title>1&#45;&gt;2</title>
<path fill="none" stroke="black" d="M307.29,-296.88C288.97,-286.89 268.72,-275.85 249.91,-265.59"/>
<polygon fill="black" stroke="black" points="251.54,-262.49 241.09,-260.78 248.19,-268.64 251.54,-262.49"/>
</g>
<!-- 5 -->
<g id="node6" class="node">
<title>5</title>
<polygon fill="#965ae9" stroke="black" points="424.5,-261 311.5,-261 311.5,-193 424.5,-193 424.5,-261"/>
<text text-anchor="middle" x="368" y="-245.8" font-family="Times,serif" font-size="14.00">flavanoids &lt;= 2.1</text>
<text text-anchor="middle" x="368" y="-230.8" font-family="Times,serif" font-size="14.00">gini = 0.272</text>
<text text-anchor="middle" x="368" y="-215.8" font-family="Times,serif" font-size="14.00">samples = 26</text>
<text text-anchor="middle" x="368" y="-200.8" font-family="Times,serif" font-size="14.00">value = [2, 2, 22]</text>
</g>
<!-- 1&#45;&gt;5 -->
<g id="edge5" class="edge">
<title>1&#45;&gt;5</title>
<path fill="none" stroke="black" d="M368,-296.88C368,-288.78 368,-279.98 368,-271.47"/>
<polygon fill="black" stroke="black" points="371.5,-271.3 368,-261.3 364.5,-271.3 371.5,-271.3"/>
</g>
<!-- 3 -->
<g id="node4" class="node">
<title>3</title>
<polygon fill="#8139e5" stroke="black" points="106,-149.5 0,-149.5 0,-96.5 106,-96.5 106,-149.5"/>
<text text-anchor="middle" x="53" y="-134.3" font-family="Times,serif" font-size="14.00">gini = 0.0</text>
<text text-anchor="middle" x="53" y="-119.3" font-family="Times,serif" font-size="14.00">samples = 1</text>
<text text-anchor="middle" x="53" y="-104.3" font-family="Times,serif" font-size="14.00">value = [0, 0, 1]</text>
</g>
<!-- 2&#45;&gt;3 -->
<g id="edge3" class="edge">
<title>2&#45;&gt;3</title>
<path fill="none" stroke="black" d="M139.44,-192.88C124.54,-181.01 107.77,-167.65 93,-155.88"/>
<polygon fill="black" stroke="black" points="95.03,-153.01 85.03,-149.52 90.66,-158.49 95.03,-153.01"/>
</g>
<!-- 4 -->
<g id="node5" class="node">
<title>4</title>
<polygon fill="#39e581" stroke="black" points="237.5,-149.5 124.5,-149.5 124.5,-96.5 237.5,-96.5 237.5,-149.5"/>
<text text-anchor="middle" x="181" y="-134.3" font-family="Times,serif" font-size="14.00">gini = 0.0</text>
<text text-anchor="middle" x="181" y="-119.3" font-family="Times,serif" font-size="14.00">samples = 32</text>
<text text-anchor="middle" x="181" y="-104.3" font-family="Times,serif" font-size="14.00">value = [0, 32, 0]</text>
</g>
<!-- 2&#45;&gt;4 -->
<g id="edge4" class="edge">
<title>2&#45;&gt;4</title>
<path fill="none" stroke="black" d="M181,-192.88C181,-182.33 181,-170.6 181,-159.85"/>
<polygon fill="black" stroke="black" points="184.5,-159.52 181,-149.52 177.5,-159.52 184.5,-159.52"/>
</g>
<!-- 6 -->
<g id="node7" class="node">
<title>6</title>
<polygon fill="#8139e5" stroke="black" points="368.5,-149.5 255.5,-149.5 255.5,-96.5 368.5,-96.5 368.5,-149.5"/>
<text text-anchor="middle" x="312" y="-134.3" font-family="Times,serif" font-size="14.00">gini = 0.0</text>
<text text-anchor="middle" x="312" y="-119.3" font-family="Times,serif" font-size="14.00">samples = 22</text>
<text text-anchor="middle" x="312" y="-104.3" font-family="Times,serif" font-size="14.00">value = [0, 0, 22]</text>
</g>
<!-- 5&#45;&gt;6 -->
<g id="edge6" class="edge">
<title>5&#45;&gt;6</title>
<path fill="none" stroke="black" d="M349.82,-192.88C343.78,-181.89 337.04,-169.62 330.95,-158.52"/>
<polygon fill="black" stroke="black" points="333.89,-156.6 326.01,-149.52 327.76,-159.97 333.89,-156.6"/>
</g>
<!-- 7 -->
<g id="node8" class="node">
<title>7</title>
<polygon fill="#ffffff" stroke="black" points="505,-157 387,-157 387,-89 505,-89 505,-157"/>
<text text-anchor="middle" x="446" y="-141.8" font-family="Times,serif" font-size="14.00">alcohol &lt;= 12.805</text>
<text text-anchor="middle" x="446" y="-126.8" font-family="Times,serif" font-size="14.00">gini = 0.5</text>
<text text-anchor="middle" x="446" y="-111.8" font-family="Times,serif" font-size="14.00">samples = 4</text>
<text text-anchor="middle" x="446" y="-96.8" font-family="Times,serif" font-size="14.00">value = [2, 2, 0]</text>
</g>
<!-- 5&#45;&gt;7 -->
<g id="edge7" class="edge">
<title>5&#45;&gt;7</title>
<path fill="none" stroke="black" d="M393.32,-192.88C400,-184.15 407.29,-174.62 414.25,-165.51"/>
<polygon fill="black" stroke="black" points="417.24,-167.37 420.54,-157.3 411.68,-163.12 417.24,-167.37"/>
</g>
<!-- 8 -->
<g id="node9" class="node">
<title>8</title>
<polygon fill="#39e581" stroke="black" points="437,-53 331,-53 331,0 437,0 437,-53"/>
<text text-anchor="middle" x="384" y="-37.8" font-family="Times,serif" font-size="14.00">gini = 0.0</text>
<text text-anchor="middle" x="384" y="-22.8" font-family="Times,serif" font-size="14.00">samples = 2</text>
<text text-anchor="middle" x="384" y="-7.8" font-family="Times,serif" font-size="14.00">value = [0, 2, 0]</text>
</g>
<!-- 7&#45;&gt;8 -->
<g id="edge8" class="edge">
<title>7&#45;&gt;8</title>
<path fill="none" stroke="black" d="M424.32,-88.95C418.55,-80.17 412.32,-70.66 406.51,-61.82"/>
<polygon fill="black" stroke="black" points="409.3,-59.68 400.89,-53.24 403.44,-63.52 409.3,-59.68"/>
</g>
<!-- 9 -->
<g id="node10" class="node">
<title>9</title>
<polygon fill="#e58139" stroke="black" points="561,-53 455,-53 455,0 561,0 561,-53"/>
<text text-anchor="middle" x="508" y="-37.8" font-family="Times,serif" font-size="14.00">gini = 0.0</text>
<text text-anchor="middle" x="508" y="-22.8" font-family="Times,serif" font-size="14.00">samples = 2</text>
<text text-anchor="middle" x="508" y="-7.8" font-family="Times,serif" font-size="14.00">value = [2, 0, 0]</text>
</g>
<!-- 7&#45;&gt;9 -->
<g id="edge9" class="edge">
<title>7&#45;&gt;9</title>
<path fill="none" stroke="black" d="M467.68,-88.95C473.45,-80.17 479.68,-70.66 485.49,-61.82"/>
<polygon fill="black" stroke="black" points="488.56,-63.52 491.11,-53.24 482.7,-59.68 488.56,-63.52"/>
</g>
<!-- 11 -->
<g id="node12" class="node">
<title>11</title>
<polygon fill="#ffffff" stroke="black" points="638.5,-261 513.5,-261 513.5,-193 638.5,-193 638.5,-261"/>
<text text-anchor="middle" x="576" y="-245.8" font-family="Times,serif" font-size="14.00">malic_acid &lt;= 2.06</text>
<text text-anchor="middle" x="576" y="-230.8" font-family="Times,serif" font-size="14.00">gini = 0.5</text>
<text text-anchor="middle" x="576" y="-215.8" font-family="Times,serif" font-size="14.00">samples = 2</text>
<text text-anchor="middle" x="576" y="-200.8" font-family="Times,serif" font-size="14.00">value = [0, 1, 1]</text>
</g>
<!-- 10&#45;&gt;11 -->
<g id="edge11" class="edge">
<title>10&#45;&gt;11</title>
<path fill="none" stroke="black" d="M576,-296.88C576,-288.78 576,-279.98 576,-271.47"/>
<polygon fill="black" stroke="black" points="579.5,-271.3 576,-261.3 572.5,-271.3 579.5,-271.3"/>
</g>
<!-- 14 -->
<g id="node15" class="node">
<title>14</title>
<polygon fill="#e58139" stroke="black" points="769.5,-253.5 656.5,-253.5 656.5,-200.5 769.5,-200.5 769.5,-253.5"/>
<text text-anchor="middle" x="713" y="-238.3" font-family="Times,serif" font-size="14.00">gini = 0.0</text>
<text text-anchor="middle" x="713" y="-223.3" font-family="Times,serif" font-size="14.00">samples = 28</text>
<text text-anchor="middle" x="713" y="-208.3" font-family="Times,serif" font-size="14.00">value = [28, 0, 0]</text>
</g>
<!-- 10&#45;&gt;14 -->
<g id="edge14" class="edge">
<title>10&#45;&gt;14</title>
<path fill="none" stroke="black" d="M620.48,-296.88C636.58,-284.9 654.71,-271.4 670.62,-259.55"/>
<polygon fill="black" stroke="black" points="672.79,-262.3 678.72,-253.52 668.61,-256.68 672.79,-262.3"/>
</g>
<!-- 12 -->
<g id="node13" class="node">
<title>12</title>
<polygon fill="#39e581" stroke="black" points="629,-149.5 523,-149.5 523,-96.5 629,-96.5 629,-149.5"/>
<text text-anchor="middle" x="576" y="-134.3" font-family="Times,serif" font-size="14.00">gini = 0.0</text>
<text text-anchor="middle" x="576" y="-119.3" font-family="Times,serif" font-size="14.00">samples = 1</text>
<text text-anchor="middle" x="576" y="-104.3" font-family="Times,serif" font-size="14.00">value = [0, 1, 0]</text>
</g>
<!-- 11&#45;&gt;12 -->
<g id="edge12" class="edge">
<title>11&#45;&gt;12</title>
<path fill="none" stroke="black" d="M576,-192.88C576,-182.33 576,-170.6 576,-159.85"/>
<polygon fill="black" stroke="black" points="579.5,-159.52 576,-149.52 572.5,-159.52 579.5,-159.52"/>
</g>
<!-- 13 -->
<g id="node14" class="node">
<title>13</title>
<polygon fill="#8139e5" stroke="black" points="753,-149.5 647,-149.5 647,-96.5 753,-96.5 753,-149.5"/>
<text text-anchor="middle" x="700" y="-134.3" font-family="Times,serif" font-size="14.00">gini = 0.0</text>
<text text-anchor="middle" x="700" y="-119.3" font-family="Times,serif" font-size="14.00">samples = 1</text>
<text text-anchor="middle" x="700" y="-104.3" font-family="Times,serif" font-size="14.00">value = [0, 0, 1]</text>
</g>
<!-- 11&#45;&gt;13 -->
<g id="edge13" class="edge">
<title>11&#45;&gt;13</title>
<path fill="none" stroke="black" d="M616.26,-192.88C630.7,-181.01 646.94,-167.65 661.25,-155.88"/>
<polygon fill="black" stroke="black" points="663.48,-158.58 668.98,-149.52 659.03,-153.17 663.48,-158.58"/>
</g>
</g>
</svg>
