<?xml version="1.0" encoding="UTF-8" standalone="no"?>
<!DOCTYPE svg PUBLIC "-//W3C//DTD SVG 1.1//EN"
 "http://www.w3.org/Graphics/SVG/1.1/DTD/svg11.dtd">
<!-- Generated by graphviz version 2.46.1 (20210213.1702)
 -->
<!-- Title: Tree Pages: 1 -->
<svg width="385pt" height="373pt"
 viewBox="0.00 0.00 385.00 373.00" xmlns="http://www.w3.org/2000/svg" xmlns:xlink="http://www.w3.org/1999/xlink">
<g id="graph0" class="graph" transform="scale(1 1) rotate(0) translate(4 369)">
<title>Tree</title>
<polygon fill="white" stroke="transparent" points="-4,4 -4,-369 381,-369 381,4 -4,4"/>
<!-- 0 -->
<g id="node1" class="node">
<title>0</title>
<polygon fill="#e8fcf0" stroke="black" points="196.5,-365 50.5,-365 50.5,-297 196.5,-297 196.5,-365"/>
<text text-anchor="middle" x="123.5" y="-349.8" font-family="Times,serif" font-size="14.00">color_intensity &lt;= 3.55</text>
<text text-anchor="middle" x="123.5" y="-334.8" font-family="Times,serif" font-size="14.00">gini = 0.657</text>
<text text-anchor="middle" x="123.5" y="-319.8" font-family="Times,serif" font-size="14.00">samples = 89</text>
<text text-anchor="middle" x="123.5" y="-304.8" font-family="Times,serif" font-size="14.00">value = [29, 36, 24]</text>
</g>
<!-- 1 -->
<g id="node2" class="node">
<title>1</title>
<polygon fill="#39e581" stroke="black" points="113,-253.5 0,-253.5 0,-200.5 113,-200.5 113,-253.5"/>
<text text-anchor="middle" x="56.5" y="-238.3" font-family="Times,serif" font-size="14.00">gini = 0.0</text>
<text text-anchor="middle" x="56.5" y="-223.3" font-family="Times,serif" font-size="14.00">samples = 32</text>
<text text-anchor="middle" x="56.5" y="-208.3" font-family="Times,serif" font-size="14.00">value = [0, 32, 0]</text>
</g>
<!-- 0&#45;&gt;1 -->
<g id="edge1" class="edge">
<title>0&#45;&gt;1</title>
<path fill="none" stroke="black" d="M101.75,-296.88C94.45,-285.78 86.3,-273.37 78.95,-262.18"/>
<polygon fill="black" stroke="black" points="81.68,-259.96 73.26,-253.52 75.83,-263.8 81.68,-259.96"/>
<text text-anchor="middle" x="68.19" y="-274.3" font-family="Times,serif" font-size="14.00">True</text>
</g>
<!-- 2 -->
<g id="node3" class="node">
<title>2</title>
<polygon fill="#fbece1" stroke="black" points="251.5,-261 131.5,-261 131.5,-193 251.5,-193 251.5,-261"/>
<text text-anchor="middle" x="191.5" y="-245.8" font-family="Times,serif" font-size="14.00">flavanoids &lt;= 1.48</text>
<text text-anchor="middle" x="191.5" y="-230.8" font-family="Times,serif" font-size="14.00">gini = 0.559</text>
<text text-anchor="middle" x="191.5" y="-215.8" font-family="Times,serif" font-size="14.00">samples = 57</text>
<text text-anchor="middle" x="191.5" y="-200.8" font-family="Times,serif" font-size="14.00">value = [29, 4, 24]</text>
</g>
<!-- 0&#45;&gt;2 -->
<g id="edge2" class="edge">
<title>0&#45;&gt;2</title>
<path fill="none" stroke="black" d="M145.58,-296.88C151.34,-288.24 157.62,-278.82 163.64,-269.79"/>
<polygon fill="black" stroke="black" points="166.67,-271.56 169.3,-261.3 160.84,-267.68 166.67,-271.56"/>
<text text-anchor="middle" x="174.2" y="-282.11" font-family="Times,serif" font-size="14.00">False</text>
</g>
<!-- 3 -->
<g id="node4" class="node">
<title>3</title>
<polygon fill="#8139e5" stroke="black" points="182,-149.5 69,-149.5 69,-96.5 182,-96.5 182,-149.5"/>
<text text-anchor="middle" x="125.5" y="-134.3" font-family="Times,serif" font-size="14.00">gini = 0.0</text>
<text text-anchor="middle" x="125.5" y="-119.3" font-family="Times,serif" font-size="14.00">samples = 24</text>
<text text-anchor="middle" x="125.5" y="-104.3" font-family="Times,serif" font-size="14.00">value = [0, 0, 24]</text>
</g>
<!-- 2&#45;&gt;3 -->
<g id="edge3" class="edge">
<title>2&#45;&gt;3</title>
<path fill="none" stroke="black" d="M170.07,-192.88C162.88,-181.78 154.86,-169.37 147.62,-158.18"/>
<polygon fill="black" stroke="black" points="150.38,-156.01 142.01,-149.52 144.51,-159.82 150.38,-156.01"/>
</g>
<!-- 4 -->
<g id="node5" class="node">
<title>4</title>
<polygon fill="#e99254" stroke="black" points="313,-157 200,-157 200,-89 313,-89 313,-157"/>
<text text-anchor="middle" x="256.5" y="-141.8" font-family="Times,serif" font-size="14.00">proline &lt;= 719.0</text>
<text text-anchor="middle" x="256.5" y="-126.8" font-family="Times,serif" font-size="14.00">gini = 0.213</text>
<text text-anchor="middle" x="256.5" y="-111.8" font-family="Times,serif" font-size="14.00">samples = 33</text>
<text text-anchor="middle" x="256.5" y="-96.8" font-family="Times,serif" font-size="14.00">value = [29, 4, 0]</text>
</g>
<!-- 2&#45;&gt;4 -->
<g id="edge4" class="edge">
<title>2&#45;&gt;4</title>
<path fill="none" stroke="black" d="M212.6,-192.88C218.11,-184.24 224.12,-174.82 229.87,-165.79"/>
<polygon fill="black" stroke="black" points="232.86,-167.61 235.28,-157.3 226.95,-163.85 232.86,-167.61"/>
</g>
<!-- 5 -->
<g id="node6" class="node">
<title>5</title>
<polygon fill="#39e581" stroke="black" points="245.5,-53 139.5,-53 139.5,0 245.5,0 245.5,-53"/>
<text text-anchor="middle" x="192.5" y="-37.8" font-family="Times,serif" font-size="14.00">gini = 0.0</text>
<text text-anchor="middle" x="192.5" y="-22.8" font-family="Times,serif" font-size="14.00">samples = 4</text>
<text text-anchor="middle" x="192.5" y="-7.8" font-family="Times,serif" font-size="14.00">value = [0, 4, 0]</text>
</g>
<!-- 4&#45;&gt;5 -->
<g id="edge5" class="edge">
<title>4&#45;&gt;5</title>
<path fill="none" stroke="black" d="M234.12,-88.95C228.11,-80.07 221.6,-70.46 215.55,-61.54"/>
<polygon fill="black" stroke="black" points="218.44,-59.55 209.93,-53.24 212.64,-63.48 218.44,-59.55"/>
</g>
<!-- 6 -->
<g id="node7" class="node">
<title>6</title>
<polygon fill="#e58139" stroke="black" points="377,-53 264,-53 264,0 377,0 377,-53"/>
<text text-anchor="middle" x="320.5" y="-37.8" font-family="Times,serif" font-size="14.00">gini = 0.0</text>
<text text-anchor="middle" x="320.5" y="-22.8" font-family="Times,serif" font-size="14.00">samples = 29</text>
<text text-anchor="middle" x="320.5" y="-7.8" font-family="Times,serif" font-size="14.00">value = [29, 0, 0]</text>
</g>
<!-- 4&#45;&gt;6 -->
<g id="edge6" class="edge">
<title>4&#45;&gt;6</title>
<path fill="none" stroke="black" d="M278.88,-88.95C284.89,-80.07 291.4,-70.46 297.45,-61.54"/>
<polygon fill="black" stroke="black" points="300.36,-63.48 303.07,-53.24 294.56,-59.55 300.36,-63.48"/>
</g>
</g>
</svg>
