<?xml version="1.0" encoding="UTF-8" standalone="no"?>
<!DOCTYPE svg PUBLIC "-//W3C//DTD SVG 1.1//EN"
 "http://www.w3.org/Graphics/SVG/1.1/DTD/svg11.dtd">
<!-- Generated by graphviz version 2.46.1 (20210213.1702)
 -->
<!-- Title: Tree Pages: 1 -->
<svg width="575pt" height="477pt"
 viewBox="0.00 0.00 575.00 477.00" xmlns="http://www.w3.org/2000/svg" xmlns:xlink="http://www.w3.org/1999/xlink">
<g id="graph0" class="graph" transform="scale(1 1) rotate(0) translate(4 473)">
<title>Tree</title>
<polygon fill="white" stroke="transparent" points="-4,4 -4,-473 571,-473 571,4 -4,4"/>
<!-- 0 -->
<g id="node1" class="node">
<title>0</title>
<polygon fill="#eefdf4" stroke="black" points="408,-469 282,-469 282,-401 408,-401 408,-469"/>
<text text-anchor="middle" x="345" y="-453.8" font-family="Times,serif" font-size="14.00">proline &lt;= 953.5</text>
<text text-anchor="middle" x="345" y="-438.8" font-family="Times,serif" font-size="14.00">gini = 0.659</text>
<text text-anchor="middle" x="345" y="-423.8" font-family="Times,serif" font-size="14.00">samples = 89</text>
<text text-anchor="middle" x="345" y="-408.8" font-family="Times,serif" font-size="14.00">value = [30, 35, 24]</text>
</g>
<!-- 1 -->
<g id="node2" class="node">
<title>1</title>
<polygon fill="#c7f8db" stroke="black" points="368.5,-365 125.5,-365 125.5,-297 368.5,-297 368.5,-365"/>
<text text-anchor="middle" x="247" y="-349.8" font-family="Times,serif" font-size="14.00">od280/od315_of_diluted_wines &lt;= 2.115</text>
<text text-anchor="middle" x="247" y="-334.8" font-family="Times,serif" font-size="14.00">gini = 0.542</text>
<text text-anchor="middle" x="247" y="-319.8" font-family="Times,serif" font-size="14.00">samples = 63</text>
<text text-anchor="middle" x="247" y="-304.8" font-family="Times,serif" font-size="14.00">value = [4, 35, 24]</text>
</g>
<!-- 0&#45;&gt;1 -->
<g id="edge1" class="edge">
<title>0&#45;&gt;1</title>
<path fill="none" stroke="black" d="M313.18,-400.88C304.54,-391.89 295.08,-382.04 286.08,-372.68"/>
<polygon fill="black" stroke="black" points="288.45,-370.09 278.99,-365.3 283.4,-374.94 288.45,-370.09"/>
<text text-anchor="middle" x="278.49" y="-386.59" font-family="Times,serif" font-size="14.00">True</text>
</g>
<!-- 10 -->
<g id="node11" class="node">
<title>10</title>
<polygon fill="#e58139" stroke="black" points="499.5,-357.5 386.5,-357.5 386.5,-304.5 499.5,-304.5 499.5,-357.5"/>
<text text-anchor="middle" x="443" y="-342.3" font-family="Times,serif" font-size="14.00">gini = 0.0</text>
<text text-anchor="middle" x="443" y="-327.3" font-family="Times,serif" font-size="14.00">samples = 26</text>
<text text-anchor="middle" x="443" y="-312.3" font-family="Times,serif" font-size="14.00">value = [26, 0, 0]</text>
</g>
<!-- 0&#45;&gt;10 -->
<g id="edge10" class="edge">
<title>0&#45;&gt;10</title>
<path fill="none" stroke="black" d="M376.82,-400.88C387.91,-389.34 400.35,-376.39 411.43,-364.86"/>
<polygon fill="black" stroke="black" points="414.08,-367.16 418.48,-357.52 409.03,-362.31 414.08,-367.16"/>
<text text-anchor="middle" x="418.98" y="-378.81" font-family="Times,serif" font-size="14.00">False</text>
</g>
<!-- 2 -->
<g id="node3" class="node">
<title>2</title>
<polygon fill="#9152e8" stroke="black" points="241.5,-261 116.5,-261 116.5,-193 241.5,-193 241.5,-261"/>
<text text-anchor="middle" x="179" y="-245.8" font-family="Times,serif" font-size="14.00">malic_acid &lt;= 1.64</text>
<text text-anchor="middle" x="179" y="-230.8" font-family="Times,serif" font-size="14.00">gini = 0.198</text>
<text text-anchor="middle" x="179" y="-215.8" font-family="Times,serif" font-size="14.00">samples = 27</text>
<text text-anchor="middle" x="179" y="-200.8" font-family="Times,serif" font-size="14.00">value = [0, 3, 24]</text>
</g>
<!-- 1&#45;&gt;2 -->
<g id="edge2" class="edge">
<title>1&#45;&gt;2</title>
<path fill="none" stroke="black" d="M224.92,-296.88C219.16,-288.24 212.88,-278.82 206.86,-269.79"/>
<polygon fill="black" stroke="black" points="209.66,-267.68 201.2,-261.3 203.83,-271.56 209.66,-267.68"/>
</g>
<!-- 5 -->
<g id="node6" class="node">
<title>5</title>
<polygon fill="#52e891" stroke="black" points="372.5,-261 259.5,-261 259.5,-193 372.5,-193 372.5,-261"/>
<text text-anchor="middle" x="316" y="-245.8" font-family="Times,serif" font-size="14.00">proline &lt;= 756.5</text>
<text text-anchor="middle" x="316" y="-230.8" font-family="Times,serif" font-size="14.00">gini = 0.198</text>
<text text-anchor="middle" x="316" y="-215.8" font-family="Times,serif" font-size="14.00">samples = 36</text>
<text text-anchor="middle" x="316" y="-200.8" font-family="Times,serif" font-size="14.00">value = [4, 32, 0]</text>
</g>
<!-- 1&#45;&gt;5 -->
<g id="edge5" class="edge">
<title>1&#45;&gt;5</title>
<path fill="none" stroke="black" d="M269.4,-296.88C275.25,-288.24 281.62,-278.82 287.73,-269.79"/>
<polygon fill="black" stroke="black" points="290.77,-271.54 293.47,-261.3 284.97,-267.62 290.77,-271.54"/>
</g>
<!-- 3 -->
<g id="node4" class="node">
<title>3</title>
<polygon fill="#39e581" stroke="black" points="106,-149.5 0,-149.5 0,-96.5 106,-96.5 106,-149.5"/>
<text text-anchor="middle" x="53" y="-134.3" font-family="Times,serif" font-size="14.00">gini = 0.0</text>
<text text-anchor="middle" x="53" y="-119.3" font-family="Times,serif" font-size="14.00">samples = 3</text>
<text text-anchor="middle" x="53" y="-104.3" font-family="Times,serif" font-size="14.00">value = [0, 3, 0]</text>
</g>
<!-- 2&#45;&gt;3 -->
<g id="edge3" class="edge">
<title>2&#45;&gt;3</title>
<path fill="none" stroke="black" d="M138.09,-192.88C123.42,-181.01 106.92,-167.65 92.38,-155.88"/>
<polygon fill="black" stroke="black" points="94.5,-153.09 84.52,-149.52 90.09,-158.53 94.5,-153.09"/>
</g>
<!-- 4 -->
<g id="node5" class="node">
<title>4</title>
<polygon fill="#8139e5" stroke="black" points="237.5,-149.5 124.5,-149.5 124.5,-96.5 237.5,-96.5 237.5,-149.5"/>
<text text-anchor="middle" x="181" y="-134.3" font-family="Times,serif" font-size="14.00">gini = 0.0</text>
<text text-anchor="middle" x="181" y="-119.3" font-family="Times,serif" font-size="14.00">samples = 24</text>
<text text-anchor="middle" x="181" y="-104.3" font-family="Times,serif" font-size="14.00">value = [0, 0, 24]</text>
</g>
<!-- 2&#45;&gt;4 -->
<g id="edge4" class="edge">
<title>2&#45;&gt;4</title>
<path fill="none" stroke="black" d="M179.65,-192.88C179.86,-182.22 180.09,-170.35 180.3,-159.52"/>
<polygon fill="black" stroke="black" points="183.8,-159.59 180.5,-149.52 176.8,-159.45 183.8,-159.59"/>
</g>
<!-- 6 -->
<g id="node7" class="node">
<title>6</title>
<polygon fill="#39e581" stroke="black" points="371.5,-149.5 258.5,-149.5 258.5,-96.5 371.5,-96.5 371.5,-149.5"/>
<text text-anchor="middle" x="315" y="-134.3" font-family="Times,serif" font-size="14.00">gini = 0.0</text>
<text text-anchor="middle" x="315" y="-119.3" font-family="Times,serif" font-size="14.00">samples = 31</text>
<text text-anchor="middle" x="315" y="-104.3" font-family="Times,serif" font-size="14.00">value = [0, 31, 0]</text>
</g>
<!-- 5&#45;&gt;6 -->
<g id="edge6" class="edge">
<title>5&#45;&gt;6</title>
<path fill="none" stroke="black" d="M315.68,-192.88C315.57,-182.33 315.46,-170.6 315.35,-159.85"/>
<polygon fill="black" stroke="black" points="318.85,-159.49 315.25,-149.52 311.85,-159.55 318.85,-159.49"/>
</g>
<!-- 7 -->
<g id="node8" class="node">
<title>7</title>
<polygon fill="#eca06a" stroke="black" points="514.5,-157 389.5,-157 389.5,-89 514.5,-89 514.5,-157"/>
<text text-anchor="middle" x="452" y="-141.8" font-family="Times,serif" font-size="14.00">malic_acid &lt;= 1.58</text>
<text text-anchor="middle" x="452" y="-126.8" font-family="Times,serif" font-size="14.00">gini = 0.32</text>
<text text-anchor="middle" x="452" y="-111.8" font-family="Times,serif" font-size="14.00">samples = 5</text>
<text text-anchor="middle" x="452" y="-96.8" font-family="Times,serif" font-size="14.00">value = [4, 1, 0]</text>
</g>
<!-- 5&#45;&gt;7 -->
<g id="edge7" class="edge">
<title>5&#45;&gt;7</title>
<path fill="none" stroke="black" d="M360.16,-192.88C372.63,-183.53 386.32,-173.26 399.24,-163.57"/>
<polygon fill="black" stroke="black" points="401.7,-166.1 407.6,-157.3 397.5,-160.5 401.7,-166.1"/>
</g>
<!-- 8 -->
<g id="node9" class="node">
<title>8</title>
<polygon fill="#39e581" stroke="black" points="443,-53 337,-53 337,0 443,0 443,-53"/>
<text text-anchor="middle" x="390" y="-37.8" font-family="Times,serif" font-size="14.00">gini = 0.0</text>
<text text-anchor="middle" x="390" y="-22.8" font-family="Times,serif" font-size="14.00">samples = 1</text>
<text text-anchor="middle" x="390" y="-7.8" font-family="Times,serif" font-size="14.00">value = [0, 1, 0]</text>
</g>
<!-- 7&#45;&gt;8 -->
<g id="edge8" class="edge">
<title>7&#45;&gt;8</title>
<path fill="none" stroke="black" d="M430.32,-88.95C424.55,-80.17 418.32,-70.66 412.51,-61.82"/>
<polygon fill="black" stroke="black" points="415.3,-59.68 406.89,-53.24 409.44,-63.52 415.3,-59.68"/>
</g>
<!-- 9 -->
<g id="node10" class="node">
<title>9</title>
<polygon fill="#e58139" stroke="black" points="567,-53 461,-53 461,0 567,0 567,-53"/>
<text text-anchor="middle" x="514" y="-37.8" font-family="Times,serif" font-size="14.00">gini = 0.0</text>
<text text-anchor="middle" x="514" y="-22.8" font-family="Times,serif" font-size="14.00">samples = 4</text>
<text text-anchor="middle" x="514" y="-7.8" font-family="Times,serif" font-size="14.00">value = [4, 0, 0]</text>
</g>
<!-- 7&#45;&gt;9 -->
<g id="edge9" class="edge">
<title>7&#45;&gt;9</title>
<path fill="none" stroke="black" d="M473.68,-88.95C479.45,-80.17 485.68,-70.66 491.49,-61.82"/>
<polygon fill="black" stroke="black" points="494.56,-63.52 497.11,-53.24 488.7,-59.68 494.56,-63.52"/>
</g>
</g>
</svg>
