<?xml version="1.0" encoding="UTF-8" standalone="no"?>
<!DOCTYPE svg PUBLIC "-//W3C//DTD SVG 1.1//EN"
 "http://www.w3.org/Graphics/SVG/1.1/DTD/svg11.dtd">
<!-- Generated by graphviz version 2.46.1 (20210213.1702)
 -->
<!-- Title: Tree Pages: 1 -->
<svg width="391pt" height="477pt"
 viewBox="0.00 0.00 391.00 477.00" xmlns="http://www.w3.org/2000/svg" xmlns:xlink="http://www.w3.org/1999/xlink">
<g id="graph0" class="graph" transform="scale(1 1) rotate(0) translate(4 473)">
<title>Tree</title>
<polygon fill="white" stroke="transparent" points="-4,4 -4,-473 387,-473 387,4 -4,4"/>
<!-- 0 -->
<g id="node1" class="node">
<title>0</title>
<polygon fill="#e8fcf0" stroke="black" points="196.5,-469 50.5,-469 50.5,-401 196.5,-401 196.5,-469"/>
<text text-anchor="middle" x="123.5" y="-453.8" font-family="Times,serif" font-size="14.00">color_intensity &lt;= 3.65</text>
<text text-anchor="middle" x="123.5" y="-438.8" font-family="Times,serif" font-size="14.00">gini = 0.657</text>
<text text-anchor="middle" x="123.5" y="-423.8" font-family="Times,serif" font-size="14.00">samples = 89</text>
<text text-anchor="middle" x="123.5" y="-408.8" font-family="Times,serif" font-size="14.00">value = [29, 36, 24]</text>
</g>
<!-- 1 -->
<g id="node2" class="node">
<title>1</title>
<polygon fill="#39e581" stroke="black" points="113,-357.5 0,-357.5 0,-304.5 113,-304.5 113,-357.5"/>
<text text-anchor="middle" x="56.5" y="-342.3" font-family="Times,serif" font-size="14.00">gini = 0.0</text>
<text text-anchor="middle" x="56.5" y="-327.3" font-family="Times,serif" font-size="14.00">samples = 29</text>
<text text-anchor="middle" x="56.5" y="-312.3" font-family="Times,serif" font-size="14.00">value = [0, 29, 0]</text>
</g>
<!-- 0&#45;&gt;1 -->
<g id="edge1" class="edge">
<title>0&#45;&gt;1</title>
<path fill="none" stroke="black" d="M101.75,-400.88C94.45,-389.78 86.3,-377.37 78.95,-366.18"/>
<polygon fill="black" stroke="black" points="81.68,-363.96 73.26,-357.52 75.83,-367.8 81.68,-363.96"/>
<text text-anchor="middle" x="68.19" y="-378.3" font-family="Times,serif" font-size="14.00">True</text>
</g>
<!-- 2 -->
<g id="node3" class="node">
<title>2</title>
<polygon fill="#fbeee4" stroke="black" points="251.5,-365 131.5,-365 131.5,-297 251.5,-297 251.5,-365"/>
<text text-anchor="middle" x="191.5" y="-349.8" font-family="Times,serif" font-size="14.00">flavanoids &lt;= 1.58</text>
<text text-anchor="middle" x="191.5" y="-334.8" font-family="Times,serif" font-size="14.00">gini = 0.593</text>
<text text-anchor="middle" x="191.5" y="-319.8" font-family="Times,serif" font-size="14.00">samples = 60</text>
<text text-anchor="middle" x="191.5" y="-304.8" font-family="Times,serif" font-size="14.00">value = [29, 7, 24]</text>
</g>
<!-- 0&#45;&gt;2 -->
<g id="edge2" class="edge">
<title>0&#45;&gt;2</title>
<path fill="none" stroke="black" d="M145.58,-400.88C151.34,-392.24 157.62,-382.82 163.64,-373.79"/>
<polygon fill="black" stroke="black" points="166.67,-375.56 169.3,-365.3 160.84,-371.68 166.67,-375.56"/>
<text text-anchor="middle" x="174.2" y="-386.11" font-family="Times,serif" font-size="14.00">False</text>
</g>
<!-- 3 -->
<g id="node4" class="node">
<title>3</title>
<polygon fill="#8139e5" stroke="black" points="183,-253.5 70,-253.5 70,-200.5 183,-200.5 183,-253.5"/>
<text text-anchor="middle" x="126.5" y="-238.3" font-family="Times,serif" font-size="14.00">gini = 0.0</text>
<text text-anchor="middle" x="126.5" y="-223.3" font-family="Times,serif" font-size="14.00">samples = 24</text>
<text text-anchor="middle" x="126.5" y="-208.3" font-family="Times,serif" font-size="14.00">value = [0, 0, 24]</text>
</g>
<!-- 2&#45;&gt;3 -->
<g id="edge3" class="edge">
<title>2&#45;&gt;3</title>
<path fill="none" stroke="black" d="M170.4,-296.88C163.32,-285.78 155.41,-273.37 148.28,-262.18"/>
<polygon fill="black" stroke="black" points="151.09,-260.07 142.76,-253.52 145.19,-263.83 151.09,-260.07"/>
</g>
<!-- 4 -->
<g id="node5" class="node">
<title>4</title>
<polygon fill="#eb9f69" stroke="black" points="314,-261 201,-261 201,-193 314,-193 314,-261"/>
<text text-anchor="middle" x="257.5" y="-245.8" font-family="Times,serif" font-size="14.00">proline &lt;= 724.5</text>
<text text-anchor="middle" x="257.5" y="-230.8" font-family="Times,serif" font-size="14.00">gini = 0.313</text>
<text text-anchor="middle" x="257.5" y="-215.8" font-family="Times,serif" font-size="14.00">samples = 36</text>
<text text-anchor="middle" x="257.5" y="-200.8" font-family="Times,serif" font-size="14.00">value = [29, 7, 0]</text>
</g>
<!-- 2&#45;&gt;4 -->
<g id="edge4" class="edge">
<title>2&#45;&gt;4</title>
<path fill="none" stroke="black" d="M212.93,-296.88C218.52,-288.24 224.62,-278.82 230.46,-269.79"/>
<polygon fill="black" stroke="black" points="233.46,-271.6 235.95,-261.3 227.58,-267.79 233.46,-271.6"/>
</g>
<!-- 5 -->
<g id="node6" class="node">
<title>5</title>
<polygon fill="#55e993" stroke="black" points="252,-157 127,-157 127,-89 252,-89 252,-157"/>
<text text-anchor="middle" x="189.5" y="-141.8" font-family="Times,serif" font-size="14.00">malic_acid &lt;= 3.92</text>
<text text-anchor="middle" x="189.5" y="-126.8" font-family="Times,serif" font-size="14.00">gini = 0.219</text>
<text text-anchor="middle" x="189.5" y="-111.8" font-family="Times,serif" font-size="14.00">samples = 8</text>
<text text-anchor="middle" x="189.5" y="-96.8" font-family="Times,serif" font-size="14.00">value = [1, 7, 0]</text>
</g>
<!-- 4&#45;&gt;5 -->
<g id="edge5" class="edge">
<title>4&#45;&gt;5</title>
<path fill="none" stroke="black" d="M235.42,-192.88C229.66,-184.24 223.38,-174.82 217.36,-165.79"/>
<polygon fill="black" stroke="black" points="220.16,-163.68 211.7,-157.3 214.33,-167.56 220.16,-163.68"/>
</g>
<!-- 8 -->
<g id="node9" class="node">
<title>8</title>
<polygon fill="#e58139" stroke="black" points="383,-149.5 270,-149.5 270,-96.5 383,-96.5 383,-149.5"/>
<text text-anchor="middle" x="326.5" y="-134.3" font-family="Times,serif" font-size="14.00">gini = 0.0</text>
<text text-anchor="middle" x="326.5" y="-119.3" font-family="Times,serif" font-size="14.00">samples = 28</text>
<text text-anchor="middle" x="326.5" y="-104.3" font-family="Times,serif" font-size="14.00">value = [28, 0, 0]</text>
</g>
<!-- 4&#45;&gt;8 -->
<g id="edge8" class="edge">
<title>4&#45;&gt;8</title>
<path fill="none" stroke="black" d="M279.9,-192.88C287.49,-181.67 295.97,-169.13 303.6,-157.85"/>
<polygon fill="black" stroke="black" points="306.53,-159.76 309.24,-149.52 300.73,-155.84 306.53,-159.76"/>
</g>
<!-- 6 -->
<g id="node7" class="node">
<title>6</title>
<polygon fill="#39e581" stroke="black" points="180.5,-53 74.5,-53 74.5,0 180.5,0 180.5,-53"/>
<text text-anchor="middle" x="127.5" y="-37.8" font-family="Times,serif" font-size="14.00">gini = 0.0</text>
<text text-anchor="middle" x="127.5" y="-22.8" font-family="Times,serif" font-size="14.00">samples = 7</text>
<text text-anchor="middle" x="127.5" y="-7.8" font-family="Times,serif" font-size="14.00">value = [0, 7, 0]</text>
</g>
<!-- 5&#45;&gt;6 -->
<g id="edge6" class="edge">
<title>5&#45;&gt;6</title>
<path fill="none" stroke="black" d="M167.82,-88.95C162.05,-80.17 155.82,-70.66 150.01,-61.82"/>
<polygon fill="black" stroke="black" points="152.8,-59.68 144.39,-53.24 146.94,-63.52 152.8,-59.68"/>
</g>
<!-- 7 -->
<g id="node8" class="node">
<title>7</title>
<polygon fill="#e58139" stroke="black" points="304.5,-53 198.5,-53 198.5,0 304.5,0 304.5,-53"/>
<text text-anchor="middle" x="251.5" y="-37.8" font-family="Times,serif" font-size="14.00">gini = 0.0</text>
<text text-anchor="middle" x="251.5" y="-22.8" font-family="Times,serif" font-size="14.00">samples = 1</text>
<text text-anchor="middle" x="251.5" y="-7.8" font-family="Times,serif" font-size="14.00">value = [1, 0, 0]</text>
</g>
<!-- 5&#45;&gt;7 -->
<g id="edge7" class="edge">
<title>5&#45;&gt;7</title>
<path fill="none" stroke="black" d="M211.18,-88.95C216.95,-80.17 223.18,-70.66 228.99,-61.82"/>
<polygon fill="black" stroke="black" points="232.06,-63.52 234.61,-53.24 226.2,-59.68 232.06,-63.52"/>
</g>
</g>
</svg>
