<?xml version="1.0" encoding="UTF-8" standalone="no"?>
<!DOCTYPE svg PUBLIC "-//W3C//DTD SVG 1.1//EN"
 "http://www.w3.org/Graphics/SVG/1.1/DTD/svg11.dtd">
<!-- Generated by graphviz version 2.46.1 (20210213.1702)
 -->
<!-- Title: Tree Pages: 1 -->
<svg width="391pt" height="477pt"
 viewBox="0.00 0.00 391.00 477.00" xmlns="http://www.w3.org/2000/svg" xmlns:xlink="http://www.w3.org/1999/xlink">
<g id="graph0" class="graph" transform="scale(1 1) rotate(0) translate(4 473)">
<title>Tree</title>
<polygon fill="white" stroke="transparent" points="-4,4 -4,-473 387,-473 387,4 -4,4"/>
<!-- 0 -->
<g id="node1" class="node">
<title>0</title>
<polygon fill="#e8fcf0" stroke="black" points="196.5,-469 50.5,-469 50.5,-401 196.5,-401 196.5,-469"/>
<text text-anchor="middle" x="123.5" y="-453.8" font-family="Times,serif" font-size="14.00">color_intensity &lt;= 3.46</text>
<text text-anchor="middle" x="123.5" y="-438.8" font-family="Times,serif" font-size="14.00">gini = 0.657</text>
<text text-anchor="middle" x="123.5" y="-423.8" font-family="Times,serif" font-size="14.00">samples = 89</text>
<text text-anchor="middle" x="123.5" y="-408.8" font-family="Times,serif" font-size="14.00">value = [29, 36, 24]</text>
</g>
<!-- 1 -->
<g id="node2" class="node">
<title>1</title>
<polygon fill="#39e581" stroke="black" points="113,-357.5 0,-357.5 0,-304.5 113,-304.5 113,-357.5"/>
<text text-anchor="middle" x="56.5" y="-342.3" font-family="Times,serif" font-size="14.00">gini = 0.0</text>
<text text-anchor="middle" x="56.5" y="-327.3" font-family="Times,serif" font-size="14.00">samples = 29</text>
<text text-anchor="middle" x="56.5" y="-312.3" font-family="Times,serif" font-size="14.00">value = [0, 29, 0]</text>
</g>
<!-- 0&#45;&gt;1 -->
<g id="edge1" class="edge">
<title>0&#45;&gt;1</title>
<path fill="none" stroke="black" d="M101.75,-400.88C94.45,-389.78 86.3,-377.37 78.95,-366.18"/>
<polygon fill="black" stroke="black" points="81.68,-363.96 73.26,-357.52 75.83,-367.8 81.68,-363.96"/>
<text text-anchor="middle" x="68.19" y="-378.3" font-family="Times,serif" font-size="14.00">True</text>
</g>
<!-- 2 -->
<g id="node3" class="node">
<title>2</title>
<polygon fill="#fbeee4" stroke="black" points="250,-365 131,-365 131,-297 250,-297 250,-365"/>
<text text-anchor="middle" x="190.5" y="-349.8" font-family="Times,serif" font-size="14.00">flavanoids &lt;= 1.4</text>
<text text-anchor="middle" x="190.5" y="-334.8" font-family="Times,serif" font-size="14.00">gini = 0.593</text>
<text text-anchor="middle" x="190.5" y="-319.8" font-family="Times,serif" font-size="14.00">samples = 60</text>
<text text-anchor="middle" x="190.5" y="-304.8" font-family="Times,serif" font-size="14.00">value = [29, 7, 24]</text>
</g>
<!-- 0&#45;&gt;2 -->
<g id="edge2" class="edge">
<title>0&#45;&gt;2</title>
<path fill="none" stroke="black" d="M145.25,-400.88C150.93,-392.24 157.12,-382.82 163.05,-373.79"/>
<polygon fill="black" stroke="black" points="166.06,-375.58 168.63,-365.3 160.21,-371.74 166.06,-375.58"/>
<text text-anchor="middle" x="173.7" y="-386.08" font-family="Times,serif" font-size="14.00">False</text>
</g>
<!-- 3 -->
<g id="node4" class="node">
<title>3</title>
<polygon fill="#8139e5" stroke="black" points="181,-253.5 68,-253.5 68,-200.5 181,-200.5 181,-253.5"/>
<text text-anchor="middle" x="124.5" y="-238.3" font-family="Times,serif" font-size="14.00">gini = 0.0</text>
<text text-anchor="middle" x="124.5" y="-223.3" font-family="Times,serif" font-size="14.00">samples = 24</text>
<text text-anchor="middle" x="124.5" y="-208.3" font-family="Times,serif" font-size="14.00">value = [0, 0, 24]</text>
</g>
<!-- 2&#45;&gt;3 -->
<g id="edge3" class="edge">
<title>2&#45;&gt;3</title>
<path fill="none" stroke="black" d="M169.07,-296.88C161.88,-285.78 153.86,-273.37 146.62,-262.18"/>
<polygon fill="black" stroke="black" points="149.38,-260.01 141.01,-253.52 143.51,-263.82 149.38,-260.01"/>
</g>
<!-- 4 -->
<g id="node5" class="node">
<title>4</title>
<polygon fill="#eb9f69" stroke="black" points="312,-261 199,-261 199,-193 312,-193 312,-261"/>
<text text-anchor="middle" x="255.5" y="-245.8" font-family="Times,serif" font-size="14.00">proline &lt;= 724.5</text>
<text text-anchor="middle" x="255.5" y="-230.8" font-family="Times,serif" font-size="14.00">gini = 0.313</text>
<text text-anchor="middle" x="255.5" y="-215.8" font-family="Times,serif" font-size="14.00">samples = 36</text>
<text text-anchor="middle" x="255.5" y="-200.8" font-family="Times,serif" font-size="14.00">value = [29, 7, 0]</text>
</g>
<!-- 2&#45;&gt;4 -->
<g id="edge4" class="edge">
<title>2&#45;&gt;4</title>
<path fill="none" stroke="black" d="M211.6,-296.88C217.11,-288.24 223.12,-278.82 228.87,-269.79"/>
<polygon fill="black" stroke="black" points="231.86,-271.61 234.28,-261.3 225.95,-267.85 231.86,-271.61"/>
</g>
<!-- 5 -->
<g id="node6" class="node">
<title>5</title>
<polygon fill="#55e993" stroke="black" points="252,-157 117,-157 117,-89 252,-89 252,-157"/>
<text text-anchor="middle" x="184.5" y="-141.8" font-family="Times,serif" font-size="14.00">magnesium &lt;= 101.5</text>
<text text-anchor="middle" x="184.5" y="-126.8" font-family="Times,serif" font-size="14.00">gini = 0.219</text>
<text text-anchor="middle" x="184.5" y="-111.8" font-family="Times,serif" font-size="14.00">samples = 8</text>
<text text-anchor="middle" x="184.5" y="-96.8" font-family="Times,serif" font-size="14.00">value = [1, 7, 0]</text>
</g>
<!-- 4&#45;&gt;5 -->
<g id="edge5" class="edge">
<title>4&#45;&gt;5</title>
<path fill="none" stroke="black" d="M232.45,-192.88C226.37,-184.15 219.74,-174.62 213.4,-165.51"/>
<polygon fill="black" stroke="black" points="216.26,-163.51 207.68,-157.3 210.52,-167.51 216.26,-163.51"/>
</g>
<!-- 8 -->
<g id="node9" class="node">
<title>8</title>
<polygon fill="#e58139" stroke="black" points="383,-149.5 270,-149.5 270,-96.5 383,-96.5 383,-149.5"/>
<text text-anchor="middle" x="326.5" y="-134.3" font-family="Times,serif" font-size="14.00">gini = 0.0</text>
<text text-anchor="middle" x="326.5" y="-119.3" font-family="Times,serif" font-size="14.00">samples = 28</text>
<text text-anchor="middle" x="326.5" y="-104.3" font-family="Times,serif" font-size="14.00">value = [28, 0, 0]</text>
</g>
<!-- 4&#45;&gt;8 -->
<g id="edge8" class="edge">
<title>4&#45;&gt;8</title>
<path fill="none" stroke="black" d="M278.55,-192.88C286.36,-181.67 295.09,-169.13 302.94,-157.85"/>
<polygon fill="black" stroke="black" points="305.9,-159.73 308.74,-149.52 300.15,-155.73 305.9,-159.73"/>
</g>
<!-- 6 -->
<g id="node7" class="node">
<title>6</title>
<polygon fill="#39e581" stroke="black" points="175.5,-53 69.5,-53 69.5,0 175.5,0 175.5,-53"/>
<text text-anchor="middle" x="122.5" y="-37.8" font-family="Times,serif" font-size="14.00">gini = 0.0</text>
<text text-anchor="middle" x="122.5" y="-22.8" font-family="Times,serif" font-size="14.00">samples = 7</text>
<text text-anchor="middle" x="122.5" y="-7.8" font-family="Times,serif" font-size="14.00">value = [0, 7, 0]</text>
</g>
<!-- 5&#45;&gt;6 -->
<g id="edge6" class="edge">
<title>5&#45;&gt;6</title>
<path fill="none" stroke="black" d="M162.82,-88.95C157.05,-80.17 150.82,-70.66 145.01,-61.82"/>
<polygon fill="black" stroke="black" points="147.8,-59.68 139.39,-53.24 141.94,-63.52 147.8,-59.68"/>
</g>
<!-- 7 -->
<g id="node8" class="node">
<title>7</title>
<polygon fill="#e58139" stroke="black" points="299.5,-53 193.5,-53 193.5,0 299.5,0 299.5,-53"/>
<text text-anchor="middle" x="246.5" y="-37.8" font-family="Times,serif" font-size="14.00">gini = 0.0</text>
<text text-anchor="middle" x="246.5" y="-22.8" font-family="Times,serif" font-size="14.00">samples = 1</text>
<text text-anchor="middle" x="246.5" y="-7.8" font-family="Times,serif" font-size="14.00">value = [1, 0, 0]</text>
</g>
<!-- 5&#45;&gt;7 -->
<g id="edge7" class="edge">
<title>5&#45;&gt;7</title>
<path fill="none" stroke="black" d="M206.18,-88.95C211.95,-80.17 218.18,-70.66 223.99,-61.82"/>
<polygon fill="black" stroke="black" points="227.06,-63.52 229.61,-53.24 221.2,-59.68 227.06,-63.52"/>
</g>
</g>
</svg>
