<?xml version="1.0" encoding="UTF-8" standalone="no"?>
<!DOCTYPE svg PUBLIC "-//W3C//DTD SVG 1.1//EN"
 "http://www.w3.org/Graphics/SVG/1.1/DTD/svg11.dtd">
<!-- Generated by graphviz version 2.46.1 (20210213.1702)
 -->
<!-- Title: Tree Pages: 1 -->
<svg width="726pt" height="477pt"
 viewBox="0.00 0.00 726.00 477.00" xmlns="http://www.w3.org/2000/svg" xmlns:xlink="http://www.w3.org/1999/xlink">
<g id="graph0" class="graph" transform="scale(1 1) rotate(0) translate(4 473)">
<title>Tree</title>
<polygon fill="white" stroke="transparent" points="-4,4 -4,-473 722,-473 722,4 -4,4"/>
<!-- 0 -->
<g id="node1" class="node">
<title>0</title>
<polygon fill="#eefdf4" stroke="black" points="355.5,-469 209.5,-469 209.5,-401 355.5,-401 355.5,-469"/>
<text text-anchor="middle" x="282.5" y="-453.8" font-family="Times,serif" font-size="14.00">color_intensity &lt;= 3.82</text>
<text text-anchor="middle" x="282.5" y="-438.8" font-family="Times,serif" font-size="14.00">gini = 0.659</text>
<text text-anchor="middle" x="282.5" y="-423.8" font-family="Times,serif" font-size="14.00">samples = 89</text>
<text text-anchor="middle" x="282.5" y="-408.8" font-family="Times,serif" font-size="14.00">value = [30, 35, 24]</text>
</g>
<!-- 1 -->
<g id="node2" class="node">
<title>1</title>
<polygon fill="#40e685" stroke="black" points="271.5,-365 35.5,-365 35.5,-297 271.5,-297 271.5,-365"/>
<text text-anchor="middle" x="153.5" y="-349.8" font-family="Times,serif" font-size="14.00">od280/od315_of_diluted_wines &lt;= 3.73</text>
<text text-anchor="middle" x="153.5" y="-334.8" font-family="Times,serif" font-size="14.00">gini = 0.062</text>
<text text-anchor="middle" x="153.5" y="-319.8" font-family="Times,serif" font-size="14.00">samples = 31</text>
<text text-anchor="middle" x="153.5" y="-304.8" font-family="Times,serif" font-size="14.00">value = [1, 30, 0]</text>
</g>
<!-- 0&#45;&gt;1 -->
<g id="edge1" class="edge">
<title>0&#45;&gt;1</title>
<path fill="none" stroke="black" d="M240.62,-400.88C228.79,-391.53 215.8,-381.26 203.54,-371.57"/>
<polygon fill="black" stroke="black" points="205.63,-368.76 195.61,-365.3 201.29,-374.25 205.63,-368.76"/>
<text text-anchor="middle" x="198.52" y="-386.43" font-family="Times,serif" font-size="14.00">True</text>
</g>
<!-- 4 -->
<g id="node5" class="node">
<title>4</title>
<polygon fill="#fbece2" stroke="black" points="533,-365 290,-365 290,-297 533,-297 533,-365"/>
<text text-anchor="middle" x="411.5" y="-349.8" font-family="Times,serif" font-size="14.00">od280/od315_of_diluted_wines &lt;= 2.495</text>
<text text-anchor="middle" x="411.5" y="-334.8" font-family="Times,serif" font-size="14.00">gini = 0.571</text>
<text text-anchor="middle" x="411.5" y="-319.8" font-family="Times,serif" font-size="14.00">samples = 58</text>
<text text-anchor="middle" x="411.5" y="-304.8" font-family="Times,serif" font-size="14.00">value = [29, 5, 24]</text>
</g>
<!-- 0&#45;&gt;4 -->
<g id="edge4" class="edge">
<title>0&#45;&gt;4</title>
<path fill="none" stroke="black" d="M324.38,-400.88C336.21,-391.53 349.2,-381.26 361.46,-371.57"/>
<polygon fill="black" stroke="black" points="363.71,-374.25 369.39,-365.3 359.37,-368.76 363.71,-374.25"/>
<text text-anchor="middle" x="366.48" y="-386.43" font-family="Times,serif" font-size="14.00">False</text>
</g>
<!-- 2 -->
<g id="node3" class="node">
<title>2</title>
<polygon fill="#39e581" stroke="black" points="113,-253.5 0,-253.5 0,-200.5 113,-200.5 113,-253.5"/>
<text text-anchor="middle" x="56.5" y="-238.3" font-family="Times,serif" font-size="14.00">gini = 0.0</text>
<text text-anchor="middle" x="56.5" y="-223.3" font-family="Times,serif" font-size="14.00">samples = 30</text>
<text text-anchor="middle" x="56.5" y="-208.3" font-family="Times,serif" font-size="14.00">value = [0, 30, 0]</text>
</g>
<!-- 1&#45;&gt;2 -->
<g id="edge2" class="edge">
<title>1&#45;&gt;2</title>
<path fill="none" stroke="black" d="M122.01,-296.88C111.03,-285.34 98.71,-272.39 87.75,-260.86"/>
<polygon fill="black" stroke="black" points="90.2,-258.35 80.77,-253.52 85.12,-263.18 90.2,-258.35"/>
</g>
<!-- 3 -->
<g id="node4" class="node">
<title>3</title>
<polygon fill="#e58139" stroke="black" points="237.5,-253.5 131.5,-253.5 131.5,-200.5 237.5,-200.5 237.5,-253.5"/>
<text text-anchor="middle" x="184.5" y="-238.3" font-family="Times,serif" font-size="14.00">gini = 0.0</text>
<text text-anchor="middle" x="184.5" y="-223.3" font-family="Times,serif" font-size="14.00">samples = 1</text>
<text text-anchor="middle" x="184.5" y="-208.3" font-family="Times,serif" font-size="14.00">value = [1, 0, 0]</text>
</g>
<!-- 1&#45;&gt;3 -->
<g id="edge3" class="edge">
<title>1&#45;&gt;3</title>
<path fill="none" stroke="black" d="M163.56,-296.88C166.84,-286.11 170.49,-274.11 173.81,-263.18"/>
<polygon fill="black" stroke="black" points="177.18,-264.11 176.74,-253.52 170.49,-262.07 177.18,-264.11"/>
</g>
<!-- 5 -->
<g id="node6" class="node">
<title>5</title>
<polygon fill="#965ae9" stroke="black" points="444,-261 317,-261 317,-193 444,-193 444,-261"/>
<text text-anchor="middle" x="380.5" y="-245.8" font-family="Times,serif" font-size="14.00">flavanoids &lt;= 1.385</text>
<text text-anchor="middle" x="380.5" y="-230.8" font-family="Times,serif" font-size="14.00">gini = 0.245</text>
<text text-anchor="middle" x="380.5" y="-215.8" font-family="Times,serif" font-size="14.00">samples = 28</text>
<text text-anchor="middle" x="380.5" y="-200.8" font-family="Times,serif" font-size="14.00">value = [0, 4, 24]</text>
</g>
<!-- 4&#45;&gt;5 -->
<g id="edge5" class="edge">
<title>4&#45;&gt;5</title>
<path fill="none" stroke="black" d="M401.44,-296.88C398.92,-288.6 396.18,-279.6 393.54,-270.91"/>
<polygon fill="black" stroke="black" points="396.88,-269.85 390.62,-261.3 390.18,-271.89 396.88,-269.85"/>
</g>
<!-- 10 -->
<g id="node11" class="node">
<title>10</title>
<polygon fill="#e68540" stroke="black" points="597.5,-261 469.5,-261 469.5,-193 597.5,-193 597.5,-261"/>
<text text-anchor="middle" x="533.5" y="-245.8" font-family="Times,serif" font-size="14.00">magnesium &lt;= 89.0</text>
<text text-anchor="middle" x="533.5" y="-230.8" font-family="Times,serif" font-size="14.00">gini = 0.064</text>
<text text-anchor="middle" x="533.5" y="-215.8" font-family="Times,serif" font-size="14.00">samples = 30</text>
<text text-anchor="middle" x="533.5" y="-200.8" font-family="Times,serif" font-size="14.00">value = [29, 1, 0]</text>
</g>
<!-- 4&#45;&gt;10 -->
<g id="edge10" class="edge">
<title>4&#45;&gt;10</title>
<path fill="none" stroke="black" d="M451.11,-296.88C462.19,-287.62 474.35,-277.45 485.84,-267.85"/>
<polygon fill="black" stroke="black" points="488.24,-270.4 493.67,-261.3 483.75,-265.03 488.24,-270.4"/>
</g>
<!-- 6 -->
<g id="node7" class="node">
<title>6</title>
<polygon fill="#8139e5" stroke="black" points="280,-149.5 167,-149.5 167,-96.5 280,-96.5 280,-149.5"/>
<text text-anchor="middle" x="223.5" y="-134.3" font-family="Times,serif" font-size="14.00">gini = 0.0</text>
<text text-anchor="middle" x="223.5" y="-119.3" font-family="Times,serif" font-size="14.00">samples = 23</text>
<text text-anchor="middle" x="223.5" y="-104.3" font-family="Times,serif" font-size="14.00">value = [0, 0, 23]</text>
</g>
<!-- 5&#45;&gt;6 -->
<g id="edge6" class="edge">
<title>5&#45;&gt;6</title>
<path fill="none" stroke="black" d="M329.53,-192.88C310.82,-180.73 289.73,-167.03 271.31,-155.06"/>
<polygon fill="black" stroke="black" points="273.07,-152.03 262.78,-149.52 269.26,-157.9 273.07,-152.03"/>
</g>
<!-- 7 -->
<g id="node8" class="node">
<title>7</title>
<polygon fill="#6aeca0" stroke="black" points="462.5,-157 298.5,-157 298.5,-89 462.5,-89 462.5,-157"/>
<text text-anchor="middle" x="380.5" y="-141.8" font-family="Times,serif" font-size="14.00">alcalinity_of_ash &lt;= 23.25</text>
<text text-anchor="middle" x="380.5" y="-126.8" font-family="Times,serif" font-size="14.00">gini = 0.32</text>
<text text-anchor="middle" x="380.5" y="-111.8" font-family="Times,serif" font-size="14.00">samples = 5</text>
<text text-anchor="middle" x="380.5" y="-96.8" font-family="Times,serif" font-size="14.00">value = [0, 4, 1]</text>
</g>
<!-- 5&#45;&gt;7 -->
<g id="edge7" class="edge">
<title>5&#45;&gt;7</title>
<path fill="none" stroke="black" d="M380.5,-192.88C380.5,-184.78 380.5,-175.98 380.5,-167.47"/>
<polygon fill="black" stroke="black" points="384,-167.3 380.5,-157.3 377,-167.3 384,-167.3"/>
</g>
<!-- 8 -->
<g id="node9" class="node">
<title>8</title>
<polygon fill="#39e581" stroke="black" points="371.5,-53 265.5,-53 265.5,0 371.5,0 371.5,-53"/>
<text text-anchor="middle" x="318.5" y="-37.8" font-family="Times,serif" font-size="14.00">gini = 0.0</text>
<text text-anchor="middle" x="318.5" y="-22.8" font-family="Times,serif" font-size="14.00">samples = 4</text>
<text text-anchor="middle" x="318.5" y="-7.8" font-family="Times,serif" font-size="14.00">value = [0, 4, 0]</text>
</g>
<!-- 7&#45;&gt;8 -->
<g id="edge8" class="edge">
<title>7&#45;&gt;8</title>
<path fill="none" stroke="black" d="M358.82,-88.95C353.05,-80.17 346.82,-70.66 341.01,-61.82"/>
<polygon fill="black" stroke="black" points="343.8,-59.68 335.39,-53.24 337.94,-63.52 343.8,-59.68"/>
</g>
<!-- 9 -->
<g id="node10" class="node">
<title>9</title>
<polygon fill="#8139e5" stroke="black" points="495.5,-53 389.5,-53 389.5,0 495.5,0 495.5,-53"/>
<text text-anchor="middle" x="442.5" y="-37.8" font-family="Times,serif" font-size="14.00">gini = 0.0</text>
<text text-anchor="middle" x="442.5" y="-22.8" font-family="Times,serif" font-size="14.00">samples = 1</text>
<text text-anchor="middle" x="442.5" y="-7.8" font-family="Times,serif" font-size="14.00">value = [0, 0, 1]</text>
</g>
<!-- 7&#45;&gt;9 -->
<g id="edge9" class="edge">
<title>7&#45;&gt;9</title>
<path fill="none" stroke="black" d="M402.18,-88.95C407.95,-80.17 414.18,-70.66 419.99,-61.82"/>
<polygon fill="black" stroke="black" points="423.06,-63.52 425.61,-53.24 417.2,-59.68 423.06,-63.52"/>
</g>
<!-- 11 -->
<g id="node12" class="node">
<title>11</title>
<polygon fill="#39e581" stroke="black" points="586.5,-149.5 480.5,-149.5 480.5,-96.5 586.5,-96.5 586.5,-149.5"/>
<text text-anchor="middle" x="533.5" y="-134.3" font-family="Times,serif" font-size="14.00">gini = 0.0</text>
<text text-anchor="middle" x="533.5" y="-119.3" font-family="Times,serif" font-size="14.00">samples = 1</text>
<text text-anchor="middle" x="533.5" y="-104.3" font-family="Times,serif" font-size="14.00">value = [0, 1, 0]</text>
</g>
<!-- 10&#45;&gt;11 -->
<g id="edge11" class="edge">
<title>10&#45;&gt;11</title>
<path fill="none" stroke="black" d="M533.5,-192.88C533.5,-182.33 533.5,-170.6 533.5,-159.85"/>
<polygon fill="black" stroke="black" points="537,-159.52 533.5,-149.52 530,-159.52 537,-159.52"/>
</g>
<!-- 12 -->
<g id="node13" class="node">
<title>12</title>
<polygon fill="#e58139" stroke="black" points="718,-149.5 605,-149.5 605,-96.5 718,-96.5 718,-149.5"/>
<text text-anchor="middle" x="661.5" y="-134.3" font-family="Times,serif" font-size="14.00">gini = 0.0</text>
<text text-anchor="middle" x="661.5" y="-119.3" font-family="Times,serif" font-size="14.00">samples = 29</text>
<text text-anchor="middle" x="661.5" y="-104.3" font-family="Times,serif" font-size="14.00">value = [29, 0, 0]</text>
</g>
<!-- 10&#45;&gt;12 -->
<g id="edge12" class="edge">
<title>10&#45;&gt;12</title>
<path fill="none" stroke="black" d="M575.06,-192.88C589.96,-181.01 606.73,-167.65 621.5,-155.88"/>
<polygon fill="black" stroke="black" points="623.84,-158.49 629.47,-149.52 619.47,-153.01 623.84,-158.49"/>
</g>
</g>
</svg>
