<?xml version="1.0" encoding="UTF-8" standalone="no"?>
<!DOCTYPE svg PUBLIC "-//W3C//DTD SVG 1.1//EN"
 "http://www.w3.org/Graphics/SVG/1.1/DTD/svg11.dtd">
<!-- Generated by graphviz version 2.46.1 (20210213.1702)
 -->
<!-- Title: Tree Pages: 1 -->
<svg width="597pt" height="477pt"
 viewBox="0.00 0.00 597.00 477.00" xmlns="http://www.w3.org/2000/svg" xmlns:xlink="http://www.w3.org/1999/xlink">
<g id="graph0" class="graph" transform="scale(1 1) rotate(0) translate(4 473)">
<title>Tree</title>
<polygon fill="white" stroke="transparent" points="-4,4 -4,-473 593,-473 593,4 -4,4"/>
<!-- 0 -->
<g id="node1" class="node">
<title>0</title>
<polygon fill="#eefdf4" stroke="black" points="386,-469 260,-469 260,-401 386,-401 386,-469"/>
<text text-anchor="middle" x="323" y="-453.8" font-family="Times,serif" font-size="14.00">proline &lt;= 900.5</text>
<text text-anchor="middle" x="323" y="-438.8" font-family="Times,serif" font-size="14.00">gini = 0.659</text>
<text text-anchor="middle" x="323" y="-423.8" font-family="Times,serif" font-size="14.00">samples = 89</text>
<text text-anchor="middle" x="323" y="-408.8" font-family="Times,serif" font-size="14.00">value = [30, 35, 24]</text>
</g>
<!-- 1 -->
<g id="node2" class="node">
<title>1</title>
<polygon fill="#c7f8db" stroke="black" points="317.5,-365 190.5,-365 190.5,-297 317.5,-297 317.5,-365"/>
<text text-anchor="middle" x="254" y="-349.8" font-family="Times,serif" font-size="14.00">flavanoids &lt;= 1.385</text>
<text text-anchor="middle" x="254" y="-334.8" font-family="Times,serif" font-size="14.00">gini = 0.542</text>
<text text-anchor="middle" x="254" y="-319.8" font-family="Times,serif" font-size="14.00">samples = 63</text>
<text text-anchor="middle" x="254" y="-304.8" font-family="Times,serif" font-size="14.00">value = [4, 35, 24]</text>
</g>
<!-- 0&#45;&gt;1 -->
<g id="edge1" class="edge">
<title>0&#45;&gt;1</title>
<path fill="none" stroke="black" d="M300.6,-400.88C294.75,-392.24 288.38,-382.82 282.27,-373.79"/>
<polygon fill="black" stroke="black" points="285.03,-371.62 276.53,-365.3 279.23,-375.54 285.03,-371.62"/>
<text text-anchor="middle" x="271.79" y="-386.15" font-family="Times,serif" font-size="14.00">True</text>
</g>
<!-- 10 -->
<g id="node11" class="node">
<title>10</title>
<polygon fill="#e58139" stroke="black" points="448.5,-357.5 335.5,-357.5 335.5,-304.5 448.5,-304.5 448.5,-357.5"/>
<text text-anchor="middle" x="392" y="-342.3" font-family="Times,serif" font-size="14.00">gini = 0.0</text>
<text text-anchor="middle" x="392" y="-327.3" font-family="Times,serif" font-size="14.00">samples = 26</text>
<text text-anchor="middle" x="392" y="-312.3" font-family="Times,serif" font-size="14.00">value = [26, 0, 0]</text>
</g>
<!-- 0&#45;&gt;10 -->
<g id="edge10" class="edge">
<title>0&#45;&gt;10</title>
<path fill="none" stroke="black" d="M345.4,-400.88C352.99,-389.67 361.47,-377.13 369.1,-365.85"/>
<polygon fill="black" stroke="black" points="372.03,-367.76 374.74,-357.52 366.23,-363.84 372.03,-367.76"/>
<text text-anchor="middle" x="379.47" y="-378.37" font-family="Times,serif" font-size="14.00">False</text>
</g>
<!-- 2 -->
<g id="node3" class="node">
<title>2</title>
<polygon fill="#965ae9" stroke="black" points="249,-261 97,-261 97,-193 249,-193 249,-261"/>
<text text-anchor="middle" x="173" y="-245.8" font-family="Times,serif" font-size="14.00">color_intensity &lt;= 3.625</text>
<text text-anchor="middle" x="173" y="-230.8" font-family="Times,serif" font-size="14.00">gini = 0.245</text>
<text text-anchor="middle" x="173" y="-215.8" font-family="Times,serif" font-size="14.00">samples = 28</text>
<text text-anchor="middle" x="173" y="-200.8" font-family="Times,serif" font-size="14.00">value = [0, 4, 24]</text>
</g>
<!-- 1&#45;&gt;2 -->
<g id="edge2" class="edge">
<title>1&#45;&gt;2</title>
<path fill="none" stroke="black" d="M227.7,-296.88C220.7,-288.07 213.05,-278.43 205.75,-269.24"/>
<polygon fill="black" stroke="black" points="208.4,-266.95 199.44,-261.3 202.92,-271.31 208.4,-266.95"/>
</g>
<!-- 5 -->
<g id="node6" class="node">
<title>5</title>
<polygon fill="#53e891" stroke="black" points="402.5,-261 267.5,-261 267.5,-193 402.5,-193 402.5,-261"/>
<text text-anchor="middle" x="335" y="-245.8" font-family="Times,serif" font-size="14.00">magnesium &lt;= 102.0</text>
<text text-anchor="middle" x="335" y="-230.8" font-family="Times,serif" font-size="14.00">gini = 0.202</text>
<text text-anchor="middle" x="335" y="-215.8" font-family="Times,serif" font-size="14.00">samples = 35</text>
<text text-anchor="middle" x="335" y="-200.8" font-family="Times,serif" font-size="14.00">value = [4, 31, 0]</text>
</g>
<!-- 1&#45;&gt;5 -->
<g id="edge5" class="edge">
<title>1&#45;&gt;5</title>
<path fill="none" stroke="black" d="M280.3,-296.88C287.3,-288.07 294.95,-278.43 302.25,-269.24"/>
<polygon fill="black" stroke="black" points="305.08,-271.31 308.56,-261.3 299.6,-266.95 305.08,-271.31"/>
</g>
<!-- 3 -->
<g id="node4" class="node">
<title>3</title>
<polygon fill="#39e581" stroke="black" points="106,-149.5 0,-149.5 0,-96.5 106,-96.5 106,-149.5"/>
<text text-anchor="middle" x="53" y="-134.3" font-family="Times,serif" font-size="14.00">gini = 0.0</text>
<text text-anchor="middle" x="53" y="-119.3" font-family="Times,serif" font-size="14.00">samples = 4</text>
<text text-anchor="middle" x="53" y="-104.3" font-family="Times,serif" font-size="14.00">value = [0, 4, 0]</text>
</g>
<!-- 2&#45;&gt;3 -->
<g id="edge3" class="edge">
<title>2&#45;&gt;3</title>
<path fill="none" stroke="black" d="M134.04,-192.88C120.2,-181.12 104.64,-167.89 90.89,-156.2"/>
<polygon fill="black" stroke="black" points="92.91,-153.33 83.02,-149.52 88.38,-158.66 92.91,-153.33"/>
</g>
<!-- 4 -->
<g id="node5" class="node">
<title>4</title>
<polygon fill="#8139e5" stroke="black" points="237.5,-149.5 124.5,-149.5 124.5,-96.5 237.5,-96.5 237.5,-149.5"/>
<text text-anchor="middle" x="181" y="-134.3" font-family="Times,serif" font-size="14.00">gini = 0.0</text>
<text text-anchor="middle" x="181" y="-119.3" font-family="Times,serif" font-size="14.00">samples = 24</text>
<text text-anchor="middle" x="181" y="-104.3" font-family="Times,serif" font-size="14.00">value = [0, 0, 24]</text>
</g>
<!-- 2&#45;&gt;4 -->
<g id="edge4" class="edge">
<title>2&#45;&gt;4</title>
<path fill="none" stroke="black" d="M175.6,-192.88C176.43,-182.22 177.36,-170.35 178.21,-159.52"/>
<polygon fill="black" stroke="black" points="181.71,-159.76 179,-149.52 174.73,-159.22 181.71,-159.76"/>
</g>
<!-- 6 -->
<g id="node7" class="node">
<title>6</title>
<polygon fill="#39e581" stroke="black" points="383.5,-149.5 270.5,-149.5 270.5,-96.5 383.5,-96.5 383.5,-149.5"/>
<text text-anchor="middle" x="327" y="-134.3" font-family="Times,serif" font-size="14.00">gini = 0.0</text>
<text text-anchor="middle" x="327" y="-119.3" font-family="Times,serif" font-size="14.00">samples = 29</text>
<text text-anchor="middle" x="327" y="-104.3" font-family="Times,serif" font-size="14.00">value = [0, 29, 0]</text>
</g>
<!-- 5&#45;&gt;6 -->
<g id="edge6" class="edge">
<title>5&#45;&gt;6</title>
<path fill="none" stroke="black" d="M332.4,-192.88C331.57,-182.22 330.64,-170.35 329.79,-159.52"/>
<polygon fill="black" stroke="black" points="333.27,-159.22 329,-149.52 326.29,-159.76 333.27,-159.22"/>
</g>
<!-- 7 -->
<g id="node8" class="node">
<title>7</title>
<polygon fill="#f2c09c" stroke="black" points="546,-157 402,-157 402,-89 546,-89 546,-157"/>
<text text-anchor="middle" x="474" y="-141.8" font-family="Times,serif" font-size="14.00">total_phenols &lt;= 2.265</text>
<text text-anchor="middle" x="474" y="-126.8" font-family="Times,serif" font-size="14.00">gini = 0.444</text>
<text text-anchor="middle" x="474" y="-111.8" font-family="Times,serif" font-size="14.00">samples = 6</text>
<text text-anchor="middle" x="474" y="-96.8" font-family="Times,serif" font-size="14.00">value = [4, 2, 0]</text>
</g>
<!-- 5&#45;&gt;7 -->
<g id="edge7" class="edge">
<title>5&#45;&gt;7</title>
<path fill="none" stroke="black" d="M380.13,-192.88C393,-183.44 407.14,-173.06 420.46,-163.29"/>
<polygon fill="black" stroke="black" points="422.63,-166.04 428.62,-157.3 418.49,-160.39 422.63,-166.04"/>
</g>
<!-- 8 -->
<g id="node9" class="node">
<title>8</title>
<polygon fill="#39e581" stroke="black" points="465,-53 359,-53 359,0 465,0 465,-53"/>
<text text-anchor="middle" x="412" y="-37.8" font-family="Times,serif" font-size="14.00">gini = 0.0</text>
<text text-anchor="middle" x="412" y="-22.8" font-family="Times,serif" font-size="14.00">samples = 2</text>
<text text-anchor="middle" x="412" y="-7.8" font-family="Times,serif" font-size="14.00">value = [0, 2, 0]</text>
</g>
<!-- 7&#45;&gt;8 -->
<g id="edge8" class="edge">
<title>7&#45;&gt;8</title>
<path fill="none" stroke="black" d="M452.32,-88.95C446.55,-80.17 440.32,-70.66 434.51,-61.82"/>
<polygon fill="black" stroke="black" points="437.3,-59.68 428.89,-53.24 431.44,-63.52 437.3,-59.68"/>
</g>
<!-- 9 -->
<g id="node10" class="node">
<title>9</title>
<polygon fill="#e58139" stroke="black" points="589,-53 483,-53 483,0 589,0 589,-53"/>
<text text-anchor="middle" x="536" y="-37.8" font-family="Times,serif" font-size="14.00">gini = 0.0</text>
<text text-anchor="middle" x="536" y="-22.8" font-family="Times,serif" font-size="14.00">samples = 4</text>
<text text-anchor="middle" x="536" y="-7.8" font-family="Times,serif" font-size="14.00">value = [4, 0, 0]</text>
</g>
<!-- 7&#45;&gt;9 -->
<g id="edge9" class="edge">
<title>7&#45;&gt;9</title>
<path fill="none" stroke="black" d="M495.68,-88.95C501.45,-80.17 507.68,-70.66 513.49,-61.82"/>
<polygon fill="black" stroke="black" points="516.56,-63.52 519.11,-53.24 510.7,-59.68 516.56,-63.52"/>
</g>
</g>
</svg>
