<?xml version="1.0" encoding="UTF-8" standalone="no"?>
<!DOCTYPE svg PUBLIC "-//W3C//DTD SVG 1.1//EN"
 "http://www.w3.org/Graphics/SVG/1.1/DTD/svg11.dtd">
<!-- Generated by graphviz version 2.46.1 (20210213.1702)
 -->
<!-- Title: Tree Pages: 1 -->
<svg width="604pt" height="373pt"
 viewBox="0.00 0.00 604.00 373.00" xmlns="http://www.w3.org/2000/svg" xmlns:xlink="http://www.w3.org/1999/xlink">
<g id="graph0" class="graph" transform="scale(1 1) rotate(0) translate(4 369)">
<title>Tree</title>
<polygon fill="white" stroke="transparent" points="-4,4 -4,-369 600,-369 600,4 -4,4"/>
<!-- 0 -->
<g id="node1" class="node">
<title>0</title>
<polygon fill="#eefdf4" stroke="black" points="339.5,-365 187.5,-365 187.5,-297 339.5,-297 339.5,-365"/>
<text text-anchor="middle" x="263.5" y="-349.8" font-family="Times,serif" font-size="14.00">color_intensity &lt;= 3.915</text>
<text text-anchor="middle" x="263.5" y="-334.8" font-family="Times,serif" font-size="14.00">gini = 0.659</text>
<text text-anchor="middle" x="263.5" y="-319.8" font-family="Times,serif" font-size="14.00">samples = 89</text>
<text text-anchor="middle" x="263.5" y="-304.8" font-family="Times,serif" font-size="14.00">value = [30, 35, 24]</text>
</g>
<!-- 1 -->
<g id="node2" class="node">
<title>1</title>
<polygon fill="#3fe685" stroke="black" points="224,-261 111,-261 111,-193 224,-193 224,-261"/>
<text text-anchor="middle" x="167.5" y="-245.8" font-family="Times,serif" font-size="14.00">proline &lt;= 960.5</text>
<text text-anchor="middle" x="167.5" y="-230.8" font-family="Times,serif" font-size="14.00">gini = 0.056</text>
<text text-anchor="middle" x="167.5" y="-215.8" font-family="Times,serif" font-size="14.00">samples = 35</text>
<text text-anchor="middle" x="167.5" y="-200.8" font-family="Times,serif" font-size="14.00">value = [1, 34, 0]</text>
</g>
<!-- 0&#45;&gt;1 -->
<g id="edge1" class="edge">
<title>0&#45;&gt;1</title>
<path fill="none" stroke="black" d="M232.33,-296.88C223.86,-287.89 214.6,-278.04 205.79,-268.68"/>
<polygon fill="black" stroke="black" points="208.24,-266.18 198.84,-261.3 203.15,-270.98 208.24,-266.18"/>
<text text-anchor="middle" x="198.08" y="-282.59" font-family="Times,serif" font-size="14.00">True</text>
</g>
<!-- 4 -->
<g id="node5" class="node">
<title>4</title>
<polygon fill="#fbeade" stroke="black" points="478.5,-261 242.5,-261 242.5,-193 478.5,-193 478.5,-261"/>
<text text-anchor="middle" x="360.5" y="-245.8" font-family="Times,serif" font-size="14.00">od280/od315_of_diluted_wines &lt;= 2.31</text>
<text text-anchor="middle" x="360.5" y="-230.8" font-family="Times,serif" font-size="14.00">gini = 0.514</text>
<text text-anchor="middle" x="360.5" y="-215.8" font-family="Times,serif" font-size="14.00">samples = 54</text>
<text text-anchor="middle" x="360.5" y="-200.8" font-family="Times,serif" font-size="14.00">value = [29, 1, 24]</text>
</g>
<!-- 0&#45;&gt;4 -->
<g id="edge4" class="edge">
<title>0&#45;&gt;4</title>
<path fill="none" stroke="black" d="M294.99,-296.88C303.55,-287.89 312.91,-278.04 321.82,-268.68"/>
<polygon fill="black" stroke="black" points="324.48,-270.96 328.83,-261.3 319.41,-266.13 324.48,-270.96"/>
<text text-anchor="middle" x="329.46" y="-282.59" font-family="Times,serif" font-size="14.00">False</text>
</g>
<!-- 2 -->
<g id="node3" class="node">
<title>2</title>
<polygon fill="#39e581" stroke="black" points="113,-149.5 0,-149.5 0,-96.5 113,-96.5 113,-149.5"/>
<text text-anchor="middle" x="56.5" y="-134.3" font-family="Times,serif" font-size="14.00">gini = 0.0</text>
<text text-anchor="middle" x="56.5" y="-119.3" font-family="Times,serif" font-size="14.00">samples = 34</text>
<text text-anchor="middle" x="56.5" y="-104.3" font-family="Times,serif" font-size="14.00">value = [0, 34, 0]</text>
</g>
<!-- 1&#45;&gt;2 -->
<g id="edge2" class="edge">
<title>1&#45;&gt;2</title>
<path fill="none" stroke="black" d="M131.46,-192.88C118.78,-181.23 104.54,-168.14 91.9,-156.53"/>
<polygon fill="black" stroke="black" points="94,-153.71 84.27,-149.52 89.27,-158.86 94,-153.71"/>
</g>
<!-- 3 -->
<g id="node4" class="node">
<title>3</title>
<polygon fill="#e58139" stroke="black" points="237.5,-149.5 131.5,-149.5 131.5,-96.5 237.5,-96.5 237.5,-149.5"/>
<text text-anchor="middle" x="184.5" y="-134.3" font-family="Times,serif" font-size="14.00">gini = 0.0</text>
<text text-anchor="middle" x="184.5" y="-119.3" font-family="Times,serif" font-size="14.00">samples = 1</text>
<text text-anchor="middle" x="184.5" y="-104.3" font-family="Times,serif" font-size="14.00">value = [1, 0, 0]</text>
</g>
<!-- 1&#45;&gt;3 -->
<g id="edge3" class="edge">
<title>1&#45;&gt;3</title>
<path fill="none" stroke="black" d="M173.02,-192.88C174.8,-182.22 176.77,-170.35 178.58,-159.52"/>
<polygon fill="black" stroke="black" points="182.05,-159.96 180.25,-149.52 175.15,-158.81 182.05,-159.96"/>
</g>
<!-- 5 -->
<g id="node6" class="node">
<title>5</title>
<polygon fill="#8139e5" stroke="black" points="401,-149.5 288,-149.5 288,-96.5 401,-96.5 401,-149.5"/>
<text text-anchor="middle" x="344.5" y="-134.3" font-family="Times,serif" font-size="14.00">gini = 0.0</text>
<text text-anchor="middle" x="344.5" y="-119.3" font-family="Times,serif" font-size="14.00">samples = 24</text>
<text text-anchor="middle" x="344.5" y="-104.3" font-family="Times,serif" font-size="14.00">value = [0, 0, 24]</text>
</g>
<!-- 4&#45;&gt;5 -->
<g id="edge5" class="edge">
<title>4&#45;&gt;5</title>
<path fill="none" stroke="black" d="M355.31,-192.88C353.63,-182.22 351.77,-170.35 350.07,-159.52"/>
<polygon fill="black" stroke="black" points="353.51,-158.86 348.5,-149.52 346.6,-159.94 353.51,-158.86"/>
</g>
<!-- 6 -->
<g id="node7" class="node">
<title>6</title>
<polygon fill="#e68540" stroke="black" points="532,-157 419,-157 419,-89 532,-89 532,-157"/>
<text text-anchor="middle" x="475.5" y="-141.8" font-family="Times,serif" font-size="14.00">proline &lt;= 591.0</text>
<text text-anchor="middle" x="475.5" y="-126.8" font-family="Times,serif" font-size="14.00">gini = 0.064</text>
<text text-anchor="middle" x="475.5" y="-111.8" font-family="Times,serif" font-size="14.00">samples = 30</text>
<text text-anchor="middle" x="475.5" y="-96.8" font-family="Times,serif" font-size="14.00">value = [29, 1, 0]</text>
</g>
<!-- 4&#45;&gt;6 -->
<g id="edge6" class="edge">
<title>4&#45;&gt;6</title>
<path fill="none" stroke="black" d="M397.84,-192.88C408.18,-183.71 419.52,-173.65 430.26,-164.12"/>
<polygon fill="black" stroke="black" points="432.8,-166.55 437.96,-157.3 428.15,-161.32 432.8,-166.55"/>
</g>
<!-- 7 -->
<g id="node8" class="node">
<title>7</title>
<polygon fill="#39e581" stroke="black" points="464.5,-53 358.5,-53 358.5,0 464.5,0 464.5,-53"/>
<text text-anchor="middle" x="411.5" y="-37.8" font-family="Times,serif" font-size="14.00">gini = 0.0</text>
<text text-anchor="middle" x="411.5" y="-22.8" font-family="Times,serif" font-size="14.00">samples = 1</text>
<text text-anchor="middle" x="411.5" y="-7.8" font-family="Times,serif" font-size="14.00">value = [0, 1, 0]</text>
</g>
<!-- 6&#45;&gt;7 -->
<g id="edge7" class="edge">
<title>6&#45;&gt;7</title>
<path fill="none" stroke="black" d="M453.12,-88.95C447.11,-80.07 440.6,-70.46 434.55,-61.54"/>
<polygon fill="black" stroke="black" points="437.44,-59.55 428.93,-53.24 431.64,-63.48 437.44,-59.55"/>
</g>
<!-- 8 -->
<g id="node9" class="node">
<title>8</title>
<polygon fill="#e58139" stroke="black" points="596,-53 483,-53 483,0 596,0 596,-53"/>
<text text-anchor="middle" x="539.5" y="-37.8" font-family="Times,serif" font-size="14.00">gini = 0.0</text>
<text text-anchor="middle" x="539.5" y="-22.8" font-family="Times,serif" font-size="14.00">samples = 29</text>
<text text-anchor="middle" x="539.5" y="-7.8" font-family="Times,serif" font-size="14.00">value = [29, 0, 0]</text>
</g>
<!-- 6&#45;&gt;8 -->
<g id="edge8" class="edge">
<title>6&#45;&gt;8</title>
<path fill="none" stroke="black" d="M497.88,-88.95C503.89,-80.07 510.4,-70.46 516.45,-61.54"/>
<polygon fill="black" stroke="black" points="519.36,-63.48 522.07,-53.24 513.56,-59.55 519.36,-63.48"/>
</g>
</g>
</svg>
