<?xml version="1.0" encoding="UTF-8" standalone="no"?>
<!DOCTYPE svg PUBLIC "-//W3C//DTD SVG 1.1//EN"
 "http://www.w3.org/Graphics/SVG/1.1/DTD/svg11.dtd">
<!-- Generated by graphviz version 2.46.1 (20210213.1702)
 -->
<!-- Title: Tree Pages: 1 -->
<svg width="659pt" height="373pt"
 viewBox="0.00 0.00 659.00 373.00" xmlns="http://www.w3.org/2000/svg" xmlns:xlink="http://www.w3.org/1999/xlink">
<g id="graph0" class="graph" transform="scale(1 1) rotate(0) translate(4 369)">
<title>Tree</title>
<polygon fill="white" stroke="transparent" points="-4,4 -4,-369 655,-369 655,4 -4,4"/>
<!-- 0 -->
<g id="node1" class="node">
<title>0</title>
<polygon fill="#eefdf4" stroke="black" points="438,-365 195,-365 195,-297 438,-297 438,-365"/>
<text text-anchor="middle" x="316.5" y="-349.8" font-family="Times,serif" font-size="14.00">od280/od315_of_diluted_wines &lt;= 2.185</text>
<text text-anchor="middle" x="316.5" y="-334.8" font-family="Times,serif" font-size="14.00">gini = 0.659</text>
<text text-anchor="middle" x="316.5" y="-319.8" font-family="Times,serif" font-size="14.00">samples = 89</text>
<text text-anchor="middle" x="316.5" y="-304.8" font-family="Times,serif" font-size="14.00">value = [30, 35, 24]</text>
</g>
<!-- 1 -->
<g id="node2" class="node">
<title>1</title>
<polygon fill="#9152e8" stroke="black" points="306,-261 193,-261 193,-193 306,-193 306,-261"/>
<text text-anchor="middle" x="249.5" y="-245.8" font-family="Times,serif" font-size="14.00">hue &lt;= 0.99</text>
<text text-anchor="middle" x="249.5" y="-230.8" font-family="Times,serif" font-size="14.00">gini = 0.198</text>
<text text-anchor="middle" x="249.5" y="-215.8" font-family="Times,serif" font-size="14.00">samples = 27</text>
<text text-anchor="middle" x="249.5" y="-200.8" font-family="Times,serif" font-size="14.00">value = [0, 3, 24]</text>
</g>
<!-- 0&#45;&gt;1 -->
<g id="edge1" class="edge">
<title>0&#45;&gt;1</title>
<path fill="none" stroke="black" d="M294.75,-296.88C289.07,-288.24 282.88,-278.82 276.95,-269.79"/>
<polygon fill="black" stroke="black" points="279.79,-267.74 271.37,-261.3 273.94,-271.58 279.79,-267.74"/>
<text text-anchor="middle" x="266.3" y="-282.08" font-family="Times,serif" font-size="14.00">True</text>
</g>
<!-- 6 -->
<g id="node7" class="node">
<title>6</title>
<polygon fill="#f3fdf7" stroke="black" points="443,-261 324,-261 324,-193 443,-193 443,-261"/>
<text text-anchor="middle" x="383.5" y="-245.8" font-family="Times,serif" font-size="14.00">proline &lt;= 726.5</text>
<text text-anchor="middle" x="383.5" y="-230.8" font-family="Times,serif" font-size="14.00">gini = 0.499</text>
<text text-anchor="middle" x="383.5" y="-215.8" font-family="Times,serif" font-size="14.00">samples = 62</text>
<text text-anchor="middle" x="383.5" y="-200.8" font-family="Times,serif" font-size="14.00">value = [30, 32, 0]</text>
</g>
<!-- 0&#45;&gt;6 -->
<g id="edge6" class="edge">
<title>0&#45;&gt;6</title>
<path fill="none" stroke="black" d="M338.25,-296.88C343.93,-288.24 350.12,-278.82 356.05,-269.79"/>
<polygon fill="black" stroke="black" points="359.06,-271.58 361.63,-261.3 353.21,-267.74 359.06,-271.58"/>
<text text-anchor="middle" x="366.7" y="-282.08" font-family="Times,serif" font-size="14.00">False</text>
</g>
<!-- 2 -->
<g id="node3" class="node">
<title>2</title>
<polygon fill="#8641e6" stroke="black" points="180.5,-157 60.5,-157 60.5,-89 180.5,-89 180.5,-157"/>
<text text-anchor="middle" x="120.5" y="-141.8" font-family="Times,serif" font-size="14.00">flavanoids &lt;= 1.49</text>
<text text-anchor="middle" x="120.5" y="-126.8" font-family="Times,serif" font-size="14.00">gini = 0.077</text>
<text text-anchor="middle" x="120.5" y="-111.8" font-family="Times,serif" font-size="14.00">samples = 25</text>
<text text-anchor="middle" x="120.5" y="-96.8" font-family="Times,serif" font-size="14.00">value = [0, 1, 24]</text>
</g>
<!-- 1&#45;&gt;2 -->
<g id="edge2" class="edge">
<title>1&#45;&gt;2</title>
<path fill="none" stroke="black" d="M207.62,-192.88C195.79,-183.53 182.8,-173.26 170.54,-163.57"/>
<polygon fill="black" stroke="black" points="172.63,-160.76 162.61,-157.3 168.29,-166.25 172.63,-160.76"/>
</g>
<!-- 5 -->
<g id="node6" class="node">
<title>5</title>
<polygon fill="#39e581" stroke="black" points="304.5,-149.5 198.5,-149.5 198.5,-96.5 304.5,-96.5 304.5,-149.5"/>
<text text-anchor="middle" x="251.5" y="-134.3" font-family="Times,serif" font-size="14.00">gini = 0.0</text>
<text text-anchor="middle" x="251.5" y="-119.3" font-family="Times,serif" font-size="14.00">samples = 2</text>
<text text-anchor="middle" x="251.5" y="-104.3" font-family="Times,serif" font-size="14.00">value = [0, 2, 0]</text>
</g>
<!-- 1&#45;&gt;5 -->
<g id="edge5" class="edge">
<title>1&#45;&gt;5</title>
<path fill="none" stroke="black" d="M250.15,-192.88C250.36,-182.22 250.59,-170.35 250.8,-159.52"/>
<polygon fill="black" stroke="black" points="254.3,-159.59 251,-149.52 247.3,-159.45 254.3,-159.59"/>
</g>
<!-- 3 -->
<g id="node4" class="node">
<title>3</title>
<polygon fill="#8139e5" stroke="black" points="113,-53 0,-53 0,0 113,0 113,-53"/>
<text text-anchor="middle" x="56.5" y="-37.8" font-family="Times,serif" font-size="14.00">gini = 0.0</text>
<text text-anchor="middle" x="56.5" y="-22.8" font-family="Times,serif" font-size="14.00">samples = 24</text>
<text text-anchor="middle" x="56.5" y="-7.8" font-family="Times,serif" font-size="14.00">value = [0, 0, 24]</text>
</g>
<!-- 2&#45;&gt;3 -->
<g id="edge3" class="edge">
<title>2&#45;&gt;3</title>
<path fill="none" stroke="black" d="M98.12,-88.95C92.11,-80.07 85.6,-70.46 79.55,-61.54"/>
<polygon fill="black" stroke="black" points="82.44,-59.55 73.93,-53.24 76.64,-63.48 82.44,-59.55"/>
</g>
<!-- 4 -->
<g id="node5" class="node">
<title>4</title>
<polygon fill="#39e581" stroke="black" points="237.5,-53 131.5,-53 131.5,0 237.5,0 237.5,-53"/>
<text text-anchor="middle" x="184.5" y="-37.8" font-family="Times,serif" font-size="14.00">gini = 0.0</text>
<text text-anchor="middle" x="184.5" y="-22.8" font-family="Times,serif" font-size="14.00">samples = 1</text>
<text text-anchor="middle" x="184.5" y="-7.8" font-family="Times,serif" font-size="14.00">value = [0, 1, 0]</text>
</g>
<!-- 2&#45;&gt;4 -->
<g id="edge4" class="edge">
<title>2&#45;&gt;4</title>
<path fill="none" stroke="black" d="M142.88,-88.95C148.89,-80.07 155.4,-70.46 161.45,-61.54"/>
<polygon fill="black" stroke="black" points="164.36,-63.48 167.07,-53.24 158.56,-59.55 164.36,-63.48"/>
</g>
<!-- 7 -->
<g id="node8" class="node">
<title>7</title>
<polygon fill="#39e581" stroke="black" points="439,-149.5 326,-149.5 326,-96.5 439,-96.5 439,-149.5"/>
<text text-anchor="middle" x="382.5" y="-134.3" font-family="Times,serif" font-size="14.00">gini = 0.0</text>
<text text-anchor="middle" x="382.5" y="-119.3" font-family="Times,serif" font-size="14.00">samples = 29</text>
<text text-anchor="middle" x="382.5" y="-104.3" font-family="Times,serif" font-size="14.00">value = [0, 29, 0]</text>
</g>
<!-- 6&#45;&gt;7 -->
<g id="edge7" class="edge">
<title>6&#45;&gt;7</title>
<path fill="none" stroke="black" d="M383.18,-192.88C383.07,-182.33 382.96,-170.6 382.85,-159.85"/>
<polygon fill="black" stroke="black" points="386.35,-159.49 382.75,-149.52 379.35,-159.55 386.35,-159.49"/>
</g>
<!-- 8 -->
<g id="node9" class="node">
<title>8</title>
<polygon fill="#e88e4d" stroke="black" points="603.5,-157 457.5,-157 457.5,-89 603.5,-89 603.5,-157"/>
<text text-anchor="middle" x="530.5" y="-141.8" font-family="Times,serif" font-size="14.00">color_intensity &lt;= 3.46</text>
<text text-anchor="middle" x="530.5" y="-126.8" font-family="Times,serif" font-size="14.00">gini = 0.165</text>
<text text-anchor="middle" x="530.5" y="-111.8" font-family="Times,serif" font-size="14.00">samples = 33</text>
<text text-anchor="middle" x="530.5" y="-96.8" font-family="Times,serif" font-size="14.00">value = [30, 3, 0]</text>
</g>
<!-- 6&#45;&gt;8 -->
<g id="edge8" class="edge">
<title>6&#45;&gt;8</title>
<path fill="none" stroke="black" d="M431.23,-192.88C445.03,-183.3 460.23,-172.76 474.49,-162.86"/>
<polygon fill="black" stroke="black" points="476.54,-165.7 482.76,-157.12 472.55,-159.95 476.54,-165.7"/>
</g>
<!-- 9 -->
<g id="node10" class="node">
<title>9</title>
<polygon fill="#39e581" stroke="black" points="519.5,-53 413.5,-53 413.5,0 519.5,0 519.5,-53"/>
<text text-anchor="middle" x="466.5" y="-37.8" font-family="Times,serif" font-size="14.00">gini = 0.0</text>
<text text-anchor="middle" x="466.5" y="-22.8" font-family="Times,serif" font-size="14.00">samples = 3</text>
<text text-anchor="middle" x="466.5" y="-7.8" font-family="Times,serif" font-size="14.00">value = [0, 3, 0]</text>
</g>
<!-- 8&#45;&gt;9 -->
<g id="edge9" class="edge">
<title>8&#45;&gt;9</title>
<path fill="none" stroke="black" d="M508.12,-88.95C502.11,-80.07 495.6,-70.46 489.55,-61.54"/>
<polygon fill="black" stroke="black" points="492.44,-59.55 483.93,-53.24 486.64,-63.48 492.44,-59.55"/>
</g>
<!-- 10 -->
<g id="node11" class="node">
<title>10</title>
<polygon fill="#e58139" stroke="black" points="651,-53 538,-53 538,0 651,0 651,-53"/>
<text text-anchor="middle" x="594.5" y="-37.8" font-family="Times,serif" font-size="14.00">gini = 0.0</text>
<text text-anchor="middle" x="594.5" y="-22.8" font-family="Times,serif" font-size="14.00">samples = 30</text>
<text text-anchor="middle" x="594.5" y="-7.8" font-family="Times,serif" font-size="14.00">value = [30, 0, 0]</text>
</g>
<!-- 8&#45;&gt;10 -->
<g id="edge10" class="edge">
<title>8&#45;&gt;10</title>
<path fill="none" stroke="black" d="M552.88,-88.95C558.89,-80.07 565.4,-70.46 571.45,-61.54"/>
<polygon fill="black" stroke="black" points="574.36,-63.48 577.07,-53.24 568.56,-59.55 574.36,-63.48"/>
</g>
</g>
</svg>
