<?xml version="1.0" encoding="UTF-8" standalone="no"?>
<!DOCTYPE svg PUBLIC "-//W3C//DTD SVG 1.1//EN"
 "http://www.w3.org/Graphics/SVG/1.1/DTD/svg11.dtd">
<!-- Generated by graphviz version 2.46.1 (20210213.1702)
 -->
<!-- Title: Tree Pages: 1 -->
<svg width="651pt" height="477pt"
 viewBox="0.00 0.00 651.00 477.00" xmlns="http://www.w3.org/2000/svg" xmlns:xlink="http://www.w3.org/1999/xlink">
<g id="graph0" class="graph" transform="scale(1 1) rotate(0) translate(4 473)">
<title>Tree</title>
<polygon fill="white" stroke="transparent" points="-4,4 -4,-473 647,-473 647,4 -4,4"/>
<!-- 0 -->
<g id="node1" class="node">
<title>0</title>
<polygon fill="#e8fcf0" stroke="black" points="454,-469 328,-469 328,-401 454,-401 454,-469"/>
<text text-anchor="middle" x="391" y="-453.8" font-family="Times,serif" font-size="14.00">proline &lt;= 877.5</text>
<text text-anchor="middle" x="391" y="-438.8" font-family="Times,serif" font-size="14.00">gini = 0.657</text>
<text text-anchor="middle" x="391" y="-423.8" font-family="Times,serif" font-size="14.00">samples = 89</text>
<text text-anchor="middle" x="391" y="-408.8" font-family="Times,serif" font-size="14.00">value = [29, 36, 24]</text>
</g>
<!-- 1 -->
<g id="node2" class="node">
<title>1</title>
<polygon fill="#c7f8db" stroke="black" points="385.5,-365 258.5,-365 258.5,-297 385.5,-297 385.5,-365"/>
<text text-anchor="middle" x="322" y="-349.8" font-family="Times,serif" font-size="14.00">flavanoids &lt;= 1.235</text>
<text text-anchor="middle" x="322" y="-334.8" font-family="Times,serif" font-size="14.00">gini = 0.542</text>
<text text-anchor="middle" x="322" y="-319.8" font-family="Times,serif" font-size="14.00">samples = 63</text>
<text text-anchor="middle" x="322" y="-304.8" font-family="Times,serif" font-size="14.00">value = [4, 35, 24]</text>
</g>
<!-- 0&#45;&gt;1 -->
<g id="edge1" class="edge">
<title>0&#45;&gt;1</title>
<path fill="none" stroke="black" d="M368.6,-400.88C362.75,-392.24 356.38,-382.82 350.27,-373.79"/>
<polygon fill="black" stroke="black" points="353.03,-371.62 344.53,-365.3 347.23,-375.54 353.03,-371.62"/>
<text text-anchor="middle" x="339.79" y="-386.15" font-family="Times,serif" font-size="14.00">True</text>
</g>
<!-- 12 -->
<g id="node13" class="node">
<title>12</title>
<polygon fill="#e68641" stroke="black" points="516.5,-365 403.5,-365 403.5,-297 516.5,-297 516.5,-365"/>
<text text-anchor="middle" x="460" y="-349.8" font-family="Times,serif" font-size="14.00">hue &lt;= 1.295</text>
<text text-anchor="middle" x="460" y="-334.8" font-family="Times,serif" font-size="14.00">gini = 0.074</text>
<text text-anchor="middle" x="460" y="-319.8" font-family="Times,serif" font-size="14.00">samples = 26</text>
<text text-anchor="middle" x="460" y="-304.8" font-family="Times,serif" font-size="14.00">value = [25, 1, 0]</text>
</g>
<!-- 0&#45;&gt;12 -->
<g id="edge12" class="edge">
<title>0&#45;&gt;12</title>
<path fill="none" stroke="black" d="M413.4,-400.88C419.25,-392.24 425.62,-382.82 431.73,-373.79"/>
<polygon fill="black" stroke="black" points="434.77,-375.54 437.47,-365.3 428.97,-371.62 434.77,-375.54"/>
<text text-anchor="middle" x="442.21" y="-386.15" font-family="Times,serif" font-size="14.00">False</text>
</g>
<!-- 2 -->
<g id="node3" class="node">
<title>2</title>
<polygon fill="#8c4be7" stroke="black" points="249,-261 103,-261 103,-193 249,-193 249,-261"/>
<text text-anchor="middle" x="176" y="-245.8" font-family="Times,serif" font-size="14.00">color_intensity &lt;= 3.45</text>
<text text-anchor="middle" x="176" y="-230.8" font-family="Times,serif" font-size="14.00">gini = 0.153</text>
<text text-anchor="middle" x="176" y="-215.8" font-family="Times,serif" font-size="14.00">samples = 24</text>
<text text-anchor="middle" x="176" y="-200.8" font-family="Times,serif" font-size="14.00">value = [0, 2, 22]</text>
</g>
<!-- 1&#45;&gt;2 -->
<g id="edge2" class="edge">
<title>1&#45;&gt;2</title>
<path fill="none" stroke="black" d="M274.6,-296.88C261.08,-287.44 246.23,-277.06 232.24,-267.29"/>
<polygon fill="black" stroke="black" points="233.87,-264.16 223.66,-261.3 229.86,-269.9 233.87,-264.16"/>
</g>
<!-- 5 -->
<g id="node6" class="node">
<title>5</title>
<polygon fill="#5be997" stroke="black" points="380.5,-261 267.5,-261 267.5,-193 380.5,-193 380.5,-261"/>
<text text-anchor="middle" x="324" y="-245.8" font-family="Times,serif" font-size="14.00">proline &lt;= 726.5</text>
<text text-anchor="middle" x="324" y="-230.8" font-family="Times,serif" font-size="14.00">gini = 0.271</text>
<text text-anchor="middle" x="324" y="-215.8" font-family="Times,serif" font-size="14.00">samples = 39</text>
<text text-anchor="middle" x="324" y="-200.8" font-family="Times,serif" font-size="14.00">value = [4, 33, 2]</text>
</g>
<!-- 1&#45;&gt;5 -->
<g id="edge5" class="edge">
<title>1&#45;&gt;5</title>
<path fill="none" stroke="black" d="M322.65,-296.88C322.81,-288.78 322.98,-279.98 323.15,-271.47"/>
<polygon fill="black" stroke="black" points="326.65,-271.37 323.35,-261.3 319.65,-271.23 326.65,-271.37"/>
</g>
<!-- 3 -->
<g id="node4" class="node">
<title>3</title>
<polygon fill="#39e581" stroke="black" points="106,-149.5 0,-149.5 0,-96.5 106,-96.5 106,-149.5"/>
<text text-anchor="middle" x="53" y="-134.3" font-family="Times,serif" font-size="14.00">gini = 0.0</text>
<text text-anchor="middle" x="53" y="-119.3" font-family="Times,serif" font-size="14.00">samples = 2</text>
<text text-anchor="middle" x="53" y="-104.3" font-family="Times,serif" font-size="14.00">value = [0, 2, 0]</text>
</g>
<!-- 2&#45;&gt;3 -->
<g id="edge3" class="edge">
<title>2&#45;&gt;3</title>
<path fill="none" stroke="black" d="M136.07,-192.88C121.87,-181.12 105.93,-167.89 91.83,-156.2"/>
<polygon fill="black" stroke="black" points="93.71,-153.21 83.77,-149.52 89.24,-158.6 93.71,-153.21"/>
</g>
<!-- 4 -->
<g id="node5" class="node">
<title>4</title>
<polygon fill="#8139e5" stroke="black" points="237.5,-149.5 124.5,-149.5 124.5,-96.5 237.5,-96.5 237.5,-149.5"/>
<text text-anchor="middle" x="181" y="-134.3" font-family="Times,serif" font-size="14.00">gini = 0.0</text>
<text text-anchor="middle" x="181" y="-119.3" font-family="Times,serif" font-size="14.00">samples = 22</text>
<text text-anchor="middle" x="181" y="-104.3" font-family="Times,serif" font-size="14.00">value = [0, 0, 22]</text>
</g>
<!-- 2&#45;&gt;4 -->
<g id="edge4" class="edge">
<title>2&#45;&gt;4</title>
<path fill="none" stroke="black" d="M177.62,-192.88C178.15,-182.22 178.73,-170.35 179.26,-159.52"/>
<polygon fill="black" stroke="black" points="182.76,-159.68 179.75,-149.52 175.76,-159.34 182.76,-159.68"/>
</g>
<!-- 6 -->
<g id="node7" class="node">
<title>6</title>
<polygon fill="#45e789" stroke="black" points="376.5,-157 263.5,-157 263.5,-89 376.5,-89 376.5,-157"/>
<text text-anchor="middle" x="320" y="-141.8" font-family="Times,serif" font-size="14.00">hue &lt;= 0.65</text>
<text text-anchor="middle" x="320" y="-126.8" font-family="Times,serif" font-size="14.00">gini = 0.111</text>
<text text-anchor="middle" x="320" y="-111.8" font-family="Times,serif" font-size="14.00">samples = 34</text>
<text text-anchor="middle" x="320" y="-96.8" font-family="Times,serif" font-size="14.00">value = [0, 32, 2]</text>
</g>
<!-- 5&#45;&gt;6 -->
<g id="edge6" class="edge">
<title>5&#45;&gt;6</title>
<path fill="none" stroke="black" d="M322.7,-192.88C322.38,-184.78 322.04,-175.98 321.7,-167.47"/>
<polygon fill="black" stroke="black" points="325.2,-167.15 321.31,-157.3 318.2,-167.43 325.2,-167.15"/>
</g>
<!-- 9 -->
<g id="node10" class="node">
<title>9</title>
<polygon fill="#eca06a" stroke="black" points="549,-157 395,-157 395,-89 549,-89 549,-157"/>
<text text-anchor="middle" x="472" y="-141.8" font-family="Times,serif" font-size="14.00">proanthocyanins &lt;= 1.04</text>
<text text-anchor="middle" x="472" y="-126.8" font-family="Times,serif" font-size="14.00">gini = 0.32</text>
<text text-anchor="middle" x="472" y="-111.8" font-family="Times,serif" font-size="14.00">samples = 5</text>
<text text-anchor="middle" x="472" y="-96.8" font-family="Times,serif" font-size="14.00">value = [4, 1, 0]</text>
</g>
<!-- 5&#45;&gt;9 -->
<g id="edge9" class="edge">
<title>5&#45;&gt;9</title>
<path fill="none" stroke="black" d="M372.05,-192.88C385.95,-183.3 401.25,-172.76 415.61,-162.86"/>
<polygon fill="black" stroke="black" points="417.69,-165.68 423.94,-157.12 413.72,-159.92 417.69,-165.68"/>
</g>
<!-- 7 -->
<g id="node8" class="node">
<title>7</title>
<polygon fill="#8139e5" stroke="black" points="251,-53 145,-53 145,0 251,0 251,-53"/>
<text text-anchor="middle" x="198" y="-37.8" font-family="Times,serif" font-size="14.00">gini = 0.0</text>
<text text-anchor="middle" x="198" y="-22.8" font-family="Times,serif" font-size="14.00">samples = 2</text>
<text text-anchor="middle" x="198" y="-7.8" font-family="Times,serif" font-size="14.00">value = [0, 0, 2]</text>
</g>
<!-- 6&#45;&gt;7 -->
<g id="edge7" class="edge">
<title>6&#45;&gt;7</title>
<path fill="none" stroke="black" d="M277.33,-88.95C265.05,-79.43 251.67,-69.07 239.46,-59.62"/>
<polygon fill="black" stroke="black" points="241.28,-56.59 231.23,-53.24 236.99,-62.13 241.28,-56.59"/>
</g>
<!-- 8 -->
<g id="node9" class="node">
<title>8</title>
<polygon fill="#39e581" stroke="black" points="382.5,-53 269.5,-53 269.5,0 382.5,0 382.5,-53"/>
<text text-anchor="middle" x="326" y="-37.8" font-family="Times,serif" font-size="14.00">gini = 0.0</text>
<text text-anchor="middle" x="326" y="-22.8" font-family="Times,serif" font-size="14.00">samples = 32</text>
<text text-anchor="middle" x="326" y="-7.8" font-family="Times,serif" font-size="14.00">value = [0, 32, 0]</text>
</g>
<!-- 6&#45;&gt;8 -->
<g id="edge8" class="edge">
<title>6&#45;&gt;8</title>
<path fill="none" stroke="black" d="M322.1,-88.95C322.62,-80.72 323.18,-71.85 323.72,-63.48"/>
<polygon fill="black" stroke="black" points="327.23,-63.44 324.37,-53.24 320.24,-62.99 327.23,-63.44"/>
</g>
<!-- 10 -->
<g id="node11" class="node">
<title>10</title>
<polygon fill="#39e581" stroke="black" points="519,-53 413,-53 413,0 519,0 519,-53"/>
<text text-anchor="middle" x="466" y="-37.8" font-family="Times,serif" font-size="14.00">gini = 0.0</text>
<text text-anchor="middle" x="466" y="-22.8" font-family="Times,serif" font-size="14.00">samples = 1</text>
<text text-anchor="middle" x="466" y="-7.8" font-family="Times,serif" font-size="14.00">value = [0, 1, 0]</text>
</g>
<!-- 9&#45;&gt;10 -->
<g id="edge10" class="edge">
<title>9&#45;&gt;10</title>
<path fill="none" stroke="black" d="M469.9,-88.95C469.38,-80.72 468.82,-71.85 468.28,-63.48"/>
<polygon fill="black" stroke="black" points="471.76,-62.99 467.63,-53.24 464.77,-63.44 471.76,-62.99"/>
</g>
<!-- 11 -->
<g id="node12" class="node">
<title>11</title>
<polygon fill="#e58139" stroke="black" points="643,-53 537,-53 537,0 643,0 643,-53"/>
<text text-anchor="middle" x="590" y="-37.8" font-family="Times,serif" font-size="14.00">gini = 0.0</text>
<text text-anchor="middle" x="590" y="-22.8" font-family="Times,serif" font-size="14.00">samples = 4</text>
<text text-anchor="middle" x="590" y="-7.8" font-family="Times,serif" font-size="14.00">value = [4, 0, 0]</text>
</g>
<!-- 9&#45;&gt;11 -->
<g id="edge11" class="edge">
<title>9&#45;&gt;11</title>
<path fill="none" stroke="black" d="M513.27,-88.95C525.15,-79.43 538.09,-69.07 549.9,-59.62"/>
<polygon fill="black" stroke="black" points="552.25,-62.22 557.86,-53.24 547.87,-56.76 552.25,-62.22"/>
</g>
<!-- 13 -->
<g id="node14" class="node">
<title>13</title>
<polygon fill="#e58139" stroke="black" points="514.5,-253.5 401.5,-253.5 401.5,-200.5 514.5,-200.5 514.5,-253.5"/>
<text text-anchor="middle" x="458" y="-238.3" font-family="Times,serif" font-size="14.00">gini = 0.0</text>
<text text-anchor="middle" x="458" y="-223.3" font-family="Times,serif" font-size="14.00">samples = 25</text>
<text text-anchor="middle" x="458" y="-208.3" font-family="Times,serif" font-size="14.00">value = [25, 0, 0]</text>
</g>
<!-- 12&#45;&gt;13 -->
<g id="edge13" class="edge">
<title>12&#45;&gt;13</title>
<path fill="none" stroke="black" d="M459.35,-296.88C459.14,-286.22 458.91,-274.35 458.7,-263.52"/>
<polygon fill="black" stroke="black" points="462.2,-263.45 458.5,-253.52 455.2,-263.59 462.2,-263.45"/>
</g>
<!-- 14 -->
<g id="node15" class="node">
<title>14</title>
<polygon fill="#39e581" stroke="black" points="639,-253.5 533,-253.5 533,-200.5 639,-200.5 639,-253.5"/>
<text text-anchor="middle" x="586" y="-238.3" font-family="Times,serif" font-size="14.00">gini = 0.0</text>
<text text-anchor="middle" x="586" y="-223.3" font-family="Times,serif" font-size="14.00">samples = 1</text>
<text text-anchor="middle" x="586" y="-208.3" font-family="Times,serif" font-size="14.00">value = [0, 1, 0]</text>
</g>
<!-- 12&#45;&gt;14 -->
<g id="edge14" class="edge">
<title>12&#45;&gt;14</title>
<path fill="none" stroke="black" d="M500.91,-296.88C515.58,-285.01 532.08,-271.65 546.62,-259.88"/>
<polygon fill="black" stroke="black" points="548.91,-262.53 554.48,-253.52 544.5,-257.09 548.91,-262.53"/>
</g>
</g>
</svg>
