<?xml version="1.0" encoding="UTF-8" standalone="no"?>
<!DOCTYPE svg PUBLIC "-//W3C//DTD SVG 1.1//EN"
 "http://www.w3.org/Graphics/SVG/1.1/DTD/svg11.dtd">
<!-- Generated by graphviz version 2.46.1 (20210213.1702)
 -->
<!-- Title: Tree Pages: 1 -->
<svg width="539pt" height="581pt"
 viewBox="0.00 0.00 539.00 581.00" xmlns="http://www.w3.org/2000/svg" xmlns:xlink="http://www.w3.org/1999/xlink">
<g id="graph0" class="graph" transform="scale(1 1) rotate(0) translate(4 577)">
<title>Tree</title>
<polygon fill="white" stroke="transparent" points="-4,4 -4,-577 535,-577 535,4 -4,4"/>
<!-- 0 -->
<g id="node1" class="node">
<title>0</title>
<polygon fill="#e8fcf0" stroke="black" points="333.5,-573 207.5,-573 207.5,-505 333.5,-505 333.5,-573"/>
<text text-anchor="middle" x="270.5" y="-557.8" font-family="Times,serif" font-size="14.00">proline &lt;= 760.0</text>
<text text-anchor="middle" x="270.5" y="-542.8" font-family="Times,serif" font-size="14.00">gini = 0.657</text>
<text text-anchor="middle" x="270.5" y="-527.8" font-family="Times,serif" font-size="14.00">samples = 89</text>
<text text-anchor="middle" x="270.5" y="-512.8" font-family="Times,serif" font-size="14.00">value = [29, 36, 24]</text>
</g>
<!-- 1 -->
<g id="node2" class="node">
<title>1</title>
<polygon fill="#cbf8de" stroke="black" points="261.5,-469 109.5,-469 109.5,-401 261.5,-401 261.5,-469"/>
<text text-anchor="middle" x="185.5" y="-453.8" font-family="Times,serif" font-size="14.00">color_intensity &lt;= 3.825</text>
<text text-anchor="middle" x="185.5" y="-438.8" font-family="Times,serif" font-size="14.00">gini = 0.505</text>
<text text-anchor="middle" x="185.5" y="-423.8" font-family="Times,serif" font-size="14.00">samples = 58</text>
<text text-anchor="middle" x="185.5" y="-408.8" font-family="Times,serif" font-size="14.00">value = [1, 33, 24]</text>
</g>
<!-- 0&#45;&gt;1 -->
<g id="edge1" class="edge">
<title>0&#45;&gt;1</title>
<path fill="none" stroke="black" d="M242.9,-504.88C235.55,-496.07 227.53,-486.43 219.86,-477.24"/>
<polygon fill="black" stroke="black" points="222.34,-474.74 213.25,-469.3 216.96,-479.22 222.34,-474.74"/>
<text text-anchor="middle" x="210.99" y="-490.5" font-family="Times,serif" font-size="14.00">True</text>
</g>
<!-- 10 -->
<g id="node11" class="node">
<title>10</title>
<polygon fill="#e88e4e" stroke="black" points="431.5,-469 279.5,-469 279.5,-401 431.5,-401 431.5,-469"/>
<text text-anchor="middle" x="355.5" y="-453.8" font-family="Times,serif" font-size="14.00">color_intensity &lt;= 3.435</text>
<text text-anchor="middle" x="355.5" y="-438.8" font-family="Times,serif" font-size="14.00">gini = 0.175</text>
<text text-anchor="middle" x="355.5" y="-423.8" font-family="Times,serif" font-size="14.00">samples = 31</text>
<text text-anchor="middle" x="355.5" y="-408.8" font-family="Times,serif" font-size="14.00">value = [28, 3, 0]</text>
</g>
<!-- 0&#45;&gt;10 -->
<g id="edge10" class="edge">
<title>0&#45;&gt;10</title>
<path fill="none" stroke="black" d="M298.1,-504.88C305.45,-496.07 313.47,-486.43 321.14,-477.24"/>
<polygon fill="black" stroke="black" points="324.04,-479.22 327.75,-469.3 318.66,-474.74 324.04,-479.22"/>
<text text-anchor="middle" x="330.01" y="-490.5" font-family="Times,serif" font-size="14.00">False</text>
</g>
<!-- 2 -->
<g id="node3" class="node">
<title>2</title>
<polygon fill="#39e581" stroke="black" points="113,-357.5 0,-357.5 0,-304.5 113,-304.5 113,-357.5"/>
<text text-anchor="middle" x="56.5" y="-342.3" font-family="Times,serif" font-size="14.00">gini = 0.0</text>
<text text-anchor="middle" x="56.5" y="-327.3" font-family="Times,serif" font-size="14.00">samples = 28</text>
<text text-anchor="middle" x="56.5" y="-312.3" font-family="Times,serif" font-size="14.00">value = [0, 28, 0]</text>
</g>
<!-- 1&#45;&gt;2 -->
<g id="edge2" class="edge">
<title>1&#45;&gt;2</title>
<path fill="none" stroke="black" d="M143.62,-400.88C128.6,-389.01 111.7,-375.65 96.81,-363.88"/>
<polygon fill="black" stroke="black" points="98.79,-360.98 88.78,-357.52 94.45,-366.47 98.79,-360.98"/>
</g>
<!-- 3 -->
<g id="node4" class="node">
<title>3</title>
<polygon fill="#9f69eb" stroke="black" points="258,-365 131,-365 131,-297 258,-297 258,-365"/>
<text text-anchor="middle" x="194.5" y="-349.8" font-family="Times,serif" font-size="14.00">flavanoids &lt;= 1.385</text>
<text text-anchor="middle" x="194.5" y="-334.8" font-family="Times,serif" font-size="14.00">gini = 0.331</text>
<text text-anchor="middle" x="194.5" y="-319.8" font-family="Times,serif" font-size="14.00">samples = 30</text>
<text text-anchor="middle" x="194.5" y="-304.8" font-family="Times,serif" font-size="14.00">value = [1, 5, 24]</text>
</g>
<!-- 1&#45;&gt;3 -->
<g id="edge3" class="edge">
<title>1&#45;&gt;3</title>
<path fill="none" stroke="black" d="M188.42,-400.88C189.14,-392.78 189.91,-383.98 190.66,-375.47"/>
<polygon fill="black" stroke="black" points="194.17,-375.57 191.56,-365.3 187.2,-374.95 194.17,-375.57"/>
</g>
<!-- 4 -->
<g id="node5" class="node">
<title>4</title>
<polygon fill="#8139e5" stroke="black" points="187,-253.5 74,-253.5 74,-200.5 187,-200.5 187,-253.5"/>
<text text-anchor="middle" x="130.5" y="-238.3" font-family="Times,serif" font-size="14.00">gini = 0.0</text>
<text text-anchor="middle" x="130.5" y="-223.3" font-family="Times,serif" font-size="14.00">samples = 23</text>
<text text-anchor="middle" x="130.5" y="-208.3" font-family="Times,serif" font-size="14.00">value = [0, 0, 23]</text>
</g>
<!-- 3&#45;&gt;4 -->
<g id="edge4" class="edge">
<title>3&#45;&gt;4</title>
<path fill="none" stroke="black" d="M173.72,-296.88C166.75,-285.78 158.97,-273.37 151.95,-262.18"/>
<polygon fill="black" stroke="black" points="154.79,-260.13 146.51,-253.52 148.86,-263.85 154.79,-260.13"/>
</g>
<!-- 5 -->
<g id="node6" class="node">
<title>5</title>
<polygon fill="#7beeab" stroke="black" points="311.5,-261 205.5,-261 205.5,-193 311.5,-193 311.5,-261"/>
<text text-anchor="middle" x="258.5" y="-245.8" font-family="Times,serif" font-size="14.00">ash &lt;= 2.47</text>
<text text-anchor="middle" x="258.5" y="-230.8" font-family="Times,serif" font-size="14.00">gini = 0.449</text>
<text text-anchor="middle" x="258.5" y="-215.8" font-family="Times,serif" font-size="14.00">samples = 7</text>
<text text-anchor="middle" x="258.5" y="-200.8" font-family="Times,serif" font-size="14.00">value = [1, 5, 1]</text>
</g>
<!-- 3&#45;&gt;5 -->
<g id="edge5" class="edge">
<title>3&#45;&gt;5</title>
<path fill="none" stroke="black" d="M215.28,-296.88C220.7,-288.24 226.61,-278.82 232.28,-269.79"/>
<polygon fill="black" stroke="black" points="235.26,-271.63 237.61,-261.3 229.33,-267.91 235.26,-271.63"/>
</g>
<!-- 6 -->
<g id="node7" class="node">
<title>6</title>
<polygon fill="#39e581" stroke="black" points="242.5,-149.5 136.5,-149.5 136.5,-96.5 242.5,-96.5 242.5,-149.5"/>
<text text-anchor="middle" x="189.5" y="-134.3" font-family="Times,serif" font-size="14.00">gini = 0.0</text>
<text text-anchor="middle" x="189.5" y="-119.3" font-family="Times,serif" font-size="14.00">samples = 5</text>
<text text-anchor="middle" x="189.5" y="-104.3" font-family="Times,serif" font-size="14.00">value = [0, 5, 0]</text>
</g>
<!-- 5&#45;&gt;6 -->
<g id="edge6" class="edge">
<title>5&#45;&gt;6</title>
<path fill="none" stroke="black" d="M236.1,-192.88C228.51,-181.67 220.03,-169.13 212.4,-157.85"/>
<polygon fill="black" stroke="black" points="215.27,-155.84 206.76,-149.52 209.47,-159.76 215.27,-155.84"/>
</g>
<!-- 7 -->
<g id="node8" class="node">
<title>7</title>
<polygon fill="#ffffff" stroke="black" points="396,-157 261,-157 261,-89 396,-89 396,-157"/>
<text text-anchor="middle" x="328.5" y="-141.8" font-family="Times,serif" font-size="14.00">magnesium &lt;= 120.5</text>
<text text-anchor="middle" x="328.5" y="-126.8" font-family="Times,serif" font-size="14.00">gini = 0.5</text>
<text text-anchor="middle" x="328.5" y="-111.8" font-family="Times,serif" font-size="14.00">samples = 2</text>
<text text-anchor="middle" x="328.5" y="-96.8" font-family="Times,serif" font-size="14.00">value = [1, 0, 1]</text>
</g>
<!-- 5&#45;&gt;7 -->
<g id="edge7" class="edge">
<title>5&#45;&gt;7</title>
<path fill="none" stroke="black" d="M281.23,-192.88C287.16,-184.24 293.62,-174.82 299.82,-165.79"/>
<polygon fill="black" stroke="black" points="302.87,-167.52 305.65,-157.3 297.1,-163.56 302.87,-167.52"/>
</g>
<!-- 8 -->
<g id="node9" class="node">
<title>8</title>
<polygon fill="#e58139" stroke="black" points="319.5,-53 213.5,-53 213.5,0 319.5,0 319.5,-53"/>
<text text-anchor="middle" x="266.5" y="-37.8" font-family="Times,serif" font-size="14.00">gini = 0.0</text>
<text text-anchor="middle" x="266.5" y="-22.8" font-family="Times,serif" font-size="14.00">samples = 1</text>
<text text-anchor="middle" x="266.5" y="-7.8" font-family="Times,serif" font-size="14.00">value = [1, 0, 0]</text>
</g>
<!-- 7&#45;&gt;8 -->
<g id="edge8" class="edge">
<title>7&#45;&gt;8</title>
<path fill="none" stroke="black" d="M306.82,-88.95C301.05,-80.17 294.82,-70.66 289.01,-61.82"/>
<polygon fill="black" stroke="black" points="291.8,-59.68 283.39,-53.24 285.94,-63.52 291.8,-59.68"/>
</g>
<!-- 9 -->
<g id="node10" class="node">
<title>9</title>
<polygon fill="#8139e5" stroke="black" points="443.5,-53 337.5,-53 337.5,0 443.5,0 443.5,-53"/>
<text text-anchor="middle" x="390.5" y="-37.8" font-family="Times,serif" font-size="14.00">gini = 0.0</text>
<text text-anchor="middle" x="390.5" y="-22.8" font-family="Times,serif" font-size="14.00">samples = 1</text>
<text text-anchor="middle" x="390.5" y="-7.8" font-family="Times,serif" font-size="14.00">value = [0, 0, 1]</text>
</g>
<!-- 7&#45;&gt;9 -->
<g id="edge9" class="edge">
<title>7&#45;&gt;9</title>
<path fill="none" stroke="black" d="M350.18,-88.95C355.95,-80.17 362.18,-70.66 367.99,-61.82"/>
<polygon fill="black" stroke="black" points="371.06,-63.52 373.61,-53.24 365.2,-59.68 371.06,-63.52"/>
</g>
<!-- 11 -->
<g id="node12" class="node">
<title>11</title>
<polygon fill="#39e581" stroke="black" points="399.5,-357.5 293.5,-357.5 293.5,-304.5 399.5,-304.5 399.5,-357.5"/>
<text text-anchor="middle" x="346.5" y="-342.3" font-family="Times,serif" font-size="14.00">gini = 0.0</text>
<text text-anchor="middle" x="346.5" y="-327.3" font-family="Times,serif" font-size="14.00">samples = 3</text>
<text text-anchor="middle" x="346.5" y="-312.3" font-family="Times,serif" font-size="14.00">value = [0, 3, 0]</text>
</g>
<!-- 10&#45;&gt;11 -->
<g id="edge11" class="edge">
<title>10&#45;&gt;11</title>
<path fill="none" stroke="black" d="M352.58,-400.88C351.64,-390.22 350.59,-378.35 349.63,-367.52"/>
<polygon fill="black" stroke="black" points="353.12,-367.17 348.75,-357.52 346.14,-367.79 353.12,-367.17"/>
</g>
<!-- 12 -->
<g id="node13" class="node">
<title>12</title>
<polygon fill="#e58139" stroke="black" points="531,-357.5 418,-357.5 418,-304.5 531,-304.5 531,-357.5"/>
<text text-anchor="middle" x="474.5" y="-342.3" font-family="Times,serif" font-size="14.00">gini = 0.0</text>
<text text-anchor="middle" x="474.5" y="-327.3" font-family="Times,serif" font-size="14.00">samples = 28</text>
<text text-anchor="middle" x="474.5" y="-312.3" font-family="Times,serif" font-size="14.00">value = [28, 0, 0]</text>
</g>
<!-- 10&#45;&gt;12 -->
<g id="edge12" class="edge">
<title>10&#45;&gt;12</title>
<path fill="none" stroke="black" d="M394.14,-400.88C407.86,-389.12 423.29,-375.89 436.93,-364.2"/>
<polygon fill="black" stroke="black" points="439.41,-366.69 444.73,-357.52 434.86,-361.37 439.41,-366.69"/>
</g>
</g>
</svg>
