<?xml version="1.0" encoding="UTF-8" standalone="no"?>
<!DOCTYPE svg PUBLIC "-//W3C//DTD SVG 1.1//EN"
 "http://www.w3.org/Graphics/SVG/1.1/DTD/svg11.dtd">
<!-- Generated by graphviz version 2.46.1 (20210213.1702)
 -->
<!-- Title: Tree Pages: 1 -->
<svg width="615pt" height="373pt"
 viewBox="0.00 0.00 615.00 373.00" xmlns="http://www.w3.org/2000/svg" xmlns:xlink="http://www.w3.org/1999/xlink">
<g id="graph0" class="graph" transform="scale(1 1) rotate(0) translate(4 369)">
<title>Tree</title>
<polygon fill="white" stroke="transparent" points="-4,4 -4,-369 611,-369 611,4 -4,4"/>
<!-- 0 -->
<g id="node1" class="node">
<title>0</title>
<polygon fill="#e8fcf0" stroke="black" points="403.5,-365 277.5,-365 277.5,-297 403.5,-297 403.5,-365"/>
<text text-anchor="middle" x="340.5" y="-349.8" font-family="Times,serif" font-size="14.00">proline &lt;= 755.0</text>
<text text-anchor="middle" x="340.5" y="-334.8" font-family="Times,serif" font-size="14.00">gini = 0.657</text>
<text text-anchor="middle" x="340.5" y="-319.8" font-family="Times,serif" font-size="14.00">samples = 89</text>
<text text-anchor="middle" x="340.5" y="-304.8" font-family="Times,serif" font-size="14.00">value = [29, 36, 24]</text>
</g>
<!-- 1 -->
<g id="node2" class="node">
<title>1</title>
<polygon fill="#a7f3c7" stroke="black" points="362,-261 119,-261 119,-193 362,-193 362,-261"/>
<text text-anchor="middle" x="240.5" y="-245.8" font-family="Times,serif" font-size="14.00">od280/od315_of_diluted_wines &lt;= 2.055</text>
<text text-anchor="middle" x="240.5" y="-230.8" font-family="Times,serif" font-size="14.00">gini = 0.459</text>
<text text-anchor="middle" x="240.5" y="-215.8" font-family="Times,serif" font-size="14.00">samples = 56</text>
<text text-anchor="middle" x="240.5" y="-200.8" font-family="Times,serif" font-size="14.00">value = [0, 36, 20]</text>
</g>
<!-- 0&#45;&gt;1 -->
<g id="edge1" class="edge">
<title>0&#45;&gt;1</title>
<path fill="none" stroke="black" d="M308.03,-296.88C299.21,-287.89 289.56,-278.04 280.38,-268.68"/>
<polygon fill="black" stroke="black" points="282.65,-265.99 273.15,-261.3 277.65,-270.89 282.65,-265.99"/>
<text text-anchor="middle" x="272.9" y="-282.6" font-family="Times,serif" font-size="14.00">True</text>
</g>
<!-- 6 -->
<g id="node7" class="node">
<title>6</title>
<polygon fill="#e99254" stroke="black" points="500.5,-261 380.5,-261 380.5,-193 500.5,-193 500.5,-261"/>
<text text-anchor="middle" x="440.5" y="-245.8" font-family="Times,serif" font-size="14.00">flavanoids &lt;= 1.51</text>
<text text-anchor="middle" x="440.5" y="-230.8" font-family="Times,serif" font-size="14.00">gini = 0.213</text>
<text text-anchor="middle" x="440.5" y="-215.8" font-family="Times,serif" font-size="14.00">samples = 33</text>
<text text-anchor="middle" x="440.5" y="-200.8" font-family="Times,serif" font-size="14.00">value = [29, 0, 4]</text>
</g>
<!-- 0&#45;&gt;6 -->
<g id="edge6" class="edge">
<title>0&#45;&gt;6</title>
<path fill="none" stroke="black" d="M372.97,-296.88C381.79,-287.89 391.44,-278.04 400.62,-268.68"/>
<polygon fill="black" stroke="black" points="403.35,-270.89 407.85,-261.3 398.35,-265.99 403.35,-270.89"/>
<text text-anchor="middle" x="408.1" y="-282.6" font-family="Times,serif" font-size="14.00">False</text>
</g>
<!-- 2 -->
<g id="node3" class="node">
<title>2</title>
<polygon fill="#8743e6" stroke="black" points="184,-157 57,-157 57,-89 184,-89 184,-157"/>
<text text-anchor="middle" x="120.5" y="-141.8" font-family="Times,serif" font-size="14.00">flavanoids &lt;= 1.475</text>
<text text-anchor="middle" x="120.5" y="-126.8" font-family="Times,serif" font-size="14.00">gini = 0.091</text>
<text text-anchor="middle" x="120.5" y="-111.8" font-family="Times,serif" font-size="14.00">samples = 21</text>
<text text-anchor="middle" x="120.5" y="-96.8" font-family="Times,serif" font-size="14.00">value = [0, 1, 20]</text>
</g>
<!-- 1&#45;&gt;2 -->
<g id="edge2" class="edge">
<title>1&#45;&gt;2</title>
<path fill="none" stroke="black" d="M201.54,-192.88C190.64,-183.62 178.68,-173.45 167.38,-163.85"/>
<polygon fill="black" stroke="black" points="169.56,-161.11 159.68,-157.3 165.03,-166.44 169.56,-161.11"/>
</g>
<!-- 5 -->
<g id="node6" class="node">
<title>5</title>
<polygon fill="#39e581" stroke="black" points="315,-149.5 202,-149.5 202,-96.5 315,-96.5 315,-149.5"/>
<text text-anchor="middle" x="258.5" y="-134.3" font-family="Times,serif" font-size="14.00">gini = 0.0</text>
<text text-anchor="middle" x="258.5" y="-119.3" font-family="Times,serif" font-size="14.00">samples = 35</text>
<text text-anchor="middle" x="258.5" y="-104.3" font-family="Times,serif" font-size="14.00">value = [0, 35, 0]</text>
</g>
<!-- 1&#45;&gt;5 -->
<g id="edge5" class="edge">
<title>1&#45;&gt;5</title>
<path fill="none" stroke="black" d="M246.34,-192.88C248.23,-182.22 250.32,-170.35 252.23,-159.52"/>
<polygon fill="black" stroke="black" points="255.71,-159.98 254,-149.52 248.81,-158.76 255.71,-159.98"/>
</g>
<!-- 3 -->
<g id="node4" class="node">
<title>3</title>
<polygon fill="#8139e5" stroke="black" points="113,-53 0,-53 0,0 113,0 113,-53"/>
<text text-anchor="middle" x="56.5" y="-37.8" font-family="Times,serif" font-size="14.00">gini = 0.0</text>
<text text-anchor="middle" x="56.5" y="-22.8" font-family="Times,serif" font-size="14.00">samples = 20</text>
<text text-anchor="middle" x="56.5" y="-7.8" font-family="Times,serif" font-size="14.00">value = [0, 0, 20]</text>
</g>
<!-- 2&#45;&gt;3 -->
<g id="edge3" class="edge">
<title>2&#45;&gt;3</title>
<path fill="none" stroke="black" d="M98.12,-88.95C92.11,-80.07 85.6,-70.46 79.55,-61.54"/>
<polygon fill="black" stroke="black" points="82.44,-59.55 73.93,-53.24 76.64,-63.48 82.44,-59.55"/>
</g>
<!-- 4 -->
<g id="node5" class="node">
<title>4</title>
<polygon fill="#39e581" stroke="black" points="237.5,-53 131.5,-53 131.5,0 237.5,0 237.5,-53"/>
<text text-anchor="middle" x="184.5" y="-37.8" font-family="Times,serif" font-size="14.00">gini = 0.0</text>
<text text-anchor="middle" x="184.5" y="-22.8" font-family="Times,serif" font-size="14.00">samples = 1</text>
<text text-anchor="middle" x="184.5" y="-7.8" font-family="Times,serif" font-size="14.00">value = [0, 1, 0]</text>
</g>
<!-- 2&#45;&gt;4 -->
<g id="edge4" class="edge">
<title>2&#45;&gt;4</title>
<path fill="none" stroke="black" d="M142.88,-88.95C148.89,-80.07 155.4,-70.46 161.45,-61.54"/>
<polygon fill="black" stroke="black" points="164.36,-63.48 167.07,-53.24 158.56,-59.55 164.36,-63.48"/>
</g>
<!-- 7 -->
<g id="node8" class="node">
<title>7</title>
<polygon fill="#8139e5" stroke="black" points="475.5,-149.5 369.5,-149.5 369.5,-96.5 475.5,-96.5 475.5,-149.5"/>
<text text-anchor="middle" x="422.5" y="-134.3" font-family="Times,serif" font-size="14.00">gini = 0.0</text>
<text text-anchor="middle" x="422.5" y="-119.3" font-family="Times,serif" font-size="14.00">samples = 4</text>
<text text-anchor="middle" x="422.5" y="-104.3" font-family="Times,serif" font-size="14.00">value = [0, 0, 4]</text>
</g>
<!-- 6&#45;&gt;7 -->
<g id="edge7" class="edge">
<title>6&#45;&gt;7</title>
<path fill="none" stroke="black" d="M434.66,-192.88C432.77,-182.22 430.68,-170.35 428.77,-159.52"/>
<polygon fill="black" stroke="black" points="432.19,-158.76 427,-149.52 425.29,-159.98 432.19,-158.76"/>
</g>
<!-- 8 -->
<g id="node9" class="node">
<title>8</title>
<polygon fill="#e58139" stroke="black" points="607,-149.5 494,-149.5 494,-96.5 607,-96.5 607,-149.5"/>
<text text-anchor="middle" x="550.5" y="-134.3" font-family="Times,serif" font-size="14.00">gini = 0.0</text>
<text text-anchor="middle" x="550.5" y="-119.3" font-family="Times,serif" font-size="14.00">samples = 29</text>
<text text-anchor="middle" x="550.5" y="-104.3" font-family="Times,serif" font-size="14.00">value = [29, 0, 0]</text>
</g>
<!-- 6&#45;&gt;8 -->
<g id="edge8" class="edge">
<title>6&#45;&gt;8</title>
<path fill="none" stroke="black" d="M476.21,-192.88C488.79,-181.23 502.9,-168.14 515.42,-156.53"/>
<polygon fill="black" stroke="black" points="518.03,-158.89 522.98,-149.52 513.27,-153.75 518.03,-158.89"/>
</g>
</g>
</svg>
