<?xml version="1.0" encoding="UTF-8" standalone="no"?>
<!DOCTYPE svg PUBLIC "-//W3C//DTD SVG 1.1//EN"
 "http://www.w3.org/Graphics/SVG/1.1/DTD/svg11.dtd">
<!-- Generated by graphviz version 2.46.1 (20210213.1702)
 -->
<!-- Title: Tree Pages: 1 -->
<svg width="1344pt" height="477pt"
 viewBox="0.00 0.00 1343.50 477.00" xmlns="http://www.w3.org/2000/svg" xmlns:xlink="http://www.w3.org/1999/xlink">
<g id="graph0" class="graph" transform="scale(1 1) rotate(0) translate(4 473)">
<title>Tree</title>
<polygon fill="white" stroke="transparent" points="-4,4 -4,-473 1339.5,-473 1339.5,4 -4,4"/>
<!-- 0 -->
<g id="node1" class="node">
<title>0</title>
<polygon fill="#f7d6bf" stroke="black" points="597,-469 492,-469 492,-401 597,-401 597,-469"/>
<text text-anchor="middle" x="544.5" y="-453.8" font-family="Times,serif" font-size="14.00">LSTAT &lt;= 9.95</text>
<text text-anchor="middle" x="544.5" y="-438.8" font-family="Times,serif" font-size="14.00">mse = 82.592</text>
<text text-anchor="middle" x="544.5" y="-423.8" font-family="Times,serif" font-size="14.00">samples = 354</text>
<text text-anchor="middle" x="544.5" y="-408.8" font-family="Times,serif" font-size="14.00">value = 22.425</text>
</g>
<!-- 1 -->
<g id="node2" class="node">
<title>1</title>
<polygon fill="#f2c19e" stroke="black" points="440,-365 341,-365 341,-297 440,-297 440,-365"/>
<text text-anchor="middle" x="390.5" y="-349.8" font-family="Times,serif" font-size="14.00">RM &lt;= 7.437</text>
<text text-anchor="middle" x="390.5" y="-334.8" font-family="Times,serif" font-size="14.00">mse = 83.629</text>
<text text-anchor="middle" x="390.5" y="-319.8" font-family="Times,serif" font-size="14.00">samples = 150</text>
<text text-anchor="middle" x="390.5" y="-304.8" font-family="Times,serif" font-size="14.00">value = 29.187</text>
</g>
<!-- 0&#45;&gt;1 -->
<g id="edge1" class="edge">
<title>0&#45;&gt;1</title>
<path fill="none" stroke="black" d="M494.5,-400.88C479.96,-391.26 463.96,-380.65 448.95,-370.71"/>
<polygon fill="black" stroke="black" points="450.52,-367.55 440.25,-364.95 446.65,-373.39 450.52,-367.55"/>
<text text-anchor="middle" x="445.23" y="-385.75" font-family="Times,serif" font-size="14.00">True</text>
</g>
<!-- 12 -->
<g id="node13" class="node">
<title>12</title>
<polygon fill="#fae6d7" stroke="black" points="718,-365 613,-365 613,-297 718,-297 718,-365"/>
<text text-anchor="middle" x="665.5" y="-349.8" font-family="Times,serif" font-size="14.00">LSTAT &lt;= 15.0</text>
<text text-anchor="middle" x="665.5" y="-334.8" font-family="Times,serif" font-size="14.00">mse = 23.489</text>
<text text-anchor="middle" x="665.5" y="-319.8" font-family="Times,serif" font-size="14.00">samples = 204</text>
<text text-anchor="middle" x="665.5" y="-304.8" font-family="Times,serif" font-size="14.00">value = 17.453</text>
</g>
<!-- 0&#45;&gt;12 -->
<g id="edge12" class="edge">
<title>0&#45;&gt;12</title>
<path fill="none" stroke="black" d="M583.79,-400.88C594.77,-391.62 606.83,-381.45 618.23,-371.85"/>
<polygon fill="black" stroke="black" points="620.61,-374.42 626,-365.3 616.1,-369.07 620.61,-374.42"/>
<text text-anchor="middle" x="623.88" y="-386.51" font-family="Times,serif" font-size="14.00">False</text>
</g>
<!-- 2 -->
<g id="node3" class="node">
<title>2</title>
<polygon fill="#f4c9aa" stroke="black" points="216,-261 117,-261 117,-193 216,-193 216,-261"/>
<text text-anchor="middle" x="166.5" y="-245.8" font-family="Times,serif" font-size="14.00">DIS &lt;= 1.485</text>
<text text-anchor="middle" x="166.5" y="-230.8" font-family="Times,serif" font-size="14.00">mse = 45.288</text>
<text text-anchor="middle" x="166.5" y="-215.8" font-family="Times,serif" font-size="14.00">samples = 130</text>
<text text-anchor="middle" x="166.5" y="-200.8" font-family="Times,serif" font-size="14.00">value = 26.766</text>
</g>
<!-- 1&#45;&gt;2 -->
<g id="edge2" class="edge">
<title>1&#45;&gt;2</title>
<path fill="none" stroke="black" d="M340.79,-307.36C306.71,-291.85 261.36,-271.19 225.46,-254.85"/>
<polygon fill="black" stroke="black" points="226.63,-251.53 216.07,-250.57 223.72,-257.9 226.63,-251.53"/>
</g>
<!-- 7 -->
<g id="node8" class="node">
<title>7</title>
<polygon fill="#e89152" stroke="black" points="444,-261 337,-261 337,-193 444,-193 444,-261"/>
<text text-anchor="middle" x="390.5" y="-245.8" font-family="Times,serif" font-size="14.00">CRIM &lt;= 2.497</text>
<text text-anchor="middle" x="390.5" y="-230.8" font-family="Times,serif" font-size="14.00">mse = 47.071</text>
<text text-anchor="middle" x="390.5" y="-215.8" font-family="Times,serif" font-size="14.00">samples = 20</text>
<text text-anchor="middle" x="390.5" y="-200.8" font-family="Times,serif" font-size="14.00">value = 44.925</text>
</g>
<!-- 1&#45;&gt;7 -->
<g id="edge7" class="edge">
<title>1&#45;&gt;7</title>
<path fill="none" stroke="black" d="M390.5,-296.88C390.5,-288.78 390.5,-279.98 390.5,-271.47"/>
<polygon fill="black" stroke="black" points="394,-271.3 390.5,-261.3 387,-271.3 394,-271.3"/>
</g>
<!-- 3 -->
<g id="node4" class="node">
<title>3</title>
<polygon fill="#e58139" stroke="black" points="98.5,-149.5 12.5,-149.5 12.5,-96.5 98.5,-96.5 98.5,-149.5"/>
<text text-anchor="middle" x="55.5" y="-134.3" font-family="Times,serif" font-size="14.00">mse = 0.0</text>
<text text-anchor="middle" x="55.5" y="-119.3" font-family="Times,serif" font-size="14.00">samples = 5</text>
<text text-anchor="middle" x="55.5" y="-104.3" font-family="Times,serif" font-size="14.00">value = 50.0</text>
</g>
<!-- 2&#45;&gt;3 -->
<g id="edge3" class="edge">
<title>2&#45;&gt;3</title>
<path fill="none" stroke="black" d="M130.46,-192.88C117.78,-181.23 103.54,-168.14 90.9,-156.53"/>
<polygon fill="black" stroke="black" points="93,-153.71 83.27,-149.52 88.27,-158.86 93,-153.71"/>
</g>
<!-- 4 -->
<g id="node5" class="node">
<title>4</title>
<polygon fill="#f4ccae" stroke="black" points="216,-157 117,-157 117,-89 216,-89 216,-157"/>
<text text-anchor="middle" x="166.5" y="-141.8" font-family="Times,serif" font-size="14.00">RM &lt;= 6.711</text>
<text text-anchor="middle" x="166.5" y="-126.8" font-family="Times,serif" font-size="14.00">mse = 24.643</text>
<text text-anchor="middle" x="166.5" y="-111.8" font-family="Times,serif" font-size="14.00">samples = 125</text>
<text text-anchor="middle" x="166.5" y="-96.8" font-family="Times,serif" font-size="14.00">value = 25.837</text>
</g>
<!-- 2&#45;&gt;4 -->
<g id="edge4" class="edge">
<title>2&#45;&gt;4</title>
<path fill="none" stroke="black" d="M166.5,-192.88C166.5,-184.78 166.5,-175.98 166.5,-167.47"/>
<polygon fill="black" stroke="black" points="170,-167.3 166.5,-157.3 163,-167.3 170,-167.3"/>
</g>
<!-- 5 -->
<g id="node6" class="node">
<title>5</title>
<polygon fill="#f6d3b9" stroke="black" points="99,-53 0,-53 0,0 99,0 99,-53"/>
<text text-anchor="middle" x="49.5" y="-37.8" font-family="Times,serif" font-size="14.00">mse = 12.933</text>
<text text-anchor="middle" x="49.5" y="-22.8" font-family="Times,serif" font-size="14.00">samples = 85</text>
<text text-anchor="middle" x="49.5" y="-7.8" font-family="Times,serif" font-size="14.00">value = 23.599</text>
</g>
<!-- 4&#45;&gt;5 -->
<g id="edge5" class="edge">
<title>4&#45;&gt;5</title>
<path fill="none" stroke="black" d="M125.58,-88.95C113.8,-79.43 100.97,-69.07 89.26,-59.62"/>
<polygon fill="black" stroke="black" points="91.34,-56.8 81.36,-53.24 86.94,-62.24 91.34,-56.8"/>
</g>
<!-- 6 -->
<g id="node7" class="node">
<title>6</title>
<polygon fill="#f1bd97" stroke="black" points="216,-53 117,-53 117,0 216,0 216,-53"/>
<text text-anchor="middle" x="166.5" y="-37.8" font-family="Times,serif" font-size="14.00">mse = 16.268</text>
<text text-anchor="middle" x="166.5" y="-22.8" font-family="Times,serif" font-size="14.00">samples = 40</text>
<text text-anchor="middle" x="166.5" y="-7.8" font-family="Times,serif" font-size="14.00">value = 30.592</text>
</g>
<!-- 4&#45;&gt;6 -->
<g id="edge6" class="edge">
<title>4&#45;&gt;6</title>
<path fill="none" stroke="black" d="M166.5,-88.95C166.5,-80.72 166.5,-71.85 166.5,-63.48"/>
<polygon fill="black" stroke="black" points="170,-63.24 166.5,-53.24 163,-63.24 170,-63.24"/>
</g>
<!-- 8 -->
<g id="node9" class="node">
<title>8</title>
<polygon fill="#e78d4c" stroke="black" points="392.5,-157 272.5,-157 272.5,-89 392.5,-89 392.5,-157"/>
<text text-anchor="middle" x="332.5" y="-141.8" font-family="Times,serif" font-size="14.00">PTRATIO &lt;= 17.9</text>
<text text-anchor="middle" x="332.5" y="-126.8" font-family="Times,serif" font-size="14.00">mse = 20.177</text>
<text text-anchor="middle" x="332.5" y="-111.8" font-family="Times,serif" font-size="14.00">samples = 19</text>
<text text-anchor="middle" x="332.5" y="-96.8" font-family="Times,serif" font-size="14.00">value = 46.137</text>
</g>
<!-- 7&#45;&gt;8 -->
<g id="edge8" class="edge">
<title>7&#45;&gt;8</title>
<path fill="none" stroke="black" d="M371.67,-192.88C366.81,-184.33 361.51,-175.01 356.42,-166.07"/>
<polygon fill="black" stroke="black" points="359.42,-164.26 351.43,-157.3 353.34,-167.72 359.42,-164.26"/>
</g>
<!-- 11 -->
<g id="node12" class="node">
<title>11</title>
<polygon fill="#f7d8c2" stroke="black" points="496.5,-149.5 410.5,-149.5 410.5,-96.5 496.5,-96.5 496.5,-149.5"/>
<text text-anchor="middle" x="453.5" y="-134.3" font-family="Times,serif" font-size="14.00">mse = 0.0</text>
<text text-anchor="middle" x="453.5" y="-119.3" font-family="Times,serif" font-size="14.00">samples = 1</text>
<text text-anchor="middle" x="453.5" y="-104.3" font-family="Times,serif" font-size="14.00">value = 21.9</text>
</g>
<!-- 7&#45;&gt;11 -->
<g id="edge11" class="edge">
<title>7&#45;&gt;11</title>
<path fill="none" stroke="black" d="M410.95,-192.88C417.82,-181.78 425.48,-169.37 432.39,-158.18"/>
<polygon fill="black" stroke="black" points="435.46,-159.87 437.74,-149.52 429.5,-156.19 435.46,-159.87"/>
</g>
<!-- 9 -->
<g id="node10" class="node">
<title>9</title>
<polygon fill="#e68844" stroke="black" points="326.5,-53 234.5,-53 234.5,0 326.5,0 326.5,-53"/>
<text text-anchor="middle" x="280.5" y="-37.8" font-family="Times,serif" font-size="14.00">mse = 10.22</text>
<text text-anchor="middle" x="280.5" y="-22.8" font-family="Times,serif" font-size="14.00">samples = 15</text>
<text text-anchor="middle" x="280.5" y="-7.8" font-family="Times,serif" font-size="14.00">value = 47.74</text>
</g>
<!-- 8&#45;&gt;9 -->
<g id="edge9" class="edge">
<title>8&#45;&gt;9</title>
<path fill="none" stroke="black" d="M314.31,-88.95C309.53,-80.26 304.36,-70.86 299.53,-62.09"/>
<polygon fill="black" stroke="black" points="302.55,-60.31 294.66,-53.24 296.42,-63.69 302.55,-60.31"/>
</g>
<!-- 10 -->
<g id="node11" class="node">
<title>10</title>
<polygon fill="#eba069" stroke="black" points="444,-53 345,-53 345,0 444,0 444,-53"/>
<text text-anchor="middle" x="394.5" y="-37.8" font-family="Times,serif" font-size="14.00">mse = 11.737</text>
<text text-anchor="middle" x="394.5" y="-22.8" font-family="Times,serif" font-size="14.00">samples = 4</text>
<text text-anchor="middle" x="394.5" y="-7.8" font-family="Times,serif" font-size="14.00">value = 40.125</text>
</g>
<!-- 8&#45;&gt;10 -->
<g id="edge10" class="edge">
<title>8&#45;&gt;10</title>
<path fill="none" stroke="black" d="M354.18,-88.95C359.95,-80.17 366.18,-70.66 371.99,-61.82"/>
<polygon fill="black" stroke="black" points="375.06,-63.52 377.61,-53.24 369.2,-59.68 375.06,-63.52"/>
</g>
<!-- 13 -->
<g id="node14" class="node">
<title>13</title>
<polygon fill="#f8dbc7" stroke="black" points="729,-261 602,-261 602,-193 729,-193 729,-261"/>
<text text-anchor="middle" x="665.5" y="-245.8" font-family="Times,serif" font-size="14.00">PTRATIO &lt;= 13.85</text>
<text text-anchor="middle" x="665.5" y="-230.8" font-family="Times,serif" font-size="14.00">mse = 9.072</text>
<text text-anchor="middle" x="665.5" y="-215.8" font-family="Times,serif" font-size="14.00">samples = 89</text>
<text text-anchor="middle" x="665.5" y="-200.8" font-family="Times,serif" font-size="14.00">value = 20.812</text>
</g>
<!-- 12&#45;&gt;13 -->
<g id="edge13" class="edge">
<title>12&#45;&gt;13</title>
<path fill="none" stroke="black" d="M665.5,-296.88C665.5,-288.78 665.5,-279.98 665.5,-271.47"/>
<polygon fill="black" stroke="black" points="669,-271.3 665.5,-261.3 662,-271.3 669,-271.3"/>
</g>
<!-- 20 -->
<g id="node21" class="node">
<title>20</title>
<polygon fill="#fbeee4" stroke="black" points="1044,-261 943,-261 943,-193 1044,-193 1044,-261"/>
<text text-anchor="middle" x="993.5" y="-245.8" font-family="Times,serif" font-size="14.00">NOX &lt;= 0.657</text>
<text text-anchor="middle" x="993.5" y="-230.8" font-family="Times,serif" font-size="14.00">mse = 19.157</text>
<text text-anchor="middle" x="993.5" y="-215.8" font-family="Times,serif" font-size="14.00">samples = 115</text>
<text text-anchor="middle" x="993.5" y="-200.8" font-family="Times,serif" font-size="14.00">value = 14.854</text>
</g>
<!-- 12&#45;&gt;20 -->
<g id="edge20" class="edge">
<title>12&#45;&gt;20</title>
<path fill="none" stroke="black" d="M718.2,-313.61C776.9,-295.36 871.62,-265.9 933.23,-246.74"/>
<polygon fill="black" stroke="black" points="934.31,-250.07 942.82,-243.76 932.23,-243.39 934.31,-250.07"/>
</g>
<!-- 14 -->
<g id="node15" class="node">
<title>14</title>
<polygon fill="#f3c5a3" stroke="black" points="657,-157 558,-157 558,-89 657,-89 657,-157"/>
<text text-anchor="middle" x="607.5" y="-141.8" font-family="Times,serif" font-size="14.00">RM &lt;= 6.287</text>
<text text-anchor="middle" x="607.5" y="-126.8" font-family="Times,serif" font-size="14.00">mse = 14.416</text>
<text text-anchor="middle" x="607.5" y="-111.8" font-family="Times,serif" font-size="14.00">samples = 3</text>
<text text-anchor="middle" x="607.5" y="-96.8" font-family="Times,serif" font-size="14.00">value = 28.167</text>
</g>
<!-- 13&#45;&gt;14 -->
<g id="edge14" class="edge">
<title>13&#45;&gt;14</title>
<path fill="none" stroke="black" d="M646.67,-192.88C641.81,-184.33 636.51,-175.01 631.42,-166.07"/>
<polygon fill="black" stroke="black" points="634.42,-164.26 626.43,-157.3 628.34,-167.72 634.42,-164.26"/>
</g>
<!-- 17 -->
<g id="node18" class="node">
<title>17</title>
<polygon fill="#f8dcc8" stroke="black" points="774,-157 675,-157 675,-89 774,-89 774,-157"/>
<text text-anchor="middle" x="724.5" y="-141.8" font-family="Times,serif" font-size="14.00">DIS &lt;= 1.301</text>
<text text-anchor="middle" x="724.5" y="-126.8" font-family="Times,serif" font-size="14.00">mse = 6.933</text>
<text text-anchor="middle" x="724.5" y="-111.8" font-family="Times,serif" font-size="14.00">samples = 86</text>
<text text-anchor="middle" x="724.5" y="-96.8" font-family="Times,serif" font-size="14.00">value = 20.556</text>
</g>
<!-- 13&#45;&gt;17 -->
<g id="edge17" class="edge">
<title>13&#45;&gt;17</title>
<path fill="none" stroke="black" d="M684.66,-192.88C689.6,-184.33 694.99,-175.01 700.16,-166.07"/>
<polygon fill="black" stroke="black" points="703.26,-167.71 705.24,-157.3 697.2,-164.2 703.26,-167.71"/>
</g>
<!-- 15 -->
<g id="node16" class="node">
<title>15</title>
<polygon fill="#f6d5bd" stroke="black" points="548.5,-53 462.5,-53 462.5,0 548.5,0 548.5,-53"/>
<text text-anchor="middle" x="505.5" y="-37.8" font-family="Times,serif" font-size="14.00">mse = 0.0</text>
<text text-anchor="middle" x="505.5" y="-22.8" font-family="Times,serif" font-size="14.00">samples = 1</text>
<text text-anchor="middle" x="505.5" y="-7.8" font-family="Times,serif" font-size="14.00">value = 22.8</text>
</g>
<!-- 14&#45;&gt;15 -->
<g id="edge15" class="edge">
<title>14&#45;&gt;15</title>
<path fill="none" stroke="black" d="M571.83,-88.95C561.75,-79.62 550.8,-69.47 540.76,-60.16"/>
<polygon fill="black" stroke="black" points="542.99,-57.47 533.28,-53.24 538.24,-62.6 542.99,-57.47"/>
</g>
<!-- 16 -->
<g id="node17" class="node">
<title>16</title>
<polygon fill="#f1bc96" stroke="black" points="658.5,-53 566.5,-53 566.5,0 658.5,0 658.5,-53"/>
<text text-anchor="middle" x="612.5" y="-37.8" font-family="Times,serif" font-size="14.00">mse = 0.022</text>
<text text-anchor="middle" x="612.5" y="-22.8" font-family="Times,serif" font-size="14.00">samples = 2</text>
<text text-anchor="middle" x="612.5" y="-7.8" font-family="Times,serif" font-size="14.00">value = 30.85</text>
</g>
<!-- 14&#45;&gt;16 -->
<g id="edge16" class="edge">
<title>14&#45;&gt;16</title>
<path fill="none" stroke="black" d="M609.25,-88.95C609.68,-80.72 610.15,-71.85 610.6,-63.48"/>
<polygon fill="black" stroke="black" points="614.1,-63.41 611.14,-53.24 607.11,-63.04 614.1,-63.41"/>
</g>
<!-- 18 -->
<g id="node19" class="node">
<title>18</title>
<polygon fill="#f3c5a4" stroke="black" points="762.5,-53 676.5,-53 676.5,0 762.5,0 762.5,-53"/>
<text text-anchor="middle" x="719.5" y="-37.8" font-family="Times,serif" font-size="14.00">mse = 0.0</text>
<text text-anchor="middle" x="719.5" y="-22.8" font-family="Times,serif" font-size="14.00">samples = 1</text>
<text text-anchor="middle" x="719.5" y="-7.8" font-family="Times,serif" font-size="14.00">value = 27.9</text>
</g>
<!-- 17&#45;&gt;18 -->
<g id="edge18" class="edge">
<title>17&#45;&gt;18</title>
<path fill="none" stroke="black" d="M722.75,-88.95C722.32,-80.72 721.85,-71.85 721.4,-63.48"/>
<polygon fill="black" stroke="black" points="724.89,-63.04 720.86,-53.24 717.9,-63.41 724.89,-63.04"/>
</g>
<!-- 19 -->
<g id="node20" class="node">
<title>19</title>
<polygon fill="#f8dcc8" stroke="black" points="880,-53 781,-53 781,0 880,0 880,-53"/>
<text text-anchor="middle" x="830.5" y="-37.8" font-family="Times,serif" font-size="14.00">mse = 6.372</text>
<text text-anchor="middle" x="830.5" y="-22.8" font-family="Times,serif" font-size="14.00">samples = 85</text>
<text text-anchor="middle" x="830.5" y="-7.8" font-family="Times,serif" font-size="14.00">value = 20.469</text>
</g>
<!-- 17&#45;&gt;19 -->
<g id="edge19" class="edge">
<title>17&#45;&gt;19</title>
<path fill="none" stroke="black" d="M761.57,-88.95C772.04,-79.62 783.42,-69.47 793.86,-60.16"/>
<polygon fill="black" stroke="black" points="796.5,-62.5 801.63,-53.24 791.84,-57.28 796.5,-62.5"/>
</g>
<!-- 21 -->
<g id="node22" class="node">
<title>21</title>
<polygon fill="#fae5d6" stroke="black" points="1053.5,-157 933.5,-157 933.5,-89 1053.5,-89 1053.5,-157"/>
<text text-anchor="middle" x="993.5" y="-141.8" font-family="Times,serif" font-size="14.00">PTRATIO &lt;= 19.7</text>
<text text-anchor="middle" x="993.5" y="-126.8" font-family="Times,serif" font-size="14.00">mse = 12.633</text>
<text text-anchor="middle" x="993.5" y="-111.8" font-family="Times,serif" font-size="14.00">samples = 53</text>
<text text-anchor="middle" x="993.5" y="-96.8" font-family="Times,serif" font-size="14.00">value = 17.647</text>
</g>
<!-- 20&#45;&gt;21 -->
<g id="edge21" class="edge">
<title>20&#45;&gt;21</title>
<path fill="none" stroke="black" d="M993.5,-192.88C993.5,-184.78 993.5,-175.98 993.5,-167.47"/>
<polygon fill="black" stroke="black" points="997,-167.3 993.5,-157.3 990,-167.3 997,-167.3"/>
</g>
<!-- 24 -->
<g id="node25" class="node">
<title>24</title>
<polygon fill="#fdf5ef" stroke="black" points="1232,-157 1119,-157 1119,-89 1232,-89 1232,-157"/>
<text text-anchor="middle" x="1175.5" y="-141.8" font-family="Times,serif" font-size="14.00">CRIM &lt;= 11.369</text>
<text text-anchor="middle" x="1175.5" y="-126.8" font-family="Times,serif" font-size="14.00">mse = 12.364</text>
<text text-anchor="middle" x="1175.5" y="-111.8" font-family="Times,serif" font-size="14.00">samples = 62</text>
<text text-anchor="middle" x="1175.5" y="-96.8" font-family="Times,serif" font-size="14.00">value = 12.466</text>
</g>
<!-- 20&#45;&gt;24 -->
<g id="edge24" class="edge">
<title>20&#45;&gt;24</title>
<path fill="none" stroke="black" d="M1044.2,-197.59C1064.63,-186.14 1088.45,-172.78 1110.16,-160.62"/>
<polygon fill="black" stroke="black" points="1111.98,-163.61 1119,-155.67 1108.56,-157.5 1111.98,-163.61"/>
</g>
<!-- 22 -->
<g id="node23" class="node">
<title>22</title>
<polygon fill="#f8dfcd" stroke="black" points="997,-53 898,-53 898,0 997,0 997,-53"/>
<text text-anchor="middle" x="947.5" y="-37.8" font-family="Times,serif" font-size="14.00">mse = 7.93</text>
<text text-anchor="middle" x="947.5" y="-22.8" font-family="Times,serif" font-size="14.00">samples = 23</text>
<text text-anchor="middle" x="947.5" y="-7.8" font-family="Times,serif" font-size="14.00">value = 19.613</text>
</g>
<!-- 21&#45;&gt;22 -->
<g id="edge22" class="edge">
<title>21&#45;&gt;22</title>
<path fill="none" stroke="black" d="M977.41,-88.95C973.23,-80.35 968.7,-71.06 964.47,-62.37"/>
<polygon fill="black" stroke="black" points="967.55,-60.7 960.03,-53.24 961.26,-63.76 967.55,-60.7"/>
</g>
<!-- 23 -->
<g id="node24" class="node">
<title>23</title>
<polygon fill="#fbeade" stroke="black" points="1107.5,-53 1015.5,-53 1015.5,0 1107.5,0 1107.5,-53"/>
<text text-anchor="middle" x="1061.5" y="-37.8" font-family="Times,serif" font-size="14.00">mse = 11.004</text>
<text text-anchor="middle" x="1061.5" y="-22.8" font-family="Times,serif" font-size="14.00">samples = 30</text>
<text text-anchor="middle" x="1061.5" y="-7.8" font-family="Times,serif" font-size="14.00">value = 16.14</text>
</g>
<!-- 21&#45;&gt;23 -->
<g id="edge23" class="edge">
<title>21&#45;&gt;23</title>
<path fill="none" stroke="black" d="M1017.28,-88.95C1023.67,-80.07 1030.58,-70.46 1037.01,-61.54"/>
<polygon fill="black" stroke="black" points="1039.98,-63.4 1042.98,-53.24 1034.3,-59.31 1039.98,-63.4"/>
</g>
<!-- 25 -->
<g id="node26" class="node">
<title>25</title>
<polygon fill="#fcf0e7" stroke="black" points="1225,-53 1126,-53 1126,0 1225,0 1225,-53"/>
<text text-anchor="middle" x="1175.5" y="-37.8" font-family="Times,serif" font-size="14.00">mse = 8.383</text>
<text text-anchor="middle" x="1175.5" y="-22.8" font-family="Times,serif" font-size="14.00">samples = 41</text>
<text text-anchor="middle" x="1175.5" y="-7.8" font-family="Times,serif" font-size="14.00">value = 14.112</text>
</g>
<!-- 24&#45;&gt;25 -->
<g id="edge25" class="edge">
<title>24&#45;&gt;25</title>
<path fill="none" stroke="black" d="M1175.5,-88.95C1175.5,-80.72 1175.5,-71.85 1175.5,-63.48"/>
<polygon fill="black" stroke="black" points="1179,-63.24 1175.5,-53.24 1172,-63.24 1179,-63.24"/>
</g>
<!-- 26 -->
<g id="node27" class="node">
<title>26</title>
<polygon fill="#ffffff" stroke="black" points="1335.5,-53 1243.5,-53 1243.5,0 1335.5,0 1335.5,-53"/>
<text text-anchor="middle" x="1289.5" y="-37.8" font-family="Times,serif" font-size="14.00">mse = 4.518</text>
<text text-anchor="middle" x="1289.5" y="-22.8" font-family="Times,serif" font-size="14.00">samples = 21</text>
<text text-anchor="middle" x="1289.5" y="-7.8" font-family="Times,serif" font-size="14.00">value = 9.252</text>
</g>
<!-- 24&#45;&gt;26 -->
<g id="edge26" class="edge">
<title>24&#45;&gt;26</title>
<path fill="none" stroke="black" d="M1215.37,-88.95C1226.74,-79.53 1239.11,-69.27 1250.43,-59.89"/>
<polygon fill="black" stroke="black" points="1252.99,-62.31 1258.45,-53.24 1248.52,-56.92 1252.99,-62.31"/>
</g>
</g>
</svg>
